<?xml version="1.0" encoding="utf-8"?>
<!-- Generator: Adobe Illustrator 16.0.2, SVG Export Plug-In . SVG Version: 6.00 Build 0)  -->
<!DOCTYPE svg PUBLIC "-//W3C//DTD SVG 1.1//EN" "http://www.w3.org/Graphics/SVG/1.1/DTD/svg11.dtd">
<svg version="1.1" id="Layer_1" xmlns="http://www.w3.org/2000/svg" xmlns:xlink="http://www.w3.org/1999/xlink" x="0px" y="0px"
	 width="1830px" height="800px" viewBox="0 0 1830 800" enable-background="new 0 0 1830 800" xml:space="preserve">
<rect width="1830" height="800"/>
<g>
	<g>
		<g>
			<polygon fill="#FF962E" points="820.149,415.942 820.149,407.455 720.462,437.727 720.462,446.214 			"/>
			<polygon fill="#FF962E" points="820.149,448.462 820.149,439.975 720.462,470.247 720.462,478.733 			"/>
			<polygon fill="#FF962E" points="820.149,432.166 820.149,423.679 720.462,453.951 720.462,462.439 			"/>
			<polygon fill="#FF962E" points="811.679,472.3 811.679,499.954 820.162,499.954 820.162,461.237 720.462,491.512 720.462,500 			
				"/>
			<polygon fill="#FF962E" points="820.133,341.087 820.133,332.599 720.462,362.866 720.462,371.353 			"/>
			<polygon fill="#FF962E" points="820.133,324.815 820.133,316.328 720.462,346.595 720.462,355.082 			"/>
			<polygon fill="#FF962E" points="820.133,308.496 820.133,300.009 720.462,330.275 720.462,338.763 			"/>
			<polygon fill="#FF962E" points="720.479,408.81 811.701,381.108 811.701,388.888 720.478,416.59 720.462,416.584 720.462,425.07 
				720.479,425.076 820.184,394.798 820.184,370.044 720.478,400.324 720.462,400.318 720.462,408.804 			"/>
			<polygon fill="#FF962E" points="720.479,392.508 820.184,362.231 820.184,353.744 720.478,384.022 720.462,384.018 
				720.462,392.504 			"/>
		</g>
		<g>
			<polygon fill="#FFFFFF" points="720.429,470.251 628.901,442.536 628.901,434.727 720.412,462.437 720.412,462.437 
				720.43,462.443 720.462,462.432 720.462,453.945 720.429,453.955 628.901,426.241 628.901,418.502 720.412,446.211 
				720.412,446.211 720.43,446.217 720.462,446.208 720.462,437.721 720.429,437.731 620.417,407.446 620.417,448.453 
				720.412,478.731 720.412,478.731 720.43,478.737 720.462,478.728 720.462,470.241 			"/>
			<polygon fill="#FFFFFF" points="720.442,491.512 620.431,461.229 620.431,499.974 628.915,499.974 628.915,472.284 
				720.423,499.995 720.425,499.995 720.442,500 720.462,499.993 720.462,491.506 			"/>
			<polygon fill="#FFFFFF" points="720.413,362.876 628.885,335.161 628.885,327.375 720.396,355.085 720.396,355.085 
				720.413,355.091 720.462,355.076 720.462,346.589 720.413,346.605 628.885,318.889 628.885,311.055 720.396,338.766 
				720.396,338.766 720.413,338.771 720.462,338.757 720.462,330.27 720.413,330.285 620.402,300 620.402,341.079 720.396,371.356 
				720.396,371.356 720.413,371.362 720.462,371.346 720.462,362.86 			"/>
			<polygon fill="#FFFFFF" points="628.938,372.607 628.938,364.791 720.446,392.5 720.447,392.5 720.462,392.506 720.462,384.02 
				620.453,353.735 620.453,378.523 720.446,408.802 720.447,408.802 720.462,408.807 720.462,400.321 			"/>
			<polygon fill="#FFFFFF" points="620.453,386.303 620.453,394.789 720.446,425.068 720.447,425.068 720.462,425.073 
				720.462,416.587 			"/>
		</g>
	</g>
	<g>
		<g>
			<polygon fill="#00C272" points="1207.565,415.942 1207.565,407.455 1107.877,437.727 1107.877,446.214 			"/>
			<polygon fill="#00C272" points="1207.565,448.462 1207.565,439.975 1107.877,470.247 1107.877,478.733 			"/>
			<polygon fill="#00C272" points="1207.565,432.166 1207.565,423.679 1107.877,453.951 1107.877,462.439 			"/>
			<polygon fill="#00C272" points="1199.094,472.3 1199.094,499.954 1207.574,499.954 1207.574,461.237 1107.877,491.512 
				1107.877,500 			"/>
			<polygon fill="#00C272" points="1207.548,341.087 1207.548,332.599 1107.877,362.866 1107.877,371.353 			"/>
			<polygon fill="#00C272" points="1207.548,324.815 1207.548,316.328 1107.877,346.595 1107.877,355.082 			"/>
			<polygon fill="#00C272" points="1207.548,308.496 1207.548,300.009 1107.877,330.275 1107.877,338.763 			"/>
			<polygon fill="#00C272" points="1107.895,408.81 1199.115,381.108 1199.115,388.888 1107.893,416.59 1107.877,416.584 
				1107.877,425.07 1107.895,425.076 1207.598,394.798 1207.598,370.044 1107.893,400.324 1107.877,400.318 1107.877,408.804 			"/>
			<polygon fill="#00C272" points="1107.895,392.508 1207.598,362.231 1207.598,353.744 1107.893,384.022 1107.877,384.018 
				1107.877,392.504 			"/>
		</g>
		<g>
			<polygon fill="#FFFFFF" points="1107.844,470.251 1016.316,442.536 1016.316,434.727 1107.827,462.437 1107.827,462.437 
				1107.844,462.443 1107.877,462.432 1107.877,453.945 1107.844,453.955 1016.316,426.241 1016.316,418.502 1107.827,446.211 
				1107.827,446.211 1107.844,446.217 1107.877,446.208 1107.877,437.721 1107.844,437.731 1007.832,407.446 1007.832,448.453 
				1107.827,478.731 1107.827,478.731 1107.844,478.737 1107.877,478.728 1107.877,470.241 			"/>
			<polygon fill="#FFFFFF" points="1107.855,491.512 1007.846,461.229 1007.846,499.974 1016.33,499.974 1016.33,472.284 
				1107.839,499.995 1107.839,499.995 1107.855,500 1107.877,499.993 1107.877,491.506 			"/>
			<polygon fill="#FFFFFF" points="1107.829,362.876 1016.301,335.161 1016.301,327.375 1107.81,355.085 1107.81,355.085 
				1107.829,355.091 1107.877,355.076 1107.877,346.589 1107.829,346.605 1016.301,318.889 1016.301,311.055 1107.81,338.766 
				1107.81,338.766 1107.829,338.771 1107.877,338.757 1107.877,330.27 1107.829,330.285 1007.816,300 1007.816,341.079 
				1107.81,371.356 1107.81,371.356 1107.829,371.362 1107.877,371.346 1107.877,362.86 			"/>
			<polygon fill="#FFFFFF" points="1016.353,372.607 1016.353,364.791 1107.861,392.5 1107.861,392.5 1107.877,392.506 
				1107.877,384.02 1007.868,353.735 1007.868,378.523 1107.861,408.802 1107.861,408.802 1107.877,408.807 1107.877,400.321 			"/>
			<polygon fill="#FFFFFF" points="1007.868,386.303 1007.868,394.789 1107.861,425.068 1107.861,425.068 1107.877,425.073 
				1107.877,416.587 			"/>
		</g>
	</g>
	<g>
		<g>
			<polygon fill="#64C8C8" points="1594.979,415.941 1594.979,407.457 1495.291,437.728 1495.291,446.213 			"/>
			<polygon fill="#64C8C8" points="1594.979,448.463 1594.979,439.976 1495.291,470.247 1495.291,478.735 			"/>
			<polygon fill="#64C8C8" points="1594.979,432.166 1594.979,423.678 1495.291,453.953 1495.291,462.439 			"/>
			<polygon fill="#64C8C8" points="1586.507,472.302 1586.507,499.955 1594.99,499.955 1594.99,461.236 1495.291,491.513 
				1495.291,500 			"/>
			<polygon fill="#64C8C8" points="1594.96,341.086 1594.96,332.602 1495.291,362.866 1495.291,371.354 			"/>
			<polygon fill="#64C8C8" points="1594.96,324.815 1594.96,316.328 1495.291,346.596 1495.291,355.081 			"/>
			<polygon fill="#64C8C8" points="1594.96,308.495 1594.96,300.009 1495.291,330.277 1495.291,338.763 			"/>
			<polygon fill="#64C8C8" points="1495.309,408.81 1586.532,381.107 1586.532,388.889 1495.307,416.591 1495.291,416.584 
				1495.291,425.07 1495.309,425.076 1595.014,394.798 1595.014,370.045 1495.307,400.325 1495.291,400.32 1495.291,408.804 			"/>
			<polygon fill="#64C8C8" points="1495.309,392.509 1595.014,362.229 1595.014,353.745 1495.307,384.022 1495.291,384.019 
				1495.291,392.504 			"/>
		</g>
		<g>
			<polygon fill="#FFFFFF" points="1495.258,470.25 1403.73,442.536 1403.73,434.727 1495.24,462.438 1495.24,462.438 
				1495.258,462.443 1495.291,462.432 1495.291,453.946 1495.258,453.956 1403.73,426.241 1403.73,418.503 1495.24,446.213 
				1495.24,446.213 1495.26,446.219 1495.291,446.207 1495.291,437.722 1495.258,437.732 1395.246,407.447 1395.246,448.454 
				1495.24,478.732 1495.24,478.732 1495.258,478.738 1495.291,478.729 1495.291,470.241 			"/>
			<polygon fill="#FFFFFF" points="1495.271,491.513 1395.26,461.23 1395.26,499.975 1403.742,499.975 1403.742,472.284 
				1495.253,499.995 1495.254,499.995 1495.271,500 1495.291,499.993 1495.291,491.507 			"/>
			<polygon fill="#FFFFFF" points="1495.243,362.876 1403.714,335.162 1403.714,327.375 1495.224,355.086 1495.224,355.086 
				1495.243,355.092 1495.291,355.075 1495.291,346.59 1495.243,346.604 1403.714,318.887 1403.714,311.057 1495.224,338.766 
				1495.224,338.766 1495.243,338.771 1495.291,338.757 1495.291,330.269 1495.243,330.283 1395.229,300 1395.229,341.08 
				1495.224,371.357 1495.224,371.357 1495.243,371.363 1495.291,371.349 1495.291,362.86 			"/>
			<polygon fill="#FFFFFF" points="1403.766,372.605 1403.766,364.79 1495.275,392.501 1495.276,392.501 1495.291,392.508 
				1495.291,384.019 1395.282,353.735 1395.282,378.523 1495.275,408.801 1495.276,408.801 1495.291,408.807 1495.291,400.323 			
				"/>
			<polygon fill="#FFFFFF" points="1395.282,386.301 1395.282,394.79 1495.275,425.07 1495.276,425.07 1495.291,425.073 
				1495.291,416.587 			"/>
		</g>
	</g>
	<g>
		<g>
			<polygon fill="#E8003E" points="432.735,415.943 432.735,407.455 333.048,437.728 333.048,446.214 			"/>
			<polygon fill="#E8003E" points="432.735,448.463 432.735,439.975 333.048,470.247 333.048,478.733 			"/>
			<polygon fill="#E8003E" points="432.735,432.166 432.735,423.679 333.048,453.951 333.048,462.439 			"/>
			<polygon fill="#E8003E" points="424.264,472.3 424.264,499.954 432.747,499.954 432.747,461.237 333.048,491.512 333.048,500 			
				"/>
			<polygon fill="#E8003E" points="432.718,341.087 432.718,332.599 333.048,362.867 333.048,371.353 			"/>
			<polygon fill="#E8003E" points="432.718,324.816 432.718,316.328 333.048,346.595 333.048,355.082 			"/>
			<polygon fill="#E8003E" points="432.718,308.497 432.718,300.009 333.048,330.276 333.048,338.763 			"/>
			<polygon fill="#E8003E" points="333.064,408.81 424.287,381.108 424.287,388.888 333.063,416.59 333.048,416.584 333.048,425.07 
				333.064,425.076 432.77,394.798 432.77,370.044 333.063,400.324 333.048,400.318 333.048,408.804 			"/>
			<polygon fill="#E8003E" points="333.064,392.508 432.77,362.231 432.77,353.745 333.063,384.022 333.048,384.019 
				333.048,392.505 			"/>
		</g>
		<g>
			<polygon fill="#FFFFFF" points="333.014,470.252 241.487,442.536 241.487,434.728 332.997,462.437 332.997,462.437 
				333.016,462.443 333.049,462.433 333.049,453.945 333.014,453.956 241.487,426.242 241.487,418.502 332.997,446.212 
				332.997,446.212 333.016,446.218 333.049,446.208 333.049,437.722 333.014,437.732 233.003,407.447 233.003,448.454 
				332.997,478.732 332.997,478.732 333.016,478.738 333.049,478.729 333.049,470.242 			"/>
			<polygon fill="#FFFFFF" points="333.027,491.512 233.016,461.229 233.016,499.974 241.5,499.974 241.5,472.284 333.009,499.995 
				333.01,499.995 333.028,500 333.049,499.994 333.049,491.506 			"/>
			<polygon fill="#FFFFFF" points="332.999,362.877 241.47,335.161 241.47,327.375 332.981,355.085 332.981,355.085 
				332.999,355.091 333.049,355.076 333.049,346.589 332.999,346.605 241.47,318.889 241.47,311.055 332.981,338.766 
				332.982,338.766 332.999,338.771 333.049,338.757 333.049,330.27 332.999,330.285 232.987,300 232.987,341.079 332.981,371.357 
				332.981,371.357 332.999,371.363 333.049,371.347 333.049,362.861 			"/>
			<polygon fill="#FFFFFF" points="241.523,372.607 241.523,364.791 333.032,392.5 333.033,392.5 333.049,392.506 333.049,384.02 
				233.039,353.735 233.039,378.524 333.032,408.803 333.033,408.803 333.049,408.808 333.049,400.321 			"/>
			<polygon fill="#FFFFFF" points="233.039,386.304 233.039,394.79 333.032,425.069 333.033,425.069 333.049,425.074 
				333.049,416.588 			"/>
		</g>
	</g>
</g>
</svg>
