<?xml version="1.0" encoding="utf-8"?>
<!-- Generator: Adobe Illustrator 16.0.2, SVG Export Plug-In . SVG Version: 6.00 Build 0)  -->
<!DOCTYPE svg PUBLIC "-//W3C//DTD SVG 1.1//EN" "http://www.w3.org/Graphics/SVG/1.1/DTD/svg11.dtd">
<svg version="1.1" id="Layer_1" xmlns="http://www.w3.org/2000/svg" xmlns:xlink="http://www.w3.org/1999/xlink" x="0px" y="0px"
	 width="1830px" height="800px" viewBox="0 0 1830 800" enable-background="new 0 0 1830 800" xml:space="preserve">
<rect fill="#FFFFFF" width="1830" height="800"/>
<g>
	<g>
		<g>
			<polygon fill="#FF962E" points="820.717,416.318 820.717,407.83 721.03,438.104 721.03,446.59 			"/>
			<polygon fill="#FF962E" points="820.717,448.838 820.717,440.35 721.03,470.623 721.03,479.109 			"/>
			<polygon fill="#FF962E" points="820.717,432.541 820.717,424.055 721.03,454.326 721.03,462.814 			"/>
			<polygon fill="#FF962E" points="812.246,472.676 812.246,500.33 820.729,500.33 820.729,461.611 721.03,491.889 721.03,500.375 
							"/>
			<polygon fill="#FF962E" points="820.7,341.463 820.7,332.975 721.03,363.242 721.03,371.729 			"/>
			<polygon fill="#FF962E" points="820.7,325.191 820.7,316.703 721.03,346.971 721.03,355.457 			"/>
			<polygon fill="#FF962E" points="820.7,308.871 820.7,300.385 721.03,330.652 721.03,339.139 			"/>
			<polygon fill="#FF962E" points="721.046,409.186 812.269,381.484 812.269,389.264 721.045,416.965 721.03,416.959 
				721.03,425.445 721.046,425.451 820.751,395.174 820.751,370.42 721.045,400.699 721.03,400.693 721.03,409.18 			"/>
			<polygon fill="#FF962E" points="721.046,392.883 820.751,362.605 820.751,354.119 721.045,384.396 721.03,384.393 
				721.03,392.881 			"/>
		</g>
		<g>
			<polygon fill="#C8C8C8" points="720.996,470.627 629.47,442.91 629.47,435.102 720.979,462.813 720.979,462.813 720.997,462.818 
				721.03,462.807 721.03,454.32 720.996,454.33 629.47,426.615 629.47,418.877 720.979,446.586 720.979,446.586 720.998,446.592 
				721.03,446.584 721.03,438.098 720.996,438.105 620.985,407.822 620.985,448.828 720.979,479.107 720.979,479.107 
				720.997,479.113 721.03,479.104 721.03,470.617 			"/>
			<polygon fill="#C8C8C8" points="721.01,491.889 620.999,461.604 620.999,500.35 629.482,500.35 629.482,472.66 720.992,500.369 
				720.992,500.369 721.01,500.375 721.03,500.367 721.03,491.883 			"/>
			<polygon fill="#C8C8C8" points="720.979,363.252 629.453,335.537 629.453,327.75 720.963,355.461 720.963,355.461 
				720.981,355.467 721.03,355.451 721.03,346.965 720.979,346.98 629.453,319.264 629.453,311.432 720.963,339.141 
				720.964,339.141 720.981,339.146 721.03,339.133 721.03,330.645 720.981,330.66 620.97,300.375 620.97,341.453 720.963,371.732 
				720.963,371.732 720.981,371.738 721.03,371.723 721.03,363.236 			"/>
			<polygon fill="#C8C8C8" points="629.505,372.982 629.505,365.166 721.014,392.875 721.015,392.875 721.03,392.881 
				721.03,384.395 621.021,354.109 621.021,378.898 721.014,409.178 721.015,409.178 721.03,409.182 721.03,400.695 			"/>
			<polygon fill="#C8C8C8" points="621.021,386.678 621.021,395.164 721.014,425.443 721.015,425.443 721.03,425.449 
				721.03,416.963 			"/>
		</g>
	</g>
	<g>
		<g>
			<polygon fill="#00C272" points="1208.994,416.318 1208.994,407.83 1109.307,438.104 1109.307,446.59 			"/>
			<polygon fill="#00C272" points="1208.994,448.838 1208.994,440.35 1109.307,470.623 1109.307,479.109 			"/>
			<polygon fill="#00C272" points="1208.994,432.541 1208.994,424.055 1109.307,454.326 1109.307,462.814 			"/>
			<polygon fill="#00C272" points="1200.523,472.676 1200.523,500.33 1209.006,500.33 1209.006,461.611 1109.307,491.889 
				1109.307,500.375 			"/>
			<polygon fill="#00C272" points="1208.979,341.463 1208.979,332.975 1109.307,363.242 1109.307,371.729 			"/>
			<polygon fill="#00C272" points="1208.979,325.191 1208.979,316.703 1109.307,346.971 1109.307,355.457 			"/>
			<polygon fill="#00C272" points="1208.979,308.871 1208.979,300.385 1109.307,330.652 1109.307,339.139 			"/>
			<polygon fill="#00C272" points="1109.324,409.186 1200.547,381.484 1200.547,389.264 1109.322,416.965 1109.307,416.959 
				1109.307,425.445 1109.324,425.451 1209.029,395.174 1209.029,370.42 1109.322,400.699 1109.307,400.693 1109.307,409.18 			"/>
			<polygon fill="#00C272" points="1109.324,392.883 1209.029,362.605 1209.029,354.119 1109.322,384.396 1109.307,384.393 
				1109.307,392.881 			"/>
		</g>
		<g>
			<polygon fill="#C8C8C8" points="1109.273,470.627 1017.746,442.91 1017.746,435.102 1109.256,462.813 1109.256,462.813 
				1109.273,462.818 1109.309,462.807 1109.309,454.32 1109.273,454.33 1017.746,426.615 1017.746,418.877 1109.256,446.586 
				1109.258,446.586 1109.275,446.592 1109.309,446.584 1109.309,438.098 1109.273,438.105 1009.264,407.822 1009.264,448.828 
				1109.256,479.107 1109.256,479.107 1109.273,479.113 1109.309,479.104 1109.309,470.617 			"/>
			<polygon fill="#C8C8C8" points="1109.287,491.889 1009.275,461.604 1009.275,500.35 1017.76,500.35 1017.76,472.66 
				1109.27,500.369 1109.27,500.369 1109.287,500.375 1109.309,500.367 1109.309,491.883 			"/>
			<polygon fill="#C8C8C8" points="1109.258,363.252 1017.73,335.537 1017.73,327.75 1109.24,355.461 1109.24,355.461 
				1109.258,355.467 1109.309,355.451 1109.309,346.965 1109.258,346.98 1017.73,319.264 1017.73,311.432 1109.24,339.141 
				1109.24,339.141 1109.258,339.146 1109.309,339.133 1109.309,330.645 1109.258,330.66 1009.248,300.375 1009.248,341.453 
				1109.24,371.732 1109.24,371.732 1109.258,371.738 1109.309,371.723 1109.309,363.236 			"/>
			<polygon fill="#C8C8C8" points="1017.783,372.982 1017.783,365.166 1109.291,392.875 1109.293,392.875 1109.309,392.881 
				1109.309,384.395 1009.299,354.109 1009.299,378.898 1109.291,409.178 1109.293,409.178 1109.309,409.182 1109.309,400.695 			
				"/>
			<polygon fill="#C8C8C8" points="1009.299,386.678 1009.299,395.164 1109.291,425.443 1109.293,425.443 1109.309,425.449 
				1109.309,416.963 			"/>
		</g>
	</g>
	<g>
		<g>
			<polygon fill="#64C8C8" points="1597.271,416.316 1597.271,407.832 1497.584,438.104 1497.584,446.588 			"/>
			<polygon fill="#64C8C8" points="1597.271,448.838 1597.271,440.352 1497.584,470.621 1497.584,479.109 			"/>
			<polygon fill="#64C8C8" points="1597.271,432.541 1597.271,424.053 1497.584,454.328 1497.584,462.814 			"/>
			<polygon fill="#64C8C8" points="1588.801,472.676 1588.801,500.33 1597.283,500.33 1597.283,461.611 1497.584,491.889 
				1497.584,500.375 			"/>
			<polygon fill="#64C8C8" points="1597.254,341.461 1597.254,332.977 1497.584,363.242 1497.584,371.729 			"/>
			<polygon fill="#64C8C8" points="1597.254,325.189 1597.254,316.703 1497.584,346.971 1497.584,355.455 			"/>
			<polygon fill="#64C8C8" points="1597.254,308.869 1597.254,300.385 1497.584,330.652 1497.584,339.137 			"/>
			<polygon fill="#64C8C8" points="1497.602,409.186 1588.824,381.482 1588.824,389.264 1497.598,416.967 1497.584,416.959 
				1497.584,425.445 1497.602,425.451 1597.307,395.174 1597.307,370.42 1497.598,400.699 1497.584,400.695 1497.584,409.18 			"/>
			<polygon fill="#64C8C8" points="1497.602,392.885 1597.307,362.604 1597.307,354.119 1497.598,384.396 1497.584,384.395 
				1497.584,392.879 			"/>
		</g>
		<g>
			<polygon fill="#C8C8C8" points="1497.549,470.625 1406.023,442.91 1406.023,435.102 1497.533,462.813 1497.533,462.813 
				1497.551,462.818 1497.584,462.807 1497.584,454.322 1497.549,454.33 1406.023,426.617 1406.023,418.877 1497.533,446.588 
				1497.533,446.588 1497.553,446.594 1497.584,446.582 1497.584,438.098 1497.549,438.105 1397.539,407.822 1397.539,448.83 
				1497.533,479.107 1497.533,479.107 1497.551,479.113 1497.584,479.104 1497.584,470.615 			"/>
			<polygon fill="#C8C8C8" points="1497.564,491.889 1397.553,461.605 1397.553,500.35 1406.035,500.35 1406.035,472.658 
				1497.545,500.369 1497.547,500.369 1497.564,500.375 1497.584,500.367 1497.584,491.883 			"/>
			<polygon fill="#C8C8C8" points="1497.535,363.25 1406.006,335.537 1406.006,327.75 1497.518,355.461 1497.518,355.461 
				1497.535,355.467 1497.584,355.449 1497.584,346.965 1497.535,346.979 1406.006,319.262 1406.006,311.432 1497.518,339.141 
				1497.518,339.141 1497.535,339.146 1497.584,339.131 1497.584,330.645 1497.535,330.658 1397.523,300.375 1397.523,341.455 
				1497.518,371.732 1497.518,371.732 1497.535,371.738 1497.584,371.723 1497.584,363.236 			"/>
			<polygon fill="#C8C8C8" points="1406.059,372.98 1406.059,365.164 1497.568,392.877 1497.57,392.877 1497.584,392.883 
				1497.584,384.395 1397.576,354.111 1397.576,378.898 1497.568,409.176 1497.57,409.176 1497.584,409.182 1497.584,400.697 			"/>
			<polygon fill="#C8C8C8" points="1397.576,386.676 1397.576,395.164 1497.568,425.445 1497.57,425.445 1497.584,425.447 
				1497.584,416.963 			"/>
		</g>
	</g>
	<g>
		<g>
			<polygon fill="#E8003E" points="432.44,416.318 432.44,407.83 332.753,438.104 332.753,446.59 			"/>
			<polygon fill="#E8003E" points="432.44,448.838 432.44,440.35 332.753,470.623 332.753,479.109 			"/>
			<polygon fill="#E8003E" points="432.44,432.541 432.44,424.055 332.753,454.326 332.753,462.814 			"/>
			<polygon fill="#E8003E" points="423.969,472.676 423.969,500.33 432.452,500.33 432.452,461.613 332.753,491.889 
				332.753,500.375 			"/>
			<polygon fill="#E8003E" points="432.423,341.463 432.423,332.975 332.753,363.242 332.753,371.729 			"/>
			<polygon fill="#E8003E" points="432.423,325.191 432.423,316.703 332.753,346.971 332.753,355.457 			"/>
			<polygon fill="#E8003E" points="432.423,308.871 432.423,300.385 332.753,330.652 332.753,339.139 			"/>
			<polygon fill="#E8003E" points="332.77,409.186 423.992,381.484 423.992,389.264 332.769,416.965 332.753,416.959 
				332.753,425.445 332.77,425.451 432.475,395.174 432.475,370.42 332.769,400.699 332.753,400.693 332.753,409.18 			"/>
			<polygon fill="#E8003E" points="332.77,392.885 432.475,362.605 432.475,354.119 332.769,384.396 332.753,384.395 
				332.753,392.881 			"/>
		</g>
		<g>
			<polygon fill="#C8C8C8" points="332.719,470.627 241.193,442.912 241.193,435.104 332.703,462.813 332.703,462.813 
				332.721,462.818 332.754,462.809 332.754,454.32 332.719,454.332 241.193,426.617 241.193,418.877 332.703,446.588 
				332.703,446.588 332.721,446.594 332.754,446.584 332.754,438.098 332.719,438.107 232.708,407.822 232.708,448.83 
				332.703,479.107 332.703,479.107 332.721,479.113 332.754,479.104 332.754,470.617 			"/>
			<polygon fill="#C8C8C8" points="332.732,491.889 232.722,461.604 232.722,500.35 241.206,500.35 241.206,472.66 332.715,500.369 
				332.716,500.369 332.734,500.375 332.754,500.369 332.754,491.883 			"/>
			<polygon fill="#C8C8C8" points="332.704,363.252 241.176,335.537 241.176,327.75 332.686,355.461 332.686,355.461 
				332.704,355.467 332.754,355.451 332.754,346.965 332.704,346.98 241.176,319.264 241.176,311.432 332.686,339.141 
				332.687,339.141 332.704,339.146 332.754,339.133 332.754,330.645 332.704,330.66 232.693,300.375 232.693,341.455 
				332.686,371.732 332.686,371.732 332.704,371.738 332.754,371.723 332.754,363.236 			"/>
			<polygon fill="#C8C8C8" points="241.229,372.982 241.229,365.166 332.737,392.875 332.739,392.875 332.754,392.881 
				332.754,384.395 232.745,354.109 232.745,378.898 332.737,409.178 332.739,409.178 332.754,409.184 332.754,400.697 			"/>
			<polygon fill="#C8C8C8" points="232.745,386.68 232.745,395.166 332.737,425.443 332.739,425.443 332.754,425.449 
				332.754,416.963 			"/>
		</g>
	</g>
</g>
</svg>
