<?xml version="1.0" encoding="utf-8"?>
<!-- Generator: Adobe Illustrator 16.0.2, SVG Export Plug-In . SVG Version: 6.00 Build 0)  -->
<!DOCTYPE svg PUBLIC "-//W3C//DTD SVG 1.1//EN" "http://www.w3.org/Graphics/SVG/1.1/DTD/svg11.dtd">
<svg version="1.1" id="Layer_1" xmlns="http://www.w3.org/2000/svg" xmlns:xlink="http://www.w3.org/1999/xlink" x="0px" y="0px"
	 width="1830px" height="800px" viewBox="0 0 1830 800" enable-background="new 0 0 1830 800" xml:space="preserve">
<rect fill="#FFFFFF" width="1830" height="800"/>
<g>
	<rect x="726.5" y="211.5" fill="#64C8C8" width="376.998" height="377"/>
	<g>
		<polygon fill="#191919" points="1078.354,426.08 1078.354,412.195 915.276,461.717 915.276,475.6 		"/>
		<polygon fill="#191919" points="1078.354,479.278 1078.354,465.395 915.276,514.916 915.276,528.801 		"/>
		<polygon fill="#191919" points="1078.354,452.621 1078.354,438.738 915.276,488.258 915.276,502.141 		"/>
		<polygon fill="#191919" points="1064.494,518.275 1064.494,563.516 1078.371,563.516 1078.371,500.179 915.276,549.705 
			915.276,563.588 		"/>
		<polygon fill="#191919" points="1078.324,303.623 1078.324,289.74 915.276,339.253 915.276,353.136 		"/>
		<polygon fill="#191919" points="1078.324,277.005 1078.324,263.121 915.276,312.633 915.276,326.518 		"/>
		<polygon fill="#191919" points="1078.324,250.308 1078.324,236.425 915.276,285.938 915.276,299.821 		"/>
		<polygon fill="#191919" points="915.303,414.41 1064.531,369.095 1064.531,381.819 915.299,427.137 915.276,427.131 
			915.276,441.014 915.303,441.02 1078.41,391.49 1078.41,350.996 915.299,400.527 915.276,400.521 915.276,414.404 		"/>
		<polygon fill="#191919" points="915.303,387.743 1078.41,338.213 1078.41,324.329 915.299,373.86 915.276,373.853 
			915.276,387.737 		"/>
	</g>
	<g>
		<polygon fill="#FFFFFF" points="915.221,514.923 765.492,469.585 765.492,456.81 915.192,502.14 915.192,502.14 915.223,502.149 
			915.278,502.132 915.278,488.249 915.221,488.265 765.492,442.926 765.492,430.269 915.192,475.599 915.192,475.599 
			915.223,475.606 915.278,475.589 915.278,461.706 915.221,461.724 751.614,412.183 751.614,479.265 915.192,528.798 
			915.192,528.798 915.223,528.806 915.278,528.789 915.278,514.906 		"/>
		<polygon fill="#FFFFFF" points="915.241,549.705 751.636,500.164 751.636,563.547 765.514,563.547 765.514,518.25 915.213,563.58 
			915.215,563.58 915.243,563.588 915.278,563.579 915.278,549.696 		"/>
		<polygon fill="#FFFFFF" points="915.196,339.269 765.465,293.928 765.465,281.192 915.167,326.523 915.167,326.523 
			915.196,326.531 915.278,326.508 915.278,312.623 915.196,312.648 765.465,267.31 765.465,254.494 915.167,299.826 
			915.167,299.826 915.196,299.834 915.278,299.813 915.278,285.926 915.196,285.951 751.587,236.41 751.587,303.609 
			915.167,353.143 915.167,353.143 915.196,353.151 915.278,353.127 915.278,339.244 		"/>
		<polygon fill="#FFFFFF" points="765.551,355.186 765.551,342.4 915.25,387.73 915.252,387.73 915.278,387.738 915.278,373.855 
			751.673,324.316 751.673,364.866 915.25,414.399 915.252,414.399 915.278,414.407 915.278,400.524 		"/>
		<polygon fill="#FFFFFF" points="751.673,377.593 751.673,391.476 915.25,441.009 915.252,441.009 915.278,441.017 
			915.278,427.134 		"/>
	</g>
</g>
</svg>
