<?xml version="1.0" encoding="utf-8"?>
<!-- Generator: Adobe Illustrator 16.0.2, SVG Export Plug-In . SVG Version: 6.00 Build 0)  -->
<!DOCTYPE svg PUBLIC "-//W3C//DTD SVG 1.1//EN" "http://www.w3.org/Graphics/SVG/1.1/DTD/svg11.dtd">
<svg version="1.1" id="Layer_1" xmlns="http://www.w3.org/2000/svg" xmlns:xlink="http://www.w3.org/1999/xlink" x="0px" y="0px"
	 width="556px" height="344px" viewBox="0 0 556 344" enable-background="new 0 0 556 344" xml:space="preserve">
<rect fill="#64C8C8" width="556" height="344"/>
<g>
	<polygon fill="#009696" points="370.414,186.754 370.414,178.899 278.156,206.915 278.156,214.77 	"/>
	<polygon fill="#009696" points="370.414,216.85 370.414,208.996 278.156,237.012 278.156,244.867 	"/>
	<polygon fill="#009696" points="370.414,201.77 370.414,193.916 278.156,221.93 278.156,229.784 	"/>
	<polygon fill="#009696" points="362.572,238.912 362.572,264.506 370.424,264.506 370.424,228.674 278.156,256.692 
		278.156,264.547 	"/>
	<polygon fill="#009696" points="370.396,117.477 370.396,109.623 278.156,137.634 278.156,145.487 	"/>
	<polygon fill="#009696" points="370.396,102.418 370.396,94.563 278.156,122.574 278.156,130.429 	"/>
	<polygon fill="#009696" points="370.396,87.315 370.396,79.461 278.156,107.472 278.156,115.326 	"/>
	<polygon fill="#009696" points="278.171,180.152 362.594,154.516 362.594,161.715 278.169,187.353 278.156,187.349 
		278.156,195.203 278.171,195.206 370.445,167.186 370.445,144.277 278.169,172.299 278.156,172.295 278.156,180.148 	"/>
	<polygon fill="#009696" points="278.171,165.066 370.445,137.045 370.445,129.191 278.169,157.212 278.156,157.208 
		278.156,165.063 	"/>
</g>
<g>
	<polygon fill="#FFFFFF" points="278.125,237.016 193.418,211.367 193.418,204.139 278.107,229.783 278.107,229.783 
		278.126,229.789 278.156,229.779 278.156,221.926 278.125,221.935 193.418,196.284 193.418,189.124 278.107,214.769 
		278.107,214.769 278.126,214.773 278.156,214.764 278.156,206.909 278.125,206.919 185.567,178.893 185.567,216.842 
		278.107,244.865 278.107,244.865 278.126,244.869 278.156,244.859 278.156,237.006 	"/>
	<polygon fill="#FFFFFF" points="278.136,256.692 185.58,228.666 185.58,264.523 193.431,264.523 193.431,238.898 278.121,264.543 
		278.121,264.543 278.137,264.547 278.156,264.542 278.156,256.688 	"/>
	<polygon fill="#FFFFFF" points="278.11,137.643 193.403,111.992 193.403,104.787 278.094,130.432 278.094,130.432 278.11,130.437 
		278.156,130.423 278.156,122.568 278.11,122.583 193.403,96.933 193.403,89.683 278.094,115.329 278.094,115.329 278.11,115.333 
		278.156,115.321 278.156,107.465 278.11,107.479 185.553,79.453 185.553,117.469 278.094,145.492 278.094,145.492 278.11,145.496 
		278.156,145.483 278.156,137.629 	"/>
	<polygon fill="#FFFFFF" points="193.451,146.647 193.451,139.415 278.141,165.059 278.143,165.059 278.156,165.063 
		278.156,157.209 185.601,129.184 185.601,152.124 278.141,180.146 278.143,180.146 278.156,180.15 278.156,172.297 	"/>
	<polygon fill="#FFFFFF" points="185.601,159.324 185.601,167.178 278.141,195.199 278.143,195.199 278.156,195.205 
		278.156,187.351 	"/>
</g>
</svg>
