<?xml version="1.0" encoding="utf-8"?>
<!-- Generator: Adobe Illustrator 16.0.2, SVG Export Plug-In . SVG Version: 6.00 Build 0)  -->
<!DOCTYPE svg PUBLIC "-//W3C//DTD SVG 1.1//EN" "http://www.w3.org/Graphics/SVG/1.1/DTD/svg11.dtd">
<svg version="1.1" id="Layer_1" xmlns="http://www.w3.org/2000/svg" xmlns:xlink="http://www.w3.org/1999/xlink" x="0px" y="0px"
	 width="1830px" height="800px" viewBox="0 0 1830 800" enable-background="new 0 0 1830 800" xml:space="preserve">
<rect fill="#31353D" width="1830" height="800"/>
<g>
	<g>
		<polygon fill="#FFFFFF" points="747.435,386.916 747.435,374.523 622.39,374.523 622.39,350.717 747.435,350.717 747.435,338.322 
			609.997,338.322 609.997,423.125 747.435,423.125 747.435,410.73 622.39,410.73 622.39,386.916 		"/>
		<polygon fill="#FFFFFF" points="1062.64,386.918 1062.64,374.525 937.593,374.525 937.593,350.715 1062.64,350.715 
			1062.64,338.322 925.202,338.322 925.202,423.123 1062.64,423.123 1062.64,410.73 937.593,410.73 937.593,386.918 		"/>
		<polygon fill="#FFFFFF" points="779.923,374.553 779.923,350.715 904.935,350.715 904.935,338.322 767.53,338.322 767.53,386.943 
			892.786,386.943 892.786,410.67 767.772,410.67 767.772,423.061 905.179,423.061 905.179,374.553 		"/>
		<polygon fill="#FFFFFF" points="1219.966,374.592 1151.358,409.324 1082.884,374.619 1082.884,423.26 1095.274,423.26 
			1095.274,394.814 1151.349,423.229 1207.604,394.77 1207.604,423.229 1219.997,423.229 		"/>
	</g>
	<g>
		<polygon fill="#92CDCF" points="1151.396,373.152 1082.884,338.352 1082.884,352.25 1151.386,387.057 1219.966,352.223 
			1219.966,338.322 		"/>
	</g>
	<polygon fill="#92CDCF" points="1147.914,453.67 1147.914,450.928 1120.261,450.928 1120.261,445.666 1147.914,445.666 
		1147.914,442.924 1117.522,442.924 1117.522,461.676 1147.914,461.676 1147.914,458.938 1120.261,458.938 1120.261,453.67 	"/>
	<polygon fill="#92CDCF" points="1192.302,450.949 1192.302,445.678 1219.946,445.678 1219.946,442.938 1189.562,442.938 
		1189.562,453.689 1217.262,453.689 1217.262,458.936 1189.615,458.936 1189.615,461.676 1220.001,461.676 1220.001,450.949 	"/>
	<path fill="#92CDCF" d="M682.571,442.9v18.775h30.43V442.9H682.571z M710.259,458.936h-24.947v-13.293h24.947V458.936z"/>
	<polygon fill="#92CDCF" points="640.569,445.643 640.569,442.9 610.146,442.9 610.146,461.676 640.569,461.676 640.569,458.9 
		612.887,458.9 612.887,445.643 	"/>
	<polygon fill="#92CDCF" points="773.503,457.803 758.285,442.883 758.285,461.676 761.024,461.676 761.024,449.406 
		773.501,461.637 773.501,461.637 773.503,461.639 785.953,449.432 785.953,461.676 788.694,461.676 788.694,442.908 	"/>
	<path fill="#92CDCF" d="M910.793,442.887v18.762h2.74v-5.273h24.911v5.301h2.74v-18.787v-0.002H910.793z M938.444,453.633h-24.911
		v-8.006h24.911V453.633z"/>
	<path fill="#92CDCF" d="M833.269,442.914v18.762h2.743v-5.271h27.651v-13.486v-0.004H833.269z M860.921,453.662h-24.909v-8.006
		h24.909V453.662z"/>
	<polygon fill="#92CDCF" points="1017.806,442.887 1017.806,457.168 990.119,442.926 990.119,461.676 992.859,461.676 
		992.859,447.414 1020.547,461.66 1020.547,442.887 	"/>
	<rect x="1066.562" y="442.895" fill="#92CDCF" width="2.741" height="18.781"/>
</g>
</svg>
