<?xml version="1.0" encoding="utf-8"?>
<!-- Generator: Adobe Illustrator 16.0.2, SVG Export Plug-In . SVG Version: 6.00 Build 0)  -->
<!DOCTYPE svg PUBLIC "-//W3C//DTD SVG 1.1//EN" "http://www.w3.org/Graphics/SVG/1.1/DTD/svg11.dtd">
<svg version="1.1" id="Layer_1" xmlns="http://www.w3.org/2000/svg" xmlns:xlink="http://www.w3.org/1999/xlink" x="0px" y="0px"
	 width="1830px" height="3200.99px" viewBox="0 0 1830 3200.99" enable-background="new 0 0 1830 3200.99" xml:space="preserve">
<rect y="1600.58" fill="#FFFFFF" width="1830" height="800"/>
<rect y="800.267" width="1830" height="800"/>
<g>
	<g>
		<g>
			<polygon fill="#FF962E" points="820.149,1216.209 820.149,1207.722 720.462,1237.994 720.462,1246.481 			"/>
			<polygon fill="#FF962E" points="820.149,1248.729 820.149,1240.242 720.462,1270.514 720.462,1279 			"/>
			<polygon fill="#FF962E" points="820.149,1232.433 820.149,1223.946 720.462,1254.218 720.462,1262.706 			"/>
			<polygon fill="#FF962E" points="811.679,1272.567 811.679,1300.221 820.162,1300.221 820.162,1261.504 720.462,1291.779 
				720.462,1300.268 			"/>
			<polygon fill="#FF962E" points="820.133,1141.354 820.133,1132.866 720.462,1163.133 720.462,1171.62 			"/>
			<polygon fill="#FF962E" points="820.133,1125.083 820.133,1116.595 720.462,1146.862 720.462,1155.349 			"/>
			<polygon fill="#FF962E" points="820.133,1108.763 820.133,1100.276 720.462,1130.542 720.462,1139.03 			"/>
			<polygon fill="#FF962E" points="720.479,1209.077 811.701,1181.375 811.701,1189.155 720.478,1216.857 720.462,1216.851 
				720.462,1225.337 720.479,1225.343 820.184,1195.065 820.184,1170.312 720.478,1200.591 720.462,1200.585 720.462,1209.071 			
				"/>
			<polygon fill="#FF962E" points="720.479,1192.775 820.184,1162.498 820.184,1154.011 720.478,1184.289 720.462,1184.285 
				720.462,1192.771 			"/>
		</g>
		<g>
			<polygon fill="#FFFFFF" points="720.429,1270.518 628.901,1242.803 628.901,1234.994 720.412,1262.704 720.412,1262.704 
				720.43,1262.71 720.462,1262.699 720.462,1254.212 720.429,1254.222 628.901,1226.508 628.901,1218.77 720.412,1246.479 
				720.412,1246.479 720.43,1246.484 720.462,1246.476 720.462,1237.988 720.429,1237.998 620.417,1207.713 620.417,1248.72 
				720.412,1278.999 720.412,1278.999 720.43,1279.004 720.462,1278.995 720.462,1270.508 			"/>
			<polygon fill="#FFFFFF" points="720.442,1291.779 620.431,1261.497 620.431,1300.241 628.915,1300.241 628.915,1272.551 
				720.423,1300.262 720.425,1300.262 720.442,1300.268 720.462,1300.26 720.462,1291.773 			"/>
			<polygon fill="#FFFFFF" points="720.413,1163.143 628.885,1135.428 628.885,1127.642 720.396,1155.353 720.396,1155.353 
				720.413,1155.358 720.462,1155.343 720.462,1146.856 720.413,1146.872 628.885,1119.156 628.885,1111.322 720.396,1139.033 
				720.396,1139.033 720.413,1139.039 720.462,1139.024 720.462,1130.537 720.413,1130.552 620.402,1100.268 620.402,1141.346 
				720.396,1171.623 720.396,1171.623 720.413,1171.629 720.462,1171.613 720.462,1163.127 			"/>
			<polygon fill="#FFFFFF" points="628.938,1172.874 628.938,1165.058 720.446,1192.768 720.447,1192.768 720.462,1192.773 
				720.462,1184.287 620.453,1154.002 620.453,1178.79 720.446,1209.069 720.447,1209.069 720.462,1209.074 720.462,1200.588 			"/>
			<polygon fill="#FFFFFF" points="620.453,1186.57 620.453,1195.056 720.446,1225.335 720.447,1225.335 720.462,1225.34 
				720.462,1216.854 			"/>
		</g>
	</g>
	<g>
		<g>
			<polygon fill="#00C272" points="1207.565,1216.209 1207.565,1207.722 1107.877,1237.994 1107.877,1246.481 			"/>
			<polygon fill="#00C272" points="1207.565,1248.729 1207.565,1240.242 1107.877,1270.514 1107.877,1279 			"/>
			<polygon fill="#00C272" points="1207.565,1232.433 1207.565,1223.946 1107.877,1254.218 1107.877,1262.706 			"/>
			<polygon fill="#00C272" points="1199.094,1272.567 1199.094,1300.221 1207.574,1300.221 1207.574,1261.504 1107.877,1291.779 
				1107.877,1300.268 			"/>
			<polygon fill="#00C272" points="1207.548,1141.354 1207.548,1132.866 1107.877,1163.133 1107.877,1171.62 			"/>
			<polygon fill="#00C272" points="1207.548,1125.083 1207.548,1116.595 1107.877,1146.862 1107.877,1155.349 			"/>
			<polygon fill="#00C272" points="1207.548,1108.763 1207.548,1100.276 1107.877,1130.542 1107.877,1139.03 			"/>
			<polygon fill="#00C272" points="1107.895,1209.077 1199.115,1181.375 1199.115,1189.155 1107.893,1216.857 1107.877,1216.851 
				1107.877,1225.337 1107.895,1225.343 1207.598,1195.065 1207.598,1170.312 1107.893,1200.591 1107.877,1200.585 
				1107.877,1209.071 			"/>
			<polygon fill="#00C272" points="1107.895,1192.775 1207.598,1162.498 1207.598,1154.011 1107.893,1184.289 1107.877,1184.285 
				1107.877,1192.771 			"/>
		</g>
		<g>
			<polygon fill="#FFFFFF" points="1107.844,1270.518 1016.316,1242.803 1016.316,1234.994 1107.827,1262.704 1107.827,1262.704 
				1107.844,1262.71 1107.877,1262.699 1107.877,1254.212 1107.844,1254.222 1016.316,1226.508 1016.316,1218.77 1107.827,1246.479 
				1107.827,1246.479 1107.844,1246.484 1107.877,1246.476 1107.877,1237.988 1107.844,1237.998 1007.832,1207.713 
				1007.832,1248.72 1107.827,1278.999 1107.827,1278.999 1107.844,1279.004 1107.877,1278.995 1107.877,1270.508 			"/>
			<polygon fill="#FFFFFF" points="1107.855,1291.779 1007.846,1261.497 1007.846,1300.241 1016.33,1300.241 1016.33,1272.551 
				1107.839,1300.262 1107.839,1300.262 1107.855,1300.268 1107.877,1300.26 1107.877,1291.773 			"/>
			<polygon fill="#FFFFFF" points="1107.829,1163.143 1016.301,1135.428 1016.301,1127.642 1107.81,1155.353 1107.81,1155.353 
				1107.829,1155.358 1107.877,1155.343 1107.877,1146.856 1107.829,1146.872 1016.301,1119.156 1016.301,1111.322 
				1107.81,1139.033 1107.81,1139.033 1107.829,1139.039 1107.877,1139.024 1107.877,1130.537 1107.829,1130.552 1007.816,1100.268 
				1007.816,1141.346 1107.81,1171.623 1107.81,1171.623 1107.829,1171.629 1107.877,1171.613 1107.877,1163.127 			"/>
			<polygon fill="#FFFFFF" points="1016.353,1172.874 1016.353,1165.058 1107.861,1192.768 1107.861,1192.768 1107.877,1192.773 
				1107.877,1184.287 1007.868,1154.002 1007.868,1178.79 1107.861,1209.069 1107.861,1209.069 1107.877,1209.074 
				1107.877,1200.588 			"/>
			<polygon fill="#FFFFFF" points="1007.868,1186.57 1007.868,1195.056 1107.861,1225.335 1107.861,1225.335 1107.877,1225.34 
				1107.877,1216.854 			"/>
		</g>
	</g>
	<g>
		<g>
			<polygon fill="#64C8C8" points="1594.979,1216.208 1594.979,1207.724 1495.291,1237.995 1495.291,1246.48 			"/>
			<polygon fill="#64C8C8" points="1594.979,1248.73 1594.979,1240.243 1495.291,1270.514 1495.291,1279.002 			"/>
			<polygon fill="#64C8C8" points="1594.979,1232.433 1594.979,1223.945 1495.291,1254.22 1495.291,1262.707 			"/>
			<polygon fill="#64C8C8" points="1586.507,1272.569 1586.507,1300.222 1594.99,1300.222 1594.99,1261.503 1495.291,1291.78 
				1495.291,1300.268 			"/>
			<polygon fill="#64C8C8" points="1594.96,1141.353 1594.96,1132.869 1495.291,1163.133 1495.291,1171.622 			"/>
			<polygon fill="#64C8C8" points="1594.96,1125.083 1594.96,1116.595 1495.291,1146.863 1495.291,1155.348 			"/>
			<polygon fill="#64C8C8" points="1594.96,1108.762 1594.96,1100.276 1495.291,1130.544 1495.291,1139.03 			"/>
			<polygon fill="#64C8C8" points="1495.309,1209.077 1586.532,1181.374 1586.532,1189.156 1495.307,1216.858 1495.291,1216.852 
				1495.291,1225.337 1495.309,1225.343 1595.014,1195.065 1595.014,1170.312 1495.307,1200.592 1495.291,1200.587 
				1495.291,1209.071 			"/>
			<polygon fill="#64C8C8" points="1495.309,1192.776 1595.014,1162.497 1595.014,1154.012 1495.307,1184.289 1495.291,1184.286 
				1495.291,1192.771 			"/>
		</g>
		<g>
			<polygon fill="#FFFFFF" points="1495.258,1270.517 1403.73,1242.803 1403.73,1234.994 1495.24,1262.705 1495.24,1262.705 
				1495.258,1262.71 1495.291,1262.699 1495.291,1254.213 1495.258,1254.223 1403.73,1226.508 1403.73,1218.77 1495.24,1246.48 
				1495.24,1246.48 1495.26,1246.486 1495.291,1246.474 1495.291,1237.989 1495.258,1237.999 1395.246,1207.714 1395.246,1248.721 
				1495.24,1279 1495.24,1279 1495.258,1279.005 1495.291,1278.996 1495.291,1270.508 			"/>
			<polygon fill="#FFFFFF" points="1495.271,1291.78 1395.26,1261.498 1395.26,1300.242 1403.742,1300.242 1403.742,1272.551 
				1495.253,1300.262 1495.254,1300.262 1495.271,1300.268 1495.291,1300.26 1495.291,1291.774 			"/>
			<polygon fill="#FFFFFF" points="1495.243,1163.143 1403.714,1135.429 1403.714,1127.642 1495.224,1155.353 1495.224,1155.353 
				1495.243,1155.359 1495.291,1155.342 1495.291,1146.857 1495.243,1146.871 1403.714,1119.154 1403.714,1111.324 
				1495.224,1139.033 1495.224,1139.033 1495.243,1139.038 1495.291,1139.024 1495.291,1130.536 1495.243,1130.55 
				1395.229,1100.268 1395.229,1141.347 1495.224,1171.625 1495.224,1171.625 1495.243,1171.63 1495.291,1171.616 
				1495.291,1163.127 			"/>
			<polygon fill="#FFFFFF" points="1403.766,1172.873 1403.766,1165.057 1495.275,1192.768 1495.276,1192.768 1495.291,1192.775 
				1495.291,1184.286 1395.282,1154.002 1395.282,1178.791 1495.275,1209.068 1495.276,1209.068 1495.291,1209.074 
				1495.291,1200.59 			"/>
			<polygon fill="#FFFFFF" points="1395.282,1186.568 1395.282,1195.057 1495.275,1225.337 1495.276,1225.337 1495.291,1225.34 
				1495.291,1216.854 			"/>
		</g>
	</g>
	<g>
		<g>
			<polygon fill="#E8003E" points="432.735,1216.21 432.735,1207.722 333.048,1237.995 333.048,1246.481 			"/>
			<polygon fill="#E8003E" points="432.735,1248.73 432.735,1240.242 333.048,1270.514 333.048,1279 			"/>
			<polygon fill="#E8003E" points="432.735,1232.433 432.735,1223.946 333.048,1254.218 333.048,1262.706 			"/>
			<polygon fill="#E8003E" points="424.264,1272.567 424.264,1300.221 432.747,1300.221 432.747,1261.504 333.048,1291.779 
				333.048,1300.268 			"/>
			<polygon fill="#E8003E" points="432.718,1141.354 432.718,1132.866 333.048,1163.134 333.048,1171.62 			"/>
			<polygon fill="#E8003E" points="432.718,1125.083 432.718,1116.595 333.048,1146.862 333.048,1155.349 			"/>
			<polygon fill="#E8003E" points="432.718,1108.764 432.718,1100.276 333.048,1130.543 333.048,1139.03 			"/>
			<polygon fill="#E8003E" points="333.064,1209.077 424.287,1181.375 424.287,1189.155 333.063,1216.857 333.048,1216.851 
				333.048,1225.337 333.064,1225.343 432.77,1195.065 432.77,1170.312 333.063,1200.591 333.048,1200.585 333.048,1209.071 			"/>
			<polygon fill="#E8003E" points="333.064,1192.775 432.77,1162.498 432.77,1154.012 333.063,1184.289 333.048,1184.286 
				333.048,1192.772 			"/>
		</g>
		<g>
			<polygon fill="#FFFFFF" points="333.014,1270.519 241.487,1242.803 241.487,1234.995 332.997,1262.704 332.997,1262.704 
				333.016,1262.71 333.049,1262.7 333.049,1254.212 333.014,1254.223 241.487,1226.509 241.487,1218.77 332.997,1246.479 
				332.997,1246.479 333.016,1246.485 333.049,1246.476 333.049,1237.989 333.014,1237.999 233.003,1207.714 233.003,1248.721 
				332.997,1279 332.997,1279 333.016,1279.005 333.049,1278.996 333.049,1270.509 			"/>
			<polygon fill="#FFFFFF" points="333.027,1291.779 233.016,1261.497 233.016,1300.241 241.5,1300.241 241.5,1272.551 
				333.009,1300.262 333.01,1300.262 333.028,1300.268 333.049,1300.261 333.049,1291.773 			"/>
			<polygon fill="#FFFFFF" points="332.999,1163.144 241.47,1135.428 241.47,1127.642 332.981,1155.353 332.981,1155.353 
				332.999,1155.358 333.049,1155.343 333.049,1146.856 332.999,1146.872 241.47,1119.156 241.47,1111.322 332.981,1139.033 
				332.982,1139.033 332.999,1139.039 333.049,1139.024 333.049,1130.537 332.999,1130.552 232.987,1100.268 232.987,1141.346 
				332.981,1171.624 332.981,1171.624 332.999,1171.63 333.049,1171.614 333.049,1163.128 			"/>
			<polygon fill="#FFFFFF" points="241.523,1172.874 241.523,1165.058 333.032,1192.768 333.033,1192.768 333.049,1192.773 
				333.049,1184.287 233.039,1154.002 233.039,1178.792 333.032,1209.07 333.033,1209.07 333.049,1209.075 333.049,1200.588 			"/>
			<polygon fill="#FFFFFF" points="233.039,1186.571 233.039,1195.057 333.032,1225.336 333.033,1225.336 333.049,1225.341 
				333.049,1216.855 			"/>
		</g>
	</g>
</g>
<rect fill="#FFFFFF" width="1830" height="800"/>
<g>
	<rect x="726.5" y="211.5" fill="#64C8C8" width="376.998" height="377"/>
	<g>
		<polygon fill="#191919" points="1078.354,426.08 1078.354,412.195 915.276,461.717 915.276,475.6 		"/>
		<polygon fill="#191919" points="1078.354,479.278 1078.354,465.395 915.276,514.916 915.276,528.801 		"/>
		<polygon fill="#191919" points="1078.354,452.621 1078.354,438.738 915.276,488.258 915.276,502.141 		"/>
		<polygon fill="#191919" points="1064.494,518.275 1064.494,563.516 1078.371,563.516 1078.371,500.179 915.276,549.705 
			915.276,563.588 		"/>
		<polygon fill="#191919" points="1078.324,303.623 1078.324,289.74 915.276,339.253 915.276,353.136 		"/>
		<polygon fill="#191919" points="1078.324,277.005 1078.324,263.121 915.276,312.633 915.276,326.518 		"/>
		<polygon fill="#191919" points="1078.324,250.308 1078.324,236.425 915.276,285.938 915.276,299.821 		"/>
		<polygon fill="#191919" points="915.303,414.41 1064.531,369.095 1064.531,381.819 915.299,427.137 915.276,427.131 
			915.276,441.014 915.303,441.02 1078.41,391.49 1078.41,350.996 915.299,400.527 915.276,400.521 915.276,414.404 		"/>
		<polygon fill="#191919" points="915.303,387.743 1078.41,338.213 1078.41,324.329 915.299,373.86 915.276,373.853 
			915.276,387.737 		"/>
	</g>
	<g>
		<polygon fill="#FFFFFF" points="915.221,514.923 765.492,469.585 765.492,456.81 915.192,502.14 915.192,502.14 915.223,502.149 
			915.278,502.132 915.278,488.249 915.221,488.265 765.492,442.926 765.492,430.269 915.192,475.599 915.192,475.599 
			915.223,475.606 915.278,475.589 915.278,461.706 915.221,461.724 751.614,412.183 751.614,479.265 915.192,528.798 
			915.192,528.798 915.223,528.806 915.278,528.789 915.278,514.906 		"/>
		<polygon fill="#FFFFFF" points="915.241,549.705 751.636,500.164 751.636,563.547 765.514,563.547 765.514,518.25 915.213,563.58 
			915.215,563.58 915.243,563.588 915.278,563.579 915.278,549.696 		"/>
		<polygon fill="#FFFFFF" points="915.196,339.269 765.465,293.928 765.465,281.192 915.167,326.523 915.167,326.523 
			915.196,326.531 915.278,326.508 915.278,312.623 915.196,312.648 765.465,267.31 765.465,254.494 915.167,299.826 
			915.167,299.826 915.196,299.834 915.278,299.813 915.278,285.926 915.196,285.951 751.587,236.41 751.587,303.609 
			915.167,353.143 915.167,353.143 915.196,353.151 915.278,353.127 915.278,339.244 		"/>
		<polygon fill="#FFFFFF" points="765.551,355.186 765.551,342.4 915.25,387.73 915.252,387.73 915.278,387.738 915.278,373.855 
			751.673,324.316 751.673,364.866 915.25,414.399 915.252,414.399 915.278,414.407 915.278,400.524 		"/>
		<polygon fill="#FFFFFF" points="751.673,377.593 751.673,391.476 915.25,441.009 915.252,441.009 915.278,441.017 
			915.278,427.134 		"/>
	</g>
</g>
<g>
	<g>
		<g>
			<polygon fill="#FF962E" points="820.717,2016.898 820.717,2008.41 721.03,2038.684 721.03,2047.17 			"/>
			<polygon fill="#FF962E" points="820.717,2049.418 820.717,2040.93 721.03,2071.203 721.03,2079.689 			"/>
			<polygon fill="#FF962E" points="820.717,2033.121 820.717,2024.635 721.03,2054.906 721.03,2063.395 			"/>
			<polygon fill="#FF962E" points="812.246,2073.256 812.246,2100.91 820.729,2100.91 820.729,2062.191 721.03,2092.469 
				721.03,2100.955 			"/>
			<polygon fill="#FF962E" points="820.7,1942.043 820.7,1933.555 721.03,1963.822 721.03,1972.309 			"/>
			<polygon fill="#FF962E" points="820.7,1925.771 820.7,1917.283 721.03,1947.551 721.03,1956.037 			"/>
			<polygon fill="#FF962E" points="820.7,1909.451 820.7,1900.965 721.03,1931.232 721.03,1939.719 			"/>
			<polygon fill="#FF962E" points="721.046,2009.766 812.269,1982.064 812.269,1989.844 721.045,2017.545 721.03,2017.539 
				721.03,2026.025 721.046,2026.031 820.751,1995.754 820.751,1971 721.045,2001.279 721.03,2001.273 721.03,2009.76 			"/>
			<polygon fill="#FF962E" points="721.046,1993.463 820.751,1963.186 820.751,1954.699 721.045,1984.977 721.03,1984.973 
				721.03,1993.461 			"/>
		</g>
		<g>
			<polygon fill="#C8C8C8" points="720.996,2071.207 629.47,2043.49 629.47,2035.682 720.979,2063.393 720.979,2063.393 
				720.997,2063.398 721.03,2063.387 721.03,2054.9 720.996,2054.91 629.47,2027.195 629.47,2019.457 720.979,2047.166 
				720.979,2047.166 720.998,2047.172 721.03,2047.164 721.03,2038.678 720.996,2038.686 620.985,2008.402 620.985,2049.408 
				720.979,2079.688 720.979,2079.688 720.997,2079.693 721.03,2079.684 721.03,2071.197 			"/>
			<polygon fill="#C8C8C8" points="721.01,2092.469 620.999,2062.184 620.999,2100.93 629.482,2100.93 629.482,2073.24 
				720.992,2100.949 720.992,2100.949 721.01,2100.955 721.03,2100.947 721.03,2092.463 			"/>
			<polygon fill="#C8C8C8" points="720.979,1963.832 629.453,1936.117 629.453,1928.33 720.963,1956.041 720.963,1956.041 
				720.981,1956.047 721.03,1956.031 721.03,1947.545 720.979,1947.561 629.453,1919.844 629.453,1912.012 720.963,1939.721 
				720.964,1939.721 720.981,1939.727 721.03,1939.713 721.03,1931.225 720.981,1931.24 620.97,1900.955 620.97,1942.033 
				720.963,1972.313 720.963,1972.313 720.981,1972.318 721.03,1972.303 721.03,1963.816 			"/>
			<polygon fill="#C8C8C8" points="629.505,1973.563 629.505,1965.746 721.014,1993.455 721.015,1993.455 721.03,1993.461 
				721.03,1984.975 621.021,1954.689 621.021,1979.479 721.014,2009.758 721.015,2009.758 721.03,2009.762 721.03,2001.275 			"/>
			<polygon fill="#C8C8C8" points="621.021,1987.258 621.021,1995.744 721.014,2026.023 721.015,2026.023 721.03,2026.029 
				721.03,2017.543 			"/>
		</g>
	</g>
	<g>
		<g>
			<polygon fill="#00C272" points="1208.994,2016.898 1208.994,2008.41 1109.307,2038.684 1109.307,2047.17 			"/>
			<polygon fill="#00C272" points="1208.994,2049.418 1208.994,2040.93 1109.307,2071.203 1109.307,2079.689 			"/>
			<polygon fill="#00C272" points="1208.994,2033.121 1208.994,2024.635 1109.307,2054.906 1109.307,2063.395 			"/>
			<polygon fill="#00C272" points="1200.523,2073.256 1200.523,2100.91 1209.006,2100.91 1209.006,2062.191 1109.307,2092.469 
				1109.307,2100.955 			"/>
			<polygon fill="#00C272" points="1208.979,1942.043 1208.979,1933.555 1109.307,1963.822 1109.307,1972.309 			"/>
			<polygon fill="#00C272" points="1208.979,1925.771 1208.979,1917.283 1109.307,1947.551 1109.307,1956.037 			"/>
			<polygon fill="#00C272" points="1208.979,1909.451 1208.979,1900.965 1109.307,1931.232 1109.307,1939.719 			"/>
			<polygon fill="#00C272" points="1109.324,2009.766 1200.547,1982.064 1200.547,1989.844 1109.322,2017.545 1109.307,2017.539 
				1109.307,2026.025 1109.324,2026.031 1209.029,1995.754 1209.029,1971 1109.322,2001.279 1109.307,2001.273 1109.307,2009.76 			
				"/>
			<polygon fill="#00C272" points="1109.324,1993.463 1209.029,1963.186 1209.029,1954.699 1109.322,1984.977 1109.307,1984.973 
				1109.307,1993.461 			"/>
		</g>
		<g>
			<polygon fill="#C8C8C8" points="1109.273,2071.207 1017.746,2043.49 1017.746,2035.682 1109.256,2063.393 1109.256,2063.393 
				1109.273,2063.398 1109.309,2063.387 1109.309,2054.9 1109.273,2054.91 1017.746,2027.195 1017.746,2019.457 1109.256,2047.166 
				1109.258,2047.166 1109.275,2047.172 1109.309,2047.164 1109.309,2038.678 1109.273,2038.686 1009.264,2008.402 
				1009.264,2049.408 1109.256,2079.688 1109.256,2079.688 1109.273,2079.693 1109.309,2079.684 1109.309,2071.197 			"/>
			<polygon fill="#C8C8C8" points="1109.287,2092.469 1009.275,2062.184 1009.275,2100.93 1017.76,2100.93 1017.76,2073.24 
				1109.27,2100.949 1109.27,2100.949 1109.287,2100.955 1109.309,2100.947 1109.309,2092.463 			"/>
			<polygon fill="#C8C8C8" points="1109.258,1963.832 1017.73,1936.117 1017.73,1928.33 1109.24,1956.041 1109.24,1956.041 
				1109.258,1956.047 1109.309,1956.031 1109.309,1947.545 1109.258,1947.561 1017.73,1919.844 1017.73,1912.012 1109.24,1939.721 
				1109.24,1939.721 1109.258,1939.727 1109.309,1939.713 1109.309,1931.225 1109.258,1931.24 1009.248,1900.955 1009.248,1942.033 
				1109.24,1972.313 1109.24,1972.313 1109.258,1972.318 1109.309,1972.303 1109.309,1963.816 			"/>
			<polygon fill="#C8C8C8" points="1017.783,1973.563 1017.783,1965.746 1109.291,1993.455 1109.293,1993.455 1109.309,1993.461 
				1109.309,1984.975 1009.299,1954.689 1009.299,1979.479 1109.291,2009.758 1109.293,2009.758 1109.309,2009.762 
				1109.309,2001.275 			"/>
			<polygon fill="#C8C8C8" points="1009.299,1987.258 1009.299,1995.744 1109.291,2026.023 1109.293,2026.023 1109.309,2026.029 
				1109.309,2017.543 			"/>
		</g>
	</g>
	<g>
		<g>
			<polygon fill="#64C8C8" points="1597.271,2016.896 1597.271,2008.412 1497.584,2038.684 1497.584,2047.168 			"/>
			<polygon fill="#64C8C8" points="1597.271,2049.418 1597.271,2040.932 1497.584,2071.201 1497.584,2079.689 			"/>
			<polygon fill="#64C8C8" points="1597.271,2033.121 1597.271,2024.633 1497.584,2054.908 1497.584,2063.395 			"/>
			<polygon fill="#64C8C8" points="1588.801,2073.256 1588.801,2100.91 1597.283,2100.91 1597.283,2062.191 1497.584,2092.469 
				1497.584,2100.955 			"/>
			<polygon fill="#64C8C8" points="1597.254,1942.041 1597.254,1933.557 1497.584,1963.822 1497.584,1972.309 			"/>
			<polygon fill="#64C8C8" points="1597.254,1925.77 1597.254,1917.283 1497.584,1947.551 1497.584,1956.035 			"/>
			<polygon fill="#64C8C8" points="1597.254,1909.449 1597.254,1900.965 1497.584,1931.232 1497.584,1939.717 			"/>
			<polygon fill="#64C8C8" points="1497.602,2009.766 1588.824,1982.063 1588.824,1989.844 1497.598,2017.547 1497.584,2017.539 
				1497.584,2026.025 1497.602,2026.031 1597.307,1995.754 1597.307,1971 1497.598,2001.279 1497.584,2001.275 1497.584,2009.76 			
				"/>
			<polygon fill="#64C8C8" points="1497.602,1993.465 1597.307,1963.184 1597.307,1954.699 1497.598,1984.977 1497.584,1984.975 
				1497.584,1993.459 			"/>
		</g>
		<g>
			<polygon fill="#C8C8C8" points="1497.549,2071.205 1406.023,2043.49 1406.023,2035.682 1497.533,2063.393 1497.533,2063.393 
				1497.551,2063.398 1497.584,2063.387 1497.584,2054.902 1497.549,2054.91 1406.023,2027.197 1406.023,2019.457 
				1497.533,2047.168 1497.533,2047.168 1497.553,2047.174 1497.584,2047.162 1497.584,2038.678 1497.549,2038.686 
				1397.539,2008.402 1397.539,2049.41 1497.533,2079.688 1497.533,2079.688 1497.551,2079.693 1497.584,2079.684 
				1497.584,2071.195 			"/>
			<polygon fill="#C8C8C8" points="1497.564,2092.469 1397.553,2062.186 1397.553,2100.93 1406.035,2100.93 1406.035,2073.238 
				1497.545,2100.949 1497.547,2100.949 1497.564,2100.955 1497.584,2100.947 1497.584,2092.463 			"/>
			<polygon fill="#C8C8C8" points="1497.535,1963.83 1406.006,1936.117 1406.006,1928.33 1497.518,1956.041 1497.518,1956.041 
				1497.535,1956.047 1497.584,1956.029 1497.584,1947.545 1497.535,1947.559 1406.006,1919.842 1406.006,1912.012 
				1497.518,1939.721 1497.518,1939.721 1497.535,1939.727 1497.584,1939.711 1497.584,1931.225 1497.535,1931.238 
				1397.523,1900.955 1397.523,1942.035 1497.518,1972.313 1497.518,1972.313 1497.535,1972.318 1497.584,1972.303 
				1497.584,1963.816 			"/>
			<polygon fill="#C8C8C8" points="1406.059,1973.561 1406.059,1965.744 1497.568,1993.457 1497.57,1993.457 1497.584,1993.463 
				1497.584,1984.975 1397.576,1954.691 1397.576,1979.479 1497.568,2009.756 1497.57,2009.756 1497.584,2009.762 
				1497.584,2001.277 			"/>
			<polygon fill="#C8C8C8" points="1397.576,1987.256 1397.576,1995.744 1497.568,2026.025 1497.57,2026.025 1497.584,2026.027 
				1497.584,2017.543 			"/>
		</g>
	</g>
	<g>
		<g>
			<polygon fill="#E8003E" points="432.44,2016.898 432.44,2008.41 332.753,2038.684 332.753,2047.17 			"/>
			<polygon fill="#E8003E" points="432.44,2049.418 432.44,2040.93 332.753,2071.203 332.753,2079.689 			"/>
			<polygon fill="#E8003E" points="432.44,2033.121 432.44,2024.635 332.753,2054.906 332.753,2063.395 			"/>
			<polygon fill="#E8003E" points="423.969,2073.256 423.969,2100.91 432.452,2100.91 432.452,2062.193 332.753,2092.469 
				332.753,2100.955 			"/>
			<polygon fill="#E8003E" points="432.423,1942.043 432.423,1933.555 332.753,1963.822 332.753,1972.309 			"/>
			<polygon fill="#E8003E" points="432.423,1925.771 432.423,1917.283 332.753,1947.551 332.753,1956.037 			"/>
			<polygon fill="#E8003E" points="432.423,1909.451 432.423,1900.965 332.753,1931.232 332.753,1939.719 			"/>
			<polygon fill="#E8003E" points="332.77,2009.766 423.992,1982.064 423.992,1989.844 332.769,2017.545 332.753,2017.539 
				332.753,2026.025 332.77,2026.031 432.475,1995.754 432.475,1971 332.769,2001.279 332.753,2001.273 332.753,2009.76 			"/>
			<polygon fill="#E8003E" points="332.77,1993.465 432.475,1963.186 432.475,1954.699 332.769,1984.977 332.753,1984.975 
				332.753,1993.461 			"/>
		</g>
		<g>
			<polygon fill="#C8C8C8" points="332.719,2071.207 241.193,2043.492 241.193,2035.684 332.703,2063.393 332.703,2063.393 
				332.721,2063.398 332.754,2063.389 332.754,2054.9 332.719,2054.912 241.193,2027.197 241.193,2019.457 332.703,2047.168 
				332.703,2047.168 332.721,2047.174 332.754,2047.164 332.754,2038.678 332.719,2038.688 232.708,2008.402 232.708,2049.41 
				332.703,2079.688 332.703,2079.688 332.721,2079.693 332.754,2079.684 332.754,2071.197 			"/>
			<polygon fill="#C8C8C8" points="332.732,2092.469 232.722,2062.184 232.722,2100.93 241.206,2100.93 241.206,2073.24 
				332.715,2100.949 332.716,2100.949 332.734,2100.955 332.754,2100.949 332.754,2092.463 			"/>
			<polygon fill="#C8C8C8" points="332.704,1963.832 241.176,1936.117 241.176,1928.33 332.686,1956.041 332.686,1956.041 
				332.704,1956.047 332.754,1956.031 332.754,1947.545 332.704,1947.561 241.176,1919.844 241.176,1912.012 332.686,1939.721 
				332.687,1939.721 332.704,1939.727 332.754,1939.713 332.754,1931.225 332.704,1931.24 232.693,1900.955 232.693,1942.035 
				332.686,1972.313 332.686,1972.313 332.704,1972.318 332.754,1972.303 332.754,1963.816 			"/>
			<polygon fill="#C8C8C8" points="241.229,1973.563 241.229,1965.746 332.737,1993.455 332.739,1993.455 332.754,1993.461 
				332.754,1984.975 232.745,1954.689 232.745,1979.479 332.737,2009.758 332.739,2009.758 332.754,2009.764 332.754,2001.277 			
				"/>
			<polygon fill="#C8C8C8" points="232.745,1987.26 232.745,1995.746 332.737,2026.023 332.739,2026.023 332.754,2026.029 
				332.754,2017.543 			"/>
		</g>
	</g>
</g>
<rect y="2400.99" fill="#31353D" width="1830" height="800"/>
<g>
	<g>
		<polygon fill="#FFFFFF" points="747.435,2787.906 747.435,2775.514 622.39,2775.514 622.39,2751.707 747.435,2751.707 
			747.435,2739.313 609.997,2739.313 609.997,2824.115 747.435,2824.115 747.435,2811.721 622.39,2811.721 622.39,2787.906 		"/>
		<polygon fill="#FFFFFF" points="1062.64,2787.908 1062.64,2775.516 937.593,2775.516 937.593,2751.705 1062.64,2751.705 
			1062.64,2739.313 925.202,2739.313 925.202,2824.113 1062.64,2824.113 1062.64,2811.721 937.593,2811.721 937.593,2787.908 		"/>
		<polygon fill="#FFFFFF" points="779.923,2775.543 779.923,2751.705 904.935,2751.705 904.935,2739.313 767.53,2739.313 
			767.53,2787.934 892.786,2787.934 892.786,2811.66 767.772,2811.66 767.772,2824.051 905.179,2824.051 905.179,2775.543 		"/>
		<polygon fill="#FFFFFF" points="1219.966,2775.582 1151.358,2810.314 1082.884,2775.609 1082.884,2824.25 1095.274,2824.25 
			1095.274,2795.805 1151.349,2824.219 1207.604,2795.76 1207.604,2824.219 1219.997,2824.219 		"/>
	</g>
	<g>
		<polygon fill="#92CDCF" points="1151.396,2774.143 1082.884,2739.342 1082.884,2753.24 1151.386,2788.047 1219.966,2753.213 
			1219.966,2739.313 		"/>
	</g>
	<polygon fill="#92CDCF" points="1147.914,2854.66 1147.914,2851.918 1120.261,2851.918 1120.261,2846.656 1147.914,2846.656 
		1147.914,2843.914 1117.522,2843.914 1117.522,2862.666 1147.914,2862.666 1147.914,2859.928 1120.261,2859.928 1120.261,2854.66 	
		"/>
	<polygon fill="#92CDCF" points="1192.302,2851.939 1192.302,2846.668 1219.946,2846.668 1219.946,2843.928 1189.562,2843.928 
		1189.562,2854.68 1217.262,2854.68 1217.262,2859.926 1189.615,2859.926 1189.615,2862.666 1220.001,2862.666 1220.001,2851.939 	
		"/>
	<path fill="#92CDCF" d="M682.571,2843.891v18.775h30.43v-18.775H682.571z M710.259,2859.926h-24.947v-13.293h24.947V2859.926z"/>
	<polygon fill="#92CDCF" points="640.569,2846.633 640.569,2843.891 610.146,2843.891 610.146,2862.666 640.569,2862.666 
		640.569,2859.891 612.887,2859.891 612.887,2846.633 	"/>
	<polygon fill="#92CDCF" points="773.503,2858.793 758.285,2843.873 758.285,2862.666 761.024,2862.666 761.024,2850.396 
		773.501,2862.627 773.501,2862.627 773.503,2862.629 785.953,2850.422 785.953,2862.666 788.694,2862.666 788.694,2843.898 	"/>
	<path fill="#92CDCF" d="M910.793,2843.877v18.762h2.74v-5.273h24.911v5.301h2.74v-18.787v-0.002H910.793z M938.444,2854.623
		h-24.911v-8.006h24.911V2854.623z"/>
	<path fill="#92CDCF" d="M833.269,2843.904v18.762h2.743v-5.271h27.651v-13.486v-0.004H833.269z M860.921,2854.652h-24.909v-8.006
		h24.909V2854.652z"/>
	<polygon fill="#92CDCF" points="1017.806,2843.877 1017.806,2858.158 990.119,2843.916 990.119,2862.666 992.859,2862.666 
		992.859,2848.404 1020.547,2862.65 1020.547,2843.877 	"/>
	<rect x="1066.562" y="2843.885" fill="#92CDCF" width="2.741" height="18.781"/>
</g>
</svg>
