<?xml version="1.0" encoding="utf-8"?>
<!-- Generator: Adobe Illustrator 17.0.0, SVG Export Plug-In . SVG Version: 6.00 Build 0)  -->
<!DOCTYPE svg PUBLIC "-//W3C//DTD SVG 1.1//EN" "http://www.w3.org/Graphics/SVG/1.1/DTD/svg11.dtd">
<svg version="1.1" id="Layer_1" xmlns="http://www.w3.org/2000/svg" xmlns:xlink="http://www.w3.org/1999/xlink" x="0px" y="0px"
	 width="1920px" height="800px" viewBox="0 0 1920 800" enable-background="new 0 0 1920 800" xml:space="preserve">
<rect width="1920" height="800"/>
<g>
	<path fill="#FFC800" d="M1141.784,345.517c-3.256,0-6.058,1.151-8.415,3.45c-2.356,2.3-3.534,5.077-3.534,8.33v85.993
		l-48.466-92.22c0-0.11-0.057-0.224-0.168-0.337c-1.122-1.57-2.524-2.861-4.207-3.87c-1.682-1.01-3.592-1.515-5.721-1.515
		c-3.255,0-6.058,1.152-8.415,3.45c-2.356,2.302-3.533,5.078-3.533,8.33v94.408c0,3.256,1.185,6.058,3.557,8.415
		c2.372,2.356,5.199,3.534,8.475,3.534c3.276,0,6.071-1.178,8.387-3.534c2.316-2.356,3.477-5.159,3.477-8.415v-85.994l47.68,91.042
		l0.168,0.169c1.005,2.132,2.458,3.785,4.362,4.964c1.903,1.178,4.031,1.768,6.381,1.768c3.245,0,6.043-1.149,8.393-3.45
		c2.35-2.299,3.526-5.076,3.526-8.33v-94.408c0-3.253-1.178-6.03-3.533-8.33C1147.842,346.668,1145.037,345.517,1141.784,345.517z"
		/>
	<g>
		<path fill="#FFC800" d="M991.444,514.808l-65.358,20.149c-2.131,0.657-3.326,2.917-2.67,5.048c0.535,1.735,2.133,2.85,3.858,2.85
			c0.394,0,0.795-0.058,1.191-0.181l65.358-20.149c2.131-0.657,3.326-2.917,2.669-5.048
			C995.835,515.346,993.574,514.151,991.444,514.808z"/>
		<path fill="#FFC800" d="M967.538,541.698l-17.508,5.397c-2.131,0.657-3.326,2.917-2.669,5.048c0.535,1.735,2.132,2.85,3.857,2.85
			c0.394,0,0.795-0.059,1.191-0.181l17.508-5.397c2.131-0.657,3.326-2.917,2.669-5.048
			C971.93,542.236,969.669,541.041,967.538,541.698z"/>
		<g>
			<path fill="#FFC800" d="M960.112,285.074c2.23,0,4.038-1.808,4.038-4.038v-65.249c0-2.23-1.808-4.038-4.038-4.038
				c-2.231,0-4.038,1.808-4.038,4.038v65.249C956.073,283.266,957.881,285.074,960.112,285.074z"/>
			<path fill="#FFC800" d="M1085.474,254.073c-1.577-1.577-4.133-1.577-5.711,0l-46.138,46.138c-1.577,1.577-1.577,4.134,0,5.711
				c0.789,0.788,1.822,1.183,2.855,1.183c1.034,0,2.067-0.394,2.856-1.183l46.138-46.138
				C1087.051,258.206,1087.051,255.65,1085.474,254.073z"/>
			<path fill="#FFC800" d="M839.177,253.182c-1.577-1.577-4.133-1.577-5.711,0c-1.577,1.577-1.577,4.134,0,5.711l46.138,46.138
				c0.788,0.788,1.822,1.183,2.855,1.183c1.033,0,2.067-0.394,2.855-1.183c1.577-1.577,1.577-4.134,0-5.711L839.177,253.182z"/>
			<path fill="#FFC800" d="M1019.998,321.113c-3.487-3.487-7.576-6.239-12.249-8.26c-4.682-2.016-9.688-3.029-15.009-3.029h-65.249
				c-5.33,0-10.328,1.012-15.009,3.029c-4.682,2.02-8.762,4.772-12.249,8.26c-3.488,3.487-6.24,7.572-8.264,12.25
				c-2.016,4.682-3.029,9.683-3.029,15.005v115.089c0,5.322,1.012,10.324,3.029,15.001c2.024,4.682,4.776,8.77,8.264,12.253
				c3.487,3.487,7.567,6.243,12.249,8.26c4.6,1.985,9.506,2.987,14.732,3.022V318.085h65.526v176.024l-66.752,20.579
				c-2.131,0.657-3.327,2.917-2.67,5.048c0.535,1.735,2.132,2.85,3.858,2.85c0.394,0,0.795-0.059,1.191-0.181l66.337-20.451
				c4.593-0.219,8.943-1.212,13.045-2.982c4.673-2.017,8.762-4.773,12.249-8.26c3.479-3.483,6.239-7.572,8.256-12.253
				c2.016-4.678,3.029-9.68,3.029-15.001V348.368c0-5.322-1.012-10.324-3.029-15.005
				C1026.237,328.685,1023.477,324.601,1019.998,321.113z"/>
		</g>
	</g>
	<path fill="#FFC800" d="M740.423,359.819c-1.243-2.878-2.935-5.388-5.077-7.532c-2.145-2.142-4.654-3.835-7.532-5.077
		c-2.876-1.241-5.952-1.862-9.224-1.862h-19.125h-1.862h-19.126c-3.275,0-6.347,0.621-9.224,1.862
		c-2.878,1.243-5.39,2.936-7.532,5.077c-2.145,2.145-3.838,4.654-5.077,7.532c-1.244,2.876-1.862,5.952-1.862,9.224v70.748
		c0,3.273,0.618,6.346,1.862,9.224c1.24,2.878,2.933,5.39,5.077,7.532c2.142,2.145,4.654,3.838,7.532,5.077
		c2.876,1.243,5.949,1.862,9.224,1.862h18.617h2.878h18.617c3.272,0,6.347-0.619,9.224-1.862c2.878-1.24,5.388-2.933,7.532-5.077
		c2.142-2.142,3.835-4.654,5.077-7.532c1.241-2.878,1.862-5.95,1.862-9.224v-70.748
		C742.285,365.771,741.664,362.695,740.423,359.819z M718.759,458.069h-0.169h-18.617h-2.878h-18.617h-0.169V350.763l0.169-0.338
		h19.126h1.862h19.125v0.169c0,0.114,0.055,0.169,0.169,0.169V458.069z"/>
	<path fill="#FFC800" d="M858.145,458.093h-65.726l66.569-94.038c1.908-2.697,2.554-5.646,1.937-8.848
		c-0.618-3.203-2.275-5.757-4.971-7.668c-2.249-1.46-4.495-2.191-6.741-2.191h-3.202h-72.467c-0.674,0-1.265,0.253-1.77,0.759
		c-0.506,0.506-0.757,1.209-0.757,2.107c0,0.674,0.251,1.263,0.757,1.769c0.506,0.506,1.096,0.759,1.77,0.759h65.726l-66.569,94.374
		c-0.9,1.239-1.516,2.641-1.854,4.213c-0.336,1.575-0.336,3.147,0,4.719c0.562,3.259,2.134,5.788,4.719,7.583
		c1.122,0.788,2.613,1.293,4.466,1.518c1.854,0.223,3.397,0.336,4.634,0.336h0.842h72.635c0.674,0,1.265-0.253,1.77-0.757
		c0.506-0.506,0.757-1.096,0.757-1.77c0-0.898-0.251-1.601-0.757-2.107C859.409,458.345,858.819,458.093,858.145,458.093z"/>
	<path fill="#FFC800" d="M1262.255,458.092h-56.222v-6.551v-43.838h25.953c1.796,0,2.697-0.869,2.697-2.61
		c0-1.854-0.901-2.784-2.697-2.784h-25.953v-45.038v-6.531h56.222c1.686,0,2.528-0.927,2.528-2.784c0-1.737-0.842-2.608-2.528-2.608
		h-68.133c-3.272,0-6.096,1.152-8.466,3.455c-2.37,2.304-3.555,5.084-3.555,8.342v94.544c0,3.259,1.157,6.04,3.47,8.342
		c2.312,2.304,5.106,3.455,8.382,3.455h0.168h68.133c1.686,0,2.528-0.869,2.528-2.61
		C1264.782,459.021,1263.94,458.092,1262.255,458.092z"/>
</g>
</svg>
