<?xml version="1.0" encoding="utf-8"?>
<!-- Generator: Adobe Illustrator 16.0.2, SVG Export Plug-In . SVG Version: 6.00 Build 0)  -->
<!DOCTYPE svg PUBLIC "-//W3C//DTD SVG 1.1//EN" "http://www.w3.org/Graphics/SVG/1.1/DTD/svg11.dtd">
<svg version="1.1" id="Layer_1" xmlns="http://www.w3.org/2000/svg" xmlns:xlink="http://www.w3.org/1999/xlink" x="0px" y="0px"
	 width="1830px" height="3999px" viewBox="0 0 1830 3999" enable-background="new 0 0 1830 3999" xml:space="preserve">
<rect y="798" fill="#DCFFFF" width="1830" height="800"/>
<rect fill="#FFFFFF" width="1830" height="800"/>
<rect y="1597.75" fill="#FFFFFF" width="1830" height="800"/>
<rect y="3199" fill="#FFFFFF" width="1830" height="800"/>
<rect y="2398.651" fill="#FFFFDC" width="1830" height="800"/>
<g>
	<polygon fill="#FF8000" points="773.19,409.637 756.18,380.217 739.167,350.789 722.19,380.237 705.21,409.684 705.21,409.684 
		688.234,439.132 671.258,468.577 705.248,468.559 739.241,468.537 722.228,439.11 705.21,409.684 705.224,409.684 722.234,439.105 
		739.244,468.534 756.224,439.087 773.201,409.637 	"/>
	<polygon fill="#FEA621" points="705.221,409.677 671.231,409.701 637.237,409.718 654.251,439.147 671.265,468.574 
		688.244,439.127 	"/>
	<polygon fill="#FEA621" points="705.21,409.684 671.217,409.684 637.228,409.684 654.221,380.248 671.217,350.811 688.214,380.248 
			"/>
	<g>
		<linearGradient id="SVGID_1_" gradientUnits="userSpaceOnUse" x1="753.4414" y1="386.9634" x2="707.5406" y2="460.1566">
			<stop  offset="0" style="stop-color:#FFFFFF"/>
			<stop  offset="1" style="stop-color:#E53B00"/>
		</linearGradient>
		<polygon fill="url(#SVGID_1_)" points="773.19,409.637 756.18,380.217 739.167,350.789 722.19,380.237 705.21,409.684 
			705.21,409.684 688.234,439.132 671.258,468.577 705.248,468.559 739.241,468.537 722.228,439.11 705.21,409.684 705.224,409.684 
			722.234,439.105 739.244,468.534 756.224,439.087 773.201,409.637 		"/>
		<linearGradient id="SVGID_2_" gradientUnits="userSpaceOnUse" x1="638.7637" y1="352.8506" x2="714.6631" y2="485.2069">
			<stop  offset="0" style="stop-color:#FFFFFF"/>
			<stop  offset="1" style="stop-color:#E53B00"/>
		</linearGradient>
		<polygon fill="url(#SVGID_2_)" points="722.228,439.11 705.214,409.691 705.221,409.677 705.207,409.677 688.214,380.248 
			671.217,350.811 654.221,380.248 637.228,409.684 671.217,409.684 697.186,409.684 671.231,409.701 637.237,409.718 
			654.251,439.147 671.261,468.569 671.258,468.577 705.248,468.559 739.241,468.537 		"/>
	</g>
</g>
<path fill="#969696" d="M873.69,436.525l-4.179-41.381l-18.601,41.381h-3.178l-19.42-41.381l-3.536,41.381h-6.063l5.241-54.625
	h9.828l18.072,38.438l17.188-38.438h9.592l5.709,54.625H873.69z"/>
<path fill="#969696" d="M941.616,409.212c0,4.279-0.542,8.143-1.621,11.594c-1.078,3.455-2.706,6.407-4.884,8.859
	c-2.177,2.454-4.896,4.336-8.152,5.65c-3.259,1.318-7.044,1.973-11.361,1.973c-4.436,0-8.241-0.666-11.419-2
	c-3.178-1.332-5.777-3.229-7.799-5.683c-2.022-2.45-3.512-5.404-4.473-8.857c-0.964-3.452-1.442-7.3-1.442-11.537
	c0-4.24,0.489-8.055,1.47-11.449c0.984-3.391,2.504-6.288,4.563-8.682c2.059-2.393,4.681-4.229,7.859-5.504
	c3.178-1.274,6.943-1.911,11.301-1.911c4.357,0,8.152,0.637,11.389,1.911c3.238,1.274,5.935,3.111,8.092,5.504
	c2.157,2.395,3.778,5.292,4.856,8.682C941.074,401.157,941.616,404.972,941.616,409.212z M930.549,409.212
	c0-3.296-0.283-6.259-0.854-8.887c-0.566-2.629-1.456-4.857-2.672-6.68c-1.214-1.827-2.761-3.215-4.638-4.181
	c-1.881-0.959-4.112-1.441-6.697-1.441c-2.271,0-4.388,0.246-6.346,0.734c-1.958,0.494-3.505,1.19-4.641,2.09
	c-1.132,0.903-1.965,2.885-2.494,5.945c-0.529,3.06-0.795,7.202-0.795,12.419c0,3.259,0.236,6.21,0.705,8.859
	c0.468,2.647,1.254,4.936,2.353,6.857c1.095,1.924,2.555,3.407,4.375,4.442c1.823,1.042,4.082,1.561,6.788,1.561
	c2.781,0,5.069-0.253,6.869-0.765c1.803-0.509,3.33-1.193,4.584-2.059c0.586-0.393,1.095-1.176,1.526-2.356
	c0.428-1.176,0.792-2.619,1.085-4.324c0.294-1.709,0.513-3.611,0.647-5.709C930.48,413.617,930.549,411.45,930.549,409.212z"/>
<path fill="#969696" d="M986.995,421.868c0,2.393-0.381,4.532-1.146,6.414c-0.765,1.884-1.944,3.483-3.532,4.798
	c-1.591,1.316-3.603,2.317-6.032,3.001c-2.434,0.688-5.339,1.031-8.713,1.031c-1.099,0-2.376-0.019-3.828-0.057
	c-1.449-0.044-2.949-0.088-4.5-0.148c-1.55-0.059-3.06-0.148-4.533-0.266c-1.469-0.115-2.757-0.234-3.855-0.351v-53.625
	c2.083-0.236,4.463-0.411,7.135-0.529c2.673-0.115,5.188-0.175,7.55-0.175c2.868,0,5.48,0.246,7.84,0.736
	c2.359,0.491,4.374,1.254,6.043,2.293c1.672,1.042,2.959,2.376,3.862,4.004c0.903,1.631,1.358,3.579,1.358,5.857
	c0,1.844-0.256,3.461-0.769,4.854c-0.516,1.395-1.196,2.612-2.043,3.65c-0.849,1.04-1.847,1.884-2.992,2.535
	c-1.143,0.644-2.326,1.125-3.549,1.439v0.175c2.075,0.435,3.852,1.102,5.321,2.002c1.473,0.907,2.68,1.972,3.62,3.212
	c0.94,1.233,1.638,2.627,2.089,4.176C986.77,418.443,986.995,420.1,986.995,421.868z M973.928,396.084
	c0-3.215-0.873-5.46-2.618-6.741c-1.746-1.271-4.21-1.909-7.385-1.909c-0.476,0-0.934,0.008-1.385,0.029
	c-0.452,0.02-0.854,0.047-1.207,0.087v17.482h3.475c1.214,0,2.431-0.118,3.647-0.354c1.216-0.236,2.156-0.529,2.824-0.883
	c0.313-0.195,0.63-0.458,0.943-0.795c0.313-0.33,0.597-0.792,0.853-1.382c0.256-0.588,0.458-1.331,0.617-2.238
	C973.851,398.478,973.928,397.382,973.928,396.084z M976.284,421.19c0-3.522-0.991-6.183-2.977-7.984
	c-1.979-1.798-4.873-2.7-8.679-2.7h-3.296v20.778c0.313,0.041,0.58,0.071,0.796,0.087c0.215,0.022,0.438,0.041,0.677,0.061
	c0.236,0.021,0.529,0.027,0.883,0.027c0.351,0,0.86,0,1.527,0c0.627,0,1.328-0.027,2.09-0.088c0.769-0.057,1.513-0.135,2.237-0.232
	c0.729-0.1,1.396-0.226,1.999-0.384c0.61-0.155,1.092-0.331,1.445-0.526c0.354-0.236,0.725-0.548,1.119-0.937
	c0.392-0.394,0.755-0.93,1.089-1.618c0.334-0.681,0.597-1.543,0.795-2.582C976.187,424.055,976.284,422.754,976.284,421.19z"/>
<path fill="#969696" d="M1007.479,436.525h-10.475v-54.272h10.475V436.525z"/>
<path fill="#969696" d="M1075.523,436.525l-4.179-41.381l-18.598,41.381h-3.182l-19.424-41.381l-3.532,41.381h-6.06l5.237-54.625
	h9.828l18.072,38.438l17.188-38.438h9.592l5.71,54.625H1075.523z"/>
<path fill="#969696" d="M1108.371,436.525h-10.479v-54.272h10.479V436.525z"/>
<path fill="#969696" d="M1165.468,436.815l-36.437-38.082h-0.118c0.077,3.18,0.155,6.104,0.236,8.77
	c0.037,1.139,0.067,2.278,0.087,3.414c0.021,1.139,0.037,2.191,0.061,3.151c0.018,0.96,0.027,1.816,0.027,2.562
	c0,0.743,0,1.277,0,1.587v18.308h-6.12V381.9h4.597l36.487,37.905c-0.037-2.9-0.077-5.628-0.118-8.18
	c0-1.099-0.01-2.208-0.026-3.327c-0.023-1.117-0.041-2.186-0.061-3.205c-0.021-1.021-0.03-1.953-0.03-2.797c0-0.843,0-1.52,0-2.033
	v-17.95h6.12v54.502H1165.468z"/>
<path fill="#969696" d="M1195.427,436.525h-10.475v-54.272h10.475V436.525z"/>
<path fill="#969696" d="M1220.796,436.525v-48.502l-15.834-0.236l0.532-5.534h41.731l-0.532,5.357l-15.362,0.413v48.502H1220.796z"
	/>
<g>
	<path fill="#5CE9FF" d="M808.209,1187.341l-0.309,0.062l0.309,3.273v25.076H795.98v-43.235h18.282l6.979,24.458l0.371,2.965h0.309
		l0.432-2.965l6.917-24.458h18.282v43.235h-12.229v-25.076l0.309-3.273l-0.309-0.062l-8.647,28.411h-9.82L808.209,1187.341z"/>
	<path fill="#5CE9FF" d="M866.756,1177.397c5.127-5.374,11.241-6.053,16.367-6.053c5.559,0,12.354,0.926,17.355,6.115
		c4.88,5.003,5.744,11.55,5.744,16.306c0,8.338-2.531,13.649-5.62,16.984c-5.003,5.374-11.364,6.177-16.985,6.177
		c-5.682,0-12.353-0.865-17.417-6.3c-1.977-2.1-5.559-7.165-5.559-16.367C860.642,1186.291,863.545,1180.794,866.756,1177.397z
		 M877.688,1203.276c1.605,1.668,3.582,2.286,5.744,2.286c2.1,0,4.2-0.494,5.806-2.286c1.977-2.162,2.655-5.991,2.655-9.141
		c0-3.15-0.433-6.793-2.655-9.141c-1.605-1.667-3.459-2.285-5.559-2.285c-2.162,0-4.2,0.556-5.868,2.285
		c-2.47,2.594-2.841,6.794-2.841,9.141C874.971,1196.482,875.279,1200.682,877.688,1203.276z"/>
	<path fill="#5CE9FF" d="M943.771,1172.518c2.841,0,7.164,0.062,10.252,2.594c1.729,1.42,3.459,4.015,3.459,8.215
		c0,2.532-0.68,4.632-2.656,6.67c-1.42,1.482-2.902,2.224-4.385,2.594v0.247c3.582,0.68,5.744,2.656,6.115,3.026
		c1.605,1.544,3.088,4.077,3.088,8.091c0,4.818-2.224,7.474-4.076,8.833c-3.397,2.594-8.771,2.965-11.982,2.965h-24.273v-43.235
		H943.771z M932.777,1189.194h6.917c1.112,0,2.471-0.062,3.336-0.865c0.432-0.371,0.987-1.111,0.987-2.594
		c0-1.421-0.556-2.224-1.111-2.656c-0.988-0.741-2.718-0.803-3.396-0.803h-6.732V1189.194z M932.777,1205.994h8.152
		c1.174,0,2.532-0.062,3.521-0.926c0.617-0.556,1.173-1.482,1.173-3.026c0-1.792-0.741-2.656-1.235-3.026
		c-0.927-0.741-2.408-0.865-3.521-0.865h-8.091V1205.994z"/>
	<path fill="#5CE9FF" d="M986.199,1172.518v43.235h-13.465v-43.235H986.199z"/>
	<path fill="#005381" d="M1014.298,1187.341l-0.309,0.062l0.309,3.273v25.076h-12.229v-43.235h18.281l6.979,24.458l0.371,2.965
		h0.309l0.432-2.965l6.918-24.458h18.282v43.235h-12.229v-25.076l0.309-3.273l-0.309-0.062l-8.646,28.411h-9.82L1014.298,1187.341z"
		/>
	<path fill="#005381" d="M1082.975,1172.518v43.235h-13.465v-43.235H1082.975z"/>
	<path fill="#005381" d="M1112,1191.788l0.309,3.273v20.691h-13.464v-43.235h13.464l13.218,23.964h0.31l-0.31-3.273v-20.691h13.464
		v43.235h-13.464l-13.218-23.964H1112z"/>
	<path fill="#005381" d="M1168.324,1172.518v43.235h-13.465v-43.235H1168.324z"/>
	<path fill="#005381" d="M1179.563,1184.376v-11.859h37.922v11.859h-12.229v31.376h-13.465v-31.376H1179.563z"/>
</g>
<g>
	<g>
		<polygon fill="#00A1E0" points="682.792,1157.918 657.53,1143.309 657.53,1201.231 682.792,1215.782 		"/>
	</g>
	<g>
		<polygon fill="#00A1E0" points="632.746,1186.963 607.485,1172.355 607.485,1230.277 632.746,1244.828 		"/>
	</g>
	<g>
		<polygon fill="#00A1E0" points="650.212,1168.211 657.837,1172.601 670.062,1201.354 682.792,1157.918 657.53,1143.315 		"/>
	</g>
	<g>
		<polygon fill="#00A1E0" points="670.289,1223.04 657.842,1215.845 657.842,1201.397 		"/>
	</g>
</g>
<g>
	<polygon fill="#005381" points="682.829,1157.918 670.099,1201.354 657.875,1172.575 657.87,1172.576 632.784,1186.963 
		632.784,1244.828 657.87,1230.424 657.87,1201.384 670.326,1223.04 682.829,1187.029 682.829,1215.782 707.916,1201.379 
		707.916,1143.53 	"/>
</g>
<g>
	<g>
		<polygon fill="#00A1E0" points="720.372,1179.83 695.11,1165.222 695.11,1223.144 720.372,1237.695 		"/>
	</g>
	<g>
		<polygon fill="#00A1E0" points="670.326,1208.875 645.065,1194.268 645.065,1252.189 670.326,1266.74 		"/>
	</g>
	<g>
		<polygon fill="#00A1E0" points="687.792,1190.124 695.417,1194.514 707.642,1223.267 720.372,1179.83 695.11,1165.227 		"/>
	</g>
	<g>
		<polygon fill="#00A1E0" points="707.869,1244.952 695.422,1237.756 695.422,1223.309 		"/>
	</g>
</g>
<g>
	<polygon fill="#005381" points="720.409,1179.83 707.679,1223.267 695.455,1194.488 695.45,1194.488 670.364,1208.875 
		670.364,1266.74 695.45,1252.336 695.45,1223.296 707.906,1244.952 720.409,1208.941 720.409,1237.695 745.496,1223.291 
		745.496,1165.442 	"/>
</g>
<g>
	<g>
		<g>
			<polygon fill="#5CE9FF" points="720.376,1179.83 695.115,1165.222 720.048,1150.829 745.463,1165.442 			"/>
		</g>
		<g>
			<polygon fill="#5CE9FF" points="670.331,1208.875 645.07,1194.268 670.002,1179.875 695.417,1194.488 			"/>
		</g>
	</g>
	<g>
		<g>
			<polygon fill="#5CE9FF" points="682.796,1157.918 657.535,1143.309 682.468,1128.917 707.883,1143.53 			"/>
		</g>
		<g>
			<polygon fill="#5CE9FF" points="632.751,1186.963 607.49,1172.355 632.422,1157.963 657.837,1172.575 			"/>
		</g>
	</g>
</g>
<g>
	<g>
		<g>
			<g>
				<polygon fill="#FF9600" points="360.479,1930.666 317.772,1905.969 317.772,2003.889 360.479,2028.489 				"/>
			</g>
			<g>
				<polygon fill="#FF9600" points="275.873,1979.769 233.167,1955.074 233.167,2052.992 275.873,2077.594 				"/>
			</g>
			<g>
				<polygon fill="#FF9600" points="305.4,1948.067 318.292,1955.49 338.957,2004.097 360.479,1930.666 317.772,1905.979 				"/>
			</g>
			<g>
				<polygon fill="#FF9600" points="339.341,2040.758 318.3,2028.594 318.3,2004.17 				"/>
			</g>
		</g>
		<g>
			<polygon fill="#FF5000" points="360.542,1930.666 339.02,2004.097 318.355,1955.443 318.347,1955.445 275.938,1979.769 
				275.938,2077.594 318.347,2053.24 318.347,2004.146 339.404,2040.758 360.542,1979.881 360.542,2028.489 402.952,2004.137 
				402.952,1906.342 			"/>
		</g>
		<g>
			<g>
				<polygon fill="#FF9600" points="424.009,1967.71 381.304,1943.012 381.304,2040.933 424.009,2065.533 				"/>
			</g>
			<g>
				<polygon fill="#FF9600" points="339.404,2016.813 296.699,1992.117 296.699,2090.036 339.404,2114.637 				"/>
			</g>
			<g>
				<polygon fill="#FF9600" points="368.931,1985.111 381.823,1992.533 402.488,2041.141 424.009,1967.71 381.304,1943.022 				"/>
			</g>
			<g>
				<polygon fill="#FF9600" points="402.873,2077.801 381.831,2065.637 381.831,2041.213 				"/>
			</g>
		</g>
		<g>
			<polygon fill="#FF5000" points="424.073,1967.71 402.551,2041.141 381.886,1992.489 381.878,1992.489 339.469,2016.813 
				339.469,2114.637 381.878,2090.284 381.878,2041.19 402.936,2077.801 424.073,2016.925 424.073,2065.533 466.483,2041.18 
				466.483,1943.385 			"/>
		</g>
		<g>
			<g>
				<g>
					<polygon fill="#FFC800" points="424.017,1967.71 381.311,1943.012 423.462,1918.681 466.428,1943.385 					"/>
				</g>
				<g>
					<polygon fill="#FFC800" points="339.413,2016.813 296.707,1992.117 338.856,1967.784 381.823,1992.489 					"/>
				</g>
			</g>
			<g>
				<g>
					<polygon fill="#FFC800" points="360.485,1930.666 317.78,1905.969 359.931,1881.637 402.896,1906.342 					"/>
				</g>
				<g>
					<polygon fill="#FFC800" points="275.881,1979.769 233.176,1955.074 275.326,1930.74 318.292,1955.443 					"/>
				</g>
			</g>
		</g>
	</g>
	<g>
		<g>
			<g>
				<polygon fill="#2BCC2B" points="925.725,1930.665 883.019,1905.969 883.019,2003.889 925.725,2028.488 				"/>
			</g>
			<g>
				<polygon fill="#2BCC2B" points="841.119,1979.769 798.413,1955.072 798.413,2052.991 841.119,2077.592 				"/>
			</g>
			<g>
				<polygon fill="#2BCC2B" points="870.646,1948.067 883.538,1955.486 904.203,2004.098 925.725,1930.665 883.019,1905.977 				"/>
			</g>
			<g>
				<polygon fill="#2BCC2B" points="904.588,2040.756 883.545,2028.592 883.545,2004.17 				"/>
			</g>
		</g>
		<g>
			<polygon fill="#00A229" points="925.787,1930.665 904.266,2004.098 883.601,1955.443 883.593,1955.443 841.184,1979.769 
				841.184,2077.592 883.593,2053.24 883.593,2004.146 904.65,2040.756 925.787,1979.878 925.787,2028.488 968.199,2004.137 
				968.199,1906.34 			"/>
		</g>
		<g>
			<g>
				<polygon fill="#2BCC2B" points="989.255,1967.709 946.55,1943.012 946.55,2040.933 989.255,2065.532 				"/>
			</g>
			<g>
				<polygon fill="#2BCC2B" points="904.65,2016.813 861.944,1992.118 861.944,2090.035 904.65,2114.636 				"/>
			</g>
			<g>
				<polygon fill="#2BCC2B" points="934.176,1985.111 947.07,1992.53 967.734,2041.141 989.255,1967.709 946.55,1943.021 				"/>
			</g>
			<g>
				<polygon fill="#2BCC2B" points="968.119,2077.8 947.076,2065.636 947.076,2041.214 				"/>
			</g>
		</g>
		<g>
			<polygon fill="#00A229" points="989.319,1967.709 967.797,2041.141 947.133,1992.487 947.125,1992.487 904.715,2016.813 
				904.715,2114.636 947.125,2090.283 947.125,2041.19 968.182,2077.8 989.319,2016.922 989.319,2065.532 1031.73,2041.181 
				1031.73,1943.384 			"/>
		</g>
		<g>
			<g>
				<g>
					<polygon fill="#5CE94F" points="989.264,1967.707 946.557,1943.012 988.709,1918.681 1031.674,1943.384 					"/>
				</g>
				<g>
					<polygon fill="#5CE94F" points="904.658,2016.813 861.954,1992.114 904.103,1967.783 947.07,1992.487 					"/>
				</g>
			</g>
			<g>
				<g>
					<polygon fill="#5CE94F" points="925.731,1930.663 883.026,1905.969 925.177,1881.637 968.143,1906.34 					"/>
				</g>
				<g>
					<polygon fill="#5CE94F" points="841.127,1979.769 798.422,1955.07 840.571,1930.739 883.538,1955.443 					"/>
				</g>
			</g>
		</g>
	</g>
	<g>
		<g>
			<polygon fill="#7300AF" points="1491.045,1930.664 1448.338,1905.968 1448.338,2003.889 1491.045,2028.488 			"/>
		</g>
		<g>
			<polygon fill="#7300AF" points="1406.438,1979.769 1363.73,1955.072 1363.73,2052.991 1406.438,2077.592 			"/>
		</g>
		<g>
			<polygon fill="#7300AF" points="1435.966,1948.067 1448.856,1955.486 1469.523,2004.098 1491.045,1930.664 1448.338,1905.977 			
				"/>
		</g>
		<g>
			<polygon fill="#7300AF" points="1469.906,2040.756 1448.863,2028.592 1448.863,2004.17 			"/>
		</g>
	</g>
	<g>
		<polygon fill="#450063" points="1491.045,1930.648 1469.523,2004.082 1448.856,1955.428 1448.851,1955.428 1406.44,1979.753 
			1406.44,2077.576 1448.851,2053.226 1448.851,2004.131 1469.906,2040.74 1491.045,1979.862 1491.045,2028.473 1533.455,2004.121 
			1533.455,1906.324 		"/>
	</g>
	<g>
		<g>
			<polygon fill="#7300AF" points="1554.573,1967.709 1511.87,1943.012 1511.87,2040.934 1554.573,2065.532 			"/>
		</g>
		<g>
			<polygon fill="#7300AF" points="1469.969,2016.813 1427.262,1992.117 1427.262,2090.035 1469.969,2114.637 			"/>
		</g>
		<g>
			<polygon fill="#7300AF" points="1499.494,1985.111 1512.389,1992.53 1533.055,2041.141 1554.573,1967.709 1511.87,1943.021 			
				"/>
		</g>
		<g>
			<polygon fill="#7300AF" points="1533.438,2077.801 1512.395,2065.637 1512.395,2041.214 			"/>
		</g>
	</g>
	<g>
		<polygon fill="#450063" points="1554.577,1967.729 1533.056,2041.161 1512.389,1992.508 1512.382,1992.508 1469.973,2016.833 
			1469.973,2114.657 1512.382,2090.304 1512.382,2041.211 1533.438,2077.821 1554.577,2016.942 1554.577,2065.553 
			1596.986,2041.201 1596.986,1943.404 		"/>
	</g>
	<g>
		<g>
			<g>
				<polygon fill="#9900FC" points="1554.583,1967.707 1511.877,1943.012 1554.028,1918.681 1596.993,1943.384 				"/>
			</g>
			<g>
				<polygon fill="#9900FC" points="1469.979,2016.813 1427.272,1992.114 1469.421,1967.783 1512.389,1992.487 				"/>
			</g>
		</g>
		<g>
			<g>
				<polygon fill="#9900FC" points="1491.052,1930.663 1448.345,1905.968 1490.497,1881.637 1533.461,1906.34 				"/>
			</g>
			<g>
				<polygon fill="#9900FC" points="1406.447,1979.769 1363.74,1955.07 1405.889,1930.738 1448.856,1955.443 				"/>
			</g>
		</g>
	</g>
</g>
<g>
	<path fill="#9DBDC6" d="M870.512,2748.395c0-1.492,0.644-2.582,1.927-3.28c1.278-0.692,2.71-1.042,4.289-1.042
		c1.578,0,3.009,0.35,4.292,1.042c1.279,0.698,1.925,1.788,1.925,3.28v100.152c0,1.491-0.646,2.608-1.925,3.353
		c-1.283,0.746-2.714,1.118-4.292,1.118c-1.579,0-3.011-0.372-4.289-1.118c-1.283-0.744-1.927-1.861-1.927-3.353V2748.395z"/>
	<path fill="#9DBDC6" d="M1003.846,2748.395c0-1.492,0.642-2.582,1.925-3.28c1.284-0.692,2.715-1.042,4.292-1.042
		c1.575,0,3.007,0.35,4.289,1.042c1.283,0.698,1.927,1.788,1.927,3.28v100.152c0,1.491-0.644,2.608-1.927,3.353
		c-1.282,0.746-2.714,1.118-4.289,1.118c-1.577,0-3.008-0.372-4.292-1.118c-1.283-0.744-1.925-1.861-1.925-3.353V2748.395z"/>
	<path fill="#9DBDC6" d="M1123.273,2748.395c0-1.492,0.641-2.582,1.924-3.28c1.279-0.692,2.711-1.042,4.289-1.042
		c1.58,0,3.011,0.35,4.295,1.042c1.277,0.698,1.924,1.788,1.924,3.28v100.152c0,1.491-0.646,2.608-1.924,3.353
		c-1.284,0.746-2.715,1.118-4.295,1.118c-1.578,0-3.01-0.372-4.289-1.118c-1.283-0.744-1.924-1.861-1.924-3.353V2748.395z"/>
</g>
<g>
	<path fill="#FF3D2E" d="M613.459,2853.018c-1.578,0-3.008-0.372-4.289-1.118c-1.282-0.744-1.924-1.861-1.924-3.353v-98.363
		c0-2.285,0.615-3.875,1.852-4.771c1.232-0.894,2.687-1.34,4.361-1.34c2.271,0,4.146,0.67,5.624,2.012
		c1.482,1.342,2.912,3.304,4.293,5.887l23.232,44.86l23.382-44.86c1.381-2.583,2.813-4.545,4.293-5.887
		c1.481-1.342,3.352-2.012,5.623-2.012c1.676,0,3.13,0.446,4.368,1.34c1.232,0.896,1.85,2.486,1.85,4.771v98.363
		c0,1.491-0.646,2.608-1.924,3.353c-1.283,0.746-2.715,1.118-4.294,1.118C678.328,2853.018,615.038,2853.018,613.459,2853.018z"/>
	<path fill="#FF3D2E" d="M737.915,2853.912c-4.438,0-8.609-0.572-12.505-1.715c-3.896-1.139-7.275-3.003-10.134-5.588
		c-2.866-2.582-5.105-5.936-6.735-10.061c-1.629-4.121-2.441-9.164-2.441-15.127v-44.86c0-5.959,0.813-11.003,2.441-15.126
		c1.63-4.123,3.869-7.476,6.735-10.063c2.858-2.58,6.237-4.443,10.134-5.588c3.896-1.141,8.067-1.713,12.505-1.713
		c4.44,0,8.608,0.572,12.506,1.713c3.896,1.145,7.303,3.008,10.211,5.588c2.908,2.587,5.179,5.939,6.81,10.063
		c1.629,4.123,2.441,9.167,2.441,15.126v44.86c0,5.963-0.813,11.006-2.441,15.127c-1.631,4.125-3.901,7.479-6.81,10.061
		c-2.908,2.585-6.314,4.449-10.211,5.588C746.523,2853.34,742.355,2853.912,737.915,2853.912z"/>
	<path fill="#FF3D2E" d="M789.858,2748.543c0-1.489,0.595-2.608,1.776-3.354c1.187-0.745,2.466-1.117,3.85-1.117h25.45
		c4.048,0,7.894,0.35,11.545,1.042c3.648,0.698,6.833,1.989,9.546,3.876c2.711,1.888,4.885,4.497,6.511,7.824
		c1.628,3.33,2.441,7.578,2.441,12.742c0,6.26-1.136,11.476-3.403,15.649c-2.271,4.172-5.326,7.104-9.176,8.794
		c2.271,0.893,4.339,2.011,6.217,3.353c1.87,1.341,3.477,3.007,4.812,4.992c1.329,1.99,2.367,4.375,3.106,7.154
		c0.738,2.781,1.108,6.062,1.108,9.837v2.684c0,5.662-0.767,10.481-2.295,14.457c-1.527,3.973-3.602,7.178-6.215,9.611
		c-2.616,2.436-5.696,4.197-9.249,5.291c-3.552,1.096-7.4,1.639-11.542,1.639h-28.856c-1.68,0-3.036-0.447-4.072-1.342
		c-1.033-0.895-1.554-1.886-1.554-2.98V2748.543z"/>
	<path fill="#FF3D2E" d="M910.172,2853.018c-1.578,0-3.01-0.372-4.289-1.118c-1.282-0.744-1.926-1.861-1.926-3.353v-98.363
		c0-2.285,0.615-3.875,1.852-4.771c1.233-0.894,2.688-1.34,4.363-1.34c2.271,0,4.145,0.67,5.622,2.012
		c1.482,1.342,2.914,3.304,4.294,5.887l23.233,44.86l23.381-44.86c1.38-2.583,2.812-4.545,4.294-5.887
		c1.481-1.342,3.352-2.012,5.622-2.012c1.676,0,3.13,0.446,4.367,1.34c1.232,0.896,1.852,2.486,1.852,4.771v98.363
		c0,1.491-0.646,2.608-1.926,3.353c-1.283,0.746-2.715,1.118-4.293,1.118S911.75,2853.018,910.172,2853.018z"/>
	<path fill="#FF3D2E" d="M1096.041,2853.018c-1.675,0-50.957,0-52.533,0c-1.578,0-3.008-0.372-4.291-1.118
		c-1.284-0.744-1.927-1.861-1.927-3.353v-100.152c0-1.59,0.62-2.707,1.851-3.354c1.234-0.646,2.688-0.968,4.367-0.968
		c2.269,0,4.067,0.67,5.401,2.012c1.329,1.342,2.687,3.304,4.067,5.887l36.852,72.581v-76.157c0-1.492,0.642-2.582,1.926-3.28
		c1.277-0.692,2.709-1.042,4.287-1.042c1.58,0,3.011,0.35,4.295,1.042c1.276,0.698,1.924,1.788,1.924,3.28v100.152
		c0,1.491-0.647,2.608-1.924,3.353C1099.052,2852.646,1097.621,2853.018,1096.041,2853.018z"/>
	<path fill="#FF3D2E" d="M1212.807,2744.072c1.476,0,2.59,0.597,3.327,1.788c0.739,1.193,1.112,2.484,1.112,3.875
		c0,1.489-0.373,2.857-1.112,4.099c-0.737,1.241-1.852,1.862-3.327,1.862h-23.829v92.851c0,1.491-0.643,2.608-1.921,3.353
		c-1.283,0.746-2.715,1.118-4.293,1.118s-3.01-0.372-4.293-1.118c-1.283-0.744-30.335-100.573-30.335-102.164
		c0-1.391,0.37-2.682,1.108-3.875c0.738-1.191,1.852-1.788,3.328-1.788H1212.807z"/>
</g>
<g>
	<path fill="#FF8000" d="M872.025,3553.51c0-1.488,0.643-2.578,1.926-3.275c1.278-0.693,2.71-1.043,4.289-1.043
		c1.578,0,3.008,0.35,4.292,1.043c1.281,0.697,1.925,1.787,1.925,3.275v100.156c0,1.489-0.644,2.609-1.925,3.352
		c-1.284,0.746-2.714,1.121-4.292,1.121c-1.579,0-3.011-0.375-4.289-1.121c-1.283-0.742-1.926-1.862-1.926-3.352V3553.51z"/>
	<g>
		<path fill="#003884" d="M652.858,3630.604c-0.693,1.292-1.458,2.187-2.294,2.682c-0.84,0.501-1.699,0.747-2.589,0.747
			c-0.79,0-1.578-0.246-2.369-0.747c-0.789-0.495-1.527-1.39-2.22-2.682l-22.195-42.923v78.841c0,1.49-0.646,2.608-1.924,3.353
			c-1.284,0.746-2.715,1.12-4.294,1.12c-1.578,0-3.008-0.374-4.289-1.12c-1.282-0.744-1.924-1.862-1.924-3.353v-98.364
			c0-2.283,0.615-3.875,1.851-4.77c1.232-0.895,2.687-1.341,4.362-1.341c2.271,0,4.146,0.671,5.624,2.012
			c1.482,1.343,2.913,3.304,4.292,5.888l23.234,44.859l23.382-44.859c1.38-2.584,2.812-4.545,4.292-5.888
			c1.481-1.341,3.352-2.012,5.623-2.012c1.676,0,3.131,0.446,4.368,1.341c1.232,0.895,1.85,2.486,1.85,4.77v98.364
			c0,1.49-0.646,2.608-1.924,3.353c-1.284,0.746-2.715,1.12-4.294,1.12s-3.008-0.374-4.289-1.12
			c-1.282-0.744-1.924-1.862-1.924-3.353v-78.242L652.858,3630.604z"/>
		<path fill="#003884" d="M739.427,3671.889c-4.437,0-8.609-0.573-12.505-1.715c-3.896-1.141-7.274-3.004-10.135-5.59
			c-2.865-2.58-5.104-5.934-6.733-10.059c-1.629-4.122-2.442-9.166-2.442-15.128v-44.86c0-5.961,0.813-11.003,2.442-15.125
			c1.629-4.123,3.868-7.476,6.733-10.063c2.86-2.582,6.239-4.443,10.135-5.587c3.896-1.142,8.068-1.715,12.505-1.715
			c4.441,0,8.609,0.573,12.505,1.715c3.896,1.144,7.304,3.005,10.211,5.587c2.909,2.587,5.18,5.939,6.81,10.063
			c1.629,4.122,2.442,9.164,2.442,15.125v44.86c0,5.962-0.813,11.006-2.442,15.128c-1.63,4.125-3.901,7.479-6.81,10.059
			c-2.907,2.586-6.315,4.449-10.211,5.59C748.036,3671.315,743.868,3671.889,739.427,3671.889z M758.964,3594.537
			c0-7.251-1.728-12.592-5.18-16.021c-3.454-3.428-8.24-5.143-14.357-5.143c-6.116,0-10.876,1.715-14.278,5.143
			c-3.406,3.429-5.105,8.77-5.105,16.021v44.86c0,7.254,1.699,12.595,5.105,16.021c3.402,3.43,8.163,5.143,14.278,5.143
			c6.117,0,10.904-1.713,14.357-5.143c3.452-3.426,5.18-8.767,5.18-16.021V3594.537z"/>
		<path fill="#003884" d="M791.371,3566.52c0-1.492,0.595-2.609,1.776-3.354c1.187-0.746,2.466-1.118,3.85-1.118h25.45
			c4.048,0,7.894,0.35,11.544,1.044c3.649,0.696,6.833,1.987,9.546,3.873c2.711,1.889,4.885,4.5,6.51,7.825
			c1.628,3.33,2.442,7.578,2.442,12.743c0,6.261-1.135,11.475-3.404,15.648c-2.271,4.171-5.326,7.104-9.175,8.795
			c2.271,0.893,4.339,2.01,6.217,3.352c1.871,1.343,3.477,3.008,4.811,4.992c1.33,1.989,2.368,4.375,3.105,7.156
			c0.74,2.781,1.11,6.061,1.11,9.836v2.682c0,5.663-0.767,10.482-2.295,14.457c-1.527,3.975-3.601,7.18-6.214,9.613
			c-2.618,2.436-5.696,4.197-9.249,5.29c-3.552,1.095-7.4,1.641-11.542,1.641h-28.856c-1.68,0-3.036-0.448-4.072-1.343
			c-1.033-0.895-1.554-1.886-1.554-2.98V3566.52z M803.802,3606.76h18.497c6.021,0,10.483-1.342,13.397-4.025
			c2.909-2.683,4.362-7.153,4.362-13.413c0-2.98-0.443-5.488-1.33-7.526c-0.887-2.037-2.124-3.675-3.702-4.919
			c-1.578-1.239-3.5-2.134-5.77-2.682c-2.271-0.545-4.736-0.82-7.399-0.82h-18.055V3606.76z M823.781,3659.666
			c5.919,0,10.558-1.613,13.91-4.844c3.356-3.227,5.03-8.42,5.03-15.572v-2.534c0-7.155-1.674-12.195-5.03-15.128
			c-3.352-2.93-7.99-4.396-13.91-4.396h-19.979v42.475H823.781z"/>
		<path fill="#003884" d="M949.57,3630.604c-0.692,1.292-1.459,2.187-2.293,2.682c-0.842,0.501-1.7,0.747-2.59,0.747
			c-0.791,0-1.58-0.246-2.369-0.747c-0.79-0.495-1.529-1.39-2.222-2.682l-22.194-42.923v78.841c0,1.49-0.646,2.608-1.925,3.353
			c-1.284,0.746-2.715,1.12-4.293,1.12s-3.01-0.374-4.289-1.12c-1.282-0.744-1.926-1.862-1.926-3.353v-98.364
			c0-2.283,0.615-3.875,1.852-4.77c1.233-0.895,2.688-1.341,4.363-1.341c2.271,0,4.145,0.671,5.622,2.012
			c1.482,1.343,2.914,3.304,4.294,5.888l23.233,44.859l23.381-44.859c1.38-2.584,2.812-4.545,4.294-5.888
			c1.481-1.341,3.352-2.012,5.622-2.012c1.676,0,3.13,0.446,4.367,1.341c1.232,0.895,1.852,2.486,1.852,4.77v98.364
			c0,1.49-0.646,2.608-1.926,3.353c-1.283,0.746-2.715,1.12-4.293,1.12s-3.01-0.374-4.287-1.12
			c-1.284-0.744-1.927-1.862-1.927-3.353v-78.242L949.57,3630.604z"/>
		<path fill="#003884" d="M1097.554,3670.995c-1.675,0-3.179-0.522-4.51-1.566c-1.333-1.042-2.441-2.407-3.332-4.099l-38.478-74.965
			v76.157c0,1.49-0.642,2.608-1.925,3.353c-1.283,0.746-2.714,1.12-4.289,1.12c-1.578,0-3.009-0.374-4.292-1.12
			c-1.283-0.744-1.926-1.862-1.926-3.353v-100.155c0-1.586,0.62-2.704,1.853-3.352c1.231-0.644,2.687-0.968,4.365-0.968
			c2.269,0,4.067,0.671,5.401,2.012c1.33,1.343,2.688,3.304,4.067,5.888l36.852,72.58v-76.16c0-1.487,0.642-2.579,1.925-3.275
			c1.28-0.694,2.71-1.044,4.288-1.044c1.579,0,3.011,0.35,4.294,1.044c1.278,0.696,1.924,1.788,1.924,3.275v100.155
			c0,1.49-0.646,2.608-1.924,3.353C1100.564,3670.621,1099.133,3670.995,1097.554,3670.995z"/>
		<path fill="#003884" d="M1214.319,3562.048c1.478,0,2.59,0.597,3.327,1.788c0.74,1.191,1.112,2.484,1.112,3.875
			c0,1.49-0.372,2.857-1.112,4.1c-0.737,1.243-1.85,1.862-3.327,1.862h-23.829v92.85c0,1.49-0.643,2.608-1.921,3.353
			c-1.283,0.746-2.715,1.12-4.293,1.12s-3.01-0.374-4.293-1.12c-1.283-0.744-1.921-1.862-1.921-3.353v-92.85h-23.978
			c-1.38,0-2.465-0.597-3.255-1.789c-0.789-1.192-1.182-2.582-1.182-4.173c0-1.391,0.37-2.684,1.108-3.875s1.852-1.788,3.328-1.788
			H1214.319z"/>
	</g>
	<line fill="none" stroke="#BF6000" stroke-miterlimit="10" x1="872.053" y1="3603.664" x2="884.245" y2="3603.664"/>
	<line fill="none" stroke="#BF6000" stroke-miterlimit="10" x1="872.053" y1="3611.092" x2="884.245" y2="3611.092"/>
	<line fill="none" stroke="#BF6000" stroke-miterlimit="10" x1="872.053" y1="3596.236" x2="884.245" y2="3596.236"/>
	<line fill="none" stroke="#BF6000" stroke-miterlimit="10" x1="872.053" y1="3588.811" x2="884.245" y2="3588.811"/>
	<line fill="none" stroke="#BF6000" stroke-miterlimit="10" x1="872.053" y1="3618.518" x2="884.245" y2="3618.518"/>
	<line fill="none" stroke="#BF6000" stroke-miterlimit="10" x1="872.053" y1="3625.945" x2="884.245" y2="3625.945"/>
	<line fill="none" stroke="#BF6000" stroke-miterlimit="10" x1="872.053" y1="3581.383" x2="884.245" y2="3581.383"/>
	<line fill="none" stroke="#BF6000" stroke-miterlimit="10" x1="872.053" y1="3575.813" x2="884.245" y2="3575.813"/>
	<line fill="none" stroke="#BF6000" stroke-miterlimit="10" x1="872.053" y1="3631.516" x2="884.245" y2="3631.516"/>
	<line fill="none" stroke="#BF6000" stroke-miterlimit="10" x1="872.053" y1="3570.244" x2="884.245" y2="3570.244"/>
	<line fill="none" stroke="#BF6000" stroke-miterlimit="10" x1="872.053" y1="3637.086" x2="884.245" y2="3637.086"/>
	<line fill="none" stroke="#BF6000" stroke-miterlimit="10" x1="872.053" y1="3564.672" x2="884.245" y2="3564.672"/>
	<line fill="none" stroke="#BF6000" stroke-miterlimit="10" x1="872.053" y1="3642.656" x2="884.245" y2="3642.656"/>
	<line fill="none" stroke="#BF6000" stroke-miterlimit="10" x1="872.053" y1="3560.961" x2="884.245" y2="3560.961"/>
	<line fill="none" stroke="#BF6000" stroke-miterlimit="10" x1="872.053" y1="3557.246" x2="884.245" y2="3557.246"/>
	<line fill="none" stroke="#BF6000" stroke-miterlimit="10" x1="872.053" y1="3553.533" x2="884.245" y2="3553.533"/>
	<line fill="none" stroke="#BF6000" stroke-miterlimit="10" x1="872.053" y1="3646.371" x2="884.245" y2="3646.371"/>
	<line fill="none" stroke="#BF6000" stroke-miterlimit="10" x1="872.053" y1="3650.083" x2="884.245" y2="3650.083"/>
	<line fill="none" stroke="#BF6000" stroke-miterlimit="10" x1="872.053" y1="3653.797" x2="884.245" y2="3653.797"/>
	<path fill="#FF8000" d="M1005.602,3540.12c0-1.489,0.644-2.579,1.927-3.274c1.278-0.695,2.71-1.045,4.289-1.045
		c1.578,0,3.009,0.35,4.292,1.045c1.281,0.695,1.925,1.785,1.925,3.274v100.155c0,1.49-0.644,2.609-1.925,3.353
		c-1.283,0.746-2.714,1.12-4.292,1.12c-1.579,0-3.011-0.374-4.289-1.12c-1.283-0.743-1.927-1.862-1.927-3.353V3540.12z"/>
	<line fill="none" stroke="#BF6000" stroke-miterlimit="10" x1="1005.63" y1="3590.273" x2="1017.822" y2="3590.273"/>
	<line fill="none" stroke="#BF6000" stroke-miterlimit="10" x1="1005.63" y1="3597.701" x2="1017.822" y2="3597.701"/>
	<line fill="none" stroke="#BF6000" stroke-miterlimit="10" x1="1005.63" y1="3582.847" x2="1017.822" y2="3582.847"/>
	<line fill="none" stroke="#BF6000" stroke-miterlimit="10" x1="1005.63" y1="3575.42" x2="1017.822" y2="3575.42"/>
	<line fill="none" stroke="#BF6000" stroke-miterlimit="10" x1="1005.63" y1="3605.128" x2="1017.822" y2="3605.128"/>
	<line fill="none" stroke="#BF6000" stroke-miterlimit="10" x1="1005.63" y1="3612.555" x2="1017.822" y2="3612.555"/>
	<line fill="none" stroke="#BF6000" stroke-miterlimit="10" x1="1005.63" y1="3567.993" x2="1017.822" y2="3567.993"/>
	<line fill="none" stroke="#BF6000" stroke-miterlimit="10" x1="1005.63" y1="3562.423" x2="1017.822" y2="3562.423"/>
	<line fill="none" stroke="#BF6000" stroke-miterlimit="10" x1="1005.63" y1="3618.125" x2="1017.822" y2="3618.125"/>
	<line fill="none" stroke="#BF6000" stroke-miterlimit="10" x1="1005.63" y1="3556.854" x2="1017.822" y2="3556.854"/>
	<line fill="none" stroke="#BF6000" stroke-miterlimit="10" x1="1005.63" y1="3623.696" x2="1017.822" y2="3623.696"/>
	<line fill="none" stroke="#BF6000" stroke-miterlimit="10" x1="1005.63" y1="3551.281" x2="1017.822" y2="3551.281"/>
	<line fill="none" stroke="#BF6000" stroke-miterlimit="10" x1="1005.63" y1="3629.266" x2="1017.822" y2="3629.266"/>
	<line fill="none" stroke="#BF6000" stroke-miterlimit="10" x1="1005.63" y1="3547.569" x2="1017.822" y2="3547.569"/>
	<line fill="none" stroke="#BF6000" stroke-miterlimit="10" x1="1005.63" y1="3543.857" x2="1017.822" y2="3543.857"/>
	<line fill="none" stroke="#BF6000" stroke-miterlimit="10" x1="1005.63" y1="3540.142" x2="1017.822" y2="3540.142"/>
	<line fill="none" stroke="#BF6000" stroke-miterlimit="10" x1="1005.63" y1="3632.98" x2="1017.822" y2="3632.98"/>
	<line fill="none" stroke="#BF6000" stroke-miterlimit="10" x1="1005.63" y1="3636.693" x2="1017.822" y2="3636.693"/>
	<line fill="none" stroke="#BF6000" stroke-miterlimit="10" x1="1005.63" y1="3640.408" x2="1017.822" y2="3640.408"/>
	<path fill="#FF8000" d="M1124.482,3527.057c0-1.489,0.643-2.58,1.927-3.275c1.278-0.695,2.71-1.045,4.289-1.045
		c1.578,0,3.008,0.35,4.292,1.045c1.28,0.695,1.925,1.786,1.925,3.275v100.154c0,1.49-0.645,2.61-1.925,3.354
		c-1.284,0.746-2.714,1.119-4.292,1.119c-1.579,0-3.011-0.373-4.289-1.119c-1.284-0.743-1.927-1.863-1.927-3.354V3527.057z"/>
	<line fill="none" stroke="#BF6000" stroke-miterlimit="10" x1="1124.511" y1="3577.211" x2="1136.703" y2="3577.211"/>
	<line fill="none" stroke="#BF6000" stroke-miterlimit="10" x1="1124.511" y1="3584.638" x2="1136.703" y2="3584.638"/>
	<line fill="none" stroke="#BF6000" stroke-miterlimit="10" x1="1124.511" y1="3569.783" x2="1136.703" y2="3569.783"/>
	<line fill="none" stroke="#BF6000" stroke-miterlimit="10" x1="1124.511" y1="3562.356" x2="1136.703" y2="3562.356"/>
	<line fill="none" stroke="#BF6000" stroke-miterlimit="10" x1="1124.511" y1="3592.064" x2="1136.703" y2="3592.064"/>
	<line fill="none" stroke="#BF6000" stroke-miterlimit="10" x1="1124.511" y1="3599.492" x2="1136.703" y2="3599.492"/>
	<line fill="none" stroke="#BF6000" stroke-miterlimit="10" x1="1124.511" y1="3554.93" x2="1136.703" y2="3554.93"/>
	<line fill="none" stroke="#BF6000" stroke-miterlimit="10" x1="1124.511" y1="3549.359" x2="1136.703" y2="3549.359"/>
	<line fill="none" stroke="#BF6000" stroke-miterlimit="10" x1="1124.511" y1="3605.062" x2="1136.703" y2="3605.062"/>
	<line fill="none" stroke="#BF6000" stroke-miterlimit="10" x1="1124.511" y1="3543.789" x2="1136.703" y2="3543.789"/>
	<line fill="none" stroke="#BF6000" stroke-miterlimit="10" x1="1124.511" y1="3610.633" x2="1136.703" y2="3610.633"/>
	<line fill="none" stroke="#BF6000" stroke-miterlimit="10" x1="1124.511" y1="3538.218" x2="1136.703" y2="3538.218"/>
	<line fill="none" stroke="#BF6000" stroke-miterlimit="10" x1="1124.511" y1="3616.201" x2="1136.703" y2="3616.201"/>
	<line fill="none" stroke="#BF6000" stroke-miterlimit="10" x1="1124.511" y1="3534.506" x2="1136.703" y2="3534.506"/>
	<line fill="none" stroke="#BF6000" stroke-miterlimit="10" x1="1124.511" y1="3530.793" x2="1136.703" y2="3530.793"/>
	<line fill="none" stroke="#BF6000" stroke-miterlimit="10" x1="1124.511" y1="3527.078" x2="1136.703" y2="3527.078"/>
	<line fill="none" stroke="#BF6000" stroke-miterlimit="10" x1="1124.511" y1="3619.916" x2="1136.703" y2="3619.916"/>
	<line fill="none" stroke="#BF6000" stroke-miterlimit="10" x1="1124.511" y1="3623.629" x2="1136.703" y2="3623.629"/>
	<line fill="none" stroke="#BF6000" stroke-miterlimit="10" x1="1124.511" y1="3627.344" x2="1136.703" y2="3627.344"/>
</g>
</svg>
