<?xml version="1.0" encoding="utf-8"?>
<!-- Generator: Adobe Illustrator 16.0.2, SVG Export Plug-In . SVG Version: 6.00 Build 0)  -->
<!DOCTYPE svg PUBLIC "-//W3C//DTD SVG 1.1//EN" "http://www.w3.org/Graphics/SVG/1.1/DTD/svg11.dtd">
<svg version="1.1" id="Layer_1" xmlns="http://www.w3.org/2000/svg" xmlns:xlink="http://www.w3.org/1999/xlink" x="0px" y="0px"
	 width="556px" height="344px" viewBox="0 0 556 344" enable-background="new 0 0 556 344" xml:space="preserve">
<rect fill="#FFC8FF" width="556" height="344"/>
<g>
	<g>
		<g>
			<polygon fill="#7300AF" points="287.766,110.315 248.728,87.741 248.728,177.249 287.766,199.735 			"/>
		</g>
		<g>
			<polygon fill="#7300AF" points="210.428,155.201 171.39,132.626 171.39,222.133 210.428,244.619 			"/>
		</g>
		<g>
			<polygon fill="#7300AF" points="237.419,126.224 249.202,133.005 268.094,177.439 287.766,110.315 248.728,87.749 			"/>
		</g>
		<g>
			<polygon fill="#7300AF" points="268.443,210.948 249.208,199.829 249.208,177.506 			"/>
		</g>
	</g>
	<g>
		<polygon fill="#450063" points="287.766,110.301 268.094,177.426 249.202,132.952 249.196,132.952 210.431,155.187 
			210.431,244.605 249.196,222.347 249.196,177.471 268.443,210.935 287.766,155.287 287.766,199.721 326.532,177.461 
			326.532,88.067 		"/>
	</g>
	<g>
		<g>
			<polygon fill="#7300AF" points="345.836,144.178 306.802,121.603 306.802,211.111 345.836,233.596 			"/>
		</g>
		<g>
			<polygon fill="#7300AF" points="268.5,189.063 229.463,166.489 229.463,255.994 268.5,278.481 			"/>
		</g>
		<g>
			<polygon fill="#7300AF" points="295.489,160.085 307.275,166.866 326.166,211.3 345.836,144.178 306.802,121.611 			"/>
		</g>
		<g>
			<polygon fill="#7300AF" points="326.517,244.811 307.281,233.691 307.281,211.367 			"/>
		</g>
	</g>
	<g>
		<polygon fill="#450063" points="345.84,144.196 326.167,211.319 307.275,166.846 307.27,166.846 268.504,189.081 268.504,278.5 
			307.27,256.239 307.27,211.364 326.517,244.829 345.84,189.181 345.84,233.615 384.604,211.355 384.604,121.961 		"/>
	</g>
	<g>
		<g>
			<g>
				<polygon fill="#9900FC" points="345.845,144.176 306.808,121.603 345.338,99.362 384.611,121.942 				"/>
			</g>
			<g>
				<polygon fill="#9900FC" points="268.51,189.063 229.473,166.486 268,144.246 307.275,166.827 				"/>
			</g>
		</g>
		<g>
			<g>
				<polygon fill="#9900FC" points="287.771,110.314 248.734,87.741 287.265,65.5 326.537,88.081 				"/>
			</g>
			<g>
				<polygon fill="#9900FC" points="210.437,155.201 171.398,132.625 209.926,110.383 249.202,132.966 				"/>
			</g>
		</g>
	</g>
</g>
</svg>
