<?xml version="1.0" encoding="utf-8"?>
<!-- Generator: Adobe Illustrator 16.0.2, SVG Export Plug-In . SVG Version: 6.00 Build 0)  -->
<!DOCTYPE svg PUBLIC "-//W3C//DTD SVG 1.1//EN" "http://www.w3.org/Graphics/SVG/1.1/DTD/svg11.dtd">
<svg version="1.1" id="Layer_1" xmlns="http://www.w3.org/2000/svg" xmlns:xlink="http://www.w3.org/1999/xlink" x="0px" y="0px"
	 width="1830px" height="800px" viewBox="-1887.623 4340.26 1830 800" enable-background="new -1887.623 4340.26 1830 800"
	 xml:space="preserve">
<rect x="-1887.623" y="4340.26" fill="#FFFFDC" width="1830" height="800"/>
<g>
	<path fill="#9DBDC6" d="M-1017.11,4690.004c0-1.492,0.644-2.582,1.927-3.28c1.278-0.691,2.71-1.042,4.289-1.042
		c1.578,0,3.009,0.351,4.292,1.042c1.279,0.698,1.925,1.788,1.925,3.28v100.152c0,1.49-0.646,2.607-1.925,3.353
		c-1.283,0.746-2.714,1.118-4.292,1.118c-1.579,0-3.011-0.372-4.289-1.118c-1.283-0.743-1.927-1.86-1.927-3.353V4690.004z"/>
	<path fill="#9DBDC6" d="M-883.776,4690.004c0-1.492,0.642-2.582,1.925-3.28c1.284-0.691,2.715-1.042,4.292-1.042
		c1.575,0,3.007,0.351,4.289,1.042c1.283,0.698,1.927,1.788,1.927,3.28v100.152c0,1.49-0.644,2.607-1.927,3.353
		c-1.282,0.746-2.714,1.118-4.289,1.118c-1.577,0-3.008-0.372-4.292-1.118c-1.283-0.743-1.925-1.86-1.925-3.353V4690.004z"/>
	<path fill="#9DBDC6" d="M-764.349,4690.004c0-1.492,0.641-2.582,1.924-3.28c1.279-0.691,2.711-1.042,4.289-1.042
		c1.58,0,3.011,0.351,4.295,1.042c1.277,0.698,1.924,1.788,1.924,3.28v100.152c0,1.49-0.646,2.607-1.924,3.353
		c-1.284,0.746-2.715,1.118-4.295,1.118c-1.578,0-3.01-0.372-4.289-1.118c-1.283-0.743-1.924-1.86-1.924-3.353V4690.004z"/>
</g>
<g>
	<path fill="#FF3D2E" d="M-1274.164,4794.627c-1.577,0-3.008-0.372-4.288-1.118c-1.282-0.743-1.925-1.86-1.925-3.353v-98.363
		c0-2.285,0.615-3.875,1.853-4.771c1.231-0.894,2.687-1.34,4.36-1.34c2.271,0,4.146,0.67,5.625,2.012
		c1.481,1.343,2.911,3.305,4.293,5.888l23.231,44.86l23.382-44.86c1.381-2.583,2.813-4.545,4.293-5.888
		c1.481-1.342,3.353-2.012,5.623-2.012c1.677,0,3.13,0.446,4.368,1.34c1.232,0.896,1.851,2.486,1.851,4.771v98.363
		c0,1.49-0.646,2.607-1.925,3.353c-1.282,0.746-2.715,1.118-4.294,1.118C-1209.295,4794.627-1272.585,4794.627-1274.164,4794.627z"
		/>
	<path fill="#FF3D2E" d="M-1149.708,4795.521c-4.438,0-8.608-0.572-12.505-1.716c-3.896-1.139-7.274-3.003-10.134-5.588
		c-2.866-2.582-5.104-5.936-6.735-10.061c-1.629-4.121-2.44-9.164-2.44-15.127v-44.86c0-5.959,0.813-11.003,2.44-15.126
		c1.631-4.123,3.869-7.476,6.735-10.063c2.858-2.58,6.237-4.442,10.134-5.588c3.896-1.141,8.067-1.713,12.505-1.713
		c4.44,0,8.608,0.572,12.507,1.713c3.896,1.146,7.303,3.009,10.211,5.588c2.907,2.588,5.179,5.939,6.81,10.063
		c1.629,4.123,2.441,9.167,2.441,15.126v44.86c0,5.963-0.813,11.006-2.441,15.127c-1.631,4.125-3.901,7.479-6.81,10.061
		c-2.908,2.585-6.314,4.449-10.211,5.588C-1141.099,4794.949-1145.267,4795.521-1149.708,4795.521z"/>
	<path fill="#FF3D2E" d="M-1097.764,4690.152c0-1.489,0.595-2.608,1.776-3.354c1.187-0.745,2.466-1.117,3.85-1.117h25.45
		c4.048,0,7.894,0.351,11.545,1.042c3.647,0.698,6.833,1.989,9.546,3.876c2.711,1.888,4.885,4.497,6.511,7.824
		c1.628,3.33,2.441,7.578,2.441,12.742c0,6.26-1.136,11.476-3.403,15.648c-2.271,4.173-5.326,7.104-9.176,8.794
		c2.271,0.894,4.339,2.012,6.217,3.354c1.87,1.341,3.478,3.007,4.813,4.992c1.328,1.989,2.366,4.375,3.105,7.153
		c0.738,2.781,1.108,6.063,1.108,9.837v2.685c0,5.662-0.768,10.48-2.295,14.457c-1.527,3.973-3.603,7.178-6.216,9.61
		c-2.615,2.437-5.695,4.197-9.248,5.291c-3.553,1.097-7.4,1.64-11.543,1.64h-28.855c-1.68,0-3.036-0.447-4.072-1.343
		c-1.033-0.895-1.554-1.886-1.554-2.979V4690.152L-1097.764,4690.152z"/>
	<path fill="#FF3D2E" d="M-977.45,4794.627c-1.578,0-3.011-0.372-4.289-1.118c-1.282-0.743-1.927-1.86-1.927-3.353v-98.363
		c0-2.285,0.615-3.875,1.853-4.771c1.232-0.894,2.688-1.34,4.363-1.34c2.271,0,4.145,0.67,5.622,2.012
		c1.481,1.343,2.913,3.305,4.294,5.888l23.232,44.86l23.381-44.86c1.38-2.583,2.813-4.545,4.294-5.888
		c1.481-1.342,3.353-2.012,5.622-2.012c1.677,0,3.13,0.446,4.367,1.34c1.232,0.896,1.853,2.486,1.853,4.771v98.363
		c0,1.49-0.646,2.607-1.927,3.353c-1.283,0.746-2.715,1.118-4.293,1.118S-975.873,4794.627-977.45,4794.627z"/>
	<path fill="#FF3D2E" d="M-791.582,4794.627c-1.675,0-50.957,0-52.532,0c-1.578,0-3.009-0.372-4.291-1.118
		c-1.284-0.743-1.927-1.86-1.927-3.353v-100.152c0-1.59,0.619-2.707,1.851-3.354c1.233-0.646,2.688-0.969,4.367-0.969
		c2.269,0,4.066,0.67,5.4,2.012c1.329,1.343,2.688,3.305,4.067,5.888l36.852,72.581v-76.157c0-1.492,0.643-2.582,1.927-3.28
		c1.276-0.691,2.709-1.042,4.286-1.042c1.58,0,3.012,0.351,4.296,1.042c1.275,0.698,1.924,1.788,1.924,3.28v100.152
		c0,1.491-0.647,2.607-1.924,3.353C-788.57,4794.255-790.002,4794.627-791.582,4794.627z"/>
	<path fill="#FF3D2E" d="M-674.815,4685.681c1.476,0,2.59,0.597,3.327,1.788c0.738,1.193,1.111,2.484,1.111,3.875
		c0,1.489-0.373,2.857-1.111,4.1c-0.737,1.24-1.853,1.861-3.327,1.861h-23.829v92.852c0,1.491-0.643,2.607-1.921,3.354
		c-1.283,0.746-2.715,1.117-4.293,1.117s-3.01-0.372-4.293-1.117c-1.283-0.744-30.335-100.573-30.335-102.164
		c0-1.392,0.37-2.683,1.107-3.875c0.738-1.191,1.853-1.789,3.328-1.789L-674.815,4685.681L-674.815,4685.681z"/>
</g>
</svg>
