<?xml version="1.0" encoding="utf-8"?>
<!-- Generator: Adobe Illustrator 16.0.2, SVG Export Plug-In . SVG Version: 6.00 Build 0)  -->
<!DOCTYPE svg PUBLIC "-//W3C//DTD SVG 1.1//EN" "http://www.w3.org/Graphics/SVG/1.1/DTD/svg11.dtd">
<svg version="1.1" id="Layer_1" xmlns="http://www.w3.org/2000/svg" xmlns:xlink="http://www.w3.org/1999/xlink" x="0px" y="0px"
	 width="556px" height="344px" viewBox="0 0 556 344" enable-background="new 0 0 556 344" xml:space="preserve">
<rect x="0" fill="#C8FFC8" width="556" height="344"/>
<g>
	<g>
		<g>
			<polygon fill="#2BCC2B" points="285.822,110.239 246.73,87.633 246.73,177.266 285.822,199.783 			"/>
		</g>
		<g>
			<polygon fill="#2BCC2B" points="208.377,155.187 169.285,132.58 169.285,222.213 208.377,244.73 			"/>
		</g>
		<g>
			<polygon fill="#2BCC2B" points="235.405,126.168 247.207,132.959 266.123,177.457 285.822,110.239 246.73,87.64 			"/>
		</g>
		<g>
			<polygon fill="#2BCC2B" points="266.475,211.012 247.213,199.878 247.213,177.522 			"/>
		</g>
	</g>
	<g>
		<polygon fill="#00A229" points="285.879,110.239 266.18,177.457 247.264,132.92 247.256,132.92 208.437,155.187 208.437,244.73 
			247.256,222.44 247.256,177.502 266.531,211.012 285.879,155.287 285.879,199.783 324.703,177.492 324.703,87.972 		"/>
	</g>
	<g>
		<g>
			<polygon fill="#2BCC2B" points="343.977,144.147 304.885,121.541 304.885,211.174 343.977,233.691 			"/>
		</g>
		<g>
			<polygon fill="#2BCC2B" points="266.531,189.096 227.439,166.49 227.439,256.121 266.531,278.641 			"/>
		</g>
		<g>
			<polygon fill="#2BCC2B" points="293.559,160.077 305.361,166.868 324.277,211.365 343.977,144.147 304.885,121.549 			"/>
		</g>
		<g>
			<polygon fill="#2BCC2B" points="324.629,244.922 305.367,233.787 305.367,211.432 			"/>
		</g>
	</g>
	<g>
		<polygon fill="#00A229" points="344.035,144.147 324.334,211.365 305.42,166.829 305.412,166.829 266.591,189.096 
			266.591,278.641 305.412,256.348 305.412,211.41 324.688,244.922 344.035,189.195 344.035,233.691 382.857,211.401 
			382.857,121.881 		"/>
	</g>
	<g>
		<g>
			<g>
				<polygon fill="#5CE94F" points="343.984,144.146 304.893,121.541 343.477,99.269 382.805,121.881 				"/>
			</g>
			<g>
				<polygon fill="#5CE94F" points="266.539,189.096 227.449,166.488 266.03,144.215 305.361,166.829 				"/>
			</g>
		</g>
		<g>
			<g>
				<polygon fill="#5CE94F" points="285.828,110.237 246.738,87.633 285.322,65.36 324.65,87.972 				"/>
			</g>
			<g>
				<polygon fill="#5CE94F" points="208.385,155.187 169.294,132.578 207.875,110.307 247.207,132.92 				"/>
			</g>
		</g>
	</g>
</g>
</svg>
