<?xml version="1.0" encoding="utf-8"?>
<!-- Generator: Adobe Illustrator 16.0.2, SVG Export Plug-In . SVG Version: 6.00 Build 0)  -->
<!DOCTYPE svg PUBLIC "-//W3C//DTD SVG 1.1//EN" "http://www.w3.org/Graphics/SVG/1.1/DTD/svg11.dtd">
<svg version="1.1" id="Layer_1" xmlns="http://www.w3.org/2000/svg" xmlns:xlink="http://www.w3.org/1999/xlink" x="0px" y="0px"
	 width="1830px" height="800px" viewBox="-1865.627 2569.126 1830 800" enable-background="new -1865.627 2569.126 1830 800"
	 xml:space="preserve">
<rect x="-1865.627" y="2569.126" fill="#DCFFFF" width="1830" height="800"/>
<g>
	<path fill="#FF8000" d="M-993.602,2923.636c0-1.488,0.644-2.578,1.926-3.275c1.278-0.693,2.71-1.043,4.289-1.043
		c1.578,0,3.008,0.351,4.292,1.043c1.281,0.697,1.925,1.787,1.925,3.275v100.156c0,1.488-0.644,2.608-1.925,3.352
		c-1.284,0.746-2.714,1.121-4.292,1.121c-1.579,0-3.011-0.375-4.289-1.121c-1.282-0.742-1.926-1.862-1.926-3.352V2923.636z"/>
	<g>
		<path fill="#003884" d="M-1212.769,3000.73c-0.693,1.292-1.458,2.188-2.294,2.682c-0.84,0.501-1.699,0.747-2.589,0.747
			c-0.79,0-1.578-0.246-2.369-0.747c-0.789-0.495-1.527-1.39-2.22-2.682l-22.195-42.923v78.841c0,1.49-0.646,2.607-1.924,3.354
			c-1.284,0.746-2.715,1.119-4.294,1.119c-1.578,0-3.008-0.373-4.289-1.119c-1.282-0.744-1.924-1.862-1.924-3.354v-98.364
			c0-2.282,0.614-3.875,1.851-4.77c1.232-0.896,2.688-1.341,4.362-1.341c2.271,0,4.146,0.67,5.624,2.012
			c1.481,1.343,2.913,3.304,4.292,5.888l23.233,44.858l23.383-44.858c1.38-2.584,2.812-4.545,4.292-5.888
			c1.48-1.342,3.352-2.012,5.623-2.012c1.676,0,3.131,0.445,4.367,1.341c1.232,0.895,1.851,2.485,1.851,4.77v98.364
			c0,1.49-0.646,2.607-1.924,3.354c-1.284,0.746-2.716,1.119-4.295,1.119c-1.578,0-3.008-0.373-4.288-1.119
			c-1.282-0.744-1.925-1.862-1.925-3.354v-78.242L-1212.769,3000.73z"/>
		<path fill="#003884" d="M-1126.199,3042.015c-4.438,0-8.609-0.573-12.505-1.715c-3.896-1.142-7.274-3.004-10.136-5.591
			c-2.864-2.58-5.104-5.934-6.732-10.059c-1.629-4.122-2.442-9.166-2.442-15.128v-44.86c0-5.961,0.813-11.003,2.442-15.125
			c1.629-4.123,3.868-7.476,6.732-10.063c2.86-2.582,6.239-4.442,10.136-5.586c3.896-1.143,8.067-1.716,12.505-1.716
			c4.44,0,8.608,0.573,12.505,1.716c3.896,1.144,7.304,3.004,10.211,5.586c2.909,2.588,5.18,5.939,6.81,10.063
			c1.629,4.122,2.442,9.164,2.442,15.125v44.86c0,5.962-0.813,11.006-2.442,15.128c-1.63,4.125-3.9,7.479-6.81,10.059
			c-2.907,2.586-6.315,4.449-10.211,5.591C-1117.591,3041.441-1121.759,3042.015-1126.199,3042.015z M-1106.662,2964.663
			c0-7.252-1.729-12.593-5.181-16.021c-3.454-3.428-8.239-5.143-14.356-5.143c-6.116,0-10.876,1.715-14.278,5.143
			c-3.406,3.429-5.104,8.77-5.104,16.021v44.859c0,7.254,1.698,12.596,5.104,16.021c3.402,3.43,8.163,5.143,14.278,5.143
			c6.117,0,10.903-1.713,14.356-5.143c3.452-3.426,5.181-8.768,5.181-16.021V2964.663z"/>
		<path fill="#003884" d="M-1074.256,2936.646c0-1.492,0.596-2.609,1.776-3.354c1.187-0.746,2.466-1.118,3.85-1.118h25.45
			c4.048,0,7.895,0.35,11.544,1.044c3.649,0.695,6.833,1.986,9.546,3.873c2.711,1.889,4.886,4.5,6.511,7.824
			c1.628,3.33,2.441,7.578,2.441,12.743c0,6.261-1.135,11.476-3.403,15.648c-2.271,4.171-5.326,7.104-9.176,8.795
			c2.271,0.893,4.34,2.01,6.218,3.352c1.87,1.343,3.477,3.009,4.811,4.992c1.33,1.989,2.368,4.375,3.104,7.156
			c0.74,2.78,1.11,6.061,1.11,9.836v2.682c0,5.663-0.767,10.481-2.295,14.457c-1.527,3.976-3.601,7.18-6.214,9.613
			c-2.618,2.436-5.696,4.196-9.249,5.29c-3.552,1.095-7.4,1.641-11.542,1.641h-28.856c-1.68,0-3.036-0.447-4.071-1.343
			c-1.033-0.896-1.555-1.886-1.555-2.979V2936.646L-1074.256,2936.646z M-1061.824,2976.886h18.497
			c6.021,0,10.482-1.342,13.396-4.025c2.909-2.683,4.362-7.152,4.362-13.413c0-2.979-0.443-5.487-1.33-7.525
			c-0.887-2.037-2.124-3.675-3.702-4.919c-1.578-1.239-3.5-2.135-5.77-2.682c-2.271-0.545-4.736-0.82-7.399-0.82h-18.055V2976.886
			L-1061.824,2976.886z M-1041.846,3029.792c5.919,0,10.559-1.613,13.91-4.845c3.356-3.227,5.03-8.42,5.03-15.571v-2.534
			c0-7.155-1.674-12.195-5.03-15.128c-3.352-2.93-7.99-4.396-13.91-4.396h-19.979v42.476L-1041.846,3029.792L-1041.846,3029.792z"/>
		<path fill="#003884" d="M-916.057,3000.73c-0.691,1.292-1.459,2.188-2.293,2.682c-0.842,0.501-1.7,0.747-2.59,0.747
			c-0.791,0-1.58-0.246-2.369-0.747c-0.79-0.495-1.529-1.39-2.222-2.682l-22.194-42.923v78.841c0,1.49-0.646,2.607-1.925,3.354
			c-1.284,0.746-2.715,1.119-4.293,1.119s-3.01-0.373-4.289-1.119c-1.282-0.744-1.926-1.862-1.926-3.354v-98.364
			c0-2.282,0.614-3.875,1.852-4.77c1.233-0.896,2.688-1.341,4.363-1.341c2.271,0,4.145,0.67,5.622,2.012
			c1.481,1.343,2.914,3.304,4.294,5.888l23.232,44.858l23.382-44.858c1.38-2.584,2.812-4.545,4.294-5.888
			c1.48-1.342,3.352-2.012,5.622-2.012c1.676,0,3.13,0.445,4.366,1.341c1.232,0.895,1.853,2.485,1.853,4.77v98.364
			c0,1.49-0.646,2.607-1.926,3.354c-1.283,0.746-2.716,1.119-4.294,1.119c-1.577,0-3.01-0.373-4.286-1.119
			c-1.284-0.744-1.928-1.862-1.928-3.354v-78.242L-916.057,3000.73z"/>
		<path fill="#003884" d="M-768.073,3041.12c-1.676,0-3.18-0.521-4.51-1.565c-1.334-1.042-2.441-2.407-3.332-4.099l-38.479-74.966
			v76.157c0,1.49-0.642,2.607-1.925,3.354s-2.714,1.119-4.289,1.119c-1.578,0-3.009-0.373-4.292-1.119
			c-1.283-0.744-1.926-1.862-1.926-3.354v-100.155c0-1.586,0.619-2.704,1.853-3.352c1.231-0.645,2.688-0.968,4.365-0.968
			c2.269,0,4.067,0.67,5.401,2.012c1.329,1.343,2.688,3.304,4.066,5.888l36.853,72.58v-76.16c0-1.487,0.642-2.579,1.925-3.274
			c1.28-0.694,2.71-1.044,4.288-1.044c1.579,0,3.011,0.35,4.294,1.044c1.277,0.695,1.924,1.788,1.924,3.274v100.155
			c0,1.49-0.646,2.607-1.924,3.354C-765.063,3040.747-766.493,3041.12-768.073,3041.12z"/>
		<path fill="#003884" d="M-651.308,2932.174c1.479,0,2.59,0.597,3.327,1.788c0.74,1.19,1.112,2.483,1.112,3.875
			c0,1.49-0.372,2.856-1.112,4.1c-0.737,1.243-1.85,1.862-3.327,1.862h-23.829v92.851c0,1.489-0.643,2.607-1.921,3.353
			c-1.283,0.746-2.715,1.12-4.293,1.12s-3.01-0.374-4.293-1.12c-1.283-0.744-1.921-1.862-1.921-3.353v-92.851h-23.979
			c-1.38,0-2.465-0.597-3.255-1.789c-0.788-1.192-1.182-2.582-1.182-4.173c0-1.392,0.37-2.685,1.108-3.875
			c0.737-1.191,1.852-1.788,3.328-1.788H-651.308z"/>
	</g>
	<line fill="none" stroke="#BF6000" stroke-miterlimit="10" x1="-993.573" y1="2973.79" x2="-981.382" y2="2973.79"/>
	<line fill="none" stroke="#BF6000" stroke-miterlimit="10" x1="-993.573" y1="2981.218" x2="-981.382" y2="2981.218"/>
	<line fill="none" stroke="#BF6000" stroke-miterlimit="10" x1="-993.573" y1="2966.362" x2="-981.382" y2="2966.362"/>
	<line fill="none" stroke="#BF6000" stroke-miterlimit="10" x1="-993.573" y1="2958.937" x2="-981.382" y2="2958.937"/>
	<line fill="none" stroke="#BF6000" stroke-miterlimit="10" x1="-993.573" y1="2988.644" x2="-981.382" y2="2988.644"/>
	<line fill="none" stroke="#BF6000" stroke-miterlimit="10" x1="-993.573" y1="2996.071" x2="-981.382" y2="2996.071"/>
	<line fill="none" stroke="#BF6000" stroke-miterlimit="10" x1="-993.573" y1="2951.509" x2="-981.382" y2="2951.509"/>
	<line fill="none" stroke="#BF6000" stroke-miterlimit="10" x1="-993.573" y1="2945.939" x2="-981.382" y2="2945.939"/>
	<line fill="none" stroke="#BF6000" stroke-miterlimit="10" x1="-993.573" y1="3001.642" x2="-981.382" y2="3001.642"/>
	<line fill="none" stroke="#BF6000" stroke-miterlimit="10" x1="-993.573" y1="2940.369" x2="-981.382" y2="2940.369"/>
	<line fill="none" stroke="#BF6000" stroke-miterlimit="10" x1="-993.573" y1="3007.212" x2="-981.382" y2="3007.212"/>
	<line fill="none" stroke="#BF6000" stroke-miterlimit="10" x1="-993.573" y1="2934.798" x2="-981.382" y2="2934.798"/>
	<line fill="none" stroke="#BF6000" stroke-miterlimit="10" x1="-993.573" y1="3012.781" x2="-981.382" y2="3012.781"/>
	<line fill="none" stroke="#BF6000" stroke-miterlimit="10" x1="-993.573" y1="2931.087" x2="-981.382" y2="2931.087"/>
	<line fill="none" stroke="#BF6000" stroke-miterlimit="10" x1="-993.573" y1="2927.372" x2="-981.382" y2="2927.372"/>
	<line fill="none" stroke="#BF6000" stroke-miterlimit="10" x1="-993.573" y1="2923.658" x2="-981.382" y2="2923.658"/>
	<line fill="none" stroke="#BF6000" stroke-miterlimit="10" x1="-993.573" y1="3016.497" x2="-981.382" y2="3016.497"/>
	<line fill="none" stroke="#BF6000" stroke-miterlimit="10" x1="-993.573" y1="3020.208" x2="-981.382" y2="3020.208"/>
	<line fill="none" stroke="#BF6000" stroke-miterlimit="10" x1="-993.573" y1="3023.923" x2="-981.382" y2="3023.923"/>
	<path fill="#FF8000" d="M-860.025,2910.245c0-1.488,0.644-2.578,1.927-3.273c1.278-0.695,2.71-1.045,4.289-1.045
		c1.578,0,3.009,0.35,4.292,1.045c1.281,0.695,1.925,1.785,1.925,3.273v100.155c0,1.49-0.644,2.609-1.925,3.354
		c-1.283,0.746-2.714,1.12-4.292,1.12c-1.579,0-3.011-0.374-4.289-1.12c-1.283-0.743-1.927-1.862-1.927-3.354V2910.245z"/>
	<line fill="none" stroke="#BF6000" stroke-miterlimit="10" x1="-859.996" y1="2960.399" x2="-847.805" y2="2960.399"/>
	<line fill="none" stroke="#BF6000" stroke-miterlimit="10" x1="-859.996" y1="2967.826" x2="-847.805" y2="2967.826"/>
	<line fill="none" stroke="#BF6000" stroke-miterlimit="10" x1="-859.996" y1="2952.973" x2="-847.805" y2="2952.973"/>
	<line fill="none" stroke="#BF6000" stroke-miterlimit="10" x1="-859.996" y1="2945.546" x2="-847.805" y2="2945.546"/>
	<line fill="none" stroke="#BF6000" stroke-miterlimit="10" x1="-859.996" y1="2975.253" x2="-847.805" y2="2975.253"/>
	<line fill="none" stroke="#BF6000" stroke-miterlimit="10" x1="-859.996" y1="2982.681" x2="-847.805" y2="2982.681"/>
	<line fill="none" stroke="#BF6000" stroke-miterlimit="10" x1="-859.996" y1="2938.118" x2="-847.805" y2="2938.118"/>
	<line fill="none" stroke="#BF6000" stroke-miterlimit="10" x1="-859.996" y1="2932.549" x2="-847.805" y2="2932.549"/>
	<line fill="none" stroke="#BF6000" stroke-miterlimit="10" x1="-859.996" y1="2988.251" x2="-847.805" y2="2988.251"/>
	<line fill="none" stroke="#BF6000" stroke-miterlimit="10" x1="-859.996" y1="2926.98" x2="-847.805" y2="2926.98"/>
	<line fill="none" stroke="#BF6000" stroke-miterlimit="10" x1="-859.996" y1="2993.822" x2="-847.805" y2="2993.822"/>
	<line fill="none" stroke="#BF6000" stroke-miterlimit="10" x1="-859.996" y1="2921.406" x2="-847.805" y2="2921.406"/>
	<line fill="none" stroke="#BF6000" stroke-miterlimit="10" x1="-859.996" y1="2999.392" x2="-847.805" y2="2999.392"/>
	<line fill="none" stroke="#BF6000" stroke-miterlimit="10" x1="-859.996" y1="2917.695" x2="-847.805" y2="2917.695"/>
	<line fill="none" stroke="#BF6000" stroke-miterlimit="10" x1="-859.996" y1="2913.983" x2="-847.805" y2="2913.983"/>
	<line fill="none" stroke="#BF6000" stroke-miterlimit="10" x1="-859.996" y1="2910.268" x2="-847.805" y2="2910.268"/>
	<line fill="none" stroke="#BF6000" stroke-miterlimit="10" x1="-859.996" y1="3003.106" x2="-847.805" y2="3003.106"/>
	<line fill="none" stroke="#BF6000" stroke-miterlimit="10" x1="-859.996" y1="3006.819" x2="-847.805" y2="3006.819"/>
	<line fill="none" stroke="#BF6000" stroke-miterlimit="10" x1="-859.996" y1="3010.533" x2="-847.805" y2="3010.533"/>
	<path fill="#FF8000" d="M-741.145,2897.183c0-1.489,0.643-2.58,1.927-3.275c1.278-0.695,2.71-1.045,4.289-1.045
		c1.578,0,3.009,0.351,4.292,1.045c1.28,0.695,1.926,1.786,1.926,3.275v100.154c0,1.489-0.646,2.609-1.926,3.354
		c-1.284,0.746-2.714,1.119-4.292,1.119c-1.579,0-3.011-0.373-4.289-1.119c-1.284-0.743-1.927-1.863-1.927-3.354V2897.183z"/>
	<line fill="none" stroke="#BF6000" stroke-miterlimit="10" x1="-741.115" y1="2947.337" x2="-728.924" y2="2947.337"/>
	<line fill="none" stroke="#BF6000" stroke-miterlimit="10" x1="-741.115" y1="2954.764" x2="-728.924" y2="2954.764"/>
	<line fill="none" stroke="#BF6000" stroke-miterlimit="10" x1="-741.115" y1="2939.908" x2="-728.924" y2="2939.908"/>
	<line fill="none" stroke="#BF6000" stroke-miterlimit="10" x1="-741.115" y1="2932.482" x2="-728.924" y2="2932.482"/>
	<line fill="none" stroke="#BF6000" stroke-miterlimit="10" x1="-741.115" y1="2962.19" x2="-728.924" y2="2962.19"/>
	<line fill="none" stroke="#BF6000" stroke-miterlimit="10" x1="-741.115" y1="2969.617" x2="-728.924" y2="2969.617"/>
	<line fill="none" stroke="#BF6000" stroke-miterlimit="10" x1="-741.115" y1="2925.056" x2="-728.924" y2="2925.056"/>
	<line fill="none" stroke="#BF6000" stroke-miterlimit="10" x1="-741.115" y1="2919.485" x2="-728.924" y2="2919.485"/>
	<line fill="none" stroke="#BF6000" stroke-miterlimit="10" x1="-741.115" y1="2975.188" x2="-728.924" y2="2975.188"/>
	<line fill="none" stroke="#BF6000" stroke-miterlimit="10" x1="-741.115" y1="2913.915" x2="-728.924" y2="2913.915"/>
	<line fill="none" stroke="#BF6000" stroke-miterlimit="10" x1="-741.115" y1="2980.759" x2="-728.924" y2="2980.759"/>
	<line fill="none" stroke="#BF6000" stroke-miterlimit="10" x1="-741.115" y1="2908.344" x2="-728.924" y2="2908.344"/>
	<line fill="none" stroke="#BF6000" stroke-miterlimit="10" x1="-741.115" y1="2986.326" x2="-728.924" y2="2986.326"/>
	<line fill="none" stroke="#BF6000" stroke-miterlimit="10" x1="-741.115" y1="2904.632" x2="-728.924" y2="2904.632"/>
	<line fill="none" stroke="#BF6000" stroke-miterlimit="10" x1="-741.115" y1="2900.919" x2="-728.924" y2="2900.919"/>
	<line fill="none" stroke="#BF6000" stroke-miterlimit="10" x1="-741.115" y1="2897.203" x2="-728.924" y2="2897.203"/>
	<line fill="none" stroke="#BF6000" stroke-miterlimit="10" x1="-741.115" y1="2990.042" x2="-728.924" y2="2990.042"/>
	<line fill="none" stroke="#BF6000" stroke-miterlimit="10" x1="-741.115" y1="2993.755" x2="-728.924" y2="2993.755"/>
	<line fill="none" stroke="#BF6000" stroke-miterlimit="10" x1="-741.115" y1="2997.47" x2="-728.924" y2="2997.47"/>
</g>
</svg>
