<?xml version="1.0" encoding="utf-8"?>
<!-- Generator: Adobe Illustrator 16.0.2, SVG Export Plug-In . SVG Version: 6.00 Build 0)  -->
<!DOCTYPE svg PUBLIC "-//W3C//DTD SVG 1.1//EN" "http://www.w3.org/Graphics/SVG/1.1/DTD/svg11.dtd">
<svg version="1.1" id="Layer_1" xmlns="http://www.w3.org/2000/svg" xmlns:xlink="http://www.w3.org/1999/xlink" x="0px" y="0px"
	 width="1830px" height="800px" viewBox="0 800.088 1830 800" enable-background="new 0 800.088 1830 800" xml:space="preserve">
<rect x="0" y="800.088" fill="#FFFFFF" width="1830" height="800"/>
<g>
	<g>
		<polygon fill="#FF9600" points="360.669,1132.597 318.01,1107.927 318.01,1205.737 360.669,1230.311 		"/>
	</g>
	<g>
		<polygon fill="#FF9600" points="276.158,1181.645 233.5,1156.978 233.5,1254.785 276.158,1279.36 		"/>
	</g>
	<g>
		<polygon fill="#FF9600" points="305.651,1149.979 318.529,1157.394 339.171,1205.945 360.669,1132.597 318.01,1107.937 		"/>
	</g>
	<g>
		<polygon fill="#FF9600" points="339.555,1242.565 318.537,1230.414 318.537,1206.019 		"/>
	</g>
</g>
<g>
	<polygon fill="#FF5000" points="360.731,1132.597 339.234,1205.945 318.592,1157.347 318.584,1157.349 276.222,1181.645 
		276.222,1279.36 318.584,1255.033 318.584,1205.994 339.618,1242.565 360.731,1181.757 360.731,1230.311 403.095,1205.985 
		403.095,1108.3 	"/>
</g>
<g>
	<g>
		<polygon fill="#FF9600" points="424.129,1169.6 381.471,1144.929 381.471,1242.74 424.129,1267.313 		"/>
	</g>
	<g>
		<polygon fill="#FF9600" points="339.618,1218.647 296.96,1193.979 296.96,1291.788 339.618,1316.362 		"/>
	</g>
	<g>
		<polygon fill="#FF9600" points="369.111,1186.981 381.989,1194.395 402.632,1242.948 424.129,1169.6 381.471,1144.939 		"/>
	</g>
	<g>
		<polygon fill="#FF9600" points="403.016,1279.567 381.998,1267.416 381.998,1243.021 		"/>
	</g>
</g>
<g>
	<polygon fill="#FF5000" points="424.099,1169.615 402.601,1242.964 381.959,1194.365 381.951,1194.365 339.589,1218.662 
		339.589,1316.378 381.951,1292.053 381.951,1243.014 402.985,1279.582 424.099,1218.775 424.099,1267.328 466.462,1243.003 
		466.462,1145.316 	"/>
</g>
<g>
	<g>
		<g>
			<polygon fill="#FFC800" points="424.136,1169.6 381.478,1144.929 423.582,1120.625 466.5,1145.301 			"/>
		</g>
		<g>
			<polygon fill="#FFC800" points="339.626,1218.647 296.968,1193.979 339.071,1169.674 381.989,1194.352 			"/>
		</g>
	</g>
	<g>
		<g>
			<polygon fill="#FFC800" points="360.676,1132.597 318.018,1107.927 360.122,1083.621 403.039,1108.3 			"/>
		</g>
		<g>
			<polygon fill="#FFC800" points="276.166,1181.645 233.508,1156.978 275.611,1132.671 318.529,1157.347 			"/>
		</g>
	</g>
</g>
<g>
	<g>
		<polygon fill="#2BCC2B" points="925.669,1144.748 883.01,1120.078 883.01,1217.89 925.669,1242.463 		"/>
	</g>
	<g>
		<polygon fill="#2BCC2B" points="841.158,1193.797 798.5,1169.13 798.5,1266.938 841.158,1291.513 		"/>
	</g>
	<g>
		<polygon fill="#2BCC2B" points="870.651,1162.131 883.529,1169.546 904.172,1218.098 925.669,1144.748 883.01,1120.089 		"/>
	</g>
	<g>
		<polygon fill="#2BCC2B" points="904.555,1254.718 883.537,1242.567 883.537,1218.171 		"/>
	</g>
</g>
<g>
	<polygon fill="#00A229" points="925.73,1144.748 904.234,1218.098 883.593,1169.498 883.584,1169.5 841.222,1193.797 
		841.222,1291.513 883.584,1267.187 883.584,1218.147 904.618,1254.718 925.73,1193.908 925.73,1242.463 968.094,1218.138 
		968.094,1120.451 	"/>
</g>
<g>
	<g>
		<polygon fill="#2BCC2B" points="989.13,1181.752 946.471,1157.08 946.471,1254.893 989.13,1279.466 		"/>
	</g>
	<g>
		<polygon fill="#2BCC2B" points="904.618,1230.8 861.961,1206.132 861.961,1303.941 904.618,1328.515 		"/>
	</g>
	<g>
		<polygon fill="#2BCC2B" points="934.111,1199.134 946.988,1206.547 967.632,1255.101 989.13,1181.752 946.471,1157.092 		"/>
	</g>
	<g>
		<polygon fill="#2BCC2B" points="968.016,1291.72 946.998,1279.569 946.998,1255.173 		"/>
	</g>
</g>
<g>
	<polygon fill="#00A229" points="989.098,1181.768 967.602,1255.115 946.959,1206.519 946.951,1206.519 904.59,1230.815 
		904.59,1328.53 946.951,1304.204 946.951,1255.166 967.984,1291.735 989.098,1230.928 989.098,1279.481 1031.462,1255.155 
		1031.462,1157.469 	"/>
</g>
<g>
	<g>
		<g>
			<polygon fill="#5CE94F" points="989.135,1181.752 946.479,1157.08 988.582,1132.777 1031.5,1157.452 			"/>
		</g>
		<g>
			<polygon fill="#5CE94F" points="904.627,1230.8 861.969,1206.132 904.071,1181.825 946.988,1206.504 			"/>
		</g>
	</g>
	<g>
		<g>
			<polygon fill="#5CE94F" points="925.677,1144.748 883.018,1120.078 925.121,1095.774 968.039,1120.451 			"/>
		</g>
		<g>
			<polygon fill="#5CE94F" points="841.166,1193.797 798.509,1169.13 840.611,1144.823 883.529,1169.498 			"/>
		</g>
	</g>
</g>
<g>
	<g>
		<polygon fill="#7300AF" points="1492.14,1144.748 1449.482,1120.078 1449.482,1217.89 1492.14,1242.463 		"/>
	</g>
	<g>
		<polygon fill="#7300AF" points="1407.63,1193.797 1364.972,1169.13 1364.972,1266.938 1407.63,1291.513 		"/>
	</g>
	<g>
		<polygon fill="#7300AF" points="1437.123,1162.131 1450,1169.546 1470.643,1218.098 1492.14,1144.748 1449.482,1120.089 		"/>
	</g>
	<g>
		<polygon fill="#7300AF" points="1471.026,1254.718 1450.01,1242.567 1450.01,1218.171 		"/>
	</g>
</g>
<g>
	<polygon fill="#450063" points="1492.202,1144.748 1470.707,1218.098 1450.064,1169.498 1450.056,1169.5 1407.693,1193.797 
		1407.693,1291.513 1450.056,1267.187 1450.056,1218.147 1471.091,1254.718 1492.202,1193.908 1492.202,1242.463 1534.565,1218.138 
		1534.565,1120.451 	"/>
</g>
<g>
	<g>
		<polygon fill="#7300AF" points="1555.601,1181.752 1512.942,1157.08 1512.942,1254.893 1555.601,1279.466 		"/>
	</g>
	<g>
		<polygon fill="#7300AF" points="1471.091,1230.8 1428.432,1206.132 1428.432,1303.941 1471.091,1328.515 		"/>
	</g>
	<g>
		<polygon fill="#7300AF" points="1500.584,1199.134 1513.461,1206.547 1534.103,1255.101 1555.601,1181.752 1512.942,1157.092 		
			"/>
	</g>
	<g>
		<polygon fill="#7300AF" points="1534.487,1291.72 1513.47,1279.569 1513.47,1255.173 		"/>
	</g>
</g>
<g>
	<polygon fill="#450063" points="1555.569,1181.768 1534.073,1255.115 1513.431,1206.519 1513.424,1206.519 1471.061,1230.815 
		1471.061,1328.53 1513.424,1304.204 1513.424,1255.166 1534.457,1291.735 1555.569,1230.928 1555.569,1279.481 1597.933,1255.155 
		1597.933,1157.469 	"/>
</g>
<g>
	<g>
		<g>
			<polygon fill="#9900FC" points="1555.606,1181.752 1512.95,1157.08 1555.054,1132.777 1597.972,1157.452 			"/>
		</g>
		<g>
			<polygon fill="#9900FC" points="1471.098,1230.8 1428.439,1206.132 1470.543,1181.825 1513.461,1206.504 			"/>
		</g>
	</g>
	<g>
		<g>
			<polygon fill="#9900FC" points="1492.147,1144.748 1449.489,1120.078 1491.594,1095.774 1534.511,1120.451 			"/>
		</g>
		<g>
			<polygon fill="#9900FC" points="1407.638,1193.797 1364.979,1169.13 1407.082,1144.823 1450,1169.498 			"/>
		</g>
	</g>
</g>
</svg>
