<?xml version="1.0" encoding="utf-8"?>
<!-- Generator: Adobe Illustrator 16.0.2, SVG Export Plug-In . SVG Version: 6.00 Build 0)  -->
<!DOCTYPE svg PUBLIC "-//W3C//DTD SVG 1.1//EN" "http://www.w3.org/Graphics/SVG/1.1/DTD/svg11.dtd">
<svg version="1.1" id="Layer_1" xmlns="http://www.w3.org/2000/svg" xmlns:xlink="http://www.w3.org/1999/xlink" x="0px" y="0px"
	 width="1830px" height="3201px" viewBox="0 0 1830 3201" enable-background="new 0 0 1830 3201" xml:space="preserve">
<rect fill="#DCFFFF" width="1830" height="800"/>
<rect y="800.088" fill="#FFFFFF" width="1830" height="800"/>
<rect y="2401" fill="#FFFFFF" width="1830" height="800"/>
<rect y="1600.651" fill="#FFFFDC" width="1830" height="800"/>
<g>
	<path fill="#5CE9FF" d="M808.209,389.341l-0.309,0.062l0.309,3.273v25.076H795.98v-43.235h18.282l6.979,24.458l0.371,2.965h0.309
		l0.432-2.965l6.917-24.458h18.282v43.235h-12.229v-25.076l0.309-3.273l-0.309-0.062l-8.647,28.411h-9.82L808.209,389.341z"/>
	<path fill="#5CE9FF" d="M866.756,379.397c5.127-5.374,11.241-6.053,16.367-6.053c5.559,0,12.354,0.926,17.355,6.115
		c4.88,5.003,5.744,11.55,5.744,16.306c0,8.338-2.531,13.649-5.62,16.984c-5.003,5.374-11.364,6.177-16.985,6.177
		c-5.682,0-12.353-0.865-17.417-6.3c-1.977-2.1-5.559-7.165-5.559-16.367C860.642,388.291,863.545,382.794,866.756,379.397z
		 M877.688,405.276c1.605,1.668,3.582,2.286,5.744,2.286c2.1,0,4.2-0.494,5.806-2.286c1.977-2.162,2.655-5.991,2.655-9.141
		c0-3.15-0.433-6.793-2.655-9.141c-1.605-1.667-3.459-2.285-5.559-2.285c-2.162,0-4.2,0.556-5.868,2.285
		c-2.47,2.594-2.841,6.794-2.841,9.141C874.971,398.482,875.279,402.682,877.688,405.276z"/>
	<path fill="#5CE9FF" d="M943.771,374.518c2.841,0,7.164,0.062,10.252,2.594c1.729,1.42,3.459,4.015,3.459,8.215
		c0,2.532-0.68,4.632-2.656,6.67c-1.42,1.482-2.902,2.224-4.385,2.594v0.247c3.582,0.68,5.744,2.656,6.115,3.026
		c1.605,1.544,3.088,4.077,3.088,8.091c0,4.818-2.224,7.474-4.076,8.833c-3.397,2.594-8.771,2.965-11.982,2.965h-24.273v-43.235
		H943.771z M932.777,391.194h6.917c1.112,0,2.471-0.062,3.336-0.865c0.432-0.371,0.987-1.111,0.987-2.594
		c0-1.421-0.556-2.224-1.111-2.656c-0.988-0.741-2.718-0.803-3.396-0.803h-6.732V391.194z M932.777,407.994h8.152
		c1.174,0,2.532-0.062,3.521-0.926c0.617-0.556,1.173-1.482,1.173-3.026c0-1.792-0.741-2.656-1.235-3.026
		c-0.927-0.741-2.408-0.865-3.521-0.865h-8.091V407.994z"/>
	<path fill="#5CE9FF" d="M986.199,374.518v43.235h-13.465v-43.235H986.199z"/>
	<path fill="#005381" d="M1014.298,389.341l-0.309,0.062l0.309,3.273v25.076h-12.229v-43.235h18.281l6.979,24.458l0.371,2.965h0.309
		l0.432-2.965l6.918-24.458h18.282v43.235h-12.229v-25.076l0.309-3.273l-0.309-0.062l-8.646,28.411h-9.82L1014.298,389.341z"/>
	<path fill="#005381" d="M1082.975,374.518v43.235h-13.465v-43.235H1082.975z"/>
	<path fill="#005381" d="M1112,393.788l0.309,3.273v20.691h-13.464v-43.235h13.464l13.218,23.964h0.31l-0.31-3.273v-20.691h13.464
		v43.235h-13.464l-13.218-23.964H1112z"/>
	<path fill="#005381" d="M1168.324,374.518v43.235h-13.465v-43.235H1168.324z"/>
	<path fill="#005381" d="M1179.563,386.376v-11.859h37.922v11.859h-12.229v31.376h-13.465v-31.376H1179.563z"/>
</g>
<g>
	<g>
		<polygon fill="#00A1E0" points="682.792,359.918 657.53,345.309 657.53,403.231 682.792,417.782 		"/>
	</g>
	<g>
		<polygon fill="#00A1E0" points="632.746,388.963 607.485,374.355 607.485,432.277 632.746,446.828 		"/>
	</g>
	<g>
		<polygon fill="#00A1E0" points="650.212,370.211 657.837,374.601 670.062,403.354 682.792,359.918 657.53,345.315 		"/>
	</g>
	<g>
		<polygon fill="#00A1E0" points="670.289,425.04 657.842,417.845 657.842,403.397 		"/>
	</g>
</g>
<g>
	<polygon fill="#005381" points="682.829,359.918 670.099,403.354 657.875,374.575 657.87,374.576 632.784,388.963 632.784,446.828 
		657.87,432.424 657.87,403.384 670.326,425.04 682.829,389.029 682.829,417.782 707.916,403.379 707.916,345.53 	"/>
</g>
<g>
	<g>
		<polygon fill="#00A1E0" points="720.372,381.83 695.11,367.222 695.11,425.144 720.372,439.695 		"/>
	</g>
	<g>
		<polygon fill="#00A1E0" points="670.326,410.875 645.065,396.268 645.065,454.189 670.326,468.74 		"/>
	</g>
	<g>
		<polygon fill="#00A1E0" points="687.792,392.124 695.417,396.514 707.642,425.267 720.372,381.83 695.11,367.227 		"/>
	</g>
	<g>
		<polygon fill="#00A1E0" points="707.869,446.952 695.422,439.756 695.422,425.309 		"/>
	</g>
</g>
<g>
	<polygon fill="#005381" points="720.409,381.83 707.679,425.267 695.455,396.488 695.45,396.488 670.364,410.875 670.364,468.74 
		695.45,454.336 695.45,425.296 707.906,446.952 720.409,410.941 720.409,439.695 745.496,425.291 745.496,367.442 	"/>
</g>
<g>
	<g>
		<g>
			<polygon fill="#5CE9FF" points="720.376,381.83 695.115,367.222 720.048,352.829 745.463,367.442 			"/>
		</g>
		<g>
			<polygon fill="#5CE9FF" points="670.331,410.875 645.07,396.268 670.002,381.875 695.417,396.488 			"/>
		</g>
	</g>
	<g>
		<g>
			<polygon fill="#5CE9FF" points="682.796,359.918 657.535,345.309 682.468,330.917 707.883,345.53 			"/>
		</g>
		<g>
			<polygon fill="#5CE9FF" points="632.751,388.963 607.49,374.355 632.422,359.963 657.837,374.575 			"/>
		</g>
	</g>
</g>
<g>
	<g>
		<polygon fill="#FF9600" points="360.669,1132.597 318.01,1107.927 318.01,1205.737 360.669,1230.311 		"/>
	</g>
	<g>
		<polygon fill="#FF9600" points="276.158,1181.645 233.5,1156.978 233.5,1254.786 276.158,1279.36 		"/>
	</g>
	<g>
		<polygon fill="#FF9600" points="305.651,1149.979 318.529,1157.394 339.171,1205.945 360.669,1132.597 318.01,1107.937 		"/>
	</g>
	<g>
		<polygon fill="#FF9600" points="339.555,1242.565 318.537,1230.415 318.537,1206.019 		"/>
	</g>
</g>
<g>
	<polygon fill="#FF5000" points="360.731,1132.597 339.234,1205.945 318.592,1157.347 318.584,1157.349 276.222,1181.645 
		276.222,1279.36 318.584,1255.034 318.584,1205.995 339.618,1242.565 360.731,1181.757 360.731,1230.311 403.095,1205.985 
		403.095,1108.3 	"/>
</g>
<g>
	<g>
		<polygon fill="#FF9600" points="424.128,1169.6 381.471,1144.929 381.471,1242.74 424.128,1267.313 		"/>
	</g>
	<g>
		<polygon fill="#FF9600" points="339.618,1218.647 296.96,1193.979 296.96,1291.789 339.618,1316.362 		"/>
	</g>
	<g>
		<polygon fill="#FF9600" points="369.111,1186.981 381.989,1194.395 402.632,1242.948 424.128,1169.6 381.471,1144.939 		"/>
	</g>
	<g>
		<polygon fill="#FF9600" points="403.016,1279.567 381.998,1267.417 381.998,1243.021 		"/>
	</g>
</g>
<g>
	<polygon fill="#FF5000" points="424.099,1169.615 402.601,1242.964 381.959,1194.366 381.951,1194.366 339.589,1218.663 
		339.589,1316.378 381.951,1292.053 381.951,1243.014 402.985,1279.583 424.099,1218.775 424.099,1267.329 466.461,1243.003 
		466.461,1145.316 	"/>
</g>
<g>
	<g>
		<g>
			<polygon fill="#FFC800" points="424.136,1169.6 381.478,1144.929 423.582,1120.625 466.5,1145.301 			"/>
		</g>
		<g>
			<polygon fill="#FFC800" points="339.626,1218.647 296.968,1193.979 339.071,1169.674 381.989,1194.352 			"/>
		</g>
	</g>
	<g>
		<g>
			<polygon fill="#FFC800" points="360.676,1132.597 318.018,1107.927 360.122,1083.622 403.039,1108.3 			"/>
		</g>
		<g>
			<polygon fill="#FFC800" points="276.166,1181.645 233.508,1156.978 275.611,1132.671 318.529,1157.347 			"/>
		</g>
	</g>
</g>
<g>
	<g>
		<polygon fill="#2BCC2B" points="925.668,1144.749 883.01,1120.079 883.01,1217.89 925.668,1242.463 		"/>
	</g>
	<g>
		<polygon fill="#2BCC2B" points="841.158,1193.797 798.5,1169.13 798.5,1266.938 841.158,1291.513 		"/>
	</g>
	<g>
		<polygon fill="#2BCC2B" points="870.651,1162.131 883.529,1169.546 904.171,1218.098 925.668,1144.749 883.01,1120.089 		"/>
	</g>
	<g>
		<polygon fill="#2BCC2B" points="904.555,1254.718 883.537,1242.567 883.537,1218.171 		"/>
	</g>
</g>
<g>
	<polygon fill="#00A229" points="925.73,1144.749 904.234,1218.098 883.592,1169.499 883.584,1169.501 841.222,1193.797 
		841.222,1291.513 883.584,1267.187 883.584,1218.147 904.618,1254.718 925.73,1193.909 925.73,1242.463 968.094,1218.138 
		968.094,1120.452 	"/>
</g>
<g>
	<g>
		<polygon fill="#2BCC2B" points="989.129,1181.752 946.471,1157.081 946.471,1254.893 989.129,1279.466 		"/>
	</g>
	<g>
		<polygon fill="#2BCC2B" points="904.618,1230.8 861.96,1206.132 861.96,1303.941 904.618,1328.515 		"/>
	</g>
	<g>
		<polygon fill="#2BCC2B" points="934.111,1199.134 946.988,1206.547 967.631,1255.101 989.129,1181.752 946.471,1157.092 		"/>
	</g>
	<g>
		<polygon fill="#2BCC2B" points="968.016,1291.72 946.998,1279.569 946.998,1255.173 		"/>
	</g>
</g>
<g>
	<polygon fill="#00A229" points="989.098,1181.768 967.602,1255.116 946.959,1206.519 946.951,1206.519 904.589,1230.815 
		904.589,1328.53 946.951,1304.205 946.951,1255.166 967.984,1291.735 989.098,1230.928 989.098,1279.481 1031.461,1255.155 
		1031.461,1157.469 	"/>
</g>
<g>
	<g>
		<g>
			<polygon fill="#5CE94F" points="989.135,1181.752 946.479,1157.081 988.582,1132.777 1031.5,1157.453 			"/>
		</g>
		<g>
			<polygon fill="#5CE94F" points="904.626,1230.8 861.968,1206.132 904.071,1181.826 946.988,1206.504 			"/>
		</g>
	</g>
	<g>
		<g>
			<polygon fill="#5CE94F" points="925.676,1144.749 883.018,1120.079 925.121,1095.774 968.039,1120.452 			"/>
		</g>
		<g>
			<polygon fill="#5CE94F" points="841.166,1193.797 798.508,1169.13 840.611,1144.823 883.529,1169.499 			"/>
		</g>
	</g>
</g>
<g>
	<g>
		<polygon fill="#7300AF" points="1491.668,1144.749 1449.01,1120.079 1449.01,1217.89 1491.668,1242.463 		"/>
	</g>
	<g>
		<polygon fill="#7300AF" points="1407.158,1193.797 1364.5,1169.13 1364.5,1266.938 1407.158,1291.513 		"/>
	</g>
	<g>
		<polygon fill="#7300AF" points="1436.651,1162.131 1449.529,1169.546 1470.172,1218.098 1491.668,1144.749 1449.01,1120.089 		"/>
	</g>
	<g>
		<polygon fill="#7300AF" points="1470.602,1254.718 1449.537,1242.567 1449.537,1218.171 		"/>
	</g>
</g>
<g>
	<polygon fill="#450063" points="1491.668,1144.728 1470.172,1218.076 1449.529,1169.478 1449.521,1169.479 1407.16,1193.775 
		1407.16,1291.491 1449.521,1267.165 1449.521,1218.126 1470.539,1254.696 1491.668,1193.888 1491.668,1242.441 1534.031,1218.116 
		1534.031,1120.431 	"/>
</g>
<g>
	<g>
		<polygon fill="#7300AF" points="1555.129,1181.752 1512.471,1157.081 1512.471,1254.893 1555.129,1279.466 		"/>
	</g>
	<g>
		<polygon fill="#7300AF" points="1470.602,1230.8 1427.96,1206.132 1427.96,1303.941 1470.602,1328.515 		"/>
	</g>
	<g>
		<polygon fill="#7300AF" points="1500.111,1199.134 1512.988,1206.547 1533.631,1255.101 1555.129,1181.752 1512.471,1157.092 		
			"/>
	</g>
	<g>
		<polygon fill="#7300AF" points="1534.016,1291.72 1512.998,1279.569 1512.998,1255.173 		"/>
	</g>
</g>
<g>
	<polygon fill="#450063" points="1555.082,1181.768 1533.586,1255.116 1512.943,1206.519 1512.936,1206.519 1470.586,1230.815 
		1470.586,1328.53 1512.936,1304.205 1512.936,1255.166 1533.969,1291.735 1555.082,1230.928 1555.082,1279.481 1597.445,1255.155 
		1597.445,1157.469 	"/>
</g>
<g>
	<g>
		<g>
			<polygon fill="#9900FC" points="1555.135,1181.752 1512.479,1157.081 1554.582,1132.777 1597.5,1157.453 			"/>
		</g>
		<g>
			<polygon fill="#9900FC" points="1470.602,1230.8 1427.969,1206.132 1470.07,1181.826 1512.988,1206.504 			"/>
		</g>
	</g>
	<g>
		<g>
			<polygon fill="#9900FC" points="1491.676,1144.749 1449.018,1120.079 1491.121,1095.774 1534.039,1120.452 			"/>
		</g>
		<g>
			<polygon fill="#9900FC" points="1407.166,1193.797 1364.508,1169.13 1406.611,1144.823 1449.529,1169.499 			"/>
		</g>
	</g>
</g>
<g>
	<path fill="#9DBDC6" d="M870.512,1950.395c0-1.492,0.644-2.582,1.927-3.28c1.278-0.692,2.71-1.042,4.289-1.042
		c1.578,0,3.009,0.35,4.292,1.042c1.279,0.698,1.925,1.788,1.925,3.28v100.152c0,1.491-0.646,2.608-1.925,3.353
		c-1.283,0.746-2.714,1.118-4.292,1.118c-1.579,0-3.011-0.372-4.289-1.118c-1.283-0.744-1.927-1.861-1.927-3.353V1950.395z"/>
	<path fill="#9DBDC6" d="M1003.846,1950.395c0-1.492,0.642-2.582,1.925-3.28c1.284-0.692,2.715-1.042,4.292-1.042
		c1.575,0,3.007,0.35,4.289,1.042c1.283,0.698,1.927,1.788,1.927,3.28v100.152c0,1.491-0.644,2.608-1.927,3.353
		c-1.282,0.746-2.714,1.118-4.289,1.118c-1.577,0-3.008-0.372-4.292-1.118c-1.283-0.744-1.925-1.861-1.925-3.353V1950.395z"/>
	<path fill="#9DBDC6" d="M1123.273,1950.395c0-1.492,0.641-2.582,1.924-3.28c1.279-0.692,2.711-1.042,4.289-1.042
		c1.58,0,3.011,0.35,4.295,1.042c1.277,0.698,1.924,1.788,1.924,3.28v100.152c0,1.491-0.646,2.608-1.924,3.353
		c-1.284,0.746-2.715,1.118-4.295,1.118c-1.578,0-3.01-0.372-4.289-1.118c-1.283-0.744-1.924-1.861-1.924-3.353V1950.395z"/>
</g>
<g>
	<path fill="#FF3D2E" d="M613.459,2055.018c-1.578,0-3.008-0.372-4.289-1.118c-1.282-0.744-1.924-1.861-1.924-3.353v-98.363
		c0-2.285,0.615-3.875,1.852-4.771c1.232-0.894,2.687-1.34,4.361-1.34c2.271,0,4.146,0.67,5.624,2.012
		c1.482,1.342,2.912,3.304,4.293,5.887l23.232,44.86l23.382-44.86c1.381-2.583,2.813-4.545,4.293-5.887
		c1.481-1.342,3.352-2.012,5.623-2.012c1.676,0,3.13,0.446,4.368,1.34c1.232,0.896,1.85,2.486,1.85,4.771v98.363
		c0,1.491-0.646,2.608-1.924,3.353c-1.283,0.746-2.715,1.118-4.294,1.118C678.328,2055.018,615.038,2055.018,613.459,2055.018z"/>
	<path fill="#FF3D2E" d="M737.915,2055.912c-4.438,0-8.609-0.572-12.505-1.715c-3.896-1.139-7.275-3.003-10.134-5.588
		c-2.866-2.582-5.105-5.936-6.735-10.061c-1.629-4.121-2.441-9.164-2.441-15.127v-44.86c0-5.959,0.813-11.003,2.441-15.126
		c1.63-4.123,3.869-7.476,6.735-10.063c2.858-2.58,6.237-4.443,10.134-5.588c3.896-1.141,8.067-1.713,12.505-1.713
		c4.44,0,8.608,0.572,12.506,1.713c3.896,1.145,7.303,3.008,10.211,5.588c2.908,2.587,5.179,5.939,6.81,10.063
		c1.629,4.123,2.441,9.167,2.441,15.126v44.86c0,5.963-0.813,11.006-2.441,15.127c-1.631,4.125-3.901,7.479-6.81,10.061
		c-2.908,2.585-6.314,4.449-10.211,5.588C746.523,2055.34,742.355,2055.912,737.915,2055.912z"/>
	<path fill="#FF3D2E" d="M789.858,1950.543c0-1.489,0.595-2.608,1.776-3.354c1.187-0.745,2.466-1.117,3.85-1.117h25.45
		c4.048,0,7.894,0.35,11.545,1.042c3.648,0.698,6.833,1.989,9.546,3.876c2.711,1.888,4.885,4.497,6.511,7.824
		c1.628,3.33,2.441,7.578,2.441,12.742c0,6.26-1.136,11.476-3.403,15.649c-2.271,4.172-5.326,7.104-9.176,8.794
		c2.271,0.893,4.339,2.011,6.217,3.353c1.87,1.341,3.477,3.007,4.812,4.992c1.329,1.99,2.367,4.375,3.106,7.154
		c0.738,2.781,1.108,6.062,1.108,9.837v2.684c0,5.662-0.767,10.481-2.295,14.457c-1.527,3.973-3.602,7.178-6.215,9.611
		c-2.616,2.436-5.696,4.197-9.249,5.291c-3.552,1.096-7.4,1.639-11.542,1.639h-28.856c-1.68,0-3.036-0.447-4.072-1.342
		c-1.033-0.895-1.554-1.886-1.554-2.98V1950.543z"/>
	<path fill="#FF3D2E" d="M910.172,2055.018c-1.578,0-3.01-0.372-4.289-1.118c-1.282-0.744-1.926-1.861-1.926-3.353v-98.363
		c0-2.285,0.615-3.875,1.852-4.771c1.233-0.894,2.688-1.34,4.363-1.34c2.271,0,4.145,0.67,5.622,2.012
		c1.482,1.342,2.914,3.304,4.294,5.887l23.233,44.86l23.381-44.86c1.38-2.583,2.812-4.545,4.294-5.887
		c1.481-1.342,3.352-2.012,5.622-2.012c1.676,0,3.13,0.446,4.367,1.34c1.232,0.896,1.852,2.486,1.852,4.771v98.363
		c0,1.491-0.646,2.608-1.926,3.353c-1.283,0.746-2.715,1.118-4.293,1.118S911.75,2055.018,910.172,2055.018z"/>
	<path fill="#FF3D2E" d="M1096.041,2055.018c-1.675,0-50.957,0-52.533,0c-1.578,0-3.008-0.372-4.291-1.118
		c-1.284-0.744-1.927-1.861-1.927-3.353v-100.152c0-1.59,0.62-2.707,1.851-3.354c1.234-0.646,2.688-0.968,4.367-0.968
		c2.269,0,4.067,0.67,5.401,2.012c1.329,1.342,2.687,3.304,4.067,5.887l36.852,72.581v-76.157c0-1.492,0.642-2.582,1.926-3.28
		c1.277-0.692,2.709-1.042,4.287-1.042c1.58,0,3.011,0.35,4.295,1.042c1.276,0.698,1.924,1.788,1.924,3.28v100.152
		c0,1.491-0.647,2.608-1.924,3.353C1099.052,2054.646,1097.621,2055.018,1096.041,2055.018z"/>
	<path fill="#FF3D2E" d="M1212.807,1946.072c1.476,0,2.59,0.597,3.327,1.788c0.739,1.193,1.112,2.484,1.112,3.875
		c0,1.489-0.373,2.857-1.112,4.099c-0.737,1.241-1.852,1.862-3.327,1.862h-23.829v92.851c0,1.491-0.643,2.608-1.921,3.353
		c-1.283,0.746-2.715,1.118-4.293,1.118s-3.01-0.372-4.293-1.118c-1.283-0.744-30.335-100.573-30.335-102.164
		c0-1.391,0.37-2.682,1.108-3.875c0.738-1.191,1.852-1.788,3.328-1.788H1212.807z"/>
</g>
<g>
	<path fill="#FF8000" d="M872.025,2755.51c0-1.488,0.643-2.578,1.926-3.275c1.278-0.693,2.71-1.043,4.289-1.043
		c1.578,0,3.008,0.35,4.292,1.043c1.281,0.697,1.925,1.787,1.925,3.275v100.156c0,1.489-0.644,2.609-1.925,3.352
		c-1.284,0.746-2.714,1.121-4.292,1.121c-1.579,0-3.011-0.375-4.289-1.121c-1.283-0.742-1.926-1.862-1.926-3.352V2755.51z"/>
	<g>
		<path fill="#003884" d="M652.858,2832.604c-0.693,1.292-1.458,2.187-2.294,2.682c-0.84,0.501-1.699,0.747-2.589,0.747
			c-0.79,0-1.578-0.246-2.369-0.747c-0.789-0.495-1.527-1.39-2.22-2.682l-22.195-42.923v78.841c0,1.49-0.646,2.608-1.924,3.353
			c-1.284,0.746-2.715,1.12-4.294,1.12c-1.578,0-3.008-0.374-4.289-1.12c-1.282-0.744-1.924-1.862-1.924-3.353v-98.364
			c0-2.283,0.615-3.875,1.851-4.77c1.232-0.895,2.687-1.341,4.362-1.341c2.271,0,4.146,0.671,5.624,2.012
			c1.482,1.343,2.913,3.304,4.292,5.888l23.234,44.859l23.382-44.859c1.38-2.584,2.812-4.545,4.292-5.888
			c1.481-1.341,3.352-2.012,5.623-2.012c1.676,0,3.131,0.446,4.368,1.341c1.232,0.895,1.85,2.486,1.85,4.77v98.364
			c0,1.49-0.646,2.608-1.924,3.353c-1.284,0.746-2.715,1.12-4.294,1.12s-3.008-0.374-4.289-1.12
			c-1.282-0.744-1.924-1.862-1.924-3.353v-78.242L652.858,2832.604z"/>
		<path fill="#003884" d="M739.427,2873.889c-4.437,0-8.609-0.573-12.505-1.715c-3.896-1.141-7.274-3.004-10.135-5.59
			c-2.865-2.58-5.104-5.934-6.733-10.059c-1.629-4.122-2.442-9.166-2.442-15.128v-44.86c0-5.961,0.813-11.003,2.442-15.125
			c1.629-4.123,3.868-7.476,6.733-10.063c2.86-2.582,6.239-4.443,10.135-5.587c3.896-1.142,8.068-1.715,12.505-1.715
			c4.441,0,8.609,0.573,12.505,1.715c3.896,1.144,7.304,3.005,10.211,5.587c2.909,2.587,5.18,5.939,6.81,10.063
			c1.629,4.122,2.442,9.164,2.442,15.125v44.86c0,5.962-0.813,11.006-2.442,15.128c-1.63,4.125-3.901,7.479-6.81,10.059
			c-2.907,2.586-6.315,4.449-10.211,5.59C748.036,2873.315,743.868,2873.889,739.427,2873.889z M758.964,2796.537
			c0-7.251-1.728-12.592-5.18-16.021c-3.454-3.428-8.24-5.143-14.357-5.143c-6.116,0-10.876,1.715-14.278,5.143
			c-3.406,3.429-5.105,8.77-5.105,16.021v44.86c0,7.254,1.699,12.595,5.105,16.021c3.402,3.43,8.163,5.143,14.278,5.143
			c6.117,0,10.904-1.713,14.357-5.143c3.452-3.426,5.18-8.767,5.18-16.021V2796.537z"/>
		<path fill="#003884" d="M791.371,2768.52c0-1.492,0.595-2.609,1.776-3.354c1.187-0.746,2.466-1.118,3.85-1.118h25.45
			c4.048,0,7.894,0.35,11.544,1.044c3.649,0.696,6.833,1.987,9.546,3.873c2.711,1.889,4.885,4.5,6.51,7.825
			c1.628,3.33,2.442,7.578,2.442,12.743c0,6.261-1.135,11.475-3.404,15.648c-2.271,4.171-5.326,7.104-9.175,8.795
			c2.271,0.893,4.339,2.01,6.217,3.352c1.871,1.343,3.477,3.008,4.811,4.992c1.33,1.989,2.368,4.375,3.105,7.156
			c0.74,2.781,1.11,6.061,1.11,9.836v2.682c0,5.663-0.767,10.482-2.295,14.457c-1.527,3.975-3.601,7.18-6.214,9.613
			c-2.618,2.436-5.696,4.197-9.249,5.29c-3.552,1.095-7.4,1.641-11.542,1.641h-28.856c-1.68,0-3.036-0.448-4.072-1.343
			c-1.033-0.895-1.554-1.886-1.554-2.98V2768.52z M803.802,2808.76h18.497c6.021,0,10.483-1.342,13.397-4.025
			c2.909-2.683,4.362-7.153,4.362-13.413c0-2.98-0.443-5.488-1.33-7.526c-0.887-2.037-2.124-3.675-3.702-4.919
			c-1.578-1.239-3.5-2.134-5.77-2.682c-2.271-0.545-4.736-0.82-7.399-0.82h-18.055V2808.76z M823.781,2861.666
			c5.919,0,10.558-1.613,13.91-4.844c3.356-3.227,5.03-8.42,5.03-15.572v-2.534c0-7.155-1.674-12.195-5.03-15.128
			c-3.352-2.93-7.99-4.396-13.91-4.396h-19.979v42.475H823.781z"/>
		<path fill="#003884" d="M949.57,2832.604c-0.692,1.292-1.459,2.187-2.293,2.682c-0.842,0.501-1.7,0.747-2.59,0.747
			c-0.791,0-1.58-0.246-2.369-0.747c-0.79-0.495-1.529-1.39-2.222-2.682l-22.194-42.923v78.841c0,1.49-0.646,2.608-1.925,3.353
			c-1.284,0.746-2.715,1.12-4.293,1.12s-3.01-0.374-4.289-1.12c-1.282-0.744-1.926-1.862-1.926-3.353v-98.364
			c0-2.283,0.615-3.875,1.852-4.77c1.233-0.895,2.688-1.341,4.363-1.341c2.271,0,4.145,0.671,5.622,2.012
			c1.482,1.343,2.914,3.304,4.294,5.888l23.233,44.859l23.381-44.859c1.38-2.584,2.812-4.545,4.294-5.888
			c1.481-1.341,3.352-2.012,5.622-2.012c1.676,0,3.13,0.446,4.367,1.341c1.232,0.895,1.852,2.486,1.852,4.77v98.364
			c0,1.49-0.646,2.608-1.926,3.353c-1.283,0.746-2.715,1.12-4.293,1.12s-3.01-0.374-4.287-1.12
			c-1.284-0.744-1.927-1.862-1.927-3.353v-78.242L949.57,2832.604z"/>
		<path fill="#003884" d="M1097.554,2872.995c-1.675,0-3.179-0.522-4.51-1.566c-1.333-1.042-2.441-2.407-3.332-4.099l-38.478-74.965
			v76.157c0,1.49-0.642,2.608-1.925,3.353c-1.283,0.746-2.714,1.12-4.289,1.12c-1.578,0-3.009-0.374-4.292-1.12
			c-1.283-0.744-1.926-1.862-1.926-3.353v-100.155c0-1.586,0.62-2.704,1.853-3.352c1.231-0.644,2.687-0.968,4.365-0.968
			c2.269,0,4.067,0.671,5.401,2.012c1.33,1.343,2.688,3.304,4.067,5.888l36.852,72.58v-76.16c0-1.487,0.642-2.579,1.925-3.275
			c1.28-0.694,2.71-1.044,4.288-1.044c1.579,0,3.011,0.35,4.294,1.044c1.278,0.696,1.924,1.788,1.924,3.275v100.155
			c0,1.49-0.646,2.608-1.924,3.353C1100.564,2872.621,1099.133,2872.995,1097.554,2872.995z"/>
		<path fill="#003884" d="M1214.319,2764.048c1.478,0,2.59,0.597,3.327,1.788c0.74,1.191,1.112,2.484,1.112,3.875
			c0,1.49-0.372,2.857-1.112,4.1c-0.737,1.243-1.85,1.862-3.327,1.862h-23.829v92.85c0,1.49-0.643,2.608-1.921,3.353
			c-1.283,0.746-2.715,1.12-4.293,1.12s-3.01-0.374-4.293-1.12c-1.283-0.744-1.921-1.862-1.921-3.353v-92.85h-23.978
			c-1.38,0-2.465-0.597-3.255-1.789c-0.789-1.192-1.182-2.582-1.182-4.173c0-1.391,0.37-2.684,1.108-3.875s1.852-1.788,3.328-1.788
			H1214.319z"/>
	</g>
	<line fill="none" stroke="#BF6000" stroke-miterlimit="10" x1="872.053" y1="2805.664" x2="884.245" y2="2805.664"/>
	<line fill="none" stroke="#BF6000" stroke-miterlimit="10" x1="872.053" y1="2813.092" x2="884.245" y2="2813.092"/>
	<line fill="none" stroke="#BF6000" stroke-miterlimit="10" x1="872.053" y1="2798.236" x2="884.245" y2="2798.236"/>
	<line fill="none" stroke="#BF6000" stroke-miterlimit="10" x1="872.053" y1="2790.811" x2="884.245" y2="2790.811"/>
	<line fill="none" stroke="#BF6000" stroke-miterlimit="10" x1="872.053" y1="2820.518" x2="884.245" y2="2820.518"/>
	<line fill="none" stroke="#BF6000" stroke-miterlimit="10" x1="872.053" y1="2827.945" x2="884.245" y2="2827.945"/>
	<line fill="none" stroke="#BF6000" stroke-miterlimit="10" x1="872.053" y1="2783.383" x2="884.245" y2="2783.383"/>
	<line fill="none" stroke="#BF6000" stroke-miterlimit="10" x1="872.053" y1="2777.813" x2="884.245" y2="2777.813"/>
	<line fill="none" stroke="#BF6000" stroke-miterlimit="10" x1="872.053" y1="2833.516" x2="884.245" y2="2833.516"/>
	<line fill="none" stroke="#BF6000" stroke-miterlimit="10" x1="872.053" y1="2772.244" x2="884.245" y2="2772.244"/>
	<line fill="none" stroke="#BF6000" stroke-miterlimit="10" x1="872.053" y1="2839.086" x2="884.245" y2="2839.086"/>
	<line fill="none" stroke="#BF6000" stroke-miterlimit="10" x1="872.053" y1="2766.672" x2="884.245" y2="2766.672"/>
	<line fill="none" stroke="#BF6000" stroke-miterlimit="10" x1="872.053" y1="2844.656" x2="884.245" y2="2844.656"/>
	<line fill="none" stroke="#BF6000" stroke-miterlimit="10" x1="872.053" y1="2762.961" x2="884.245" y2="2762.961"/>
	<line fill="none" stroke="#BF6000" stroke-miterlimit="10" x1="872.053" y1="2759.246" x2="884.245" y2="2759.246"/>
	<line fill="none" stroke="#BF6000" stroke-miterlimit="10" x1="872.053" y1="2755.533" x2="884.245" y2="2755.533"/>
	<line fill="none" stroke="#BF6000" stroke-miterlimit="10" x1="872.053" y1="2848.371" x2="884.245" y2="2848.371"/>
	<line fill="none" stroke="#BF6000" stroke-miterlimit="10" x1="872.053" y1="2852.083" x2="884.245" y2="2852.083"/>
	<line fill="none" stroke="#BF6000" stroke-miterlimit="10" x1="872.053" y1="2855.797" x2="884.245" y2="2855.797"/>
	<path fill="#FF8000" d="M1005.602,2742.12c0-1.489,0.644-2.579,1.927-3.274c1.278-0.695,2.71-1.045,4.289-1.045
		c1.578,0,3.009,0.35,4.292,1.045c1.281,0.695,1.925,1.785,1.925,3.274v100.155c0,1.49-0.644,2.609-1.925,3.353
		c-1.283,0.746-2.714,1.12-4.292,1.12c-1.579,0-3.011-0.374-4.289-1.12c-1.283-0.743-1.927-1.862-1.927-3.353V2742.12z"/>
	<line fill="none" stroke="#BF6000" stroke-miterlimit="10" x1="1005.63" y1="2792.273" x2="1017.822" y2="2792.273"/>
	<line fill="none" stroke="#BF6000" stroke-miterlimit="10" x1="1005.63" y1="2799.701" x2="1017.822" y2="2799.701"/>
	<line fill="none" stroke="#BF6000" stroke-miterlimit="10" x1="1005.63" y1="2784.847" x2="1017.822" y2="2784.847"/>
	<line fill="none" stroke="#BF6000" stroke-miterlimit="10" x1="1005.63" y1="2777.42" x2="1017.822" y2="2777.42"/>
	<line fill="none" stroke="#BF6000" stroke-miterlimit="10" x1="1005.63" y1="2807.128" x2="1017.822" y2="2807.128"/>
	<line fill="none" stroke="#BF6000" stroke-miterlimit="10" x1="1005.63" y1="2814.555" x2="1017.822" y2="2814.555"/>
	<line fill="none" stroke="#BF6000" stroke-miterlimit="10" x1="1005.63" y1="2769.993" x2="1017.822" y2="2769.993"/>
	<line fill="none" stroke="#BF6000" stroke-miterlimit="10" x1="1005.63" y1="2764.423" x2="1017.822" y2="2764.423"/>
	<line fill="none" stroke="#BF6000" stroke-miterlimit="10" x1="1005.63" y1="2820.125" x2="1017.822" y2="2820.125"/>
	<line fill="none" stroke="#BF6000" stroke-miterlimit="10" x1="1005.63" y1="2758.854" x2="1017.822" y2="2758.854"/>
	<line fill="none" stroke="#BF6000" stroke-miterlimit="10" x1="1005.63" y1="2825.696" x2="1017.822" y2="2825.696"/>
	<line fill="none" stroke="#BF6000" stroke-miterlimit="10" x1="1005.63" y1="2753.281" x2="1017.822" y2="2753.281"/>
	<line fill="none" stroke="#BF6000" stroke-miterlimit="10" x1="1005.63" y1="2831.266" x2="1017.822" y2="2831.266"/>
	<line fill="none" stroke="#BF6000" stroke-miterlimit="10" x1="1005.63" y1="2749.569" x2="1017.822" y2="2749.569"/>
	<line fill="none" stroke="#BF6000" stroke-miterlimit="10" x1="1005.63" y1="2745.857" x2="1017.822" y2="2745.857"/>
	<line fill="none" stroke="#BF6000" stroke-miterlimit="10" x1="1005.63" y1="2742.142" x2="1017.822" y2="2742.142"/>
	<line fill="none" stroke="#BF6000" stroke-miterlimit="10" x1="1005.63" y1="2834.98" x2="1017.822" y2="2834.98"/>
	<line fill="none" stroke="#BF6000" stroke-miterlimit="10" x1="1005.63" y1="2838.693" x2="1017.822" y2="2838.693"/>
	<line fill="none" stroke="#BF6000" stroke-miterlimit="10" x1="1005.63" y1="2842.408" x2="1017.822" y2="2842.408"/>
	<path fill="#FF8000" d="M1124.482,2729.057c0-1.489,0.643-2.58,1.927-3.275c1.278-0.695,2.71-1.045,4.289-1.045
		c1.578,0,3.008,0.35,4.292,1.045c1.28,0.695,1.925,1.786,1.925,3.275v100.154c0,1.49-0.645,2.61-1.925,3.354
		c-1.284,0.746-2.714,1.119-4.292,1.119c-1.579,0-3.011-0.373-4.289-1.119c-1.284-0.743-1.927-1.863-1.927-3.354V2729.057z"/>
	<line fill="none" stroke="#BF6000" stroke-miterlimit="10" x1="1124.511" y1="2779.211" x2="1136.703" y2="2779.211"/>
	<line fill="none" stroke="#BF6000" stroke-miterlimit="10" x1="1124.511" y1="2786.638" x2="1136.703" y2="2786.638"/>
	<line fill="none" stroke="#BF6000" stroke-miterlimit="10" x1="1124.511" y1="2771.783" x2="1136.703" y2="2771.783"/>
	<line fill="none" stroke="#BF6000" stroke-miterlimit="10" x1="1124.511" y1="2764.356" x2="1136.703" y2="2764.356"/>
	<line fill="none" stroke="#BF6000" stroke-miterlimit="10" x1="1124.511" y1="2794.064" x2="1136.703" y2="2794.064"/>
	<line fill="none" stroke="#BF6000" stroke-miterlimit="10" x1="1124.511" y1="2801.492" x2="1136.703" y2="2801.492"/>
	<line fill="none" stroke="#BF6000" stroke-miterlimit="10" x1="1124.511" y1="2756.93" x2="1136.703" y2="2756.93"/>
	<line fill="none" stroke="#BF6000" stroke-miterlimit="10" x1="1124.511" y1="2751.359" x2="1136.703" y2="2751.359"/>
	<line fill="none" stroke="#BF6000" stroke-miterlimit="10" x1="1124.511" y1="2807.062" x2="1136.703" y2="2807.062"/>
	<line fill="none" stroke="#BF6000" stroke-miterlimit="10" x1="1124.511" y1="2745.789" x2="1136.703" y2="2745.789"/>
	<line fill="none" stroke="#BF6000" stroke-miterlimit="10" x1="1124.511" y1="2812.633" x2="1136.703" y2="2812.633"/>
	<line fill="none" stroke="#BF6000" stroke-miterlimit="10" x1="1124.511" y1="2740.218" x2="1136.703" y2="2740.218"/>
	<line fill="none" stroke="#BF6000" stroke-miterlimit="10" x1="1124.511" y1="2818.201" x2="1136.703" y2="2818.201"/>
	<line fill="none" stroke="#BF6000" stroke-miterlimit="10" x1="1124.511" y1="2736.506" x2="1136.703" y2="2736.506"/>
	<line fill="none" stroke="#BF6000" stroke-miterlimit="10" x1="1124.511" y1="2732.793" x2="1136.703" y2="2732.793"/>
	<line fill="none" stroke="#BF6000" stroke-miterlimit="10" x1="1124.511" y1="2729.078" x2="1136.703" y2="2729.078"/>
	<line fill="none" stroke="#BF6000" stroke-miterlimit="10" x1="1124.511" y1="2821.916" x2="1136.703" y2="2821.916"/>
	<line fill="none" stroke="#BF6000" stroke-miterlimit="10" x1="1124.511" y1="2825.629" x2="1136.703" y2="2825.629"/>
	<line fill="none" stroke="#BF6000" stroke-miterlimit="10" x1="1124.511" y1="2829.344" x2="1136.703" y2="2829.344"/>
</g>
</svg>
