<?xml version="1.0" encoding="utf-8"?>
<!-- Generator: Adobe Illustrator 16.0.2, SVG Export Plug-In . SVG Version: 6.00 Build 0)  -->
<!DOCTYPE svg PUBLIC "-//W3C//DTD SVG 1.1//EN" "http://www.w3.org/Graphics/SVG/1.1/DTD/svg11.dtd">
<svg xmlns="http://www.w3.org/2000/svg" xmlns:xlink="http://www.w3.org/1999/xlink" version="1.1" id="Layer_1" x="0px" y="0px" width="1830px" height="1600px" viewBox="0 0 1830 1600" enable-background="new 0 0 1830 3201" xml:space="preserve" xmlns:xml="http://www.w3.org/XML/1998/namespace">
<rect fill="#DCFFFF" width="1830" height="800"/>
<g>
	<path fill="#5CE9FF" d="M808.209,389.341l-0.309,0.062l0.309,3.273v25.076H795.98v-43.235h18.282l6.979,24.458l0.371,2.965h0.309   l0.432-2.965l6.917-24.458h18.282v43.235h-12.229v-25.076l0.309-3.273l-0.309-0.062l-8.647,28.411h-9.82L808.209,389.341z"/>
	<path fill="#5CE9FF" d="M866.756,379.397c5.127-5.374,11.241-6.053,16.367-6.053c5.559,0,12.354,0.926,17.355,6.115   c4.88,5.003,5.744,11.55,5.744,16.306c0,8.338-2.531,13.649-5.62,16.984c-5.003,5.374-11.364,6.177-16.985,6.177   c-5.682,0-12.353-0.865-17.417-6.3c-1.977-2.1-5.559-7.165-5.559-16.367C860.642,388.291,863.545,382.794,866.756,379.397z    M877.688,405.276c1.605,1.668,3.582,2.286,5.744,2.286c2.1,0,4.2-0.494,5.806-2.286c1.977-2.162,2.655-5.991,2.655-9.141   c0-3.15-0.433-6.793-2.655-9.141c-1.605-1.667-3.459-2.285-5.559-2.285c-2.162,0-4.2,0.556-5.868,2.285   c-2.47,2.594-2.841,6.794-2.841,9.141C874.971,398.482,875.279,402.682,877.688,405.276z"/>
	<path fill="#5CE9FF" d="M943.771,374.518c2.841,0,7.164,0.062,10.252,2.594c1.729,1.42,3.459,4.015,3.459,8.215   c0,2.532-0.68,4.632-2.656,6.67c-1.42,1.482-2.902,2.224-4.385,2.594v0.247c3.582,0.68,5.744,2.656,6.115,3.026   c1.605,1.544,3.088,4.077,3.088,8.091c0,4.818-2.224,7.474-4.076,8.833c-3.397,2.594-8.771,2.965-11.982,2.965h-24.273v-43.235   H943.771z M932.777,391.194h6.917c1.112,0,2.471-0.062,3.336-0.865c0.432-0.371,0.987-1.111,0.987-2.594   c0-1.421-0.556-2.224-1.111-2.656c-0.988-0.741-2.718-0.803-3.396-0.803h-6.732V391.194z M932.777,407.994h8.152   c1.174,0,2.532-0.062,3.521-0.926c0.617-0.556,1.173-1.482,1.173-3.026c0-1.792-0.741-2.656-1.235-3.026   c-0.927-0.741-2.408-0.865-3.521-0.865h-8.091V407.994z"/>
	<path fill="#5CE9FF" d="M986.199,374.518v43.235h-13.465v-43.235H986.199z"/>
	<path fill="#005381" d="M1014.298,389.341l-0.309,0.062l0.309,3.273v25.076h-12.229v-43.235h18.281l6.979,24.458l0.371,2.965h0.309   l0.432-2.965l6.918-24.458h18.282v43.235h-12.229v-25.076l0.309-3.273l-0.309-0.062l-8.646,28.411h-9.82L1014.298,389.341z"/>
	<path fill="#005381" d="M1082.975,374.518v43.235h-13.465v-43.235H1082.975z"/>
	<path fill="#005381" d="M1112,393.788l0.309,3.273v20.691h-13.464v-43.235h13.464l13.218,23.964h0.31l-0.31-3.273v-20.691h13.464   v43.235h-13.464l-13.218-23.964H1112z"/>
	<path fill="#005381" d="M1168.324,374.518v43.235h-13.465v-43.235H1168.324z"/>
	<path fill="#005381" d="M1179.563,386.376v-11.859h37.922v11.859h-12.229v31.376h-13.465v-31.376H1179.563z"/>
</g>
<g>
	<g>
		<polygon fill="#00A1E0" points="682.792,359.918 657.53,345.309 657.53,403.231 682.792,417.782   "/>
	</g>
	<g>
		<polygon fill="#00A1E0" points="632.746,388.963 607.485,374.355 607.485,432.277 632.746,446.828   "/>
	</g>
	<g>
		<polygon fill="#00A1E0" points="650.212,370.211 657.837,374.601 670.062,403.354 682.792,359.918 657.53,345.315   "/>
	</g>
	<g>
		<polygon fill="#00A1E0" points="670.289,425.04 657.842,417.845 657.842,403.397   "/>
	</g>
</g>
<g>
	<polygon fill="#005381" points="682.829,359.918 670.099,403.354 657.875,374.575 657.87,374.576 632.784,388.963 632.784,446.828    657.87,432.424 657.87,403.384 670.326,425.04 682.829,389.029 682.829,417.782 707.916,403.379 707.916,345.53  "/>
</g>
<g>
	<g>
		<polygon fill="#00A1E0" points="720.372,381.83 695.11,367.222 695.11,425.144 720.372,439.695   "/>
	</g>
	<g>
		<polygon fill="#00A1E0" points="670.326,410.875 645.065,396.268 645.065,454.189 670.326,468.74   "/>
	</g>
	<g>
		<polygon fill="#00A1E0" points="687.792,392.124 695.417,396.514 707.642,425.267 720.372,381.83 695.11,367.227   "/>
	</g>
	<g>
		<polygon fill="#00A1E0" points="707.869,446.952 695.422,439.756 695.422,425.309   "/>
	</g>
</g>
<g>
	<polygon fill="#005381" points="720.409,381.83 707.679,425.267 695.455,396.488 695.45,396.488 670.364,410.875 670.364,468.74    695.45,454.336 695.45,425.296 707.906,446.952 720.409,410.941 720.409,439.695 745.496,425.291 745.496,367.442  "/>
</g>
<g>
	<g>
		<g>
			<polygon fill="#5CE9FF" points="720.376,381.83 695.115,367.222 720.048,352.829 745.463,367.442    "/>
		</g>
		<g>
			<polygon fill="#5CE9FF" points="670.331,410.875 645.07,396.268 670.002,381.875 695.417,396.488    "/>
		</g>
	</g>
	<g>
		<g>
			<polygon fill="#5CE9FF" points="682.796,359.918 657.535,345.309 682.468,330.917 707.883,345.53    "/>
		</g>
		<g>
			<polygon fill="#5CE9FF" points="632.751,388.963 607.49,374.355 632.422,359.963 657.837,374.575    "/>
		</g>
	</g>
</g>
<g>
	<g>
		<polygon fill="#FF9600" points="360.669,1132.597 318.01,1107.927 318.01,1205.737 360.669,1230.311   "/>
	</g>
	<g>
		<polygon fill="#FF9600" points="276.158,1181.645 233.5,1156.978 233.5,1254.786 276.158,1279.36   "/>
	</g>
	<g>
		<polygon fill="#FF9600" points="305.651,1149.979 318.529,1157.394 339.171,1205.945 360.669,1132.597 318.01,1107.937   "/>
	</g>
	<g>
		<polygon fill="#FF9600" points="339.555,1242.565 318.537,1230.415 318.537,1206.019   "/>
	</g>
</g>
<g>
	<polygon fill="#FF5000" points="360.731,1132.597 339.234,1205.945 318.592,1157.347 318.584,1157.349 276.222,1181.645    276.222,1279.36 318.584,1255.034 318.584,1205.995 339.618,1242.565 360.731,1181.757 360.731,1230.311 403.095,1205.985    403.095,1108.3  "/>
</g>
<g>
	<g>
		<polygon fill="#FF9600" points="424.128,1169.6 381.471,1144.929 381.471,1242.74 424.128,1267.313   "/>
	</g>
	<g>
		<polygon fill="#FF9600" points="339.618,1218.647 296.96,1193.979 296.96,1291.789 339.618,1316.362   "/>
	</g>
	<g>
		<polygon fill="#FF9600" points="369.111,1186.981 381.989,1194.395 402.632,1242.948 424.128,1169.6 381.471,1144.939   "/>
	</g>
	<g>
		<polygon fill="#FF9600" points="403.016,1279.567 381.998,1267.417 381.998,1243.021   "/>
	</g>
</g>
<g>
	<polygon fill="#FF5000" points="424.099,1169.615 402.601,1242.964 381.959,1194.366 381.951,1194.366 339.589,1218.663    339.589,1316.378 381.951,1292.053 381.951,1243.014 402.985,1279.583 424.099,1218.775 424.099,1267.329 466.461,1243.003    466.461,1145.316  "/>
</g>
<g>
	<g>
		<g>
			<polygon fill="#FFC800" points="424.136,1169.6 381.478,1144.929 423.582,1120.625 466.5,1145.301    "/>
		</g>
		<g>
			<polygon fill="#FFC800" points="339.626,1218.647 296.968,1193.979 339.071,1169.674 381.989,1194.352    "/>
		</g>
	</g>
	<g>
		<g>
			<polygon fill="#FFC800" points="360.676,1132.597 318.018,1107.927 360.122,1083.622 403.039,1108.3    "/>
		</g>
		<g>
			<polygon fill="#FFC800" points="276.166,1181.645 233.508,1156.978 275.611,1132.671 318.529,1157.347    "/>
		</g>
	</g>
</g>
<g>
	<g>
		<polygon fill="#2BCC2B" points="925.668,1144.749 883.01,1120.079 883.01,1217.89 925.668,1242.463   "/>
	</g>
	<g>
		<polygon fill="#2BCC2B" points="841.158,1193.797 798.5,1169.13 798.5,1266.938 841.158,1291.513   "/>
	</g>
	<g>
		<polygon fill="#2BCC2B" points="870.651,1162.131 883.529,1169.546 904.171,1218.098 925.668,1144.749 883.01,1120.089   "/>
	</g>
	<g>
		<polygon fill="#2BCC2B" points="904.555,1254.718 883.537,1242.567 883.537,1218.171   "/>
	</g>
</g>
<g>
	<polygon fill="#00A229" points="925.73,1144.749 904.234,1218.098 883.592,1169.499 883.584,1169.501 841.222,1193.797    841.222,1291.513 883.584,1267.187 883.584,1218.147 904.618,1254.718 925.73,1193.909 925.73,1242.463 968.094,1218.138    968.094,1120.452  "/>
</g>
<g>
	<g>
		<polygon fill="#2BCC2B" points="989.129,1181.752 946.471,1157.081 946.471,1254.893 989.129,1279.466   "/>
	</g>
	<g>
		<polygon fill="#2BCC2B" points="904.618,1230.8 861.96,1206.132 861.96,1303.941 904.618,1328.515   "/>
	</g>
	<g>
		<polygon fill="#2BCC2B" points="934.111,1199.134 946.988,1206.547 967.631,1255.101 989.129,1181.752 946.471,1157.092   "/>
	</g>
	<g>
		<polygon fill="#2BCC2B" points="968.016,1291.72 946.998,1279.569 946.998,1255.173   "/>
	</g>
</g>
<g>
	<polygon fill="#00A229" points="989.098,1181.768 967.602,1255.116 946.959,1206.519 946.951,1206.519 904.589,1230.815    904.589,1328.53 946.951,1304.205 946.951,1255.166 967.984,1291.735 989.098,1230.928 989.098,1279.481 1031.461,1255.155    1031.461,1157.469  "/>
</g>
<g>
	<g>
		<g>
			<polygon fill="#5CE94F" points="989.135,1181.752 946.479,1157.081 988.582,1132.777 1031.5,1157.453    "/>
		</g>
		<g>
			<polygon fill="#5CE94F" points="904.626,1230.8 861.968,1206.132 904.071,1181.826 946.988,1206.504    "/>
		</g>
	</g>
	<g>
		<g>
			<polygon fill="#5CE94F" points="925.676,1144.749 883.018,1120.079 925.121,1095.774 968.039,1120.452    "/>
		</g>
		<g>
			<polygon fill="#5CE94F" points="841.166,1193.797 798.508,1169.13 840.611,1144.823 883.529,1169.499    "/>
		</g>
	</g>
</g>
<g>
	<g>
		<polygon fill="#7300AF" points="1491.14,1144.749 1448.482,1120.079 1448.482,1217.89 1491.14,1242.463   "/>
	</g>
	<g>
		<polygon fill="#7300AF" points="1406.629,1193.797 1363.972,1169.13 1363.972,1266.938 1406.629,1291.513   "/>
	</g>
	<g>
		<polygon fill="#7300AF" points="1436.123,1162.131 1449,1169.546 1469.643,1218.098 1491.14,1144.749 1448.482,1120.089   "/>
	</g>
	<g>
		<polygon fill="#7300AF" points="1470.026,1254.718 1449.009,1242.567 1449.009,1218.171   "/>
	</g>
</g>
<g>
	<polygon fill="#450063" points="1491.202,1144.749 1469.706,1218.098 1449.064,1169.499 1449.056,1169.501 1406.693,1193.797    1406.693,1291.513 1449.056,1267.187 1449.056,1218.147 1470.09,1254.718 1491.202,1193.909 1491.202,1242.463 1533.565,1218.138    1533.565,1120.452  "/>
</g>
<g>
	<g>
		<polygon fill="#7300AF" points="1554.601,1181.752 1511.942,1157.081 1511.942,1254.893 1554.601,1279.466   "/>
	</g>
	<g>
		<polygon fill="#7300AF" points="1470.09,1230.8 1427.432,1206.132 1427.432,1303.941 1470.09,1328.515   "/>
	</g>
	<g>
		<polygon fill="#7300AF" points="1499.583,1199.134 1512.46,1206.547 1533.103,1255.101 1554.601,1181.752 1511.942,1157.092   "/>
	</g>
	<g>
		<polygon fill="#7300AF" points="1533.487,1291.72 1512.47,1279.569 1512.47,1255.173   "/>
	</g>
</g>
<g>
	<polygon fill="#450063" points="1554.569,1181.768 1533.073,1255.116 1512.431,1206.519 1512.423,1206.519 1470.061,1230.815    1470.061,1328.53 1512.423,1304.205 1512.423,1255.166 1533.456,1291.735 1554.569,1230.928 1554.569,1279.481 1596.933,1255.155    1596.933,1157.469  "/>
</g>
<g>
	<g>
		<g>
			<polygon fill="#9900FC" points="1554.606,1181.752 1511.95,1157.081 1554.054,1132.777 1596.972,1157.453    "/>
		</g>
		<g>
			<polygon fill="#9900FC" points="1470.098,1230.8 1427.439,1206.132 1469.543,1181.826 1512.46,1206.504    "/>
		</g>
	</g>
	<g>
		<g>
			<polygon fill="#9900FC" points="1491.147,1144.749 1448.489,1120.079 1490.593,1095.774 1533.511,1120.452    "/>
		</g>
		<g>
			<polygon fill="#9900FC" points="1406.638,1193.797 1363.979,1169.13 1406.082,1144.823 1449,1169.499    "/>
		</g>
	</g>
</g>
<g>
	<path fill="#9DBDC6" d="M870.512,1950.395c0-1.492,0.644-2.582,1.927-3.28c1.278-0.692,2.71-1.042,4.289-1.042   c1.578,0,3.009,0.35,4.292,1.042c1.279,0.698,1.925,1.788,1.925,3.28v100.152c0,1.491-0.646,2.608-1.925,3.353   c-1.283,0.746-2.714,1.118-4.292,1.118c-1.579,0-3.011-0.372-4.289-1.118c-1.283-0.744-1.927-1.861-1.927-3.353V1950.395z"/>
	<path fill="#9DBDC6" d="M1003.846,1950.395c0-1.492,0.642-2.582,1.925-3.28c1.284-0.692,2.715-1.042,4.292-1.042   c1.575,0,3.007,0.35,4.289,1.042c1.283,0.698,1.927,1.788,1.927,3.28v100.152c0,1.491-0.644,2.608-1.927,3.353   c-1.282,0.746-2.714,1.118-4.289,1.118c-1.577,0-3.008-0.372-4.292-1.118c-1.283-0.744-1.925-1.861-1.925-3.353V1950.395z"/>
	<path fill="#9DBDC6" d="M1123.273,1950.395c0-1.492,0.641-2.582,1.924-3.28c1.279-0.692,2.711-1.042,4.289-1.042   c1.58,0,3.011,0.35,4.295,1.042c1.277,0.698,1.924,1.788,1.924,3.28v100.152c0,1.491-0.646,2.608-1.924,3.353   c-1.284,0.746-2.715,1.118-4.295,1.118c-1.578,0-3.01-0.372-4.289-1.118c-1.283-0.744-1.924-1.861-1.924-3.353V1950.395z"/>
</g>

</svg>
