<?xml version="1.0" encoding="utf-8"?>
<!-- Generator: Adobe Illustrator 16.0.2, SVG Export Plug-In . SVG Version: 6.00 Build 0)  -->
<!DOCTYPE svg PUBLIC "-//W3C//DTD SVG 1.1//EN" "http://www.w3.org/Graphics/SVG/1.1/DTD/svg11.dtd">
<svg version="1.1" id="Layer_1" xmlns="http://www.w3.org/2000/svg" xmlns:xlink="http://www.w3.org/1999/xlink" x="0px" y="0px"
	 width="1830px" height="800px" viewBox="0 2401 1830 800" enable-background="new 0 2401 1830 800" xml:space="preserve">
<rect x="0" y="2401" fill="#FFFFFF" width="1830" height="800"/>
<g>
	<path fill="#FF8000" d="M872.025,2755.51c0-1.488,0.644-2.578,1.926-3.275c1.278-0.693,2.71-1.043,4.289-1.043
		c1.578,0,3.008,0.351,4.292,1.043c1.281,0.697,1.925,1.787,1.925,3.275v100.156c0,1.488-0.644,2.608-1.925,3.352
		c-1.284,0.746-2.714,1.121-4.292,1.121c-1.579,0-3.011-0.375-4.289-1.121c-1.282-0.742-1.926-1.862-1.926-3.352V2755.51z"/>
	<g>
		<path fill="#003884" d="M652.858,2832.604c-0.693,1.292-1.458,2.188-2.294,2.682c-0.84,0.501-1.699,0.747-2.589,0.747
			c-0.79,0-1.578-0.246-2.369-0.747c-0.789-0.495-1.527-1.39-2.22-2.682l-22.195-42.923v78.841c0,1.49-0.646,2.607-1.924,3.354
			c-1.284,0.746-2.715,1.119-4.294,1.119c-1.578,0-3.008-0.373-4.289-1.119c-1.282-0.744-1.924-1.862-1.924-3.354v-98.364
			c0-2.282,0.614-3.875,1.851-4.77c1.232-0.896,2.688-1.341,4.362-1.341c2.271,0,4.146,0.67,5.624,2.012
			c1.481,1.343,2.913,3.304,4.292,5.888l23.233,44.858l23.383-44.858c1.38-2.584,2.812-4.545,4.292-5.888
			c1.48-1.342,3.352-2.012,5.623-2.012c1.676,0,3.131,0.445,4.367,1.341c1.232,0.895,1.851,2.485,1.851,4.77v98.364
			c0,1.49-0.646,2.607-1.924,3.354c-1.284,0.746-2.716,1.119-4.295,1.119c-1.578,0-3.008-0.373-4.288-1.119
			c-1.282-0.744-1.925-1.862-1.925-3.354v-78.242L652.858,2832.604z"/>
		<path fill="#003884" d="M739.427,2873.889c-4.438,0-8.609-0.573-12.505-1.715c-3.896-1.142-7.274-3.004-10.136-5.591
			c-2.864-2.58-5.104-5.934-6.732-10.059c-1.629-4.122-2.442-9.166-2.442-15.128v-44.86c0-5.961,0.813-11.003,2.442-15.125
			c1.629-4.123,3.868-7.476,6.732-10.063c2.86-2.582,6.239-4.442,10.136-5.586c3.896-1.143,8.067-1.716,12.505-1.716
			c4.44,0,8.608,0.573,12.505,1.716c3.896,1.144,7.304,3.004,10.211,5.586c2.909,2.588,5.18,5.939,6.81,10.063
			c1.629,4.122,2.442,9.164,2.442,15.125v44.86c0,5.962-0.813,11.006-2.442,15.128c-1.63,4.125-3.9,7.479-6.81,10.059
			c-2.907,2.586-6.315,4.449-10.211,5.591C748.036,2873.315,743.868,2873.889,739.427,2873.889z M758.965,2796.537
			c0-7.252-1.729-12.593-5.181-16.021c-3.454-3.428-8.239-5.143-14.356-5.143c-6.116,0-10.876,1.715-14.278,5.143
			c-3.406,3.429-5.104,8.77-5.104,16.021v44.859c0,7.254,1.698,12.596,5.104,16.021c3.402,3.43,8.163,5.143,14.278,5.143
			c6.117,0,10.903-1.713,14.356-5.143c3.452-3.426,5.181-8.768,5.181-16.021V2796.537z"/>
		<path fill="#003884" d="M791.371,2768.52c0-1.492,0.596-2.609,1.776-3.354c1.187-0.746,2.466-1.118,3.85-1.118h25.45
			c4.048,0,7.895,0.35,11.544,1.044c3.649,0.695,6.833,1.986,9.546,3.873c2.711,1.889,4.886,4.5,6.511,7.824
			c1.628,3.33,2.441,7.578,2.441,12.743c0,6.261-1.135,11.476-3.403,15.648c-2.271,4.171-5.326,7.104-9.176,8.795
			c2.271,0.893,4.34,2.01,6.218,3.352c1.87,1.343,3.477,3.009,4.811,4.992c1.33,1.989,2.368,4.375,3.104,7.156
			c0.74,2.78,1.11,6.061,1.11,9.836v2.682c0,5.663-0.767,10.481-2.295,14.457c-1.527,3.976-3.601,7.18-6.214,9.613
			c-2.618,2.436-5.696,4.196-9.249,5.29c-3.552,1.095-7.4,1.641-11.542,1.641h-28.856c-1.68,0-3.036-0.447-4.071-1.343
			c-1.033-0.896-1.555-1.886-1.555-2.979V2768.52L791.371,2768.52z M803.802,2808.76H822.3c6.021,0,10.482-1.342,13.396-4.025
			c2.909-2.683,4.362-7.152,4.362-13.413c0-2.979-0.443-5.487-1.33-7.525c-0.887-2.037-2.124-3.675-3.702-4.919
			c-1.578-1.239-3.5-2.135-5.77-2.682c-2.271-0.545-4.736-0.82-7.399-0.82h-18.055V2808.76L803.802,2808.76z M823.781,2861.666
			c5.919,0,10.559-1.613,13.91-4.845c3.356-3.227,5.03-8.42,5.03-15.571v-2.534c0-7.155-1.674-12.195-5.03-15.128
			c-3.352-2.93-7.99-4.396-13.91-4.396h-19.979v42.476L823.781,2861.666L823.781,2861.666z"/>
		<path fill="#003884" d="M949.57,2832.604c-0.691,1.292-1.459,2.188-2.293,2.682c-0.842,0.501-1.7,0.747-2.59,0.747
			c-0.791,0-1.58-0.246-2.369-0.747c-0.79-0.495-1.529-1.39-2.222-2.682l-22.194-42.923v78.841c0,1.49-0.646,2.607-1.925,3.354
			c-1.284,0.746-2.715,1.119-4.293,1.119s-3.01-0.373-4.289-1.119c-1.282-0.744-1.926-1.862-1.926-3.354v-98.364
			c0-2.282,0.614-3.875,1.852-4.77c1.233-0.896,2.688-1.341,4.363-1.341c2.271,0,4.145,0.67,5.622,2.012
			c1.481,1.343,2.914,3.304,4.294,5.888l23.232,44.858l23.382-44.858c1.38-2.584,2.812-4.545,4.294-5.888
			c1.48-1.342,3.352-2.012,5.622-2.012c1.676,0,3.13,0.445,4.366,1.341c1.232,0.895,1.853,2.485,1.853,4.77v98.364
			c0,1.49-0.646,2.607-1.926,3.354c-1.283,0.746-2.716,1.119-4.294,1.119c-1.577,0-3.01-0.373-4.286-1.119
			c-1.284-0.744-1.928-1.862-1.928-3.354v-78.242L949.57,2832.604z"/>
		<path fill="#003884" d="M1097.554,2872.994c-1.676,0-3.18-0.521-4.51-1.565c-1.334-1.042-2.441-2.407-3.332-4.099l-38.479-74.966
			v76.157c0,1.49-0.642,2.607-1.925,3.354s-2.714,1.119-4.289,1.119c-1.578,0-3.009-0.373-4.292-1.119
			c-1.283-0.744-1.926-1.862-1.926-3.354v-100.155c0-1.586,0.619-2.704,1.853-3.352c1.231-0.645,2.688-0.968,4.365-0.968
			c2.269,0,4.067,0.67,5.401,2.012c1.329,1.343,2.688,3.304,4.066,5.888l36.853,72.58v-76.16c0-1.487,0.642-2.579,1.925-3.274
			c1.28-0.694,2.71-1.044,4.288-1.044c1.579,0,3.011,0.35,4.294,1.044c1.277,0.695,1.924,1.788,1.924,3.274v100.155
			c0,1.49-0.646,2.607-1.924,3.354C1100.564,2872.621,1099.134,2872.994,1097.554,2872.994z"/>
		<path fill="#003884" d="M1214.319,2764.048c1.479,0,2.59,0.597,3.327,1.788c0.74,1.19,1.112,2.483,1.112,3.875
			c0,1.49-0.372,2.856-1.112,4.1c-0.737,1.243-1.85,1.862-3.327,1.862h-23.829v92.851c0,1.489-0.643,2.607-1.921,3.353
			c-1.283,0.746-2.715,1.12-4.293,1.12s-3.01-0.374-4.293-1.12c-1.283-0.744-1.921-1.862-1.921-3.353v-92.851h-23.979
			c-1.38,0-2.465-0.597-3.255-1.789c-0.788-1.192-1.182-2.582-1.182-4.173c0-1.392,0.37-2.685,1.108-3.875
			c0.737-1.191,1.852-1.788,3.328-1.788H1214.319z"/>
	</g>
	<line fill="none" stroke="#BF6000" stroke-miterlimit="10" x1="872.053" y1="2805.664" x2="884.245" y2="2805.664"/>
	<line fill="none" stroke="#BF6000" stroke-miterlimit="10" x1="872.053" y1="2813.092" x2="884.245" y2="2813.092"/>
	<line fill="none" stroke="#BF6000" stroke-miterlimit="10" x1="872.053" y1="2798.236" x2="884.245" y2="2798.236"/>
	<line fill="none" stroke="#BF6000" stroke-miterlimit="10" x1="872.053" y1="2790.811" x2="884.245" y2="2790.811"/>
	<line fill="none" stroke="#BF6000" stroke-miterlimit="10" x1="872.053" y1="2820.518" x2="884.245" y2="2820.518"/>
	<line fill="none" stroke="#BF6000" stroke-miterlimit="10" x1="872.053" y1="2827.945" x2="884.245" y2="2827.945"/>
	<line fill="none" stroke="#BF6000" stroke-miterlimit="10" x1="872.053" y1="2783.383" x2="884.245" y2="2783.383"/>
	<line fill="none" stroke="#BF6000" stroke-miterlimit="10" x1="872.053" y1="2777.813" x2="884.245" y2="2777.813"/>
	<line fill="none" stroke="#BF6000" stroke-miterlimit="10" x1="872.053" y1="2833.516" x2="884.245" y2="2833.516"/>
	<line fill="none" stroke="#BF6000" stroke-miterlimit="10" x1="872.053" y1="2772.243" x2="884.245" y2="2772.243"/>
	<line fill="none" stroke="#BF6000" stroke-miterlimit="10" x1="872.053" y1="2839.086" x2="884.245" y2="2839.086"/>
	<line fill="none" stroke="#BF6000" stroke-miterlimit="10" x1="872.053" y1="2766.672" x2="884.245" y2="2766.672"/>
	<line fill="none" stroke="#BF6000" stroke-miterlimit="10" x1="872.053" y1="2844.656" x2="884.245" y2="2844.656"/>
	<line fill="none" stroke="#BF6000" stroke-miterlimit="10" x1="872.053" y1="2762.961" x2="884.245" y2="2762.961"/>
	<line fill="none" stroke="#BF6000" stroke-miterlimit="10" x1="872.053" y1="2759.246" x2="884.245" y2="2759.246"/>
	<line fill="none" stroke="#BF6000" stroke-miterlimit="10" x1="872.053" y1="2755.532" x2="884.245" y2="2755.532"/>
	<line fill="none" stroke="#BF6000" stroke-miterlimit="10" x1="872.053" y1="2848.371" x2="884.245" y2="2848.371"/>
	<line fill="none" stroke="#BF6000" stroke-miterlimit="10" x1="872.053" y1="2852.082" x2="884.245" y2="2852.082"/>
	<line fill="none" stroke="#BF6000" stroke-miterlimit="10" x1="872.053" y1="2855.797" x2="884.245" y2="2855.797"/>
	<path fill="#FF8000" d="M1005.602,2742.119c0-1.488,0.644-2.578,1.927-3.273c1.278-0.695,2.71-1.045,4.289-1.045
		c1.578,0,3.009,0.35,4.292,1.045c1.281,0.695,1.925,1.785,1.925,3.273v100.155c0,1.49-0.644,2.609-1.925,3.354
		c-1.283,0.746-2.714,1.12-4.292,1.12c-1.579,0-3.011-0.374-4.289-1.12c-1.283-0.743-1.927-1.862-1.927-3.354V2742.119z"/>
	<line fill="none" stroke="#BF6000" stroke-miterlimit="10" x1="1005.631" y1="2792.273" x2="1017.822" y2="2792.273"/>
	<line fill="none" stroke="#BF6000" stroke-miterlimit="10" x1="1005.631" y1="2799.7" x2="1017.822" y2="2799.7"/>
	<line fill="none" stroke="#BF6000" stroke-miterlimit="10" x1="1005.631" y1="2784.847" x2="1017.822" y2="2784.847"/>
	<line fill="none" stroke="#BF6000" stroke-miterlimit="10" x1="1005.631" y1="2777.42" x2="1017.822" y2="2777.42"/>
	<line fill="none" stroke="#BF6000" stroke-miterlimit="10" x1="1005.631" y1="2807.127" x2="1017.822" y2="2807.127"/>
	<line fill="none" stroke="#BF6000" stroke-miterlimit="10" x1="1005.631" y1="2814.555" x2="1017.822" y2="2814.555"/>
	<line fill="none" stroke="#BF6000" stroke-miterlimit="10" x1="1005.631" y1="2769.992" x2="1017.822" y2="2769.992"/>
	<line fill="none" stroke="#BF6000" stroke-miterlimit="10" x1="1005.631" y1="2764.423" x2="1017.822" y2="2764.423"/>
	<line fill="none" stroke="#BF6000" stroke-miterlimit="10" x1="1005.631" y1="2820.125" x2="1017.822" y2="2820.125"/>
	<line fill="none" stroke="#BF6000" stroke-miterlimit="10" x1="1005.631" y1="2758.854" x2="1017.822" y2="2758.854"/>
	<line fill="none" stroke="#BF6000" stroke-miterlimit="10" x1="1005.631" y1="2825.696" x2="1017.822" y2="2825.696"/>
	<line fill="none" stroke="#BF6000" stroke-miterlimit="10" x1="1005.631" y1="2753.281" x2="1017.822" y2="2753.281"/>
	<line fill="none" stroke="#BF6000" stroke-miterlimit="10" x1="1005.631" y1="2831.266" x2="1017.822" y2="2831.266"/>
	<line fill="none" stroke="#BF6000" stroke-miterlimit="10" x1="1005.631" y1="2749.569" x2="1017.822" y2="2749.569"/>
	<line fill="none" stroke="#BF6000" stroke-miterlimit="10" x1="1005.631" y1="2745.857" x2="1017.822" y2="2745.857"/>
	<line fill="none" stroke="#BF6000" stroke-miterlimit="10" x1="1005.631" y1="2742.142" x2="1017.822" y2="2742.142"/>
	<line fill="none" stroke="#BF6000" stroke-miterlimit="10" x1="1005.631" y1="2834.98" x2="1017.822" y2="2834.98"/>
	<line fill="none" stroke="#BF6000" stroke-miterlimit="10" x1="1005.631" y1="2838.693" x2="1017.822" y2="2838.693"/>
	<line fill="none" stroke="#BF6000" stroke-miterlimit="10" x1="1005.631" y1="2842.407" x2="1017.822" y2="2842.407"/>
	<path fill="#FF8000" d="M1124.482,2729.057c0-1.489,0.643-2.58,1.927-3.275c1.278-0.695,2.71-1.045,4.289-1.045
		c1.578,0,3.009,0.351,4.292,1.045c1.28,0.695,1.926,1.786,1.926,3.275v100.154c0,1.489-0.646,2.609-1.926,3.354
		c-1.284,0.746-2.714,1.119-4.292,1.119c-1.579,0-3.011-0.373-4.289-1.119c-1.284-0.743-1.927-1.863-1.927-3.354V2729.057z"/>
	<line fill="none" stroke="#BF6000" stroke-miterlimit="10" x1="1124.511" y1="2779.211" x2="1136.703" y2="2779.211"/>
	<line fill="none" stroke="#BF6000" stroke-miterlimit="10" x1="1124.511" y1="2786.638" x2="1136.703" y2="2786.638"/>
	<line fill="none" stroke="#BF6000" stroke-miterlimit="10" x1="1124.511" y1="2771.782" x2="1136.703" y2="2771.782"/>
	<line fill="none" stroke="#BF6000" stroke-miterlimit="10" x1="1124.511" y1="2764.356" x2="1136.703" y2="2764.356"/>
	<line fill="none" stroke="#BF6000" stroke-miterlimit="10" x1="1124.511" y1="2794.064" x2="1136.703" y2="2794.064"/>
	<line fill="none" stroke="#BF6000" stroke-miterlimit="10" x1="1124.511" y1="2801.491" x2="1136.703" y2="2801.491"/>
	<line fill="none" stroke="#BF6000" stroke-miterlimit="10" x1="1124.511" y1="2756.93" x2="1136.703" y2="2756.93"/>
	<line fill="none" stroke="#BF6000" stroke-miterlimit="10" x1="1124.511" y1="2751.359" x2="1136.703" y2="2751.359"/>
	<line fill="none" stroke="#BF6000" stroke-miterlimit="10" x1="1124.511" y1="2807.062" x2="1136.703" y2="2807.062"/>
	<line fill="none" stroke="#BF6000" stroke-miterlimit="10" x1="1124.511" y1="2745.789" x2="1136.703" y2="2745.789"/>
	<line fill="none" stroke="#BF6000" stroke-miterlimit="10" x1="1124.511" y1="2812.633" x2="1136.703" y2="2812.633"/>
	<line fill="none" stroke="#BF6000" stroke-miterlimit="10" x1="1124.511" y1="2740.218" x2="1136.703" y2="2740.218"/>
	<line fill="none" stroke="#BF6000" stroke-miterlimit="10" x1="1124.511" y1="2818.2" x2="1136.703" y2="2818.2"/>
	<line fill="none" stroke="#BF6000" stroke-miterlimit="10" x1="1124.511" y1="2736.506" x2="1136.703" y2="2736.506"/>
	<line fill="none" stroke="#BF6000" stroke-miterlimit="10" x1="1124.511" y1="2732.793" x2="1136.703" y2="2732.793"/>
	<line fill="none" stroke="#BF6000" stroke-miterlimit="10" x1="1124.511" y1="2729.077" x2="1136.703" y2="2729.077"/>
	<line fill="none" stroke="#BF6000" stroke-miterlimit="10" x1="1124.511" y1="2821.916" x2="1136.703" y2="2821.916"/>
	<line fill="none" stroke="#BF6000" stroke-miterlimit="10" x1="1124.511" y1="2825.629" x2="1136.703" y2="2825.629"/>
	<line fill="none" stroke="#BF6000" stroke-miterlimit="10" x1="1124.511" y1="2829.344" x2="1136.703" y2="2829.344"/>
</g>
</svg>
