<?xml version="1.0" encoding="utf-8"?>
<!-- Generator: Adobe Illustrator 16.0.2, SVG Export Plug-In . SVG Version: 6.00 Build 0)  -->
<!DOCTYPE svg PUBLIC "-//W3C//DTD SVG 1.1//EN" "http://www.w3.org/Graphics/SVG/1.1/DTD/svg11.dtd">
<svg version="1.1" id="Layer_1" xmlns="http://www.w3.org/2000/svg" xmlns:xlink="http://www.w3.org/1999/xlink" x="0px" y="0px"
	 width="1830px" height="800px" viewBox="0 0 1830 800" enable-background="new 0 0 1830 800" xml:space="preserve">
<rect x="0" y="0" fill="#DCFFFF" width="1830" height="800"/>
<g>
	<path fill="#5CE9FF" d="M808.209,389.341l-0.309,0.062l0.309,3.273v25.076H795.98v-43.235h18.282l6.979,24.458l0.371,2.965h0.31
		l0.432-2.965l6.917-24.458h18.282v43.235h-12.229v-25.076l0.31-3.273l-0.31-0.062l-8.646,28.411h-9.82L808.209,389.341z"/>
	<path fill="#5CE9FF" d="M866.757,379.397c5.127-5.374,11.24-6.053,16.366-6.053c5.56,0,12.354,0.926,17.355,6.115
		c4.88,5.003,5.744,11.55,5.744,16.306c0,8.338-2.531,13.648-5.62,16.983c-5.003,5.374-11.364,6.178-16.985,6.178
		c-5.682,0-12.353-0.865-17.417-6.3c-1.977-2.101-5.559-7.165-5.559-16.367C860.642,388.29,863.546,382.794,866.757,379.397z
		 M877.688,405.276c1.604,1.668,3.582,2.286,5.744,2.286c2.1,0,4.2-0.494,5.806-2.286c1.978-2.162,2.655-5.991,2.655-9.141
		c0-3.15-0.433-6.793-2.655-9.142c-1.604-1.667-3.459-2.284-5.559-2.284c-2.162,0-4.2,0.556-5.868,2.284
		c-2.47,2.595-2.841,6.794-2.841,9.142C874.971,398.482,875.279,402.682,877.688,405.276z"/>
	<path fill="#5CE9FF" d="M943.771,374.518c2.841,0,7.164,0.062,10.252,2.594c1.729,1.42,3.459,4.016,3.459,8.215
		c0,2.532-0.68,4.633-2.656,6.67c-1.42,1.482-2.901,2.225-4.385,2.595v0.247c3.582,0.68,5.744,2.655,6.115,3.025
		c1.604,1.544,3.088,4.077,3.088,8.091c0,4.818-2.224,7.475-4.076,8.833c-3.396,2.595-8.771,2.966-11.981,2.966h-24.273v-43.235
		H943.771z M932.777,391.194h6.917c1.112,0,2.471-0.062,3.336-0.865c0.433-0.371,0.987-1.11,0.987-2.594
		c0-1.421-0.557-2.224-1.111-2.656c-0.988-0.74-2.718-0.803-3.396-0.803h-6.732L932.777,391.194L932.777,391.194z M932.777,407.993
		h8.152c1.174,0,2.531-0.062,3.521-0.926c0.617-0.556,1.173-1.481,1.173-3.026c0-1.791-0.74-2.655-1.234-3.025
		c-0.928-0.741-2.408-0.865-3.521-0.865h-8.091L932.777,407.993L932.777,407.993z"/>
	<path fill="#5CE9FF" d="M986.199,374.518v43.235h-13.465v-43.235H986.199z"/>
	<path fill="#005381" d="M1014.299,389.341l-0.31,0.062l0.31,3.273v25.076h-12.229v-43.235h18.281l6.979,24.458l0.371,2.965h0.31
		l0.432-2.965l6.918-24.458h18.282v43.235h-12.229v-25.076l0.31-3.273l-0.31-0.062l-8.646,28.411h-9.82L1014.299,389.341z"/>
	<path fill="#005381" d="M1082.975,374.518v43.235h-13.465v-43.235H1082.975z"/>
	<path fill="#005381" d="M1112,393.787l0.31,3.273v20.691h-13.464v-43.235h13.464l13.218,23.964h0.311l-0.311-3.273v-20.69h13.464
		v43.235h-13.464l-13.218-23.965H1112L1112,393.787z"/>
	<path fill="#005381" d="M1168.324,374.518v43.235h-13.465v-43.235H1168.324z"/>
	<path fill="#005381" d="M1179.563,386.376v-11.859h37.922v11.859h-12.229v31.376h-13.466v-31.376H1179.563z"/>
</g>
<g>
	<g>
		<polygon fill="#00A1E0" points="682.793,359.918 657.53,345.309 657.53,403.231 682.793,417.781 		"/>
	</g>
	<g>
		<polygon fill="#00A1E0" points="632.746,388.963 607.485,374.355 607.485,432.277 632.746,446.827 		"/>
	</g>
	<g>
		<polygon fill="#00A1E0" points="650.213,370.211 657.838,374.601 670.062,403.354 682.793,359.918 657.53,345.315 		"/>
	</g>
	<g>
		<polygon fill="#00A1E0" points="670.289,425.039 657.843,417.845 657.843,403.397 		"/>
	</g>
</g>
<g>
	<polygon fill="#005381" points="682.829,359.918 670.099,403.354 657.875,374.574 657.87,374.575 632.784,388.963 632.784,446.827 
		657.87,432.424 657.87,403.384 670.326,425.039 682.829,389.029 682.829,417.781 707.916,403.379 707.916,345.53 	"/>
</g>
<g>
	<g>
		<polygon fill="#00A1E0" points="720.372,381.829 695.11,367.222 695.11,425.144 720.372,439.695 		"/>
	</g>
	<g>
		<polygon fill="#00A1E0" points="670.326,410.875 645.065,396.268 645.065,454.189 670.326,468.74 		"/>
	</g>
	<g>
		<polygon fill="#00A1E0" points="687.793,392.123 695.418,396.514 707.642,425.267 720.372,381.829 695.11,367.227 		"/>
	</g>
	<g>
		<polygon fill="#00A1E0" points="707.869,446.951 695.423,439.756 695.423,425.309 		"/>
	</g>
</g>
<g>
	<polygon fill="#005381" points="720.409,381.829 707.679,425.267 695.455,396.488 695.45,396.488 670.364,410.875 670.364,468.74 
		695.45,454.336 695.45,425.296 707.906,446.951 720.409,410.941 720.409,439.695 745.496,425.29 745.496,367.442 	"/>
</g>
<g>
	<g>
		<g>
			<polygon fill="#5CE9FF" points="720.377,381.829 695.115,367.222 720.049,352.828 745.464,367.442 			"/>
		</g>
		<g>
			<polygon fill="#5CE9FF" points="670.331,410.875 645.07,396.268 670.003,381.875 695.418,396.488 			"/>
		</g>
	</g>
	<g>
		<g>
			<polygon fill="#5CE9FF" points="682.797,359.918 657.535,345.309 682.469,330.916 707.884,345.53 			"/>
		</g>
		<g>
			<polygon fill="#5CE9FF" points="632.752,388.963 607.49,374.355 632.423,359.963 657.838,374.574 			"/>
		</g>
	</g>
</g>
</svg>
