<?xml version="1.0" encoding="utf-8"?>
<!-- Generator: Adobe Illustrator 16.0.2, SVG Export Plug-In . SVG Version: 6.00 Build 0)  -->
<!DOCTYPE svg PUBLIC "-//W3C//DTD SVG 1.1//EN" "http://www.w3.org/Graphics/SVG/1.1/DTD/svg11.dtd">
<svg version="1.1" id="Layer_1" xmlns="http://www.w3.org/2000/svg" xmlns:xlink="http://www.w3.org/1999/xlink" x="0px" y="0px"
	 width="235px" height="235px" viewBox="0 0 235 235" enable-background="new 0 0 235 235" xml:space="preserve">
<g>
	<path fill="#2AB69D" d="M160.031,48.308l73.851,73.851c0.061-1.548,0.118-3.097,0.118-4.658C234,53.157,181.841,1,117.501,1
		S1,53.157,1,117.5C1,181.841,53.161,234,117.501,234c1.48,0,2.947-0.057,4.415-0.11l-47.102-47.104L160.031,48.308z"/>
	<path fill="#2A9884" d="M233.882,122.158l-73.851-73.851L74.814,186.786l47.102,47.104
		C182.658,231.62,231.491,182.87,233.882,122.158z"/>
	<path fill="#FFFFFF" d="M161.996,181.413c0,4.469-3.622,8.09-8.09,8.09H81.094c-4.468,0-8.091-3.621-8.091-8.09V53.587
		c0-4.467,3.623-8.09,8.091-8.09h72.813c4.468,0,8.09,3.623,8.09,8.09V181.413z"/>
	<g>
		<path fill="#E6E6E6" d="M124.696,179.88c0,3.929-3.193,7.115-7.113,7.115c-3.929,0-7.111-3.187-7.111-7.115
			c0-3.922,3.183-7.107,7.111-7.107C121.503,172.772,124.696,175.958,124.696,179.88z"/>
		<path fill="#FFFFFF" d="M119.651,176.775h-4.142c-0.57,0-1.035,0.47-1.035,1.035v4.146c0,0.566,0.465,1.033,1.035,1.033h4.142
			c0.563,0,1.031-0.467,1.031-1.033v-4.146C120.683,177.245,120.215,176.775,119.651,176.775z M120.004,181.495
			c0,0.443-0.368,0.805-0.814,0.805h-3.224c-0.442,0-0.803-0.361-0.803-0.805v-3.229c0-0.437,0.36-0.795,0.803-0.795h3.224
			c0.446,0,0.814,0.358,0.814,0.795V181.495z"/>
	</g>
	<rect x="79.29" y="51.604" fill="#E6E6E6" width="76.219" height="118.602"/>
	<g>
		<g>
			<path fill="#343844" d="M153.875,168.553L153.872,53.25H80.964v115.303H153.875L153.875,168.553z"/>
		</g>
	</g>
	<path fill="#FDC536" d="M102.162,145.983c0,0.895-0.725,1.618-1.618,1.618h-9.708c-0.894,0-1.618-0.724-1.618-1.618v-43.688
		c0-0.893,0.725-1.618,1.618-1.618h9.708c0.894,0,1.618,0.726,1.618,1.618V145.983z"/>
	<path fill="#2AB69D" d="M124.106,145.985c0,0.893-0.725,1.617-1.618,1.617h-9.708c-0.894,0-1.618-0.725-1.618-1.617V89.353
		c0-0.894,0.725-1.617,1.618-1.617h9.708c0.894,0,1.618,0.724,1.618,1.617V145.985z"/>
	<path fill="#E65848" d="M145.749,145.985c0,0.893-0.725,1.617-1.618,1.617h-9.709c-0.894,0-1.618-0.725-1.618-1.617V76.409
		c0-0.895,0.725-1.619,1.618-1.619h9.709c0.894,0,1.618,0.725,1.618,1.619V145.985z"/>
</g>
</svg>
