<?xml version="1.0" encoding="utf-8"?>
<!-- Generator: Adobe Illustrator 16.0.2, SVG Export Plug-In . SVG Version: 6.00 Build 0)  -->
<!DOCTYPE svg PUBLIC "-//W3C//DTD SVG 1.1//EN" "http://www.w3.org/Graphics/SVG/1.1/DTD/svg11.dtd">
<svg version="1.1" id="Layer_1" xmlns="http://www.w3.org/2000/svg" xmlns:xlink="http://www.w3.org/1999/xlink" x="0px" y="0px"
	 width="235px" height="235px" viewBox="0 0 235 235" enable-background="new 0 0 235 235" xml:space="preserve">
<g>
	<path fill="#2AB69D" d="M125.118,52.575l19.728,19.727l1.307-0.982l82.158,82.157C231.988,142.144,234,130.06,234,117.5
		C234,53.159,181.841,1,117.5,1C53.158,1,1,53.159,1,117.5C1,181.842,53.158,234,117.5,234c4.844,0,9.609-0.33,14.299-0.903
		L76.172,177.47L125.118,52.575z"/>
	<path fill="#2A9884" d="M228.311,153.477l-82.158-82.157l-1.307,0.982l-19.728-19.727L76.172,177.47l55.627,55.627
		C177.232,227.531,214.568,195.833,228.311,153.477z"/>
	<path fill="#FFFFFF" d="M98.724,182.587c-0.063,0.247-0.136,0.491-0.223,0.728C98.587,183.077,98.661,182.834,98.724,182.587z"/>
	<path fill="#FFFFFF" d="M98.884,181.768c-0.031,0.222-0.068,0.441-0.119,0.656C98.814,182.209,98.854,181.989,98.884,181.768z"/>
	<path fill="#FFFFFF" d="M98.967,180.699c0,0.292-0.02,0.578-0.052,0.861C98.946,181.277,98.967,180.991,98.967,180.699z"/>
	<path fill="#FFFFFF" d="M98.917,79.396c0.03,0.309,0.05,0.609,0.05,0.892C98.967,80,98.948,79.701,98.917,79.396z"/>
	<path fill="#FFFFFF" d="M95.967,137.301V72.694c0.419,0.32,0.8,0.775,1.146,1.302c-1.375-2.402-3.392-4.302-5.646-4.302
		c-4.143,0-7.501,6.4-7.501,10.594v70.41C89.489,147.016,93.313,142.203,95.967,137.301z"/>
	<path fill="#FFFFFF" d="M98.798,78.551c0.021,0.119,0.037,0.236,0.053,0.353C98.834,78.785,98.819,78.67,98.798,78.551z"/>
	<path fill="#FFFFFF" d="M95.967,186.74v-12.041H83.966v6c0,4.194,3.358,7.595,7.501,7.595c3.222,0,5.96-2.061,7.022-4.947
		C97.98,184.705,97.095,185.877,95.967,186.74z"/>
	<path fill="#FFFFFF" d="M135.435,183.313c-0.087-0.236-0.159-0.48-0.223-0.728C135.274,182.834,135.349,183.076,135.435,183.313z"
		/>
	<path fill="#FFFFFF" d="M135.084,78.904c0.017-0.117,0.033-0.234,0.054-0.354C135.116,78.67,135.102,78.787,135.084,78.904z"/>
	<path fill="#FFFFFF" d="M135.021,181.561c-0.032-0.283-0.052-0.569-0.052-0.861C134.969,180.991,134.989,181.277,135.021,181.561z"
		/>
	<path fill="#FFFFFF" d="M137.969,72.694v64.606c2.653,4.902,6.478,9.715,12.001,13.397v-70.41c0-4.193-3.358-10.594-7.501-10.594
		c-2.254,0-4.271,1.899-5.646,4.303C137.169,73.471,137.55,73.015,137.969,72.694z"/>
	<path fill="#FFFFFF" d="M137.969,186.74c-1.128-0.863-2.014-2.035-2.522-3.394c1.063,2.888,3.801,4.947,7.022,4.947
		c4.143,0,7.501-3.4,7.501-7.595v-6h-12.001V186.74z"/>
	<path fill="#FFFFFF" d="M135.171,182.425c-0.051-0.216-0.088-0.436-0.119-0.657C135.082,181.989,135.121,182.209,135.171,182.425z"
		/>
	<path fill="#FFFFFF" d="M134.969,80.288c0-0.282,0.02-0.583,0.05-0.892C134.987,79.701,134.969,80,134.969,80.288z"/>
	<path fill="#343844" d="M101.967,114.697c1.915,0,9.196,4.908,15.001,9.689c5.805-4.781,13.085-9.689,15.001-9.689
		c0,0,0.007,7.26,3,15.789V80.288v-4.594c0-9.89-8.061-27.001-18.001-27.001c-9.941,0-18.001,17.111-18.001,27.001v4.594v50.198
		C101.96,121.957,101.967,114.697,101.967,114.697z"/>
	<path opacity="0.2" fill="#231F20" d="M98.967,156.792v17.907h16.313c-0.807,0-1.574-0.162-2.277-0.45
		C104.972,172.451,98.967,165.324,98.967,156.792z"/>
	<path fill="#3C9985" d="M74.965,159.699v9.001c0,3.313,5.688,5.999,9.001,5.999v-24.001
		C80.436,153.054,74.965,156.384,74.965,159.699z"/>
	<path fill="#FFFFFF" d="M95.967,137.301c-2.653,4.902-6.478,9.715-12.001,13.397v24.001h12.001V137.301z"/>
	<path fill="#D3D2D2" d="M95.967,137.301c-2.653,4.902-6.478,9.715-12.001,13.397v24.001h12.001V137.301z"/>
	<path fill="#343844" d="M98.967,130.486v26.306c0,8.532,6.005,15.659,14.036,17.457c-2.184-0.896-3.724-3.042-3.724-5.549v-36.002
		c0-1.399,3.452-4.821,7.688-8.312c-5.805-4.781-13.086-9.689-15.001-9.689C101.967,114.697,101.96,121.957,98.967,130.486z"/>
	<path opacity="0.2" fill="#231F20" d="M98.967,130.486v26.306c0,8.532,6.005,15.659,14.036,17.457
		c-2.184-0.896-3.724-3.042-3.724-5.549v-36.002c0-1.399,3.452-4.821,7.688-8.312c-5.805-4.781-13.086-9.689-15.001-9.689
		C101.967,114.697,101.96,121.957,98.967,130.486z"/>
	<path fill="#368071" d="M149.97,150.698v24.001c3.313,0,9.001-2.687,9.001-5.999v-9.001
		C158.971,156.384,153.5,153.054,149.97,150.698z"/>
	<path opacity="0.2" fill="#231F20" d="M120.932,174.25c-0.702,0.287-1.47,0.449-2.276,0.449h16.313v-17.907
		C134.969,165.325,128.963,172.451,120.932,174.25z"/>
	<path fill="#FFFFFF" d="M137.969,137.301v37.398h12.001v-24.001C144.446,147.016,140.622,142.203,137.969,137.301z"/>
	<path fill="#D3D2D2" d="M137.969,137.301v37.398h12.001v-24.001C144.446,147.016,140.622,142.203,137.969,137.301z"/>
	<path fill="#343844" d="M116.968,124.387c4.236,3.49,7.688,6.912,7.688,8.312V168.7c0,2.507-1.54,4.652-3.725,5.55
		c8.031-1.799,14.037-8.925,14.037-17.458v-26.306c-2.993-8.529-3-15.789-3-15.789C130.053,114.697,122.772,119.605,116.968,124.387
		z"/>
	<path opacity="0.2" fill="#231F20" d="M116.968,124.387c4.236,3.49,7.688,6.912,7.688,8.312V168.7c0,2.507-1.54,4.652-3.725,5.55
		c8.031-1.799,14.037-8.925,14.037-17.458v-26.306c-2.993-8.529-3-15.789-3-15.789C130.053,114.697,122.772,119.605,116.968,124.387
		z"/>
	<path opacity="0.2" fill="#231F20" d="M116.968,174.699h1.688c0.807,0,1.574-0.162,2.276-0.449
		C119.654,174.535,118.331,174.699,116.968,174.699z"/>
	<path opacity="0.2" fill="#231F20" d="M116.968,174.699h1.688c0.807,0,1.574-0.162,2.276-0.449
		C119.654,174.535,118.331,174.699,116.968,174.699z"/>
	<path opacity="0.2" fill="#231F20" d="M115.28,174.699h1.688c-1.363,0-2.688-0.164-3.965-0.45
		C113.706,174.537,114.474,174.699,115.28,174.699z"/>
	<path opacity="0.2" fill="#231F20" d="M115.28,174.699h1.688c-1.363,0-2.688-0.164-3.965-0.45
		C113.706,174.537,114.474,174.699,115.28,174.699z"/>
	<path fill="#343844" d="M124.656,168.7v-36.002c0-1.399-3.452-4.821-7.688-8.312c-4.236,3.49-7.688,6.912-7.688,8.312V168.7
		c0,2.507,1.54,4.652,3.724,5.549c1.277,0.286,2.602,0.45,3.965,0.45s2.687-0.164,3.964-0.449
		C123.116,173.353,124.656,171.207,124.656,168.7z"/>
	<path opacity="0.2" fill="#231F20" d="M124.656,168.7v-36.002c0-1.399-3.452-4.821-7.688-8.312
		c-4.236,3.49-7.688,6.912-7.688,8.312V168.7c0,2.507,1.54,4.652,3.724,5.549c1.277,0.286,2.602,0.45,3.965,0.45
		s2.687-0.164,3.964-0.449C123.116,173.353,124.656,171.207,124.656,168.7z"/>
	<path opacity="0.2" fill="#231F20" d="M124.656,168.7v-36.002c0-1.399-3.452-4.821-7.688-8.312
		c-4.236,3.49-7.688,6.912-7.688,8.312V168.7c0,2.507,1.54,4.652,3.724,5.549c1.277,0.286,2.602,0.45,3.965,0.45
		s2.687-0.164,3.964-0.449C123.116,173.353,124.656,171.207,124.656,168.7z"/>
	<path fill="#231F20" d="M98.501,183.314c-0.004,0.011-0.008,0.021-0.012,0.032C98.493,183.336,98.497,183.324,98.501,183.314z"/>
	<path fill="#231F20" d="M98.915,181.561c-0.008,0.07-0.021,0.138-0.031,0.207C98.894,181.698,98.907,181.631,98.915,181.561z"/>
	<path fill="#231F20" d="M98.851,78.903c0.025,0.165,0.051,0.331,0.066,0.493C98.901,79.235,98.874,79.069,98.851,78.903z"/>
	<path fill="#231F20" d="M98.765,182.424c-0.012,0.055-0.027,0.109-0.041,0.163C98.737,182.533,98.752,182.479,98.765,182.424z"/>
	<path fill="#231F20" d="M97.112,73.996c0.821,1.438,1.414,3.051,1.686,4.555C98.529,76.971,97.938,75.259,97.112,73.996z"/>
	<path fill="#CCCCCC" d="M95.967,186.74c1.128-0.863,2.014-2.035,2.522-3.394c0.004-0.011,0.008-0.021,0.012-0.032
		c0.087-0.236,0.159-0.48,0.223-0.728c0.014-0.054,0.029-0.108,0.041-0.163c0.051-0.215,0.088-0.435,0.119-0.656
		c0.01-0.069,0.023-0.137,0.031-0.207c0.032-0.283,0.052-0.569,0.052-0.861v-6h-3V186.74z"/>
	<path fill="#CCCCCC" d="M95.967,72.694v64.606c1.239-2.289,2.22-4.593,3-6.814V80.288c0-0.282-0.02-0.583-0.05-0.892
		c-0.016-0.162-0.041-0.328-0.066-0.493c-0.016-0.116-0.032-0.233-0.053-0.353c-0.271-1.504-0.864-3.117-1.686-4.555
		C96.767,73.47,96.386,73.015,95.967,72.694z"/>
	<path fill="#B0AEAE" d="M98.967,130.486c-0.78,2.222-1.761,4.525-3,6.814v37.398h3v-17.907V130.486z"/>
	<path fill="#231F20" d="M135.019,79.396c0.016-0.162,0.041-0.326,0.065-0.492C135.062,79.07,135.034,79.236,135.019,79.396z"/>
	<path fill="#231F20" d="M135.446,183.347c-0.004-0.011-0.008-0.022-0.012-0.033C135.438,183.324,135.442,183.336,135.446,183.347z"
		/>
	<path fill="#231F20" d="M135.052,181.768c-0.01-0.069-0.023-0.137-0.031-0.207C135.028,181.631,135.042,181.697,135.052,181.768z"
		/>
	<path fill="#231F20" d="M135.212,182.586c-0.014-0.054-0.029-0.107-0.041-0.161C135.184,182.479,135.198,182.532,135.212,182.586z"
		/>
	<path fill="#231F20" d="M135.138,78.55c0.271-1.504,0.864-3.116,1.686-4.553C135.997,75.259,135.406,76.971,135.138,78.55z"/>
	<path fill="#CCCCCC" d="M137.969,186.74v-12.041h-3v6c0,0.292,0.02,0.578,0.052,0.861c0.008,0.07,0.021,0.138,0.031,0.207
		c0.031,0.222,0.068,0.441,0.119,0.657c0.012,0.054,0.027,0.107,0.041,0.161c0.063,0.247,0.136,0.491,0.223,0.728
		c0.004,0.011,0.008,0.022,0.012,0.033C135.955,184.705,136.841,185.877,137.969,186.74z"/>
	<path fill="#D3D2D2" d="M137.969,137.301V72.694c-0.419,0.32-0.8,0.776-1.146,1.303c-0.821,1.437-1.414,3.049-1.686,4.553
		c-0.021,0.12-0.037,0.237-0.054,0.354c-0.024,0.166-0.05,0.33-0.065,0.492c-0.03,0.309-0.05,0.609-0.05,0.892v50.198
		C135.749,132.708,136.729,135.012,137.969,137.301z"/>
	<path fill="#B0AEAE" d="M137.969,137.301c-1.239-2.289-2.22-4.593-3-6.814v26.306v17.907h3V137.301z"/>
	<path fill="#E65848" d="M124.656,174.699c0,3.313-2.688,6-6.001,6H83.966c-3.313,0-9.001-2.687-9.001-6v-9.001
		c0-3.313,5.471-6.646,9.001-9c18.001-12.001,18.001-36.002,18.001-36.002c3.313,0,22.689,14.688,22.689,18.002V174.699z"/>
	<path fill="#E65848" d="M109.279,174.699c0,3.313,2.687,6,6.001,6h34.689c3.313,0,9.001-2.687,9.001-6v-9.001
		c0-3.313-5.471-6.646-9.001-9c-18.001-12.001-18.001-36.002-18.001-36.002c-3.314,0-22.689,14.688-22.689,18.002V174.699z"/>
	<path fill="#FFFFFF" d="M131.969,185.108c0,4.193-6.715,7.592-15.001,7.592l0,0c-8.286,0-15.001-3.398-15.001-7.592V93.695
		c0-4.195,6.715-21.001,15.001-21.001l0,0c8.286,0,15.001,16.806,15.001,21.001V185.108z"/>
</g>
</svg>
