<?xml version="1.0" encoding="utf-8"?>
<!-- Generator: Adobe Illustrator 16.0.2, SVG Export Plug-In . SVG Version: 6.00 Build 0)  -->
<!DOCTYPE svg PUBLIC "-//W3C//DTD SVG 1.1//EN" "http://www.w3.org/Graphics/SVG/1.1/DTD/svg11.dtd">
<svg version="1.1" id="Layer_1" xmlns="http://www.w3.org/2000/svg" xmlns:xlink="http://www.w3.org/1999/xlink" x="0px" y="0px"
	 width="235px" height="235px" viewBox="0 0 235 235" enable-background="new 0 0 235 235" xml:space="preserve">
<g>
	<path fill="#2AB69D" d="M101.101,138.449l-3.464-4.288l26.293-79.285l102.91,102.912c4.628-12.557,7.16-26.127,7.16-40.288
		C234,53.161,181.84,1,117.5,1S1,53.161,1,117.5c0,61.751,48.051,112.247,108.795,116.219l-51.497-51.497L101.101,138.449z"/>
	<path fill="#2A9884" d="M226.84,157.788L123.93,54.876l-26.293,79.285l3.464,4.288l-42.803,43.772l51.497,51.497
		c2.549,0.166,5.113,0.281,7.705,0.281C167.679,234,210.443,202.274,226.84,157.788z"/>
	<g>
		<path fill="#FFFFFF" d="M137.374,78.041l18.337,24.542l13.215,19.955l5.394,9.17l-2.157,13.213c0,0-15.911,15.641-16.72,15.912
			c-0.81,0.27-32.631,0.81-32.631,0.81l-44.497-1.618l-15.371-17.799l-1.617-9.171l0.809-4.854l12.674-17.258l9.439-12.404
			l9.438-12.406l9.978-7.551L137.374,78.041z"/>
		<path fill="#343844" d="M176.709,130.805c-0.061,0-0.115,0.019-0.169,0.019v-0.584l-51.179-73.385
			c-1.408-2.513-4.057-4.076-6.916-4.076c-2.619,0-5.074,1.308-6.531,3.443l-53.616,73.986v0.597h-0.005v49.36h0.005v2.057H176.54
			v-2.076c0.054,0,0.108,0.02,0.169,0.02V130.805z M86.246,156.446c0,0.049,0.014,0.108,0.014,0.165h-0.019
			C86.241,156.555,86.246,156.495,86.246,156.446z M148.754,156.46c0,0.053,0.006,0.095,0.006,0.151h-0.012
			C148.748,156.555,148.754,156.513,148.754,156.46z M93.41,88.817c4.646,7.951,13.978,13.422,24.838,13.422
			c10.678,0,19.899-5.291,24.613-13.055l29.279,41.98c-12.924,1.877-22.863,11.521-23.387,23.332
			c-0.656-13.159-14.381-23.692-31.248-23.692c-16.885,0-30.608,10.533-31.26,23.712c-0.522-11.854-10.516-21.541-23.518-23.371
			L93.41,88.817z"/>
	</g>
</g>
</svg>
