<?xml version="1.0" encoding="utf-8"?>
<!-- Generator: Adobe Illustrator 16.0.2, SVG Export Plug-In . SVG Version: 6.00 Build 0)  -->
<!DOCTYPE svg PUBLIC "-//W3C//DTD SVG 1.1//EN" "http://www.w3.org/Graphics/SVG/1.1/DTD/svg11.dtd">
<svg version="1.1" id="Layer_1" xmlns="http://www.w3.org/2000/svg" xmlns:xlink="http://www.w3.org/1999/xlink" x="0px" y="0px"
	 width="168.082px" height="56px" viewBox="0 0 168.082 56" enable-background="new 0 0 168.082 56" xml:space="preserve">
<g>
	<rect fill="#00C4FF" width="56" height="28.167"/>
	<rect y="27.833" fill="#FFE700" width="56" height="28.167"/>
</g>
<g>
	<rect x="56.04" fill="#FFFFFF" width="56" height="19"/>
	<rect x="56.04" y="37" fill="#D52B1E" width="56" height="19"/>
	<rect x="56.04" y="19" fill="#0039A6" width="56" height="18"/>
</g>
<g>
	<rect x="112.082" y="0.078" fill="#00247D" width="56" height="55.922"/>
	<polygon fill="#FFFFFF" points="112.082,18.714 123.91,18.714 112.082,6.876 112.082,0.078 118.849,0.078 135.394,16.529 
		135.394,0.078 144.711,0.078 144.711,16.529 161.256,0.078 168.082,0.078 168.082,6.876 156.195,18.714 168.082,18.714 
		168.082,37.362 156.195,37.362 168.082,49.201 168.082,56 161.256,56 144.711,39.543 144.711,56 135.394,56 135.394,39.543 
		118.849,56 112.082,56 112.082,49.201 123.91,37.362 112.082,37.362 	"/>
	<g>
		<polygon fill="#CF142B" points="163.682,0.078 144.988,18.724 149.463,18.724 168.082,0.078 		"/>
		<polygon fill="#CF142B" points="168.082,56 149.443,37.359 153.938,37.359 168.082,51.555 		"/>
		<polygon fill="#CF142B" points="130.809,18.724 112.082,0.078 112.082,4.53 126.296,18.724 		"/>
		<polygon fill="#CF142B" points="130.77,37.359 112.082,56 116.555,56 135.246,37.359 		"/>
		<polygon fill="#CF142B" points="112.082,23.967 137.379,23.967 137.379,0 142.854,0 142.854,23.889 168.082,23.889 
			168.082,31.878 142.854,31.878 142.854,55.922 137.379,55.922 137.379,31.878 112.082,31.878 		"/>
	</g>
</g>
</svg>
