<?xml version="1.0" encoding="utf-8"?>
<!-- Generator: Adobe Illustrator 17.0.0, SVG Export Plug-In . SVG Version: 6.00 Build 0)  -->
<!DOCTYPE svg PUBLIC "-//W3C//DTD SVG 1.1//EN" "http://www.w3.org/Graphics/SVG/1.1/DTD/svg11.dtd">
<svg version="1.1" id="Layer_1" xmlns="http://www.w3.org/2000/svg" xmlns:xlink="http://www.w3.org/1999/xlink" x="0px" y="0px"
	 width="89.361px" height="623.261px" viewBox="0 0 89.361 623.261" enable-background="new 0 0 89.361 623.261"
	 xml:space="preserve">
<g>
	<g>
		<circle fill="none" stroke="#FFFFFF" stroke-width="2" stroke-miterlimit="10" cx="28.337" cy="323.742" r="2.5"/>
		<path fill="none" stroke="#FFFFFF" stroke-width="2" stroke-miterlimit="10" d="M28.337,326.241c-2.762,0-5,2.238-5,5.001v1.999
			h10v-1.999C33.337,328.479,31.101,326.241,28.337,326.241z"/>
	</g>
	<g>
		<circle fill="none" stroke="#FFFFFF" stroke-width="2" stroke-miterlimit="10" cx="44.203" cy="323.742" r="2.5"/>
		<path fill="none" stroke="#FFFFFF" stroke-width="2" stroke-miterlimit="10" d="M44.203,326.241c-2.762,0-5,2.238-5,5.001v1.999
			h10v-1.999C49.203,328.479,46.964,326.241,44.203,326.241z"/>
	</g>
	<g>
		<circle fill="none" stroke="#FFFFFF" stroke-width="2" stroke-miterlimit="10" cx="60.067" cy="323.742" r="2.5"/>
		<path fill="none" stroke="#FFFFFF" stroke-width="2" stroke-miterlimit="10" d="M60.067,326.241c-2.761,0-5,2.238-5,5.001v1.999
			h10v-1.999C65.067,328.479,62.83,326.241,60.067,326.241z"/>
	</g>
	<path fill="#FFFFFF" d="M63.632,294.176c0-2.016-1.641-3.656-3.656-3.656H28.33c-2.016,0-3.654,1.641-3.654,3.656v13.08
		c0,2.016,1.639,3.654,3.654,3.654h2.883l-0.053,0.346c-0.471,3.109-2.343,5.957-2.359,5.985c-0.24,0.362-0.225,0.838,0.041,1.181
		c0.26,0.34,0.736,0.483,1.129,0.348c0.303-0.103,7.43-2.537,8.477-7.619l0.049-0.24h2.287l2.404,7.216
		c0.137,0.416,0.525,0.695,0.965,0.695s0.828-0.279,0.967-0.695l2.404-7.216h2.281l0.051,0.24c1.055,5.133,8.404,7.594,8.478,7.619
		c0.407,0.141,0.878-0.012,1.136-0.348c0.262-0.343,0.277-0.821,0.037-1.185c-0.02-0.027-1.887-2.837-2.359-5.981l-0.053-0.346
		h2.883c2.016,0,3.656-1.639,3.656-3.654v-13.08H63.632z M61.595,307.256c0,0.893-0.725,1.617-1.619,1.617h-3.955
		c-0.563,0-1.02,0.457-1.02,1.02c0,1.502,0.344,3.155,1.02,4.915l0.322,0.841l-0.763-0.479c-2.495-1.566-3.815-3.394-3.815-5.277
		c0-0.563-0.457-1.02-1.02-1.02H46.79c-0.437,0-0.825,0.281-0.966,0.698l-1.671,5.011l-1.671-5.012
		c-0.137-0.412-0.524-0.688-0.961-0.688l-3.961-0.01c-0.562,0-1.019,0.457-1.019,1.02c0,2.359-2.075,4.178-3.817,5.289l-0.771,0.49
		l0.33-0.852c0.678-1.758,1.023-3.416,1.023-4.928c0-0.563-0.457-1.02-1.02-1.02H28.33c-0.892,0-1.618-0.725-1.618-1.617v-13.08
		c0-0.893,0.727-1.619,1.618-1.619h31.646c0.895,0,1.619,0.727,1.619,1.619C61.595,294.174,61.595,307.256,61.595,307.256z"/>
</g>
<g>
	<path fill="#FFFFFF" d="M53.343,60.271c0-1.409,0.879-3.515,1.881-4.509c0.207-0.208,5.092-5.17,5.092-10.65
		c-0.006-8.286-6.75-15.027-15.031-15.027c-8.283,0-15.021,6.741-15.021,15.027c0,5.584,5.041,10.595,5.092,10.646
		c1.002,0.996,1.879,3.104,1.879,4.513v7.309c0,2.208,1.799,4.006,4.008,4.006h8.096c2.209,0,4.006-1.798,4.006-4.006v-7.309H53.343
		z M51.421,67.577c-0.004,1.15-0.938,2.086-2.084,2.086h-8.1c-1.148,0-2.084-0.936-2.084-2.086v-1.32h12.268
		C51.421,66.257,51.421,67.577,51.421,67.577z M39.154,64.33v-3.375H51.42v3.375H39.154z M51.648,58.602l-0.104,0.432H39.031
		l-0.104-0.429c-0.393-1.628-1.24-3.241-2.211-4.208c-0.045-0.042-4.531-4.534-4.531-9.286c0-7.224,5.877-13.102,13.1-13.102
		c7.225,0,13.102,5.878,13.102,13.102c0.002,4.595-4.336,9.09-4.52,9.281C52.886,55.359,52.037,56.973,51.648,58.602z"/>
	<g>
		<path fill="#FFFFFF" d="M45.291,26.553c-0.553,0-1-0.449-1-1v-8c0-0.553,0.447-1,1-1c0.551,0,1,0.447,1,1v8
			C46.291,26.104,45.841,26.553,45.291,26.553z"/>
	</g>
	<g>
		<path fill="#FFFFFF" d="M58,31.588c-0.391-0.391-0.391-1.025,0-1.416l5.658-5.656c0.391-0.391,1.023-0.391,1.414,0
			c0.391,0.39,0.391,1.023,0,1.414l-5.658,5.657C59.025,31.978,58.39,31.978,58,31.588z"/>
	</g>
	<g>
		<path fill="#FFFFFF" d="M25.376,24.83c0.391-0.391,1.023-0.391,1.414,0l5.656,5.657c0.391,0.392,0.391,1.024,0,1.414
			c-0.391,0.392-1.023,0.392-1.414,0l-5.656-5.657C24.986,25.854,24.986,25.221,25.376,24.83z"/>
	</g>
</g>
<g>
	<g>
		
			<polygon fill="none" stroke="#FFFFFF" stroke-width="2" stroke-linecap="round" stroke-linejoin="round" stroke-miterlimit="10" points="
			25.96,243.83 62.632,243.83 62.632,225.964 44.74,201.83 25.898,225.901 		"/>
		
			<polyline fill="none" stroke="#FFFFFF" stroke-width="2" stroke-linecap="round" stroke-linejoin="round" stroke-miterlimit="10" points="
			25.898,225.901 35.792,233.048 44.74,225.84 53.105,233.048 62.632,225.964 		"/>
		
			<polyline fill="none" stroke="#FFFFFF" stroke-width="2" stroke-linecap="round" stroke-linejoin="round" stroke-miterlimit="10" points="
			35.929,214.033 44.74,217.188 53.105,214.033 		"/>
	</g>
	<line fill="none" stroke="#FFFFFF" stroke-width="2" stroke-miterlimit="10" x1="35.681" y1="232.876" x2="35.681" y2="243.625"/>
	<line fill="none" stroke="#FFFFFF" stroke-width="2" stroke-miterlimit="10" x1="53.181" y1="232.708" x2="53.181" y2="243.459"/>
</g>
<path fill="#FFFFFF" d="M61.884,382.268h-36c-2.207,0-4,1.795-4,4v28c0,2.207,1.793,4,4,4h36c2.205,0,4-1.793,4-4v-28
	C65.884,384.063,64.089,382.268,61.884,382.268z M49.958,400.035l13.911-13.909c0.004,0.047,0.016,0.092,0.016,0.143v27.692
	L49.958,400.035z M61.884,384.268c0.297,0,0.573,0.07,0.828,0.186l-17.078,17.08c-0.779,0.78-2.049,0.78-2.828,0l-17.234-17.236
	c0.104-0.014,0.204-0.029,0.313-0.029h35.999V384.268z M24.261,415.429c-0.029-0.041-0.054-0.081-0.078-0.122h0.078V415.429z
	 M23.917,414.6c-0.02-0.11-0.033-0.22-0.033-0.332v-28c0-0.246,0.051-0.479,0.131-0.696l14.465,14.463L23.917,414.6z
	 M25.884,416.268c-0.24,0-0.469-0.051-0.682-0.128l14.691-14.69l1.496,1.498c1.561,1.559,4.097,1.559,5.658,0l1.496-1.498
	l14.467,14.469c-0.32,0.221-0.709,0.35-1.127,0.35H25.884V416.268z"/>
<g>
	<g>
		<path fill="#FFFFFF" d="M44.777,154.666c-11.579,0-21-9.42-21-21s9.421-21,21-21c11.58,0,21,9.42,21,21
			S56.357,154.666,44.777,154.666z M44.777,114.666c-10.477,0-19,8.524-19,19c0,10.477,8.523,19,19,19s19-8.523,19-19
			C63.777,123.19,55.253,114.666,44.777,114.666z"/>
	</g>
	<path fill="#FFFFFF" d="M51.777,134.416h-7v-12c0-0.551-0.448-1-1-1c-0.553,0-1,0.449-1,1v13c0,0.552,0.447,1,1,1h8
		c0.553,0,1-0.448,1-1S52.33,134.416,51.777,134.416z"/>
</g>
<path fill="#FFFFFF" d="M64.305,488.918H45.516V470.13c0-0.546-0.442-0.989-0.989-0.989c-0.546,0-0.989,0.443-0.989,0.989v18.788
	H24.75c-0.547,0-0.989,0.443-0.989,0.989s0.442,0.989,0.989,0.989h18.789v18.788c0,0.546,0.442,0.989,0.989,0.989
	c0.547,0,0.989-0.443,0.989-0.989v-18.788h18.789c0.546,0,0.989-0.443,0.989-0.989S64.851,488.918,64.305,488.918z"/>
<path fill="#FFFFFF" d="M67.531,563.63c0-0.553-0.447-1-1-1H49.613c-0.276,0-0.54,0.114-0.729,0.315l-4.977,5.306l-5.026-5.309
	c-0.188-0.199-0.451-0.312-0.726-0.312H21.237c-0.552,0-1,0.447-1,1v30c0,0.019,0.007,0.035,0.008,0.054
	c0.003,0.051,0.012,0.1,0.023,0.151c0.01,0.048,0.02,0.095,0.037,0.141c0.006,0.016,0.006,0.033,0.013,0.049
	c0.012,0.029,0.034,0.051,0.048,0.078c0.024,0.044,0.048,0.087,0.079,0.128c0.03,0.039,0.064,0.073,0.099,0.107
	c0.034,0.033,0.067,0.066,0.106,0.094c0.043,0.031,0.089,0.055,0.136,0.08c0.028,0.014,0.051,0.036,0.081,0.047
	c0.011,0.004,0.023,0.003,0.034,0.007c0.107,0.039,0.219,0.065,0.336,0.065h16.918c0.552,0,1-0.447,1-1v-4.284l3.95,4.911
	c0.38,0.471,1.179,0.471,1.559,0l3.95-4.911v4.284c0,0.553,0.447,1,1,1h16.918c0.118,0,0.23-0.026,0.337-0.065
	c0.011-0.004,0.022-0.002,0.033-0.006c0.029-0.011,0.051-0.032,0.078-0.046c0.049-0.025,0.097-0.05,0.141-0.083
	c0.036-0.027,0.067-0.057,0.099-0.088c0.037-0.036,0.073-0.072,0.104-0.113c0.029-0.039,0.053-0.081,0.076-0.124
	c0.015-0.028,0.037-0.05,0.049-0.08c0.007-0.016,0.007-0.033,0.013-0.05c0.017-0.046,0.028-0.094,0.038-0.142
	c0.01-0.05,0.02-0.098,0.023-0.148c0.001-0.019,0.008-0.036,0.008-0.055V563.63z M50.046,564.63h15.485v26.487l-17.899-18.927
	l-2.348-2.483L50.046,564.63z M22.237,564.63h15.488l4.808,5.08l-20.296,21.411V564.63z M49.945,585.564
	c-0.397-0.139-0.845-0.014-1.111,0.316l-4.95,6.154l-4.95-6.154c-0.267-0.33-0.715-0.457-1.111-0.316
	c-0.4,0.142-0.668,0.52-0.668,0.943v6.123H23.562l20.346-21.466l20.3,21.466H50.613v-6.123
	C50.613,586.084,50.346,585.705,49.945,585.564z"/>
</svg>
