<?xml version="1.0" encoding="utf-8"?>
<!-- Generator: Adobe Illustrator 16.0.2, SVG Export Plug-In . SVG Version: 6.00 Build 0)  -->
<!DOCTYPE svg PUBLIC "-//W3C//DTD SVG 1.1//EN" "http://www.w3.org/Graphics/SVG/1.1/DTD/svg11.dtd">
<svg version="1.1" id="Layer_1" xmlns="http://www.w3.org/2000/svg" xmlns:xlink="http://www.w3.org/1999/xlink" x="0px" y="0px"
	 width="235px" height="235px" viewBox="0 0 235 235" enable-background="new 0 0 235 235" xml:space="preserve">
	 <g xmlns="http://www.w3.org/2000/svg">
        <path fill="#2AB69D" d="M86.303,135.396c-4.716-5.686-7.069-9.604-5.888-10.786c7.012-7.011,85.588-78.795,85.588-78.795   l67.902,67.902C231.903,51.132,180.573,1,117.501,1C53.157,1,0.999,53.157,0.999,117.5c0,64.34,52.158,116.5,116.502,116.5   c4.646,0,9.221-0.304,13.726-0.833l-66.251-66.25L86.303,135.396z"/>
        <path fill="#2A9884" d="M234.001,117.5c0-1.271-0.056-2.525-0.096-3.782l-67.902-67.902c0,0-78.576,71.784-85.588,78.795   c-1.182,1.182,1.172,5.101,5.888,10.786l-21.327,31.521l66.251,66.25C189.095,226.372,234.001,177.192,234.001,117.5z"/>
        <circle fill="#FFFFFF" cx="117.302" cy="117.888" r="69.252"/>
        <path fill="none" d="M117.305,90.009c-15.373,0-27.878,12.506-27.878,27.879c0,15.369,12.505,27.879,27.878,27.879   c6.299,0,12.113-2.103,16.787-5.64l-9.773-9.773c-2.076,1.172-4.466,1.849-7.014,1.849c-7.893,0-14.315-6.421-14.315-14.314   c0-7.895,6.423-14.318,14.315-14.318c7.894,0,14.317,6.424,14.317,14.318c0,3.207-1.073,6.161-2.862,8.551l9.642,9.641   c4.22-4.887,6.78-11.244,6.78-18.191C145.182,102.515,132.677,90.009,117.305,90.009z"/>
        <path fill="none" d="M117.305,59.273c-32.321,0-58.614,26.295-58.614,58.614c0,32.318,26.293,58.611,58.614,58.611   c14.775,0,28.279-5.506,38.6-14.559l-12.561-12.562c-7.078,5.862-16.154,9.392-26.039,9.392c-22.544,0-40.882-18.343-40.882-40.883   c0-22.543,18.338-40.885,40.882-40.885c22.54,0,40.883,18.342,40.883,40.885c0,10.533-4.007,20.147-10.574,27.404l12.535,12.535   c9.773-10.477,15.771-24.518,15.771-39.939C175.919,85.568,149.625,59.273,117.305,59.273z"/>
        <path fill="#E65848" d="M117.305,176.499c-32.321,0-58.614-26.293-58.614-58.611c0-32.319,26.293-58.614,58.614-58.614   c32.32,0,58.614,26.295,58.614,58.614c0,15.422-5.997,29.463-15.771,39.939l9.19,9.189c12.124-12.834,19.582-30.121,19.582-49.129   c0-39.49-32.129-71.619-71.616-71.619c-39.491,0-71.618,32.129-71.618,71.619s32.127,71.615,71.618,71.615   c18.359,0,35.123-6.951,47.811-18.352l-9.211-9.211C145.584,170.993,132.08,176.499,117.305,176.499z"/>
        <path fill="#E65848" d="M114.394,116.25c1.152-1.155,3.024-1.155,4.179,0l10.188,10.188c1.789-2.39,2.862-5.344,2.862-8.551   c0-7.895-6.424-14.318-14.317-14.318c-7.893,0-14.315,6.424-14.315,14.318c0,7.894,6.423,14.314,14.315,14.314   c2.548,0,4.938-0.677,7.014-1.849l-9.925-9.924C113.237,119.274,113.237,117.405,114.394,116.25z"/>
        <path fill="#E65848" d="M117.305,145.767c-15.373,0-27.878-12.51-27.878-27.879c0-15.373,12.505-27.879,27.878-27.879   c15.372,0,27.877,12.506,27.877,27.879c0,6.947-2.561,13.305-6.78,18.191l9.212,9.213c6.567-7.257,10.574-16.871,10.574-27.404   c0-22.543-18.343-40.885-40.883-40.885c-22.544,0-40.882,18.342-40.882,40.885c0,22.54,18.338,40.883,40.882,40.883   c9.885,0,18.961-3.529,26.039-9.392l-9.252-9.252C129.418,143.664,123.604,145.767,117.305,145.767z"/>
        <path fill="#CCCCCC" d="M117.305,116.573c-0.724,0-1.313,0.592-1.313,1.314s0.59,1.313,1.313,1.313c0.72,0,1.312-0.59,1.312-1.313   S118.024,116.573,117.305,116.573z"/>
        <path fill="#CCCCCC" d="M124.318,130.541l9.773,9.773c1.576-1.193,3.02-2.553,4.31-4.048l-9.642-9.641   C127.567,128.218,126.059,129.558,124.318,130.541z"/>
        <path fill="#CCCCCC" d="M143.344,149.379l12.561,12.562c1.482-1.301,2.9-2.672,4.244-4.113l-12.535-12.535   C146.29,146.753,144.863,148.12,143.344,149.379z"/>
        <path fill="#E65848" d="M169.339,167.017l-9.19-9.189c-1.344,1.441-2.762,2.813-4.244,4.113l9.211,9.211   C166.582,169.833,167.985,168.449,169.339,167.017z"/>
        <path fill="#B24537" d="M169.339,167.017l-9.19-9.189c-1.344,1.441-2.762,2.813-4.244,4.113l9.211,9.211   C166.582,169.833,167.985,168.449,169.339,167.017z"/>
        <path fill="#E65848" d="M128.76,126.438l-10.188-10.188c-1.154-1.155-3.026-1.155-4.179,0c-1.156,1.155-1.156,3.024,0,4.18   l9.925,9.924C126.059,129.37,127.567,128.03,128.76,126.438z M117.305,119.2c-0.724,0-1.313-0.59-1.313-1.313   s0.59-1.314,1.313-1.314c0.72,0,1.312,0.592,1.312,1.314S118.024,119.2,117.305,119.2z"/>
        <path fill="#B24537" d="M128.76,126.438l-10.188-10.188c-1.154-1.155-3.026-1.155-4.179,0c-1.156,1.155-1.156,3.024,0,4.18   l9.925,9.924C126.059,129.37,127.567,128.03,128.76,126.438z M117.305,119.2c-0.724,0-1.313-0.59-1.313-1.313   s0.59-1.314,1.313-1.314c0.72,0,1.312,0.592,1.312,1.314S118.024,119.2,117.305,119.2z"/>
        <path fill="#E65848" d="M147.613,145.292l-9.212-9.213c-1.29,1.495-2.733,2.854-4.31,4.048l9.252,9.252   C144.863,148.12,146.29,146.753,147.613,145.292z"/>
        <path fill="#B24537" d="M147.613,145.292l-9.212-9.213c-1.29,1.495-2.733,2.854-4.31,4.048l9.252,9.252   C144.863,148.12,146.29,146.753,147.613,145.292z"/>
        <path fill="#343844" d="M153.024,81.544c-1.612,1.61-3.311,1.104-3.78-1.123l-2.646-12.559c-0.469-2.229,0.463-5.367,2.073-6.977   l14.448-14.449c1.607-1.607,3.311-1.104,3.777,1.123l2.648,12.563c0.466,2.225-0.467,5.363-2.074,6.975L153.024,81.544z"/>
        <path fill="#343844" d="M153.267,81.788c-1.611,1.607-1.107,3.31,1.124,3.779l12.56,2.646c2.226,0.469,5.365-0.467,6.975-2.074   l14.448-14.449c1.608-1.609,1.103-3.309-1.122-3.777l-12.563-2.647c-2.227-0.468-5.364,0.466-6.974,2.073L153.267,81.788z"/>
        <g>
            <path fill="#C5C7C9" d="M116.706,120.821c-0.758,0-1.514-0.286-2.09-0.865c-1.154-1.154-1.154-3.025,0-4.179l57.453-57.454    c1.152-1.156,3.023-1.156,4.18,0c1.151,1.156,1.151,3.025,0,4.179l-57.453,57.454C118.215,120.535,117.46,120.821,116.706,120.821    L116.706,120.821z"/>
        </g>
        <path fill="#F1F1F2" d="M172.069,58.323l-57.453,57.454c-0.952,0.946-1.107,2.372-0.497,3.492c0.438,0.237,0.919,0.37,1.403,0.37   c0.757,0,1.514-0.287,2.09-0.866l57.454-57.454c0.946-0.945,1.103-2.371,0.493-3.492C174.439,57.22,173.013,57.376,172.069,58.323z   "/>
        <path fill="#FFFFFF" d="M172.154,58.611l-56.944,57.192c-0.484,0.48-0.561,1.205-0.252,1.773c0.222,0.125,0.467,0.189,0.711,0.189   c0.387,0,0.773-0.148,1.063-0.441l56.946-57.188c0.479-0.483,0.56-1.207,0.249-1.779C173.36,58.052,172.634,58.132,172.154,58.611z   "/>
     </g>
</svg>
