<?xml version="1.0" encoding="utf-8"?>
<!-- Generator: Adobe Illustrator 16.0.2, SVG Export Plug-In . SVG Version: 6.00 Build 0)  -->
<!DOCTYPE svg PUBLIC "-//W3C//DTD SVG 1.1//EN" "http://www.w3.org/Graphics/SVG/1.1/DTD/svg11.dtd">
<svg version="1.1" id="Layer_1" xmlns="http://www.w3.org/2000/svg" xmlns:xlink="http://www.w3.org/1999/xlink" x="0px" y="0px"
	 width="556px" height="344px" viewBox="0 0 556 344" enable-background="new 0 0 556 344" xml:space="preserve">
<rect fill="#FF6848" width="556" height="344"/>
<g>
	<path fill="#FFFF68" d="M185.03,172.248c0,23.003-18.65,41.649-41.649,41.649c-23.003,0-41.649-18.646-41.649-41.649
		c0-23.001,18.646-41.646,41.649-41.646C166.379,130.601,185.03,149.247,185.03,172.248z"/>
	<g>
		<circle fill="#FFFF68" cx="234.182" cy="172.248" r="41.647"/>
		<circle fill="#FFFF68" cx="198.613" cy="136.679" r="6.078"/>
	</g>
	<g>
		<path fill="#FFFF68" d="M457.792,207.821c0,3.353-2.719,6.075-6.074,6.075c-3.354,0-6.078-2.723-6.078-6.075
			c0-3.358,2.724-6.079,6.078-6.079C455.073,201.742,457.792,204.463,457.792,207.821z"/>
		<path fill="#FFFF68" d="M457.792,172.248c0,23.003-18.646,41.649-41.645,41.649c-23.004,0-41.649-18.646-41.649-41.649
			c0-23.001,18.646-41.646,41.649-41.646C439.146,130.601,457.792,149.247,457.792,172.248z"/>
	</g>
	<g>
		<path fill="#FFFF68" d="M325.104,213.719c0-23.001,18.646-41.647,41.649-41.647c0.076,0,0.153,0,0.234,0.002
			c-0.095-22.922-18.704-41.473-41.645-41.473c-23.003,0-41.648,18.646-41.648,41.646c0,22.922,18.519,41.518,41.409,41.645
			C325.104,213.834,325.104,213.777,325.104,213.719z"/>
	</g>
</g>
</svg>
