<?xml version="1.0" encoding="utf-8"?>
<!-- Generator: Adobe Illustrator 16.0.2, SVG Export Plug-In . SVG Version: 6.00 Build 0)  -->
<!DOCTYPE svg PUBLIC "-//W3C//DTD SVG 1.1//EN" "http://www.w3.org/Graphics/SVG/1.1/DTD/svg11.dtd">
<svg version="1.1" id="Layer_1" xmlns="http://www.w3.org/2000/svg" xmlns:xlink="http://www.w3.org/1999/xlink" x="0px" y="0px"
	 width="425px" height="92px" viewBox="0 0 425 92" enable-background="new 0 0 425 92" xml:space="preserve">
<g>
	<defs>
		<rect id="SVGID_1_" x="89.745" y="-792.653" width="1831" height="389"/>
	</defs>
	<clipPath id="SVGID_2_">
		<use xlink:href="#SVGID_1_"  overflow="visible"/>
	</clipPath>
	<g transform="matrix(1 0 0 1 7.629395e-006 -1.220703e-004)" clip-path="url(#SVGID_2_)">
		
			<image overflow="visible" width="2560" height="1600" xlink:href="../matematica site/фон/119954-2560x1600.jpg"  transform="matrix(0.7152 0 0 0.7152 89.7427 -1080.8584)">
		</image>
	</g>
</g>
<g>
	<path fill="#FFFFFF" d="M23.348,55.901c7.601,0.227,12.702-7.68,11.391-17.67c-1.312-9.984-8.546-17.994-16.141-18.225
		c-7.605-0.225-12.701,7.416-11.39,17.404C8.52,47.394,15.745,55.677,23.348,55.901z"/>
	<path fill="#FFFFFF" d="M24.389,72.548c-2.244-2.184-3.96-4.807-3.96-8.102c0-1.955,0.732-3.736,1.605-5.406
		c-0.89,0.066-1.686,0.289-2.626,0.289C11.117,59.329,2,55.849,1,50.407v27.502c4-3.26,11.268-5.342,18.577-5.342
		C21.358,72.567,22.694,72.548,24.389,72.548z"/>
	<path fill="#FFFFFF" d="M29.792,76.464c-2.24-0.725-4.594-1.15-7.235-1.178c-8.792-0.096-16.678,3.603-19.806,9.44
		c2.175,4.02,6.426,6.229,11.316,6.229h27.717c0.04,0,0.089-0.185,0.089-0.688c0-1.035-0.096-1.509-0.33-2.497
		C40.297,82.896,35.938,80.741,29.792,76.464z"/>
	<path fill="#FFFFFF" d="M91,35.956V14.858c0-7.102-5.546-13.902-12.647-13.902H14.067C6.966,0.956,1,7.757,1,14.858v12.91
		c4-6.162,12.461-10.813,21.285-10.813c7.374,0,29.511,0,29.511,0l-6.607,5h-9.355c6.208,0,9.515,8.95,9.515,16.366
		c0,6.244-3.457,10.69-8.337,14.509c-4.763,3.721-5.663,5.396-5.663,8.562c0,2.697,5.101,7.346,7.769,9.24
		c7.796,5.514,10.316,9.858,10.316,18.409c0,0.9-0.1,1.914-0.246,1.914h29.165C85.454,90.956,91,86.243,91,79.144V40.956H80v18h-5
		v-18H59v-5h16v-16h5v16H91z"/>
</g>
<path fill="#FFFFFF" d="M412.071,0.956h-64.286C340.684,0.956,334,7.331,334,14.433v64.285c0,7.1,6.684,12.238,13.785,12.238H384
	v-39h-5v-9h5v-8.832c0-2.447,0.85-4.576,1.611-6.391c0.76-1.818,2.022-3.305,3.311-4.461c1.293-1.158,2.932-2.468,4.69-3.026
	c1.756-0.561,3.711-1.29,5.632-1.29H406v13h-3.524c-1.11,0-2.416,0.362-3.071,1.052C398.75,33.699,398,34.651,398,35.839v7.117h8v9
	h-8v39h14.071c7.101,0,11.929-5.139,11.929-12.238V14.433C424,7.331,419.171,0.956,412.071,0.956z"/>
<path fill="#FFFFFF" d="M313,13.901c0-7.102-5.756-12.945-12.857-12.945h-64.285C228.756,0.956,223,6.8,223,13.901v64.285
	c0,7.1,5.756,12.77,12.857,12.77h64.285c7.101,0,12.857-5.67,12.857-12.77V13.901z M289.844,35.54
	c1.361,14.219-10.099,34.029-32.423,34.174c-6.091,0.039-11.79-1.68-16.661-4.596c0.132,0,8.422,0.578,16.105-5.07
	c-5.021-0.246-9.229-3.584-10.764-8.146c0.963,0.248,3.463,0.695,5.544,0.111c-5.198-1.117-9.144-5.6-9.442-11.057
	c1.408,0.615,2.954,0.965,4.58,0.99c-2.799-2.193-6.881-8.342-2.985-15.438c5.443,7.031,13.89,11.615,23.42,11.822
	c-0.038-0.102-0.245-1.922-0.245-2.361c0-5.641,4.366-11.459,11.459-11.459c3.357,0,6.373,1.443,8.471,3.742
	c3.213-0.6,6.505-2.455,7.188-2.875c-0.896,2.625-2.717,4.822-5.074,6.201c0.018,0.039,0.035,0.078,0.053,0.119
	c2.224-0.27,4.352-0.857,6.334-1.719C294.263,32.425,292.288,34.401,289.844,35.54z"/>
<g>
	<path fill="#FFFFFF" d="M163.777,45.446c1.25-0.436,2.107-1.176,2.586-2.213c0.477-1.035,0.715-2.102,0.715-3.191
		c0-2.402-0.762-4.502-2.279-5.832c-1.523-1.328-3.859-2.23-7.01-2.23h-10.968v27.326h11.519c2.711,0,4.91-0.682,6.596-2.211
		c1.684-1.527,2.529-3.541,2.529-6.123c0-1.059-0.295-2.098-0.881-3.174C165.998,46.728,165.063,45.956,163.777,45.446z
		 M153.25,38.413h3.549c0.586,0,1.162,0.248,1.731,0.539c0.565,0.293,0.851,0.91,0.851,1.748c0,0.727-0.264,1.467-0.797,1.813
		c-0.528,0.346-1.125,0.721-1.785,0.721h-3.549V38.413z M159.025,52.302c-0.533,0.436-1.127,0.574-1.787,0.574h-3.988v-4.82h3.988
		c0.733,0,1.346,0.254,1.844,0.635c0.491,0.379,0.74,0.943,0.74,1.711C159.822,51.237,159.557,51.862,159.025,52.302z"/>
	<path fill="#FFFFFF" d="M202,13.901c0-7.102-5.756-12.857-12.857-12.857h-64.285C117.756,1.044,112,6.8,112,13.901v64.285
		c0,7.1,5.756,12.857,12.857,12.857h64.285c7.102,0,12.857-5.758,12.857-12.857V13.901z M185.93,68.544
		c0,3.549-2.879,6.428-6.43,6.428h-45c-3.551,0-6.429-2.879-6.429-6.428v-45c0-3.551,2.878-6.43,6.429-6.43h45
		c3.551,0,6.43,2.879,6.43,6.43V68.544z"/>
</g>
</svg>
