<?xml version="1.0" encoding="utf-8"?>
<!-- Generator: Adobe Illustrator 16.0.2, SVG Export Plug-In . SVG Version: 6.00 Build 0)  -->
<!DOCTYPE svg PUBLIC "-//W3C//DTD SVG 1.1//EN" "http://www.w3.org/Graphics/SVG/1.1/DTD/svg11.dtd">
<svg version="1.1" id="Layer_1" xmlns="http://www.w3.org/2000/svg" xmlns:xlink="http://www.w3.org/1999/xlink" x="0px" y="0px"
	 width="556px" height="344px" viewBox="0 0 556 344" enable-background="new 0 0 556 344" xml:space="preserve">
<rect fill="#32FFFF" width="556" height="344"/>
<g>
	<path fill="#FFFFFF" d="M328.817,278.415c-36.322,0-65.768-47.645-65.768-106.416c0-58.77,29.445-106.414,65.768-106.414
		c0.35,0,0.699,0.012,1.047,0.022V65.5H228.683v0.008c-36.16,0.304-65.419,47.823-65.419,106.407s29.259,106.103,65.419,106.409
		v0.176h101.181v-0.107C329.517,278.403,329.167,278.415,328.817,278.415z"/>
	<g>
		<path fill="#969696" d="M293.038,197.151c-2.486,16.626-7.391,31.729-14.069,44.282c12.06,22.66,29.918,37.011,49.849,37.011
			c30.974,0,56.943-34.648,63.919-81.293H293.038z"/>
		<path fill="#969696" d="M328.817,65.643c-19.931,0-37.789,14.348-49.849,37.01c6.679,12.555,11.583,27.656,14.069,44.284h99.698
			C385.761,100.29,359.791,65.643,328.817,65.643z"/>
	</g>
</g>
</svg>
