<?xml version="1.0" encoding="utf-8"?>
<!-- Generator: Adobe Illustrator 16.0.2, SVG Export Plug-In . SVG Version: 6.00 Build 0)  -->
<!DOCTYPE svg PUBLIC "-//W3C//DTD SVG 1.1//EN" "http://www.w3.org/Graphics/SVG/1.1/DTD/svg11.dtd">
<svg version="1.1" id="Layer_1" xmlns="http://www.w3.org/2000/svg" xmlns:xlink="http://www.w3.org/1999/xlink" x="0px" y="0px"
	 width="1830px" height="1600px" viewBox="0 0 1830 1600" enable-background="new 0 0 1830 1600" xml:space="preserve">
<rect x="0" fill="#32FFFF" width="1830" height="800"/>
<g>
	<path fill="#FFFFFF" d="M795.875,416.209c-0.479-0.859-1.338-1.373-2.302-1.373c-0.43,0-0.848,0.102-1.245,0.302
		c-2.312,1.324-5.084,2.024-8.021,2.024c-9.282,0-16.833-7.552-16.833-16.833c0-9.282,7.551-16.833,16.833-16.833
		c2.936,0,5.709,0.7,8.021,2.024c0.397,0.199,0.815,0.302,1.245,0.302c0.964,0,1.824-0.514,2.302-1.373
		c0.642-1.208,0.158-2.766-1.079-3.483c-3.263-1.724-6.889-2.634-10.489-2.634c-12.129,0-21.997,9.868-21.997,21.997
		s9.868,21.997,21.997,21.997c3.6,0,7.226-0.91,10.489-2.635C796.034,418.973,796.517,417.417,795.875,416.209z"/>
	<path fill="#FFFFFF" d="M829.414,417.163h-14.902v-36.281c0-1.406-1.144-2.549-2.549-2.549c-1.466,0-2.617,1.119-2.617,2.549
		v38.896c0,1.43,1.15,2.549,2.617,2.549h17.451c1.417,0,2.615-1.166,2.615-2.549C832.029,418.336,830.854,417.163,829.414,417.163z"
		/>
	<path fill="#FFFFFF" d="M847.743,378.333c-1.405,0-2.549,1.143-2.549,2.549v38.896c0,1.406,1.144,2.549,2.549,2.549
		c1.406,0,2.548-1.143,2.548-2.549v-38.896C850.292,379.475,849.149,378.333,847.743,378.333z"/>
	<path fill="#FFFFFF" d="M891.174,378.333h-23.312c-1.406,0-2.548,1.143-2.548,2.549v38.896c0,1.406,1.142,2.549,2.548,2.549
		c1.417,0,2.615-1.166,2.615-2.549v-16.899h16.833c1.406,0,2.549-1.145,2.549-2.549c0-1.405-1.143-2.549-2.549-2.549h-16.833
		v-14.284h20.696c1.443,0,2.615-1.174,2.615-2.615C893.789,379.499,892.591,378.333,891.174,378.333z"/>
	<path fill="#FFFFFF" d="M929.414,378.333h-23.311c-1.407,0-2.549,1.143-2.549,2.549c0,1.467,1.119,2.615,2.549,2.615h9.106v36.281
		c0,1.406,1.145,2.549,2.549,2.549c1.417,0,2.617-1.166,2.617-2.549v-36.281h9.039c1.441,0,2.615-1.174,2.615-2.615
		C932.029,379.499,930.832,378.333,929.414,378.333z"/>
	<path fill="#FFFFFF" d="M956.604,378.333c-11.577,0-20.998,9.868-20.998,21.997s9.421,21.997,20.998,21.997
		c11.616,0,21.066-9.868,21.066-21.997S968.221,378.333,956.604,378.333z M956.604,417.163c-8.729,0-15.834-7.552-15.834-16.833
		c0-9.282,7.104-16.833,15.834-16.833c8.769,0,15.901,7.551,15.901,16.833C972.506,409.611,965.373,417.163,956.604,417.163z"/>
	<path fill="#FFFFFF" d="M1015.987,378.333c-1.467,0-2.615,1.119-2.615,2.549v30.749l-22.506-32.195
		c-0.471-0.684-1.254-1.103-2.054-1.103c-1.637,0-2.615,1.296-2.615,2.549v38.896c0,1.406,1.145,2.549,2.549,2.549
		c1.417,0,2.615-1.166,2.615-2.549v-30.749l22.507,32.194c0.478,0.694,1.268,1.104,2.119,1.104c1.383,0,2.549-1.166,2.549-2.549
		v-38.896C1018.536,379.475,1017.394,378.333,1015.987,378.333z"/>
</g>
<g>
	<path fill="#FFFFFF" d="M1072.654,408.186c-0.375-8.085-10.936-11.658-13.051-12.292l-0.12-0.044
		c-2.367-0.97-5.944-2.438-5.944-6.744v-0.302c0.086-3.096,3.103-5.341,7.175-5.341l0.473,0.001c1.528,0.085,3.076,0.667,4.25,1.596
		c0.441,0.314,0.943,0.466,1.538,0.466c0.821,0,1.568-0.368,2.104-1.038c0.32-0.399,0.512-0.964,0.512-1.51
		c0-0.76-0.373-1.497-1.022-2.023c-2.201-1.629-4.824-2.596-7.205-2.656h-0.583c-3.063,0-6.095,0.991-8.317,2.72l-0.022,0.018
		c-2.452,1.825-3.873,4.511-3.999,7.563v0.506c0,5.412,3.181,9.299,9.453,11.552l0.074,0.027l0.232,0.115
		c2.474,0.746,9.088,3.607,9.354,7.67l0.001,0.086v0.265c0,2.143-0.847,4.123-2.449,5.726c-1.646,1.646-3.925,2.517-6.591,2.517
		h-0.364c-3.235-0.079-5.936-1.811-7.225-4.632c-0.414-0.91-1.355-1.496-2.401-1.496c-0.437,0-0.738,0.059-1.01,0.194l-0.045,0.021
		c-0.921,0.419-1.494,1.313-1.494,2.334c0,0.463,0.064,0.815,0.194,1.078l0.016,0.031c2.109,4.521,6.612,7.444,11.754,7.634h0.509
		c4.029,0,7.721-1.472,10.395-4.145c2.422-2.421,3.811-5.798,3.811-9.262V408.186z"/>
	<path fill="#FFFFFF" d="M1106.805,378.366h-23.312c-1.405,0-2.549,1.143-2.549,2.549c0,1.467,1.12,2.615,2.549,2.615h9.105v36.281
		c0,1.406,1.145,2.549,2.551,2.549c1.417,0,2.615-1.167,2.615-2.549V383.53h9.04c1.442,0,2.614-1.174,2.614-2.615
		C1109.419,379.532,1108.222,378.366,1106.805,378.366z"/>
	<path fill="#FFFFFF" d="M1144.969,417.196h-18.766v-14.284h14.902c1.406,0,2.549-1.145,2.549-2.549
		c0-1.405-1.143-2.549-2.549-2.549h-14.902V383.53h18.766c1.467,0,2.615-1.148,2.615-2.615c0-1.43-1.148-2.549-2.615-2.549h-21.314
		c-1.466,0-2.615,1.119-2.615,2.549v38.896c0,1.43,1.149,2.549,2.615,2.549h21.314c1.467,0,2.615-1.119,2.615-2.549
		C1147.584,418.344,1146.436,417.196,1144.969,417.196z"/>
	<path fill="#FFFFFF" d="M1183.132,417.196h-18.764v-14.284h14.9c1.406,0,2.549-1.145,2.549-2.549c0-1.405-1.143-2.549-2.549-2.549
		h-14.9V383.53h18.764c1.466,0,2.616-1.148,2.616-2.615c0-1.43-1.15-2.549-2.616-2.549h-21.313c-1.467,0-2.615,1.119-2.615,2.549
		v38.896c0,1.43,1.148,2.549,2.615,2.549h21.313c1.466,0,2.616-1.119,2.616-2.549
		C1185.748,418.344,1184.598,417.196,1183.132,417.196z"/>
	<path fill="#FFFFFF" d="M1217.433,417.196h-14.901v-36.281c0-1.406-1.143-2.549-2.549-2.549c-1.467,0-2.615,1.119-2.615,2.549
		v38.896c0,1.43,1.148,2.549,2.615,2.549h17.45c1.418,0,2.615-1.167,2.615-2.549C1220.048,418.37,1218.875,417.196,1217.433,417.196
		z"/>
</g>
<path fill="#FFFFFF" d="M699.707,457.961c-19.671,0-35.618-25.804-35.618-57.632s15.947-57.631,35.618-57.631
	c0.189,0,0.379,0.006,0.567,0.012v-0.058h-54.797v0.004c-19.583,0.165-35.429,25.9-35.429,57.627
	c0,31.728,15.846,57.463,35.429,57.628v0.096h54.797v-0.058C700.086,457.955,699.896,457.961,699.707,457.961z"/>
<g>
	<path fill="#969696" d="M680.33,413.951c-1.347,9.005-4.003,17.184-7.62,23.982c6.531,12.271,16.203,20.044,26.997,20.044
		c16.774,0,30.839-18.764,34.617-44.026H680.33z"/>
	<path fill="#969696" d="M699.707,342.729c-10.794,0-20.466,7.771-26.997,20.044c3.617,6.799,6.273,14.978,7.62,23.983h53.994
		C730.546,361.494,716.481,342.729,699.707,342.729z"/>
</g>
<g>
	<g>
		<path fill="#960064" d="M338.327,1016.887c-0.478-0.86-1.338-1.372-2.302-1.372c-0.431,0-0.849,0.102-1.245,0.302
			c-2.313,1.324-5.085,2.023-8.021,2.023c-9.281,0-16.833-7.551-16.833-16.834c0-9.282,7.552-16.832,16.833-16.832
			c2.936,0,5.708,0.7,8.021,2.022c0.396,0.201,0.814,0.304,1.245,0.304c0.964,0,1.824-0.514,2.302-1.374
			c0.642-1.208,0.158-2.764-1.08-3.483c-3.262-1.722-6.888-2.634-10.487-2.634c-12.129,0-21.997,9.868-21.997,21.997
			c0,12.13,9.868,21.998,21.997,21.998c3.6,0,7.226-0.91,10.488-2.633C338.485,1019.651,338.969,1018.096,338.327,1016.887z"/>
		<path fill="#960064" d="M371.865,1017.84h-14.902v-36.281c0-1.405-1.144-2.55-2.549-2.55c-1.466,0-2.615,1.121-2.615,2.55v38.896
			c0,1.43,1.149,2.549,2.615,2.549h17.451c1.417,0,2.615-1.167,2.615-2.549C374.48,1019.014,373.307,1017.84,371.865,1017.84z"/>
		<path fill="#960064" d="M390.195,979.009c-1.406,0-2.549,1.145-2.549,2.55v38.896c0,1.405,1.143,2.549,2.549,2.549
			c1.405,0,2.549-1.144,2.549-2.549v-38.896C392.744,980.153,391.601,979.009,390.195,979.009z"/>
		<path fill="#960064" d="M433.626,979.009h-23.312c-1.405,0-2.549,1.145-2.549,2.55v38.896c0,1.405,1.144,2.549,2.549,2.549
			c1.417,0,2.614-1.167,2.614-2.549v-16.898h16.834c1.405,0,2.549-1.145,2.549-2.551c0-1.405-1.144-2.548-2.549-2.548h-16.834
			v-14.284h20.697c1.442,0,2.615-1.174,2.615-2.615C436.241,980.177,435.043,979.009,433.626,979.009z"/>
		<path fill="#960064" d="M471.866,979.009h-23.313c-1.404,0-2.549,1.145-2.549,2.55c0,1.466,1.12,2.615,2.549,2.615h9.107v36.281
			c0,1.405,1.144,2.549,2.549,2.549c1.418,0,2.615-1.167,2.615-2.549v-36.281h9.041c1.442,0,2.615-1.174,2.615-2.615
			C474.481,980.177,473.284,979.009,471.866,979.009z"/>
		<path fill="#960064" d="M499.058,979.009c-11.579,0-20.999,9.868-20.999,21.997c0,12.13,9.42,21.998,20.999,21.998
			c11.615,0,21.064-9.868,21.064-21.998C520.122,988.877,510.673,979.009,499.058,979.009z M499.058,1017.84
			c-8.731,0-15.835-7.551-15.835-16.834c0-9.282,7.104-16.832,15.835-16.832c8.768,0,15.9,7.55,15.9,16.832
			C514.958,1010.289,507.825,1017.84,499.058,1017.84z"/>
		<path fill="#960064" d="M558.439,979.009c-1.466,0-2.615,1.121-2.615,2.55v30.749l-22.506-32.194
			c-0.471-0.685-1.256-1.104-2.054-1.104c-1.637,0-2.615,1.297-2.615,2.55v38.896c0,1.405,1.144,2.549,2.548,2.549
			c1.419,0,2.616-1.167,2.616-2.549v-30.749l22.506,32.194c0.478,0.694,1.268,1.104,2.12,1.104c1.382,0,2.549-1.167,2.549-2.549
			v-38.896C560.988,980.153,559.845,979.009,558.439,979.009z"/>
	</g>
	<g>
		<path fill="#960064" d="M615.106,1008.862c-0.376-8.084-10.936-11.656-13.051-12.291l-0.121-0.043
			c-2.367-0.971-5.943-2.439-5.943-6.744v-0.304c0.086-3.094,3.104-5.34,7.175-5.34l0.472,0.001
			c1.529,0.085,3.076,0.666,4.252,1.597c0.44,0.314,0.943,0.466,1.537,0.466c0.82,0,1.568-0.367,2.104-1.038
			c0.32-0.4,0.512-0.965,0.512-1.51c0-0.761-0.372-1.497-1.021-2.023c-2.2-1.629-4.824-2.596-7.204-2.657h-0.584
			c-3.063,0-6.095,0.992-8.317,2.721l-0.022,0.017c-2.453,1.826-3.873,4.512-4,7.564v0.507c0,5.411,3.181,9.298,9.454,11.551
			l0.074,0.026l0.231,0.116c2.474,0.745,9.089,3.608,9.353,7.669l0.004,0.085v0.268c0,2.144-0.848,4.122-2.45,5.725
			c-1.646,1.646-3.925,2.518-6.59,2.518l-0.365-0.002c-3.235-0.078-5.936-1.81-7.225-4.63c-0.414-0.91-1.356-1.496-2.401-1.496
			c-0.437,0-0.738,0.058-1.011,0.192l-0.044,0.021c-0.922,0.419-1.494,1.313-1.494,2.334c0,0.463,0.063,0.816,0.194,1.077
			l0.016,0.031c2.109,4.521,6.612,7.445,11.754,7.635h0.509c4.03,0,7.721-1.473,10.394-4.145c2.422-2.421,3.812-5.797,3.812-9.261
			V1008.862z"/>
		<path fill="#960064" d="M649.257,979.042h-23.312c-1.406,0-2.549,1.144-2.549,2.55c0,1.467,1.119,2.615,2.549,2.615h9.106v36.281
			c0,1.406,1.144,2.55,2.549,2.55c1.418,0,2.615-1.168,2.615-2.55v-36.281h9.041c1.441,0,2.615-1.174,2.615-2.615
			C651.872,980.209,650.674,979.042,649.257,979.042z"/>
		<path fill="#960064" d="M687.421,1017.873h-18.765v-14.285h14.901c1.405,0,2.549-1.143,2.549-2.548s-1.144-2.548-2.549-2.548
			h-14.901v-14.285h18.765c1.466,0,2.615-1.148,2.615-2.615c0-1.431-1.149-2.55-2.615-2.55h-21.313c-1.467,0-2.615,1.119-2.615,2.55
			v38.896c0,1.431,1.148,2.55,2.615,2.55h21.313c1.466,0,2.615-1.119,2.615-2.55
			C690.036,1019.021,688.887,1017.873,687.421,1017.873z"/>
		<path fill="#960064" d="M725.584,1017.873h-18.765v-14.285h14.901c1.405,0,2.549-1.143,2.549-2.548s-1.144-2.548-2.549-2.548
			h-14.901v-14.285h18.765c1.467,0,2.616-1.148,2.616-2.615c0-1.431-1.149-2.55-2.616-2.55h-21.313c-1.467,0-2.615,1.119-2.615,2.55
			v38.896c0,1.431,1.148,2.55,2.615,2.55h21.313c1.467,0,2.616-1.119,2.616-2.55C728.2,1019.021,727.051,1017.873,725.584,1017.873z
			"/>
		<path fill="#960064" d="M759.885,1017.873h-14.901v-36.281c0-1.406-1.144-2.55-2.549-2.55c-1.467,0-2.615,1.119-2.615,2.55v38.896
			c0,1.431,1.148,2.55,2.615,2.55h17.45c1.418,0,2.615-1.168,2.615-2.55C762.5,1019.047,761.327,1017.873,759.885,1017.873z"/>
	</g>
	<path fill="#960064" d="M242.159,1058.639c-19.672,0-35.618-25.803-35.618-57.632s15.946-57.632,35.618-57.632
		c0.189,0,0.378,0.007,0.566,0.011v-0.056h-54.797v0.003c-19.584,0.165-35.429,25.9-35.429,57.628
		c0,31.727,15.845,57.463,35.429,57.627v0.096h54.797v-0.058C242.537,1058.632,242.349,1058.639,242.159,1058.639z"/>
</g>
<g>
	<path fill="#2C0064" d="M222.782,1014.627c-1.348,9.006-4.002,17.185-7.62,23.982c6.531,12.272,16.202,20.045,26.997,20.045
		c16.774,0,30.838-18.765,34.616-44.027H222.782z"/>
	<path fill="#2C0064" d="M242.159,943.407c-10.795,0-20.466,7.771-26.997,20.044c3.618,6.799,6.272,14.977,7.62,23.982h53.993
		C272.997,962.172,258.934,943.407,242.159,943.407z"/>
</g>
<g>
	<path fill="#009664" d="M338.327,1415.88c-0.478-0.86-1.338-1.374-2.302-1.374c-0.431,0-0.849,0.103-1.245,0.304
		c-2.313,1.322-5.085,2.022-8.021,2.022c-9.281,0-16.833-7.552-16.833-16.833c0-9.282,7.552-16.833,16.833-16.833
		c2.936,0,5.708,0.699,8.021,2.023c0.396,0.2,0.814,0.302,1.245,0.302c0.964,0,1.824-0.513,2.302-1.372
		c0.642-1.209,0.158-2.765-1.08-3.484c-3.262-1.723-6.888-2.633-10.487-2.633c-12.129,0-21.997,9.868-21.997,21.997
		c0,12.13,9.868,21.998,21.997,21.998c3.6,0,7.226-0.912,10.488-2.635C338.485,1418.643,338.969,1417.087,338.327,1415.88z"/>
	<path fill="#009664" d="M371.865,1416.832h-14.902v-36.282c0-1.404-1.144-2.548-2.549-2.548c-1.466,0-2.615,1.119-2.615,2.548
		v38.897c0,1.429,1.149,2.55,2.615,2.55h17.451c1.417,0,2.615-1.169,2.615-2.55C374.48,1418.006,373.307,1416.832,371.865,1416.832z
		"/>
	<path fill="#009664" d="M390.195,1378.002c-1.406,0-2.549,1.144-2.549,2.548v38.897c0,1.405,1.143,2.55,2.549,2.55
		c1.405,0,2.549-1.145,2.549-2.55v-38.897C392.744,1379.146,391.601,1378.002,390.195,1378.002z"/>
	<path fill="#009664" d="M433.626,1378.002h-23.312c-1.405,0-2.549,1.144-2.549,2.548v38.897c0,1.405,1.144,2.55,2.549,2.55
		c1.417,0,2.614-1.169,2.614-2.55v-16.899h16.834c1.405,0,2.549-1.144,2.549-2.549s-1.144-2.55-2.549-2.55h-16.834v-14.283h20.697
		c1.442,0,2.615-1.174,2.615-2.616C436.241,1379.169,435.043,1378.002,433.626,1378.002z"/>
	<path fill="#009664" d="M471.866,1378.002h-23.313c-1.404,0-2.549,1.144-2.549,2.548c0,1.468,1.12,2.616,2.549,2.616h9.107v36.281
		c0,1.405,1.144,2.55,2.549,2.55c1.418,0,2.615-1.169,2.615-2.55v-36.281h9.041c1.442,0,2.615-1.174,2.615-2.616
		C474.481,1379.169,473.284,1378.002,471.866,1378.002z"/>
	<path fill="#009664" d="M499.058,1378.002c-11.579,0-20.999,9.868-20.999,21.997c0,12.13,9.42,21.998,20.999,21.998
		c11.615,0,21.064-9.868,21.064-21.998C520.122,1387.87,510.673,1378.002,499.058,1378.002z M499.058,1416.832
		c-8.731,0-15.835-7.552-15.835-16.833c0-9.282,7.104-16.833,15.835-16.833c8.768,0,15.9,7.551,15.9,16.833
		C514.958,1409.28,507.825,1416.832,499.058,1416.832z"/>
	<path fill="#009664" d="M558.439,1378.002c-1.466,0-2.615,1.119-2.615,2.548v30.75l-22.506-32.194
		c-0.471-0.684-1.256-1.104-2.054-1.104c-1.637,0-2.615,1.295-2.615,2.548v38.897c0,1.405,1.144,2.55,2.548,2.55
		c1.419,0,2.616-1.169,2.616-2.55v-30.749l22.506,32.193c0.478,0.695,1.268,1.105,2.12,1.105c1.382,0,2.549-1.169,2.549-2.55
		v-38.897C560.988,1379.146,559.845,1378.002,558.439,1378.002z"/>
</g>
<g>
	<path fill="#009664" d="M615.106,1407.854c-0.376-8.085-10.936-11.656-13.051-12.292l-0.121-0.042
		c-2.367-0.971-5.943-2.439-5.943-6.744v-0.303c0.086-3.095,3.104-5.341,7.175-5.341l0.472,0.001
		c1.529,0.086,3.076,0.667,4.252,1.597c0.44,0.313,0.943,0.467,1.537,0.467c0.82,0,1.568-0.369,2.104-1.039
		c0.32-0.4,0.512-0.965,0.512-1.51c0-0.76-0.372-1.496-1.021-2.024c-2.2-1.628-4.824-2.596-7.204-2.656h-0.584
		c-3.063,0-6.095,0.992-8.317,2.722l-0.022,0.016c-2.453,1.825-3.873,4.511-4,7.564v0.507c0,5.411,3.181,9.298,9.454,11.551
		l0.074,0.026l0.231,0.116c2.474,0.746,9.089,3.607,9.353,7.669l0.004,0.086v0.267c0,2.143-0.848,4.122-2.45,5.726
		c-1.646,1.646-3.925,2.516-6.59,2.516l-0.365-0.001c-3.235-0.078-5.936-1.81-7.225-4.63c-0.414-0.911-1.356-1.497-2.401-1.497
		c-0.437,0-0.738,0.059-1.011,0.195l-0.044,0.021c-0.922,0.418-1.494,1.313-1.494,2.333c0,0.464,0.063,0.815,0.194,1.078
		l0.016,0.031c2.109,4.521,6.612,7.444,11.754,7.634h0.509c4.03,0,7.721-1.472,10.394-4.144c2.422-2.423,3.812-5.799,3.812-9.262
		V1407.854z"/>
	<path fill="#009664" d="M649.257,1378.035h-23.312c-1.406,0-2.549,1.144-2.549,2.548c0,1.468,1.119,2.616,2.549,2.616h9.106v36.281
		c0,1.406,1.144,2.55,2.549,2.55c1.418,0,2.615-1.167,2.615-2.55v-36.281h9.041c1.441,0,2.615-1.174,2.615-2.616
		C651.872,1379.202,650.674,1378.035,649.257,1378.035z"/>
	<path fill="#009664" d="M687.421,1416.865h-18.765v-14.284h14.901c1.405,0,2.549-1.143,2.549-2.549
		c0-1.405-1.144-2.548-2.549-2.548h-14.901v-14.285h18.765c1.466,0,2.615-1.148,2.615-2.616c0-1.429-1.149-2.548-2.615-2.548
		h-21.313c-1.467,0-2.615,1.119-2.615,2.548v38.897c0,1.43,1.148,2.55,2.615,2.55h21.313c1.466,0,2.615-1.12,2.615-2.55
		C690.036,1418.015,688.887,1416.865,687.421,1416.865z"/>
	<path fill="#009664" d="M725.584,1416.865h-18.765v-14.284h14.901c1.405,0,2.549-1.143,2.549-2.549
		c0-1.405-1.144-2.548-2.549-2.548h-14.901v-14.285h18.765c1.467,0,2.616-1.148,2.616-2.616c0-1.429-1.149-2.548-2.616-2.548
		h-21.313c-1.467,0-2.615,1.119-2.615,2.548v38.897c0,1.43,1.148,2.55,2.615,2.55h21.313c1.467,0,2.616-1.12,2.616-2.55
		C728.2,1418.015,727.051,1416.865,725.584,1416.865z"/>
	<path fill="#009664" d="M759.885,1416.865h-14.901v-36.282c0-1.404-1.144-2.548-2.549-2.548c-1.467,0-2.615,1.119-2.615,2.548
		v38.897c0,1.43,1.148,2.55,2.615,2.55h17.45c1.418,0,2.615-1.167,2.615-2.55C762.5,1418.038,761.327,1416.865,759.885,1416.865z"/>
</g>
<path fill="#009664" d="M242.159,1457.63c-19.672,0-35.618-25.803-35.618-57.631c0-31.829,15.946-57.632,35.618-57.632
	c0.189,0,0.378,0.007,0.566,0.012v-0.057h-54.797v0.004c-19.584,0.166-35.429,25.9-35.429,57.628
	c0,31.727,15.845,57.462,35.429,57.627v0.096h54.797v-0.059C242.537,1457.624,242.349,1457.63,242.159,1457.63z"/>
<g>
	<path fill="#003232" d="M222.782,1413.62c-1.348,9.005-4.002,17.184-7.62,23.982c6.531,12.272,16.202,20.044,26.997,20.044
		c16.774,0,30.838-18.764,34.616-44.026H222.782z"/>
	<path fill="#003232" d="M242.159,1342.399c-10.795,0-20.466,7.772-26.997,20.044c3.618,6.799,6.272,14.977,7.62,23.982h53.993
		C272.997,1361.164,258.934,1342.399,242.159,1342.399z"/>
</g>
<g>
	<g>
		<path fill="#32ABFF" d="M1253.328,1415.88c-0.478-0.86-1.338-1.374-2.303-1.374c-0.43,0-0.849,0.103-1.244,0.304
			c-2.313,1.322-5.086,2.022-8.021,2.022c-9.281,0-16.834-7.552-16.834-16.833c0-9.282,7.553-16.833,16.834-16.833
			c2.935,0,5.708,0.699,8.021,2.023c0.396,0.2,0.814,0.302,1.244,0.302c0.965,0,1.825-0.513,2.303-1.372
			c0.642-1.209,0.158-2.765-1.08-3.484c-3.264-1.723-6.889-2.633-10.487-2.633c-12.13,0-21.998,9.868-21.998,21.997
			c0,12.13,9.868,21.998,21.998,21.998c3.599,0,7.226-0.912,10.487-2.635C1253.486,1418.643,1253.97,1417.087,1253.328,1415.88z"/>
		<path fill="#32ABFF" d="M1286.865,1416.832h-14.901v-36.282c0-1.404-1.145-2.548-2.549-2.548c-1.466,0-2.616,1.119-2.616,2.548
			v38.897c0,1.429,1.15,2.55,2.616,2.55h17.45c1.419,0,2.616-1.169,2.616-2.55
			C1289.481,1418.006,1288.308,1416.832,1286.865,1416.832z"/>
		<path fill="#32ABFF" d="M1305.195,1378.002c-1.405,0-2.548,1.144-2.548,2.548v38.897c0,1.405,1.143,2.55,2.548,2.55
			c1.406,0,2.549-1.145,2.549-2.55v-38.897C1307.744,1379.146,1306.602,1378.002,1305.195,1378.002z"/>
		<path fill="#32ABFF" d="M1348.626,1378.002h-23.312c-1.405,0-2.548,1.144-2.548,2.548v38.897c0,1.405,1.143,2.55,2.548,2.55
			c1.418,0,2.615-1.169,2.615-2.55v-16.899h16.833c1.406,0,2.55-1.144,2.55-2.549s-1.144-2.55-2.55-2.55h-16.833v-14.283h20.696
			c1.442,0,2.615-1.174,2.615-2.616C1351.241,1379.169,1350.044,1378.002,1348.626,1378.002z"/>
		<path fill="#32ABFF" d="M1386.867,1378.002h-23.312c-1.406,0-2.55,1.144-2.55,2.548c0,1.468,1.119,2.616,2.55,2.616h9.105v36.281
			c0,1.405,1.145,2.55,2.55,2.55c1.418,0,2.615-1.169,2.615-2.55v-36.281h9.041c1.441,0,2.615-1.174,2.615-2.616
			C1389.482,1379.169,1388.284,1378.002,1386.867,1378.002z"/>
		<path fill="#32ABFF" d="M1414.059,1378.002c-11.58,0-20.999,9.868-20.999,21.997c0,12.13,9.419,21.998,20.999,21.998
			c11.614,0,21.064-9.868,21.064-21.998C1435.123,1387.87,1425.673,1378.002,1414.059,1378.002z M1414.059,1416.832
			c-8.731,0-15.834-7.552-15.834-16.833c0-9.282,7.103-16.833,15.834-16.833c8.768,0,15.9,7.551,15.9,16.833
			C1429.959,1409.28,1422.826,1416.832,1414.059,1416.832z"/>
		<path fill="#32ABFF" d="M1473.44,1378.002c-1.467,0-2.615,1.119-2.615,2.548v30.75l-22.506-32.194
			c-0.472-0.684-1.256-1.104-2.054-1.104c-1.638,0-2.615,1.295-2.615,2.548v38.897c0,1.405,1.143,2.55,2.548,2.55
			c1.418,0,2.615-1.169,2.615-2.55v-30.749l22.506,32.193c0.478,0.695,1.27,1.105,2.121,1.105c1.381,0,2.548-1.169,2.548-2.55
			v-38.897C1475.988,1379.146,1474.846,1378.002,1473.44,1378.002z"/>
	</g>
	<g>
		<path fill="#32ABFF" d="M1530.107,1407.854c-0.376-8.085-10.936-11.656-13.051-12.292l-0.122-0.042
			c-2.366-0.971-5.943-2.439-5.943-6.744v-0.303c0.087-3.095,3.104-5.341,7.175-5.341l0.473,0.001
			c1.528,0.086,3.076,0.667,4.251,1.597c0.44,0.313,0.944,0.467,1.537,0.467c0.821,0,1.569-0.369,2.104-1.039
			c0.32-0.4,0.512-0.965,0.512-1.51c0-0.76-0.373-1.496-1.021-2.024c-2.202-1.628-4.825-2.596-7.206-2.656h-0.584
			c-3.063,0-6.095,0.992-8.317,2.722l-0.022,0.016c-2.452,1.825-3.872,4.511-3.999,7.564v0.507c0,5.411,3.181,9.298,9.454,11.551
			l0.074,0.026l0.231,0.116c2.474,0.746,9.088,3.607,9.353,7.669l0.003,0.086v0.267c0,2.143-0.847,4.122-2.45,5.726
			c-1.646,1.646-3.924,2.516-6.591,2.516l-0.364-0.001c-3.234-0.078-5.936-1.81-7.225-4.63c-0.414-0.911-1.355-1.497-2.4-1.497
			c-0.437,0-0.738,0.059-1.011,0.195l-0.044,0.021c-0.922,0.418-1.495,1.313-1.495,2.333c0,0.464,0.063,0.815,0.194,1.078
			l0.015,0.031c2.11,4.521,6.613,7.444,11.755,7.634h0.509c4.03,0,7.723-1.472,10.394-4.144c2.424-2.423,3.813-5.799,3.813-9.262
			V1407.854z"/>
		<path fill="#32ABFF" d="M1564.258,1378.035h-23.313c-1.405,0-2.549,1.144-2.549,2.548c0,1.468,1.119,2.616,2.549,2.616h9.106
			v36.281c0,1.406,1.145,2.55,2.55,2.55c1.417,0,2.615-1.167,2.615-2.55v-36.281h9.041c1.442,0,2.614-1.174,2.614-2.616
			C1566.872,1379.202,1565.675,1378.035,1564.258,1378.035z"/>
		<path fill="#32ABFF" d="M1602.421,1416.865h-18.765v-14.284h14.901c1.406,0,2.55-1.143,2.55-2.549c0-1.405-1.144-2.548-2.55-2.548
			h-14.901v-14.285h18.765c1.467,0,2.615-1.148,2.615-2.616c0-1.429-1.148-2.548-2.615-2.548h-21.313
			c-1.468,0-2.616,1.119-2.616,2.548v38.897c0,1.43,1.148,2.55,2.616,2.55h21.313c1.467,0,2.615-1.12,2.615-2.55
			C1605.036,1418.015,1603.888,1416.865,1602.421,1416.865z"/>
		<path fill="#32ABFF" d="M1640.585,1416.865h-18.766v-14.284h14.901c1.406,0,2.549-1.143,2.549-2.549
			c0-1.405-1.143-2.548-2.549-2.548h-14.901v-14.285h18.766c1.466,0,2.615-1.148,2.615-2.616c0-1.429-1.149-2.548-2.615-2.548
			h-21.313c-1.466,0-2.616,1.119-2.616,2.548v38.897c0,1.43,1.15,2.55,2.616,2.55h21.313c1.466,0,2.615-1.12,2.615-2.55
			C1643.2,1418.015,1642.051,1416.865,1640.585,1416.865z"/>
		<path fill="#32ABFF" d="M1674.885,1416.865h-14.901v-36.282c0-1.404-1.144-2.548-2.548-2.548c-1.467,0-2.615,1.119-2.615,2.548
			v38.897c0,1.43,1.148,2.55,2.615,2.55h17.449c1.418,0,2.615-1.167,2.615-2.55
			C1677.5,1418.038,1676.327,1416.865,1674.885,1416.865z"/>
	</g>
	<path fill="#32ABFF" d="M1157.159,1457.63c-19.671,0-35.618-25.803-35.618-57.631c0-31.829,15.947-57.632,35.618-57.632
		c0.19,0,0.378,0.007,0.567,0.012v-0.057h-54.798v0.004c-19.584,0.166-35.429,25.9-35.429,57.628
		c0,31.727,15.845,57.462,35.429,57.627v0.096h54.798v-0.059C1157.537,1457.624,1157.35,1457.63,1157.159,1457.63z"/>
</g>
<g>
	<path fill="#002C64" d="M1137.783,1413.62c-1.349,9.005-4.003,17.184-7.62,23.982c6.53,12.272,16.202,20.044,26.996,20.044
		c16.774,0,30.838-18.764,34.617-44.026H1137.783z"/>
	<path fill="#002C64" d="M1157.159,1342.399c-10.794,0-20.466,7.772-26.996,20.044c3.617,6.799,6.271,14.977,7.62,23.982h53.993
		C1187.997,1361.164,1173.934,1342.399,1157.159,1342.399z"/>
</g>
<g>
	<g>
		<path fill="#FF3232" d="M1253.328,1016.429c-0.478-0.86-1.338-1.372-2.303-1.372c-0.43,0-0.849,0.102-1.244,0.302
			c-2.313,1.324-5.086,2.023-8.021,2.023c-9.281,0-16.834-7.551-16.834-16.834c0-9.282,7.553-16.832,16.834-16.832
			c2.935,0,5.708,0.7,8.021,2.022c0.396,0.201,0.814,0.304,1.244,0.304c0.965,0,1.825-0.514,2.303-1.374
			c0.642-1.208,0.158-2.764-1.08-3.483c-3.264-1.722-6.889-2.634-10.487-2.634c-12.13,0-21.998,9.868-21.998,21.997
			c0,12.13,9.868,21.998,21.998,21.998c3.599,0,7.226-0.91,10.487-2.633C1253.486,1019.193,1253.97,1017.638,1253.328,1016.429z"/>
		<path fill="#FF3232" d="M1286.865,1017.382h-14.901v-36.281c0-1.405-1.145-2.55-2.549-2.55c-1.466,0-2.616,1.121-2.616,2.55
			v38.896c0,1.43,1.15,2.549,2.616,2.549h17.45c1.419,0,2.616-1.167,2.616-2.549
			C1289.481,1018.556,1288.308,1017.382,1286.865,1017.382z"/>
		<path fill="#FF3232" d="M1305.195,978.551c-1.405,0-2.548,1.145-2.548,2.55v38.896c0,1.405,1.143,2.549,2.548,2.549
			c1.406,0,2.549-1.144,2.549-2.549v-38.896C1307.744,979.695,1306.602,978.551,1305.195,978.551z"/>
		<path fill="#FF3232" d="M1348.626,978.551h-23.312c-1.405,0-2.548,1.145-2.548,2.55v38.896c0,1.405,1.143,2.549,2.548,2.549
			c1.418,0,2.615-1.167,2.615-2.549v-16.898h16.833c1.406,0,2.55-1.145,2.55-2.551c0-1.405-1.144-2.548-2.55-2.548h-16.833v-14.284
			h20.696c1.442,0,2.615-1.174,2.615-2.615C1351.241,979.719,1350.044,978.551,1348.626,978.551z"/>
		<path fill="#FF3232" d="M1386.867,978.551h-23.312c-1.406,0-2.55,1.145-2.55,2.55c0,1.466,1.119,2.615,2.55,2.615h9.105v36.281
			c0,1.405,1.145,2.549,2.55,2.549c1.418,0,2.615-1.167,2.615-2.549v-36.281h9.041c1.441,0,2.615-1.174,2.615-2.615
			C1389.482,979.719,1388.284,978.551,1386.867,978.551z"/>
		<path fill="#FF3232" d="M1414.059,978.551c-11.58,0-20.999,9.868-20.999,21.997c0,12.13,9.419,21.998,20.999,21.998
			c11.614,0,21.064-9.868,21.064-21.998C1435.123,988.419,1425.673,978.551,1414.059,978.551z M1414.059,1017.382
			c-8.731,0-15.834-7.551-15.834-16.834c0-9.282,7.103-16.832,15.834-16.832c8.768,0,15.9,7.55,15.9,16.832
			C1429.959,1009.831,1422.826,1017.382,1414.059,1017.382z"/>
		<path fill="#FF3232" d="M1473.44,978.551c-1.467,0-2.615,1.121-2.615,2.55v30.749l-22.506-32.194
			c-0.472-0.685-1.256-1.104-2.054-1.104c-1.638,0-2.615,1.297-2.615,2.55v38.896c0,1.405,1.143,2.549,2.548,2.549
			c1.418,0,2.615-1.167,2.615-2.549v-30.749l22.506,32.194c0.478,0.694,1.27,1.104,2.121,1.104c1.381,0,2.548-1.167,2.548-2.549
			v-38.896C1475.988,979.695,1474.846,978.551,1473.44,978.551z"/>
	</g>
	<g>
		<path fill="#FF3232" d="M1530.107,1008.404c-0.376-8.084-10.936-11.656-13.051-12.291l-0.122-0.043
			c-2.366-0.971-5.943-2.439-5.943-6.744v-0.304c0.087-3.094,3.104-5.34,7.175-5.34l0.473,0.001
			c1.528,0.085,3.076,0.666,4.251,1.597c0.44,0.314,0.944,0.466,1.537,0.466c0.821,0,1.569-0.367,2.104-1.038
			c0.32-0.4,0.512-0.965,0.512-1.51c0-0.761-0.373-1.497-1.021-2.023c-2.202-1.629-4.825-2.596-7.206-2.657h-0.584
			c-3.063,0-6.095,0.992-8.317,2.721l-0.022,0.017c-2.452,1.826-3.872,4.512-3.999,7.564v0.507c0,5.411,3.181,9.298,9.454,11.551
			l0.074,0.026l0.231,0.116c2.474,0.745,9.088,3.608,9.353,7.669l0.003,0.085v0.268c0,2.144-0.847,4.122-2.45,5.725
			c-1.646,1.646-3.924,2.518-6.591,2.518l-0.364-0.002c-3.234-0.078-5.936-1.81-7.225-4.63c-0.414-0.91-1.355-1.496-2.4-1.496
			c-0.437,0-0.738,0.058-1.011,0.192l-0.044,0.021c-0.922,0.419-1.495,1.313-1.495,2.334c0,0.463,0.063,0.816,0.194,1.077
			l0.015,0.031c2.11,4.521,6.613,7.445,11.755,7.635h0.509c4.03,0,7.723-1.473,10.394-4.145c2.424-2.421,3.813-5.797,3.813-9.261
			V1008.404z"/>
		<path fill="#FF3232" d="M1564.258,978.584h-23.313c-1.405,0-2.549,1.144-2.549,2.55c0,1.467,1.119,2.615,2.549,2.615h9.106v36.281
			c0,1.406,1.145,2.55,2.55,2.55c1.417,0,2.615-1.168,2.615-2.55v-36.281h9.041c1.442,0,2.614-1.174,2.614-2.615
			C1566.872,979.751,1565.675,978.584,1564.258,978.584z"/>
		<path fill="#FF3232" d="M1602.421,1017.415h-18.765v-14.285h14.901c1.406,0,2.55-1.143,2.55-2.548s-1.144-2.548-2.55-2.548
			h-14.901v-14.285h18.765c1.467,0,2.615-1.148,2.615-2.615c0-1.431-1.148-2.55-2.615-2.55h-21.313c-1.468,0-2.616,1.119-2.616,2.55
			v38.896c0,1.431,1.148,2.55,2.616,2.55h21.313c1.467,0,2.615-1.119,2.615-2.55
			C1605.036,1018.563,1603.888,1017.415,1602.421,1017.415z"/>
		<path fill="#FF3232" d="M1640.585,1017.415h-18.766v-14.285h14.901c1.406,0,2.549-1.143,2.549-2.548s-1.143-2.548-2.549-2.548
			h-14.901v-14.285h18.766c1.466,0,2.615-1.148,2.615-2.615c0-1.431-1.149-2.55-2.615-2.55h-21.313c-1.466,0-2.616,1.119-2.616,2.55
			v38.896c0,1.431,1.15,2.55,2.616,2.55h21.313c1.466,0,2.615-1.119,2.615-2.55
			C1643.2,1018.563,1642.051,1017.415,1640.585,1017.415z"/>
		<path fill="#FF3232" d="M1674.885,1017.415h-14.901v-36.281c0-1.406-1.144-2.55-2.548-2.55c-1.467,0-2.615,1.119-2.615,2.55
			v38.896c0,1.431,1.148,2.55,2.615,2.55h17.449c1.418,0,2.615-1.168,2.615-2.55
			C1677.5,1018.589,1676.327,1017.415,1674.885,1017.415z"/>
	</g>
	<path fill="#FF3232" d="M1157.159,1058.181c-19.671,0-35.618-25.803-35.618-57.632s15.947-57.632,35.618-57.632
		c0.19,0,0.378,0.007,0.567,0.011v-0.056h-54.798v0.003c-19.584,0.165-35.429,25.9-35.429,57.628
		c0,31.727,15.845,57.463,35.429,57.627v0.096h54.798v-0.058C1157.537,1058.174,1157.35,1058.181,1157.159,1058.181z"/>
</g>
<g>
	<path fill="#B9002B" d="M1137.783,1014.169c-1.349,9.006-4.003,17.185-7.62,23.982c6.53,12.272,16.202,20.045,26.996,20.045
		c16.774,0,30.838-18.765,34.617-44.027H1137.783z"/>
	<path fill="#B9002B" d="M1157.159,942.949c-10.794,0-20.466,7.771-26.996,20.044c3.617,6.799,6.271,14.977,7.62,23.982h53.993
		C1187.997,961.714,1173.934,942.949,1157.159,942.949z"/>
</g>
</svg>
