<?xml version="1.0" encoding="utf-8"?>
<!-- Generator: Adobe Illustrator 17.0.0, SVG Export Plug-In . SVG Version: 6.00 Build 0)  -->
<!DOCTYPE svg PUBLIC "-//W3C//DTD SVG 1.1//EN" "http://www.w3.org/Graphics/SVG/1.1/DTD/svg11.dtd">
<svg version="1.1" id="Layer_1" xmlns="http://www.w3.org/2000/svg" xmlns:xlink="http://www.w3.org/1999/xlink" x="0px" y="0px"
	 width="556px" height="344px" viewBox="0 0 556 344" enable-background="new 0 0 556 344" xml:space="preserve">
<g>
	
		<rect x="-17.335" y="42.307" transform="matrix(0.7107 -0.7035 0.7035 0.7107 -17.3801 42.3517)" fill="#EBFF40" width="120.271" height="0"/>
	<polygon fill="#FFFF00" points="0.064,0 0.064,84.613 85.538,0 	"/>
	<polygon fill="#EBFF40" points="254.119,344 556.064,45.096 254.119,344 	"/>
	
		<rect x="296.178" y="237.121" transform="matrix(-0.7107 0.7035 -0.7035 -0.7107 933.3704 90.3926)" fill="#EBFF40" width="303.84" height="0"/>
	<polygon fill="#FFE100" points="85.538,0 0.064,84.613 0.064,169.76 171.552,0 	"/>
	<polygon fill="#FFCD00" points="171.552,0 0.064,169.76 0.064,254.907 257.565,0 	"/>
	<polygon fill="#FFE100" points="257.565,0 0.064,254.907 0.064,340.054 343.578,0 	"/>
	<polygon fill="#FFFF00" points="429.592,0 343.578,0 0.064,340.054 0.064,344 82.092,344 	"/>
	<polygon fill="#FFE100" points="168.105,344 263.419,249.646 515.605,0 429.592,0 82.092,344 	"/>
	<polygon fill="#FFCD00" points="168.105,344 254.119,344 556.064,45.096 556.064,0 515.605,0 263.419,249.646 	"/>
	<polygon fill="#FFE100" points="340.132,344 556.064,130.243 556.064,45.096 254.119,344 	"/>
	<polygon fill="#FFFF00" points="426.145,344 556.064,215.39 556.064,130.243 340.132,344 	"/>
	<polygon fill="#FFE100" points="512.159,344 556.064,300.537 556.064,215.39 426.145,344 	"/>
	<polygon fill="#FFCD00" points="556.064,344 556.064,300.537 512.159,344 	"/>
</g>
<g>
	<path d="M450.316,138.469c-1.322-2.491-4.711-4.529-7.531-4.529H94.691c-2.82,0-5.127,2.307-5.127,5.127v65.866
		c0,2.82,2.307,5.127,5.127,5.127h348.094c2.82,0,6.197-2.044,7.504-4.543l15.303-29.25c1.307-2.499,1.295-6.581-0.027-9.072
		L450.316,138.469z"/>
	<path fill="#FFFFFF" d="M252.757,196.885c0.63,0.588,1.674,0.588,2.303,0.002c0.335-0.311,0.512-0.731,0.512-1.215v-18.771
		c0-0.786-0.473-1.387-1.264-1.607c-0.314-0.079-0.672-0.067-0.986,0.045c-0.347,0.124-0.634,0.361-0.808,0.666l-8.545,13.854
		v-12.958c0-0.442-0.159-0.843-0.46-1.16c-0.602-0.631-1.732-0.643-2.367-0.023c-0.321,0.314-0.497,0.734-0.497,1.183v18.771
		c0,0.744,0.42,1.342,1.096,1.559c0.231,0.092,0.431,0.103,0.582,0.103c0.544,0,1.034-0.259,1.382-0.729l8.543-13.859v12.926
		C252.248,196.157,252.424,196.576,252.757,196.885z"/>
	<path fill="#FFFFFF" d="M276.038,196.846c0.636,0.639,1.718,0.639,2.354,0.003c0.318-0.318,0.486-0.724,0.486-1.176v-18.771
		c0-0.366-0.121-0.716-0.349-1.013c-0.224-0.29-0.534-0.497-0.872-0.582c-0.811-0.223-1.526,0.111-1.904,0.825l-6.568,12.423
		l-6.543-12.425c-0.3-0.567-0.816-0.893-1.413-0.893c-0.155,0-0.315,0.021-0.449,0.059c-0.375,0.095-0.688,0.3-0.917,0.598
		c-0.225,0.293-0.345,0.643-0.345,1.009v18.771c0,0.453,0.167,0.859,0.484,1.174c0.592,0.595,1.764,0.594,2.354,0.002
		c0.318-0.318,0.486-0.725,0.486-1.176v-12.076l4.885,9.288c0.277,0.464,0.685,0.749,1.168,0.836l0.08,0.014l0.725-0.058
		c0.417-0.115,0.78-0.417,0.957-0.822l4.897-9.272v12.091C275.555,196.125,275.722,196.531,276.038,196.846z"/>
	<path fill="#FFFFFF" d="M299.222,196.833c0.637,0.639,1.72,0.638,2.353,0.004c0.319-0.319,0.487-0.725,0.487-1.178v-18.771
		c0-0.366-0.12-0.716-0.348-1.014c-0.224-0.289-0.535-0.497-0.874-0.582c-0.813-0.226-1.525,0.11-1.903,0.825l-6.568,12.423
		l-6.543-12.424c-0.3-0.568-0.816-0.894-1.413-0.894c-0.153,0-0.313,0.021-0.45,0.059c-0.374,0.094-0.688,0.3-0.916,0.597
		c-0.226,0.294-0.346,0.643-0.346,1.009v18.771c0,0.453,0.167,0.859,0.484,1.174c0.592,0.595,1.765,0.594,2.353,0.003
		c0.319-0.318,0.487-0.725,0.487-1.177v-12.076l4.885,9.288c0.277,0.464,0.685,0.748,1.169,0.836l0.08,0.014l0.725-0.058
		c0.417-0.114,0.779-0.417,0.957-0.822l4.897-9.273v12.091C298.738,196.113,298.905,196.519,299.222,196.833z"/>
	<path fill="#FFFFFF" d="M318.186,196.885c0.63,0.589,1.675,0.589,2.303,0.003c0.335-0.311,0.512-0.731,0.512-1.215v-18.771
		c0-0.786-0.473-1.387-1.264-1.607c-0.315-0.079-0.672-0.066-0.986,0.045c-0.347,0.124-0.634,0.361-0.807,0.666l-8.545,13.854
		v-12.958c0-0.442-0.159-0.843-0.46-1.16c-0.601-0.631-1.73-0.644-2.367-0.023c-0.32,0.314-0.497,0.734-0.497,1.183v18.771
		c0,0.744,0.42,1.342,1.096,1.559c0.232,0.092,0.431,0.103,0.582,0.103c0.543,0,1.034-0.259,1.382-0.729l8.543-13.859v12.926
		C317.677,196.158,317.853,196.577,318.186,196.885z"/>
	<path fill="#FFFFFF" d="M338.212,175.239h-11.603c-0.451,0-0.858,0.168-1.175,0.485c-0.319,0.318-0.487,0.725-0.487,1.177v18.771
		c0,0.453,0.167,0.859,0.484,1.173c0.637,0.639,1.719,0.639,2.354,0.003c0.319-0.318,0.486-0.725,0.486-1.176v-17.109h9.941
		c0.452,0,0.858-0.168,1.176-0.486c0.317-0.317,0.486-0.724,0.486-1.176c0-0.445-0.173-0.863-0.488-1.178
		C339.069,175.407,338.662,175.239,338.212,175.239z"/>
	<path fill="#FFFFFF" d="M347.086,195.673v-4.212h6.343c0.724,0,1.413-0.138,2.048-0.408c0.631-0.268,1.19-0.642,1.661-1.114
		c0.467-0.468,0.845-1.021,1.122-1.645c0.285-0.641,0.429-1.335,0.429-2.064v-5.758c0-0.71-0.144-1.395-0.429-2.036
		c-0.276-0.62-0.65-1.176-1.114-1.652c-0.473-0.484-1.034-0.866-1.668-1.136c-0.636-0.271-1.326-0.408-2.049-0.408h-8.004
		c-0.451,0-0.853,0.163-1.162,0.472c-0.282,0.282-0.454,0.651-0.496,1.065l-0.004,18.896c0,0.453,0.168,0.859,0.484,1.173
		c0.637,0.639,1.72,0.639,2.353,0.004C346.918,196.531,347.086,196.124,347.086,195.673z M347.086,178.563h6.343
		c0.267,0,0.52,0.051,0.752,0.15c0.241,0.104,0.45,0.243,0.621,0.413c0.173,0.173,0.313,0.378,0.418,0.612
		c0.097,0.22,0.146,0.464,0.146,0.726v5.744c0,0.262-0.049,0.506-0.146,0.724c-0.107,0.241-0.252,0.456-0.431,0.641
		c-0.168,0.175-0.373,0.314-0.608,0.415c-0.23,0.1-0.484,0.15-0.752,0.15h-6.343V178.563z"/>
	<path fill="#FFFFFF" d="M377.505,180.449c0-0.724-0.138-1.415-0.41-2.053c-0.269-0.632-0.646-1.191-1.116-1.662
		c-0.472-0.47-1.031-0.845-1.662-1.114c-0.638-0.271-1.328-0.409-2.053-0.409h-4.444c-0.725,0-1.416,0.138-2.053,0.409
		c-0.633,0.27-1.193,0.645-1.663,1.115c-0.472,0.472-0.847,1.03-1.116,1.661c-0.272,0.637-0.41,1.328-0.41,2.053v15.223
		c0,0.442,0.158,0.842,0.457,1.157c0.308,0.326,0.731,0.506,1.191,0.506c0.484,0,0.905-0.174,1.217-0.502
		c0.3-0.315,0.459-0.714,0.459-1.156v-4.129h8.279v4.129c0,0.442,0.158,0.841,0.457,1.154c0.313,0.33,0.735,0.504,1.22,0.504
		c0.458,0,0.881-0.18,1.191-0.506c0.298-0.316,0.456-0.716,0.456-1.157V180.449z M374.18,188.224h-8.279v-7.753
		c0-0.265,0.049-0.511,0.147-0.73c0.105-0.236,0.249-0.452,0.428-0.64c0.168-0.174,0.371-0.314,0.607-0.416
		c0.23-0.1,0.481-0.15,0.747-0.15h4.421c0.266,0,0.517,0.05,0.746,0.15c0.236,0.103,0.44,0.242,0.606,0.415
		c0.18,0.187,0.324,0.403,0.43,0.642c0.098,0.221,0.147,0.466,0.147,0.731V188.224z"/>
	<path fill="#FFFFFF" d="M398.565,195.644c0-0.457-0.182-0.88-0.514-1.188c-0.313-0.291-0.711-0.444-1.148-0.444h-0.554v-17.139
		c0-0.451-0.168-0.857-0.487-1.176c-0.589-0.588-1.764-0.588-2.35,0c-0.319,0.318-0.487,0.725-0.487,1.176v17.139h-6.371
		c-0.268,0-0.521-0.051-0.753-0.151c-0.234-0.101-0.438-0.241-0.607-0.415c-0.18-0.186-0.324-0.402-0.431-0.642
		c-0.096-0.215-0.146-0.459-0.146-0.724v-15.207c0-0.451-0.168-0.858-0.486-1.175c-0.295-0.294-0.723-0.463-1.176-0.463
		c-0.453,0-0.882,0.169-1.176,0.464c-0.317,0.317-0.486,0.724-0.486,1.176v15.23c0,0.725,0.137,1.415,0.409,2.05
		c0.27,0.635,0.652,1.196,1.136,1.668c0.478,0.467,1.038,0.839,1.664,1.105c0.638,0.271,1.328,0.409,2.051,0.409h8.588v0.535
		c0,0.458,0.184,0.879,0.517,1.186c0.628,0.574,1.664,0.577,2.298-0.011c0.328-0.306,0.509-0.726,0.509-1.184V195.644z"/>
	<path fill="#FFFFFF" d="M414.623,196.885c0.63,0.587,1.673,0.588,2.304,0.002c0.334-0.311,0.511-0.731,0.511-1.215v-18.771
		c0-0.786-0.472-1.387-1.264-1.607c-0.317-0.079-0.672-0.067-0.986,0.045c-0.348,0.125-0.635,0.362-0.808,0.666l-8.545,13.854
		v-12.958c0-0.442-0.159-0.842-0.46-1.16c-0.601-0.631-1.731-0.644-2.366-0.023c-0.32,0.313-0.497,0.734-0.497,1.183v18.771
		c0,0.744,0.42,1.342,1.096,1.559c0.231,0.092,0.431,0.103,0.581,0.103c0.544,0,1.035-0.259,1.382-0.729l8.543-13.859v12.926
		C414.115,196.158,414.291,196.577,414.623,196.885z"/>
	<path fill="#FFFFFF" d="M433.497,196.885c0.629,0.589,1.674,0.589,2.303,0.003c0.335-0.311,0.512-0.731,0.512-1.215v-18.771
		c0-0.786-0.473-1.387-1.264-1.607c-0.315-0.077-0.67-0.066-0.986,0.046c-0.346,0.124-0.633,0.362-0.807,0.667l-8.545,13.853
		v-12.958c0-0.442-0.159-0.842-0.46-1.16c-0.6-0.63-1.728-0.644-2.367-0.023c-0.32,0.313-0.496,0.734-0.496,1.183v18.771
		c0,0.744,0.42,1.342,1.096,1.559c0.232,0.092,0.431,0.103,0.582,0.103c0.544,0,1.034-0.259,1.381-0.729l8.543-13.859v12.926
		C432.988,196.158,433.164,196.577,433.497,196.885z"/>
	<path fill="#FFFFFF" d="M139.9,188.949h-8.788v-38.414c0-1.23-0.488-2.363-1.377-3.191c-0.842-0.784-1.906-1.198-3.076-1.198
		h-13.175c-1.18,0-2.25,0.424-3.096,1.226c-0.874,0.829-1.356,1.963-1.356,3.193c0,1.293,0.47,2.422,1.353,3.257
		c0.844,0.804,1.916,1.229,3.099,1.229h8.789v33.898h-8.789c-1.192,0-2.31,0.462-3.15,1.302c-0.852,0.852-1.302,1.941-1.302,3.15
		c0,1.194,0.464,2.315,1.299,3.146c0.839,0.842,1.959,1.306,3.154,1.306H139.9c1.209,0,2.299-0.45,3.153-1.304
		c0.838-0.84,1.3-1.958,1.3-3.148c0-1.205-0.448-2.292-1.305-3.154C142.194,189.398,141.106,188.949,139.9,188.949z"/>
	<path fill="#FFFFFF" d="M178.515,149.809c-1.134-1.13-2.477-2.032-3.996-2.679c-1.536-0.653-3.197-0.984-4.936-0.984h-10.117
		c-1.74,0-3.401,0.331-4.938,0.985c-1.517,0.646-2.861,1.548-3.995,2.68c-1.134,1.134-2.037,2.477-2.684,3.994
		c-0.653,1.533-0.985,3.194-0.985,4.936v26.453c0,1.742,0.331,3.403,0.985,4.938c0.642,1.507,1.538,2.852,2.658,3.998
		c1.14,1.169,2.494,2.091,4.02,2.739c1.534,0.654,3.196,0.985,4.939,0.985h10.117c1.742,0,3.403-0.331,4.938-0.985
		c1.527-0.65,2.88-1.571,4.021-2.739c1.121-1.148,2.014-2.494,2.657-3.999c0.655-1.536,0.986-3.197,0.986-4.938v-26.453
		c0-1.741-0.332-3.401-0.986-4.936C180.553,152.289,179.651,150.946,178.515,149.809z M173.281,158.792v26.416
		c0,0.525-0.094,0.999-0.289,1.451c-0.197,0.458-0.457,0.839-0.795,1.165c-0.371,0.359-0.783,0.636-1.264,0.85
		c-0.413,0.184-0.862,0.274-1.375,0.274h-10.066c-0.523,0-0.992-0.093-1.439-0.287c-0.473-0.205-0.864-0.466-1.196-0.799
		c-0.334-0.336-0.596-0.729-0.801-1.206c-0.193-0.448-0.287-0.921-0.287-1.449v-26.416c0-0.526,0.094-1.001,0.287-1.45
		c0.205-0.476,0.467-0.87,0.8-1.204c0.331-0.332,0.724-0.594,1.198-0.8c0.445-0.193,0.915-0.287,1.437-0.287h10.066
		c0.511,0,0.962,0.09,1.375,0.274c0.481,0.215,0.895,0.493,1.265,0.851c0.336,0.324,0.596,0.706,0.794,1.164
		C173.186,157.793,173.281,158.268,173.281,158.792z"/>
	<path fill="#FFFFFF" d="M216.945,188.949h-8.788v-38.414c0-1.23-0.488-2.363-1.377-3.191c-0.842-0.784-1.906-1.198-3.076-1.198
		h-13.175c-1.18,0-2.25,0.424-3.096,1.226c-0.874,0.829-1.356,1.963-1.356,3.193c0,1.293,0.47,2.422,1.353,3.257
		c0.844,0.804,1.916,1.229,3.099,1.229h8.789v33.898h-8.789c-1.192,0-2.31,0.462-3.15,1.302c-0.852,0.852-1.302,1.941-1.302,3.15
		c0,1.194,0.464,2.315,1.299,3.146c0.839,0.842,1.959,1.306,3.154,1.306h26.416c1.209,0,2.299-0.45,3.153-1.304
		c0.838-0.84,1.3-1.958,1.3-3.148c0-1.205-0.448-2.292-1.305-3.154C219.24,189.398,218.152,188.949,216.945,188.949z"/>
	<path fill="#FFFFFF" d="M243.8,150.427c0.079-0.178,0.181-0.327,0.311-0.458c0.128-0.128,0.279-0.228,0.46-0.307
		c0.172-0.074,0.353-0.11,0.553-0.11h6.969c0.462,0,0.878-0.172,1.206-0.499c0.32-0.321,0.497-0.749,0.497-1.204
		c0-0.455-0.176-0.882-0.499-1.206c-0.326-0.325-0.742-0.497-1.204-0.497h-6.969c-0.664,0-1.298,0.126-1.886,0.376
		c-0.58,0.247-1.097,0.596-1.538,1.037c-0.441,0.442-0.79,0.959-1.036,1.537c-0.25,0.586-0.376,1.212-0.376,1.861v10.128
		c0,0.649,0.127,1.275,0.376,1.86c0.247,0.58,0.596,1.098,1.036,1.538c0.441,0.441,0.959,0.79,1.538,1.037
		c0.586,0.25,1.22,0.376,1.886,0.376h6.969c0.462,0,0.879-0.172,1.206-0.499c0.32-0.321,0.497-0.749,0.497-1.204
		c0-0.461-0.171-0.877-0.499-1.206c-0.326-0.325-0.742-0.497-1.204-0.497h-6.969c-0.202,0-0.382-0.036-0.554-0.11
		c-0.182-0.078-0.332-0.179-0.46-0.307c-0.131-0.131-0.232-0.28-0.312-0.459c-0.071-0.159-0.105-0.332-0.105-0.53v-10.128
		C243.695,150.76,243.729,150.587,243.8,150.427z"/>
	<path fill="#FFFFFF" d="M268.647,146.146h-10.103c-0.456,0-0.884,0.177-1.204,0.497c-0.326,0.326-0.499,0.743-0.499,1.206v16.346
		c0,0.457,0.177,0.885,0.497,1.203c0.321,0.322,0.749,0.499,1.206,0.499c0.462,0,0.879-0.172,1.205-0.498
		c0.321-0.321,0.498-0.749,0.498-1.205v-14.643h6.697v14.643c0,0.457,0.177,0.885,0.496,1.203c0.321,0.323,0.749,0.5,1.207,0.5
		c0.462,0,0.879-0.172,1.206-0.499c0.32-0.321,0.497-0.749,0.497-1.204v-16.346c0-0.455-0.176-0.882-0.499-1.206
		C269.524,146.318,269.108,146.146,268.647,146.146z"/>
	<path fill="#FFFFFF" d="M285.475,147.571c-0.429-0.428-0.937-0.775-1.509-1.029c-0.591-0.262-1.23-0.396-1.901-0.396h-3.861
		c-0.671,0-1.311,0.133-1.902,0.396c-0.573,0.255-1.081,0.601-1.51,1.03c-0.433,0.433-0.778,0.947-1.024,1.525
		c-0.25,0.586-0.376,1.221-0.376,1.886v10.103c0,0.665,0.127,1.3,0.376,1.885c0.247,0.58,0.592,1.093,1.024,1.525
		c0.433,0.433,0.946,0.778,1.526,1.025c0.586,0.25,1.221,0.376,1.886,0.376h3.861c0.665,0,1.3-0.127,1.885-0.376
		c0.579-0.246,1.092-0.591,1.526-1.024c0.428-0.428,0.775-0.936,1.03-1.51c0.262-0.591,0.396-1.23,0.396-1.901v-10.103
		c0-0.671-0.133-1.311-0.396-1.902C286.251,148.509,285.905,148.002,285.475,147.571z M282.072,162.491h-3.85
		c-0.196,0-0.369-0.034-0.528-0.105c-0.183-0.081-0.341-0.187-0.483-0.324c-0.128-0.124-0.228-0.269-0.303-0.445
		c-0.074-0.171-0.109-0.351-0.109-0.552v-10.087c0-0.201,0.036-0.381,0.11-0.552c0.076-0.175,0.175-0.321,0.303-0.445
		c0.142-0.137,0.3-0.243,0.482-0.324c0.16-0.071,0.333-0.106,0.528-0.106h3.85c0.199,0,0.379,0.036,0.55,0.109
		c0.182,0.079,0.331,0.179,0.458,0.306c0.128,0.128,0.228,0.278,0.306,0.459c0.074,0.172,0.11,0.353,0.11,0.552v10.087
		c0,0.2-0.036,0.381-0.11,0.553c-0.078,0.181-0.178,0.331-0.306,0.459c-0.127,0.127-0.276,0.227-0.458,0.305
		C282.452,162.456,282.272,162.491,282.072,162.491z"/>
	<path fill="#FFFFFF" d="M293.431,150.427c0.079-0.178,0.181-0.327,0.311-0.458c0.128-0.128,0.279-0.228,0.46-0.307
		c0.172-0.074,0.353-0.11,0.553-0.11h6.969c0.462,0,0.878-0.172,1.206-0.499c0.32-0.321,0.497-0.749,0.497-1.204
		c0-0.455-0.176-0.882-0.499-1.206c-0.326-0.325-0.742-0.497-1.204-0.497h-6.969c-0.664,0-1.298,0.126-1.886,0.376
		c-0.58,0.247-1.097,0.596-1.538,1.037c-0.441,0.442-0.79,0.959-1.036,1.537c-0.25,0.586-0.376,1.212-0.376,1.861v10.128
		c0,0.649,0.127,1.275,0.376,1.86c0.247,0.58,0.596,1.098,1.036,1.538c0.441,0.441,0.959,0.79,1.538,1.037
		c0.586,0.25,1.22,0.376,1.886,0.376h6.969c0.462,0,0.879-0.172,1.206-0.499c0.32-0.321,0.497-0.749,0.497-1.204
		c0-0.461-0.171-0.877-0.499-1.206c-0.326-0.325-0.742-0.497-1.204-0.497h-6.969c-0.202,0-0.382-0.036-0.554-0.11
		c-0.182-0.078-0.332-0.179-0.46-0.307c-0.131-0.131-0.232-0.28-0.312-0.459c-0.071-0.159-0.105-0.332-0.105-0.53v-10.128
		C293.325,150.76,293.36,150.587,293.431,150.427z"/>
	<path fill="#FFFFFF" d="M318.554,147.571c-0.429-0.428-0.937-0.775-1.509-1.029c-0.591-0.262-1.23-0.396-1.901-0.396h-3.861
		c-0.671,0-1.31,0.133-1.902,0.396c-0.573,0.255-1.081,0.601-1.51,1.03c-0.433,0.433-0.778,0.947-1.024,1.525
		c-0.25,0.586-0.376,1.221-0.376,1.886v10.103c0,0.665,0.127,1.3,0.376,1.885c0.247,0.58,0.592,1.093,1.024,1.525
		c0.433,0.433,0.946,0.778,1.526,1.025c0.586,0.25,1.221,0.376,1.886,0.376h3.861c0.665,0,1.3-0.127,1.885-0.376
		c0.579-0.246,1.092-0.591,1.526-1.024c0.428-0.428,0.775-0.936,1.03-1.51c0.262-0.591,0.396-1.23,0.396-1.901v-10.103
		c0-0.671-0.133-1.311-0.396-1.902C319.33,148.509,318.984,148.002,318.554,147.571z M315.151,162.491h-3.85
		c-0.196,0-0.369-0.034-0.528-0.105c-0.183-0.081-0.341-0.187-0.483-0.324c-0.128-0.124-0.228-0.269-0.303-0.445
		c-0.074-0.171-0.109-0.351-0.109-0.552v-10.087c0-0.201,0.036-0.381,0.11-0.552c0.076-0.175,0.175-0.321,0.303-0.445
		c0.142-0.137,0.3-0.243,0.482-0.324c0.16-0.071,0.333-0.106,0.528-0.106h3.85c0.199,0,0.379,0.036,0.55,0.109
		c0.182,0.079,0.331,0.179,0.458,0.306c0.128,0.128,0.228,0.278,0.306,0.459c0.074,0.172,0.11,0.353,0.11,0.552v10.087
		c0,0.2-0.036,0.381-0.11,0.553c-0.078,0.181-0.178,0.331-0.306,0.459c-0.127,0.127-0.276,0.227-0.458,0.305
		C315.531,162.456,315.351,162.491,315.151,162.491z"/>
	<path fill="#FFFFFF" d="M335.107,152.588c-0.433-0.433-0.946-0.779-1.525-1.026c-0.587-0.25-1.221-0.377-1.887-0.377h-5.292v-1.633
		h8.4c0.462,0,0.878-0.172,1.206-0.499c0.32-0.321,0.497-0.749,0.497-1.204c0-0.455-0.176-0.882-0.499-1.206
		c-0.326-0.325-0.742-0.497-1.204-0.497h-10.103c-0.456,0-0.884,0.177-1.204,0.497c-0.326,0.326-0.499,0.743-0.499,1.206v16.346
		c0,0.457,0.177,0.885,0.497,1.203c0.321,0.322,0.749,0.499,1.206,0.499h6.995c0.649,0,1.276-0.127,1.862-0.377
		c0.575-0.246,1.089-0.588,1.528-1.017c0.445-0.435,0.797-0.952,1.046-1.538c0.249-0.587,0.376-1.223,0.376-1.887v-5.074
		c0-0.665-0.126-1.3-0.376-1.888C335.884,153.536,335.54,153.022,335.107,152.588z M332.227,162.386
		c-0.16,0.071-0.334,0.105-0.532,0.105h-5.292v-7.9h5.292c0.201,0,0.382,0.036,0.555,0.11c0.176,0.076,0.322,0.175,0.446,0.304
		c0.137,0.142,0.243,0.3,0.325,0.483c0.071,0.159,0.105,0.332,0.105,0.522l-0.025,5.057c0,0.196-0.034,0.368-0.105,0.526
		c-0.082,0.184-0.189,0.343-0.325,0.484C332.544,162.209,332.399,162.31,332.227,162.386z"/>
	<path fill="#FFFFFF" d="M362.605,146.146c-0.389,0-0.739,0.145-1.013,0.419c-0.274,0.274-0.419,0.624-0.419,1.013v10.195h-5.748
		c-0.252,0-0.48-0.046-0.698-0.14c-0.226-0.098-0.414-0.224-0.575-0.385c-0.162-0.162-0.287-0.351-0.385-0.577
		c-0.094-0.219-0.14-0.448-0.14-0.702v-8.39c0-0.38-0.136-0.725-0.396-0.999c-0.27-0.283-0.633-0.433-1.049-0.433
		c-0.4,0-0.754,0.15-1.024,0.434c-0.258,0.272-0.395,0.617-0.395,0.998v8.39c0,0.643,0.122,1.255,0.362,1.819
		c0.237,0.557,0.567,1.055,0.981,1.478c0.419,0.43,0.917,0.769,1.479,1.008c0.565,0.241,1.177,0.363,1.82,0.363h5.767v0.614
		c0,0.25-0.045,0.473-0.137,0.68c-0.101,0.227-0.232,0.422-0.4,0.596c-0.161,0.167-0.345,0.295-0.562,0.392
		c-0.207,0.092-0.43,0.137-0.677,0.137l-7.227-0.026c-0.401,0-0.754,0.152-1.021,0.44c-0.252,0.271-0.385,0.614-0.385,0.992
		c0,0.379,0.134,0.722,0.384,0.991c0.267,0.288,0.621,0.441,1.022,0.441h7.225c0.643,0,1.255-0.122,1.819-0.362
		c0.559-0.238,1.055-0.571,1.473-0.988c0.417-0.417,0.749-0.913,0.988-1.473c0.24-0.565,0.362-1.177,0.362-1.819v-13.672
		c0-0.388-0.144-0.738-0.42-1.014C363.343,146.29,362.993,146.146,362.605,146.146z"/>
	<path fill="#FFFFFF" d="M400.477,146.146c-0.389,0-0.74,0.142-1.017,0.413c-0.28,0.274-0.428,0.627-0.428,1.019v7.01h-7.572v-7.01
		c0-0.38-0.136-0.725-0.396-0.999c-0.27-0.283-0.633-0.433-1.049-0.433c-0.4,0-0.754,0.15-1.024,0.434
		c-0.258,0.272-0.395,0.617-0.395,0.998v16.883c0,0.382,0.137,0.727,0.394,0.997c0.269,0.284,0.623,0.434,1.025,0.434
		c0.418,0,0.781-0.15,1.05-0.434c0.258-0.272,0.395-0.617,0.395-0.998v-7.01h7.572v7.01c0,0.393,0.148,0.745,0.428,1.019
		c0.276,0.27,0.627,0.413,1.017,0.413c0.4,0,0.754-0.15,1.024-0.434c0.258-0.272,0.395-0.617,0.395-0.998v-16.883
		c0-0.38-0.136-0.725-0.396-0.999C401.23,146.296,400.876,146.146,400.477,146.146z"/>
	<path fill="#FFFFFF" d="M417.453,147.522c-0.415-0.414-0.906-0.749-1.461-0.996c-0.568-0.253-1.184-0.381-1.831-0.381h-3.988
		c-0.647,0-1.263,0.128-1.831,0.381c-0.555,0.247-1.047,0.582-1.461,0.996c-0.418,0.418-0.75,0.913-0.988,1.472
		c-0.241,0.565-0.363,1.177-0.363,1.82v10.435c0,0.643,0.122,1.255,0.362,1.819c0.238,0.56,0.571,1.056,0.988,1.473
		c0.417,0.418,0.913,0.75,1.473,0.988c0.565,0.241,1.177,0.363,1.82,0.363h3.988c0.643,0,1.255-0.122,1.819-0.362
		c0.559-0.238,1.055-0.571,1.473-0.988c0.414-0.414,0.749-0.906,0.996-1.461c0.253-0.568,0.381-1.184,0.381-1.831v-10.435
		c0-0.647-0.128-1.263-0.381-1.831C418.203,148.429,417.868,147.938,417.453,147.522z M414.168,163.029h-3.976
		c-0.249,0-0.471-0.045-0.678-0.137c-0.224-0.1-0.418-0.23-0.593-0.398c-0.165-0.159-0.291-0.344-0.387-0.565
		c-0.094-0.219-0.14-0.447-0.14-0.7V150.81c0-0.252,0.046-0.481,0.14-0.7c0.096-0.222,0.222-0.406,0.387-0.565
		c0.174-0.168,0.368-0.299,0.593-0.398c0.208-0.092,0.43-0.137,0.678-0.137h3.976c0.251,0,0.48,0.046,0.698,0.14
		c0.226,0.098,0.414,0.224,0.575,0.385c0.161,0.161,0.287,0.35,0.384,0.576c0.095,0.219,0.14,0.448,0.14,0.7v10.418
		c0,0.252-0.046,0.481-0.14,0.7c-0.098,0.226-0.223,0.414-0.384,0.576c-0.161,0.161-0.349,0.287-0.575,0.384
		C414.648,162.983,414.42,163.029,414.168,163.029z"/>
	<path fill="#FFFFFF" d="M434.846,146.21l-0.024-0.007c-0.682-0.179-1.29,0.071-1.605,0.635l-7.785,12.599v-11.855
		c0-0.388-0.144-0.738-0.42-1.014c-0.274-0.273-0.624-0.417-1.012-0.417c-0.389,0-0.739,0.145-1.013,0.419
		c-0.274,0.274-0.419,0.624-0.419,1.013v16.883c0,0.667,0.377,1.178,1.009,1.369c0.13,0.042,0.272,0.063,0.423,0.063
		c0.527,0,0.969-0.249,1.217-0.684l7.787-12.602v11.855c0,0.39,0.145,0.74,0.418,1.012c0.274,0.274,0.624,0.419,1.014,0.419
		c0.389,0,0.739-0.145,1.013-0.419c0.274-0.274,0.418-0.624,0.418-1.013v-16.883C435.868,146.911,435.486,146.398,434.846,146.21z"
		/>
	<path fill="#FFFFFF" d="M384.559,146.711c-0.197-0.255-0.467-0.432-0.762-0.506c-0.673-0.188-1.304,0.093-1.632,0.713
		l-5.963,11.279l-5.94-11.279c-0.26-0.49-0.703-0.771-1.216-0.771c-0.135,0-0.275,0.02-0.397,0.054
		c-0.314,0.079-0.584,0.256-0.781,0.512c-0.195,0.253-0.298,0.554-0.298,0.87v16.883c0,0.39,0.145,0.74,0.418,1.012
		c0.274,0.274,0.624,0.419,1.014,0.419c0.389,0,0.739-0.145,1.013-0.419c0.274-0.274,0.419-0.624,0.419-1.013v-11.116l4.506,8.567
		l0.022,0.039c0.069,0.116,0.154,0.214,0.244,0.303c0.002,0.002,0.003,0.003,0.005,0.005c0.003,0.003,0.006,0.005,0.009,0.008
		c0.054,0.052,0.112,0.1,0.173,0.142c0.032,0.023,0.065,0.044,0.099,0.064c0.022,0.012,0.042,0.026,0.064,0.037
		c0.203,0.106,0.43,0.161,0.671,0.161c0.399,0,0.753-0.149,1.025-0.435c0.142-0.15,0.218-0.228,0.311-0.402l4.431-8.501v11.128
		c0,0.39,0.145,0.74,0.418,1.012c0.274,0.274,0.624,0.419,1.014,0.419c0.389,0,0.739-0.145,1.013-0.419
		c0.274-0.274,0.418-0.624,0.418-1.013v-16.883C384.857,147.266,384.754,146.966,384.559,146.711z"/>
</g>
</svg>
