<?xml version="1.0" encoding="utf-8"?>
<!-- Generator: Adobe Illustrator 17.0.0, SVG Export Plug-In . SVG Version: 6.00 Build 0)  -->
<!DOCTYPE svg PUBLIC "-//W3C//DTD SVG 1.1//EN" "http://www.w3.org/Graphics/SVG/1.1/DTD/svg11.dtd">
<svg version="1.1" id="Layer_1" xmlns="http://www.w3.org/2000/svg" xmlns:xlink="http://www.w3.org/1999/xlink" x="0px" y="0px"
	 width="556px" height="344px" viewBox="0 0 556 344" enable-background="new 0 0 556 344" xml:space="preserve">
<rect y="0" width="556" height="344"/>
<g>
	<path fill="#43DA59" d="M316.812,120.375C304.894,104.792,292.269,97,278.937,97c-10.333,0-19.124,3.668-26.375,11
		c-7.334,7.333-11,16.168-11,26.5c0,7.584,2.082,14.499,6.249,20.75l40,45.374c2.417,2.5,3.625,5.46,3.625,8.875
		c0,3.419-1.208,6.375-3.625,8.875c-2.418,2.418-5.374,3.625-8.875,3.625c-3.668,0-6.75-1.416-9.25-4.25l-40.625-45.875
		c-8.334-11.082-12.5-23.542-12.5-37.375c0-16.75,6.707-31.501,20.125-44.25C249.519,78.083,263.604,72,278.937,72
		c12.832,0,23.958,2.959,33.376,8.875c7.166,4.5,14.75,11.834,22.749,22c2.916,3.668,4.376,7.084,4.376,10.25
		c0,3.499-1.21,6.458-3.625,8.875c-2.418,2.418-5.375,3.625-8.875,3.625C322.688,125.625,319.313,123.875,316.812,120.375z"/>
	<path fill="#FFFFFF" d="M239.188,223.625c11.916,15.583,24.5,23.374,37.749,23.374c10.417,0,19.25-3.666,26.5-11
		c7.332-7.332,11-16.166,11-26.5c0-8.582-2.084-15.5-6.249-20.75l-40-45.374c-2.418-2.501-3.625-5.457-3.625-8.875
		c0-3.416,1.207-6.375,3.625-8.875c2.416-2.417,5.332-3.625,8.749-3.625c3.751,0,6.876,1.417,9.375,4.25l40.625,45.875
		c8.332,9.668,12.5,22.124,12.5,37.375c0,16.75-6.708,31.459-20.125,44.126C306.479,265.875,292.353,272,276.937,272
		c-12.749,0-23.833-2.958-33.25-8.875c-7.167-4.5-14.75-11.832-22.749-22c-2.918-3.667-4.375-7.082-4.375-10.25
		c0-3.499,1.206-6.457,3.624-8.875c2.417-2.416,5.375-3.625,8.875-3.625C233.312,218.375,236.687,220.125,239.188,223.625z"/>
</g>
</svg>
