<?xml version="1.0" encoding="utf-8"?>
<!-- Generator: Adobe Illustrator 16.0.2, SVG Export Plug-In . SVG Version: 6.00 Build 0)  -->
<!DOCTYPE svg PUBLIC "-//W3C//DTD SVG 1.1//EN" "http://www.w3.org/Graphics/SVG/1.1/DTD/svg11.dtd">
<svg version="1.1" id="Layer_1" xmlns="http://www.w3.org/2000/svg" xmlns:xlink="http://www.w3.org/1999/xlink" x="0px" y="0px"
	 width="1720px" height="2400px" viewBox="0 0 1720 2400" enable-background="new 0 0 1720 2400" xml:space="preserve">
<rect y="0.109" fill="#E1FFFF" width="860" height="400"/>
<g>
	<circle fill="#00A1FF" cx="264.53" cy="200.109" r="50.53"/>
	<g>
		<circle fill="#00A1FF" cx="374.699" cy="200.109" r="50.53"/>
		<circle fill="#00A1FF" cx="331.542" cy="156.952" r="7.374"/>
	</g>
	<g>
		<circle fill="#00A1FF" cx="638.626" cy="243.267" r="7.374"/>
		<circle fill="#00A1FF" cx="595.47" cy="200.109" r="50.53"/>
	</g>
	<g>
		<path fill="#00A1FF" d="M485.011,250.423c0-27.908,22.623-50.53,50.53-50.53c0.096,0,0.19,0.001,0.286,0.003
			c-0.115-27.81-22.69-50.316-50.526-50.316c-27.907,0-50.529,22.622-50.529,50.53c0,27.811,22.469,50.371,50.242,50.525
			C485.014,250.563,485.011,250.494,485.011,250.423z"/>
	</g>
</g>
<rect x="860" y="0.109" fill="#FFE1FF" width="860" height="400"/>
<g>
	<circle fill="#A13DFF" cx="1124.529" cy="200.109" r="50.529"/>
	<g>
		<circle fill="#A13DFF" cx="1234.698" cy="200.109" r="50.53"/>
		<circle fill="#A13DFF" cx="1191.542" cy="156.952" r="7.374"/>
	</g>
	<g>
		<circle fill="#A13DFF" cx="1498.626" cy="243.267" r="7.374"/>
		<circle fill="#A13DFF" cx="1455.47" cy="200.109" r="50.53"/>
	</g>
	<g>
		<path fill="#A13DFF" d="M1345.01,250.423c0-27.908,22.623-50.53,50.531-50.53c0.096,0,0.189,0.001,0.285,0.003
			c-0.115-27.81-22.689-50.316-50.525-50.316c-27.908,0-50.529,22.622-50.529,50.53c0,27.811,22.469,50.371,50.242,50.525
			C1345.014,250.563,1345.01,250.494,1345.01,250.423z"/>
	</g>
</g>
<rect y="400.109" fill="#FFFFE1" width="860" height="400"/>
<g>
	<circle fill="#FFA100" cx="264.53" cy="600.109" r="50.53"/>
	<g>
		<circle fill="#FFA100" cx="374.699" cy="600.109" r="50.53"/>
		<circle fill="#FFA100" cx="331.542" cy="556.953" r="7.374"/>
	</g>
	<g>
		<circle fill="#FFA100" cx="638.626" cy="643.268" r="7.374"/>
		<circle fill="#FFA100" cx="595.47" cy="600.109" r="50.53"/>
	</g>
	<g>
		<path fill="#FFA100" d="M485.011,650.424c0-27.908,22.623-50.531,50.53-50.531c0.096,0,0.19,0.002,0.286,0.004
			c-0.115-27.811-22.69-50.316-50.526-50.316c-27.907,0-50.529,22.621-50.529,50.529c0,27.811,22.469,50.371,50.242,50.525
			C485.014,650.564,485.011,650.494,485.011,650.424z"/>
	</g>
</g>
<rect x="860" y="400.109" fill="#C0FFE1" width="860" height="400"/>
<g>
	<circle fill="#40C800" cx="1124.529" cy="600.109" r="50.529"/>
	<g>
		<circle fill="#40C800" cx="1234.698" cy="600.109" r="50.53"/>
		<circle fill="#40C800" cx="1191.542" cy="556.953" r="7.374"/>
	</g>
	<g>
		<circle fill="#40C800" cx="1498.626" cy="643.268" r="7.374"/>
		<circle fill="#40C800" cx="1455.47" cy="600.109" r="50.53"/>
	</g>
	<g>
		<path fill="#40C800" d="M1345.01,650.424c0-27.908,22.623-50.531,50.531-50.531c0.096,0,0.189,0.002,0.285,0.004
			c-0.115-27.811-22.689-50.316-50.525-50.316c-27.908,0-50.529,22.621-50.529,50.529c0,27.811,22.469,50.371,50.242,50.525
			C1345.014,650.564,1345.01,650.494,1345.01,650.424z"/>
	</g>
</g>
<g>
	<g>
		<path fill="#3D00FF" d="M625.518,1272.178c-39.737,0-72.065-32.328-72.065-72.065s32.328-72.065,72.065-72.065
			c39.737,0,72.066,32.328,72.066,72.065S665.255,1272.178,625.518,1272.178z M625.518,1130.047
			c-38.634,0-70.065,31.432-70.065,70.065s31.431,70.065,70.065,70.065c38.635,0,70.066-31.432,70.066-70.065
			S664.153,1130.047,625.518,1130.047z"/>
	</g>
	<g>
		<path fill="#3D00FF" d="M938.031,1272.178l-1.006-0.006c-39.512-0.221-71.656-32.546-71.656-72.06
			c0-39.737,32.328-72.065,72.064-72.065c39.572,0,71.898,32.191,72.061,71.761l0.004,1.011l-1.406-0.012
			c-38.634,0-70.064,31.431-70.064,70.063L938.031,1272.178z M937.434,1130.047c-38.634,0-70.064,31.432-70.064,70.065
			c0,38.081,30.708,69.296,68.662,70.047c0.381-39.206,32.232-71.022,71.451-71.35
			C1006.787,1160.8,975.572,1130.047,937.434,1130.047z"/>
	</g>
	<g>
		<path fill="#3D00FF" d="M781.476,1272.178c-39.106,0-71.219-31.546-72.045-70.523h-0.014l-0.005-1v-72.607h72.065
			c39.736,0,72.064,32.328,72.064,72.065S821.212,1272.178,781.476,1272.178z M711.411,1200.232l0.005,0.414
			c0.288,38.34,31.716,69.531,70.06,69.531c38.633,0,70.064-31.432,70.064-70.065s-31.431-70.065-70.064-70.065h-70.065V1200.232z"
			/>
	</g>
	<g>
		<path fill="#3D00FF" d="M1165.453,1272.178l-72.065-0.002c-39.738-0.002-72.065-32.33-72.065-72.064
			c0-39.736,32.328-72.064,72.065-72.064c39.105,0,71.218,31.546,72.042,70.522h0.015l0.009,1V1272.178z M1093.388,1130.047
			c-38.634,0-70.065,31.431-70.065,70.064c0,38.632,31.43,70.063,70.062,70.064l70.069,0.002l-0.009-70.601
			C1163.158,1161.238,1131.731,1130.047,1093.388,1130.047z"/>
	</g>
</g>
<rect y="1600" fill="#E1FFFF" width="430" height="800"/>
<rect x="429.951" y="1600" fill="#FFFFE1" width="430" height="800"/>
<g>
	<path fill="#00A1FF" d="M163.383,2153.813c0,19.126,15.563,34.687,34.689,34.687h33.855c19.127,0,34.689-15.561,34.689-34.687
		c0-19.129-15.563-34.689-34.689-34.689h-33.855C178.945,2119.124,163.383,2134.685,163.383,2153.813z M255.718,2153.813
		c0,13.115-10.672,23.787-23.79,23.787h-33.855c-13.117,0-23.79-10.672-23.79-23.787c0-13.118,10.673-23.79,23.79-23.79h33.855
		C245.046,2130.023,255.718,2140.695,255.718,2153.813z"/>
	<path fill="#00A1FF" d="M212.878,2056.631c-5.227-6.854-13.275-10.881-21.986-10.881c-15.168,0-27.509,12.397-27.509,27.637v26.672
		c0,2.955,2.497,5.451,5.451,5.451h92.334c2.953,0,5.449-2.496,5.449-5.451v-26.672c0-16.301-13.26-29.561-29.561-29.561
		C227.394,2043.826,218.341,2048.677,212.878,2056.631z M207.628,2073.387v21.224h-33.346v-21.224c0-8.526,6.409-15.584,14.66-16.61
		h1.949C200.12,2056.776,207.628,2064.229,207.628,2073.387z M255.718,2073.387v21.224h-37.192v-21.224
		c0-10.29,8.371-18.661,18.661-18.661C247.405,2054.726,255.718,2063.097,255.718,2073.387z"/>
	<path fill="#00A1FF" d="M258.244,1965.516l-30.676,19.356c-2.437-5.594-6.325-10.385-11.336-13.946
		c-5.687-4.042-12.41-6.182-19.442-6.182c-18.42,0-33.407,15.047-33.407,33.537v22.826c0,2.954,2.497,5.447,5.451,5.447h92.334
		c3.577,0,5.449-2.739,5.449-5.447c0-2.709-1.872-5.449-5.449-5.449h-30.844v-17.377c0-0.705,0-1.426-0.041-2.127l33.781-21.518
		c1.621-0.983,2.553-2.602,2.553-4.44c0-3.04-2.486-5.708-5.321-5.708C259.967,1964.488,258.969,1965.035,258.244,1965.516z
		 M196.919,1975.645c12.41,0,22.507,10.153,22.507,22.637v17.377h-45.144v-17.377
		C174.282,1985.798,184.437,1975.645,196.919,1975.645z"/>
	<path fill="#00A1FF" d="M209.697,1816.234l-44.658,131.095c-0.187,0.546-0.373,1.273-0.373,1.82c0,3.276,2.978,5.28,5.77,5.28
		c2.232,0,4.278-1.094,5.209-3.824l13.957-40.969H240.4l13.956,40.969c0.931,2.73,2.977,3.824,5.024,3.824
		c2.977,0,5.954-2.004,5.954-5.28c0-0.547-0.187-1.274-0.372-1.82l-44.66-131.095c-1.115-3.277-3.161-4.734-5.396-4.734
		C212.861,1811.5,210.814,1812.957,209.697,1816.234z"/>
</g>
<g>
	<path fill="#FFA100" d="M642.853,2056.457c-5.177-6.785-13.144-10.77-21.768-10.77c-15.014,0-27.231,12.271-27.231,27.357v26.403
		c0,2.927,2.471,5.395,5.394,5.395h91.406c2.923,0,5.395-2.468,5.395-5.395v-26.403c0-16.136-13.125-29.264-29.261-29.264
		C657.219,2043.781,648.26,2048.582,642.853,2056.457z M637.654,2073.045v21.009h-33.012v-21.009
		c0-8.441,6.346-15.428,14.512-16.442h1.931C630.222,2056.603,637.654,2063.979,637.654,2073.045z M685.26,2073.045v21.009h-36.816
		v-21.009c0-10.188,8.286-18.475,18.471-18.475C677.03,2054.57,685.26,2062.856,685.26,2073.045z"/>
	<path fill="#FFA100" d="M687.759,1966.347l-30.366,19.161c-2.412-5.537-6.26-10.281-11.222-13.808
		c-5.628-4.001-12.284-6.115-19.246-6.115c-18.234,0-33.071,14.892-33.071,33.195v22.599c0,2.923,2.471,5.395,5.394,5.395h91.406
		c3.542,0,5.395-2.715,5.395-5.395s-1.852-5.395-5.395-5.395h-30.531v-17.204c0-0.695,0-1.409-0.044-2.102l33.441-21.303
		c1.608-0.974,2.528-2.576,2.528-4.396c0-3.009-2.462-5.65-5.269-5.65C689.466,1965.329,688.477,1965.869,687.759,1966.347z
		 M627.052,1976.374c12.287,0,22.279,10.053,22.279,22.406v17.204h-44.688v-17.204
		C604.643,1986.427,614.695,1976.374,627.052,1976.374z"/>
	<path fill="#FFA100" d="M639.702,1816.187l-44.208,129.774c-0.187,0.543-0.37,1.264-0.37,1.804c0,3.246,2.945,5.228,5.711,5.228
		c2.209,0,4.234-1.081,5.157-3.786l13.816-40.555h50.289l13.816,40.555c0.919,2.705,2.945,3.786,4.971,3.786
		c2.949,0,5.897-1.981,5.897-5.228c0-0.54-0.187-1.261-0.37-1.804L650.2,1816.187c-1.103-3.242-3.128-4.687-5.341-4.687
		C642.834,1811.5,640.808,1812.944,639.702,1816.187z"/>
	<path fill="#FFA100" d="M593.854,2154.161c0,18.937,15.406,34.339,34.342,34.339h33.514c18.936,0,34.339-15.402,34.339-34.339
		s-15.403-34.339-34.339-34.339h-33.514C609.26,2119.822,593.854,2135.225,593.854,2154.161z M685.26,2154.161
		c0,12.985-10.564,23.55-23.55,23.55h-33.514c-12.988,0-23.553-10.564-23.553-23.55s10.565-23.55,23.553-23.55h33.514
		C674.695,2130.611,685.26,2141.176,685.26,2154.161z"/>
</g>
<rect x="860.049" y="1600" fill="#FFE1FF" width="430" height="800"/>
<rect x="1290" y="1600" fill="#C0FFE1" width="430" height="800"/>
<g>
	<path fill="#A13DFF" d="M1023.432,2153.813c0,19.126,15.563,34.687,34.689,34.687h33.855c19.127,0,34.689-15.561,34.689-34.687
		c0-19.129-15.563-34.689-34.689-34.689h-33.855C1038.994,2119.124,1023.432,2134.685,1023.432,2153.813z M1115.767,2153.813
		c0,13.115-10.672,23.787-23.79,23.787h-33.855c-13.117,0-23.79-10.672-23.79-23.787c0-13.118,10.673-23.79,23.79-23.79h33.855
		C1105.095,2130.023,1115.767,2140.695,1115.767,2153.813z"/>
	<path fill="#A13DFF" d="M1072.927,2056.631c-5.227-6.854-13.275-10.881-21.986-10.881c-15.168,0-27.509,12.397-27.509,27.637
		v26.672c0,2.955,2.497,5.451,5.451,5.451h92.334c2.953,0,5.449-2.496,5.449-5.451v-26.672c0-16.301-13.26-29.561-29.561-29.561
		C1087.442,2043.826,1078.39,2048.677,1072.927,2056.631z M1067.677,2073.387v21.224h-33.346v-21.224
		c0-8.526,6.409-15.584,14.66-16.61h1.949C1060.169,2056.776,1067.677,2064.229,1067.677,2073.387z M1115.767,2073.387v21.224
		h-37.192v-21.224c0-10.29,8.371-18.661,18.661-18.661C1107.454,2054.726,1115.767,2063.097,1115.767,2073.387z"/>
	<path fill="#A13DFF" d="M1118.293,1965.516l-30.676,19.356c-2.437-5.594-6.325-10.385-11.336-13.946
		c-5.687-4.042-12.41-6.182-19.442-6.182c-18.42,0-33.407,15.047-33.407,33.537v22.826c0,2.954,2.497,5.447,5.451,5.447h92.334
		c3.577,0,5.449-2.739,5.449-5.447c0-2.709-1.872-5.449-5.449-5.449h-30.844v-17.377c0-0.705,0-1.426-0.041-2.127l33.781-21.518
		c1.621-0.983,2.553-2.602,2.553-4.44c0-3.04-2.486-5.708-5.321-5.708C1120.016,1964.488,1119.018,1965.035,1118.293,1965.516z
		 M1056.968,1975.645c12.41,0,22.507,10.153,22.507,22.637v17.377h-45.144v-17.377
		C1034.331,1985.798,1044.485,1975.645,1056.968,1975.645z"/>
	<path fill="#A13DFF" d="M1069.746,1816.234l-44.658,131.095c-0.187,0.546-0.373,1.273-0.373,1.82c0,3.276,2.978,5.28,5.77,5.28
		c2.232,0,4.278-1.094,5.209-3.824l13.957-40.969h50.799l13.956,40.969c0.931,2.73,2.977,3.824,5.024,3.824
		c2.977,0,5.954-2.004,5.954-5.28c0-0.547-0.187-1.274-0.372-1.82l-44.66-131.095c-1.115-3.277-3.161-4.734-5.396-4.734
		C1072.91,1811.5,1070.863,1812.957,1069.746,1816.234z"/>
</g>
<g>
	<path fill="#3DC800" d="M1502.902,2056.457c-5.178-6.785-13.145-10.77-21.768-10.77c-15.015,0-27.232,12.271-27.232,27.357v26.403
		c0,2.927,2.472,5.395,5.395,5.395h91.406c2.923,0,5.395-2.468,5.395-5.395v-26.403c0-16.136-13.125-29.264-29.261-29.264
		C1517.268,2043.781,1508.309,2048.582,1502.902,2056.457z M1497.703,2073.045v21.009h-33.012v-21.009
		c0-8.441,6.346-15.428,14.512-16.442h1.932C1490.271,2056.603,1497.703,2063.979,1497.703,2073.045z M1545.309,2073.045v21.009
		h-36.816v-21.009c0-10.188,8.286-18.475,18.471-18.475C1537.079,2054.57,1545.309,2062.856,1545.309,2073.045z"/>
	<path fill="#3DC800" d="M1547.809,1966.347l-30.367,19.161c-2.411-5.537-6.26-10.281-11.222-13.808
		c-5.628-4.001-12.284-6.115-19.245-6.115c-18.234,0-33.072,14.892-33.072,33.195v22.599c0,2.923,2.472,5.395,5.395,5.395h91.406
		c3.543,0,5.395-2.715,5.395-5.395s-1.852-5.395-5.395-5.395h-30.531v-17.204c0-0.695,0-1.409-0.044-2.102l33.441-21.303
		c1.608-0.974,2.528-2.576,2.528-4.396c0-3.009-2.462-5.65-5.269-5.65C1549.515,1965.329,1548.525,1965.869,1547.809,1966.347z
		 M1487.101,1976.374c12.287,0,22.279,10.053,22.279,22.406v17.204h-44.688v-17.204
		C1464.691,1986.427,1474.744,1976.374,1487.101,1976.374z"/>
	<path fill="#3DC800" d="M1499.751,1816.187l-44.208,129.774c-0.187,0.543-0.37,1.264-0.37,1.804c0,3.246,2.945,5.228,5.711,5.228
		c2.209,0,4.234-1.081,5.157-3.786l13.816-40.555h50.289l13.816,40.555c0.919,2.705,2.945,3.786,4.971,3.786
		c2.948,0,5.896-1.981,5.896-5.228c0-0.54-0.187-1.261-0.369-1.804l-44.212-129.774c-1.103-3.242-3.128-4.687-5.341-4.687
		C1502.883,1811.5,1500.857,1812.944,1499.751,1816.187z"/>
	<path fill="#3DC800" d="M1453.902,2154.161c0,18.937,15.406,34.339,34.342,34.339h33.515c18.936,0,34.339-15.402,34.339-34.339
		s-15.403-34.339-34.339-34.339h-33.515C1469.309,2119.822,1453.902,2135.225,1453.902,2154.161z M1545.309,2154.161
		c0,12.985-10.564,23.55-23.55,23.55h-33.515c-12.988,0-23.553-10.564-23.553-23.55s10.564-23.55,23.553-23.55h33.515
		C1534.744,2130.611,1545.309,2141.176,1545.309,2154.161z"/>
</g>
</svg>
