<?xml version="1.0" encoding="utf-8"?>
<!-- Generator: Adobe Illustrator 17.0.0, SVG Export Plug-In . SVG Version: 6.00 Build 0)  -->
<!DOCTYPE svg PUBLIC "-//W3C//DTD SVG 1.1//EN" "http://www.w3.org/Graphics/SVG/1.1/DTD/svg11.dtd">
<svg version="1.1" id="Layer_1" xmlns="http://www.w3.org/2000/svg" xmlns:xlink="http://www.w3.org/1999/xlink" x="0px" y="0px"
	 width="556px" height="344px" viewBox="0 0 556 344" enable-background="new 0 0 556 344" xml:space="preserve">
<rect x="-0.148" width="556" height="344"/>
<g>
	<path fill="#FFC800" d="M295.883,233.493l-36.858,11.363c-1.202,0.37-1.876,1.645-1.506,2.847c0.302,0.978,1.203,1.607,2.176,1.607
		c0.222,0,0.448-0.033,0.672-0.102l36.858-11.363c1.202-0.37,1.876-1.645,1.505-2.847
		C298.359,233.797,297.084,233.123,295.883,233.493z"/>
	<path fill="#FFC800" d="M282.402,248.658l-9.873,3.044c-1.202,0.37-1.876,1.645-1.505,2.847c0.302,0.979,1.202,1.607,2.175,1.607
		c0.222,0,0.448-0.033,0.672-0.102l9.873-3.044c1.202-0.37,1.876-1.645,1.505-2.847
		C284.878,248.961,283.603,248.287,282.402,248.658z"/>
	<g>
		<path fill="#FFC800" d="M278.213,103.939c1.258,0,2.277-1.02,2.277-2.277V64.865c0-1.258-1.02-2.277-2.277-2.277
			c-1.258,0-2.277,1.02-2.277,2.277v36.796C275.936,102.919,276.955,103.939,278.213,103.939z"/>
		<path fill="#FFC800" d="M348.909,86.456c-0.889-0.889-2.331-0.889-3.22,0l-26.019,26.019c-0.89,0.889-0.89,2.331,0,3.221
			c0.445,0.445,1.027,0.667,1.61,0.667c0.583,0,1.166-0.222,1.61-0.667l26.019-26.019C349.799,88.787,349.799,87.345,348.909,86.456
			z"/>
		<path fill="#FFC800" d="M210.014,85.953c-0.889-0.889-2.331-0.889-3.221,0c-0.889,0.889-0.889,2.331,0,3.221l26.019,26.019
			c0.444,0.445,1.027,0.667,1.61,0.667c0.583,0,1.166-0.222,1.61-0.667c0.89-0.889,0.89-2.331,0-3.22L210.014,85.953z"/>
		<path fill="#FFC800" d="M311.985,124.262c-1.967-1.967-4.272-3.518-6.908-4.658c-2.64-1.137-5.463-1.708-8.464-1.708h-36.796
			c-3.006,0-5.824,0.571-8.464,1.708c-2.64,1.139-4.941,2.691-6.908,4.658c-1.967,1.967-3.519,4.27-4.66,6.908
			c-1.137,2.64-1.708,5.461-1.708,8.462v64.903c0,3.001,0.571,5.822,1.708,8.46c1.142,2.64,2.693,4.946,4.66,6.91
			c1.967,1.967,4.268,3.521,6.908,4.658c2.594,1.119,5.361,1.685,8.308,1.704V122.554h36.953v99.266l-37.644,11.605
			c-1.202,0.37-1.876,1.645-1.506,2.847c0.302,0.979,1.202,1.607,2.176,1.607c0.222,0,0.448-0.033,0.672-0.102l37.41-11.533
			c2.59-0.124,5.043-0.684,7.356-1.682c2.635-1.137,4.941-2.692,6.908-4.658c1.962-1.964,3.518-4.27,4.656-6.91
			c1.137-2.638,1.708-5.459,1.708-8.46v-64.903c0-3.001-0.571-5.822-1.708-8.462C315.504,128.532,313.948,126.229,311.985,124.262z"
			/>
	</g>
</g>
</svg>
