<?xml version="1.0" encoding="utf-8"?>
<!-- Generator: Adobe Illustrator 16.0.2, SVG Export Plug-In . SVG Version: 6.00 Build 0)  -->
<!DOCTYPE svg PUBLIC "-//W3C//DTD SVG 1.1//EN" "http://www.w3.org/Graphics/SVG/1.1/DTD/svg11.dtd">
<svg version="1.1" id="Layer_1" xmlns="http://www.w3.org/2000/svg" xmlns:xlink="http://www.w3.org/1999/xlink" x="0px" y="0px"
	 width="556px" height="344px" viewBox="0 0 556 344" enable-background="new 0 0 556 344" xml:space="preserve">
<rect x="0" fill="#EBBCB5" width="556" height="344"/>
<g>
	<circle fill="#FAD6CF" cx="278.493" cy="173" r="116.5"/>
	<circle fill="#FAD6CF" cx="278.493" cy="173" r="116.5"/>
	<path fill="#793526" d="M249.91,169.411c0.466-4.452,1.419-10.926,3.374-18.389c3.078-11.747,9.284-27.999,21.573-41.226
		c-0.815,0.065-1.327,0.127-1.327,0.127c-37.505,4.468-61.961,24.555-73.822,59.582c1.118-0.912,2.506-2.037,3.886-3.171
		c10.898-8.958,32.365-9.091,43.274-0.125C247.99,167.134,248.956,168.251,249.91,169.411z"/>
	<path fill="#551C10" d="M283.481,109.917c0,0-0.543-0.05-1.329-0.104c12.279,13.223,18.483,29.467,21.559,41.21
		c1.966,7.503,2.919,14.007,3.382,18.46c1.305-1.505,2.579-2.94,4.13-3.953c11.322-7.386,23.423-7.615,35.799-3.021
		c4.087,1.517,7.537,4.081,10.257,7.539C345.476,134.479,321.041,114.367,283.481,109.917z"/>
	<path fill="#793526" d="M278.497,111.063c-19.029,19.588-23.88,47.251-25.107,59.038c2.002-3.111,4.889-5.241,8.243-6.828
		c5.506-2.606,11.149-3.805,16.886-3.764v-48.423C278.511,111.078,278.504,111.07,278.497,111.063z"/>
	<path fill="#154F78" d="M278.476,102.069c-2.251,0-4.075,1.824-4.075,4.076v1.587h4.118v-5.661
		C278.504,102.071,278.49,102.069,278.476,102.069z"/>
	<path fill="#0E3855" d="M282.552,106.145c0-2.237-1.803-4.051-4.034-4.074v5.661h4.034V106.145z"/>
	<path fill="#551C10" d="M303.602,169.966c-0.45-4.351-1.383-10.797-3.313-18.146c-3.061-11.647-9.301-27.878-21.771-40.734v48.423
		c3.525,0.025,7.088,0.517,10.674,1.441C295.006,162.447,300.162,165.004,303.602,169.966z"/>
	<path fill="#154F78" d="M274.4,168.803c0,0,0,56.546,0,56.585c0,5.744-4.647,10.402-10.393,10.402s-10.403-4.658-10.403-10.402
		c0-0.066,0-1.787,0-1.787c0-2.248-1.821-4.07-4.069-4.07c-2.249,0-4.071,1.822-4.071,4.07c0,0,0,1.721,0,1.787
		c0,10.242,8.301,18.545,18.544,18.545c5.821,0,11.014-2.686,14.414-6.883v-72.32C276.196,164.76,274.4,166.572,274.4,168.803z"/>
	<path fill="#0E3855" d="M282.55,225.271h0.002v-54.88v-1.588c0-2.251-1.825-4.076-4.076-4.076c-0.018,0-0.035,0.003-0.054,0.003
		v72.32c2.581-3.188,4.13-7.242,4.13-11.662C282.552,225.35,282.55,225.311,282.55,225.271z"/>
	<path fill="#FAD6CF" d="M337.728,135.554c8.449,9.149,14.957,20.65,19.551,34.494c-2.72-3.458-6.17-6.022-10.256-7.539
		c-12.377-4.594-24.478-4.365-35.8,3.021c-1.551,1.012-2.825,2.448-4.129,3.953c-0.463-4.452-1.417-10.957-3.383-18.46
		c-3.075-11.743-9.278-27.987-21.559-41.211c0.787,0.056,1.329,0.105,1.329,0.105c1.769,0.209,3.509,0.454,5.22,0.733l-7.025-7.025
		c0.547,0.694,0.877,1.567,0.877,2.52v1.587h-4.035h-4.101l-0.015,0.016l3.714,3.713c0.128-0.133,0.252-0.267,0.381-0.398
		c0.007,0.008,0.015,0.016,0.021,0.023c12.469,12.855,18.709,29.086,21.771,40.735c1.931,7.349,2.863,13.796,3.313,18.146
		c-3.438-4.962-8.595-7.52-14.408-9.018c-3.588-0.923-7.148-1.416-10.675-1.44c-5.736-0.042-11.379,1.158-16.885,3.763
		c-3.354,1.588-6.241,3.718-8.243,6.828c1.202-11.542,5.881-38.308,23.943-57.807l-2.476-2.476l-0.221,0.221
		c-12.142,13.183-18.294,29.308-21.353,40.983c-1.955,7.461-2.908,13.937-3.374,18.388c-0.953-1.161-1.92-2.278-3.043-3.201
		c-10.908-8.966-32.375-8.834-43.273,0.125c-1.273,1.046-2.551,2.083-3.619,2.953l-0.081,0.081l50.204,50.206
		c1.981,0.273,3.507,1.971,3.507,4.025c0,0,0,1.721,0,1.787c0,5.746,4.657,10.404,10.404,10.404c5.744,0,10.393-4.658,10.393-10.404
		c0-0.039,0-56.583,0-56.583c0-2.233,1.796-4.044,4.021-4.073c0.018,0,0.036-0.003,0.053-0.003c2.252,0,4.076,1.825,4.076,4.076
		v1.587v54.881h-0.002c0,0.039,0.002,0.078,0.002,0.117c0,4.42-1.549,8.475-4.129,11.662c-3.399,4.195-8.593,6.883-14.414,6.883
		c-3.925,0-7.562-1.223-10.558-3.303l46.834,46.832c47.998-9.08,85.583-47.605,93.266-96.086L337.728,135.554z"/>
	<path fill="#FFFFFF" d="M278.492,56.5c-64.341,0-116.499,52.159-116.499,116.5c0,64.342,52.158,116.5,116.499,116.5
		c7.448,0,14.732-0.699,21.792-2.035l-46.834-46.834c-4.824-3.348-7.986-8.926-7.986-15.242c0-0.066,0-1.787,0-1.787
		c0-2.248,1.822-4.07,4.071-4.07c0.19,0,0.378,0.018,0.562,0.043l-50.204-50.205l0.082-0.082c-0.09,0.073-0.181,0.147-0.268,0.218
		c11.861-35.026,36.317-55.115,73.822-59.582c0,0,0.513-0.062,1.328-0.128c-0.075,0.081-0.146,0.163-0.222,0.243l0.223-0.221
		l2.475,2.476c0.257-0.279,0.519-0.557,0.782-0.832l-3.714-3.714l0.016-0.016H274.4v-1.587c0-2.252,1.824-4.076,4.074-4.076
		c0.015,0,0.028,0.002,0.043,0.002c1.281,0.013,2.419,0.619,3.157,1.554l7.025,7.025c20.477,3.34,36.789,11.654,49.027,24.904
		l55.822,55.825c0.948-5.988,1.443-12.125,1.443-18.378C394.993,108.659,342.834,56.5,278.492,56.5z"/>
</g>
</svg>
