<?xml version="1.0" encoding="utf-8"?>
<!-- Generator: Adobe Illustrator 16.0.2, SVG Export Plug-In . SVG Version: 6.00 Build 0)  -->
<!DOCTYPE svg PUBLIC "-//W3C//DTD SVG 1.1//EN" "http://www.w3.org/Graphics/SVG/1.1/DTD/svg11.dtd">
<svg version="1.1" id="Layer_1" xmlns="http://www.w3.org/2000/svg" xmlns:xlink="http://www.w3.org/1999/xlink" x="0px" y="0px"
	 width="556px" height="344px" viewBox="0 0 556 344" enable-background="new 0 0 556 344" xml:space="preserve">
<rect fill="#E70021" width="556" height="344"/>
<g>
	<g>
		<path fill="#FFFFFF" d="M346.45,107.506l-0.994,1.367c-0.536,0.736-0.759,1.654-0.611,2.551c0.148,0.896,0.645,1.701,1.386,2.229
			c18.91,13.484,30.2,35.326,30.2,58.43c0,23-11.205,44.783-29.978,58.277c-0.737,0.531-1.235,1.334-1.376,2.232
			c-0.143,0.894,0.078,1.811,0.615,2.547l0.994,1.361c1.104,1.514,3.221,1.852,4.741,0.76c20.983-15.09,33.508-39.457,33.508-65.178
			c0-25.835-12.615-50.262-33.753-65.348C349.662,105.648,347.549,105.992,346.45,107.506z"/>
		<path fill="#FFFFFF" d="M354.499,172.086c0-17.815-8.736-34.605-23.37-44.914c-1.519-1.068-3.616-0.725-4.714,0.775l-0.996,1.363
			c-0.537,0.738-0.762,1.664-0.609,2.564c0.147,0.905,0.65,1.708,1.4,2.237c12.389,8.712,19.783,22.909,19.783,37.974
			c0,14.953-7.311,29.092-19.553,37.816c-0.742,0.525-1.241,1.329-1.386,2.227c-0.147,0.895,0.073,1.816,0.607,2.556l0.996,1.363
			c1.099,1.511,3.211,1.854,4.733,0.768C345.862,206.497,354.499,189.777,354.499,172.086z"/>
		<path fill="#FFFFFF" d="M323.503,172.095c0-9.597-4.715-18.642-12.613-24.2c-1.52-1.068-3.619-0.72-4.716,0.783l-0.994,1.361
			c-0.535,0.739-0.749,1.664-0.606,2.565c0.148,0.907,0.654,1.71,1.404,2.234c5.648,3.96,9.018,10.41,9.018,17.256
			c0,6.729-3.289,13.122-8.801,17.096c-0.733,0.53-1.229,1.333-1.375,2.228c-0.138,0.895,0.08,1.811,0.613,2.545l0.996,1.359
			c1.104,1.52,3.229,1.854,4.746,0.758C318.893,190.512,323.503,181.547,323.503,172.095z"/>
	</g>
	<path fill="#FFFFFF" d="M170.985,123.249c0-9.985,6.945-14.076,15.597-9.089l82.79,47.766c8.652,4.986,8.618,13.146-0.032,18.135
		l-82.741,47.764c-8.65,4.985-15.613,0.896-15.613-9.088V123.249z"/>
</g>
</svg>
