<?xml version="1.0" encoding="utf-8"?>
<!-- Generator: Adobe Illustrator 17.0.0, SVG Export Plug-In . SVG Version: 6.00 Build 0)  -->
<!DOCTYPE svg PUBLIC "-//W3C//DTD SVG 1.1//EN" "http://www.w3.org/Graphics/SVG/1.1/DTD/svg11.dtd">
<svg version="1.1" id="Layer_1" xmlns="http://www.w3.org/2000/svg" xmlns:xlink="http://www.w3.org/1999/xlink" x="0px" y="0px"
	 width="556px" height="344px" viewBox="0 0 556 344" enable-background="new 0 0 556 344" xml:space="preserve">
<polygon fill="none" points="251.43,344 277.895,205.607 277.882,205.607 251.425,344 "/>
<polygon fill="#00E1FF" points="277.882,205.607 0,205.607 0,344 251.425,344 "/>
<polygon fill="#00C3FF" points="556,93.823 277.895,205.607 556,321.336 "/>
<polygon fill="#00A5FF" points="277.895,205.607 251.43,344 556,344 556,321.336 "/>
<polygon fill="none" points="254.593,0 277.882,205.596 277.895,205.607 254.595,0 "/>
<polygon fill="#00A5FF" points="254.593,0 47.955,0 277.882,205.596 "/>
<polygon fill="#00A5FF" points="47.955,0 47.954,0 277.883,205.602 277.882,205.596 "/>
<polygon fill="#00E1FF" points="277.895,205.607 470.077,0 254.595,0 "/>
<polygon fill="#00C3FF" points="277.883,205.602 47.954,0 0,0 0,205.602 "/>
<polygon fill="#00FFFF" points="556,0 470.077,0 277.895,205.607 556,93.823 "/>
<g>
	<path fill="#FFFFFF" d="M375.042,245.096H207.804c-23.329-0.02-43.069-16.771-46.939-39.829c-0.442-2.634-0.665-5.321-0.663-7.988
		c0.021-26.247,21.389-47.601,47.632-47.601c3.496,0.001,6.947,0.377,10.31,1.119c3.238-25.59,22.146-46.144,47.532-51.429
		c4.059-0.844,8.219-1.271,12.367-1.271c27.105,0,50.747,17.946,58.093,43.858c3.251-1.34,6.691-2.018,10.251-2.018
		c14.448,0,26.282,11.406,26.972,25.687c0.58-0.027,1.138-0.041,1.683-0.041c21.922,0,39.756,17.834,39.756,39.756
		C414.798,227.261,396.964,245.096,375.042,245.096z M207.874,152.678c-24.63,0-44.652,20.009-44.672,44.603
		c-0.002,2.5,0.207,5.021,0.622,7.49c3.627,21.608,22.124,37.307,43.982,37.325h167.236c20.268,0,36.756-16.489,36.756-36.758
		c0-20.268-16.488-36.756-36.756-36.756c-0.944,0-1.937,0.044-3.035,0.135l-1.623,0.134l0.004-1.812
		c0.003-13.335-10.765-24.103-24-24.103c-3.707,0-7.268,0.827-10.583,2.458l-1.772,0.872l-0.36-1.921
		c-6.454-25.466-29.325-43.249-55.628-43.249c-3.943,0-7.898,0.407-11.756,1.208c-24.272,5.053-42.921,25.816-45.35,50.492
		l-0.171,1.741l-1.808-0.463C215.349,153.149,211.62,152.679,207.874,152.678z"/>
</g>
<polygon fill="#00C3FF" points="277.883,205.602 277.882,205.607 277.895,205.607 277.882,205.596 "/>
<rect x="138.939" y="66.664" fill="#00E1FF" width="0.005" height="277.882"/>
</svg>
