<?xml version="1.0" encoding="utf-8"?>
<!-- Generator: Adobe Illustrator 16.0.2, SVG Export Plug-In . SVG Version: 6.00 Build 0)  -->
<!DOCTYPE svg PUBLIC "-//W3C//DTD SVG 1.1//EN" "http://www.w3.org/Graphics/SVG/1.1/DTD/svg11.dtd">
<svg version="1.1" id="Layer_1" xmlns="http://www.w3.org/2000/svg" xmlns:xlink="http://www.w3.org/1999/xlink" x="0px" y="0px"
	 width="556px" height="344px" viewBox="0 0 556 344" enable-background="new 0 0 556 344" xml:space="preserve">
<rect fill="#FFFFDC" width="556" height="344"/>
<g>
	<g>
		<path fill="#FF6400" d="M248.369,252.008c-2.329,0-4.219-1.891-4.219-4.219v-42.295c0-2.329,1.891-4.219,4.219-4.219
			s4.216,1.89,4.216,4.219v42.295C252.585,250.117,250.697,252.008,248.369,252.008z"/>
	</g>
	<g>
		<path fill="#FF6400" d="M306.978,252.207c-2.329,0-4.216-1.887-4.216-4.217v-42.294c0-2.329,1.887-4.22,4.216-4.22
			c2.329,0,4.216,1.891,4.216,4.22v42.294C311.194,250.32,309.307,252.207,306.978,252.207z"/>
	</g>
	<g>
		<path fill="#FF6400" d="M277.54,278.64c-2.33,0-4.217-1.887-4.217-4.216v-68.435c0-2.329,1.887-4.216,4.217-4.216
			c2.329,0,4.216,1.887,4.216,4.216v68.435C281.756,276.753,279.869,278.64,277.54,278.64z"/>
	</g>
	<path fill="#320032" d="M322,156.726l8.128-8.125c1.169-1.173,1.816-2.731,1.816-4.394c0-1.66-0.646-3.217-1.816-4.391
		l-8.092-8.089l8.065-8.069c1.173-1.169,1.82-2.729,1.82-4.391c0-1.663-0.646-3.221-1.82-4.391l-47.696-47.7
		c-1.172-1.17-2.732-1.816-4.394-1.816c-1.66,0-3.221,0.646-4.391,1.816l-47.7,47.7c-2.42,2.42-2.42,6.361,0,8.781l8.092,8.092
		l-8.069,8.069c-1.17,1.171-1.816,2.729-1.816,4.388c0,1.663,0.646,3.221,1.816,4.394l8.054,8.054l-8.124,8.125
		c-2.424,2.424-2.424,6.361,0,8.785l18.326,18.327c1.173,1.17,2.731,1.815,4.391,1.815c1.662,0,3.221-0.646,4.395-1.815
		l24.978-24.979l24.979,24.979c1.173,1.17,2.731,1.815,4.391,1.815c1.662,0,3.221-0.646,4.394-1.815l18.327-18.327
		c1.173-1.173,1.816-2.735,1.816-4.394c0-1.66-0.643-3.219-1.816-4.392L322,156.726z M233.458,119.267l44.553-44.553l44.555,44.553
		l-15.183,15.183l-24.979-24.979c-1.172-1.17-2.732-1.816-4.394-1.816c-1.66,0-3.221,0.646-4.391,1.816l-24.979,24.979
		L233.458,119.267z M233.482,144.207l6.496-6.493l4.269,4.273c1.173,1.17,2.732,1.816,4.395,1.816c1.66,0,3.221-0.646,4.391-1.816
		l24.979-24.982l24.981,24.982c1.17,1.17,2.729,1.816,4.392,1.816c1.66,0,3.221-0.646,4.391-1.816l4.296-4.299l6.519,6.519
		l-15.183,15.183l-24.978-24.979c-1.174-1.17-2.732-1.816-4.392-1.816c-1.662,0-3.221,0.646-4.395,1.816l-24.979,24.982
		L233.482,144.207z M307.333,184.355l-24.979-24.98c-1.17-1.174-2.731-1.816-4.391-1.816c-1.659,0-3.221,0.642-4.395,1.816
		l-24.978,24.98l-15.183-15.185l6.554-6.555l4.312,4.312c1.171,1.17,2.732,1.816,4.391,1.816c1.663,0,3.221-0.646,4.391-1.816
		l24.982-24.979l24.978,24.979c1.17,1.17,2.732,1.816,4.391,1.816c1.663,0,3.221-0.646,4.392-1.816l4.237-4.237l6.484,6.48
		L307.333,184.355z"/>
</g>
</svg>
