<?xml version="1.0" encoding="utf-8"?>
<!-- Generator: Adobe Illustrator 16.0.2, SVG Export Plug-In . SVG Version: 6.00 Build 0)  -->
<!DOCTYPE svg PUBLIC "-//W3C//DTD SVG 1.1//EN" "http://www.w3.org/Graphics/SVG/1.1/DTD/svg11.dtd">
<svg version="1.1" id="Layer_1" xmlns="http://www.w3.org/2000/svg" xmlns:xlink="http://www.w3.org/1999/xlink" x="0px" y="0px"
	 width="1830.167px" height="1199.824px" viewBox="0 0 1830.167 1199.824" enable-background="new 0 0 1830.167 1199.824"
	 xml:space="preserve">
<g>
	<rect fill="#FFFFDC" width="1830" height="800"/>
	<g>
		<g>
			<g>
				<path fill="#FF6400" d="M654.231,553.265c-4.461,0-8.082-3.621-8.082-8.082v-81.02c0-4.462,3.621-8.083,8.082-8.083
					s8.076,3.621,8.076,8.083v81.02C662.308,549.644,658.692,553.265,654.231,553.265z"/>
			</g>
			<g>
				<path fill="#FF6400" d="M766.503,553.646c-4.461,0-8.076-3.615-8.076-8.077v-81.02c0-4.462,3.615-8.083,8.076-8.083
					s8.076,3.621,8.076,8.083v81.02C774.579,550.03,770.964,553.646,766.503,553.646z"/>
			</g>
			<g>
				<path fill="#FF6400" d="M710.112,604.28c-4.463,0-8.078-3.615-8.078-8.076V465.11c0-4.461,3.615-8.076,8.078-8.076
					c4.461,0,8.076,3.615,8.076,8.076v131.094C718.188,600.665,714.573,604.28,710.112,604.28z"/>
			</g>
			<path fill="#FF6400" d="M921.265,269.861c0-4.813-3.633-8.446-8.445-8.446h-31.24v-22.449h34.691
				c4.813,0,8.445-3.632,8.445-8.445c0-4.818-3.633-8.445-8.445-8.445h-43.139c-4.58,0-8.445,3.865-8.445,8.445v82.824
				c0,4.813,3.633,8.44,8.445,8.44c4.814,0,8.447-3.627,8.447-8.44v-35.037h31.24C917.632,278.308,921.265,274.675,921.265,269.861z
				"/>
			<path fill="#FF6400" d="M965.815,227.903c-1.316-3.949-4.41-6.402-8.076-6.402c-2.809,0-6.379,1.681-7.951,6.402l-27.609,82.825
				c-0.227,0.664-0.488,1.681-0.488,2.729c0,4.592,3.838,8.327,8.561,8.327c3.711,0,6.76-2.23,7.963-5.823l7.48-22.472h24.209
				l7.486,22.472c1.203,3.593,4.207,5.823,7.844,5.823c4.865,0,8.68-3.655,8.68-8.327c0-1.049-0.268-2.065-0.488-2.729
				L965.815,227.903z M951.319,276.599l6.443-19.378l6.498,19.378H951.319z"/>
			<path fill="#FF6400" d="M1053.88,271.683c-5.607-4.535-12.498-7.162-19.168-9.711c-11.932-4.559-17.158-7.203-17.158-13.391
				c0-7.395,6.953-10.767,13.412-10.767c5.307,0,10.795,2.429,14.678,6.505l0.08,0.085c0.568,0.567,0.896,0.97,0.896,0.97l0,0
				l0.148,0.166c1.697,1.946,3.949,2.974,6.516,2.974c4.654,0,8.445-3.741,8.445-8.333c0-1.85-0.641-3.621-1.855-5.131
				c-6.176-8.32-18.039-14.127-28.908-14.127c-7.771,0-15.098,2.497-20.645,7.026c-6.227,5.086-9.66,12.413-9.66,20.632
				c0,8.327,3.258,15.127,9.684,20.207c5.25,4.144,11.813,6.646,18.158,9.064c11.629,4.428,18.748,7.566,18.748,15.819
				c0,3.349-1.459,6.284-4.234,8.485c-3.162,2.51-7.85,3.889-13.203,3.889c-5.643,0-10.699-1.907-13.867-5.233l-0.078-0.091
				c-0.25-0.244-0.42-0.448-0.473-0.511l-0.045-0.058c-1.713-2.207-4.098-3.422-6.703-3.422c-4.717,0-8.559,3.785-8.559,8.445
				c0,1.59,0.533,3.225,1.531,4.729l0.029,0.04c6.09,8.929,18.873,12.992,28.164,12.992c8.99,0,17.369-2.656,23.596-7.487
				c6.924-5.369,10.738-13.1,10.738-21.778C1064.147,284.591,1060.69,277.188,1053.88,271.683z"/>
			<path fill="#FF6400" d="M1131.681,222.075h-55.217c-4.813,0-8.439,3.627-8.439,8.445c0,4.813,3.627,8.445,8.439,8.445h19.164
				v74.379c0,4.813,3.631,8.44,8.445,8.44c4.818,0,8.445-3.627,8.445-8.44v-74.379h19.162c4.814,0,8.447-3.632,8.447-8.445
				C1140.128,225.702,1136.495,222.075,1131.681,222.075z"/>
		</g>
		<g>
			<path fill="#320032" d="M916.271,356.573c4.813,0,8.445-3.627,8.445-8.445c0-4.813-3.633-8.44-8.445-8.44h-43.139
				c-4.58,0-8.445,3.865-8.445,8.44v82.824c0,4.58,3.865,8.451,8.445,8.451h43.139c4.813,0,8.445-3.633,8.445-8.451
				c0-4.813-3.633-8.445-8.445-8.445h-34.691v-26.593h31.24c4.813,0,8.445-3.627,8.445-8.44c0-4.818-3.633-8.445-8.445-8.445h-31.24
				v-22.455H916.271z"/>
			<path fill="#320032" d="M992.624,339.688c-4.813,0-8.445,3.627-8.445,8.44v52.594l-34.443-57.016l-0.021-0.034
				c-1.76-2.86-4.592-4.563-7.59-4.563c-4.541,0-8.1,3.968-8.1,9.02v82.824c0,4.818,3.633,8.451,8.447,8.451
				c4.813,0,8.439-3.633,8.439-8.451v-52.588l34.447,57.01l0.023,0.039c1.76,2.855,4.592,4.559,7.588,4.559
				c4.541,0,8.1-3.957,8.1-9.02v-82.824C1001.069,343.314,997.438,339.688,992.624,339.688z"/>
			<path fill="#320032" d="M1070.907,339.688h-55.215c-4.814,0-8.447,3.627-8.447,8.44c0,4.818,3.633,8.445,8.447,8.445h19.162
				v74.379c0,4.818,3.633,8.451,8.445,8.451s8.445-3.633,8.445-8.451v-74.379h19.162c4.814,0,8.447-3.627,8.447-8.445
				C1079.354,343.314,1075.722,339.688,1070.907,339.688z"/>
			<path fill="#320032" d="M1137.112,356.573c4.814,0,8.447-3.627,8.447-8.445c0-4.813-3.633-8.44-8.447-8.44h-43.137
				c-4.574,0-8.445,3.865-8.445,8.44v82.824c0,4.58,3.871,8.451,8.445,8.451h43.137c4.814,0,8.447-3.633,8.447-8.451
				c0-4.813-3.633-8.445-8.447-8.445h-34.691v-26.593h31.24c4.82,0,8.447-3.627,8.447-8.44c0-4.818-3.627-8.445-8.447-8.445h-31.24
				v-22.455H1137.112z"/>
			<path fill="#320032" d="M1216.169,426.399l-15.27-24.19c4.053-2.39,7.561-5.608,10.332-9.502
				c4.053-5.71,6.191-12.447,6.191-19.503c0-18.48-15.086-33.517-33.637-33.517h-20.473c-4.574,0-8.445,3.865-8.445,8.44v82.824
				c0,4.818,3.633,8.451,8.445,8.451s8.445-3.633,8.445-8.451v-24.105h12.012l18.213,28.584c1.539,2.52,4.088,3.973,7,3.973
				c4.699,0,8.672-3.819,8.672-8.338C1217.655,428.932,1216.815,427.388,1216.169,426.399z M1171.759,356.573h12.027
				c9.236,0,16.75,7.516,16.75,16.75c0,9.173-7.514,16.631-16.75,16.631h-12.027V356.573z"/>
			<path fill="#320032" d="M795.28,370.741l15.57-15.564c2.24-2.247,3.479-5.232,3.479-8.417c0-3.179-1.238-6.164-3.479-8.411
				l-15.502-15.496l15.449-15.456c2.248-2.241,3.486-5.228,3.486-8.411c0-3.186-1.238-6.17-3.486-8.412L719.431,199.2
				c-2.246-2.242-5.232-3.479-8.416-3.479c-3.18,0-6.17,1.237-8.412,3.479l-91.373,91.373c-4.637,4.637-4.637,12.186,0,16.823
				l15.502,15.501l-15.457,15.456c-2.242,2.242-3.479,5.228-3.479,8.406c0,3.185,1.236,6.17,3.479,8.417l15.428,15.428
				l-15.563,15.564c-4.645,4.643-4.645,12.186,0,16.829l35.105,35.106c2.248,2.242,5.232,3.479,8.412,3.479
				c3.184,0,6.17-1.236,8.418-3.479l47.848-47.85l47.85,47.85c2.248,2.242,5.232,3.479,8.412,3.479c3.184,0,6.17-1.236,8.416-3.479
				l35.107-35.106c2.248-2.248,3.479-5.239,3.479-8.417c0-3.18-1.23-6.165-3.479-8.412L795.28,370.741z M625.669,298.985
				l85.346-85.346l85.35,85.346l-29.084,29.084l-47.85-47.85c-2.246-2.242-5.232-3.479-8.416-3.479c-3.18,0-6.17,1.237-8.412,3.479
				l-47.85,47.85L625.669,298.985z M625.714,346.76l12.443-12.437l8.178,8.186c2.248,2.242,5.234,3.479,8.418,3.479
				c3.18,0,6.17-1.236,8.412-3.479l47.85-47.855l47.854,47.855c2.242,2.242,5.229,3.479,8.412,3.479c3.18,0,6.17-1.236,8.412-3.479
				l8.23-8.236l12.486,12.487l-29.084,29.084l-47.848-47.849c-2.248-2.242-5.234-3.479-8.412-3.479c-3.184,0-6.17,1.237-8.418,3.479
				l-47.85,47.854L625.714,346.76z M767.185,423.67l-47.85-47.854c-2.242-2.248-5.232-3.479-8.412-3.479
				c-3.178,0-6.17,1.231-8.418,3.479l-47.848,47.854l-29.084-29.089l12.555-12.557l8.26,8.26c2.242,2.241,5.232,3.479,8.41,3.479
				c3.186,0,6.17-1.237,8.412-3.479l47.855-47.85l47.848,47.85c2.242,2.241,5.234,3.479,8.412,3.479c3.186,0,6.17-1.237,8.412-3.479
				l8.117-8.117l12.42,12.414L767.185,423.67z"/>
		</g>
	</g>
	<g>
		<rect x="0.167" y="799.824" fill="#320032" width="1830" height="400"/>
		<g>
			<g>
				<g>
					<path fill="#40B721" d="M1379.543,1083.226c-2.428,0-4.398-1.971-4.398-4.398v-44.088c0-2.428,1.971-4.398,4.398-4.398
						s4.396,1.971,4.396,4.398v44.088C1383.938,1081.255,1381.971,1083.226,1379.543,1083.226z"/>
				</g>
				<g>
					<path fill="#40B721" d="M1440.638,1083.433c-2.428,0-4.396-1.968-4.396-4.396v-44.088c0-2.428,1.968-4.398,4.396-4.398
						s4.396,1.971,4.396,4.398v44.088C1445.033,1081.465,1443.065,1083.433,1440.638,1083.433z"/>
				</g>
				<g>
					<path fill="#40B721" d="M1409.951,1110.987c-2.428,0-4.396-1.968-4.396-4.396v-71.337c0-2.428,1.968-4.396,4.396-4.396
						s4.396,1.968,4.396,4.396v71.337C1414.347,1109.02,1412.379,1110.987,1409.951,1110.987z"/>
				</g>
				<path fill="#40B721" d="M1524.854,929.006c0-2.619-1.977-4.596-4.596-4.596h-17v-12.216h18.878c2.619,0,4.596-1.978,4.596-4.597
					c0-2.622-1.977-4.596-4.596-4.596h-23.475c-2.492,0-4.596,2.104-4.596,4.596v45.071c0,2.619,1.977,4.593,4.596,4.593
					c2.62,0,4.597-1.974,4.597-4.593v-19.067h17C1522.878,933.602,1524.854,931.625,1524.854,929.006z"/>
				<path fill="#40B721" d="M1549.099,906.174c-0.717-2.149-2.4-3.483-4.396-3.483c-1.529,0-3.472,0.914-4.327,3.483l-15.023,45.071
					c-0.124,0.361-0.266,0.914-0.266,1.485c0,2.499,2.088,4.531,4.657,4.531c2.021,0,3.679-1.214,4.334-3.169l4.07-12.229h13.174
					l4.074,12.229c0.654,1.955,2.288,3.169,4.269,3.169c2.646,0,4.723-1.989,4.723-4.531c0-0.571-0.146-1.124-0.266-1.485
					L1549.099,906.174z M1541.21,932.672l3.506-10.545l3.536,10.545H1541.21z"/>
				<path fill="#40B721" d="M1597.02,929.998c-3.052-2.469-6.802-3.898-10.431-5.285c-6.492-2.48-9.337-3.92-9.337-7.286
					c0-4.024,3.783-5.859,7.299-5.859c2.888,0,5.874,1.321,7.987,3.539l0.043,0.047c0.309,0.309,0.488,0.528,0.488,0.528l0,0
					l0.08,0.089c0.924,1.06,2.15,1.619,3.546,1.619c2.533,0,4.596-2.036,4.596-4.534c0-1.008-0.349-1.971-1.01-2.793
					c-3.36-4.527-9.815-7.688-15.73-7.688c-4.229,0-8.216,1.359-11.233,3.824c-3.389,2.768-5.258,6.755-5.258,11.228
					c0,4.53,1.773,8.231,5.27,10.995c2.857,2.255,6.428,3.617,9.881,4.934c6.329,2.408,10.202,4.117,10.202,8.607
					c0,1.822-0.794,3.42-2.304,4.618c-1.721,1.365-4.272,2.115-7.185,2.115c-3.07,0-5.822-1.037-7.546-2.848l-0.043-0.049
					c-0.137-0.133-0.229-0.244-0.257-0.278l-0.024-0.031c-0.934-1.201-2.23-1.862-3.648-1.862c-2.566,0-4.657,2.061-4.657,4.596
					c0,0.865,0.29,1.755,0.834,2.573l0.016,0.021c3.313,4.858,10.27,7.07,15.326,7.07c4.893,0,9.451-1.445,12.84-4.074
					c3.768-2.922,5.844-7.129,5.844-11.852C1602.607,937.021,1600.727,932.993,1597.02,929.998z"/>
				<path fill="#40B721" d="M1639.356,903.002h-30.047c-2.619,0-4.593,1.974-4.593,4.596c0,2.619,1.974,4.597,4.593,4.597h10.428
					v40.475c0,2.619,1.977,4.593,4.596,4.593c2.623,0,4.596-1.974,4.596-4.593v-40.475h10.428c2.619,0,4.597-1.978,4.597-4.597
					C1643.953,904.976,1641.976,903.002,1639.356,903.002z"/>
			</g>
			<g>
				<path fill="#FFFFFF" d="M1522.137,976.192c2.619,0,4.596-1.974,4.596-4.596c0-2.619-1.977-4.593-4.596-4.593h-23.475
					c-2.492,0-4.596,2.104-4.596,4.593v45.07c0,2.492,2.104,4.599,4.596,4.599h23.475c2.619,0,4.596-1.977,4.596-4.599
					c0-2.619-1.977-4.596-4.596-4.596h-18.878v-14.471h17c2.619,0,4.596-1.974,4.596-4.593c0-2.623-1.977-4.597-4.596-4.597h-17
					v-12.219H1522.137z"/>
				<path fill="#FFFFFF" d="M1563.687,967.004c-2.619,0-4.597,1.974-4.597,4.593v28.62l-18.742-31.026l-0.013-0.019
					c-0.957-1.557-2.498-2.483-4.129-2.483c-2.471,0-4.408,2.159-4.408,4.908v45.07c0,2.622,1.978,4.599,4.597,4.599
					s4.593-1.977,4.593-4.599V988.05l18.745,31.023l0.013,0.021c0.957,1.554,2.499,2.48,4.13,2.48c2.471,0,4.407-2.153,4.407-4.908
					v-45.07C1568.282,968.978,1566.306,967.004,1563.687,967.004z"/>
				<path fill="#FFFFFF" d="M1606.286,967.004h-30.047c-2.62,0-4.597,1.974-4.597,4.593c0,2.622,1.977,4.596,4.597,4.596h10.427
					v40.475c0,2.622,1.978,4.599,4.597,4.599s4.596-1.977,4.596-4.599v-40.475h10.428c2.619,0,4.596-1.974,4.596-4.596
					C1610.882,968.978,1608.905,967.004,1606.286,967.004z"/>
				<path fill="#FFFFFF" d="M1642.313,976.192c2.619,0,4.597-1.974,4.597-4.596c0-2.619-1.978-4.593-4.597-4.593h-23.474
					c-2.49,0-4.597,2.104-4.597,4.593v45.07c0,2.492,2.106,4.599,4.597,4.599h23.474c2.619,0,4.597-1.977,4.597-4.599
					c0-2.619-1.978-4.596-4.597-4.596h-18.878v-14.471h17c2.622,0,4.596-1.974,4.596-4.593c0-2.623-1.974-4.597-4.596-4.597h-17
					v-12.219H1642.313z"/>
				<path fill="#FFFFFF" d="M1685.332,1014.189l-8.309-13.164c2.206-1.3,4.114-3.052,5.622-5.17
					c2.205-3.107,3.369-6.773,3.369-10.613c0-10.057-8.209-18.238-18.304-18.238h-11.141c-2.489,0-4.597,2.104-4.597,4.593v45.07
					c0,2.622,1.978,4.599,4.597,4.599s4.596-1.977,4.596-4.599v-13.118h6.536l9.911,15.555c0.837,1.372,2.225,2.162,3.809,2.162
					c2.558,0,4.72-2.078,4.72-4.537C1686.142,1015.567,1685.685,1014.728,1685.332,1014.189z M1661.166,976.192h6.545
					c5.025,0,9.115,4.09,9.115,9.115c0,4.991-4.09,9.05-9.115,9.05h-6.545V976.192z"/>
				<path fill="#FFFFFF" d="M1456.298,983.902l8.472-8.47c1.221-1.224,1.894-2.848,1.894-4.581c0-1.729-0.673-3.354-1.894-4.577
					l-8.435-8.433l8.407-8.41c1.224-1.22,1.896-2.845,1.896-4.577c0-1.733-0.673-3.357-1.896-4.578l-49.719-49.722
					c-1.224-1.221-2.849-1.894-4.581-1.894c-1.729,0-3.357,0.673-4.577,1.894l-49.723,49.722c-2.523,2.524-2.523,6.632,0,9.155
					l8.436,8.436l-8.411,8.41c-1.22,1.221-1.893,2.845-1.893,4.574c0,1.733,0.673,3.357,1.893,4.581l8.396,8.396l-8.469,8.469
					c-2.527,2.526-2.527,6.632,0,9.158l19.104,19.104c1.223,1.221,2.848,1.894,4.577,1.894c1.732,0,3.357-0.673,4.581-1.894
					l26.038-26.038l26.037,26.038c1.224,1.221,2.848,1.894,4.578,1.894c1.732,0,3.357-0.673,4.58-1.894l19.104-19.104
					c1.224-1.223,1.894-2.851,1.894-4.58c0-1.73-0.67-3.354-1.894-4.578L1456.298,983.902z M1364.001,944.854l46.441-46.442
					l46.445,46.442l-15.827,15.826l-26.037-26.038c-1.224-1.22-2.849-1.893-4.581-1.893c-1.729,0-3.357,0.673-4.577,1.893
					l-26.038,26.038L1364.001,944.854z M1364.025,970.852l6.771-6.767l4.45,4.454c1.224,1.22,2.849,1.893,4.581,1.893
					c1.729,0,3.357-0.673,4.577-1.893l26.038-26.041l26.041,26.041c1.22,1.22,2.845,1.893,4.577,1.893
					c1.73,0,3.357-0.673,4.578-1.893l4.479-4.482l6.795,6.795l-15.826,15.827l-26.038-26.038c-1.224-1.22-2.848-1.894-4.578-1.894
					c-1.732,0-3.357,0.674-4.58,1.894l-26.038,26.041L1364.025,970.852z M1441.009,1012.704l-26.038-26.041
					c-1.22-1.223-2.848-1.894-4.577-1.894c-1.73,0-3.357,0.671-4.581,1.894l-26.038,26.041l-15.826-15.829l6.832-6.833l4.494,4.494
					c1.22,1.22,2.848,1.894,4.577,1.894c1.733,0,3.357-0.674,4.577-1.894l26.041-26.038l26.038,26.038
					c1.221,1.22,2.849,1.894,4.578,1.894c1.732,0,3.357-0.674,4.577-1.894l4.417-4.417l6.758,6.756L1441.009,1012.704z"/>
			</g>
			<g>
				<g>
					<path fill="#FF0060" d="M775.779,1083.226c-2.428,0-4.398-1.971-4.398-4.398v-44.088c0-2.428,1.971-4.398,4.398-4.398
						s4.395,1.971,4.395,4.398v44.088C780.174,1081.255,778.207,1083.226,775.779,1083.226z"/>
				</g>
				<g>
					<path fill="#FF0060" d="M836.874,1083.433c-2.428,0-4.395-1.968-4.395-4.396v-44.088c0-2.428,1.967-4.398,4.395-4.398
						s4.396,1.971,4.396,4.398v44.088C841.269,1081.465,839.302,1083.433,836.874,1083.433z"/>
				</g>
				<g>
					<path fill="#FF0060" d="M806.187,1110.987c-2.428,0-4.395-1.968-4.395-4.396v-71.337c0-2.428,1.967-4.396,4.395-4.396
						s4.396,1.968,4.396,4.396v71.337C810.583,1109.02,808.615,1110.987,806.187,1110.987z"/>
				</g>
				<path fill="#FF0060" d="M921.092,929.006c0-2.619-1.977-4.596-4.598-4.596h-17v-12.216h18.879c2.619,0,4.596-1.978,4.596-4.597
					c0-2.622-1.977-4.596-4.596-4.596h-23.475c-2.493,0-4.596,2.104-4.596,4.596v45.071c0,2.619,1.977,4.593,4.596,4.593
					c2.619,0,4.596-1.974,4.596-4.593v-19.067h17C919.115,933.602,921.092,931.625,921.092,929.006z"/>
				<path fill="#FF0060" d="M945.335,906.174c-0.717-2.149-2.399-3.483-4.395-3.483c-1.529,0-3.473,0.914-4.328,3.483
					l-15.023,45.071c-0.123,0.361-0.266,0.914-0.266,1.485c0,2.499,2.088,4.531,4.658,4.531c2.02,0,3.679-1.214,4.333-3.169
					l4.071-12.229h13.174l4.073,12.229c0.655,1.955,2.289,3.169,4.269,3.169c2.647,0,4.723-1.989,4.723-4.531
					c0-0.571-0.145-1.124-0.266-1.485L945.335,906.174z M937.446,932.672l3.506-10.545l3.537,10.545H937.446z"/>
				<path fill="#FF0060" d="M993.257,929.998c-3.052-2.469-6.802-3.898-10.431-5.285c-6.492-2.48-9.337-3.92-9.337-7.286
					c0-4.024,3.783-5.859,7.298-5.859c2.889,0,5.875,1.321,7.988,3.539l0.043,0.047c0.309,0.309,0.488,0.528,0.488,0.528l0,0
					l0.08,0.089c0.924,1.06,2.149,1.619,3.546,1.619c2.532,0,4.596-2.036,4.596-4.534c0-1.008-0.349-1.971-1.01-2.793
					c-3.36-4.527-9.816-7.688-15.731-7.688c-4.228,0-8.216,1.359-11.233,3.824c-3.388,2.768-5.257,6.755-5.257,11.228
					c0,4.53,1.772,8.231,5.27,10.995c2.856,2.255,6.428,3.617,9.881,4.934c6.328,2.408,10.202,4.117,10.202,8.607
					c0,1.822-0.794,3.42-2.305,4.618c-1.721,1.365-4.271,2.115-7.185,2.115c-3.069,0-5.822-1.037-7.545-2.848l-0.044-0.049
					c-0.136-0.133-0.229-0.244-0.256-0.278l-0.025-0.031c-0.933-1.201-2.229-1.862-3.647-1.862c-2.566,0-4.657,2.061-4.657,4.596
					c0,0.865,0.29,1.755,0.834,2.573l0.015,0.021c3.314,4.858,10.271,7.07,15.326,7.07c4.893,0,9.452-1.445,12.84-4.074
					c3.769-2.922,5.844-7.129,5.844-11.852C998.844,937.021,996.963,932.993,993.257,929.998z"/>
				<path fill="#FF0060" d="M1035.594,903.002h-30.047c-2.619,0-4.593,1.974-4.593,4.596c0,2.619,1.974,4.597,4.593,4.597h10.428
					v40.475c0,2.619,1.977,4.593,4.596,4.593c2.622,0,4.596-1.974,4.596-4.593v-40.475h10.428c2.619,0,4.597-1.978,4.597-4.597
					C1040.19,904.976,1038.213,903.002,1035.594,903.002z"/>
			</g>
			<g>
				<path fill="#FFFFFF" d="M918.374,976.192c2.619,0,4.596-1.974,4.596-4.596c0-2.619-1.977-4.593-4.596-4.593h-23.475
					c-2.493,0-4.596,2.104-4.596,4.593v45.07c0,2.492,2.104,4.599,4.596,4.599h23.475c2.619,0,4.596-1.977,4.596-4.599
					c0-2.619-1.977-4.596-4.596-4.596h-18.879v-14.471h17c2.621,0,4.598-1.974,4.598-4.593c0-2.623-1.977-4.597-4.598-4.597h-17
					v-12.219H918.374z"/>
				<path fill="#FFFFFF" d="M959.923,967.004c-2.619,0-4.596,1.974-4.596,4.593v28.62l-18.742-31.026l-0.013-0.019
					c-0.957-1.557-2.499-2.483-4.129-2.483c-2.472,0-4.408,2.159-4.408,4.908v45.07c0,2.622,1.977,4.599,4.597,4.599
					c2.619,0,4.593-1.977,4.593-4.599V988.05l18.745,31.023l0.013,0.021c0.957,1.554,2.498,2.48,4.129,2.48
					c2.472,0,4.408-2.153,4.408-4.908v-45.07C964.519,968.978,962.543,967.004,959.923,967.004z"/>
				<path fill="#FFFFFF" d="M1002.522,967.004h-30.047c-2.619,0-4.596,1.974-4.596,4.593c0,2.622,1.977,4.596,4.596,4.596h10.428
					v40.475c0,2.622,1.977,4.599,4.596,4.599s4.597-1.977,4.597-4.599v-40.475h10.427c2.62,0,4.597-1.974,4.597-4.596
					C1007.119,968.978,1005.142,967.004,1002.522,967.004z"/>
				<path fill="#FFFFFF" d="M1038.55,976.192c2.619,0,4.596-1.974,4.596-4.596c0-2.619-1.977-4.593-4.596-4.593h-23.475
					c-2.489,0-4.596,2.104-4.596,4.593v45.07c0,2.492,2.106,4.599,4.596,4.599h23.475c2.619,0,4.596-1.977,4.596-4.599
					c0-2.619-1.977-4.596-4.596-4.596h-18.878v-14.471h17c2.622,0,4.596-1.974,4.596-4.593c0-2.623-1.974-4.597-4.596-4.597h-17
					v-12.219H1038.55z"/>
				<path fill="#FFFFFF" d="M1081.569,1014.189l-8.309-13.164c2.205-1.3,4.114-3.052,5.621-5.17c2.206-3.107,3.37-6.773,3.37-10.613
					c0-10.057-8.21-18.238-18.304-18.238h-11.141c-2.49,0-4.597,2.104-4.597,4.593v45.07c0,2.622,1.978,4.599,4.597,4.599
					s4.596-1.977,4.596-4.599v-13.118h6.536l9.911,15.555c0.837,1.372,2.224,2.162,3.809,2.162c2.558,0,4.72-2.078,4.72-4.537
					C1082.379,1015.567,1081.922,1014.728,1081.569,1014.189z M1057.403,976.192h6.545c5.025,0,9.115,4.09,9.115,9.115
					c0,4.991-4.09,9.05-9.115,9.05h-6.545V976.192z"/>
				<path fill="#FFFFFF" d="M852.533,983.902l8.473-8.47c1.22-1.224,1.893-2.848,1.893-4.581c0-1.729-0.673-3.354-1.893-4.577
					l-8.436-8.433l8.408-8.41c1.223-1.22,1.896-2.845,1.896-4.577c0-1.733-0.673-3.357-1.896-4.578l-49.719-49.722
					c-1.223-1.221-2.848-1.894-4.581-1.894c-1.729,0-3.357,0.673-4.578,1.894l-49.722,49.722c-2.523,2.524-2.523,6.632,0,9.155
					l8.436,8.436l-8.411,8.41c-1.22,1.221-1.894,2.845-1.894,4.574c0,1.733,0.673,3.357,1.894,4.581l8.395,8.396l-8.469,8.469
					c-2.526,2.526-2.526,6.632,0,9.158l19.104,19.104c1.223,1.221,2.848,1.894,4.577,1.894c1.733,0,3.357-0.673,4.581-1.894
					l26.038-26.038l26.038,26.038c1.224,1.221,2.848,1.894,4.578,1.894c1.733,0,3.357-0.673,4.581-1.894l19.104-19.104
					c1.223-1.223,1.893-2.851,1.893-4.58c0-1.73-0.67-3.354-1.893-4.578L852.533,983.902z M760.237,944.854l46.442-46.442
					l46.445,46.442l-15.827,15.826l-26.038-26.038c-1.223-1.22-2.848-1.893-4.581-1.893c-1.729,0-3.357,0.673-4.578,1.893
					l-26.038,26.038L760.237,944.854z M760.261,970.852l6.77-6.767l4.451,4.454c1.223,1.22,2.848,1.893,4.581,1.893
					c1.729,0,3.357-0.673,4.577-1.893l26.038-26.041l26.041,26.041c1.22,1.22,2.845,1.893,4.578,1.893
					c1.729,0,3.357-0.673,4.577-1.893l4.479-4.482l6.795,6.795l-15.827,15.827l-26.038-26.038c-1.223-1.22-2.848-1.894-4.578-1.894
					c-1.733,0-3.357,0.674-4.581,1.894l-26.038,26.041L760.261,970.852z M837.244,1012.704l-26.038-26.041
					c-1.22-1.223-2.848-1.894-4.578-1.894c-1.73,0-3.357,0.671-4.581,1.894l-26.038,26.041l-15.827-15.829l6.833-6.833l4.494,4.494
					c1.22,1.22,2.848,1.894,4.577,1.894c1.733,0,3.357-0.674,4.578-1.894l26.041-26.038l26.038,26.038
					c1.22,1.22,2.848,1.894,4.577,1.894c1.733,0,3.357-0.674,4.578-1.894l4.417-4.417l6.758,6.756L837.244,1012.704z"/>
			</g>
			<g>
				<g>
					<path fill="#00CCD8" d="M172.016,1083.226c-2.428,0-4.398-1.971-4.398-4.398v-44.088c0-2.428,1.971-4.398,4.398-4.398
						s4.395,1.971,4.395,4.398v44.088C176.41,1081.255,174.443,1083.226,172.016,1083.226z"/>
				</g>
				<g>
					<path fill="#00CCD8" d="M233.11,1083.433c-2.428,0-4.396-1.968-4.396-4.396v-44.088c0-2.428,1.968-4.398,4.396-4.398
						s4.396,1.971,4.396,4.398v44.088C237.506,1081.465,235.538,1083.433,233.11,1083.433z"/>
				</g>
				<g>
					<path fill="#00CCD8" d="M202.424,1110.987c-2.428,0-4.396-1.968-4.396-4.396v-71.337c0-2.428,1.968-4.396,4.396-4.396
						s4.396,1.968,4.396,4.396v71.337C206.819,1109.02,204.852,1110.987,202.424,1110.987z"/>
				</g>
				<path fill="#00CCD8" d="M317.327,929.006c0-2.619-1.977-4.596-4.596-4.596H295.73v-12.216h18.879
					c2.619,0,4.596-1.978,4.596-4.597c0-2.622-1.977-4.596-4.596-4.596h-23.475c-2.492,0-4.596,2.104-4.596,4.596v45.071
					c0,2.619,1.977,4.593,4.596,4.593s4.596-1.974,4.596-4.593v-19.067h17.001C315.351,933.602,317.327,931.625,317.327,929.006z"/>
				<path fill="#00CCD8" d="M341.57,906.174c-0.716-2.149-2.399-3.483-4.395-3.483c-1.529,0-3.472,0.914-4.328,3.483l-15.023,45.071
					c-0.123,0.361-0.266,0.914-0.266,1.485c0,2.499,2.088,4.531,4.658,4.531c2.02,0,3.679-1.214,4.333-3.169l4.071-12.229h13.174
					l4.073,12.229c0.655,1.955,2.289,3.169,4.269,3.169c2.647,0,4.723-1.989,4.723-4.531c0-0.571-0.145-1.124-0.266-1.485
					L341.57,906.174z M333.682,932.672l3.506-10.545l3.537,10.545H333.682z"/>
				<path fill="#00CCD8" d="M389.492,929.998c-3.052-2.469-6.802-3.898-10.431-5.285c-6.492-2.48-9.337-3.92-9.337-7.286
					c0-4.024,3.783-5.859,7.298-5.859c2.889,0,5.875,1.321,7.988,3.539l0.043,0.047c0.309,0.309,0.488,0.528,0.488,0.528l0,0
					l0.08,0.089c0.924,1.06,2.149,1.619,3.546,1.619c2.532,0,4.596-2.036,4.596-4.534c0-1.008-0.349-1.971-1.01-2.793
					c-3.36-4.527-9.816-7.688-15.731-7.688c-4.228,0-8.216,1.359-11.233,3.824c-3.388,2.768-5.257,6.755-5.257,11.228
					c0,4.53,1.772,8.231,5.27,10.995c2.856,2.255,6.428,3.617,9.881,4.934c6.328,2.408,10.202,4.117,10.202,8.607
					c0,1.822-0.794,3.42-2.305,4.618c-1.721,1.365-4.271,2.115-7.185,2.115c-3.069,0-5.822-1.037-7.545-2.848l-0.044-0.049
					c-0.136-0.133-0.229-0.244-0.256-0.278l-0.025-0.031c-0.933-1.201-2.229-1.862-3.647-1.862c-2.566,0-4.657,2.061-4.657,4.596
					c0,0.865,0.29,1.755,0.834,2.573l0.015,0.021c3.314,4.858,10.271,7.07,15.326,7.07c4.893,0,9.452-1.445,12.84-4.074
					c3.769-2.922,5.844-7.129,5.844-11.852C395.079,937.021,393.198,932.993,389.492,929.998z"/>
				<path fill="#00CCD8" d="M431.829,903.002h-30.047c-2.619,0-4.593,1.974-4.593,4.596c0,2.619,1.974,4.597,4.593,4.597h10.428
					v40.475c0,2.619,1.977,4.593,4.596,4.593c2.622,0,4.596-1.974,4.596-4.593v-40.475h10.427c2.62,0,4.596-1.978,4.596-4.597
					C436.425,904.976,434.448,903.002,431.829,903.002z"/>
			</g>
			<g>
				<path fill="#FFFFFF" d="M314.609,976.192c2.619,0,4.596-1.974,4.596-4.596c0-2.619-1.977-4.593-4.596-4.593h-23.475
					c-2.492,0-4.596,2.104-4.596,4.593v45.07c0,2.492,2.104,4.599,4.596,4.599h23.475c2.619,0,4.596-1.977,4.596-4.599
					c0-2.619-1.977-4.596-4.596-4.596H295.73v-14.471h17.001c2.619,0,4.596-1.974,4.596-4.593c0-2.623-1.977-4.597-4.596-4.597
					H295.73v-12.219H314.609z"/>
				<path fill="#FFFFFF" d="M356.158,967.004c-2.619,0-4.596,1.974-4.596,4.593v28.62L332.82,969.19l-0.013-0.019
					c-0.957-1.557-2.498-2.483-4.129-2.483c-2.472,0-4.408,2.159-4.408,4.908v45.07c0,2.622,1.977,4.599,4.596,4.599
					c2.62,0,4.594-1.977,4.594-4.599V988.05l18.745,31.023l0.013,0.021c0.957,1.554,2.498,2.48,4.129,2.48
					c2.472,0,4.408-2.153,4.408-4.908v-45.07C360.755,968.978,358.778,967.004,356.158,967.004z"/>
				<path fill="#FFFFFF" d="M398.758,967.004h-30.047c-2.619,0-4.596,1.974-4.596,4.593c0,2.622,1.977,4.596,4.596,4.596h10.428
					v40.475c0,2.622,1.977,4.599,4.596,4.599s4.597-1.977,4.597-4.599v-40.475h10.427c2.62,0,4.597-1.974,4.597-4.596
					C403.354,968.978,401.378,967.004,398.758,967.004z"/>
				<path fill="#FFFFFF" d="M434.785,976.192c2.619,0,4.596-1.974,4.596-4.596c0-2.619-1.977-4.593-4.596-4.593h-23.474
					c-2.489,0-4.596,2.104-4.596,4.593v45.07c0,2.492,2.106,4.599,4.596,4.599h23.474c2.619,0,4.596-1.977,4.596-4.599
					c0-2.619-1.977-4.596-4.596-4.596h-18.878v-14.471h17c2.623,0,4.596-1.974,4.596-4.593c0-2.623-1.974-4.597-4.596-4.597h-17
					v-12.219H434.785z"/>
				<path fill="#FFFFFF" d="M477.805,1014.189l-8.309-13.164c2.206-1.3,4.114-3.052,5.622-5.17c2.206-3.107,3.37-6.773,3.37-10.613
					c0-10.057-8.209-18.238-18.304-18.238h-11.141c-2.49,0-4.596,2.104-4.596,4.593v45.07c0,2.622,1.977,4.599,4.596,4.599
					s4.596-1.977,4.596-4.599v-13.118h6.536l9.912,15.555c0.837,1.372,2.224,2.162,3.808,2.162c2.558,0,4.72-2.078,4.72-4.537
					C478.614,1015.567,478.157,1014.728,477.805,1014.189z M453.638,976.192h6.545c5.025,0,9.115,4.09,9.115,9.115
					c0,4.991-4.09,9.05-9.115,9.05h-6.545V976.192z"/>
				<path fill="#FFFFFF" d="M248.77,983.902l8.473-8.47c1.221-1.224,1.894-2.848,1.894-4.581c0-1.729-0.673-3.354-1.894-4.577
					l-8.436-8.433l8.408-8.41c1.223-1.22,1.896-2.845,1.896-4.577c0-1.733-0.674-3.357-1.896-4.578l-49.72-49.722
					c-1.223-1.221-2.848-1.894-4.58-1.894c-1.729,0-3.357,0.673-4.578,1.894l-49.722,49.722c-2.523,2.524-2.523,6.632,0,9.155
					l8.436,8.436l-8.411,8.41c-1.22,1.221-1.894,2.845-1.894,4.574c0,1.733,0.674,3.357,1.894,4.581l8.396,8.396l-8.47,8.469
					c-2.526,2.526-2.526,6.632,0,9.158l19.104,19.104c1.223,1.221,2.848,1.894,4.577,1.894c1.732,0,3.357-0.673,4.58-1.894
					l26.038-26.038l26.038,26.038c1.223,1.221,2.848,1.894,4.577,1.894c1.733,0,3.357-0.673,4.581-1.894l19.104-19.104
					c1.224-1.223,1.894-2.851,1.894-4.58c0-1.73-0.67-3.354-1.894-4.578L248.77,983.902z M156.473,944.854l46.442-46.442
					l46.445,46.442l-15.827,15.826l-26.038-26.038c-1.223-1.22-2.848-1.893-4.58-1.893c-1.729,0-3.357,0.673-4.578,1.893
					L172.3,960.681L156.473,944.854z M156.498,970.852l6.77-6.767l4.451,4.454c1.224,1.22,2.848,1.893,4.581,1.893
					c1.729,0,3.357-0.673,4.577-1.893l26.038-26.041l26.041,26.041c1.22,1.22,2.845,1.893,4.577,1.893
					c1.729,0,3.357-0.673,4.577-1.893l4.479-4.482l6.795,6.795l-15.827,15.827l-26.037-26.038c-1.224-1.22-2.849-1.894-4.578-1.894
					c-1.732,0-3.357,0.674-4.58,1.894l-26.038,26.041L156.498,970.852z M233.48,1012.704l-26.037-26.041
					c-1.221-1.223-2.849-1.894-4.578-1.894s-3.357,0.671-4.58,1.894l-26.038,26.041l-15.827-15.829l6.833-6.833l4.494,4.494
					c1.22,1.22,2.848,1.894,4.577,1.894c1.732,0,3.357-0.674,4.577-1.894l26.041-26.038l26.038,26.038
					c1.22,1.22,2.848,1.894,4.577,1.894c1.733,0,3.357-0.674,4.578-1.894l4.417-4.417l6.758,6.756L233.48,1012.704z"/>
			</g>
		</g>
	</g>
</g>
</svg>
