<?xml version="1.0" encoding="utf-8"?>
<!-- Generator: Adobe Illustrator 16.0.2, SVG Export Plug-In . SVG Version: 6.00 Build 0)  -->
<!DOCTYPE svg PUBLIC "-//W3C//DTD SVG 1.1//EN" "http://www.w3.org/Graphics/SVG/1.1/DTD/svg11.dtd">
<svg version="1.1" id="Layer_1" xmlns="http://www.w3.org/2000/svg" xmlns:xlink="http://www.w3.org/1999/xlink" x="0px" y="0px"
	 width="1829.999px" height="800px" viewBox="0 0 1829.999 800" enable-background="new 0 0 1829.999 800" xml:space="preserve">
<rect fill="#00CCD8" width="1829.999" height="800"/>
<g>
	<path fill="#FFFF42" d="M695.402,430.688c-1.498,0.404-3.95,0.404-5.447-0.002l-10.153-2.779c-1.499-0.406-2.432,0.494-2.075,2.002
		l14.342,60.471c0.36,1.51,0.947,1.51,1.304,0l14.347-60.479c0.359-1.506-0.576-2.414-2.074-2.002L695.402,430.688z"/>
	<g>
		<g>
			<path fill="#FFFFFF" d="M701.594,311.223c-0.384-1.502-1.969-2.734-3.523-2.734h-10.636c-1.555,0-3.137,1.232-3.521,2.734
				l-27.402,107.334c-0.384,1.506,0.529,3.07,2.027,3.482l9.291,2.527c1.498,0.414,3.02-0.49,3.38-2.004l7.401-31.176
				c0.358-1.51,1.923-2.746,3.475-2.746h21.333c1.555,0,3.116,1.236,3.477,2.746l7.404,31.176c0.358,1.514,1.879,2.418,3.375,2.004
				l9.294-2.527c1.498-0.412,2.41-1.977,2.027-3.482L701.594,311.223z M702.013,372.037c0.359,1.512-0.619,2.75-2.173,2.75h-14.175
				c-1.552,0-2.529-1.238-2.168-2.75l8.607-36.291c0.356-1.51,0.944-1.51,1.303,0L702.013,372.037z"/>
		</g>
		<path fill="#FFFFFF" d="M609.999,405.826c0,1.555,1.273,2.828,2.828,2.828h3.615c1.556,0,2.825-1.273,2.825-2.828v-27.723
			c0-1.551,1.271-2.824,2.826-2.824h16.699c1.554,0,2.827-1.271,2.827-2.822v-2.904c0-1.555-1.273-2.826-2.827-2.826h-16.699
			c-1.556,0-2.826-1.271-2.826-2.824v-14.371c0-1.557,1.271-2.83,2.826-2.83h20.986c1.555,0,2.825-1.266,2.825-2.822v-2.902
			c0-1.553-1.271-2.822-2.825-2.822h-30.253c-1.555,0-2.828,1.27-2.828,2.822V405.826z"/>
		<path fill="#FFFFFF" d="M804.648,343.879c0,1.557,1.273,2.822,2.825,2.822h9.048c1.552,0,2.822,1.273,2.822,2.83v56.295
			c0,1.555,1.27,2.828,2.823,2.828h3.62c1.553,0,2.825-1.273,2.825-2.828v-56.295c0-1.557,1.271-2.83,2.822-2.83h8.744
			c1.552,0,2.822-1.266,2.822-2.822v-2.902c0-1.553-1.271-2.822-2.822-2.822h-32.705c-1.552,0-2.825,1.27-2.825,2.822V343.879z"/>
		<path fill="#FFFFFF" d="M937.087,405.826c0,1.555,1.27,2.828,2.824,2.828h29.949c1.553,0,2.822-1.273,2.822-2.828v-2.902
			c0-1.555-1.27-2.824-2.822-2.824h-20.684c-1.555,0-2.822-1.273-2.822-2.822v-19.174c0-1.551,1.268-2.824,2.822-2.824h16.09
			c1.555,0,2.824-1.271,2.824-2.822v-2.904c0-1.555-1.27-2.826-2.824-2.826h-16.09c-1.555,0-2.822-1.271-2.822-2.824v-14.371
			c0-1.557,1.268-2.83,2.822-2.83h20.684c1.553,0,2.822-1.266,2.822-2.822v-2.902c0-1.553-1.27-2.822-2.822-2.822h-29.949
			c-1.555,0-2.824,1.27-2.824,2.822V405.826z"/>
		<path fill="#FFFFFF" d="M1023.831,378.41c0,1.553,0.025,4.096,0.063,5.648l0.053,2.842c0.033,1.553-0.365,1.623-0.881,0.16
			l-16.322-46.246c-0.518-1.465-2.209-2.66-3.764-2.66h-5.002c-1.551,0-2.822,1.27-2.822,2.822v64.85
			c0,1.555,1.271,2.828,2.822,2.828h3.621c1.555,0,2.822-1.273,2.822-2.828v-37.332c0-1.547-0.025-4.088-0.057-5.643l-0.061-3.045
			c-0.031-1.555,0.365-1.621,0.885-0.158l16.326,46.34c0.518,1.467,2.209,2.666,3.764,2.666h4.998c1.553,0,2.82-1.273,2.82-2.828
			v-64.85c0-1.553-1.268-2.822-2.82-2.822h-3.619c-1.553,0-2.826,1.27-2.826,2.822V378.41z"/>
		<path fill="#FFFFFF" d="M1056.181,343.879c0,1.557,1.273,2.822,2.826,2.822h9.049c1.553,0,2.824,1.273,2.824,2.83v56.295
			c0,1.555,1.273,2.828,2.824,2.828h3.617c1.555,0,2.826-1.273,2.826-2.828v-56.295c0-1.557,1.27-2.83,2.824-2.83h8.738
			c1.555,0,2.828-1.266,2.828-2.822v-2.902c0-1.553-1.273-2.822-2.828-2.822h-32.703c-1.553,0-2.826,1.27-2.826,2.822V343.879z"/>
		<path fill="#FFFFFF" d="M1120.786,405.826c0,1.555,1.271,2.828,2.822,2.828h29.947c1.555,0,2.826-1.273,2.826-2.828v-2.902
			c0-1.555-1.271-2.824-2.826-2.824h-20.682c-1.551,0-2.824-1.273-2.824-2.822v-19.174c0-1.551,1.273-2.824,2.824-2.824h16.09
			c1.555,0,2.826-1.271,2.826-2.822v-2.904c0-1.555-1.271-2.826-2.826-2.826h-16.09c-1.551,0-2.824-1.271-2.824-2.824v-14.371
			c0-1.557,1.273-2.83,2.824-2.83h20.682c1.555,0,2.826-1.266,2.826-2.822v-2.902c0-1.553-1.271-2.822-2.826-2.822h-29.947
			c-1.551,0-2.822,1.27-2.822,2.822V405.826z"/>
		<path fill="#FFFFFF" d="M766.482,368.432c-10.835-6.5-11.248-7.873-11.248-12.631c0-2.92,0.756-9.705,7.766-9.705
			c4.143,0,6.816,2.938,8.189,8.994h0.005c0,0,0,0,0-0.008c0.124,0.574,0.632,1,1.237,1c0.078,0,0.152-0.012,0.228-0.023v0.01
			l6.494-0.998l0,0c0.003-0.004,0.009-0.004,0.016-0.004l0.054-0.01c0.572-0.123,1.002-0.629,1.002-1.238
			c0-0.08-0.012-0.158-0.025-0.234h0.008c-2.143-10.541-8.253-16.348-17.207-16.348c-9.71,0-17.032,7.979-17.032,18.564
			c0,10.922,6.028,14.443,13.668,18.906l0.686,0.396c6.716,3.885,11.566,6.693,11.566,14.682c0,6.943-3.239,10.926-8.888,10.926
			c-6.861,0-8.621-4.094-9.607-12.154c-0.079-0.627-0.608-1.107-1.253-1.107c-0.066,0-0.133,0.01-0.199,0.02l0,0l-6.722,0.902v0.012
			c-0.611,0.092-1.079,0.615-1.079,1.248c0,0.043,0.008,0.08,0.011,0.119h-0.008c1.273,13.336,7.373,19.822,18.653,19.822
			c11.152,0,18.36-8.006,18.36-20.402C781.156,378.061,775.073,373.566,766.482,368.432z"/>
		<path fill="#FFFFFF" d="M1219.749,404.301l-12.936-26.805c7.193-3.053,11.283-10.207,11.283-19.85c0-7.441-2.953-11.98-5.43-14.48
			c-3.021-3.047-7.029-4.795-10.992-4.795h-18.301v0.002c-0.006,0-0.012-0.002-0.014-0.002c-0.703,0-1.271,0.568-1.271,1.271
			c0,0.01,0.002,0.018,0.002,0.033v66.656c0,1.395,1.141,2.537,2.539,2.537h4.188c1.396,0,2.541-1.143,2.541-2.537v-27.773h5.676
			l14.404,29.758c0.607,1.258,2.133,1.793,3.391,1.182l3.732-1.805C1219.825,407.084,1220.356,405.559,1219.749,404.301z
			 M1191.358,370.006v-23.082h7.154c7.018,0,10.012,3.203,10.012,10.723c0,5.639-1.455,12.359-8.377,12.359H1191.358z"/>
	</g>
</g>
</svg>
