<?xml version="1.0" encoding="utf-8"?>
<!-- Generator: Adobe Illustrator 16.0.2, SVG Export Plug-In . SVG Version: 6.00 Build 0)  -->
<!DOCTYPE svg PUBLIC "-//W3C//DTD SVG 1.1//EN" "http://www.w3.org/Graphics/SVG/1.1/DTD/svg11.dtd">
<svg version="1.1" id="Layer_1" xmlns="http://www.w3.org/2000/svg" xmlns:xlink="http://www.w3.org/1999/xlink" x="0px" y="0px"
	 width="556px" height="344px" viewBox="0 0 556 344" enable-background="new 0 0 556 344" xml:space="preserve">
<rect fill="#7FC41C" width="556" height="344"/>
<g>
	<path fill="#FFFFFF" d="M250.941,75.326c7.382-3.23,33.592-12.65,60.94,1.762c0.293,0.155,0.609,0.229,0.92,0.229
		c0.709,0,1.396-0.384,1.75-1.056c0.51-0.966,0.139-2.161-0.826-2.671c-28.912-15.236-56.579-5.296-64.37-1.887
		c-1,0.438-1.456,1.604-1.018,2.604C248.775,75.309,249.941,75.764,250.941,75.326z"/>
	<path fill="#FFFFFF" d="M235.978,90.524c3.816-2.56,17.736-11.034,36.6-12.616c19.745-1.654,38.309,4.554,55.182,18.453
		c0.369,0.303,0.814,0.451,1.256,0.451c0.57,0,1.137-0.245,1.527-0.721c0.695-0.843,0.574-2.089-0.268-2.783
		c-9.471-7.801-19.625-13.352-30.178-16.494c-9.008-2.684-18.377-3.641-27.85-2.847c-19.271,1.616-33.324,9.819-38.473,13.272
		c-0.906,0.607-1.148,1.836-0.541,2.742C233.842,90.891,235.071,91.133,235.978,90.524z"/>
	<path fill="#FFFFFF" d="M221.394,107.9c0,0.016,0.002,0.031,0.002,0.047c0.004,0.049,0.008,0.096,0.015,0.143
		c0.002,0.016,0.004,0.031,0.006,0.045c0.008,0.049,0.017,0.096,0.028,0.144c0.003,0.015,0.006,0.028,0.011,0.044
		c0.012,0.047,0.026,0.094,0.042,0.141c0.004,0.014,0.01,0.027,0.014,0.041c0.018,0.047,0.037,0.094,0.058,0.141
		c0.006,0.012,0.011,0.023,0.017,0.035c0.023,0.048,0.047,0.094,0.074,0.139c0.006,0.012,0.012,0.021,0.019,0.033
		c0.028,0.045,0.058,0.09,0.089,0.134c0.008,0.011,0.016,0.021,0.023,0.03c0.031,0.043,0.065,0.084,0.102,0.125
		c0.006,0.006,0.01,0.012,0.016,0.018c0.004,0.006,0.009,0.01,0.014,0.014c0.017,0.018,0.031,0.037,0.049,0.055
		c0.02,0.02,0.041,0.037,0.063,0.057c0.012,0.01,0.023,0.021,0.035,0.031c0.039,0.033,0.078,0.065,0.117,0.096
		c0.014,0.01,0.025,0.019,0.039,0.027c0.041,0.029,0.082,0.057,0.125,0.082c0.013,0.008,0.025,0.016,0.039,0.023
		c0.043,0.025,0.088,0.048,0.133,0.069c0.012,0.007,0.025,0.012,0.037,0.018c0.047,0.021,0.094,0.04,0.141,0.058
		c0.013,0.004,0.025,0.008,0.037,0.012c0.049,0.017,0.097,0.031,0.145,0.043c0.014,0.004,0.027,0.007,0.041,0.01
		c0.047,0.012,0.096,0.021,0.145,0.027c0.014,0.003,0.029,0.005,0.043,0.008c0.048,0.006,0.096,0.01,0.143,0.013
		c0.018,0.001,0.033,0.001,0.049,0.002c0.022,0.001,0.045,0.003,0.067,0.003c0.013,0,0.024-0.002,0.037-0.003
		c0.099-0.001,0.196-0.011,0.292-0.026c0.021-0.004,0.043-0.008,0.064-0.013c0.099-0.021,0.197-0.046,0.293-0.082
		c0.018-0.007,0.033-0.014,0.051-0.021c0.098-0.039,0.195-0.086,0.287-0.142c0.012-0.007,0.021-0.015,0.033-0.022
		c0.096-0.061,0.188-0.129,0.275-0.207c0.001-0.002,0.002-0.002,0.002-0.003l0.002-0.001c0,0,0,0,0.001,0
		c36.606-33.342,76.078-32.018,111.142,3.729c0.002,0.002,0.004,0.004,0.006,0.006c0.004,0.002,0.006,0.005,0.008,0.008
		c0.014,0.014,0.027,0.027,0.043,0.041c0.006,0.007,0.016,0.011,0.021,0.018c0.084,0.076,0.172,0.146,0.266,0.206
		c0.016,0.01,0.031,0.019,0.047,0.028c0.094,0.056,0.188,0.104,0.285,0.145c0.02,0.006,0.039,0.012,0.059,0.02
		c0.098,0.035,0.197,0.064,0.297,0.085c0.021,0.004,0.041,0.005,0.063,0.009c0.092,0.016,0.186,0.023,0.279,0.026
		c0.014,0,0.025,0.003,0.041,0.003c0.506,0,1.012-0.193,1.398-0.579c0.666-0.666,0.756-1.69,0.271-2.454
		c-0.004-0.006-0.008-0.014-0.012-0.02c-0.025-0.041-0.055-0.079-0.084-0.117c-0.012-0.016-0.023-0.031-0.033-0.047
		c-0.025-0.027-0.051-0.056-0.076-0.084c-0.02-0.021-0.035-0.043-0.057-0.063c-18.795-19.162-38.883-28.871-59.724-28.871
		c-0.253,0-0.511,0.001-0.764,0.004c-9.748,0.111-19.579,2.393-29.218,6.782c-9.207,4.192-18.268,10.317-26.927,18.206
		c0,0-0.001,0.001-0.001,0.002c-0.002,0-0.002,0-0.002,0.001c-0.022,0.021-0.045,0.04-0.064,0.062
		c-0.014,0.014-0.025,0.028-0.039,0.042c-0.021,0.024-0.043,0.048-0.064,0.071c-0.023,0.027-0.045,0.055-0.066,0.082
		c-0.019,0.025-0.036,0.049-0.054,0.074c-0.021,0.029-0.04,0.061-0.061,0.092c-0.015,0.023-0.028,0.046-0.04,0.069
		c-0.02,0.034-0.039,0.069-0.056,0.104c-0.011,0.021-0.021,0.043-0.03,0.064c-0.017,0.039-0.032,0.077-0.047,0.117
		c-0.006,0.02-0.014,0.039-0.02,0.059c-0.015,0.042-0.027,0.084-0.037,0.127c-0.006,0.018-0.01,0.035-0.014,0.055
		c-0.01,0.044-0.02,0.089-0.026,0.133c-0.003,0.018-0.005,0.034-0.007,0.051c-0.006,0.047-0.01,0.094-0.014,0.14
		c-0.001,0.017-0.002,0.032-0.002,0.05C221.392,107.806,221.392,107.854,221.394,107.9z"/>
	<path fill="#FFFFFF" d="M216.586,126.831c0.478,0,0.957-0.171,1.337-0.515c0.004-0.004,0.022-0.021,0.027-0.025l0,0
		c18.111-16.624,33.655-26.629,48.918-31.486c1.041-0.33,1.616-1.441,1.285-2.482c-0.332-1.041-1.443-1.616-2.483-1.285
		c-15.833,5.037-31.847,15.314-50.397,32.344c-0.001,0.001-0.002,0.002-0.002,0.002c-0.002,0-0.002,0.002-0.003,0.003
		c-0.005,0.003-0.022,0.021-0.026,0.023c-0.801,0.739-0.848,1.978-0.113,2.782C215.517,126.617,216.051,126.831,216.586,126.831z"/>
	<path fill="#FFFFFF" d="M345.771,133.696c-0.004-0.018-0.01-0.035-0.016-0.053c-0.031-0.095-0.072-0.188-0.119-0.28
		c-0.01-0.02-0.02-0.039-0.029-0.057c-0.041-0.072-0.084-0.145-0.135-0.212c-14.76-19.996-30.246-30.237-38.564-35.738
		c-0.912-0.603-2.139-0.353-2.74,0.558c-0.604,0.912-0.354,2.139,0.559,2.741c8.115,5.366,23.221,15.356,37.564,34.788
		c0.008,0.012,0.018,0.021,0.025,0.033c0.031,0.037,0.063,0.076,0.096,0.111c0.016,0.02,0.033,0.041,0.053,0.059
		c0.006,0.008,0.012,0.016,0.02,0.022c0.029,0.03,0.063,0.057,0.094,0.085c0.016,0.014,0.031,0.029,0.047,0.043
		c0.057,0.048,0.117,0.091,0.178,0.131c0.004,0.002,0.008,0.004,0.012,0.006c0.059,0.038,0.119,0.072,0.182,0.103
		c0.012,0.007,0.021,0.011,0.033,0.016c0.055,0.028,0.111,0.052,0.17,0.073c0.012,0.004,0.023,0.008,0.035,0.012
		c0.059,0.021,0.119,0.038,0.18,0.054c0.012,0.002,0.02,0.004,0.031,0.007c0.068,0.016,0.139,0.027,0.209,0.036
		c0.002,0,0.002,0,0.002,0c0.074,0.009,0.15,0.015,0.227,0.015c0.1,0,0.197-0.01,0.293-0.023c0.008-0.002,0.014-0.002,0.021-0.004
		c0.098-0.016,0.195-0.039,0.291-0.069c0,0,0.002,0,0.004-0.001c0.197-0.063,0.387-0.16,0.561-0.289c0,0,0.002,0,0.004-0.002
		c0,0,0.002-0.002,0.004-0.002c0.047-0.037,0.094-0.075,0.143-0.117c0.006-0.006,0.012-0.012,0.018-0.017
		c0.02-0.019,0.041-0.034,0.061-0.055c0.01-0.011,0.018-0.024,0.029-0.036c0.068-0.07,0.129-0.146,0.186-0.225
		c0.018-0.024,0.033-0.048,0.047-0.072c0.053-0.08,0.098-0.161,0.137-0.246c0.014-0.027,0.023-0.056,0.033-0.082
		c0.035-0.088,0.066-0.175,0.088-0.266c0.006-0.025,0.01-0.05,0.016-0.076c0.018-0.092,0.033-0.186,0.039-0.279
		c0-0.02,0-0.038,0-0.058c0.004-0.097,0-0.192-0.012-0.29c0-0.013,0-0.025-0.004-0.04
		C345.826,133.896,345.801,133.796,345.771,133.696z"/>
	<path fill="#FFFFFF" d="M273.236,89.432c-1.087,0.101-1.887,1.063-1.786,2.151c0.101,1.087,1.062,1.888,2.151,1.786
		c7.067-0.654,18.311,0.53,24.149,3.586c0.293,0.153,0.607,0.226,0.916,0.226c0.711,0,1.4-0.386,1.754-1.062
		c0.506-0.967,0.133-2.162-0.836-2.668C292.35,89.665,279.822,88.821,273.236,89.432z"/>
	<path fill="#FFFFFF" d="M210.068,143.035c-0.051,0.098-0.094,0.199-0.127,0.301c-0.004,0.009-0.008,0.018-0.01,0.025
		c-0.032,0.103-0.055,0.206-0.07,0.312c-0.002,0.016-0.004,0.03-0.006,0.046c-0.014,0.102-0.017,0.203-0.014,0.303
		c0.002,0.021,0.002,0.041,0.003,0.061c0.006,0.1,0.021,0.196,0.04,0.293c0.005,0.021,0.01,0.043,0.016,0.065
		c0.023,0.095,0.055,0.188,0.093,0.28c0.009,0.021,0.018,0.04,0.026,0.061c0.043,0.092,0.092,0.182,0.148,0.268
		c0.01,0.017,0.021,0.031,0.033,0.047c0.061,0.088,0.129,0.171,0.205,0.248c0.005,0.005,0.008,0.01,0.012,0.014
		c0.029,0.031,0.063,0.059,0.094,0.086c0.01,0.009,0.018,0.018,0.029,0.026c0,0.001,0.002,0.002,0.004,0.003
		c0.086,0.072,0.178,0.137,0.272,0.191c0.01,0.006,0.019,0.012,0.028,0.018c0.093,0.052,0.188,0.096,0.286,0.132
		c0.013,0.005,0.024,0.009,0.037,0.013c0.099,0.035,0.198,0.061,0.3,0.08c0.01,0,0.019,0.002,0.027,0.004
		c0.105,0.018,0.213,0.027,0.32,0.027c0.068,0,0.139-0.005,0.207-0.012c0.005,0,0.01-0.002,0.016-0.003
		c0.061-0.006,0.123-0.017,0.184-0.028c0.016-0.004,0.029-0.008,0.045-0.012c0.051-0.011,0.101-0.024,0.15-0.041
		c0.02-0.006,0.037-0.014,0.057-0.02c0.045-0.016,0.089-0.033,0.133-0.051c0.021-0.01,0.043-0.021,0.064-0.031
		c0.039-0.018,0.078-0.039,0.116-0.061c0.023-0.014,0.046-0.026,0.069-0.041c0.035-0.021,0.069-0.045,0.104-0.068
		c0.023-0.018,0.047-0.033,0.07-0.053c0.032-0.024,0.063-0.051,0.094-0.078c0.021-0.02,0.045-0.039,0.066-0.061
		c0.008-0.007,0.016-0.014,0.022-0.021c0.009-0.007,0.015-0.018,0.022-0.026c0.03-0.03,0.063-0.062,0.09-0.095
		c14.057-16.627,28.693-29.131,42.328-36.161c15.365-7.922,28.956-8.78,40.395-2.552c0.959,0.521,2.16,0.167,2.682-0.793
		c0.523-0.958,0.168-2.159-0.791-2.682c-12.66-6.893-27.497-6.048-44.098,2.512c-14.092,7.266-29.146,20.102-43.535,37.122
		c-0.004,0.005-0.007,0.01-0.012,0.015c-0.005,0.006-0.01,0.012-0.016,0.018c-0.006,0.007-0.01,0.017-0.016,0.024
		c-0.07,0.089-0.133,0.182-0.186,0.278C210.074,143.023,210.072,143.029,210.068,143.035z"/>
	<path fill="#FFFFFF" d="M348.428,153.897c-0.002-0.003-0.002-0.007-0.004-0.011c-8.131-18.764-28.857-39.061-43.398-47.104
		c-0.957-0.528-2.16-0.183-2.689,0.772c-0.527,0.955-0.182,2.16,0.773,2.688c13.975,7.73,33.887,27.217,41.688,45.218
		c0,0.001,0,0.002,0.002,0.004c0.002,0.005,0.002,0.009,0.004,0.013c0.037,0.084,0.082,0.165,0.129,0.242
		c0.002,0.002,0.002,0.005,0.004,0.007c0.359,0.575,0.996,0.929,1.674,0.929c0.059,0,0.115-0.006,0.174-0.012
		c0.01,0,0.021,0,0.031-0.002c0.055-0.006,0.109-0.016,0.164-0.025c0.02-0.004,0.041-0.008,0.061-0.012
		c0.039-0.01,0.078-0.014,0.115-0.025c0.811-0.231,1.355-0.936,1.426-1.729c0-0.002,0-0.006,0-0.008
		c0.006-0.059,0.008-0.117,0.008-0.176c0-0.012-0.002-0.021-0.002-0.033c0-0.051-0.002-0.102-0.008-0.152
		c-0.002-0.02-0.006-0.038-0.008-0.059c-0.006-0.043-0.012-0.086-0.021-0.129c-0.004-0.026-0.012-0.053-0.016-0.076
		c-0.008-0.028-0.014-0.056-0.021-0.084c-0.002-0.009-0.006-0.018-0.01-0.028c-0.014-0.048-0.031-0.096-0.049-0.143
		C348.445,153.94,348.438,153.919,348.428,153.897z"/>
	<path fill="#FFFFFF" d="M207.958,159.923c-0.005,0.007-0.01,0.015-0.014,0.022c-0.178,0.271-0.28,0.572-0.311,0.881
		c-0.002,0.005-0.002,0.012-0.002,0.018c-0.005,0.057-0.008,0.115-0.008,0.172c0,0.002-0.002,0.004-0.002,0.006
		c0,0.012,0.002,0.023,0.002,0.033c0.002,0.053,0.004,0.104,0.008,0.154c0.002,0.014,0.004,0.025,0.006,0.039
		c0.006,0.053,0.013,0.104,0.022,0.156c0.003,0.009,0.005,0.018,0.007,0.027c0.012,0.055,0.024,0.107,0.041,0.16
		c0.002,0.008,0.005,0.016,0.006,0.022c0.018,0.054,0.037,0.107,0.059,0.159c0.002,0.009,0.006,0.018,0.01,0.023
		c0.021,0.051,0.045,0.1,0.07,0.148c0.006,0.014,0.014,0.027,0.021,0.04c0.023,0.041,0.047,0.081,0.072,0.121
		c0.015,0.021,0.03,0.043,0.045,0.063c0.021,0.029,0.043,0.06,0.064,0.088c0.025,0.03,0.051,0.059,0.076,0.088
		c0.017,0.018,0.033,0.038,0.051,0.055c0.006,0.008,0.012,0.016,0.019,0.021c0.025,0.025,0.054,0.048,0.079,0.072
		c0.014,0.012,0.025,0.023,0.039,0.035c0.002,0.002,0.004,0.003,0.007,0.005c0.079,0.067,0.163,0.125,0.251,0.178
		c0.021,0.013,0.043,0.026,0.064,0.039c0.078,0.043,0.158,0.079,0.241,0.111c0.032,0.013,0.065,0.024,0.1,0.035
		c0.081,0.026,0.162,0.05,0.245,0.065c0.03,0.006,0.061,0.01,0.09,0.014c0.082,0.012,0.164,0.02,0.246,0.021
		c0.012,0,0.023,0.002,0.035,0.002c0.256,0,0.51-0.051,0.748-0.148c0.004-0.001,0.008-0.004,0.012-0.004
		c0.053-0.023,0.105-0.047,0.156-0.074c0.008-0.004,0.017-0.008,0.025-0.014c0.047-0.024,0.091-0.051,0.135-0.08
		c0.015-0.009,0.029-0.018,0.043-0.027c0.038-0.026,0.076-0.055,0.113-0.084c0.02-0.016,0.037-0.031,0.057-0.047
		c0.031-0.028,0.063-0.055,0.093-0.084c0.005-0.006,0.011-0.011,0.017-0.016c0.016-0.016,0.029-0.034,0.045-0.051
		c0.021-0.022,0.043-0.043,0.064-0.066c18.668-21.955,31.349-34.46,42.397-41.814c11.023-7.338,20.613-9.676,32.07-7.82
		c1.078,0.176,2.094-0.558,2.27-1.636c0.174-1.078-0.559-2.094-1.637-2.269c-12.364-2.002-23.125,0.599-34.894,8.432
		c-11.373,7.572-24.298,20.295-43.22,42.545c-0.004,0.006-0.008,0.012-0.012,0.017c-0.018,0.021-0.032,0.041-0.049,0.063
		C208.007,159.854,207.982,159.889,207.958,159.923z"/>
	<path fill="#FFFFFF" d="M348.705,170.402c-12.738-27.672-34.805-51.893-53.658-58.901c-1.021-0.38-2.16,0.142-2.541,1.165
		s0.141,2.161,1.164,2.542c8.959,3.331,18.762,10.778,28.348,21.54c9.127,10.242,17.328,22.781,23.094,35.307
		c0.334,0.725,1.051,1.15,1.799,1.15c0.275,0,0.559-0.058,0.824-0.182C348.729,172.567,349.16,171.395,348.705,170.402z"/>
	<path fill="#FFFFFF" d="M207.904,176.793c0.357,0.267,0.772,0.395,1.186,0.395c0.52,0,1.033-0.203,1.414-0.594
		c0-0.001,0.002-0.002,0.002-0.003c0.05-0.052,0.098-0.104,0.143-0.16c0.002-0.003,0.003-0.007,0.005-0.009s0.003-0.004,0.005-0.005
		c0.01-0.013,0.051-0.067,0.119-0.163c2.666-3.732,17.284-23.492,43.248-45.939c0.826-0.715,0.918-1.963,0.203-2.789
		s-1.963-0.917-2.789-0.203c-26.305,22.74-41.168,42.836-43.881,46.634l-0.049,0.066c0,0.001,0,0.001,0,0.001
		c-0.001,0.002-0.002,0.002-0.002,0.004l0,0c-0.002,0.001-0.002,0.002-0.004,0.004C206.855,174.904,207.033,176.139,207.904,176.793
		z"/>
	<path fill="#FFFFFF" d="M279.768,116.349c-14.051-0.796-22.533,6.728-22.887,7.05c-0.809,0.732-0.871,1.982-0.139,2.793
		c0.391,0.431,0.928,0.65,1.467,0.65c0.473,0,0.947-0.17,1.326-0.512c0.074-0.068,7.6-6.742,20.008-6.033
		c1.094,0.057,2.023-0.771,2.086-1.861C281.691,117.345,280.857,116.411,279.768,116.349z"/>
	<path fill="#FFFFFF" d="M348.072,183.304c-0.002-0.098-0.01-0.194-0.025-0.291c0-0.001,0-0.003,0-0.005
		c0-0.004-0.002-0.008-0.002-0.01c-0.02-0.105-0.045-0.207-0.08-0.308c-0.004-0.011-0.006-0.021-0.01-0.03
		c-0.033-0.092-0.076-0.182-0.125-0.271c-0.012-0.02-0.021-0.039-0.031-0.058c-0.008-0.014-0.016-0.029-0.025-0.043
		c-15.127-24.221-24.307-37.127-32.74-46.033c-8.514-8.992-16.773-14.29-28.504-18.283c-1.033-0.352-2.158,0.199-2.51,1.234
		c-0.352,1.033,0.201,2.158,1.234,2.51c20.918,7.12,31.424,18.248,59.166,62.666c0.045,0.074,0.096,0.143,0.148,0.207
		c0.008,0.01,0.016,0.018,0.025,0.027c0.059,0.072,0.125,0.137,0.191,0.197c0.025,0.021,0.053,0.041,0.076,0.063
		c0.057,0.044,0.115,0.086,0.176,0.124c0.027,0.019,0.057,0.038,0.088,0.056c0.082,0.046,0.168,0.088,0.256,0.121
		c0.031,0.014,0.064,0.021,0.096,0.033c0.066,0.021,0.133,0.039,0.199,0.054c0.039,0.009,0.078,0.017,0.119,0.022
		c0.086,0.014,0.17,0.021,0.258,0.023c0.016,0.002,0.029,0.004,0.045,0.004c0.088,0,0.174-0.007,0.258-0.018
		c0.01-0.002,0.018-0.004,0.029-0.005c0.082-0.013,0.162-0.03,0.242-0.051c0.004-0.001,0.006-0.001,0.01-0.003
		c0.18-0.051,0.35-0.127,0.506-0.223c0-0.002,0-0.002,0-0.002c0.004-0.002,0.004-0.002,0.006-0.002
		c0.051-0.035,0.104-0.07,0.152-0.108c0.006-0.003,0.01-0.006,0.014-0.009c0.045-0.036,0.088-0.074,0.131-0.113
		c0.008-0.006,0.014-0.012,0.021-0.02c0.039-0.037,0.074-0.076,0.111-0.115c0.006-0.01,0.014-0.018,0.023-0.026
		c0.035-0.04,0.068-0.085,0.098-0.128c0.006-0.008,0.014-0.016,0.02-0.023c0.031-0.047,0.063-0.096,0.092-0.146
		c0.002-0.004,0.006-0.009,0.008-0.014c0.029-0.053,0.059-0.108,0.082-0.163c0.002-0.003,0.002-0.003,0.002-0.006
		c0.027-0.055,0.047-0.112,0.066-0.17c0.002-0.003,0.004-0.005,0.004-0.007c0.018-0.054,0.033-0.107,0.045-0.162
		c0.002-0.008,0.006-0.018,0.006-0.025c0.012-0.047,0.02-0.094,0.027-0.143c0.002-0.018,0.006-0.035,0.008-0.055
		c0.004-0.038,0.008-0.078,0.01-0.117c0.002-0.029,0.004-0.057,0.006-0.085c0-0.014,0.002-0.025,0.002-0.038
		C348.076,183.326,348.072,183.315,348.072,183.304z"/>
	<path fill="#FFFFFF" d="M211.208,189.333c6.739-8.251,14.415-17.579,15.746-19.014c0.743-0.8,0.697-2.051-0.104-2.794
		c-0.8-0.743-2.051-0.696-2.794,0.104c-1.755,1.89-12.623,15.176-15.911,19.202c-0.69,0.847-0.565,2.091,0.28,2.782
		c0.367,0.301,0.81,0.445,1.25,0.445C210.249,190.059,210.817,189.811,211.208,189.333z"/>
	<path fill="#FFFFFF" d="M258.289,132.307c-11.443,7.238-20.707,18.576-27.47,26.855c-0.799,0.978-1.558,1.906-2.273,2.771
		c-0.696,0.841-0.58,2.088,0.261,2.783c0.369,0.306,0.816,0.455,1.262,0.455c0.568,0,1.132-0.244,1.523-0.716
		c0.722-0.872,1.485-1.808,2.29-2.792c6.592-8.069,15.62-19.121,26.521-26.016c12.703-8.035,24.573-8.281,36.286-0.755
		c0.916,0.59,2.141,0.324,2.73-0.595c0.592-0.919,0.324-2.143-0.594-2.732C285.867,123.24,272.229,123.489,258.289,132.307z"/>
	<path fill="#FFFFFF" d="M318.48,158.865c0.367,0.631,1.031,0.982,1.711,0.982c0.338,0,0.68-0.086,0.994-0.269
		c0.943-0.549,1.262-1.759,0.715-2.703c-3.674-6.308-16.633-19.529-17.184-20.089c-0.764-0.779-2.018-0.789-2.797-0.024
		c-0.777,0.765-0.789,2.017-0.023,2.796C302.027,139.691,315.057,152.982,318.48,158.865z"/>
	<path fill="#FFFFFF" d="M346.744,193.186c-0.002-0.036-0.004-0.073-0.008-0.109c-0.002-0.031-0.008-0.063-0.012-0.093
		c-0.004-0.032-0.008-0.065-0.014-0.098s-0.016-0.065-0.023-0.097c-0.006-0.031-0.014-0.061-0.021-0.091
		c-0.01-0.032-0.021-0.063-0.031-0.096c-0.01-0.03-0.02-0.058-0.033-0.087c-0.012-0.031-0.025-0.061-0.039-0.092
		c-0.014-0.027-0.025-0.057-0.041-0.084c-0.016-0.029-0.033-0.059-0.049-0.088c-0.016-0.025-0.031-0.053-0.049-0.078
		c-0.02-0.029-0.041-0.059-0.063-0.088c-0.016-0.023-0.033-0.045-0.051-0.068c-0.025-0.031-0.053-0.061-0.08-0.091
		c-0.012-0.015-0.025-0.03-0.039-0.044c-11.34-11.766-20.789-29.438-20.883-29.616c-0.512-0.965-1.711-1.331-2.674-0.819
		c-0.965,0.513-1.332,1.71-0.818,2.674c0.393,0.743,9.795,18.334,21.529,30.505c0.004,0.005,0.008,0.007,0.012,0.012
		c0.031,0.032,0.066,0.063,0.1,0.095c0.016,0.013,0.031,0.027,0.047,0.04c0.037,0.032,0.074,0.06,0.115,0.087
		c0.014,0.011,0.027,0.023,0.043,0.033c0.053,0.036,0.107,0.07,0.166,0.102c0.016,0.008,0.033,0.016,0.051,0.023
		c0.041,0.021,0.082,0.043,0.125,0.061c0.02,0.008,0.039,0.014,0.059,0.021c0.043,0.017,0.084,0.032,0.127,0.046
		c0.02,0.006,0.037,0.01,0.059,0.015c0.043,0.013,0.086,0.024,0.131,0.032c0.025,0.006,0.053,0.01,0.078,0.014
		c0.039,0.006,0.076,0.014,0.115,0.016c0.061,0.008,0.125,0.011,0.188,0.011c0.004,0,0.006,0,0.01,0l0,0l0,0
		c0.063,0,0.129-0.003,0.193-0.009c0.025-0.004,0.051-0.009,0.078-0.012c0.035-0.006,0.072-0.01,0.109-0.018
		c0.031-0.005,0.061-0.014,0.092-0.021c0.031-0.007,0.063-0.014,0.094-0.023s0.061-0.021,0.092-0.032
		c0.029-0.011,0.061-0.021,0.088-0.032c0.031-0.012,0.059-0.025,0.088-0.039s0.059-0.025,0.086-0.041
		c0.029-0.016,0.057-0.032,0.084-0.049c0.027-0.015,0.055-0.031,0.08-0.049c0.029-0.019,0.057-0.039,0.086-0.061
		c0.021-0.018,0.045-0.033,0.068-0.051c0.029-0.025,0.061-0.053,0.09-0.078c0.014-0.014,0.029-0.025,0.043-0.039
		c0.004-0.004,0.006-0.006,0.01-0.011c0.033-0.03,0.063-0.063,0.092-0.097c0.014-0.017,0.029-0.031,0.043-0.048
		c0.027-0.032,0.051-0.065,0.074-0.098c0.016-0.021,0.031-0.039,0.045-0.06c0.021-0.031,0.041-0.064,0.061-0.098
		c0.012-0.022,0.029-0.043,0.041-0.066c0.018-0.035,0.035-0.072,0.053-0.108c0.01-0.022,0.021-0.042,0.029-0.063
		c0.018-0.041,0.033-0.084,0.047-0.127c0.008-0.018,0.014-0.034,0.021-0.053c0.012-0.039,0.02-0.078,0.029-0.119
		c0.006-0.021,0.014-0.044,0.018-0.068c0.008-0.032,0.012-0.065,0.016-0.1c0.006-0.029,0.012-0.061,0.016-0.093
		c0.002-0.028,0.002-0.058,0.006-0.086c0.002-0.037,0.006-0.074,0.006-0.11c0-0.007,0-0.014,0-0.02
		C346.746,193.231,346.744,193.209,346.744,193.186z"/>
	<path fill="#FFFFFF" d="M212.712,200.074c7.469-13.031,45.062-53.588,48.791-55.482c0.982-0.476,1.394-1.656,0.919-2.64
		c-0.475-0.982-1.656-1.396-2.641-0.921c-5.335,2.575-43.564,44.975-50.501,57.076c-0.543,0.947-0.215,2.156,0.732,2.699
		c0.311,0.178,0.648,0.263,0.98,0.263C211.679,201.069,212.347,200.713,212.712,200.074z"/>
	<path fill="#FFFFFF" d="M344.664,200.372c-0.035-0.044-0.074-0.087-0.115-0.128c-0.002-0.003-0.002-0.004-0.006-0.006
		c0-0.001-0.002-0.002-0.002-0.004c-12.219-12.082-22.361-27.488-30.51-39.868c-0.863-1.31-1.699-2.58-2.51-3.802
		c-8.504-12.835-20.826-26.816-40.788-20.973c-1.049,0.307-1.65,1.404-1.344,2.453c0.309,1.047,1.406,1.648,2.454,1.342
		c17.384-5.088,28.146,6.933,36.38,19.361c0.809,1.219,1.643,2.486,2.504,3.793c8.24,12.52,18.496,28.098,30.992,40.467
		c0.002,0.001,0.002,0.002,0.004,0.004c0.012,0.012,0.023,0.023,0.035,0.035c0.064,0.064,0.135,0.121,0.205,0.174
		c0.008,0.006,0.014,0.014,0.021,0.02c0.01,0.006,0.02,0.011,0.027,0.017c0.076,0.054,0.154,0.103,0.234,0.144
		c0.012,0.006,0.023,0.012,0.037,0.017c0.074,0.036,0.146,0.066,0.225,0.093c0.02,0.006,0.037,0.014,0.057,0.02
		c0.082,0.025,0.166,0.045,0.248,0.059c0.025,0.004,0.049,0.008,0.074,0.011c0.078,0.011,0.156,0.018,0.234,0.019
		c0.01,0,0.02,0.002,0.029,0.002c0.504,0,1.012-0.193,1.396-0.58c0.727-0.727,0.77-1.877,0.129-2.654
		C344.674,200.38,344.668,200.375,344.664,200.372z"/>
	<path fill="#FFFFFF" d="M342.863,209.253c-0.023-0.054-0.047-0.106-0.074-0.158c-0.006-0.011-0.014-0.021-0.02-0.032
		c-0.025-0.045-0.051-0.089-0.08-0.132c-0.012-0.018-0.025-0.035-0.039-0.053c-0.025-0.034-0.049-0.069-0.076-0.104
		c-0.02-0.021-0.037-0.041-0.057-0.062c-0.023-0.027-0.047-0.054-0.072-0.08c-0.002-0.002-0.004-0.003-0.006-0.005
		c-0.049-0.048-0.102-0.096-0.156-0.14c-9.811-7.873-17.602-19.74-25.137-31.217c-11.908-18.143-23.156-35.279-41.293-35.523
		c-0.678,0-1.455,0.109-2.355,0.235c-1.557,0.22-3.492,0.492-4.68,0.1c-1.035-0.345-2.154,0.218-2.499,1.255
		c-0.344,1.036,0.219,2.155,1.255,2.498c2.066,0.686,4.512,0.34,6.475,0.063c0.723-0.102,1.404-0.196,1.777-0.198
		c16.01,0.218,26.7,16.501,38.016,33.74c7.703,11.732,15.666,23.866,25.965,32.131c0.014,0.01,0.027,0.016,0.037,0.025
		c0.016,0.01,0.025,0.021,0.037,0.031c0.043,0.031,0.09,0.056,0.135,0.082c0.035,0.021,0.068,0.045,0.105,0.064
		c0.064,0.034,0.131,0.063,0.197,0.089c0.033,0.013,0.066,0.028,0.1,0.04c0.08,0.026,0.158,0.045,0.24,0.061
		c0.023,0.005,0.045,0.014,0.068,0.018c0.105,0.016,0.213,0.025,0.32,0.025c0.143,0,0.283-0.016,0.422-0.046
		c0.008-0.001,0.014-0.004,0.02-0.005c0.063-0.014,0.123-0.031,0.182-0.053c0.012-0.002,0.021-0.006,0.031-0.01
		c0.057-0.02,0.113-0.041,0.168-0.066c0.012-0.005,0.021-0.01,0.033-0.016c0.053-0.025,0.105-0.055,0.158-0.086
		c0.01-0.006,0.021-0.012,0.031-0.018c0.053-0.033,0.105-0.07,0.158-0.11c0.006-0.005,0.012-0.009,0.018-0.013
		c0.061-0.049,0.121-0.1,0.178-0.156c0.586-0.586,0.727-1.445,0.424-2.164C342.867,209.261,342.865,209.258,342.863,209.253z"/>
	<path fill="#FFFFFF" d="M340.789,217.57c0.025-0.098,0.045-0.195,0.057-0.295c0.002-0.021,0.006-0.043,0.008-0.063
		c0.01-0.095,0.01-0.188,0.004-0.284c-0.002-0.023-0.004-0.049-0.006-0.073c-0.008-0.093-0.023-0.187-0.045-0.276
		c-0.004-0.021-0.012-0.044-0.018-0.064c-0.025-0.094-0.057-0.185-0.096-0.273c-0.006-0.016-0.014-0.029-0.02-0.045
		c-0.045-0.093-0.092-0.184-0.15-0.27c-0.004-0.004-0.008-0.01-0.01-0.014c-0.059-0.082-0.123-0.16-0.191-0.233
		c-0.012-0.013-0.021-0.023-0.033-0.036c-0.07-0.07-0.146-0.135-0.23-0.195c-0.01-0.008-0.018-0.017-0.027-0.023
		c-0.008-0.007-0.018-0.011-0.025-0.016c-0.016-0.01-0.027-0.021-0.043-0.031c-15.689-10.211-23.48-23.729-30.354-35.654
		c-5.234-9.08-10.178-17.657-17.811-23.43c-0.871-0.658-2.109-0.486-2.77,0.385c-0.658,0.871-0.486,2.111,0.385,2.77
		c6.992,5.288,11.521,13.149,16.77,22.251c7.096,12.31,15.139,26.263,31.623,36.993c0.037,0.024,0.074,0.042,0.113,0.063
		c0.027,0.016,0.053,0.035,0.08,0.051c0.012,0.004,0.025,0.009,0.037,0.014c0.027,0.014,0.055,0.024,0.084,0.036
		c0.055,0.023,0.109,0.044,0.164,0.063c0.031,0.009,0.061,0.018,0.088,0.025c0.063,0.017,0.123,0.028,0.184,0.04
		c0.023,0.004,0.047,0.008,0.068,0.012c0.086,0.012,0.174,0.019,0.26,0.019c0.027,0,0.057-0.005,0.086-0.006
		c0.055-0.003,0.109-0.005,0.164-0.011c0.039-0.006,0.078-0.015,0.119-0.023c0.043-0.008,0.088-0.016,0.131-0.027
		c0.041-0.01,0.078-0.023,0.119-0.037c0.041-0.013,0.084-0.027,0.123-0.043s0.076-0.034,0.115-0.052
		c0.039-0.02,0.078-0.039,0.115-0.06c0.039-0.021,0.074-0.044,0.109-0.068c0.035-0.021,0.07-0.047,0.104-0.072
		c0.037-0.027,0.072-0.056,0.107-0.085c0.029-0.026,0.057-0.053,0.086-0.08c0.035-0.034,0.07-0.069,0.102-0.107
		c0.025-0.026,0.047-0.056,0.068-0.084c0.033-0.042,0.066-0.083,0.096-0.127c0.004-0.007,0.01-0.011,0.014-0.017
		c0.035-0.059,0.07-0.119,0.102-0.18c0.004-0.005,0.006-0.01,0.01-0.014c0.004-0.012,0.008-0.023,0.014-0.033
		c0.043-0.092,0.08-0.185,0.107-0.28C340.779,217.594,340.785,217.583,340.789,217.57z"/>
	<path fill="#FFFFFF" d="M337.383,222.283c-17.006-10.488-21.793-18.29-29.451-32.303c-0.523-0.959-1.725-1.311-2.682-0.787
		c-0.959,0.523-1.313,1.725-0.787,2.683c7.764,14.208,13.023,22.782,30.844,33.773c0.322,0.199,0.682,0.294,1.035,0.294
		c0.664,0,1.313-0.332,1.686-0.939C338.602,224.074,338.311,222.856,337.383,222.283z"/>
	<path fill="#FFFFFF" d="M334.652,229.244c-3.602-2.453-15.898-10.97-23.049-17.607c-0.801-0.744-2.051-0.697-2.795,0.104
		c-0.742,0.8-0.695,2.051,0.104,2.793c7.352,6.828,19.855,15.487,23.512,17.979c0.342,0.232,0.729,0.344,1.113,0.344
		c0.631,0,1.254-0.303,1.637-0.864C335.787,231.088,335.555,229.858,334.652,229.244z"/>
	<path fill="#FFFFFF" d="M282.406,218.865c11.361-11.83,15.176-25.957,11.34-41.984c-2.025-8.461-7.006-23.205-17.614-26.911
		c-6.084-2.125-12.883-0.298-20.207,5.431c-10.383,8.117-26.082,25.99-44.209,50.324c-0.179,0.24-0.346,0.466-0.48,0.645
		c-0.092,0.09-0.175,0.188-0.25,0.299c-1.23,1.789,0.154,2.857,0.316,2.973c0.264,0.188,1.642,1.038,2.953-0.707
		c0.145-0.191,0.357-0.477,0.633-0.846c17.922-24.06,33.361-41.665,43.473-49.572c6.196-4.846,11.736-6.464,16.467-4.813
		c8.834,3.086,13.235,16.422,15.073,24.098c3.504,14.633,0.021,27.529-10.346,38.325c-10.965,11.413-28.709,16.931-57.535,17.888
		c-1.091,0.035-1.947,0.949-1.911,2.041c0.035,1.07,0.914,1.912,1.976,1.912c0.022,0,0.044,0,0.067-0.001
		C252.088,236.972,270.671,231.081,282.406,218.865z"/>
	<path fill="#FFFFFF" d="M218.259,216.532l0.302-0.435c7.364-10.613,15.281-21.008,22.294-29.27
		c17.975-21.181,26.402-24.344,29.826-24.344c5.156,0,8.242,4.949,9.624,7.9c4.863,10.391,4.564,28.256-4.399,39
		c-3.773,4.521-10.317,8.447-18.925,11.35c-8.712,2.939-19.356,4.766-30.784,5.281c-1.092,0.049-1.936,0.975-1.886,2.065
		c0.048,1.06,0.923,1.888,1.974,1.888c0.03,0,0.061-0.001,0.091-0.002c24.407-1.104,44.058-7.851,52.566-18.049
		c9.958-11.936,10.32-31.723,4.945-43.211c-3.072-6.563-7.762-10.178-13.206-10.178c-7.4,0-18.144,8.42-32.842,25.74
		c-7.092,8.356-15.092,18.86-22.527,29.574c-0.101,0.146-0.183,0.264-0.243,0.351c-0.054,0.064-0.105,0.134-0.151,0.207
		c-0.712,1.11-0.263,2.265,0.521,2.788C215.996,217.561,217.302,217.9,218.259,216.532z"/>
	<path fill="#FFFFFF" d="M260.375,214.515c18.589-10.195,20.054-26.026,19.271-34.557c-0.369-4.022-2.03-7.27-4.678-9.143
		c-1.854-1.311-5.145-2.601-10.297-1.294c-6.938,1.758-12.877,9.956-20.395,20.334c-5.267,7.269-11.234,15.507-18.66,23.061
		c-0.766,0.779-0.756,2.03,0.023,2.795c0.778,0.768,2.031,0.756,2.796-0.023c7.635-7.764,13.696-16.131,19.043-23.512
		c6.77-9.345,12.616-17.414,18.163-18.821c2.965-0.751,5.334-0.519,7.043,0.69c1.688,1.193,2.762,3.422,3.023,6.274
		c0.693,7.565-0.623,21.618-17.234,30.728c-6.533,3.582-14.701,5.154-22.602,6.674c-6.938,1.335-13.49,2.595-19.091,5.122
		c-0.995,0.449-1.438,1.62-0.989,2.616c0.33,0.731,1.051,1.164,1.805,1.164c0.271,0,0.548-0.057,0.813-0.176
		c5.176-2.336,11.507-3.554,18.21-4.844C244.82,220.027,253.298,218.396,260.375,214.515z"/>
	<path fill="#FFFFFF" d="M252.451,206.176c-0.959,0.521-1.314,1.725-0.793,2.684c0.523,0.959,1.724,1.313,2.683,0.791
		c10.199-5.549,17.511-17.532,17.692-24.816c0.078-3.111-1.207-4.561-2.299-5.227c-4.03-2.462-8.307,2.059-9.711,3.544
		c-2.863,3.025-5.888,7.334-9.09,11.894c-4.666,6.643-9.953,14.172-13.91,15.929c-0.998,0.443-1.447,1.61-1.005,2.608
		c0.327,0.738,1.051,1.176,1.809,1.176c0.269,0,0.54-0.054,0.802-0.17c4.958-2.201,10.099-9.52,15.541-17.27
		c3.117-4.439,6.063-8.633,8.727-11.449c2.211-2.338,3.953-3.389,4.776-2.887c0.214,0.131,0.433,0.734,0.407,1.752
		C267.946,190.082,261.791,201.095,252.451,206.176z"/>
	<path fill="#FFFFFF" d="M291.621,220.178c9.094-11.508,12.291-26.807,9.248-44.242c-0.188-1.076-1.209-1.794-2.287-1.608
		c-1.076,0.188-1.795,1.212-1.609,2.288c1.984,11.363,2.129,27.719-8.453,41.111c-11.272,14.264-32.25,22.42-62.353,24.242
		c-1.091,0.067-1.921,1.004-1.854,2.096c0.063,1.049,0.935,1.857,1.972,1.857c0.04,0,0.081-0.002,0.122-0.004
		C257.68,244.023,279.621,235.363,291.621,220.178z"/>
	<path fill="#FFFFFF" d="M255.949,245.42c-1.043,0.325-1.627,1.434-1.303,2.476c0.264,0.848,1.045,1.392,1.889,1.392
		c0.193,0,0.391-0.03,0.586-0.091c39.913-12.402,46.911-34.275,50.276-44.787c0.332-1.041-0.242-2.152-1.281-2.485
		s-2.154,0.24-2.486,1.279C300.227,213.837,293.895,233.629,255.949,245.42z"/>
	<path fill="#FFFFFF" d="M308.078,220.225c0.516-0.964,0.152-2.162-0.811-2.678s-2.162-0.152-2.676,0.811
		c-12.947,24.205-33.288,29.153-54.822,34.393c-4.523,1.1-9.2,2.238-13.735,3.559c-1.049,0.305-1.65,1.402-1.346,2.451
		c0.252,0.863,1.041,1.426,1.898,1.426c0.182,0,0.369-0.027,0.553-0.08c4.45-1.297,9.084-2.424,13.564-3.514
		C272.136,251.379,294.297,245.987,308.078,220.225z"/>
	<path fill="#FFFFFF" d="M251.476,248.395c-0.199-1.074-1.229-1.785-2.304-1.586c-0.111,0.021-11.203,2.069-18.043,3.011
		c-1.082,0.149-1.839,1.147-1.688,2.229c0.137,0.991,0.983,1.708,1.955,1.708c0.091,0,0.182-0.006,0.273-0.018
		c6.929-0.955,18.11-3.02,18.223-3.041C250.965,250.5,251.675,249.468,251.476,248.395z"/>
	<path fill="#FFFFFF" d="M330.27,236.994l-18.004-12.455c-0.898-0.621-2.131-0.396-2.752,0.502s-0.396,2.131,0.502,2.751
		l18.006,12.455c0.342,0.236,0.734,0.351,1.121,0.351c0.629,0,1.246-0.297,1.631-0.853
		C331.393,238.846,331.168,237.615,330.27,236.994z"/>
	<path fill="#FFFFFF" d="M325.615,244.212c-2.088-1.204-14.379-10.098-18.938-13.422c-0.883-0.644-2.119-0.45-2.764,0.432
		c-0.643,0.883-0.449,2.12,0.434,2.763c0.676,0.494,16.594,12.098,19.291,13.652c0.311,0.18,0.65,0.266,0.986,0.266
		c0.684,0,1.348-0.355,1.715-0.99C326.885,245.967,326.561,244.758,325.615,244.212z"/>
	<path fill="#FFFFFF" d="M321.27,250.959l-0.127-0.08c-2.873-1.81-3.389-2.136-18.867-14.145c-0.863-0.67-2.105-0.513-2.773,0.35
		c-0.67,0.863-0.514,2.105,0.35,2.775c15.629,12.127,16.172,12.469,19.182,14.365l0.127,0.08c0.328,0.207,0.693,0.305,1.055,0.305
		c0.656,0,1.299-0.326,1.674-0.923C322.471,252.764,322.193,251.542,321.27,250.959z"/>
	<path fill="#FFFFFF" d="M295.133,242.78c-0.969-0.505-2.162-0.131-2.666,0.838c-0.506,0.968-0.131,2.163,0.838,2.667
		c0.129,0.068,13.105,6.883,19.811,13.807c0.387,0.401,0.904,0.603,1.422,0.603c0.494,0,0.99-0.185,1.373-0.558
		c0.785-0.759,0.805-2.011,0.045-2.796C308.805,249.953,295.688,243.068,295.133,242.78z"/>
	<path fill="#FFFFFF" d="M281.473,248.836c-1.088-0.079-2.037,0.736-2.117,1.826s0.738,2.037,1.826,2.117
		c15.537,1.147,27.061,12.051,27.174,12.162c0.383,0.367,0.877,0.552,1.371,0.552c0.52,0,1.037-0.204,1.426-0.606
		c0.756-0.787,0.732-2.039-0.055-2.797C310.588,261.602,298.441,250.088,281.473,248.836z"/>
	<path fill="#FFFFFF" d="M306.943,267.794C306.943,267.794,306.943,267.794,306.943,267.794c0.02-0.062,0.035-0.124,0.047-0.187
		c0-0.005,0-0.01,0.002-0.015c0.023-0.121,0.035-0.244,0.035-0.371c0-0.056-0.004-0.112-0.008-0.167c0-0.007,0-0.013,0-0.02
		c-0.006-0.057-0.014-0.113-0.025-0.168c0-0.008-0.002-0.014-0.002-0.021c-0.012-0.054-0.025-0.107-0.039-0.16
		c-0.002-0.009-0.004-0.017-0.008-0.025c-0.014-0.049-0.031-0.098-0.049-0.145c-0.004-0.012-0.01-0.025-0.014-0.038
		c-0.018-0.042-0.037-0.081-0.057-0.122c-0.008-0.019-0.018-0.037-0.027-0.057c-0.018-0.033-0.035-0.064-0.055-0.096
		c-0.016-0.023-0.029-0.049-0.045-0.072c-0.018-0.027-0.035-0.051-0.055-0.076c-0.02-0.027-0.039-0.055-0.061-0.081
		c-0.018-0.022-0.037-0.043-0.057-0.063c-0.023-0.027-0.047-0.055-0.072-0.08c-0.023-0.023-0.047-0.045-0.072-0.066
		c-0.023-0.021-0.045-0.043-0.068-0.063c-0.045-0.037-0.09-0.07-0.137-0.104c-0.006-0.004-0.012-0.01-0.018-0.014
		c-0.002,0-0.002,0-0.002,0c-0.002-0.002-0.002-0.003-0.004-0.004c-10.205-6.916-20.68-10.408-32.024-10.678
		c-9.739-0.234-20.256,1.869-33.105,6.613c-1.024,0.378-1.549,1.515-1.17,2.539c0.379,1.025,1.516,1.55,2.539,1.17
		c25.838-9.537,43.67-8.484,61.547,3.634v0.001c0.076,0.05,0.154,0.094,0.236,0.134c0.016,0.009,0.033,0.017,0.051,0.024
		c0.08,0.036,0.16,0.069,0.244,0.096c0.01,0.002,0.018,0.004,0.027,0.006c0.074,0.021,0.148,0.039,0.225,0.051
		c0.023,0.004,0.047,0.008,0.07,0.01c0.082,0.012,0.164,0.02,0.248,0.02c0.002,0,0.004,0,0.006,0l0,0c0.002,0,0.002,0,0.002,0
		c0.076,0,0.15-0.006,0.225-0.014c0.014-0.002,0.027-0.006,0.043-0.008c0.061-0.008,0.121-0.018,0.18-0.031
		c0.016-0.004,0.033-0.01,0.049-0.014c0.059-0.014,0.115-0.031,0.17-0.053c0.016-0.004,0.033-0.01,0.049-0.016
		c0.059-0.023,0.115-0.049,0.172-0.077c0.01-0.005,0.021-0.011,0.031-0.015c0.068-0.037,0.133-0.074,0.195-0.117
		c0.006-0.004,0.012-0.009,0.016-0.013c0.057-0.038,0.109-0.08,0.16-0.123c0.016-0.015,0.029-0.028,0.045-0.042
		c0.043-0.041,0.086-0.081,0.125-0.125c0.012-0.012,0.023-0.025,0.035-0.039C306.725,268.307,306.861,268.063,306.943,267.794z"/>
	<path fill="#FFFFFF" d="M300.158,269.567c-6.625-5.269-16.84-8.116-28.762-8.034c-9.624,0.072-19.434,2.156-24.409,5.188
		c-0.933,0.568-1.228,1.785-0.659,2.717c0.567,0.934,1.783,1.229,2.717,0.66c3.557-2.166,12.076-4.533,22.382-4.609
		c11.029-0.086,20.351,2.466,26.271,7.174c0.365,0.289,0.799,0.43,1.23,0.43c0.582,0,1.158-0.255,1.549-0.746
		C301.156,271.49,301.014,270.247,300.158,269.567z"/>
	<path fill="#FFFFFF" d="M294.055,272.163c-11.631-6.334-32.215-5.577-41.277-2.274c-1.026,0.375-1.554,1.51-1.181,2.535
		c0.374,1.027,1.51,1.557,2.535,1.181c8.18-2.98,27.52-3.691,38.032,2.031c0.301,0.164,0.625,0.241,0.943,0.241
		c0.701,0,1.381-0.373,1.738-1.031C295.369,273.887,295.014,272.686,294.055,272.163z"/>
	<path fill="#FFFFFF" d="M285.684,276.512c-0.002-0.014-0.004-0.023-0.004-0.035c-0.004-0.052-0.012-0.104-0.021-0.154
		c-0.002-0.013-0.004-0.024-0.006-0.037c-0.01-0.05-0.021-0.1-0.035-0.147c-0.004-0.013-0.008-0.024-0.01-0.036
		c-0.016-0.051-0.031-0.098-0.049-0.146c-0.006-0.011-0.01-0.022-0.014-0.034c-0.02-0.048-0.041-0.094-0.064-0.141
		c-0.004-0.011-0.01-0.021-0.016-0.031c-0.023-0.045-0.049-0.09-0.076-0.133c-0.006-0.011-0.012-0.021-0.02-0.031
		c-0.027-0.042-0.057-0.083-0.086-0.123c-0.01-0.012-0.018-0.023-0.027-0.034c-0.029-0.036-0.061-0.073-0.092-0.107
		c-0.014-0.014-0.025-0.026-0.037-0.04c-0.031-0.031-0.063-0.061-0.094-0.09c-0.018-0.016-0.037-0.031-0.055-0.047
		c-0.029-0.023-0.059-0.047-0.09-0.07c-0.023-0.018-0.049-0.034-0.074-0.052c-0.027-0.019-0.055-0.036-0.084-0.054
		s-0.059-0.035-0.09-0.051c-0.016-0.008-0.027-0.017-0.043-0.023c-0.018-0.01-0.035-0.017-0.055-0.025
		c-0.018-0.009-0.037-0.018-0.057-0.025c-0.01-0.006-0.021-0.01-0.033-0.016c-0.025-0.01-0.053-0.018-0.08-0.027
		c-0.018-0.006-0.033-0.014-0.051-0.021c-0.014-0.004-0.027-0.007-0.039-0.011c-0.006-0.002-0.01-0.004-0.016-0.006
		c-4.807-1.545-14.067-2.514-22.533-1.379c-0.013,0.002-0.024,0.006-0.037,0.008c-0.04,0.006-0.08,0.013-0.119,0.021
		c-0.022,0.004-0.046,0.01-0.067,0.016c-0.043,0.011-0.085,0.023-0.126,0.036c-0.02,0.007-0.04,0.013-0.059,0.02
		c-0.042,0.016-0.085,0.032-0.126,0.05c-0.016,0.009-0.033,0.016-0.049,0.021c-0.045,0.021-0.088,0.045-0.131,0.069
		c-0.012,0.007-0.023,0.013-0.035,0.02c-0.051,0.03-0.1,0.063-0.147,0.098c-0.003,0.001-0.005,0.003-0.007,0.004
		c-0.459,0.335-0.766,0.859-0.807,1.46v0.001c-0.004,0.046-0.007,0.091-0.007,0.138c0,0.02,0.002,0.039,0.003,0.06
		c0,0.001,0,0.002,0,0.002c0.009,0.274,0.072,0.533,0.182,0.769c0.001,0.004,0.002,0.005,0.004,0.007
		c0.025,0.056,0.054,0.108,0.084,0.161c0.003,0.006,0.006,0.01,0.01,0.016c0.029,0.049,0.061,0.096,0.094,0.144
		c0.005,0.006,0.01,0.013,0.014,0.018c0.033,0.045,0.068,0.089,0.105,0.13c0.005,0.006,0.011,0.012,0.016,0.018
		c0.037,0.042,0.076,0.082,0.117,0.12c0.005,0.005,0.01,0.009,0.016,0.015c0.042,0.038,0.084,0.074,0.129,0.108
		c0.006,0.004,0.012,0.007,0.016,0.011c0.046,0.035,0.092,0.067,0.141,0.098c0.006,0.004,0.012,0.006,0.017,0.011
		c0.048,0.028,0.097,0.056,0.147,0.083c0.008,0.002,0.014,0.006,0.021,0.01c0.049,0.023,0.1,0.046,0.15,0.065
		c0.01,0.004,0.021,0.007,0.031,0.011c0.049,0.018,0.097,0.035,0.146,0.048c0.016,0.005,0.031,0.008,0.048,0.013
		c0.044,0.011,0.089,0.021,0.134,0.029c0.023,0.004,0.047,0.007,0.069,0.012c0.04,0.004,0.079,0.01,0.12,0.014
		c0.029,0.002,0.059,0.004,0.087,0.004c0.026,0.002,0.051,0.004,0.077,0.004c0.014,0,0.027-0.002,0.041-0.002
		c0.018,0,0.034,0,0.051-0.002c0.021,0,0.043,0,0.065-0.002c0.021-0.002,0.042-0.006,0.063-0.008
		c0.015-0.001,0.029-0.001,0.044-0.004c7.826-1.049,16.579-0.145,20.841,1.238c0.004,0.001,0.01,0.002,0.016,0.004
		c0.09,0.027,0.18,0.049,0.271,0.064c0.016,0.003,0.029,0.004,0.045,0.006c0.092,0.014,0.186,0.023,0.277,0.023
		c0.1,0,0.197-0.01,0.295-0.023c0.025-0.005,0.049-0.012,0.074-0.016c0.072-0.015,0.143-0.03,0.211-0.052
		c0.029-0.009,0.055-0.02,0.082-0.028c0.066-0.023,0.131-0.05,0.195-0.08c0.023-0.013,0.049-0.025,0.072-0.039
		c0.064-0.033,0.127-0.07,0.188-0.111c0.02-0.014,0.041-0.029,0.061-0.044c0.061-0.046,0.119-0.093,0.174-0.146
		c0.018-0.017,0.035-0.031,0.051-0.047c0.057-0.057,0.107-0.119,0.158-0.182c0.012-0.018,0.025-0.03,0.037-0.047
		c0.055-0.075,0.105-0.156,0.15-0.243c0.004-0.005,0.006-0.009,0.01-0.014c0.004-0.009,0.01-0.015,0.014-0.022
		c0.043-0.088,0.078-0.179,0.107-0.27c0.002-0.002,0.002-0.004,0.002-0.005c0.002-0.003,0.002-0.006,0.002-0.009
		c0.02-0.061,0.037-0.121,0.049-0.182c0.002-0.004,0.002-0.008,0.004-0.014c0.012-0.059,0.021-0.118,0.029-0.179
		c0-0.006,0-0.012,0.002-0.019c0.006-0.058,0.01-0.113,0.01-0.172c0-0.009,0-0.018,0.002-0.027
		C285.689,276.618,285.688,276.564,285.684,276.512z"/>
</g>
</svg>
