<?xml version="1.0" encoding="utf-8"?>
<!-- Generator: Adobe Illustrator 17.0.0, SVG Export Plug-In . SVG Version: 6.00 Build 0)  -->
<!DOCTYPE svg PUBLIC "-//W3C//DTD SVG 1.1//EN" "http://www.w3.org/Graphics/SVG/1.1/DTD/svg11.dtd">
<svg version="1.1" id="Layer_1" xmlns="http://www.w3.org/2000/svg" xmlns:xlink="http://www.w3.org/1999/xlink" x="0px" y="0px"
	 width="1920px" height="800px" viewBox="0 0 1920 800" enable-background="new 0 0 1920 800" xml:space="preserve">
<rect x="-0.156" y="-0.261" fill="#FCDA00" width="1920" height="800"/>
<g>
	<path d="M406.181,265.063H189.224c-4.412,0-8.021,3.61-8.021,8.021v216.957c0,4.412,3.61,8.021,8.021,8.021h89.484l15.423,31.015
		c1.964,3.95,5.17,3.946,7.123-0.01l15.312-31.005h89.615c4.412,0,8.021-3.61,8.021-8.021V273.084
		C414.202,268.673,410.593,265.063,406.181,265.063z"/>
	<g>
		<path fill="#FCDA00" d="M234.665,303.739h-21.822c-1.416,0-2.757,0.532-3.777,1.501c-1.075,1.022-1.667,2.433-1.667,3.971
			c0,1.507,0.594,2.9,1.663,3.911c1.018,0.971,2.361,1.506,3.782,1.506h5.44v29.915c0,1.459,0.567,2.829,1.589,3.847
			c1.027,1.03,2.396,1.597,3.856,1.597c1.456,0,2.824-0.566,3.851-1.593c1.027-1.027,1.593-2.395,1.593-3.851v-29.915h5.494
			c1.418,0,2.759-0.533,3.775-1.499c1.077-1.022,1.67-2.414,1.67-3.918c0-1.535-0.591-2.944-1.674-3.978
			C237.417,304.27,236.078,303.739,234.665,303.739z"/>
		<path fill="#FCDA00" d="M270.635,303.739c-1.446,0-2.809,0.554-3.843,1.564c-1.051,1.03-1.629,2.409-1.629,3.88v12.208h-10.933
			v-12.208c0-1.412-0.53-2.75-1.505-3.782c-1.023-1.072-2.432-1.663-3.967-1.663c-1.504,0-2.895,0.593-3.917,1.67
			c-0.967,1.018-1.499,2.358-1.499,3.775v35.305c0,1.421,0.535,2.764,1.495,3.77c1.022,1.079,2.415,1.674,3.922,1.674
			c1.539,0,2.949-0.592,3.974-1.67c0.966-1.018,1.498-2.358,1.498-3.775v-12.208h10.933v12.208c0,1.476,0.581,2.857,1.629,3.88
			c1.029,1.009,2.394,1.564,3.843,1.564c1.504,0,2.895-0.593,3.918-1.67c0.966-1.018,1.499-2.358,1.499-3.775v-35.305
			c0-1.412-0.53-2.75-1.503-3.779C273.525,304.331,272.136,303.739,270.635,303.739z"/>
		<path fill="#FCDA00" d="M308.291,314.628c1.513,0,2.909-0.604,3.929-1.702c0.943-1.013,1.461-2.343,1.461-3.743
			c0-1.396-0.517-2.722-1.466-3.748c-1.02-1.094-2.414-1.697-3.925-1.697h-21.904c-1.504,0-2.895,0.593-3.917,1.67
			c-0.967,1.018-1.499,2.358-1.499,3.775v35.305c0,1.421,0.535,2.764,1.495,3.77c1.022,1.079,2.415,1.674,3.922,1.674h21.904
			c1.513,0,2.909-0.604,3.929-1.702c0.943-1.013,1.461-2.343,1.461-3.743c0-1.397-0.517-2.725-1.466-3.748
			c-1.02-1.094-2.414-1.697-3.925-1.697H291.86v-6.764h16.432c1.513,0,2.909-0.604,3.929-1.702c0.942-1.013,1.461-2.343,1.461-3.743
			c0-1.396-0.517-2.722-1.466-3.748c-1.021-1.094-2.414-1.697-3.925-1.697H291.86v-6.764H308.291z"/>
	</g>
	<g>
		<path fill="#FFFFFF" d="M218.364,370.404c0.093-0.208,0.207-0.38,0.36-0.538c0.116-0.12,0.246-0.21,0.406-0.281
			c0.073-0.032,0.197-0.076,0.428-0.076h15.108c1.418,0,2.759-0.533,3.772-1.497c1.079-1.022,1.672-2.414,1.672-3.92
			c0-1.537-0.591-2.946-1.672-3.975c-1.018-0.965-2.358-1.497-3.772-1.497h-15.108c-1.64,0-3.225,0.322-4.715,0.958
			c-1.445,0.617-2.737,1.478-3.843,2.56c-1.131,1.106-2.022,2.417-2.649,3.894c-0.632,1.488-0.953,3.092-0.953,4.769v4.182
			c0,1.678,0.321,3.283,0.952,4.768c0.621,1.463,1.5,2.77,2.614,3.887c1.113,1.115,2.417,1.997,3.879,2.622
			c1.488,0.635,3.074,0.958,4.742,0.958l8.312-0.054c0.251,0,0.404,0.053,0.488,0.089c0.22,0.096,0.333,0.197,0.399,0.266
			c0.153,0.159,0.269,0.332,0.36,0.537c0.033,0.075,0.077,0.201,0.077,0.431v4.17c0,0.19-0.03,0.347-0.092,0.492
			c-0.083,0.19-0.175,0.333-0.292,0.449c-0.115,0.115-0.262,0.21-0.447,0.291c-0.148,0.064-0.3,0.093-0.493,0.093h-15.054
			c-1.457,0-2.825,0.566-3.851,1.592c-1.027,1.027-1.593,2.395-1.593,3.852c0,1.459,0.567,2.829,1.589,3.847
			c1.027,1.03,2.396,1.598,3.856,1.598h15.054c1.676,0,3.279-0.321,4.764-0.954c1.475-0.628,2.783-1.52,3.889-2.653
			c1.063-1.09,1.922-2.362,2.554-3.784c0.668-1.504,1.006-3.126,1.006-4.823v-4.17c0-1.697-0.338-3.32-1.007-4.823
			c-0.637-1.435-1.508-2.71-2.592-3.796c-1.096-1.094-2.391-1.965-3.851-2.587c-1.486-0.632-3.089-0.953-4.763-0.953h-8.339
			c-0.231,0-0.354-0.043-0.429-0.076c-0.185-0.082-0.33-0.18-0.458-0.307c-0.117-0.117-0.209-0.259-0.293-0.452
			c-0.039-0.09-0.091-0.238-0.091-0.489v-4.17C218.287,370.602,218.33,370.48,218.364,370.404z"/>
		<path fill="#FFFFFF" d="M270.607,358.62h-21.822c-1.418,0-2.759,0.533-3.775,1.499c-1.077,1.022-1.67,2.433-1.67,3.973
			c0,1.509,0.596,2.902,1.663,3.911c1.018,0.971,2.361,1.506,3.782,1.506h5.44v29.915c0,1.459,0.567,2.829,1.589,3.847
			c1.027,1.03,2.396,1.598,3.856,1.598c1.456,0,2.824-0.566,3.852-1.593c1.027-1.027,1.593-2.395,1.593-3.852v-29.915h5.494
			c1.418,0,2.759-0.533,3.772-1.497c1.079-1.022,1.672-2.414,1.672-3.92c0-1.537-0.591-2.946-1.672-3.975
			C273.362,359.151,272.022,358.62,270.607,358.62z"/>
		<path fill="#FFFFFF" d="M308.504,362.16c-1.096-1.094-2.391-1.965-3.853-2.588c-1.488-0.631-3.089-0.952-4.761-0.952h-8.339
			c-1.672,0-3.274,0.32-4.766,0.954c-1.46,0.622-2.756,1.493-3.851,2.588c-1.097,1.097-1.968,2.393-2.588,3.852
			c-0.633,1.486-0.954,3.089-0.954,4.765v28.591c0,1.403,0.52,2.734,1.457,3.738c1.02,1.101,2.417,1.707,3.934,1.707
			c1.548,0,2.963-0.604,3.983-1.702c0.942-1.014,1.461-2.343,1.461-3.743v-5.493h10.987v5.493c0,1.403,0.52,2.734,1.457,3.738
			c1.02,1.101,2.436,1.707,3.988,1.707c1.512,0,2.906-0.603,3.929-1.702c0.942-1.013,1.461-2.343,1.461-3.743v-28.591
			c0-1.673-0.321-3.276-0.954-4.764C310.473,364.555,309.603,363.26,308.504,362.16z M290.227,370.778
			c0-0.231,0.043-0.353,0.077-0.431c0.092-0.207,0.206-0.377,0.359-0.536c0.106-0.109,0.232-0.194,0.394-0.264
			c0.092-0.04,0.242-0.092,0.494-0.092h8.339c0.251,0,0.402,0.053,0.49,0.091c0.166,0.072,0.292,0.156,0.397,0.264
			c0.153,0.159,0.269,0.332,0.36,0.537c0.033,0.075,0.077,0.201,0.077,0.431v12.263h-10.987V370.778z"/>
		<path fill="#FFFFFF" d="M344.536,358.62c-1.456,0-2.825,0.566-3.854,1.595c-1.026,1.027-1.591,2.394-1.591,3.849v16.218
			l-11.745-19.007c-0.592-0.995-1.458-1.758-2.519-2.214c-0.668-0.285-1.375-0.43-2.101-0.43c-0.003,0-0.006,0-0.009,0l-2.849,0.798
			c-0.561,0.342-1.057,0.788-1.47,1.323c-0.739,0.961-1.129,2.106-1.129,3.311v35.359c0,1.517,0.606,2.914,1.697,3.924
			c1.013,0.946,2.345,1.466,3.748,1.466c1.4,0,2.729-0.519,3.743-1.461c1.097-1.02,1.702-2.416,1.702-3.929v-16.217l11.729,18.981
			c0.952,1.64,2.665,2.617,4.618,2.627l2.876-0.729c0.639-0.384,1.192-0.899,1.618-1.517c0.641-0.927,0.981-2.014,0.981-3.145
			v-35.359c0-1.452-0.563-2.817-1.598-3.856C347.356,359.184,345.99,358.62,344.536,358.62z"/>
		<path fill="#FFFFFF" d="M386.999,366.008c-0.638-1.435-1.509-2.71-2.592-3.794c-1.082-1.08-2.357-1.951-3.79-2.587
			c-1.503-0.668-3.126-1.007-4.824-1.007h-15.054c-1.457,0-2.825,0.566-3.854,1.595c-1.026,1.027-1.591,2.394-1.591,3.849v35.359
			c0,1.517,0.606,2.914,1.697,3.924c1.013,0.946,2.345,1.466,3.748,1.466h15.054c1.676,0,3.279-0.321,4.764-0.954
			c1.46-0.621,2.756-1.492,3.853-2.588c1.079-1.079,1.95-2.355,2.59-3.793c0.668-1.503,1.007-3.126,1.007-4.824v-21.822
			C388.006,369.136,387.668,367.513,386.999,366.008z M377.117,392.61c0,0.188-0.03,0.344-0.091,0.485
			c-0.082,0.189-0.175,0.331-0.291,0.447c-0.116,0.116-0.258,0.208-0.446,0.289c-0.093,0.04-0.246,0.094-0.497,0.094h-9.609v-24.417
			h9.609c0.191,0,0.349,0.03,0.495,0.093c0.186,0.08,0.332,0.175,0.448,0.29c0.114,0.114,0.21,0.261,0.289,0.443
			c0.063,0.146,0.093,0.301,0.093,0.489V392.61z"/>
	</g>
	<g>
		<path fill="#FFFFFF" d="M234.665,413.193c-1.4,0-2.729,0.519-3.743,1.461c-1.097,1.02-1.701,2.416-1.701,3.929v28.591
			c0,0.19-0.03,0.347-0.092,0.492c-0.083,0.19-0.175,0.332-0.292,0.449c-0.117,0.117-0.259,0.209-0.449,0.292
			c-0.091,0.039-0.241,0.092-0.492,0.092h-8.339c-0.231,0-0.353-0.042-0.429-0.076c-0.185-0.082-0.33-0.18-0.458-0.307
			c-0.117-0.117-0.209-0.259-0.292-0.451c-0.039-0.091-0.091-0.239-0.091-0.49v-28.591c0-1.51-0.603-2.904-1.706-3.934
			c-1.014-0.939-2.341-1.457-3.738-1.457c-1.4,0-2.729,0.519-3.743,1.461c-1.097,1.02-1.701,2.416-1.701,3.929v28.591
			c0,1.675,0.321,3.278,0.954,4.764c0.622,1.461,1.502,2.767,2.615,3.879c1.114,1.114,2.419,1.995,3.88,2.616
			c1.486,0.633,3.071,0.954,4.711,0.954h8.339c1.675,0,3.278-0.321,4.764-0.954c1.475-0.628,2.783-1.519,3.889-2.652
			c1.062-1.089,1.921-2.362,2.554-3.784c0.668-1.504,1.006-3.126,1.006-4.823v-28.591c0-1.51-0.603-2.904-1.706-3.934
			C237.389,413.71,236.062,413.193,234.665,413.193z"/>
		<path fill="#FFFFFF" d="M274.462,416.796c-1.104-1.129-2.411-2.02-3.888-2.65c-1.488-0.632-3.09-0.953-4.762-0.953h-15.054
			c-1.456,0-2.814,0.556-3.825,1.566c-0.917,0.917-1.47,2.099-1.6,3.419l-0.02,0.202v35.563c0,1.459,0.567,2.829,1.588,3.847
			c1.027,1.03,2.397,1.598,3.856,1.598c1.456,0,2.824-0.566,3.852-1.593c1.027-1.027,1.593-2.395,1.593-3.852v-5.602h9.609
			c1.675,0,3.278-0.321,4.764-0.954c1.459-0.621,2.755-1.492,3.853-2.589c1.079-1.079,1.95-2.355,2.59-3.793
			c0.668-1.503,1.007-3.126,1.007-4.823v-10.83c0-1.661-0.338-3.265-1.007-4.771C276.388,419.163,275.529,417.891,274.462,416.796z
			 M267.137,436.141c0,0.226-0.043,0.349-0.073,0.416c-0.094,0.211-0.209,0.382-0.36,0.539c-0.105,0.109-0.23,0.192-0.39,0.261
			c-0.15,0.064-0.309,0.094-0.501,0.094h-9.609v-13.37h9.609c0.194,0,0.348,0.029,0.499,0.094c0.185,0.079,0.33,0.174,0.444,0.287
			c0.127,0.127,0.225,0.273,0.306,0.453c0.032,0.073,0.075,0.195,0.075,0.422V436.141z"/>
	</g>
</g>
<g>
	<path d="M1067.845,265.063H850.888c-4.412,0-8.021,3.61-8.021,8.021v216.957c0,4.412,3.61,8.021,8.021,8.021h89.484l15.423,31.015
		c1.964,3.95,5.17,3.946,7.123-0.01l15.312-31.005h89.615c4.412,0,8.021-3.61,8.021-8.021V273.084
		C1075.867,268.673,1072.257,265.063,1067.845,265.063z"/>
	<g>
		<path fill="#00BCFF" d="M896.33,303.739h-21.822c-1.416,0-2.757,0.532-3.777,1.501c-1.075,1.022-1.667,2.433-1.667,3.971
			c0,1.507,0.594,2.9,1.663,3.911c1.018,0.971,2.361,1.506,3.782,1.506h5.44v29.915c0,1.459,0.567,2.829,1.589,3.847
			c1.027,1.03,2.396,1.597,3.856,1.597c1.456,0,2.824-0.566,3.852-1.593c1.027-1.027,1.593-2.395,1.593-3.851v-29.915h5.494
			c1.418,0,2.759-0.533,3.775-1.499c1.077-1.022,1.67-2.414,1.67-3.918c0-1.535-0.591-2.944-1.674-3.978
			C899.082,304.27,897.743,303.739,896.33,303.739z"/>
		<path fill="#00BCFF" d="M932.299,303.739c-1.446,0-2.809,0.554-3.843,1.564c-1.051,1.03-1.629,2.409-1.629,3.88v12.208h-10.933
			v-12.208c0-1.412-0.53-2.75-1.505-3.782c-1.023-1.072-2.432-1.663-3.967-1.663c-1.504,0-2.896,0.593-3.917,1.67
			c-0.967,1.018-1.499,2.358-1.499,3.775v35.305c0,1.421,0.535,2.764,1.495,3.77c1.022,1.079,2.415,1.674,3.922,1.674
			c1.539,0,2.949-0.592,3.974-1.67c0.966-1.018,1.498-2.358,1.498-3.775v-12.208h10.933v12.208c0,1.476,0.581,2.857,1.629,3.88
			c1.029,1.009,2.394,1.564,3.843,1.564c1.504,0,2.895-0.593,3.918-1.67c0.966-1.018,1.499-2.358,1.499-3.775v-35.305
			c0-1.412-0.53-2.75-1.503-3.779C935.19,304.331,933.8,303.739,932.299,303.739z"/>
		<path fill="#00BCFF" d="M969.956,314.628c1.513,0,2.909-0.604,3.929-1.702c0.943-1.013,1.461-2.343,1.461-3.743
			c0-1.396-0.517-2.722-1.466-3.748c-1.02-1.094-2.414-1.697-3.925-1.697h-21.904c-1.504,0-2.896,0.593-3.917,1.67
			c-0.967,1.018-1.499,2.358-1.499,3.775v35.305c0,1.421,0.535,2.764,1.495,3.77c1.022,1.079,2.415,1.674,3.922,1.674h21.904
			c1.513,0,2.909-0.604,3.929-1.702c0.943-1.013,1.461-2.343,1.461-3.743c0-1.397-0.517-2.725-1.466-3.748
			c-1.02-1.094-2.414-1.697-3.925-1.697h-16.432v-6.764h16.432c1.513,0,2.909-0.604,3.929-1.702
			c0.942-1.013,1.461-2.343,1.461-3.743c0-1.396-0.517-2.722-1.466-3.748c-1.021-1.094-2.414-1.697-3.925-1.697h-16.432v-6.764
			H969.956z"/>
	</g>
	<g>
		<path fill="#FFFFFF" d="M880.028,370.404c0.093-0.208,0.207-0.38,0.36-0.538c0.116-0.12,0.246-0.21,0.406-0.281
			c0.073-0.032,0.197-0.076,0.428-0.076h15.108c1.418,0,2.759-0.533,3.772-1.497c1.079-1.022,1.672-2.414,1.672-3.92
			c0-1.537-0.591-2.946-1.672-3.975c-1.018-0.965-2.358-1.497-3.772-1.497h-15.108c-1.64,0-3.225,0.322-4.715,0.958
			c-1.445,0.617-2.737,1.478-3.843,2.56c-1.131,1.106-2.022,2.417-2.649,3.894c-0.632,1.488-0.953,3.092-0.953,4.769v4.182
			c0,1.678,0.321,3.283,0.952,4.768c0.621,1.463,1.5,2.77,2.614,3.887c1.113,1.115,2.417,1.997,3.879,2.622
			c1.488,0.635,3.074,0.958,4.742,0.958l8.312-0.054c0.251,0,0.404,0.053,0.488,0.089c0.22,0.096,0.333,0.197,0.399,0.266
			c0.153,0.159,0.269,0.332,0.36,0.537c0.033,0.075,0.077,0.201,0.077,0.431v4.17c0,0.19-0.03,0.347-0.092,0.492
			c-0.083,0.19-0.175,0.333-0.292,0.449c-0.115,0.115-0.262,0.21-0.447,0.291c-0.148,0.064-0.3,0.093-0.493,0.093h-15.054
			c-1.457,0-2.825,0.566-3.852,1.592c-1.027,1.027-1.593,2.395-1.593,3.852c0,1.459,0.567,2.829,1.589,3.847
			c1.027,1.03,2.396,1.598,3.856,1.598h15.054c1.676,0,3.279-0.321,4.764-0.954c1.475-0.628,2.783-1.52,3.889-2.653
			c1.063-1.09,1.922-2.362,2.554-3.784c0.668-1.504,1.006-3.126,1.006-4.823v-4.17c0-1.697-0.338-3.32-1.007-4.823
			c-0.637-1.435-1.508-2.71-2.592-3.796c-1.096-1.094-2.391-1.965-3.851-2.587c-1.486-0.632-3.089-0.953-4.763-0.953h-8.339
			c-0.231,0-0.354-0.043-0.429-0.076c-0.185-0.082-0.33-0.18-0.458-0.307c-0.117-0.117-0.209-0.259-0.293-0.452
			c-0.039-0.09-0.091-0.238-0.091-0.489v-4.17C879.952,370.602,879.995,370.48,880.028,370.404z"/>
		<path fill="#FFFFFF" d="M932.272,358.62H910.45c-1.418,0-2.759,0.533-3.775,1.499c-1.077,1.022-1.67,2.433-1.67,3.973
			c0,1.509,0.596,2.902,1.663,3.911c1.018,0.971,2.361,1.506,3.782,1.506h5.44v29.915c0,1.459,0.567,2.829,1.589,3.847
			c1.027,1.03,2.396,1.598,3.856,1.598c1.456,0,2.824-0.566,3.852-1.593c1.027-1.027,1.593-2.395,1.593-3.852v-29.915h5.494
			c1.418,0,2.759-0.533,3.772-1.497c1.079-1.022,1.672-2.414,1.672-3.92c0-1.537-0.591-2.946-1.672-3.975
			C935.026,359.151,933.687,358.62,932.272,358.62z"/>
		<path fill="#FFFFFF" d="M970.169,362.16c-1.096-1.094-2.391-1.965-3.853-2.588c-1.488-0.631-3.089-0.952-4.761-0.952h-8.339
			c-1.672,0-3.274,0.32-4.766,0.954c-1.46,0.622-2.756,1.493-3.851,2.588c-1.097,1.097-1.968,2.393-2.588,3.852
			c-0.633,1.486-0.954,3.089-0.954,4.765v28.591c0,1.403,0.52,2.734,1.457,3.738c1.02,1.101,2.417,1.707,3.934,1.707
			c1.548,0,2.963-0.604,3.983-1.702c0.942-1.014,1.461-2.343,1.461-3.743v-5.493h10.987v5.493c0,1.403,0.52,2.734,1.457,3.738
			c1.02,1.101,2.436,1.707,3.988,1.707c1.512,0,2.906-0.603,3.929-1.702c0.942-1.013,1.461-2.343,1.461-3.743v-28.591
			c0-1.673-0.321-3.276-0.954-4.764C972.138,364.555,971.268,363.26,970.169,362.16z M951.891,370.778
			c0-0.231,0.043-0.353,0.077-0.431c0.092-0.207,0.206-0.377,0.359-0.536c0.106-0.109,0.232-0.194,0.394-0.264
			c0.092-0.04,0.242-0.092,0.494-0.092h8.339c0.251,0,0.402,0.053,0.49,0.091c0.166,0.072,0.292,0.156,0.397,0.264
			c0.153,0.159,0.269,0.332,0.36,0.537c0.033,0.075,0.077,0.201,0.077,0.431v12.263h-10.987V370.778z"/>
		<path fill="#FFFFFF" d="M1006.201,358.62c-1.456,0-2.825,0.566-3.854,1.595c-1.026,1.027-1.591,2.394-1.591,3.849v16.218
			l-11.745-19.007c-0.592-0.995-1.458-1.758-2.519-2.214c-0.668-0.285-1.375-0.43-2.101-0.43c-0.003,0-0.006,0-0.009,0l-2.849,0.798
			c-0.561,0.342-1.057,0.788-1.469,1.323c-0.739,0.961-1.13,2.106-1.13,3.311v35.359c0,1.517,0.606,2.914,1.697,3.924
			c1.013,0.946,2.345,1.466,3.748,1.466c1.4,0,2.729-0.519,3.743-1.461c1.097-1.02,1.702-2.416,1.702-3.929v-16.217l11.729,18.981
			c0.952,1.64,2.665,2.617,4.618,2.627l2.876-0.729c0.639-0.384,1.192-0.899,1.618-1.517c0.641-0.927,0.981-2.014,0.981-3.145
			v-35.359c0-1.452-0.563-2.817-1.597-3.856C1009.021,359.184,1007.654,358.62,1006.201,358.62z"/>
		<path fill="#FFFFFF" d="M1048.664,366.008c-0.638-1.435-1.509-2.71-2.592-3.794c-1.082-1.08-2.357-1.951-3.79-2.587
			c-1.503-0.668-3.126-1.007-4.824-1.007h-15.054c-1.457,0-2.825,0.566-3.854,1.595c-1.026,1.027-1.591,2.394-1.591,3.849v35.359
			c0,1.517,0.606,2.914,1.697,3.924c1.013,0.946,2.345,1.466,3.748,1.466h15.054c1.676,0,3.279-0.321,4.764-0.954
			c1.459-0.621,2.755-1.492,3.853-2.588c1.079-1.079,1.95-2.355,2.59-3.793c0.668-1.503,1.007-3.126,1.007-4.824v-21.822
			C1049.671,369.136,1049.332,367.513,1048.664,366.008z M1038.782,392.61c0,0.188-0.03,0.344-0.091,0.485
			c-0.082,0.189-0.175,0.331-0.291,0.447c-0.116,0.116-0.257,0.208-0.446,0.289c-0.093,0.04-0.246,0.094-0.497,0.094h-9.609v-24.417
			h9.609c0.191,0,0.349,0.03,0.495,0.093c0.186,0.08,0.332,0.175,0.448,0.29c0.115,0.114,0.21,0.261,0.289,0.443
			c0.063,0.146,0.093,0.301,0.093,0.489V392.61z"/>
	</g>
	<g>
		<path fill="#FFFFFF" d="M896.33,413.193c-1.4,0-2.729,0.519-3.743,1.461c-1.097,1.02-1.701,2.416-1.701,3.929v28.591
			c0,0.19-0.03,0.347-0.092,0.492c-0.083,0.19-0.175,0.332-0.292,0.449c-0.117,0.117-0.259,0.209-0.449,0.292
			c-0.091,0.039-0.241,0.092-0.492,0.092h-8.339c-0.231,0-0.353-0.042-0.429-0.076c-0.185-0.082-0.33-0.18-0.458-0.307
			c-0.117-0.117-0.209-0.259-0.292-0.451c-0.039-0.091-0.091-0.239-0.091-0.49v-28.591c0-1.51-0.603-2.904-1.706-3.934
			c-1.014-0.939-2.341-1.457-3.738-1.457c-1.4,0-2.729,0.519-3.743,1.461c-1.097,1.02-1.701,2.416-1.701,3.929v28.591
			c0,1.675,0.321,3.278,0.954,4.764c0.622,1.461,1.502,2.767,2.615,3.879c1.114,1.114,2.419,1.995,3.88,2.616
			c1.487,0.633,3.071,0.954,4.711,0.954h8.339c1.675,0,3.278-0.321,4.764-0.954c1.474-0.628,2.782-1.519,3.889-2.652
			c1.062-1.089,1.921-2.362,2.554-3.784c0.668-1.504,1.006-3.126,1.006-4.823v-28.591c0-1.51-0.603-2.904-1.706-3.934
			C899.054,413.71,897.727,413.193,896.33,413.193z"/>
		<path fill="#FFFFFF" d="M936.127,416.796c-1.104-1.129-2.411-2.02-3.888-2.65c-1.488-0.632-3.09-0.953-4.762-0.953h-15.054
			c-1.456,0-2.815,0.556-3.824,1.566c-0.917,0.917-1.47,2.099-1.6,3.419l-0.02,0.202v35.563c0,1.459,0.567,2.829,1.588,3.847
			c1.027,1.03,2.397,1.598,3.856,1.598c1.456,0,2.824-0.566,3.852-1.593c1.027-1.027,1.593-2.395,1.593-3.852v-5.602h9.609
			c1.675,0,3.278-0.321,4.764-0.954c1.459-0.621,2.755-1.492,3.853-2.589c1.079-1.079,1.95-2.355,2.59-3.793
			c0.668-1.503,1.007-3.126,1.007-4.823v-10.83c0-1.661-0.338-3.265-1.007-4.771C938.052,419.163,937.194,417.891,936.127,416.796z
			 M928.801,436.141c0,0.226-0.043,0.349-0.073,0.416c-0.094,0.211-0.209,0.382-0.36,0.539c-0.105,0.109-0.23,0.192-0.39,0.261
			c-0.15,0.064-0.309,0.094-0.501,0.094h-9.609v-13.37h9.609c0.194,0,0.348,0.029,0.499,0.094c0.185,0.079,0.33,0.174,0.444,0.287
			c0.127,0.127,0.225,0.273,0.306,0.453c0.032,0.073,0.075,0.195,0.075,0.422V436.141z"/>
	</g>
</g>
<g>
	<path d="M1398.678,265.063H1181.72c-4.412,0-8.021,3.61-8.021,8.021v216.957c0,4.412,3.61,8.021,8.021,8.021h89.484l15.423,31.015
		c1.964,3.95,5.17,3.946,7.123-0.01l15.312-31.005h89.615c4.412,0,8.021-3.61,8.021-8.021V273.084
		C1406.699,268.673,1403.089,265.063,1398.678,265.063z"/>
	<g>
		<path fill="#EB2B9C" d="M1227.162,303.739h-21.822c-1.416,0-2.757,0.532-3.778,1.501c-1.075,1.022-1.667,2.433-1.667,3.971
			c0,1.507,0.594,2.9,1.663,3.911c1.018,0.971,2.361,1.506,3.782,1.506h5.44v29.915c0,1.459,0.567,2.829,1.589,3.847
			c1.027,1.03,2.396,1.597,3.856,1.597c1.456,0,2.824-0.566,3.852-1.593c1.027-1.027,1.593-2.395,1.593-3.851v-29.915h5.494
			c1.418,0,2.759-0.533,3.775-1.499c1.077-1.022,1.67-2.414,1.67-3.918c0-1.535-0.591-2.944-1.674-3.978
			C1229.914,304.27,1228.575,303.739,1227.162,303.739z"/>
		<path fill="#EB2B9C" d="M1263.132,303.739c-1.446,0-2.809,0.554-3.843,1.564c-1.051,1.03-1.63,2.409-1.63,3.88v12.208h-10.933
			v-12.208c0-1.412-0.53-2.75-1.505-3.782c-1.023-1.072-2.432-1.663-3.967-1.663c-1.504,0-2.895,0.593-3.917,1.67
			c-0.967,1.018-1.499,2.358-1.499,3.775v35.305c0,1.421,0.535,2.764,1.495,3.77c1.022,1.079,2.415,1.674,3.922,1.674
			c1.539,0,2.949-0.592,3.974-1.67c0.966-1.018,1.498-2.358,1.498-3.775v-12.208h10.933v12.208c0,1.476,0.581,2.857,1.63,3.88
			c1.029,1.009,2.394,1.564,3.843,1.564c1.504,0,2.895-0.593,3.918-1.67c0.966-1.018,1.499-2.358,1.499-3.775v-35.305
			c0-1.412-0.53-2.75-1.503-3.779C1266.022,304.331,1264.632,303.739,1263.132,303.739z"/>
		<path fill="#EB2B9C" d="M1300.788,314.628c1.513,0,2.909-0.604,3.929-1.702c0.943-1.013,1.461-2.343,1.461-3.743
			c0-1.396-0.517-2.722-1.466-3.748c-1.02-1.094-2.414-1.697-3.925-1.697h-21.904c-1.504,0-2.896,0.593-3.917,1.67
			c-0.967,1.018-1.499,2.358-1.499,3.775v35.305c0,1.421,0.535,2.764,1.495,3.77c1.022,1.079,2.415,1.674,3.922,1.674h21.904
			c1.513,0,2.909-0.604,3.929-1.702c0.943-1.013,1.461-2.343,1.461-3.743c0-1.397-0.517-2.725-1.466-3.748
			c-1.02-1.094-2.414-1.697-3.925-1.697h-16.432v-6.764h16.432c1.513,0,2.909-0.604,3.929-1.702
			c0.942-1.013,1.461-2.343,1.461-3.743c0-1.396-0.517-2.722-1.466-3.748c-1.021-1.094-2.414-1.697-3.925-1.697h-16.432v-6.764
			H1300.788z"/>
	</g>
	<g>
		<path fill="#FFFFFF" d="M1210.86,370.404c0.093-0.208,0.207-0.38,0.36-0.538c0.116-0.12,0.245-0.21,0.406-0.281
			c0.073-0.032,0.197-0.076,0.428-0.076h15.108c1.418,0,2.759-0.533,3.772-1.497c1.079-1.022,1.672-2.414,1.672-3.92
			c0-1.537-0.591-2.946-1.672-3.975c-1.018-0.965-2.358-1.497-3.772-1.497h-15.108c-1.64,0-3.225,0.322-4.715,0.958
			c-1.445,0.617-2.737,1.478-3.843,2.56c-1.131,1.106-2.022,2.417-2.649,3.894c-0.632,1.488-0.953,3.092-0.953,4.769v4.182
			c0,1.678,0.321,3.283,0.952,4.768c0.621,1.463,1.5,2.77,2.614,3.887c1.113,1.115,2.417,1.997,3.879,2.622
			c1.488,0.635,3.074,0.958,4.742,0.958l8.312-0.054c0.251,0,0.404,0.053,0.488,0.089c0.22,0.096,0.333,0.197,0.399,0.266
			c0.153,0.159,0.269,0.332,0.36,0.537c0.033,0.075,0.077,0.201,0.077,0.431v4.17c0,0.19-0.03,0.347-0.092,0.492
			c-0.083,0.19-0.175,0.333-0.292,0.449c-0.115,0.115-0.262,0.21-0.447,0.291c-0.148,0.064-0.3,0.093-0.493,0.093h-15.054
			c-1.457,0-2.825,0.566-3.852,1.592c-1.027,1.027-1.593,2.395-1.593,3.852c0,1.459,0.568,2.829,1.589,3.847
			c1.027,1.03,2.396,1.598,3.856,1.598h15.054c1.676,0,3.279-0.321,4.764-0.954c1.475-0.628,2.783-1.52,3.889-2.653
			c1.063-1.09,1.922-2.362,2.554-3.784c0.668-1.504,1.006-3.126,1.006-4.823v-4.17c0-1.697-0.339-3.32-1.006-4.823
			c-0.637-1.435-1.508-2.71-2.592-3.796c-1.096-1.094-2.391-1.965-3.851-2.587c-1.486-0.632-3.089-0.953-4.763-0.953h-8.339
			c-0.231,0-0.354-0.043-0.429-0.076c-0.185-0.082-0.33-0.18-0.458-0.307c-0.117-0.117-0.209-0.259-0.293-0.452
			c-0.039-0.09-0.091-0.238-0.091-0.489v-4.17C1210.784,370.602,1210.827,370.48,1210.86,370.404z"/>
		<path fill="#FFFFFF" d="M1263.104,358.62h-21.822c-1.418,0-2.759,0.533-3.775,1.499c-1.077,1.022-1.67,2.433-1.67,3.973
			c0,1.509,0.596,2.902,1.663,3.911c1.018,0.971,2.361,1.506,3.782,1.506h5.44v29.915c0,1.459,0.568,2.829,1.589,3.847
			c1.027,1.03,2.396,1.598,3.856,1.598c1.456,0,2.824-0.566,3.852-1.593c1.027-1.027,1.593-2.395,1.593-3.852v-29.915h5.494
			c1.418,0,2.759-0.533,3.772-1.497c1.079-1.022,1.672-2.414,1.672-3.92c0-1.537-0.591-2.946-1.672-3.975
			C1265.858,359.151,1264.519,358.62,1263.104,358.62z"/>
		<path fill="#FFFFFF" d="M1301.001,362.16c-1.096-1.094-2.391-1.965-3.853-2.588c-1.488-0.631-3.089-0.952-4.761-0.952h-8.339
			c-1.672,0-3.274,0.32-4.766,0.954c-1.46,0.622-2.755,1.493-3.851,2.588c-1.097,1.097-1.968,2.393-2.588,3.852
			c-0.633,1.486-0.954,3.089-0.954,4.765v28.591c0,1.403,0.52,2.734,1.457,3.738c1.02,1.101,2.417,1.707,3.934,1.707
			c1.548,0,2.963-0.604,3.983-1.702c0.942-1.014,1.461-2.343,1.461-3.743v-5.493h10.987v5.493c0,1.403,0.521,2.734,1.457,3.738
			c1.02,1.101,2.436,1.707,3.988,1.707c1.511,0,2.906-0.603,3.929-1.702c0.942-1.013,1.461-2.343,1.461-3.743v-28.591
			c0-1.673-0.321-3.276-0.954-4.764C1302.97,364.555,1302.1,363.26,1301.001,362.16z M1282.723,370.778
			c0-0.231,0.043-0.353,0.077-0.431c0.092-0.207,0.206-0.377,0.359-0.536c0.106-0.109,0.232-0.194,0.394-0.264
			c0.092-0.04,0.242-0.092,0.494-0.092h8.339c0.25,0,0.402,0.053,0.49,0.091c0.166,0.072,0.292,0.156,0.397,0.264
			c0.153,0.159,0.269,0.332,0.36,0.537c0.033,0.075,0.077,0.201,0.077,0.431v12.263h-10.987V370.778z"/>
		<path fill="#FFFFFF" d="M1337.033,358.62c-1.456,0-2.825,0.566-3.854,1.595c-1.026,1.027-1.591,2.394-1.591,3.849v16.218
			l-11.745-19.007c-0.592-0.995-1.458-1.758-2.519-2.214c-0.668-0.285-1.375-0.43-2.101-0.43c-0.003,0-0.006,0-0.009,0l-2.849,0.798
			c-0.561,0.342-1.057,0.788-1.47,1.323c-0.739,0.961-1.13,2.106-1.13,3.311v35.359c0,1.517,0.606,2.914,1.697,3.924
			c1.013,0.946,2.345,1.466,3.748,1.466c1.4,0,2.729-0.519,3.743-1.461c1.097-1.02,1.702-2.416,1.702-3.929v-16.217l11.729,18.981
			c0.952,1.64,2.665,2.617,4.618,2.627l2.876-0.729c0.639-0.384,1.192-0.899,1.618-1.517c0.641-0.927,0.981-2.014,0.981-3.145
			v-35.359c0-1.452-0.563-2.817-1.597-3.856C1339.853,359.184,1338.487,358.62,1337.033,358.62z"/>
		<path fill="#FFFFFF" d="M1379.496,366.008c-0.638-1.435-1.509-2.71-2.592-3.794c-1.082-1.08-2.357-1.951-3.79-2.587
			c-1.503-0.668-3.126-1.007-4.824-1.007h-15.054c-1.457,0-2.824,0.566-3.854,1.595c-1.026,1.027-1.591,2.394-1.591,3.849v35.359
			c0,1.517,0.606,2.914,1.697,3.924c1.014,0.946,2.345,1.466,3.748,1.466h15.054c1.676,0,3.279-0.321,4.764-0.954
			c1.459-0.621,2.755-1.492,3.853-2.588c1.079-1.079,1.95-2.355,2.59-3.793c0.668-1.503,1.007-3.126,1.007-4.824v-21.822
			C1380.503,369.136,1380.164,367.513,1379.496,366.008z M1369.614,392.61c0,0.188-0.03,0.344-0.091,0.485
			c-0.082,0.189-0.175,0.331-0.291,0.447c-0.116,0.116-0.257,0.208-0.446,0.289c-0.093,0.04-0.246,0.094-0.497,0.094h-9.609v-24.417
			h9.609c0.191,0,0.349,0.03,0.495,0.093c0.186,0.08,0.332,0.175,0.448,0.29c0.115,0.114,0.21,0.261,0.289,0.443
			c0.063,0.146,0.093,0.301,0.093,0.489V392.61z"/>
	</g>
	<g>
		<path fill="#FFFFFF" d="M1227.162,413.193c-1.4,0-2.729,0.519-3.743,1.461c-1.097,1.02-1.701,2.416-1.701,3.929v28.591
			c0,0.19-0.03,0.347-0.092,0.492c-0.083,0.19-0.175,0.332-0.292,0.449c-0.117,0.117-0.259,0.209-0.449,0.292
			c-0.091,0.039-0.241,0.092-0.491,0.092h-8.339c-0.231,0-0.353-0.042-0.429-0.076c-0.185-0.082-0.33-0.18-0.458-0.307
			c-0.117-0.117-0.209-0.259-0.292-0.451c-0.039-0.091-0.091-0.239-0.091-0.49v-28.591c0-1.51-0.603-2.904-1.706-3.934
			c-1.014-0.939-2.341-1.457-3.738-1.457c-1.4,0-2.729,0.519-3.743,1.461c-1.097,1.02-1.701,2.416-1.701,3.929v28.591
			c0,1.675,0.321,3.278,0.954,4.764c0.622,1.461,1.502,2.767,2.615,3.879c1.114,1.114,2.419,1.995,3.88,2.616
			c1.486,0.633,3.071,0.954,4.711,0.954h8.339c1.675,0,3.278-0.321,4.764-0.954c1.475-0.628,2.783-1.519,3.889-2.652
			c1.062-1.089,1.921-2.362,2.554-3.784c0.668-1.504,1.006-3.126,1.006-4.823v-28.591c0-1.51-0.603-2.904-1.706-3.934
			C1229.886,413.71,1228.559,413.193,1227.162,413.193z"/>
		<path fill="#FFFFFF" d="M1266.959,416.796c-1.104-1.129-2.411-2.02-3.888-2.65c-1.488-0.632-3.09-0.953-4.762-0.953h-15.054
			c-1.456,0-2.815,0.556-3.825,1.566c-0.917,0.917-1.47,2.099-1.6,3.419l-0.02,0.202v35.563c0,1.459,0.568,2.829,1.588,3.847
			c1.027,1.03,2.397,1.598,3.856,1.598c1.456,0,2.824-0.566,3.851-1.593c1.027-1.027,1.593-2.395,1.593-3.852v-5.602h9.609
			c1.675,0,3.278-0.321,4.764-0.954c1.459-0.621,2.755-1.492,3.853-2.589c1.079-1.079,1.95-2.355,2.59-3.793
			c0.668-1.503,1.006-3.126,1.006-4.823v-10.83c0-1.661-0.339-3.265-1.007-4.771
			C1268.885,419.163,1268.026,417.891,1266.959,416.796z M1259.634,436.141c0,0.226-0.043,0.349-0.073,0.416
			c-0.094,0.211-0.209,0.382-0.36,0.539c-0.105,0.109-0.23,0.192-0.39,0.261c-0.15,0.064-0.309,0.094-0.501,0.094h-9.609v-13.37
			h9.609c0.193,0,0.348,0.029,0.499,0.094c0.185,0.079,0.33,0.174,0.444,0.287c0.127,0.127,0.225,0.273,0.306,0.453
			c0.032,0.073,0.075,0.195,0.075,0.422V436.141z"/>
	</g>
</g>
<g>
	<path d="M1729.51,265.063h-216.957c-4.412,0-8.021,3.61-8.021,8.021v216.957c0,4.412,3.61,8.021,8.021,8.021h89.484l15.423,31.015
		c1.964,3.95,5.17,3.946,7.123-0.01l15.312-31.005h89.615c4.412,0,8.021-3.61,8.021-8.021V273.084
		C1737.531,268.673,1733.922,265.063,1729.51,265.063z"/>
	<g>
		<path fill="#FF9600" d="M1557.994,303.739h-21.822c-1.416,0-2.757,0.532-3.778,1.501c-1.075,1.022-1.667,2.433-1.667,3.971
			c0,1.507,0.594,2.9,1.663,3.911c1.018,0.971,2.361,1.506,3.782,1.506h5.44v29.915c0,1.459,0.567,2.829,1.589,3.847
			c1.027,1.03,2.396,1.597,3.856,1.597c1.456,0,2.824-0.566,3.852-1.593c1.027-1.027,1.593-2.395,1.593-3.851v-29.915h5.494
			c1.418,0,2.759-0.533,3.775-1.499c1.077-1.022,1.67-2.414,1.67-3.918c0-1.535-0.591-2.944-1.674-3.978
			C1560.746,304.27,1559.407,303.739,1557.994,303.739z"/>
		<path fill="#FF9600" d="M1593.964,303.739c-1.446,0-2.809,0.554-3.843,1.564c-1.051,1.03-1.63,2.409-1.63,3.88v12.208h-10.933
			v-12.208c0-1.412-0.53-2.75-1.505-3.782c-1.023-1.072-2.432-1.663-3.967-1.663c-1.504,0-2.895,0.593-3.917,1.67
			c-0.967,1.018-1.499,2.358-1.499,3.775v35.305c0,1.421,0.535,2.764,1.495,3.77c1.022,1.079,2.415,1.674,3.922,1.674
			c1.539,0,2.949-0.592,3.974-1.67c0.966-1.018,1.498-2.358,1.498-3.775v-12.208h10.933v12.208c0,1.476,0.581,2.857,1.63,3.88
			c1.029,1.009,2.394,1.564,3.843,1.564c1.504,0,2.895-0.593,3.918-1.67c0.966-1.018,1.499-2.358,1.499-3.775v-35.305
			c0-1.412-0.53-2.75-1.503-3.779C1596.854,304.331,1595.465,303.739,1593.964,303.739z"/>
		<path fill="#FF9600" d="M1631.621,314.628c1.513,0,2.909-0.604,3.929-1.702c0.943-1.013,1.461-2.343,1.461-3.743
			c0-1.396-0.517-2.722-1.466-3.748c-1.02-1.094-2.414-1.697-3.925-1.697h-21.904c-1.504,0-2.896,0.593-3.917,1.67
			c-0.967,1.018-1.499,2.358-1.499,3.775v35.305c0,1.421,0.535,2.764,1.495,3.77c1.022,1.079,2.415,1.674,3.922,1.674h21.904
			c1.513,0,2.909-0.604,3.929-1.702c0.943-1.013,1.461-2.343,1.461-3.743c0-1.397-0.517-2.725-1.466-3.748
			c-1.02-1.094-2.414-1.697-3.925-1.697h-16.432v-6.764h16.432c1.513,0,2.909-0.604,3.929-1.702
			c0.942-1.013,1.461-2.343,1.461-3.743c0-1.396-0.517-2.722-1.466-3.748c-1.021-1.094-2.414-1.697-3.925-1.697h-16.432v-6.764
			H1631.621z"/>
	</g>
	<g>
		<path fill="#FFFFFF" d="M1541.693,370.404c0.093-0.208,0.207-0.38,0.36-0.538c0.116-0.12,0.245-0.21,0.406-0.281
			c0.073-0.032,0.197-0.076,0.428-0.076h15.108c1.418,0,2.759-0.533,3.772-1.497c1.079-1.022,1.672-2.414,1.672-3.92
			c0-1.537-0.591-2.946-1.672-3.975c-1.018-0.965-2.358-1.497-3.772-1.497h-15.108c-1.64,0-3.225,0.322-4.715,0.958
			c-1.445,0.617-2.737,1.478-3.843,2.56c-1.131,1.106-2.022,2.417-2.649,3.894c-0.632,1.488-0.953,3.092-0.953,4.769v4.182
			c0,1.678,0.321,3.283,0.952,4.768c0.621,1.463,1.5,2.77,2.614,3.887c1.113,1.115,2.417,1.997,3.879,2.622
			c1.488,0.635,3.074,0.958,4.742,0.958l8.312-0.054c0.251,0,0.404,0.053,0.488,0.089c0.22,0.096,0.333,0.197,0.399,0.266
			c0.153,0.159,0.269,0.332,0.36,0.537c0.033,0.075,0.077,0.201,0.077,0.431v4.17c0,0.19-0.03,0.347-0.092,0.492
			c-0.083,0.19-0.175,0.333-0.292,0.449c-0.115,0.115-0.262,0.21-0.447,0.291c-0.148,0.064-0.3,0.093-0.493,0.093h-15.054
			c-1.457,0-2.825,0.566-3.852,1.592c-1.027,1.027-1.593,2.395-1.593,3.852c0,1.459,0.568,2.829,1.589,3.847
			c1.027,1.03,2.396,1.598,3.856,1.598h15.054c1.676,0,3.279-0.321,4.764-0.954c1.475-0.628,2.783-1.52,3.889-2.653
			c1.063-1.09,1.922-2.362,2.554-3.784c0.668-1.504,1.006-3.126,1.006-4.823v-4.17c0-1.697-0.339-3.32-1.006-4.823
			c-0.637-1.435-1.508-2.71-2.592-3.796c-1.096-1.094-2.391-1.965-3.851-2.587c-1.486-0.632-3.089-0.953-4.763-0.953h-8.339
			c-0.231,0-0.354-0.043-0.429-0.076c-0.185-0.082-0.33-0.18-0.458-0.307c-0.117-0.117-0.209-0.259-0.293-0.452
			c-0.039-0.09-0.091-0.238-0.091-0.489v-4.17C1541.616,370.602,1541.659,370.48,1541.693,370.404z"/>
		<path fill="#FFFFFF" d="M1593.936,358.62h-21.822c-1.418,0-2.759,0.533-3.775,1.499c-1.077,1.022-1.67,2.433-1.67,3.973
			c0,1.509,0.596,2.902,1.663,3.911c1.018,0.971,2.361,1.506,3.782,1.506h5.44v29.915c0,1.459,0.568,2.829,1.589,3.847
			c1.027,1.03,2.396,1.598,3.856,1.598c1.456,0,2.824-0.566,3.852-1.593c1.027-1.027,1.593-2.395,1.593-3.852v-29.915h5.494
			c1.418,0,2.759-0.533,3.772-1.497c1.079-1.022,1.672-2.414,1.672-3.92c0-1.537-0.591-2.946-1.672-3.975
			C1596.691,359.151,1595.351,358.62,1593.936,358.62z"/>
		<path fill="#FFFFFF" d="M1631.833,362.16c-1.096-1.094-2.391-1.965-3.853-2.588c-1.488-0.631-3.089-0.952-4.761-0.952h-8.339
			c-1.672,0-3.274,0.32-4.766,0.954c-1.46,0.622-2.755,1.493-3.851,2.588c-1.097,1.097-1.968,2.393-2.588,3.852
			c-0.633,1.486-0.954,3.089-0.954,4.765v28.591c0,1.403,0.52,2.734,1.457,3.738c1.02,1.101,2.417,1.707,3.934,1.707
			c1.548,0,2.963-0.604,3.983-1.702c0.942-1.014,1.461-2.343,1.461-3.743v-5.493h10.987v5.493c0,1.403,0.521,2.734,1.457,3.738
			c1.02,1.101,2.436,1.707,3.988,1.707c1.511,0,2.906-0.603,3.929-1.702c0.942-1.013,1.461-2.343,1.461-3.743v-28.591
			c0-1.673-0.321-3.276-0.954-4.764C1633.802,364.555,1632.932,363.26,1631.833,362.16z M1613.556,370.778
			c0-0.231,0.043-0.353,0.077-0.431c0.092-0.207,0.206-0.377,0.359-0.536c0.106-0.109,0.232-0.194,0.394-0.264
			c0.092-0.04,0.242-0.092,0.494-0.092h8.339c0.25,0,0.402,0.053,0.49,0.091c0.166,0.072,0.292,0.156,0.397,0.264
			c0.153,0.159,0.269,0.332,0.36,0.537c0.033,0.075,0.077,0.201,0.077,0.431v12.263h-10.987V370.778z"/>
		<path fill="#FFFFFF" d="M1667.866,358.62c-1.456,0-2.825,0.566-3.854,1.595c-1.026,1.027-1.591,2.394-1.591,3.849v16.218
			l-11.745-19.007c-0.592-0.995-1.458-1.758-2.519-2.214c-0.668-0.285-1.375-0.43-2.101-0.43c-0.003,0-0.006,0-0.009,0l-2.849,0.798
			c-0.561,0.342-1.057,0.788-1.47,1.323c-0.739,0.961-1.13,2.106-1.13,3.311v35.359c0,1.517,0.606,2.914,1.697,3.924
			c1.013,0.946,2.345,1.466,3.748,1.466c1.4,0,2.729-0.519,3.743-1.461c1.097-1.02,1.702-2.416,1.702-3.929v-16.217l11.729,18.981
			c0.952,1.64,2.665,2.617,4.618,2.627l2.876-0.729c0.639-0.384,1.192-0.899,1.618-1.517c0.641-0.927,0.981-2.014,0.981-3.145
			v-35.359c0-1.452-0.563-2.817-1.597-3.856C1670.685,359.184,1669.319,358.62,1667.866,358.62z"/>
		<path fill="#FFFFFF" d="M1710.328,366.008c-0.638-1.435-1.509-2.71-2.592-3.794c-1.082-1.08-2.357-1.951-3.79-2.587
			c-1.503-0.668-3.126-1.007-4.824-1.007h-15.054c-1.457,0-2.824,0.566-3.854,1.595c-1.026,1.027-1.591,2.394-1.591,3.849v35.359
			c0,1.517,0.606,2.914,1.697,3.924c1.014,0.946,2.345,1.466,3.748,1.466h15.054c1.676,0,3.279-0.321,4.764-0.954
			c1.459-0.621,2.755-1.492,3.853-2.588c1.079-1.079,1.95-2.355,2.59-3.793c0.668-1.503,1.007-3.126,1.007-4.824v-21.822
			C1711.335,369.136,1710.997,367.513,1710.328,366.008z M1700.446,392.61c0,0.188-0.03,0.344-0.091,0.485
			c-0.082,0.189-0.175,0.331-0.291,0.447c-0.116,0.116-0.257,0.208-0.446,0.289c-0.093,0.04-0.246,0.094-0.497,0.094h-9.609v-24.417
			h9.609c0.191,0,0.349,0.03,0.495,0.093c0.186,0.08,0.332,0.175,0.448,0.29c0.115,0.114,0.21,0.261,0.289,0.443
			c0.063,0.146,0.093,0.301,0.093,0.489V392.61z"/>
	</g>
	<g>
		<path fill="#FFFFFF" d="M1557.994,413.193c-1.4,0-2.729,0.519-3.743,1.461c-1.097,1.02-1.701,2.416-1.701,3.929v28.591
			c0,0.19-0.03,0.347-0.092,0.492c-0.083,0.19-0.175,0.332-0.292,0.449c-0.117,0.117-0.259,0.209-0.449,0.292
			c-0.091,0.039-0.241,0.092-0.491,0.092h-8.339c-0.231,0-0.353-0.042-0.429-0.076c-0.185-0.082-0.33-0.18-0.458-0.307
			c-0.117-0.117-0.209-0.259-0.292-0.451c-0.039-0.091-0.091-0.239-0.091-0.49v-28.591c0-1.51-0.603-2.904-1.706-3.934
			c-1.014-0.939-2.341-1.457-3.738-1.457c-1.4,0-2.729,0.519-3.743,1.461c-1.097,1.02-1.701,2.416-1.701,3.929v28.591
			c0,1.675,0.321,3.278,0.954,4.764c0.622,1.461,1.502,2.767,2.615,3.879c1.114,1.114,2.419,1.995,3.88,2.616
			c1.486,0.633,3.071,0.954,4.711,0.954h8.339c1.675,0,3.278-0.321,4.764-0.954c1.475-0.628,2.783-1.519,3.889-2.652
			c1.062-1.089,1.921-2.362,2.554-3.784c0.668-1.504,1.006-3.126,1.006-4.823v-28.591c0-1.51-0.603-2.904-1.706-3.934
			C1560.718,413.71,1559.391,413.193,1557.994,413.193z"/>
		<path fill="#FFFFFF" d="M1597.791,416.796c-1.104-1.129-2.411-2.02-3.888-2.65c-1.488-0.632-3.09-0.953-4.762-0.953h-15.054
			c-1.456,0-2.815,0.556-3.825,1.566c-0.917,0.917-1.47,2.099-1.6,3.419l-0.02,0.202v35.563c0,1.459,0.568,2.829,1.588,3.847
			c1.027,1.03,2.397,1.598,3.856,1.598c1.456,0,2.824-0.566,3.851-1.593c1.027-1.027,1.593-2.395,1.593-3.852v-5.602h9.609
			c1.675,0,3.278-0.321,4.764-0.954c1.459-0.621,2.755-1.492,3.853-2.589c1.079-1.079,1.95-2.355,2.59-3.793
			c0.668-1.503,1.006-3.126,1.006-4.823v-10.83c0-1.661-0.339-3.265-1.007-4.771
			C1599.717,419.163,1598.858,417.891,1597.791,416.796z M1590.466,436.141c0,0.226-0.043,0.349-0.073,0.416
			c-0.094,0.211-0.209,0.382-0.36,0.539c-0.105,0.109-0.23,0.192-0.39,0.261c-0.15,0.064-0.309,0.094-0.501,0.094h-9.609v-13.37
			h9.609c0.193,0,0.348,0.029,0.499,0.094c0.185,0.079,0.33,0.174,0.444,0.287c0.127,0.127,0.225,0.273,0.306,0.453
			c0.032,0.073,0.075,0.195,0.075,0.422V436.141z"/>
	</g>
</g>
<g>
	<path d="M737.013,265.063H520.056c-4.412,0-8.021,3.61-8.021,8.021v216.957c0,4.412,3.61,8.021,8.021,8.021h89.484l15.423,31.015
		c1.964,3.95,5.17,3.946,7.123-0.01l15.312-31.005h89.615c4.412,0,8.021-3.61,8.021-8.021V273.084
		C745.034,268.673,741.425,265.063,737.013,265.063z"/>
	<g>
		<path fill="#00DA00" d="M565.497,303.739h-21.822c-1.416,0-2.757,0.532-3.777,1.501c-1.075,1.022-1.667,2.433-1.667,3.971
			c0,1.507,0.594,2.9,1.663,3.911c1.018,0.971,2.361,1.506,3.782,1.506h5.44v29.915c0,1.459,0.567,2.829,1.589,3.847
			c1.027,1.03,2.396,1.597,3.856,1.597c1.456,0,2.824-0.566,3.852-1.593c1.027-1.027,1.593-2.395,1.593-3.851v-29.915h5.494
			c1.418,0,2.759-0.533,3.775-1.499c1.077-1.022,1.67-2.414,1.67-3.918c0-1.535-0.591-2.944-1.674-3.978
			C568.249,304.27,566.911,303.739,565.497,303.739z"/>
		<path fill="#00DA00" d="M601.467,303.739c-1.446,0-2.809,0.554-3.843,1.564c-1.051,1.03-1.629,2.409-1.629,3.88v12.208h-10.933
			v-12.208c0-1.412-0.53-2.75-1.505-3.782c-1.023-1.072-2.432-1.663-3.967-1.663c-1.504,0-2.896,0.593-3.917,1.67
			c-0.967,1.018-1.499,2.358-1.499,3.775v35.305c0,1.421,0.535,2.764,1.495,3.77c1.022,1.079,2.415,1.674,3.922,1.674
			c1.539,0,2.949-0.592,3.974-1.67c0.966-1.018,1.498-2.358,1.498-3.775v-12.208h10.933v12.208c0,1.476,0.581,2.857,1.629,3.88
			c1.029,1.009,2.394,1.564,3.843,1.564c1.504,0,2.895-0.593,3.918-1.67c0.966-1.018,1.499-2.358,1.499-3.775v-35.305
			c0-1.412-0.53-2.75-1.503-3.779C604.358,304.331,602.968,303.739,601.467,303.739z"/>
		<path fill="#00DA00" d="M639.124,314.628c1.513,0,2.909-0.604,3.929-1.702c0.943-1.013,1.461-2.343,1.461-3.743
			c0-1.396-0.517-2.722-1.466-3.748c-1.02-1.094-2.414-1.697-3.925-1.697H617.22c-1.504,0-2.896,0.593-3.917,1.67
			c-0.967,1.018-1.499,2.358-1.499,3.775v35.305c0,1.421,0.535,2.764,1.495,3.77c1.022,1.079,2.415,1.674,3.922,1.674h21.904
			c1.513,0,2.909-0.604,3.929-1.702c0.943-1.013,1.461-2.343,1.461-3.743c0-1.397-0.517-2.725-1.466-3.748
			c-1.02-1.094-2.414-1.697-3.925-1.697h-16.432v-6.764h16.432c1.513,0,2.909-0.604,3.929-1.702
			c0.942-1.013,1.461-2.343,1.461-3.743c0-1.396-0.517-2.722-1.466-3.748c-1.021-1.094-2.414-1.697-3.925-1.697h-16.432v-6.764
			H639.124z"/>
	</g>
	<g>
		<path fill="#FFFFFF" d="M549.196,370.404c0.093-0.208,0.207-0.38,0.36-0.538c0.116-0.12,0.246-0.21,0.406-0.281
			c0.073-0.032,0.197-0.076,0.428-0.076h15.108c1.418,0,2.759-0.533,3.772-1.497c1.079-1.022,1.672-2.414,1.672-3.92
			c0-1.537-0.591-2.946-1.672-3.975c-1.018-0.965-2.358-1.497-3.772-1.497H550.39c-1.64,0-3.225,0.322-4.715,0.958
			c-1.445,0.617-2.737,1.478-3.843,2.56c-1.131,1.106-2.022,2.417-2.649,3.894c-0.632,1.488-0.953,3.092-0.953,4.769v4.182
			c0,1.678,0.321,3.283,0.952,4.768c0.621,1.463,1.5,2.77,2.614,3.887c1.113,1.115,2.417,1.997,3.879,2.622
			c1.488,0.635,3.074,0.958,4.742,0.958l8.312-0.054c0.251,0,0.404,0.053,0.488,0.089c0.22,0.096,0.333,0.197,0.399,0.266
			c0.153,0.159,0.269,0.332,0.36,0.537c0.033,0.075,0.077,0.201,0.077,0.431v4.17c0,0.19-0.03,0.347-0.092,0.492
			c-0.083,0.19-0.175,0.333-0.292,0.449c-0.115,0.115-0.262,0.21-0.447,0.291c-0.148,0.064-0.3,0.093-0.493,0.093h-15.054
			c-1.457,0-2.825,0.566-3.852,1.592c-1.027,1.027-1.593,2.395-1.593,3.852c0,1.459,0.567,2.829,1.589,3.847
			c1.027,1.03,2.396,1.598,3.856,1.598h15.054c1.676,0,3.279-0.321,4.764-0.954c1.475-0.628,2.783-1.52,3.889-2.653
			c1.063-1.09,1.922-2.362,2.554-3.784c0.668-1.504,1.006-3.126,1.006-4.823v-4.17c0-1.697-0.338-3.32-1.007-4.823
			c-0.637-1.435-1.508-2.71-2.592-3.796c-1.096-1.094-2.391-1.965-3.851-2.587c-1.486-0.632-3.089-0.953-4.763-0.953h-8.339
			c-0.231,0-0.354-0.043-0.429-0.076c-0.185-0.082-0.33-0.18-0.458-0.307c-0.117-0.117-0.209-0.259-0.293-0.452
			c-0.039-0.09-0.091-0.238-0.091-0.489v-4.17C549.12,370.602,549.162,370.48,549.196,370.404z"/>
		<path fill="#FFFFFF" d="M601.439,358.62h-21.822c-1.418,0-2.759,0.533-3.775,1.499c-1.077,1.022-1.67,2.433-1.67,3.973
			c0,1.509,0.596,2.902,1.663,3.911c1.018,0.971,2.361,1.506,3.782,1.506h5.44v29.915c0,1.459,0.567,2.829,1.589,3.847
			c1.027,1.03,2.396,1.598,3.856,1.598c1.456,0,2.824-0.566,3.852-1.593c1.027-1.027,1.593-2.395,1.593-3.852v-29.915h5.494
			c1.418,0,2.759-0.533,3.772-1.497c1.079-1.022,1.672-2.414,1.672-3.92c0-1.537-0.591-2.946-1.672-3.975
			C604.194,359.151,602.854,358.62,601.439,358.62z"/>
		<path fill="#FFFFFF" d="M639.336,362.16c-1.096-1.094-2.391-1.965-3.853-2.588c-1.488-0.631-3.089-0.952-4.761-0.952h-8.339
			c-1.672,0-3.274,0.32-4.766,0.954c-1.46,0.622-2.756,1.493-3.851,2.588c-1.097,1.097-1.968,2.393-2.588,3.852
			c-0.633,1.486-0.954,3.089-0.954,4.765v28.591c0,1.403,0.52,2.734,1.457,3.738c1.02,1.101,2.417,1.707,3.934,1.707
			c1.548,0,2.963-0.604,3.983-1.702c0.942-1.014,1.461-2.343,1.461-3.743v-5.493h10.987v5.493c0,1.403,0.52,2.734,1.457,3.738
			c1.02,1.101,2.436,1.707,3.988,1.707c1.512,0,2.906-0.603,3.929-1.702c0.942-1.013,1.461-2.343,1.461-3.743v-28.591
			c0-1.673-0.321-3.276-0.954-4.764C641.306,364.555,640.435,363.26,639.336,362.16z M621.059,370.778
			c0-0.231,0.043-0.353,0.077-0.431c0.092-0.207,0.206-0.377,0.359-0.536c0.106-0.109,0.232-0.194,0.394-0.264
			c0.092-0.04,0.242-0.092,0.494-0.092h8.339c0.251,0,0.402,0.053,0.49,0.091c0.166,0.072,0.292,0.156,0.397,0.264
			c0.153,0.159,0.269,0.332,0.36,0.537c0.033,0.075,0.077,0.201,0.077,0.431v12.263h-10.987V370.778z"/>
		<path fill="#FFFFFF" d="M675.369,358.62c-1.456,0-2.825,0.566-3.854,1.595c-1.026,1.027-1.591,2.394-1.591,3.849v16.218
			l-11.745-19.007c-0.592-0.995-1.458-1.758-2.519-2.214c-0.668-0.285-1.375-0.43-2.101-0.43c-0.003,0-0.006,0-0.009,0l-2.849,0.798
			c-0.561,0.342-1.057,0.788-1.469,1.323c-0.739,0.961-1.13,2.106-1.13,3.311v35.359c0,1.517,0.606,2.914,1.697,3.924
			c1.013,0.946,2.345,1.466,3.748,1.466c1.4,0,2.729-0.519,3.743-1.461c1.097-1.02,1.702-2.416,1.702-3.929v-16.217l11.729,18.981
			c0.952,1.64,2.665,2.617,4.618,2.627l2.876-0.729c0.639-0.384,1.192-0.899,1.618-1.517c0.641-0.927,0.981-2.014,0.981-3.145
			v-35.359c0-1.452-0.563-2.817-1.597-3.856C678.188,359.184,676.822,358.62,675.369,358.62z"/>
		<path fill="#FFFFFF" d="M717.831,366.008c-0.638-1.435-1.509-2.71-2.592-3.794c-1.082-1.08-2.357-1.951-3.79-2.587
			c-1.503-0.668-3.126-1.007-4.824-1.007h-15.054c-1.457,0-2.825,0.566-3.854,1.595c-1.026,1.027-1.591,2.394-1.591,3.849v35.359
			c0,1.517,0.606,2.914,1.697,3.924c1.013,0.946,2.345,1.466,3.748,1.466h15.054c1.676,0,3.279-0.321,4.764-0.954
			c1.459-0.621,2.756-1.492,3.853-2.588c1.079-1.079,1.95-2.355,2.59-3.793c0.668-1.503,1.007-3.126,1.007-4.824v-21.822
			C718.838,369.136,718.5,367.513,717.831,366.008z M707.95,392.61c0,0.188-0.03,0.344-0.091,0.485
			c-0.082,0.189-0.175,0.331-0.291,0.447c-0.116,0.116-0.258,0.208-0.446,0.289c-0.093,0.04-0.246,0.094-0.497,0.094h-9.609v-24.417
			h9.609c0.191,0,0.349,0.03,0.495,0.093c0.186,0.08,0.332,0.175,0.448,0.29c0.115,0.114,0.21,0.261,0.289,0.443
			c0.063,0.146,0.093,0.301,0.093,0.489V392.61z"/>
	</g>
	<g>
		<path fill="#FFFFFF" d="M565.497,413.193c-1.4,0-2.729,0.519-3.743,1.461c-1.097,1.02-1.701,2.416-1.701,3.929v28.591
			c0,0.19-0.03,0.347-0.092,0.492c-0.083,0.19-0.175,0.332-0.292,0.449c-0.117,0.117-0.259,0.209-0.449,0.292
			c-0.091,0.039-0.241,0.092-0.492,0.092h-8.339c-0.231,0-0.353-0.042-0.429-0.076c-0.185-0.082-0.33-0.18-0.458-0.307
			c-0.117-0.117-0.209-0.259-0.292-0.451c-0.039-0.091-0.091-0.239-0.091-0.49v-28.591c0-1.51-0.603-2.904-1.706-3.934
			c-1.014-0.939-2.341-1.457-3.738-1.457c-1.4,0-2.729,0.519-3.743,1.461c-1.097,1.02-1.701,2.416-1.701,3.929v28.591
			c0,1.675,0.321,3.278,0.954,4.764c0.622,1.461,1.502,2.767,2.615,3.879c1.114,1.114,2.419,1.995,3.88,2.616
			c1.487,0.633,3.071,0.954,4.711,0.954h8.339c1.675,0,3.278-0.321,4.764-0.954c1.474-0.628,2.782-1.519,3.889-2.652
			c1.062-1.089,1.921-2.362,2.554-3.784c0.668-1.504,1.006-3.126,1.006-4.823v-28.591c0-1.51-0.603-2.904-1.706-3.934
			C568.222,413.71,566.894,413.193,565.497,413.193z"/>
		<path fill="#FFFFFF" d="M605.295,416.796c-1.104-1.129-2.411-2.02-3.888-2.65c-1.488-0.632-3.09-0.953-4.762-0.953h-15.054
			c-1.456,0-2.815,0.556-3.824,1.566c-0.917,0.917-1.47,2.099-1.6,3.419l-0.02,0.202v35.563c0,1.459,0.567,2.829,1.588,3.847
			c1.027,1.03,2.397,1.598,3.856,1.598c1.456,0,2.824-0.566,3.852-1.593c1.027-1.027,1.593-2.395,1.593-3.852v-5.602h9.609
			c1.675,0,3.278-0.321,4.764-0.954c1.459-0.621,2.755-1.492,3.853-2.589c1.079-1.079,1.95-2.355,2.59-3.793
			c0.668-1.503,1.007-3.126,1.007-4.823v-10.83c0-1.661-0.338-3.265-1.007-4.771C607.22,419.163,606.362,417.891,605.295,416.796z
			 M597.969,436.141c0,0.226-0.043,0.349-0.073,0.416c-0.094,0.211-0.209,0.382-0.36,0.539c-0.105,0.109-0.23,0.192-0.39,0.261
			c-0.15,0.064-0.309,0.094-0.501,0.094h-9.609v-13.37h9.609c0.194,0,0.348,0.029,0.499,0.094c0.185,0.079,0.33,0.174,0.444,0.287
			c0.127,0.127,0.225,0.273,0.306,0.453c0.032,0.073,0.075,0.195,0.075,0.422V436.141z"/>
	</g>
</g>
</svg>
