<?xml version="1.0" encoding="utf-8"?>
<!-- Generator: Adobe Illustrator 17.0.0, SVG Export Plug-In . SVG Version: 6.00 Build 0)  -->
<!DOCTYPE svg PUBLIC "-//W3C//DTD SVG 1.1//EN" "http://www.w3.org/Graphics/SVG/1.1/DTD/svg11.dtd">
<svg version="1.1" id="Layer_1" xmlns="http://www.w3.org/2000/svg" xmlns:xlink="http://www.w3.org/1999/xlink" x="0px" y="0px"
	 width="556px" height="344px" viewBox="0 0 556 344" enable-background="new 0 0 556 344" xml:space="preserve">
<rect x="0" y="0" fill="#00BCFF" width="556" height="344"/>
<g>
	<path d="M378.445,63.514H177.555c-4.085,0-7.427,3.342-7.427,7.427v200.891c0,4.085,3.342,7.427,7.427,7.427h82.857l14.281,28.718
		c1.819,3.658,4.787,3.654,6.596-0.009l14.178-28.709h82.979c4.085,0,7.427-3.342,7.427-7.427V70.942
		C385.873,66.857,382.53,63.514,378.445,63.514z"/>
	<g>
		<path fill="#FCDA00" d="M219.631,99.326h-20.206c-1.311,0-2.553,0.493-3.498,1.39c-0.995,0.947-1.543,2.253-1.543,3.677
			c0,1.395,0.55,2.685,1.54,3.621c0.942,0.899,2.186,1.394,3.502,1.394h5.037v27.7c0,1.351,0.525,2.619,1.471,3.562
			c0.951,0.954,2.219,1.479,3.57,1.479c1.349,0,2.615-0.524,3.566-1.475c0.951-0.951,1.475-2.218,1.475-3.566v-27.7h5.087
			c1.313,0,2.555-0.494,3.495-1.388c0.997-0.947,1.546-2.235,1.546-3.628c0-1.421-0.547-2.726-1.55-3.683
			C222.179,99.818,220.94,99.326,219.631,99.326z"/>
		<path fill="#FCDA00" d="M252.937,99.326c-1.339,0-2.601,0.513-3.558,1.449c-0.973,0.954-1.509,2.23-1.509,3.593v11.304h-10.124
			v-11.304c0-1.307-0.491-2.546-1.394-3.502c-0.947-0.993-2.252-1.54-3.673-1.54c-1.392,0-2.681,0.549-3.627,1.546
			c-0.895,0.942-1.388,2.184-1.388,3.495v32.691c0,1.316,0.495,2.559,1.384,3.491c0.946,0.999,2.236,1.55,3.632,1.55
			c1.425,0,2.73-0.548,3.679-1.546c0.895-0.942,1.387-2.183,1.387-3.495v-11.304h10.124v11.304c0,1.367,0.538,2.645,1.509,3.593
			c0.953,0.934,2.216,1.449,3.558,1.449c1.392,0,2.681-0.549,3.628-1.546c0.895-0.943,1.388-2.184,1.388-3.495v-32.691
			c0-1.307-0.491-2.546-1.392-3.5C255.614,99.874,254.327,99.326,252.937,99.326z"/>
		<path fill="#FCDA00" d="M287.805,109.409c1.401,0,2.694-0.559,3.638-1.576c0.873-0.938,1.353-2.169,1.353-3.466
			c0-1.292-0.478-2.521-1.357-3.47c-0.945-1.013-2.236-1.571-3.634-1.571h-20.282c-1.392,0-2.681,0.549-3.627,1.546
			c-0.895,0.942-1.388,2.184-1.388,3.495v32.691c0,1.316,0.495,2.559,1.384,3.491c0.946,0.999,2.236,1.55,3.632,1.55h20.282
			c1.401,0,2.694-0.559,3.638-1.576c0.873-0.938,1.353-2.169,1.353-3.466c0-1.294-0.479-2.523-1.357-3.47
			c-0.945-1.013-2.236-1.571-3.634-1.571H272.59v-6.263h15.215c1.401,0,2.693-0.559,3.638-1.576
			c0.872-0.938,1.353-2.169,1.353-3.466c0-1.292-0.478-2.52-1.357-3.47c-0.945-1.013-2.236-1.571-3.634-1.571H272.59v-6.263H287.805
			z"/>
	</g>
	<g>
		<path fill="#FFFFFF" d="M204.537,161.054c0.086-0.193,0.192-0.352,0.333-0.498c0.107-0.111,0.227-0.194,0.376-0.26
			c0.068-0.03,0.182-0.07,0.397-0.07h13.989c1.313,0,2.555-0.494,3.493-1.386c0.999-0.947,1.548-2.236,1.548-3.63
			c0-1.423-0.548-2.728-1.548-3.681c-0.943-0.894-2.183-1.386-3.493-1.386h-13.989c-1.518,0-2.987,0.298-4.366,0.887
			c-1.338,0.571-2.535,1.369-3.558,2.37c-1.047,1.024-1.872,2.238-2.453,3.605c-0.585,1.377-0.882,2.863-0.882,4.415v3.872
			c0,1.553,0.297,3.039,0.881,4.415c0.575,1.354,1.389,2.565,2.42,3.599c1.03,1.033,2.238,1.849,3.592,2.428
			c1.378,0.588,2.847,0.887,4.39,0.887l7.697-0.05c0.233,0,0.374,0.049,0.452,0.083c0.203,0.089,0.308,0.183,0.369,0.246
			c0.142,0.147,0.249,0.307,0.334,0.498c0.031,0.069,0.071,0.186,0.071,0.399v3.861c0,0.176-0.027,0.322-0.085,0.455
			c-0.076,0.176-0.162,0.308-0.27,0.416c-0.107,0.107-0.243,0.195-0.414,0.269c-0.137,0.059-0.278,0.086-0.457,0.086h-13.939
			c-1.349,0-2.615,0.524-3.566,1.475c-0.951,0.951-1.475,2.218-1.475,3.566c0,1.351,0.525,2.619,1.471,3.562
			c0.951,0.954,2.219,1.48,3.57,1.48h13.939c1.552,0,3.037-0.297,4.411-0.883c1.366-0.581,2.577-1.407,3.601-2.456
			c0.984-1.009,1.779-2.187,2.364-3.504c0.618-1.392,0.932-2.895,0.932-4.465v-3.861c0-1.571-0.313-3.074-0.932-4.466
			c-0.59-1.329-1.396-2.51-2.4-3.515c-1.015-1.013-2.214-1.819-3.566-2.395c-1.376-0.585-2.86-0.882-4.41-0.882h-7.722
			c-0.214,0-0.328-0.04-0.397-0.071c-0.171-0.076-0.306-0.166-0.424-0.284c-0.109-0.108-0.194-0.24-0.271-0.419
			c-0.036-0.083-0.084-0.221-0.084-0.453v-3.861C204.466,161.238,204.506,161.124,204.537,161.054z"/>
		<path fill="#FFFFFF" d="M252.911,150.143h-20.206c-1.313,0-2.555,0.494-3.495,1.388c-0.997,0.947-1.546,2.253-1.546,3.679
			c0,1.397,0.551,2.687,1.54,3.621c0.942,0.9,2.186,1.395,3.502,1.395h5.037v27.699c0,1.351,0.525,2.619,1.471,3.562
			c0.951,0.954,2.219,1.48,3.57,1.48c1.348,0,2.615-0.524,3.566-1.475c0.951-0.951,1.475-2.218,1.475-3.566v-27.699h5.087
			c1.313,0,2.555-0.494,3.493-1.386c0.999-0.947,1.548-2.236,1.548-3.63c0-1.423-0.548-2.728-1.548-3.681
			C255.462,150.635,254.221,150.143,252.911,150.143z"/>
		<path fill="#FFFFFF" d="M288.002,153.421c-1.015-1.013-2.214-1.819-3.568-2.397c-1.377-0.585-2.861-0.881-4.408-0.881h-7.722
			c-1.548,0-3.032,0.297-4.413,0.883c-1.352,0.576-2.551,1.382-3.566,2.397c-1.016,1.016-1.822,2.216-2.397,3.566
			c-0.586,1.376-0.883,2.861-0.883,4.412v26.473c0,1.299,0.482,2.532,1.349,3.461c0.944,1.019,2.238,1.58,3.642,1.58
			c1.433,0,2.743-0.56,3.688-1.576c0.872-0.939,1.353-2.169,1.353-3.466v-5.087h10.174v5.087c0,1.299,0.482,2.532,1.349,3.461
			c0.944,1.019,2.256,1.58,3.692,1.58c1.4,0,2.691-0.559,3.638-1.576c0.872-0.938,1.353-2.169,1.353-3.466v-26.473
			c0-1.55-0.297-3.034-0.884-4.412C289.825,155.639,289.02,154.439,288.002,153.421z M271.078,161.401
			c0-0.214,0.04-0.327,0.071-0.399c0.085-0.191,0.191-0.349,0.333-0.497c0.098-0.101,0.215-0.18,0.365-0.245
			c0.085-0.037,0.225-0.086,0.457-0.086h7.722c0.232,0,0.373,0.049,0.454,0.084c0.154,0.066,0.271,0.145,0.367,0.245
			c0.142,0.147,0.249,0.307,0.334,0.498c0.031,0.069,0.071,0.186,0.071,0.399v11.355h-10.174V161.401z"/>
		<path fill="#FFFFFF" d="M321.366,150.143c-1.349,0-2.615,0.524-3.568,1.477c-0.95,0.951-1.473,2.217-1.473,3.564v15.017
			l-10.875-17.6c-0.548-0.921-1.35-1.628-2.332-2.05c-0.619-0.264-1.273-0.398-1.946-0.398c-0.003,0-0.006,0-0.009,0l-2.638,0.739
			c-0.519,0.317-0.978,0.729-1.361,1.225c-0.684,0.89-1.046,1.95-1.046,3.066v32.741c0,1.405,0.561,2.698,1.571,3.634
			c0.938,0.876,2.171,1.358,3.47,1.358c1.296,0,2.527-0.481,3.466-1.353c1.016-0.945,1.576-2.237,1.576-3.638v-15.016l10.861,17.576
			c0.881,1.518,2.468,2.423,4.276,2.432l2.663-0.675c0.592-0.356,1.104-0.833,1.498-1.404c0.594-0.858,0.908-1.865,0.908-2.912
			v-32.741c0-1.344-0.522-2.609-1.479-3.57C323.977,150.665,322.712,150.143,321.366,150.143z"/>
		<path fill="#FFFFFF" d="M360.684,156.984c-0.591-1.329-1.397-2.509-2.4-3.513c-1.002-1-2.183-1.806-3.51-2.395
			c-1.392-0.619-2.895-0.932-4.467-0.932h-13.939c-1.349,0-2.615,0.524-3.568,1.477c-0.95,0.951-1.473,2.217-1.473,3.564v32.741
			c0,1.405,0.561,2.698,1.571,3.634c0.938,0.876,2.171,1.358,3.47,1.358h13.939c1.552,0,3.037-0.297,4.411-0.883
			c1.351-0.575,2.551-1.381,3.567-2.397c0.999-0.999,1.806-2.181,2.398-3.512c0.619-1.392,0.932-2.895,0.932-4.467v-20.206
			C361.616,159.88,361.303,158.377,360.684,156.984z M351.534,181.616c0,0.174-0.027,0.319-0.084,0.449
			c-0.076,0.175-0.162,0.307-0.269,0.414c-0.108,0.108-0.238,0.193-0.413,0.268c-0.086,0.037-0.228,0.087-0.46,0.087h-8.898v-22.608
			h8.898c0.177,0,0.323,0.028,0.459,0.086c0.172,0.074,0.308,0.162,0.414,0.269c0.106,0.106,0.194,0.242,0.267,0.41
			c0.059,0.135,0.086,0.279,0.086,0.453V181.616z"/>
	</g>
	<g>
		<path fill="#FFFFFF" d="M219.631,200.675c-1.296,0-2.527,0.48-3.466,1.353c-1.016,0.945-1.575,2.237-1.575,3.638v26.473
			c0,0.176-0.027,0.322-0.085,0.455c-0.076,0.176-0.162,0.308-0.27,0.416c-0.108,0.109-0.24,0.194-0.416,0.27
			c-0.084,0.036-0.223,0.085-0.455,0.085h-7.722c-0.214,0-0.327-0.039-0.397-0.071c-0.171-0.076-0.306-0.166-0.424-0.284
			c-0.109-0.109-0.194-0.24-0.271-0.417c-0.036-0.084-0.085-0.222-0.085-0.454v-26.473c0-1.399-0.558-2.689-1.58-3.642
			c-0.939-0.87-2.168-1.349-3.461-1.349c-1.296,0-2.527,0.48-3.466,1.353c-1.016,0.945-1.575,2.237-1.575,3.638v26.473
			c0,1.551,0.297,3.035,0.883,4.411c0.576,1.353,1.391,2.562,2.421,3.592c1.031,1.032,2.24,1.847,3.592,2.422
			c1.376,0.586,2.844,0.883,4.362,0.883h7.722c1.551,0,3.035-0.297,4.411-0.883c1.365-0.581,2.576-1.407,3.601-2.456
			c0.984-1.009,1.779-2.187,2.365-3.504c0.618-1.392,0.932-2.895,0.932-4.466v-26.473c0-1.399-0.558-2.689-1.58-3.642
			C222.153,201.154,220.925,200.675,219.631,200.675z"/>
		<path fill="#FFFFFF" d="M256.481,204.011c-1.022-1.046-2.232-1.87-3.6-2.454c-1.377-0.585-2.861-0.882-4.409-0.882h-13.939
			c-1.349,0-2.606,0.515-3.541,1.45c-0.849,0.849-1.361,1.944-1.481,3.165l-0.019,0.187v32.929c0,1.351,0.525,2.619,1.471,3.562
			c0.951,0.954,2.219,1.479,3.571,1.479c1.349,0,2.615-0.524,3.566-1.475c0.951-0.951,1.475-2.218,1.475-3.566v-5.187h8.898
			c1.551,0,3.035-0.297,4.411-0.883c1.351-0.575,2.551-1.381,3.567-2.397c0.999-0.999,1.806-2.181,2.398-3.512
			c0.619-1.392,0.932-2.895,0.932-4.466v-10.028c0-1.538-0.313-3.023-0.932-4.417C258.264,206.202,257.469,205.025,256.481,204.011z
			 M249.698,221.923c0,0.21-0.04,0.323-0.067,0.385c-0.087,0.195-0.193,0.354-0.334,0.499c-0.097,0.101-0.213,0.178-0.361,0.242
			c-0.139,0.06-0.286,0.087-0.464,0.087h-8.898v-12.38h8.898c0.179,0,0.322,0.027,0.462,0.087c0.171,0.074,0.306,0.161,0.411,0.266
			c0.118,0.117,0.208,0.253,0.283,0.42c0.03,0.067,0.07,0.181,0.07,0.391V221.923z"/>
	</g>
</g>
</svg>
