<?xml version="1.0" encoding="utf-8"?>
<!-- Generator: Adobe Illustrator 16.0.2, SVG Export Plug-In . SVG Version: 6.00 Build 0)  -->
<!DOCTYPE svg PUBLIC "-//W3C//DTD SVG 1.1//EN" "http://www.w3.org/Graphics/SVG/1.1/DTD/svg11.dtd">
<svg version="1.1" id="Layer_1" xmlns="http://www.w3.org/2000/svg" xmlns:xlink="http://www.w3.org/1999/xlink" x="0px" y="0px"
	 width="1830.001px" height="800px" viewBox="0 0 1830.001 800" enable-background="new 0 0 1830.001 800" xml:space="preserve">
<rect fill="#FFFFFF" width="1830.001" height="800"/>
<g>
	<g>
		<path fill="#FF8B84" d="M882.229,271.98c2.07-1.679,3.255-4.136,3.255-6.716s-1.194-5.038-3.261-6.717
			c-4.012-3.262-6.317-8.052-6.317-13.145c0-5.095,2.305-9.881,6.329-13.13c1.761-1.444,4.378-1.167,5.807,0.61
			c1.435,1.775,1.161,4.37-0.615,5.814c-2.07,1.682-3.255,4.122-3.255,6.705c0,2.581,1.194,5.037,3.267,6.731
			c4.011,3.262,6.315,8.05,6.315,13.13c0,5.095-2.305,9.884-6.321,13.144h-0.006c-2.062,1.68-3.255,4.14-3.255,6.717
			c0,2.581,1.194,5.022,3.267,6.718c1.77,1.445,2.038,4.04,0.598,5.814c-0.821,1.002-2.009,1.526-3.205,1.526
			c-0.917,0-1.838-0.306-2.608-0.929c-4.012-3.26-6.317-8.048-6.317-13.13c0-5.081,2.305-9.867,6.301-13.129
			C882.212,271.996,882.223,271.98,882.229,271.98z"/>
	</g>
	<g>
		<path fill="#FF8B84" d="M906.077,265.265c0,5.095,2.303,9.884,6.327,13.144c0.758,0.61,1.681,0.917,2.597,0.917
			c1.207,0,2.4-0.529,3.212-1.541c1.435-1.777,1.16-4.371-0.617-5.799c-2.067-1.682-3.254-4.139-3.254-6.717
			c0-2.58,1.194-5.039,3.266-6.719c4.013-3.262,6.316-8.049,6.316-13.143c0-5.096-2.3-9.869-6.316-13.131
			c-2.076-1.68-3.266-4.137-3.266-6.717s1.194-5.037,3.266-6.73c1.773-1.43,2.04-4.025,0.599-5.802
			c-1.44-1.759-4.042-2.054-5.817-0.593c-4.012,3.262-6.315,8.034-6.315,13.129c0,5.082,2.303,9.868,6.315,13.129h0.007l0.006,0.016
			c2.07,1.68,3.254,4.121,3.254,6.705c0,2.582-1.194,5.037-3.268,6.73C908.38,255.396,906.077,260.185,906.077,265.265z"/>
	</g>
	<g>
		<path fill="#FF8B84" d="M942.563,271.98c-4.007,3.263-6.316,8.048-6.316,13.145c0,5.082,2.306,9.87,6.316,13.13
			c0.773,0.627,1.696,0.929,2.612,0.929c1.2,0,2.388-0.524,3.203-1.526c1.444-1.774,1.174-4.369-0.595-5.814
			c-2.07-1.695-3.262-4.137-3.262-6.718c0-2.594,1.191-5.037,3.262-6.731c4.012-3.25,6.314-8.034,6.314-13.129
			c0-5.08-2.303-9.868-6.314-13.13c-2.07-1.694-3.262-4.15-3.262-6.731c0-2.583,1.186-5.023,3.256-6.705
			c1.769-1.444,2.045-4.051,0.601-5.814c-1.429-1.777-4.021-2.055-5.804-0.61c-4.019,3.249-6.325,8.035-6.325,13.13
			c0,5.093,2.307,9.879,6.319,13.145c2.076,1.679,3.267,4.137,3.267,6.717c0,2.582-1.186,5.037-3.255,6.716H942.563z"/>
	</g>
	<g>
		<path fill="#FF8B84" d="M1047.446,440.788h-11.146c-4.093-60.553-52.577-109.004-113.159-113.043
			c0.018-0.206,0.121-0.389,0.121-0.611v-4.438c0-4.566-3.697-8.26-8.262-8.26c-4.566,0-8.265,3.693-8.265,8.26v4.438
			c0,0.222,0.104,0.405,0.125,0.611c-60.58,4.039-109.066,52.49-113.16,113.043h-11.145c-4.559,0-8.264,3.694-8.264,8.275
			c0,4.564,3.705,8.256,8.264,8.256h264.889c4.562,0,8.262-3.691,8.262-8.256C1055.708,444.482,1052.008,440.788,1047.446,440.788z
			 M801.975,440.788c4.265-58.693,53.255-105.186,113.026-105.186s108.765,46.492,113.03,105.186H801.975z"/>
	</g>
	<g>
		<path fill="#FF8B84" d="M1013.573,424.478c-4.738-19.103-14.906-36.35-29.405-49.878c-0.716-0.667-1.651-1.035-2.629-1.035
			c-1.076,0-2.071,0.435-2.807,1.226c-1.455,1.556-1.367,3.996,0.187,5.453c13.39,12.464,22.792,28.404,27.181,46.088
			c0.427,1.719,1.961,2.92,3.729,2.92c0.303,0,0.63-0.038,0.973-0.113C1012.838,428.603,1014.08,426.522,1013.573,424.478z"/>
	</g>
	<path fill="#FF8B84" d="M809.934,520.28c-1.29,0.986-2.677,1.466-4.24,1.466c-2.733,0-5.014-1.29-6.254-3.54
		c-0.604-1.104-1.537-1.641-2.854-1.641c-2.014,0-3.26,1.692-3.26,3.26c0,6.114,10.393,8.441,12.202,8.441
		c7.475,0,13.791-6.238,13.791-13.623c0-3.645-1.29-6.873-3.843-9.601l-13.365-13.782c-1.242-1.32-1.847-2.828-1.847-4.612
		c0-3.907,2.838-6.853,6.602-6.853c2.702,0,4.664,1.101,6,3.363c0.509,1.096,1.443,1.65,2.776,1.65c2.041,0,3.26-1.657,3.26-3.26
		c0-6.362-10.787-8.273-11.951-8.273c-7.204,0-13.289,6.199-13.289,13.538c0,3.439,1.302,6.56,3.76,9.018l13.376,13.71
		c1.328,1.328,2.001,2.96,2.001,4.852C812.797,516.89,811.861,518.814,809.934,520.28z"/>
	<path fill="#FF8B84" d="M830.513,527.933h16.714c1.828,0,3.26-1.432,3.26-3.26s-1.432-3.26-3.26-3.26h-13.454v-44.877
		c0-1.828-1.432-3.26-3.26-3.26c-1.918,0-3.26,1.34-3.26,3.26v48.137C827.253,526.591,828.594,527.933,830.513,527.933z"/>
	<path fill="#FF8B84" d="M856,528.267c2.867,0,3.542-3.042,4.396-6.893c0.324-1.466,0.691-3.116,1.214-4.808h15.33
		c0.322,1.252,0.601,2.438,0.85,3.501c1.156,4.938,1.921,8.199,4.785,8.199c2.172,0,3.345-1.637,3.345-3.178
		c0-0.359,0-0.675-0.117-0.951l-13.356-48.412c-0.399-1.603-1.493-2.449-3.16-2.449c-1.665,0-2.758,0.847-3.155,2.436
		l-13.359,48.426c-0.117,0.276-0.117,0.592-0.117,0.951C852.657,526.9,854.095,528.267,856,528.267z M863.453,510.046
		c0.583-2.141,1.187-4.372,1.789-6.603c1.407-5.204,2.853-10.56,4.025-14.686c0.899,3.346,2.04,7.466,3.235,11.783
		c0.879,3.177,1.78,6.433,2.62,9.505H863.453z"/>
	<path fill="#FF8B84" d="M922.438,473.276c-1.051,0-2.405,0.634-2.953,1.838c-2.148,4.537-4.488,9.537-6.628,14.11
		c-1.382,2.954-2.681,5.731-3.793,8.091c-1.958-4.109-4.525-9.604-7.017-14.935c-1.147-2.456-2.296-4.917-3.394-7.258
		c-0.554-1.217-1.91-1.755-2.957-1.847c-1.827,0-3.26,1.432-3.26,3.26v48.471c0,1.92,1.341,3.26,3.26,3.26
		c1.828,0,3.26-1.432,3.26-3.26v-33.88c1.001,2.135,1.948,4.128,2.872,6.071c1.617,3.404,3.014,6.345,4.274,9.146
		c0.523,1.256,1.493,1.865,2.966,1.865c2.458,0,3.774-3.146,4.937-5.921c0.233-0.558,0.462-1.103,0.689-1.601
		c0.892-1.878,1.917-4.074,2.999-6.392c0.485-1.043,0.982-2.108,1.485-3.183v33.893c0,1.92,1.342,3.26,3.26,3.26
		c1.829,0,3.261-1.432,3.261-3.26v-48.471C925.698,474.708,924.267,473.276,922.438,473.276z"/>
	<path fill="#FF8B84" d="M961.147,494.297c0.485-1.043,0.982-2.108,1.485-3.183v33.893c0,1.92,1.34,3.26,3.26,3.26
		c1.828,0,3.26-1.432,3.26-3.26v-48.471c0-1.828-1.432-3.26-3.26-3.26c-1.053,0-2.405,0.634-2.953,1.838
		c-2.147,4.537-4.488,9.537-6.628,14.11c-1.383,2.954-2.682,5.731-3.794,8.091c-1.958-4.109-4.525-9.604-7.016-14.935
		c-1.148-2.456-2.299-4.917-3.396-7.258c-0.553-1.217-1.909-1.755-2.956-1.847c-1.828,0-3.261,1.432-3.261,3.26v48.471
		c0,1.92,1.34,3.26,3.261,3.26c1.828,0,3.26-1.432,3.26-3.26v-33.88c1.001,2.135,1.947,4.128,2.872,6.071
		c1.617,3.404,3.014,6.345,4.274,9.146c0.523,1.256,1.493,1.865,2.964,1.865c2.46,0,3.776-3.146,4.938-5.921
		c0.233-0.558,0.462-1.103,0.689-1.601C959.041,498.811,960.065,496.614,961.147,494.297z"/>
	<path fill="#FF8B84" d="M1002.579,524.673c0-1.921-1.34-3.26-3.261-3.26h-13.453v-18.217h11.782c1.919,0,3.261-1.342,3.261-3.261
		c0-1.92-1.342-3.26-3.261-3.26h-11.782V480.13h13.453c1.921,0,3.261-1.34,3.261-3.26c0-1.919-1.34-3.26-3.261-3.26h-16.713
		c-1.919,0-3.261,1.341-3.261,3.26v47.803c0,1.918,1.342,3.26,3.261,3.26h16.713
		C1001.239,527.933,1002.579,526.591,1002.579,524.673z"/>
	<path fill="#FF8B84" d="M1036.675,491.579v-4.68c0-7.328-5.961-13.289-13.289-13.289h-10.027c-1.828,0-3.26,1.433-3.26,3.26v48.137
		c0,1.828,1.432,3.26,3.26,3.26c1.919,0,3.26-1.34,3.26-3.26v-20.141h5.859l7.875,21.244c0.488,1.465,1.547,2.239,3.062,2.239
		c1.95,0,3.261-1.729,3.261-3.343c0-0.516-0.109-0.842-0.204-1.123l-7.496-20.207
		C1033.672,501.513,1036.675,496.824,1036.675,491.579z M1030.155,486.899v4.68c0,3.795-2.975,6.768-6.77,6.768h-6.768V480.13h6.768
		C1027.118,480.13,1030.155,483.167,1030.155,486.899z"/>
	<path fill="#FF8B84" d="M801.599,558.136c-0.921-0.979-1.369-2.098-1.369-3.418c0-2.9,2.1-5.087,4.884-5.087
		c2.002,0,3.457,0.812,4.448,2.479c0.339,0.715,1.061,1.541,2.588,1.541c1.892,0,3.023-1.536,3.023-3.021
		c0-5.512-8.974-7.045-9.993-7.045c-5.998,0-11.065,5.159-11.065,11.267c0,2.868,1.086,5.47,3.131,7.516l10.73,10.999
		c0.999,0.998,1.486,2.176,1.486,3.601c0,1.891-0.678,3.288-2.136,4.396c-0.974,0.745-1.975,1.092-3.15,1.092
		c-2.04,0-3.738-0.957-4.658-2.624c-0.554-1.017-1.445-1.53-2.647-1.53c-1.868,0-3.024,1.568-3.024,3.023
		c0,5.223,8.465,7.178,10.194,7.178c6.217,0,11.468-5.191,11.468-11.333c0-3.031-1.072-5.714-3.197-7.983L801.599,558.136z"/>
	<path fill="#FF8B84" d="M838.823,543.853h-17.423c-1.696,0-3.024,1.328-3.024,3.022c0,1.696,1.328,3.024,3.024,3.024h5.688v35.578
		c0,1.694,1.328,3.023,3.024,3.023c1.751,0,3.022-1.271,3.022-3.023v-35.578h5.688c1.752,0,3.024-1.271,3.024-3.024
		C841.847,545.124,840.575,543.853,838.823,543.853z"/>
	<path fill="#FF8B84" d="M865.697,543.585c-1.158,0-2.067,0.553-2.73,1.692l-6.653,13.305l-6.679-13.354
		c-0.628-1.074-1.584-1.643-2.77-1.643c-1.827,0-2.957,1.604-2.957,3.09c0,0.463,0.095,0.863,0.294,1.264l9.089,18.179v19.36
		c0,1.752,1.271,3.023,3.022,3.023c1.752,0,3.024-1.271,3.024-3.023v-19.36l9.089-18.179c0.2-0.401,0.293-0.803,0.293-1.264
		C868.719,545.183,867.505,543.585,865.697,543.585z"/>
	<path fill="#FF8B84" d="M889.89,582.187h-10.38v-35.578c0-1.695-1.328-3.023-3.024-3.023c-1.751,0-3.022,1.271-3.022,3.023v38.602
		c0,1.751,1.271,3.022,3.022,3.022h13.404c1.694,0,3.022-1.328,3.022-3.022C892.912,583.515,891.584,582.187,889.89,582.187z"/>
	<path fill="#FF8B84" d="M913.211,549.899c1.752,0,3.023-1.271,3.023-3.024c0-1.751-1.271-3.022-3.023-3.022h-13.404
		c-1.751,0-3.022,1.271-3.022,3.022v38.335c0,1.751,1.271,3.022,3.022,3.022h13.404c1.752,0,3.023-1.271,3.023-3.022
		c0-1.752-1.271-3.023-3.023-3.023H902.83v-13.791h9.041c1.751,0,3.022-1.271,3.022-3.022c0-1.752-1.271-3.023-3.022-3.023h-9.041
		v-12.45H913.211z"/>
	<path fill="#FF8B84" d="M950.739,543.853h-13.402c-1.696,0-3.024,1.328-3.024,3.022v38.335c0,1.694,1.328,3.022,3.024,3.022
		c1.752,0,3.023-1.271,3.023-3.022v-16.814h9.039c1.752,0,3.023-1.271,3.023-3.022c0-1.752-1.271-3.023-3.023-3.023h-9.039v-12.45
		h10.379c1.752,0,3.023-1.271,3.023-3.024C953.763,545.124,952.491,543.853,950.739,543.853z"/>
	<path fill="#FF8B84" d="M968.699,543.585c-6.102,0-11.065,4.964-11.065,11.065v22.786c0,6.102,4.964,11.064,11.065,11.064
		s11.065-4.963,11.065-11.064V554.65C979.765,548.549,974.801,543.585,968.699,543.585z M968.699,582.454
		c-2.813,0-5.019-2.204-5.019-5.018V554.65c0-2.768,2.252-5.02,5.019-5.02c2.721,0,5.02,2.299,5.02,5.02v22.786
		C973.719,580.203,971.467,582.454,968.699,582.454z"/>
	<path fill="#FF8B84" d="M996.578,543.585c-6.102,0-11.066,4.964-11.066,11.065v22.786c0,6.102,4.965,11.064,11.066,11.064
		c6.101,0,11.065-4.963,11.065-11.064V554.65C1007.644,548.549,1002.679,543.585,996.578,543.585z M996.578,582.454
		c-2.814,0-5.019-2.204-5.019-5.018V554.65c0-2.768,2.251-5.02,5.019-5.02c2.72,0,5.02,2.299,5.02,5.02v22.786
		C1001.598,580.203,999.345,582.454,996.578,582.454z"/>
	<path fill="#FF8B84" d="M1025.261,543.853h-8.043c-1.751,0-3.022,1.271-3.022,3.022v38.335c0,1.751,1.271,3.022,3.022,3.022h8.043
		c6.101,0,11.064-4.963,11.064-11.064v-22.249C1036.325,548.817,1031.361,543.853,1025.261,543.853z M1025.261,582.187h-5.02
		v-32.287h5.02c2.768,0,5.019,2.25,5.019,5.02v22.249C1030.279,579.981,1028.075,582.187,1025.261,582.187z"/>
</g>
</svg>
