<?xml version="1.0" encoding="utf-8"?>
<!-- Generator: Adobe Illustrator 16.0.2, SVG Export Plug-In . SVG Version: 6.00 Build 0)  -->
<!DOCTYPE svg PUBLIC "-//W3C//DTD SVG 1.1//EN" "http://www.w3.org/Graphics/SVG/1.1/DTD/svg11.dtd">
<svg version="1.1" id="Layer_1" xmlns="http://www.w3.org/2000/svg" xmlns:xlink="http://www.w3.org/1999/xlink" x="0px" y="0px"
	 width="1830.001px" height="800px" viewBox="0 0 1830.001 800" enable-background="new 0 0 1830.001 800" xml:space="preserve">
<rect fill="#00BD84" width="1830.001" height="800"/>
<g>
	<g>
		<path fill="#FFFFFF" d="M744.11,362.596c5.457,0,9.94,5.846,10.332,19.784c14.717,3.801,19.396-9.261,14.717-16.569
			c-3.898-6.335-15.009-8.09-23.196-8.09c-25.147,0-28.85,16.375-24.56,26.315c4.384,10.137,19.298,18.519,24.168,24.171
			c4.388,5.361,4.874,13.938-1.656,13.938c-1.499,0-2.801-0.448-3.927-1.288c-0.353-0.325-0.705-0.65-1.057-0.975
			c-4.227-3.886-8.49-7.836-12.654-11.893c-1.521-1.483-3.106-2.983-4.694-4.482c-2.584-2.44-5.222-4.891-7.938-7.333
			c-2.146-1.939-4.283-3.95-6.353-5.898c-2.035-1.913-4.134-3.894-6.21-5.759c-4.319-3.886-8.686-7.967-12.628-11.806
			c-0.77-0.751-5.234-4.676-6.22-5.967c-1.518-1.989-1.495-4.189-1.348-6.096c0.106-1.48,0.356-2.979,0.598-4.423
			c0.789-4.736,1.604-9.634-2.481-14.395c-1.213-1.411-2.717-2.771-4.307-4.207c-0.619-0.565-1.263-1.148-1.89-1.733
			c-1.291-1.211-2.589-2.438-3.896-3.668c-2.829-2.675-5.753-5.438-8.736-8.14c-1.922-1.758-3.858-3.599-5.729-5.386
			c-2.237-2.128-4.547-4.337-6.895-6.431c-2.039-1.82-4.088-3.779-6.062-5.678c-2.124-2.037-4.313-4.139-6.565-6.131
			c-1.896-1.687-3.804-3.494-5.645-5.244c-1.227-1.165-2.5-2.372-3.781-3.553c-0.311-0.285-0.612-0.576-0.92-0.865
			c-2.131-2.042-4.146-3.973-6.413-2.462l-0.415,0.43l-0.022,0.023c-1.601,2.54,1.272,5.175,4.051,7.723
			c0.505,0.463,1.028,0.941,1.5,1.4l36.119,35.204c0.562,0.546,1.183,1.106,1.781,1.654c1.541,1.392,3.135,2.831,3.927,4.198
			c0.274,0.481,1.091,2.126,0.021,3.227c-0.144,0.148-0.317,0.278-0.522,0.394c-1.99,1.133-4.73-1.693-7.146-4.188
			c-0.493-0.513-0.963-0.997-1.417-1.443l-36.319-35.398c-0.479-0.465-0.961-0.958-1.47-1.486c-2.662-2.762-5.416-5.611-7.818-3.805
			l-0.344,0.352l-0.021,0.023c-1.466,2.299,0.443,4.157,2.647,6.306l41.958,40.893c0.404,0.394,0.796,0.756,1.17,1.103
			c2.185,2.021,3.502,3.246,1.852,5.392c-0.822,1.069-2.204,1.042-3.003,0.509c-1.688-1.119-3.576-2.973-5.397-4.767
			c-0.303-0.294-0.601-0.587-0.898-0.876c-6.466-6.303-12.249-12.027-17.837-17.569c-5.562-5.509-11.308-11.203-17.689-17.422
			c-0.536-0.524-1.082-1.095-1.663-1.699c-2.752-2.88-5.873-6.14-8.439-4.38l-0.396,0.407l-0.017,0.021
			c-1.597,2.493,1.165,5.044,3.837,7.512c0.47,0.435,0.954,0.881,1.402,1.315l36.475,35.548c0.548,0.535,1.144,1.074,1.778,1.65
			c1.592,1.438,3.236,2.928,3.982,4.259c0.601,1.076,0.516,2.436-0.193,3.164c-0.373,0.385-0.901,0.575-1.53,0.548
			c-1.872-0.072-4.028-2.308-6.112-4.464c-0.534-0.553-1.034-1.072-1.532-1.557l-35.761-34.854
			c-0.509-0.496-1.031-1.041-1.581-1.615c-2.603-2.725-5.551-5.815-8.064-4.019l-0.358,0.368c-1.637,2.239,0.883,4.696,3.105,6.861
			c5.64,5.497,11.253,11.321,16.682,16.952c5.414,5.614,11.011,11.421,16.615,16.885c2.122,2.067,4.157,4.177,6.13,6.216
			c1.939,2.011,3.94,4.093,6.002,6.102c0.983,0.956,1.863,1.876,2.718,2.769c1.148,1.2,2.233,2.334,3.431,3.414
			c4.764,4.318,9.85,3.313,14.766,2.342c1.337-0.263,2.713-0.537,4.044-0.689c1.846-0.215,4.218-0.298,6.184,0.948
			c0.7,0.448,1.356,1.132,2.052,1.861c0.305,0.323,0.626,0.658,0.961,0.986c4.845,4.721,9.632,9.687,14.258,14.493
			c4.212,4.373,8.571,8.893,12.948,13.208c3.885,3.824,7.733,7.788,11.451,11.617c1.1,1.128,2.237,2.292,3.359,3.444
			c0.726,0.954,1.567,1.832,2.521,2.585c0.272,0.215,0.553,0.419,0.842,0.612c4.97,3.313,13.449,3.997,19.004,3.997
			c1.657,0,3.227-0.062,4.721-0.179c22.322-1.742,26.723-15.941,21.792-25.26c-4.68-8.868-22.418-21.928-26.025-26.411
			C738.653,370.977,737.679,362.596,744.11,362.596z"/>
	</g>
	<g>
		<path fill="#FFFFFF" d="M791.129,413.699l4.386-57.016c-9.552-1.268-20.076,1.752-20.563,7.989l-3.509,46.883
			c-0.78,10.233,2.339,15.008,12.376,15.008c8.869,0,16.57-4.581,13.744-12.864C795.515,414.186,793.175,414.186,791.129,413.699z"
			/>
	</g>
	<g>
		<path fill="#FFFFFF" d="M847.088,413.699l2.925-35.477c-7.897-2.633-18.615-4.29-27.095-3.606
			c-19.298,1.56-23.295,16.083-24.464,23.879c-2.243,15.495,2.922,26.804,14.619,28.167c8.283,0.974,15.397,0,16.667-19.688h0.975
			c-3.51,27.29,29.822,21.15,20.856,6.725C850.401,414.186,848.258,414.186,847.088,413.699z M827.597,407.17
			c-0.683,5.944-2.339,6.919-4.679,6.627c-2.34-0.294-4.094-4.094-2.34-18.324c1.363-10.233,4.579-17.154,10.332-17.154
			L827.597,407.17z"/>
	</g>
	<g>
		<path fill="#FFFFFF" d="M920.59,374.42c-15.203,0-17.153,11.404-18.029,18.909l-0.975-0.098c0.098-2.925,0.877-8.186,0.877-10.525
			c0-5.558-4.192-8.286-11.209-8.286c-14.717,0-16.082,12.086-16.568,18.909l-0.975-0.098c0.196-4.094,0.291-5.166,0.879-10.43
			c0.974-8.575-10.819-7.699-15.985-7.699l-3.8,49.805c6.822,1.95,15.593,0.976,20.465,0l2.34-31.287
			c0.389-6.333,1.656-12.378,5.068-12.378c4.094,0,2.924,5.068,2.048,16.57l-2.048,27.095c6.822,1.95,15.593,0.976,20.468,0
			l2.241-29.726c0.489-7.992,2.729-13.939,5.459-13.939c3.703,0,2.533,5.751,1.753,16.57l-2.046,27.095
			c7.116,1.95,16.277,0.976,21.441,0l2.241-29.726C935.114,382.997,933.749,374.42,920.59,374.42z"/>
	</g>
	<g>
		<path fill="#FFFFFF" d="M1001.42,374.42c-15.203,0-17.154,11.404-18.03,18.909l-0.976-0.098c0.098-2.925,0.877-8.186,0.877-10.525
			c0-5.558-4.191-8.286-11.207-8.286c-14.717,0-16.082,12.086-16.569,18.909l-0.975-0.098c0.194-4.094,0.292-5.166,0.876-10.43
			c0.975-8.575-10.818-7.699-15.983-7.699l-3.801,49.805c6.823,1.95,15.593,0.976,20.468,0l2.339-31.287
			c0.39-6.333,1.657-12.378,5.068-12.378c4.093,0,2.925,5.068,2.046,16.57l-2.046,27.095c6.823,1.95,15.593,0.976,20.468,0
			l2.242-29.726c0.486-7.992,2.729-13.939,5.456-13.939c3.703,0,2.535,5.751,1.755,16.57l-2.046,27.095
			c7.114,1.95,16.276,0.976,21.442,0l2.241-29.726C1015.941,382.997,1014.578,374.42,1001.42,374.42z"/>
	</g>
	<g>
		<path fill="#FFFFFF" d="M1046.27,374.519c-17.154,0-26.898,9.259-28.068,23.977c-1.365,16.763,7.113,27.095,23.585,27.971
			c15.887,0.878,27.973-8.771,24.853-23.292c-2.435,4.482-9.939,8.966-17.641,7.602c-5.944-0.877-9.258-3.899-10.234-8.578
			c12.476,4.192,28.169,1.072,30.021-9.355C1070.831,379.976,1060.695,374.519,1046.27,374.519z M1048.412,391.673
			c-0.486,6.14-2.435,8.479-7.894,8.09c-0.096-0.879-0.096-1.561,0-3.022c0.879-12.671,1.562-18.226,6.921-18.615
			c0.878-0.098,1.949,0.098,1.852,1.948L1048.412,391.673z"/>
	</g>
	<g>
		<path fill="#FFFFFF" d="M1204.128,506.137c-0.302-2.072-1.011-2.95-3.118-5.57l-0.283-0.344
			c-7.363-9.166-26.281-28.102-56.219-56.289c-1.487-1.4-2.473-2.324-2.709-2.563c-8.213-8.106-16.324-16.037-24.114-23.573
			c-4.021-3.885-7.927-7.914-11.713-11.814c-3.604-3.725-7.335-7.558-11.164-11.278c3.118-1.027,7.158-1.854,8.187-2.058
			c0.16-0.03,0.247-0.048,0.247-0.048l0.063,0.032c6.351-1.759,19.342-3.376,21.218-15.49c2.438-16.667-19.784-22.808-51.559-18.324
			l-5.166,66.275c7.019,0.976,14.034,0.976,21.052,0l1.467-19.12c0.913,0.836,1.839,1.689,2.744,2.514
			c3.523,3.207,7.158,6.522,10.659,9.825c4.661,4.402,8.108,7.605,12.298,11.434c3.676,3.364,3.876,5.066,4.467,10.114
			c0.055,0.468,0.111,0.958,0.177,1.48c1.892,15.485,7.601,22.625,14.823,31.67c0.849,1.057,1.718,2.149,2.603,3.28
			c6.716,8.567,22.792,21.216,31.358,26.517c3.813,2.358,12.354,6.388,16.195,7.437c5.604,1.525,8.688,2.369,13.123,1.77
			c1.468-0.198,3.008-0.977,4.024-2.024C1203.869,508.867,1204.33,507.541,1204.128,506.137z M1093.723,362.521
			c6.434-0.977,8.871,4.093,7.992,14.229c-0.389,5.655-2.045,11.697-10.233,14.229L1093.723,362.521z"/>
	</g>
</g>
</svg>
