<?xml version="1.0" encoding="utf-8"?>
<!-- Generator: Adobe Illustrator 16.0.2, SVG Export Plug-In . SVG Version: 6.00 Build 0)  -->
<!DOCTYPE svg PUBLIC "-//W3C//DTD SVG 1.1//EN" "http://www.w3.org/Graphics/SVG/1.1/DTD/svg11.dtd">
<svg version="1.1" id="Layer_1" xmlns="http://www.w3.org/2000/svg" xmlns:xlink="http://www.w3.org/1999/xlink" x="0px" y="0px"
	 width="556px" height="344px" viewBox="0 0 556 344" enable-background="new 0 0 556 344" xml:space="preserve">
<rect fill="#DC4559" width="556" height="344"/>
<g>
	<path fill="#FFFFFF" d="M249.646,107.572c1.796-1.457,2.825-3.588,2.825-5.827c0-2.238-1.036-4.371-2.83-5.828
		c-3.481-2.83-5.481-6.986-5.481-11.405c0-4.42,2-8.573,5.491-11.392c1.528-1.253,3.798-1.013,5.038,0.529
		c1.245,1.541,1.007,3.792-0.534,5.045c-1.796,1.459-2.824,3.576-2.824,5.817c0,2.239,1.036,4.371,2.834,5.84
		c3.48,2.83,5.479,6.984,5.479,11.392c0,4.42-2,8.576-5.484,11.404h-0.005c-1.789,1.457-2.824,3.592-2.824,5.828
		c0,2.239,1.036,4.358,2.834,5.829c1.536,1.254,1.769,3.505,0.519,5.045c-0.712,0.869-1.743,1.324-2.78,1.324
		c-0.796,0-1.595-0.265-2.263-0.806c-3.481-2.829-5.481-6.982-5.481-11.392c0-4.409,2-8.561,5.467-11.391
		C249.632,107.585,249.641,107.572,249.646,107.572z"/>
</g>
<g>
	<path fill="#FFFFFF" d="M270.337,101.745c0,4.42,1.999,8.576,5.49,11.404c0.658,0.53,1.458,0.796,2.253,0.796
		c1.047,0,2.083-0.459,2.787-1.337c1.244-1.542,1.006-3.792-0.535-5.031c-1.795-1.459-2.824-3.591-2.824-5.828
		c0-2.239,1.037-4.372,2.834-5.829c3.482-2.83,5.48-6.984,5.48-11.403c0-4.421-1.996-8.563-5.48-11.393
		c-1.801-1.458-2.834-3.589-2.834-5.828s1.037-4.371,2.834-5.84c1.538-1.24,1.77-3.492,0.52-5.034
		c-1.25-1.526-3.507-1.782-5.047-0.514c-3.481,2.83-5.479,6.971-5.479,11.391c0,4.41,1.998,8.562,5.479,11.392h0.007l0.005,0.013
		c1.797,1.458,2.823,3.576,2.823,5.818c0,2.24-1.036,4.37-2.835,5.839C272.336,93.183,270.337,97.337,270.337,101.745z"/>
</g>
<g>
	<path fill="#FFFFFF" d="M301.994,107.572c-3.477,2.831-5.48,6.982-5.48,11.404c0,4.41,2.001,8.563,5.48,11.392
		c0.671,0.544,1.473,0.806,2.267,0.806c1.041,0,2.071-0.455,2.778-1.324c1.254-1.54,1.02-3.791-0.516-5.045
		c-1.796-1.471-2.83-3.589-2.83-5.829c0-2.25,1.034-4.371,2.83-5.84c3.48-2.82,5.479-6.971,5.479-11.391
		c0-4.408-1.998-8.562-5.479-11.392c-1.796-1.47-2.83-3.601-2.83-5.84c0-2.241,1.029-4.358,2.826-5.817
		c1.533-1.253,1.773-3.515,0.52-5.045c-1.238-1.542-3.488-1.783-5.035-0.529c-3.486,2.819-5.487,6.972-5.487,11.392
		c0,4.419,2.001,8.571,5.482,11.405c1.802,1.457,2.835,3.589,2.835,5.828c0,2.24-1.029,4.371-2.824,5.827H301.994z"/>
</g>
<g>
	<path fill="#FFFFFF" d="M392.994,254.035h-9.67c-3.551-52.539-45.618-94.576-98.181-98.081c0.015-0.179,0.104-0.337,0.104-0.53
		v-3.85c0-3.962-3.207-7.167-7.168-7.167c-3.962,0-7.171,3.205-7.171,7.167v3.85c0,0.192,0.09,0.352,0.109,0.53
		c-52.561,3.504-94.629,45.542-98.181,98.081h-9.669c-3.956,0-7.169,3.205-7.169,7.18c0,3.959,3.214,7.162,7.169,7.162h229.827
		c3.957,0,7.168-3.203,7.168-7.162C400.162,257.24,396.951,254.035,392.994,254.035z M180.015,254.035
		c3.7-50.925,46.206-91.263,98.065-91.263c51.859,0,94.367,40.338,98.068,91.263H180.015z"/>
</g>
<g>
	<path fill="#FFFFFF" d="M363.604,239.883c-4.111-16.574-12.933-31.538-25.513-43.275c-0.621-0.579-1.434-0.898-2.281-0.898
		c-0.934,0-1.797,0.377-2.436,1.063c-1.262,1.35-1.186,3.468,0.162,4.731c11.617,10.814,19.775,24.645,23.584,39.987
		c0.369,1.491,1.701,2.533,3.234,2.533c0.264,0,0.547-0.032,0.845-0.099C362.967,243.462,364.045,241.656,363.604,239.883z"/>
</g>
</svg>
