<?xml version="1.0" encoding="utf-8"?>
<!-- Generator: Adobe Illustrator 16.0.2, SVG Export Plug-In . SVG Version: 6.00 Build 0)  -->
<!DOCTYPE svg PUBLIC "-//W3C//DTD SVG 1.1//EN" "http://www.w3.org/Graphics/SVG/1.1/DTD/svg11.dtd">
<svg version="1.1" id="Layer_1" xmlns="http://www.w3.org/2000/svg" xmlns:xlink="http://www.w3.org/1999/xlink" x="0px" y="0px"
	 width="1830.001px" height="800px" viewBox="0 0 1830.001 800" enable-background="new 0 0 1830.001 800" xml:space="preserve">
<rect fill="#FFFFFF" width="1830.001" height="800"/>
<path fill="#00A7FF" d="M1102.907,259.195l-0.645-0.645l-0.039-0.031c-3.847-2.496-7.929,1.842-11.876,6.034
	c-0.719,0.759-1.458,1.552-2.17,2.265l-54.485,54.486c-0.849,0.849-1.716,1.788-2.563,2.689c-2.156,2.328-4.384,4.735-6.496,5.913
	c-0.736,0.416-3.266,1.631-4.925-0.03c-0.223-0.223-0.423-0.488-0.591-0.799c-1.692-3.066,2.681-7.195,6.536-10.839
	c0.792-0.741,1.542-1.449,2.23-2.139l54.792-54.79c0.723-0.723,1.486-1.445,2.303-2.211c4.271-4.013,8.678-8.17,5.968-11.869
	l-0.536-0.537l-0.035-0.031c-3.479-2.281-6.355,0.596-9.684,3.924l-63.292,63.293c-0.61,0.609-1.174,1.195-1.711,1.769
	c-3.131,3.295-5.024,5.284-8.272,2.72c-1.614-1.275-1.547-3.386-0.715-4.594c1.741-2.562,4.608-5.41,7.383-8.156
	c0.455-0.455,0.908-0.906,1.357-1.355c9.754-9.754,18.613-18.478,27.191-26.904c8.525-8.387,17.336-17.053,26.963-26.68
	c0.81-0.809,1.695-1.635,2.63-2.508c4.451-4.148,9.494-8.85,6.854-12.809l-0.609-0.61l-0.036-0.03
	c-3.78-2.486-7.729,1.683-11.551,5.717c-0.67,0.707-1.367,1.441-2.04,2.114l-55.021,55.022c-0.828,0.827-1.665,1.729-2.553,2.685
	c-2.229,2.407-4.534,4.892-6.586,6.001c-1.655,0.897-3.732,0.744-4.828-0.353c-0.582-0.582-0.863-1.393-0.811-2.351
	c0.148-2.858,3.605-6.111,6.944-9.252c0.851-0.802,1.653-1.555,2.406-2.309l53.947-53.947c0.771-0.767,1.61-1.555,2.499-2.379
	c4.214-3.926,8.992-8.371,6.295-12.246l-0.555-0.553c-3.389-2.545-7.191,1.257-10.542,4.609
	c-8.507,8.505-17.515,16.969-26.223,25.152c-8.686,8.158-17.668,16.595-26.121,25.052c-3.202,3.202-6.462,6.268-9.614,9.237
	c-3.116,2.924-6.331,5.945-9.438,9.054c-1.48,1.479-2.905,2.809-4.284,4.097c-1.857,1.729-3.611,3.365-5.284,5.174
	c-6.692,7.195-5.257,14.981-3.869,22.509c0.375,2.05,0.769,4.157,0.976,6.195c0.291,2.823,0.368,6.442-1.569,9.425
	c-0.697,1.056-1.758,2.049-2.884,3.096c-0.501,0.463-1.02,0.944-1.528,1.454c-7.306,7.305-14.986,14.521-22.422,21.495
	c-6.342,5.957-12.886,12.117-19.192,18.309c-0.348-0.168-0.71-0.316-1.075-0.463c-0.16-7.205-0.275-14.442-0.275-21.611
	c0-2.645-0.093-5.416-0.186-8.095c-0.09-2.746-0.189-5.584-0.189-8.37c0-1.047-0.018-2.088-0.031-3.115
	c-0.059-4.615-0.123-8.977,1.137-12.383c2.135-5.782,6.122-10.028,10.338-14.522c1.399-1.483,2.838-3.021,4.199-4.61
	c6.167-7.199,10.49-13.956,13.244-20.648c3.323-8.082,4.979-17.85,4.979-29.037c0.015-9.836-1.085-19.567-3.302-30.607
	c-1.979-9.832-4.553-18.498-7.628-26.486c-3.044-7.928-6.734-16.162-12.161-22.033c-2.647-2.868-6.509-5.587-9.927-7.652
	c-2.76-1.672-7.63-3.566-12.154-3.632c-4.604,0.065-8.36,1.96-11.123,3.632c-3.421,2.065-6.766,4.784-9.414,7.652
	c-5.419,5.871-8.854,14.102-11.9,22.033c-3.072,7.988-5.521,16.654-7.498,26.486c-2.217,11.04-3.248,20.771-3.248,30.607
	c0,11.188,1.688,20.955,5.008,29.037c2.756,6.692,7.096,13.453,13.265,20.648c1.36,1.589,2.812,3.127,4.206,4.61
	c4.219,4.494,8.205,8.74,10.346,14.522c1.257,3.406,1.2,7.768,1.136,12.383c-0.013,1.027-0.033,2.072-0.033,3.115
	c0,2.783-0.093,5.624-0.188,8.37c-0.09,2.679-0.186,5.45-0.186,8.095c0,6.584-0.093,13.23-0.23,19.854
	c-4.559-4.303-9.15-8.691-13.634-13.175c-12.706-12.706-26.079-25.934-39.741-39.318c-0.404-0.384-1.959-1.994-4.324-4.42
	c-47.553-48.836-79.467-79.666-94.863-91.617l-0.582-0.459c-4.396-3.42-5.872-4.57-9.313-5.014
	c-2.332-0.297-4.521,0.504-6.344,2.327c-1.713,1.713-2.961,4.292-3.25,6.728c-0.867,7.363,0.616,12.456,3.305,21.701
	c1.839,6.335,8.758,20.379,12.771,26.635c9.021,14.053,30.438,40.352,44.824,51.239c1.896,1.435,3.734,2.851,5.511,4.226
	c15.19,11.719,27.185,20.982,52.905,23.686c0.867,0.092,1.682,0.176,2.456,0.251c8.387,0.843,11.212,1.126,16.894,7.13
	c4.079,4.316,7.74,8.151,11.752,12.306c-0.799,0.368-1.587,0.78-2.346,1.277c-3.852-2.361-8.679-2.722-12.715-2.722
	c-0.561,0-1.097,0.008-1.595,0.014c-0.372,0.003-0.721,0.008-1.036,0.008h-7.206l-0.215,2.816
	c-7.938-2.529-17.743-3.81-25.277-3.203c-7.196,0.582-13.157,2.967-17.741,6.941l1.623-21.102l-7.296-0.968
	c-1.54-0.204-3.121-0.309-4.696-0.309c-8.609,0-15.427,2.853-18.93,7.521c-6.475-5.941-16.96-6.95-23.236-6.95
	c-15.433,0-22.79,6.263-26.245,11.517c-4.095,6.223-4.735,14.501-1.669,21.611c0.984,2.274,2.344,4.391,3.924,6.363
	c-3.922,1.889-6.743,5.068-8.016,9.254c-2.244,7.382,1.143,16.102,8.069,20.744c0.017,0.01,0.034,0.02,0.05,0.031
	c-0.945,0.988-1.728,1.993-2.364,2.96c-3.877,5.894-4.485,13.729-1.586,20.454c0.829,1.914,1.935,3.703,3.212,5.378
	c-3.397,1.841-5.848,4.763-6.995,8.537c-2.142,7.041,1.077,15.351,7.669,19.767c5.469,3.646,13.396,4.412,19.084,4.412
	c11.588,0,18.574-3.383,22.738-6.956c0.455,0.683,0.943,1.341,1.506,1.947c2.182,2.353,6.213,5.159,13.023,5.159
	c3.672,0,6.839-0.463,9.529-1.351c-0.169,1.872-0.057,3.682,0.256,5.355c-14.958,14.788-31.142,30.857-34.422,34.138
	c-6.086,6.086-6.772,13.837-1.684,19.282c0.111,0.124,0.232,0.245,0.344,0.357c5.093,5.09,12.912,4.729,19.019-0.884
	c2.329-2.136,46.413-46.382,48.565-48.698c0.855-0.913,1.708-1.827,2.563-2.725c3.383-3.548,6.822-7.19,10.176-10.741
	c0.09,0.104,0.163,0.211,0.256,0.313c3.047,3.287,7.534,4.953,13.338,4.953c6.131,0,11.387-1.949,14.823-5.4
	c4.246,3.155,9.669,4.98,15.955,5.314c0.666,0.036,1.322,0.054,1.974,0.054c2.238,0,4.4-0.228,6.467-0.644
	c-0.028,1.72-0.04,3.441-0.04,5.133c0,2.652,0,5.405-0.113,8.132c-0.241,6.036-0.325,12.037-0.377,16.597
	c-0.054,4.98-0.213,10.049-0.365,14.949c-0.19,5.952-0.38,12.101-0.38,18.114c0,9.554-0.198,27.964-0.747,39.49
	c-0.608,12.619,4.162,20.445,13.074,21.466c0.518,0.062,1.033,0.084,1.537,0.097c4.524-0.013,2.06-0.035,2.573-0.097
	c8.913-1.025,14.711-8.847,14.11-21.466c-0.547-11.526-0.747-29.927-0.747-39.49c0-6.014-0.192-12.162-0.38-18.114
	c-0.155-4.9-0.311-9.969-0.366-14.949c-0.05-4.56-0.13-10.561-0.376-16.597c-0.108-2.727-0.108-5.479-0.112-8.132
	c0-1.725-0.013-3.479-0.044-5.23c1.847-0.115,3.688-0.315,5.501-0.621l5.815-0.984l0.369-3.493c0.015,0.103,0.022,0.158,0.022,0.158
	s2.592-15.255,8.774-6.381c0.116,0.167,0.222,0.308,0.33,0.457c0.778,1.248,1.662,2.421,2.661,3.499
	c4.824,5.2,11.969,8.064,20.118,8.064c5.763,0,10.964-1.334,15.351-3.758c14.668,14.746,45.337,45.521,48.248,48.693
	c3.696,4.024,6.99,6.178,10.36,6.777c3.564,0.631,7.683-0.669,10.256-3.241c0.213-0.213,0.412-0.435,0.603-0.654
	c4.001-4.763,3.693-11.493-0.76-16.734c-1.131-1.335-18.456-18.663-31.982-32.112c5.162-1.32,9.622-3.865,13.119-7.396
	c0.18,0.257,0.358,0.517,0.551,0.766c3.316,4.321,8.034,6.952,13.636,7.605c1.44,0.17,2.638,0.249,3.767,0.249
	c4.348,0,7.917-1.217,10.698-3.638c2.875,1.977,6.345,3.063,9.961,3.063c5.944,0,11.225-2.858,13.782-7.459
	c2.372-4.27,2.09-9.36-0.773-13.968l-1.757-2.825l3.394-44.124l-7.296-0.968c-1.861-0.246-3.755-0.373-5.63-0.373
	c-0.175,0-0.34,0.011-0.514,0.012l1.256-15.533c1.136,0.055,2.493,0.152,4.101,0.295l4.623,0.411l2.557-3.875
	c3.219-4.879,4.788-11.601,4.664-19.979l-0.102-6.908l-6.871-0.713c-1.534-0.159-3.019-0.24-4.411-0.24
	c-5.686,0-9.886,1.314-12.999,3.33c-3.932-2.263-8.786-2.583-12.441-2.583c-0.619,0-1.197,0.009-1.712,0.019
	c-0.337,0.005-0.639,0.01-0.899,0.01h-7.206l-0.304,3.979c-4.591-2.938-10.797-4.473-18.296-4.473
	c-9.641,0-17.548,3.014-23.056,8.367c-0.6-1.045-1.312-2.041-2.176-2.969c-3.385-3.637-8.293-5.481-14.589-5.481
	c-5.191,0-9.53,1.143-13.005,3.415c-2.717-2.064-6.567-3.415-11.813-3.415c-4.033,0-8.46,0.778-12.273,3.277
	c-0.055-0.033-0.113-0.058-0.168-0.09c1.574-1.644,3.142-3.298,4.659-4.947c6.021-6.521,12.338-13.112,18.284-19.056
	c1.162-1.161,7.244-7.905,9.235-9.387c3.068-2.281,6.429-2.201,9.338-1.939c2.261,0.193,4.544,0.605,6.748,0.998
	c7.219,1.304,14.683,2.641,22.036-3.504c2.18-1.827,4.286-4.096,6.514-6.501c0.874-0.937,1.777-1.901,2.683-2.851
	c1.876-1.949,3.777-3.91,5.679-5.875c4.144-4.27,8.422-8.687,12.609-13.188c2.721-2.904,5.572-5.828,8.336-8.648
	c3.302-3.379,6.718-6.863,9.962-10.406c2.821-3.082,5.855-6.17,8.792-9.148c3.154-3.202,6.412-6.509,9.497-9.909
	c2.614-2.864,5.411-5.743,8.119-8.521c1.807-1.851,3.673-3.771,5.505-5.707c0.439-0.467,0.893-0.928,1.34-1.39
	C1102.184,265.729,1105.171,262.689,1102.907,259.195z"/>
<g>
	<g>
		<path fill="#FFFFFF" d="M779.616,385.68c3.958,6.184,0,17.23-12.45,14.016c-0.329-11.791-4.122-16.738-8.74-16.738
			c-5.441,0-4.616,7.092-1.565,10.637c3.05,3.793,18.056,14.84,22.014,22.344c4.452,8.409-0.083,21.518-22.426,21.518
			c-4.7,0-11.872-0.577-16.078-3.379c-7.997-5.359-8.573-20.612,9.895-17.232c0.329,10.225,2.804,16.489,7.997,16.489
			c5.524,0,5.111-7.255,1.402-11.789c-4.123-4.782-16.737-11.873-20.448-20.448c-3.627-8.409-0.494-22.262,20.777-22.262
			C766.918,378.834,776.317,380.318,779.616,385.68z"/>
		<path fill="#FFFFFF" d="M802.123,426.738c1.731,0.412,3.709,0.412,5.441,0c2.391,7.008-4.123,10.883-11.625,10.883
			c-8.492,0-11.131-4.04-10.472-12.697l2.969-39.658c0.411-5.276,9.316-7.832,17.396-6.761L802.123,426.738z"/>
		<path fill="#FFFFFF" d="M836.666,421.049c-1.07,16.654-7.09,17.479-14.098,16.654c-9.895-1.154-14.264-10.718-12.368-23.826
			c0.989-6.598,4.37-18.881,20.695-20.201c7.173-0.576,16.241,0.825,22.921,3.051l-2.475,30.012c0.99,0.412,2.804,0.412,3.793,0
			c7.586,12.201-20.612,17.396-17.643-5.689H836.666z M837.656,396.809c-4.864,0-7.586,5.854-8.74,14.512
			c-1.483,12.037,0,15.252,1.979,15.5c1.979,0.248,3.38-0.577,3.958-5.605L837.656,396.809z"/>
		<path fill="#FFFFFF" d="M900.152,409.506c0.741-6.349,2.391-15.996,15.252-15.996c11.131,0,12.284,7.257,11.542,17.563
			l-1.896,25.147c-4.368,0.824-12.119,1.649-18.138,0l1.73-22.921c0.66-9.15,1.65-14.017-1.483-14.017
			c-2.308,0-4.204,5.029-4.616,11.79l-1.896,25.147c-4.123,0.824-11.543,1.649-17.314,0l1.731-22.921
			c0.742-9.729,1.73-14.017-1.731-14.017c-2.887,0-3.957,5.112-4.287,10.472l-1.979,26.466c-4.122,0.824-11.543,1.649-17.313,0
			l3.215-42.132c4.37,0,14.347-0.741,13.521,6.514c-0.494,4.453-0.577,5.359-0.742,8.823l0.825,0.081
			c0.411-5.771,1.565-15.996,14.016-15.996c5.937,0,9.481,2.31,9.481,7.009c0,1.979-0.66,6.431-0.741,8.906L900.152,409.506z"/>
		<path fill="#FFFFFF" d="M972.292,409.506c0.741-6.349,2.391-15.996,15.253-15.996c11.13,0,12.283,7.257,11.541,17.563
			l-1.896,25.147c-4.369,0.824-12.119,1.649-18.138,0l1.73-22.921c0.66-9.15,1.649-14.017-1.484-14.017
			c-2.308,0-4.204,5.029-4.616,11.79l-1.896,25.147c-4.122,0.824-11.543,1.649-17.314,0l1.731-22.921
			c0.742-9.729,1.73-14.017-1.731-14.017c-2.886,0-3.957,5.112-4.287,10.472l-1.979,26.466c-4.122,0.824-11.543,1.649-17.313,0
			l3.216-42.132c4.369,0,14.346-0.741,13.521,6.514c-0.494,4.453-0.577,5.359-0.741,8.823l0.824,0.081
			c0.412-5.771,1.566-15.996,14.016-15.996c5.938,0,9.482,2.31,9.482,7.009c0,1.979-0.66,6.431-0.742,8.906L972.292,409.506z"/>
		<path fill="#FFFFFF" d="M1046.411,409.094c-1.567,8.822-14.841,11.461-25.395,7.915c0.824,3.958,3.628,6.515,8.657,7.255
			c6.513,1.154,12.862-2.639,14.924-6.432c2.638,12.286-7.586,20.448-21.025,19.706c-13.934-0.741-21.106-9.481-19.952-23.661
			c0.989-12.451,9.234-20.283,23.745-20.283C1039.567,393.594,1048.143,398.211,1046.411,409.094z M1029.922,398.294
			c0.082-1.567-0.825-1.731-1.567-1.649c-4.534,0.329-5.111,5.028-5.854,15.748c-0.083,1.236-0.083,1.813,0,2.555
			c4.616,0.33,6.267-1.648,6.678-6.844L1029.922,398.294z"/>
		<path fill="#FFFFFF" d="M1066.774,409.506c0.577-6.76,0.577-17.809,18.056-15.996c0.082,5.525-0.66,11.462-3.38,15.584
			c-11.131-0.99-11.956,0-12.203,2.639l-1.979,24.487c-4.122,0.824-11.543,1.649-17.313,0l3.215-42.132
			c3.629,0,14.512-0.824,13.521,6.514c-0.329,2.639-0.742,5.938-0.742,8.823L1066.774,409.506z"/>
	</g>
	<path fill="#FFFFFF" d="M775.215,446.739c3.636,5.682,0,15.831-11.438,12.877c-0.302-10.831-3.786-15.377-8.029-15.377
		c-4.999,0-4.241,6.515-1.438,9.771c2.802,3.486,16.588,13.636,20.225,20.528c4.09,7.728-0.076,19.771-20.604,19.771
		c-4.317,0-10.907-0.53-14.771-3.105c-7.348-4.924-7.877-18.938,9.09-15.832c0.304,9.393,2.575,15.149,7.348,15.149
		c5.075,0,4.697-6.666,1.288-10.83c-3.788-4.395-15.378-10.91-18.786-18.787c-3.332-7.727-0.455-20.453,19.089-20.453
		C763.55,440.451,772.185,441.816,775.215,446.739z"/>
	<path fill="#FFFFFF" d="M805.301,455.299c0.833,2.197,0.303,4.394-1.212,5.302h-6.438l-1.818,23.861
		c2.046,0.454,4.848,0.454,6.894,0c-0.151,8.408-5.075,9.999-12.726,9.999c-6.516,0-10.227-3.713-9.619-11.665l1.742-22.195h-4.546
		c-0.757-2.499-0.228-4.394,1.212-5.302h3.788l0.302-4.167c0.379-4.848,8.56-7.196,15.984-6.21l-0.759,10.377H805.301z"/>
	<path fill="#FFFFFF" d="M827.917,487.87c0-8.636,6.817-25.753,4.849-32.571c4.165-1.363,9.922-1.439,13.406,0.985
		c2.5,2.196,3.408,5.681,0.303,13.633l-8.332,21.135c-3.787,9.62-10.908,18.027-25.375,18.027c-2.35,0-5-6.665-1.439-12.572
		c6.287,0,9.545,0,12.801-1.743l0.303-0.758c-2.802,0.455-6.438-0.227-9.014-0.833l-7.423-37.874
		c4.999-1.97,16.437-1.061,16.74,2.272l2.424,30.299H827.917z"/>
	<path fill="#FFFFFF" d="M866.016,484.462c1.59,0.379,3.408,0.379,4.998,0c2.197,6.438-3.786,9.999-10.68,9.999
		c-7.803,0-10.226-3.713-9.62-11.665l2.728-36.436c0.378-4.848,8.56-7.196,15.982-6.212L866.016,484.462z"/>
	<path fill="#FFFFFF" d="M912.523,468.251c-1.438,8.105-13.635,10.53-23.33,7.272c0.758,3.637,3.333,5.984,7.953,6.666
		c5.984,1.06,11.817-2.425,13.711-5.909c2.424,11.288-6.969,18.787-19.316,18.104c-12.801-0.683-19.391-8.711-18.33-21.74
		c0.909-11.437,8.482-18.635,21.814-18.635C906.237,454.01,914.115,458.253,912.523,468.251z M897.375,458.329
		c0.075-1.44-0.758-1.592-1.44-1.515c-4.165,0.302-4.696,4.62-5.378,14.468c-0.075,1.136-0.075,1.666,0,2.348
		c4.242,0.302,5.757-1.516,6.135-6.288L897.375,458.329z"/>
	<path fill="#FFFFFF" d="M934.414,453.178c-0.228,3.56-0.454,7.044-0.758,10.528c4.924,0.077,9.695,0,14.922-0.227
		c0.454,2.5,0.304,5.075-1.362,7.575c-4.924-0.229-9.47-0.303-14.091-0.229c-0.605,7.196-1.287,14.468-2.12,22.347
		c-4.924,0.833-9.999,0.833-14.923,0c2.046-17.194,3.334-34.313,4.016-51.509c11.285,0.53,26.359,1.742,33.025-0.757
		c1.971,6.816-0.303,13.406-5.833,13.559C943.579,454.466,937.141,453.632,934.414,453.178z"/>
	<path fill="#FFFFFF" d="M992.359,474.236c-0.908,12.271-9.695,20.148-21.967,20.148c-12.271,0-19.77-8.029-18.86-20.148
		c0.907-12.271,9.695-20.149,21.891-20.149C985.77,454.087,993.269,462.117,992.359,474.236z M975.922,458.783
		c0-0.909-0.15-1.667-1.514-1.439c-3.561,0.606-5.531,6.59-5.909,16.816l-0.682,15.527c0,0.986,0.227,1.667,1.515,1.517
		c3.788-0.456,5.757-6.667,6.06-17.044L975.922,458.783z"/>
	<path fill="#FFFFFF" d="M1037.261,474.236c-0.909,12.271-9.696,20.148-21.967,20.148s-19.771-8.029-18.861-20.148
		c0.908-12.271,9.696-20.149,21.892-20.149C1030.671,454.087,1038.17,462.117,1037.261,474.236z M1020.823,458.783
		c0-0.909-0.151-1.667-1.515-1.439c-3.561,0.606-5.53,6.59-5.908,16.816l-0.682,15.527c0,0.986,0.227,1.667,1.515,1.517
		c3.788-0.456,5.757-6.667,6.06-17.044L1020.823,458.783z"/>
	<path fill="#FFFFFF" d="M1077.119,484.462c1.136,0.379,2.349,0.379,3.484,0c6.968,11.21-18.938,15.982-16.21-5.228h-0.758
		c-0.984,15.15-6.515,15.907-12.953,15.15c-9.089-1.062-13.104-9.848-11.362-21.74c0.909-6.06,4.016-17.346,19.014-18.558
		c1.742-0.151,3.862-0.077,5.756,0.379l0.908-10.53c0.305-3.332,8.105-4.771,15.529-3.787L1077.119,484.462z M1063.863,457.646
		c-4.242,0.228-6.364,4.318-7.348,12.649c-1.363,11.061,0,14.015,1.818,14.241c1.362,0.151,3.18-0.53,3.635-5.15L1063.863,457.646z"
		/>
</g>
<path fill="#FF8B84" d="M378.238,315.977l-0.398-0.399l-0.024-0.019c-2.377-1.542-4.9,1.139-7.34,3.729
	c-0.444,0.47-0.901,0.959-1.341,1.399l-33.674,33.676c-0.524,0.523-1.06,1.104-1.584,1.662c-1.333,1.438-2.709,2.926-4.015,3.653
	c-0.455,0.258-2.018,1.008-3.043-0.019c-0.138-0.137-0.261-0.302-0.365-0.494c-1.046-1.895,1.657-4.447,4.04-6.698
	c0.49-0.458,0.953-0.896,1.378-1.322l33.864-33.862c0.446-0.446,0.918-0.892,1.423-1.366c2.64-2.479,5.363-5.049,3.688-7.335
	l-0.332-0.333l-0.021-0.019c-2.15-1.409-3.928,0.369-5.985,2.426l-39.117,39.116c-0.377,0.377-0.726,0.74-1.058,1.094
	c-1.935,2.036-3.105,3.266-5.113,1.682c-0.998-0.789-0.956-2.094-0.441-2.84c1.076-1.583,2.848-3.344,4.563-5.041
	c0.281-0.282,0.562-0.561,0.839-0.837c6.028-6.029,11.504-11.421,16.806-16.629c5.269-5.184,10.714-10.538,16.664-16.489
	c0.5-0.5,1.047-1.01,1.625-1.55c2.751-2.563,5.868-5.47,4.235-7.916l-0.376-0.377l-0.022-0.019
	c-2.336-1.537-4.776,1.039-7.139,3.532c-0.414,0.438-0.845,0.892-1.261,1.308l-34.005,34.005c-0.512,0.512-1.029,1.069-1.578,1.66
	c-1.378,1.487-2.802,3.022-4.07,3.709c-1.023,0.554-2.307,0.459-2.984-0.218c-0.36-0.36-0.534-0.861-0.501-1.454
	c0.092-1.766,2.228-3.776,4.292-5.718c0.526-0.495,1.022-0.96,1.487-1.427l33.341-33.341c0.477-0.474,0.996-0.96,1.544-1.471
	c2.604-2.427,5.558-5.174,3.891-7.567l-0.343-0.343c-2.094-1.573-4.444,0.777-6.515,2.85c-5.258,5.256-10.825,10.486-16.207,15.545
	c-5.368,5.042-10.919,10.256-16.144,15.482c-1.979,1.979-3.994,3.874-5.942,5.71c-1.926,1.807-3.913,3.674-5.833,5.595
	c-0.915,0.914-1.795,1.736-2.647,2.532c-1.148,1.068-2.232,2.079-3.266,3.197c-4.136,4.448-3.249,9.259-2.391,13.911
	c0.232,1.267,0.475,2.569,0.603,3.829c0.18,1.744,0.228,3.981-0.97,5.824c-0.431,0.654-1.086,1.267-1.782,1.915
	c-0.31,0.285-0.63,0.582-0.944,0.897c-4.515,4.515-9.262,8.976-13.858,13.284c-3.919,3.684-7.964,7.49-11.861,11.315
	c-0.215-0.103-0.439-0.194-0.664-0.285c-0.099-4.453-0.17-8.926-0.17-13.356c0-1.635-0.058-3.348-0.115-5.003
	c-0.056-1.697-0.117-3.451-0.117-5.174c0-0.646-0.011-1.289-0.019-1.925c-0.037-2.852-0.076-5.548,0.702-7.653
	c1.319-3.573,3.784-6.197,6.389-8.976c0.865-0.917,1.754-1.867,2.595-2.849c3.812-4.45,6.483-8.626,8.186-12.763
	c2.054-4.993,3.077-11.031,3.077-17.944c0.009-6.079-0.671-12.095-2.041-18.918c-1.223-6.076-2.813-11.432-4.714-16.369
	c-1.881-4.898-4.162-9.989-7.516-13.618c-1.636-1.771-4.023-3.452-6.135-4.729c-1.706-1.032-4.716-2.204-7.512-2.244
	c-2.845,0.04-5.167,1.212-6.875,2.244c-2.114,1.276-4.181,2.957-5.817,4.729c-3.35,3.629-5.473,8.716-7.355,13.618
	c-1.899,4.938-3.412,10.293-4.633,16.369c-1.371,6.823-2.008,12.839-2.008,18.918c0,6.913,1.042,12.951,3.095,17.944
	c1.703,4.137,4.386,8.315,8.198,12.763c0.84,0.981,1.737,1.932,2.599,2.849c2.607,2.778,5.071,5.402,6.395,8.976
	c0.776,2.105,0.742,4.802,0.702,7.653c-0.008,0.636-0.021,1.281-0.021,1.925c0,1.72-0.057,3.477-0.117,5.174
	c-0.054,1.655-0.113,3.368-0.113,5.003c0,4.066-0.058,8.171-0.143,12.261c-2.82-2.661-5.652-5.359-8.426-8.134
	c-7.852-7.852-16.119-16.026-24.562-24.3c-0.25-0.236-1.211-1.231-2.672-2.73c-29.39-30.183-49.114-49.237-58.628-56.624
	l-0.36-0.282c-2.718-2.115-3.63-2.825-5.757-3.101c-1.44-0.184-2.794,0.313-3.92,1.439c-1.059,1.059-1.83,2.653-2.008,4.158
	c-0.535,4.551,0.381,7.697,2.042,13.411c1.137,3.916,5.412,12.597,7.894,16.462c5.574,8.685,18.812,24.938,27.703,31.668
	c1.171,0.887,2.308,1.762,3.405,2.61c9.387,7.243,16.801,12.969,32.697,14.64c0.536,0.057,1.041,0.108,1.519,0.155
	c5.183,0.521,6.929,0.695,10.44,4.405c2.521,2.668,4.784,5.038,7.264,7.606c-0.494,0.228-0.98,0.482-1.449,0.789
	c-2.382-1.459-5.365-1.682-7.859-1.682c-0.347,0-0.678,0.004-0.986,0.008c-0.23,0.002-0.445,0.005-0.64,0.005h-4.454l-0.133,1.742
	c-4.906-1.564-10.966-2.355-15.623-1.98c-4.447,0.358-8.132,1.832-10.965,4.29l1.003-13.042l-4.509-0.598
	c-0.952-0.127-1.929-0.191-2.902-0.191c-5.32,0-9.535,1.763-11.699,4.647c-4.002-3.671-10.482-4.295-14.36-4.295
	c-9.539,0-14.086,3.871-16.221,7.117c-2.53,3.847-2.927,8.963-1.031,13.357c0.607,1.405,1.448,2.714,2.424,3.933
	c-2.424,1.167-4.167,3.133-4.954,5.719c-1.387,4.563,0.707,9.952,4.987,12.821c0.01,0.006,0.021,0.013,0.03,0.02
	c-0.584,0.611-1.067,1.231-1.46,1.829c-2.396,3.643-2.773,8.485-0.98,12.642c0.512,1.183,1.195,2.288,1.986,3.323
	c-2.101,1.138-3.615,2.943-4.324,5.276c-1.324,4.352,0.666,9.487,4.739,12.217c3.381,2.254,8.281,2.727,11.795,2.727
	c7.161,0,11.48-2.091,14.052-4.299c0.282,0.422,0.584,0.829,0.932,1.203c1.348,1.454,3.839,3.188,8.049,3.188
	c2.27,0,4.227-0.285,5.89-0.834c-0.104,1.157-0.036,2.274,0.158,3.31c-9.245,9.141-19.247,19.071-21.275,21.099
	c-3.762,3.761-4.186,8.552-1.041,11.917c0.069,0.076,0.144,0.151,0.213,0.221c3.147,3.146,7.979,2.923,11.753-0.546
	c1.44-1.32,28.685-28.666,30.015-30.098c0.529-0.564,1.056-1.129,1.585-1.684c2.09-2.193,4.217-4.444,6.289-6.639
	c0.055,0.063,0.101,0.13,0.159,0.193c1.882,2.032,4.656,3.061,8.243,3.061c3.789,0,7.038-1.204,9.162-3.337
	c2.624,1.95,5.975,3.078,9.86,3.284c0.412,0.022,0.817,0.033,1.219,0.033c1.383,0,2.72-0.141,3.998-0.397
	c-0.018,1.063-0.025,2.127-0.025,3.172c0,1.64,0,3.341-0.069,5.026c-0.149,3.73-0.201,7.44-0.233,10.257
	c-0.033,3.078-0.131,6.211-0.226,9.239c-0.118,3.679-0.235,7.479-0.235,11.195c0,5.904-0.123,17.283-0.462,24.406
	c-0.376,7.799,2.572,12.636,8.081,13.268c0.32,0.037,0.639,0.051,0.95,0.059c2.796-0.008,1.273-0.021,1.59-0.059
	c5.509-0.635,9.092-5.469,8.721-13.268c-0.338-7.123-0.461-18.496-0.461-24.406c0-3.717-0.119-7.517-0.235-11.195
	c-0.096-3.028-0.192-6.161-0.226-9.239c-0.031-2.816-0.081-6.526-0.232-10.257c-0.067-1.686-0.067-3.387-0.07-5.026
	c0-1.065-0.008-2.149-0.027-3.232c1.142-0.071,2.28-0.195,3.4-0.384l3.594-0.609l0.229-2.158c0.009,0.063,0.014,0.098,0.014,0.098
	s1.602-9.428,5.423-3.943c0.072,0.104,0.137,0.19,0.204,0.282c0.481,0.771,1.027,1.496,1.645,2.164
	c2.982,3.213,7.397,4.983,12.434,4.983c3.562,0,6.775-0.826,9.486-2.324c9.061,9.11,28.021,28.135,29.82,30.096
	c2.285,2.487,4.32,3.817,6.403,4.188c2.203,0.39,4.748-0.413,6.338-2.003c0.131-0.132,0.255-0.269,0.373-0.404
	c2.473-2.943,2.282-7.104-0.47-10.343c-0.699-0.826-11.416-11.544-19.777-19.857c3.192-0.816,5.957-2.377,8.119-4.56
	c0.111,0.158,0.222,0.318,0.34,0.474c2.05,2.67,4.965,4.296,8.427,4.7c0.891,0.104,1.63,0.154,2.328,0.154
	c2.687,0,4.893-0.753,6.612-2.249c1.777,1.222,3.921,1.895,6.156,1.895c3.674,0,6.937-1.769,8.518-4.611
	c1.466-2.639,1.292-5.785-0.478-8.633l-1.086-1.746l2.097-27.271l-4.509-0.598c-1.15-0.152-2.321-0.23-3.479-0.23
	c-0.108,0-0.21,0.007-0.317,0.007l0.776-9.6c0.702,0.034,1.541,0.094,2.535,0.183l2.857,0.254l1.58-2.396
	c1.989-3.015,2.959-7.169,2.883-12.349l-0.063-4.27l-4.247-0.439c-0.948-0.099-1.866-0.148-2.726-0.148
	c-3.514,0-6.11,0.812-8.034,2.057c-2.43-1.397-5.43-1.596-7.689-1.596c-0.383,0-0.74,0.007-1.058,0.012
	c-0.208,0.003-0.395,0.006-0.556,0.006h-4.454l-0.188,2.459c-2.837-1.815-6.673-2.765-11.308-2.765
	c-5.958,0-10.845,1.862-14.249,5.172c-0.371-0.646-0.811-1.261-1.345-1.834c-2.092-2.249-5.125-3.389-9.017-3.389
	c-3.208,0-5.89,0.706-8.038,2.11c-1.679-1.275-4.059-2.11-7.3-2.11c-2.493,0-5.229,0.48-7.585,2.025
	c-0.034-0.021-0.07-0.035-0.104-0.056c0.973-1.017,1.94-2.038,2.879-3.057c3.721-4.029,7.625-8.104,11.3-11.777
	c0.718-0.718,4.478-4.886,5.708-5.802c1.896-1.409,3.973-1.359,5.771-1.198c1.397,0.12,2.809,0.373,4.171,0.616
	c4.461,0.806,9.074,1.632,13.619-2.165c1.347-1.129,2.649-2.532,4.025-4.018c0.541-0.58,1.099-1.176,1.658-1.762
	c1.159-1.205,2.334-2.416,3.509-3.632c2.561-2.639,5.205-5.368,7.793-8.15c1.681-1.795,3.444-3.602,5.152-5.345
	c2.041-2.089,4.152-4.242,6.157-6.432c1.744-1.905,3.619-3.813,5.434-5.654c1.95-1.979,3.963-4.022,5.87-6.124
	c1.616-1.771,3.344-3.55,5.018-5.265c1.117-1.145,2.27-2.332,3.402-3.527c0.271-0.289,0.551-0.574,0.828-0.859
	C377.791,320.015,379.638,318.136,378.238,315.977z"/>
<g>
	<g>
		<path fill="#FFFFFF" d="M178.433,394.147c2.445,3.822,0,10.65-7.695,8.662c-0.203-7.286-2.547-10.344-5.401-10.344
			c-3.363,0-2.854,4.383-0.968,6.574c1.885,2.344,11.16,9.172,13.605,13.809c2.752,5.197-0.051,13.299-13.86,13.299
			c-2.904,0-7.338-0.356-9.937-2.088c-4.941-3.313-5.299-12.739,6.115-10.65c0.204,6.319,1.732,10.191,4.943,10.191
			c3.414,0,3.159-4.484,0.866-7.287c-2.547-2.955-10.343-7.338-12.637-12.637c-2.241-5.197-0.305-13.759,12.841-13.759
			C170.585,389.918,176.394,390.835,178.433,394.147z"/>
		<path fill="#FFFFFF" d="M192.342,419.524c1.071,0.255,2.294,0.255,3.363,0c1.478,4.331-2.547,6.726-7.184,6.726
			c-5.249,0-6.879-2.497-6.472-7.847l1.835-24.511c0.254-3.261,5.758-4.841,10.752-4.179L192.342,419.524z"/>
		<path fill="#FFFFFF" d="M213.692,416.008c-0.663,10.293-4.382,10.804-8.713,10.293c-6.115-0.713-8.815-6.624-7.644-14.726
			c0.612-4.077,2.701-11.669,12.791-12.484c4.434-0.357,10.039,0.51,14.166,1.885l-1.528,18.549c0.611,0.255,1.732,0.255,2.344,0
			c4.688,7.541-12.739,10.752-10.904-3.517H213.692z M214.304,401.026c-3.006,0-4.688,3.618-5.402,8.969
			c-0.917,7.439,0,9.427,1.223,9.58c1.223,0.153,2.089-0.357,2.446-3.465L214.304,401.026z"/>
		<path fill="#FFFFFF" d="M252.928,408.874c0.459-3.924,1.478-9.886,9.427-9.886c6.879,0,7.592,4.484,7.134,10.854l-1.172,15.542
			c-2.7,0.51-7.49,1.02-11.209,0l1.069-14.166c0.408-5.654,1.02-8.662-0.917-8.662c-1.426,0-2.598,3.108-2.853,7.286l-1.172,15.542
			c-2.547,0.51-7.134,1.02-10.701,0l1.07-14.166c0.458-6.012,1.069-8.662-1.07-8.662c-1.783,0-2.446,3.159-2.649,6.472
			l-1.224,16.356c-2.547,0.51-7.134,1.02-10.701,0l1.988-26.039c2.701,0,8.866-0.458,8.356,4.026
			c-0.306,2.752-0.357,3.312-0.458,5.453l0.509,0.05c0.254-3.566,0.968-9.886,8.662-9.886c3.669,0,5.86,1.427,5.86,4.331
			c0,1.224-0.408,3.975-0.458,5.505L252.928,408.874z"/>
		<path fill="#FFFFFF" d="M297.514,408.874c0.458-3.924,1.477-9.886,9.427-9.886c6.878,0,7.591,4.484,7.133,10.854l-1.172,15.542
			c-2.7,0.51-7.49,1.02-11.209,0l1.069-14.166c0.408-5.654,1.02-8.662-0.917-8.662c-1.426,0-2.598,3.108-2.853,7.286l-1.172,15.542
			c-2.548,0.51-7.134,1.02-10.701,0l1.07-14.166c0.458-6.012,1.069-8.662-1.07-8.662c-1.783,0-2.445,3.159-2.649,6.472
			l-1.224,16.356c-2.547,0.51-7.134,1.02-10.7,0l1.987-26.039c2.701,0,8.866-0.458,8.356,4.026
			c-0.306,2.752-0.357,3.312-0.458,5.453l0.509,0.05c0.255-3.566,0.968-9.886,8.662-9.886c3.669,0,5.86,1.427,5.86,4.331
			c0,1.224-0.408,3.975-0.458,5.505L297.514,408.874z"/>
		<path fill="#FFFFFF" d="M343.322,408.619c-0.969,5.452-9.172,7.083-15.695,4.892c0.509,2.446,2.242,4.026,5.351,4.484
			c4.025,0.713,7.949-1.631,9.224-3.975c1.63,7.593-4.688,12.637-12.995,12.179c-8.611-0.458-13.044-5.86-12.331-14.624
			c0.611-7.695,5.707-12.535,14.675-12.535C339.092,399.04,344.392,401.894,343.322,408.619z M333.131,401.944
			c0.051-0.969-0.51-1.07-0.969-1.02c-2.802,0.204-3.159,3.108-3.618,9.733c-0.051,0.764-0.051,1.12,0,1.579
			c2.853,0.203,3.873-1.02,4.127-4.23L333.131,401.944z"/>
		<path fill="#FFFFFF" d="M355.907,408.874c0.356-4.178,0.356-11.007,11.159-9.886c0.05,3.414-0.408,7.083-2.089,9.631
			c-6.879-0.612-7.39,0-7.542,1.631l-1.223,15.134c-2.547,0.51-7.134,1.02-10.7,0l1.987-26.039c2.243,0,8.969-0.509,8.357,4.026
			c-0.204,1.631-0.459,3.669-0.459,5.453L355.907,408.874z"/>
	</g>
	<path fill="#FFFFFF" d="M175.712,431.886c2.248,3.512,0,9.784-7.069,7.958c-0.187-6.693-2.341-9.503-4.962-9.503
		c-3.089,0-2.622,4.026-0.889,6.038c1.731,2.155,10.252,8.428,12.5,12.688c2.528,4.776-0.046,12.22-12.734,12.22
		c-2.668,0-6.741-0.328-9.128-1.92c-4.542-3.043-4.87-11.704,5.617-9.784c0.188,5.805,1.591,9.362,4.542,9.362
		c3.136,0,2.902-4.119,0.795-6.693c-2.341-2.716-9.504-6.742-11.61-11.611c-2.06-4.774-0.281-12.641,11.798-12.641
		C168.503,427.999,173.839,428.844,175.712,431.886z"/>
	<path fill="#FFFFFF" d="M194.307,437.176c0.515,1.358,0.187,2.716-0.749,3.276h-3.98l-1.123,14.748c1.264,0.28,2.996,0.28,4.26,0
		c-0.094,5.196-3.137,6.18-7.865,6.18c-4.026,0-6.32-2.295-5.946-7.21l1.077-13.718h-2.809c-0.468-1.544-0.141-2.715,0.749-3.276
		h2.341l0.187-2.575c0.233-2.996,5.29-4.447,9.877-3.838l-0.468,6.413H194.307z"/>
	<path fill="#FFFFFF" d="M208.284,457.306c0-5.337,4.213-15.916,2.996-20.13c2.575-0.843,6.133-0.89,8.286,0.608
		c1.546,1.357,2.106,3.512,0.187,8.426l-5.149,13.063c-2.34,5.945-6.741,11.142-15.683,11.142c-1.451,0-3.09-4.119-0.89-7.771
		c3.886,0,5.899,0,7.912-1.077l0.188-0.468c-1.732,0.281-3.979-0.141-5.57-0.516l-4.588-23.407
		c3.09-1.218,10.159-0.655,10.346,1.404l1.498,18.726H208.284z"/>
	<path fill="#FFFFFF" d="M231.831,455.2c0.983,0.233,2.106,0.233,3.09,0c1.357,3.979-2.341,6.18-6.601,6.18
		c-4.823,0-6.32-2.295-5.946-7.21l1.685-22.519c0.234-2.995,5.291-4.447,9.878-3.839L231.831,455.2z"/>
	<path fill="#FFFFFF" d="M260.574,445.181c-0.889,5.01-8.427,6.508-14.419,4.494c0.469,2.248,2.061,3.699,4.916,4.12
		c3.698,0.655,7.303-1.498,8.474-3.651c1.498,6.977-4.307,11.61-11.938,11.188c-7.912-0.422-11.985-5.384-11.329-13.437
		c0.562-7.067,5.243-11.517,13.482-11.517C256.689,436.379,261.558,439.001,260.574,445.181z M251.211,439.049
		c0.047-0.891-0.468-0.983-0.89-0.937c-2.574,0.187-2.902,2.855-3.324,8.941c-0.047,0.702-0.047,1.03,0,1.451
		c2.622,0.187,3.558-0.937,3.792-3.886L251.211,439.049z"/>
	<path fill="#FFFFFF" d="M274.104,435.865c-0.141,2.2-0.281,4.353-0.468,6.507c3.043,0.047,5.992,0,9.222-0.141
		c0.281,1.545,0.188,3.137-0.842,4.682c-3.043-0.141-5.853-0.187-8.709-0.141c-0.374,4.447-0.795,8.941-1.31,13.811
		c-3.043,0.516-6.18,0.516-9.223,0c1.265-10.627,2.061-21.207,2.482-31.834c6.975,0.328,16.291,1.076,20.411-0.468
		c1.218,4.213-0.187,8.286-3.604,8.38C279.768,436.661,275.789,436.146,274.104,435.865z"/>
	<path fill="#FFFFFF" d="M309.916,448.88c-0.562,7.584-5.992,12.452-13.577,12.452c-7.583,0-12.218-4.962-11.656-12.452
		c0.561-7.584,5.992-12.453,13.529-12.453C305.843,436.427,310.478,441.39,309.916,448.88z M299.757,439.329
		c0-0.562-0.093-1.03-0.936-0.89c-2.201,0.375-3.418,4.073-3.652,10.394l-0.421,9.596c0,0.61,0.14,1.031,0.936,0.938
		c2.341-0.281,3.558-4.12,3.745-10.533L299.757,439.329z"/>
	<path fill="#FFFFFF" d="M337.667,448.88c-0.562,7.584-5.993,12.452-13.576,12.452s-12.219-4.962-11.657-12.452
		c0.562-7.584,5.993-12.453,13.53-12.453C333.594,436.427,338.229,441.39,337.667,448.88z M327.507,439.329
		c0-0.562-0.093-1.03-0.936-0.89c-2.2,0.375-3.418,4.073-3.651,10.394l-0.421,9.596c0,0.61,0.14,1.031,0.936,0.938
		c2.341-0.281,3.558-4.12,3.745-10.533L327.507,439.329z"/>
	<path fill="#FFFFFF" d="M362.301,455.2c0.702,0.233,1.451,0.233,2.153,0c4.306,6.928-11.704,9.877-10.019-3.231h-0.468
		c-0.608,9.363-4.026,9.831-8.005,9.363c-5.617-0.655-8.099-6.086-7.022-13.437c0.562-3.744,2.482-10.72,11.751-11.469
		c1.077-0.094,2.387-0.048,3.558,0.234l0.561-6.508c0.188-2.06,5.01-2.949,9.598-2.341L362.301,455.2z M354.108,438.627
		c-2.622,0.141-3.933,2.669-4.541,7.817c-0.843,6.836,0,8.662,1.124,8.802c0.842,0.094,1.965-0.327,2.247-3.183L354.108,438.627z"/>
</g>
<path fill="#00BD84" d="M1683.68,312.978l-0.398-0.398l-0.024-0.02c-2.378-1.543-4.9,1.139-7.34,3.729
	c-0.444,0.469-0.901,0.959-1.342,1.399l-33.673,33.675c-0.525,0.524-1.062,1.105-1.585,1.662c-1.333,1.438-2.709,2.927-4.015,3.655
	c-0.455,0.257-2.019,1.008-3.043-0.02c-0.138-0.138-0.263-0.302-0.366-0.493c-1.045-1.896,1.657-4.447,4.04-6.699
	c0.489-0.458,0.953-0.896,1.379-1.321l33.862-33.862c0.447-0.447,0.919-0.894,1.424-1.366c2.64-2.48,5.362-5.05,3.688-7.336
	l-0.332-0.332l-0.021-0.02c-2.15-1.41-3.928,0.368-5.984,2.426l-39.117,39.117c-0.377,0.376-0.725,0.738-1.057,1.093
	c-1.936,2.036-3.106,3.266-5.113,1.681c-0.997-0.788-0.956-2.093-0.442-2.839c1.077-1.583,2.849-3.344,4.563-5.041
	c0.281-0.281,0.561-0.56,0.839-0.838c6.028-6.028,11.503-11.42,16.805-16.628c5.27-5.184,10.715-10.539,16.664-16.488
	c0.501-0.5,1.048-1.011,1.626-1.551c2.751-2.563,5.868-5.469,4.236-7.916l-0.377-0.377l-0.022-0.019
	c-2.336-1.537-4.776,1.04-7.14,3.533c-0.414,0.437-0.845,0.891-1.26,1.307l-34.005,34.006c-0.513,0.511-1.028,1.068-1.578,1.659
	c-1.377,1.487-2.802,3.023-4.07,3.709c-1.022,0.555-2.307,0.459-2.983-0.219c-0.36-0.359-0.534-0.86-0.502-1.452
	c0.092-1.767,2.229-3.777,4.293-5.718c0.525-0.496,1.021-0.961,1.487-1.428l33.341-33.341c0.476-0.474,0.995-0.961,1.544-1.47
	c2.605-2.427,5.558-5.174,3.891-7.569l-0.343-0.341c-2.094-1.573-4.444,0.776-6.515,2.849c-5.258,5.256-10.825,10.487-16.206,15.545
	c-5.368,5.042-10.92,10.256-16.145,15.482c-1.979,1.979-3.994,3.874-5.942,5.709c-1.925,1.808-3.912,3.675-5.833,5.596
	c-0.914,0.915-1.796,1.735-2.648,2.532c-1.147,1.068-2.231,2.08-3.265,3.197c-4.137,4.447-3.25,9.26-2.392,13.911
	c0.232,1.267,0.475,2.569,0.603,3.829c0.18,1.745,0.229,3.981-0.97,5.825c-0.431,0.652-1.086,1.266-1.782,1.913
	c-0.31,0.286-0.63,0.584-0.944,0.898c-4.516,4.515-9.262,8.975-13.857,13.285c-3.92,3.682-7.965,7.488-11.862,11.315
	c-0.215-0.104-0.438-0.195-0.663-0.285c-0.1-4.454-0.171-8.928-0.171-13.358c0-1.634-0.057-3.347-0.114-5.002
	c-0.056-1.697-0.117-3.451-0.117-5.174c0-0.646-0.012-1.29-0.02-1.925c-0.036-2.853-0.076-5.548,0.702-7.653
	c1.319-3.573,3.784-6.197,6.39-8.975c0.865-0.917,1.754-1.868,2.596-2.85c3.812-4.449,6.482-8.626,8.185-12.762
	c2.055-4.995,3.077-11.031,3.077-17.946c0.01-6.079-0.67-12.093-2.04-18.916c-1.224-6.077-2.813-11.433-4.715-16.37
	c-1.881-4.899-4.162-9.988-7.516-13.617c-1.637-1.772-4.023-3.453-6.136-4.729c-1.705-1.033-4.715-2.204-7.512-2.244
	c-2.845,0.04-5.166,1.211-6.874,2.244c-2.114,1.276-4.182,2.957-5.818,4.729c-3.349,3.629-5.472,8.716-7.355,13.617
	c-1.898,4.938-3.411,10.293-4.633,16.37c-1.371,6.823-2.009,12.837-2.009,18.916c0,6.915,1.043,12.951,3.096,17.946
	c1.703,4.136,4.386,8.314,8.198,12.762c0.841,0.981,1.737,1.933,2.599,2.85c2.607,2.777,5.071,5.401,6.395,8.975
	c0.777,2.105,0.742,4.801,0.702,7.653c-0.008,0.635-0.021,1.28-0.021,1.925c0,1.721-0.058,3.477-0.117,5.174
	c-0.055,1.655-0.113,3.368-0.113,5.002c0,4.067-0.058,8.172-0.143,12.263c-2.82-2.662-5.652-5.359-8.427-8.134
	c-7.853-7.853-16.118-16.027-24.562-24.301c-0.25-0.236-1.211-1.232-2.673-2.731c-29.39-30.183-49.113-49.236-58.628-56.622
	l-0.36-0.284c-2.718-2.113-3.629-2.824-5.756-3.099c-1.44-0.184-2.794,0.312-3.921,1.438c-1.059,1.059-1.83,2.652-2.008,4.157
	c-0.536,4.551,0.381,7.699,2.042,13.413c1.137,3.915,5.413,12.595,7.894,16.461c5.575,8.685,18.813,24.938,27.703,31.668
	c1.172,0.886,2.309,1.762,3.406,2.611c9.388,7.243,16.801,12.968,32.696,14.639c0.536,0.057,1.04,0.108,1.519,0.155
	c5.184,0.521,6.929,0.695,10.44,4.406c2.521,2.668,4.784,5.038,7.264,7.604c-0.494,0.229-0.981,0.482-1.45,0.79
	c-2.381-1.459-5.363-1.682-7.858-1.682c-0.347,0-0.677,0.005-0.985,0.008c-0.23,0.002-0.445,0.005-0.641,0.005h-4.453l-0.133,1.741
	c-4.905-1.563-10.967-2.354-15.622-1.98c-4.448,0.36-8.132,1.834-10.966,4.291l1.004-13.042l-4.509-0.599
	c-0.952-0.125-1.929-0.19-2.903-0.19c-5.32,0-9.533,1.763-11.699,4.648c-4.002-3.672-10.481-4.296-14.36-4.296
	c-9.538,0-14.085,3.871-16.22,7.118c-2.531,3.846-2.928,8.962-1.032,13.356c0.608,1.405,1.448,2.713,2.425,3.933
	c-2.424,1.167-4.167,3.132-4.954,5.72c-1.387,4.562,0.707,9.951,4.987,12.82c0.01,0.006,0.021,0.012,0.031,0.02
	c-0.585,0.61-1.067,1.231-1.461,1.829c-2.396,3.643-2.773,8.485-0.98,12.642c0.512,1.182,1.195,2.288,1.985,3.323
	c-2.1,1.138-3.615,2.943-4.323,5.276c-1.324,4.352,0.665,9.487,4.739,12.217c3.38,2.254,8.28,2.727,11.794,2.727
	c7.162,0,11.48-2.091,14.054-4.299c0.281,0.422,0.583,0.828,0.931,1.203c1.348,1.454,3.84,3.188,8.049,3.188
	c2.27,0,4.227-0.286,5.89-0.835c-0.104,1.157-0.035,2.275,0.158,3.31c-9.245,9.141-19.247,19.071-21.274,21.099
	c-3.762,3.762-4.186,8.553-1.041,11.918c0.07,0.076,0.145,0.151,0.214,0.221c3.147,3.146,7.979,2.923,11.754-0.547
	c1.439-1.319,28.685-28.665,30.015-30.097c0.528-0.564,1.057-1.13,1.585-1.685c2.091-2.192,4.216-4.443,6.289-6.638
	c0.056,0.063,0.101,0.13,0.158,0.192c1.883,2.032,4.657,3.062,8.243,3.062c3.789,0,7.037-1.204,9.162-3.337
	c2.624,1.949,5.975,3.078,9.86,3.284c0.412,0.023,0.817,0.033,1.22,0.033c1.383,0,2.72-0.141,3.997-0.398
	c-0.018,1.063-0.024,2.127-0.024,3.173c0,1.639,0,3.341-0.07,5.025c-0.148,3.73-0.201,7.44-0.233,10.258
	c-0.032,3.078-0.131,6.211-0.226,9.239c-0.117,3.679-0.234,7.479-0.234,11.195c0,5.904-0.123,17.282-0.462,24.406
	c-0.376,7.799,2.572,12.636,8.08,13.267c0.32,0.038,0.639,0.052,0.95,0.06c2.797-0.008,1.273-0.021,1.591-0.06
	c5.508-0.634,9.092-5.468,8.72-13.267c-0.338-7.124-0.461-18.496-0.461-24.406c0-3.717-0.119-7.517-0.235-11.195
	c-0.095-3.028-0.191-6.161-0.226-9.239c-0.031-2.817-0.081-6.527-0.232-10.258c-0.066-1.685-0.066-3.387-0.069-5.025
	c0-1.065-0.008-2.149-0.027-3.233c1.142-0.07,2.279-0.194,3.4-0.384l3.593-0.607l0.229-2.159c0.01,0.063,0.015,0.098,0.015,0.098
	s1.602-9.428,5.422-3.943c0.073,0.103,0.138,0.19,0.204,0.282c0.482,0.771,1.027,1.496,1.646,2.163
	c2.981,3.214,7.397,4.983,12.433,4.983c3.563,0,6.775-0.826,9.486-2.323c9.062,9.109,28.021,28.134,29.821,30.095
	c2.284,2.488,4.32,3.818,6.402,4.189c2.203,0.39,4.749-0.414,6.339-2.004c0.131-0.131,0.254-0.268,0.373-0.404
	c2.472-2.943,2.282-7.103-0.47-10.342c-0.7-0.825-11.417-11.544-19.778-19.858c3.191-0.815,5.957-2.377,8.12-4.56
	c0.11,0.159,0.221,0.319,0.34,0.474c2.05,2.671,4.965,4.297,8.427,4.7c0.891,0.105,1.631,0.154,2.329,0.154
	c2.687,0,4.892-0.752,6.611-2.248c1.776,1.221,3.922,1.894,6.155,1.894c3.675,0,6.938-1.767,8.52-4.61
	c1.465-2.639,1.291-5.785-0.479-8.633l-1.086-1.746l2.098-27.271l-4.51-0.598c-1.15-0.152-2.32-0.23-3.479-0.23
	c-0.109,0-0.211,0.007-0.318,0.007l0.776-9.6c0.701,0.033,1.54,0.094,2.534,0.182l2.857,0.254l1.58-2.395
	c1.989-3.016,2.959-7.17,2.882-12.349l-0.063-4.269l-4.247-0.441c-0.947-0.098-1.864-0.148-2.725-0.148
	c-3.515,0-6.111,0.813-8.035,2.059c-2.43-1.398-5.43-1.596-7.689-1.596c-0.383,0-0.739,0.005-1.057,0.011
	c-0.209,0.003-0.396,0.006-0.557,0.006h-4.453l-0.188,2.459c-2.837-1.815-6.673-2.765-11.307-2.765
	c-5.958,0-10.846,1.862-14.25,5.173c-0.37-0.647-0.81-1.262-1.345-1.835c-2.092-2.248-5.125-3.389-9.016-3.389
	c-3.209,0-5.891,0.706-8.038,2.11c-1.68-1.275-4.059-2.11-7.301-2.11c-2.493,0-5.228,0.48-7.585,2.025
	c-0.033-0.021-0.07-0.036-0.104-0.056c0.974-1.017,1.941-2.038,2.88-3.058c3.721-4.029,7.626-8.104,11.3-11.777
	c0.719-0.717,4.478-4.885,5.709-5.801c1.896-1.41,3.973-1.36,5.771-1.199c1.396,0.12,2.809,0.375,4.171,0.617
	c4.462,0.806,9.073,1.633,13.618-2.165c1.348-1.13,2.65-2.531,4.026-4.019c0.54-0.578,1.099-1.175,1.658-1.762
	c1.159-1.204,2.335-2.416,3.509-3.631c2.562-2.639,5.205-5.368,7.793-8.15c1.682-1.795,3.444-3.602,5.152-5.345
	c2.041-2.089,4.152-4.241,6.157-6.432c1.743-1.904,3.619-3.813,5.434-5.653c1.949-1.979,3.963-4.023,5.87-6.125
	c1.615-1.77,3.344-3.549,5.018-5.266c1.117-1.144,2.27-2.331,3.401-3.527c0.272-0.288,0.552-0.573,0.828-0.859
	C1683.231,317.016,1685.078,315.137,1683.68,312.978z"/>
<g>
	<g>
		<path fill="#FFFFFF" d="M1483.874,391.149c2.445,3.821,0,10.649-7.695,8.662c-0.203-7.287-2.547-10.345-5.401-10.345
			c-3.363,0-2.853,4.382-0.967,6.574c1.884,2.343,11.158,9.171,13.604,13.809c2.751,5.197-0.052,13.299-13.859,13.299
			c-2.905,0-7.339-0.356-9.938-2.088c-4.942-3.313-5.299-12.739,6.115-10.65c0.204,6.319,1.732,10.19,4.942,10.19
			c3.414,0,3.159-4.483,0.866-7.285c-2.548-2.956-10.344-7.339-12.637-12.639c-2.242-5.197-0.306-13.758,12.841-13.758
			C1476.025,386.919,1481.835,387.836,1483.874,391.149z"/>
		<path fill="#FFFFFF" d="M1497.783,416.525c1.07,0.255,2.293,0.255,3.363,0c1.478,4.331-2.548,6.726-7.185,6.726
			c-5.249,0-6.88-2.497-6.472-7.848l1.835-24.51c0.253-3.261,5.758-4.841,10.751-4.179L1497.783,416.525z"/>
		<path fill="#FFFFFF" d="M1519.133,413.009c-0.662,10.293-4.382,10.803-8.714,10.293c-6.114-0.713-8.815-6.624-7.644-14.726
			c0.612-4.077,2.701-11.669,12.791-12.484c4.434-0.357,10.037,0.51,14.165,1.885l-1.528,18.549c0.611,0.255,1.732,0.255,2.344,0
			c4.688,7.54-12.739,10.751-10.904-3.517H1519.133z M1519.744,398.027c-3.006,0-4.688,3.618-5.401,8.969
			c-0.917,7.439,0,9.427,1.224,9.58c1.223,0.153,2.089-0.356,2.445-3.465L1519.744,398.027z"/>
		<path fill="#FFFFFF" d="M1558.369,405.875c0.459-3.924,1.478-9.886,9.426-9.886c6.88,0,7.593,4.484,7.135,10.854l-1.173,15.542
			c-2.7,0.51-7.489,1.02-11.21,0l1.069-14.166c0.408-5.655,1.021-8.662-0.916-8.662c-1.427,0-2.599,3.108-2.854,7.286l-1.172,15.542
			c-2.548,0.51-7.134,1.02-10.701,0l1.07-14.166c0.459-6.013,1.069-8.662-1.07-8.662c-1.784,0-2.446,3.159-2.649,6.472
			l-1.223,16.356c-2.549,0.51-7.135,1.02-10.701,0l1.987-26.039c2.701,0,8.866-0.458,8.356,4.026
			c-0.306,2.752-0.356,3.313-0.459,5.453l0.511,0.05c0.253-3.567,0.968-9.886,8.662-9.886c3.669,0,5.859,1.427,5.859,4.331
			c0,1.224-0.407,3.975-0.458,5.505L1558.369,405.875z"/>
		<path fill="#FFFFFF" d="M1602.955,405.875c0.457-3.924,1.477-9.886,9.426-9.886c6.879,0,7.592,4.484,7.133,10.854l-1.171,15.542
			c-2.7,0.51-7.49,1.02-11.21,0l1.069-14.166c0.407-5.655,1.02-8.662-0.918-8.662c-1.425,0-2.598,3.108-2.853,7.286l-1.172,15.542
			c-2.548,0.51-7.134,1.02-10.701,0l1.07-14.166c0.458-6.013,1.069-8.662-1.07-8.662c-1.783,0-2.445,3.159-2.649,6.472
			l-1.224,16.356c-2.547,0.51-7.134,1.02-10.7,0l1.987-26.039c2.7,0,8.866-0.458,8.356,4.026c-0.306,2.752-0.357,3.313-0.458,5.453
			l0.509,0.05c0.255-3.567,0.968-9.886,8.662-9.886c3.67,0,5.86,1.427,5.86,4.331c0,1.224-0.408,3.975-0.458,5.505L1602.955,405.875
			z"/>
		<path fill="#FFFFFF" d="M1648.763,405.62c-0.969,5.453-9.173,7.083-15.694,4.892c0.509,2.446,2.241,4.026,5.35,4.484
			c4.025,0.713,7.95-1.631,9.224-3.976c1.631,7.594-4.688,12.638-12.995,12.18c-8.611-0.459-13.043-5.86-12.33-14.624
			c0.611-7.695,5.707-12.535,14.675-12.535C1644.533,396.041,1649.832,398.895,1648.763,405.62z M1638.571,398.945
			c0.051-0.969-0.509-1.069-0.968-1.02c-2.803,0.204-3.159,3.108-3.618,9.733c-0.052,0.764-0.052,1.121,0,1.578
			c2.853,0.205,3.872-1.019,4.127-4.229L1638.571,398.945z"/>
		<path fill="#FFFFFF" d="M1661.348,405.875c0.356-4.178,0.356-11.007,11.159-9.886c0.051,3.414-0.408,7.083-2.089,9.631
			c-6.879-0.611-7.39,0-7.542,1.631l-1.223,15.134c-2.548,0.51-7.134,1.02-10.701,0l1.987-26.039c2.243,0,8.969-0.509,8.356,4.026
			c-0.202,1.631-0.458,3.669-0.458,5.453L1661.348,405.875z"/>
	</g>
	<path fill="#FFFFFF" d="M1481.153,428.887c2.247,3.511,0,9.784-7.069,7.958c-0.187-6.693-2.34-9.504-4.962-9.504
		c-3.09,0-2.622,4.027-0.89,6.039c1.732,2.154,10.252,8.428,12.5,12.688c2.527,4.775-0.047,12.219-12.734,12.219
		c-2.669,0-6.741-0.327-9.129-1.919c-4.541-3.043-4.869-11.704,5.617-9.784c0.188,5.805,1.593,9.362,4.542,9.362
		c3.137,0,2.902-4.12,0.796-6.693c-2.342-2.716-9.504-6.743-11.611-11.61c-2.059-4.775-0.28-12.642,11.799-12.642
		C1473.944,425,1479.281,425.844,1481.153,428.887z"/>
	<path fill="#FFFFFF" d="M1499.747,434.177c0.516,1.357,0.188,2.715-0.748,3.276h-3.979l-1.124,14.747
		c1.265,0.281,2.996,0.281,4.261,0c-0.094,5.197-3.137,6.18-7.865,6.18c-4.026,0-6.32-2.295-5.945-7.209l1.077-13.718h-2.81
		c-0.468-1.544-0.141-2.715,0.749-3.276h2.342l0.187-2.575c0.233-2.996,5.29-4.448,9.878-3.839l-0.468,6.414H1499.747z"/>
	<path fill="#FFFFFF" d="M1513.726,454.307c0-5.337,4.213-15.916,2.996-20.13c2.575-0.843,6.132-0.89,8.285,0.609
		c1.546,1.357,2.106,3.51,0.188,8.425l-5.149,13.063c-2.341,5.945-6.741,11.142-15.683,11.142c-1.452,0-3.091-4.119-0.89-7.771
		c3.886,0,5.898,0,7.911-1.077l0.187-0.469c-1.73,0.281-3.979-0.14-5.569-0.515l-4.588-23.407
		c3.089-1.218,10.157-0.655,10.347,1.404l1.497,18.726H1513.726z"/>
	<path fill="#FFFFFF" d="M1537.271,452.2c0.983,0.234,2.106,0.234,3.09,0c1.357,3.979-2.34,6.18-6.601,6.18
		c-4.823,0-6.32-2.295-5.946-7.209l1.686-22.519c0.234-2.996,5.291-4.447,9.878-3.839L1537.271,452.2z"/>
	<path fill="#FFFFFF" d="M1566.015,442.182c-0.888,5.009-8.427,6.508-14.419,4.495c0.469,2.247,2.061,3.698,4.916,4.119
		c3.698,0.655,7.304-1.498,8.474-3.652c1.498,6.977-4.308,11.611-11.938,11.189c-7.912-0.422-11.985-5.384-11.329-13.436
		c0.563-7.068,5.242-11.518,13.482-11.518C1562.131,433.38,1566.998,436.003,1566.015,442.182z M1556.652,436.05
		c0.047-0.891-0.468-0.984-0.89-0.937c-2.574,0.187-2.902,2.855-3.324,8.941c-0.046,0.702-0.046,1.03,0,1.451
		c2.622,0.187,3.559-0.937,3.792-3.886L1556.652,436.05z"/>
	<path fill="#FFFFFF" d="M1579.544,432.866c-0.14,2.199-0.28,4.354-0.468,6.506c3.043,0.048,5.991,0,9.222-0.14
		c0.281,1.545,0.188,3.137-0.841,4.682c-3.044-0.141-5.854-0.187-8.71-0.141c-0.374,4.447-0.795,8.941-1.31,13.811
		c-3.043,0.515-6.18,0.515-9.224,0c1.266-10.626,2.061-21.207,2.482-31.834c6.975,0.327,16.291,1.077,20.411-0.468
		c1.218,4.213-0.188,8.285-3.605,8.38C1585.209,433.662,1581.229,433.146,1579.544,432.866z"/>
	<path fill="#FFFFFF" d="M1615.356,445.881c-0.562,7.583-5.992,12.452-13.576,12.452c-7.583,0-12.219-4.962-11.656-12.452
		c0.561-7.585,5.992-12.453,13.529-12.453C1611.283,433.428,1615.919,438.391,1615.356,445.881z M1605.197,436.33
		c0-0.562-0.093-1.03-0.936-0.89c-2.2,0.375-3.418,4.072-3.651,10.393l-0.421,9.598c0,0.609,0.14,1.029,0.936,0.937
		c2.342-0.282,3.559-4.12,3.745-10.534L1605.197,436.33z"/>
	<path fill="#FFFFFF" d="M1643.107,445.881c-0.563,7.583-5.993,12.452-13.576,12.452c-7.584,0-12.22-4.962-11.657-12.452
		c0.562-7.585,5.992-12.453,13.529-12.453C1639.035,433.428,1643.669,438.391,1643.107,445.881z M1632.949,436.33
		c0-0.562-0.095-1.03-0.938-0.89c-2.2,0.375-3.417,4.072-3.651,10.393l-0.421,9.598c0,0.609,0.14,1.029,0.937,0.937
		c2.341-0.282,3.558-4.12,3.744-10.534L1632.949,436.33z"/>
	<path fill="#FFFFFF" d="M1667.741,452.2c0.702,0.234,1.452,0.234,2.153,0c4.307,6.929-11.704,9.878-10.018-3.23h-0.469
		c-0.608,9.363-4.026,9.831-8.006,9.363c-5.617-0.656-8.1-6.086-7.022-13.436c0.563-3.746,2.481-10.721,11.751-11.47
		c1.077-0.094,2.388-0.048,3.558,0.234l0.562-6.509c0.188-2.059,5.009-2.948,9.598-2.34L1667.741,452.2z M1659.549,435.628
		c-2.622,0.141-3.934,2.668-4.542,7.817c-0.842,6.836,0,8.661,1.124,8.802c0.843,0.094,1.965-0.328,2.246-3.184L1659.549,435.628z"
		/>
</g>
</svg>
