<?xml version="1.0" encoding="utf-8"?>
<!-- Generator: Adobe Illustrator 16.0.2, SVG Export Plug-In . SVG Version: 6.00 Build 0)  -->
<!DOCTYPE svg PUBLIC "-//W3C//DTD SVG 1.1//EN" "http://www.w3.org/Graphics/SVG/1.1/DTD/svg11.dtd">
<svg version="1.1" id="Layer_1" xmlns="http://www.w3.org/2000/svg" xmlns:xlink="http://www.w3.org/1999/xlink" x="0px" y="0px"
	 width="1830.001px" height="800px" viewBox="0 0 1830.001 800" enable-background="new 0 0 1830.001 800" xml:space="preserve">
<rect fill="#FFFFFF" width="1830.001" height="800"/>
<g>
	<g>
		<g>
			<path fill="#9AE700" d="M785.572,423.509l-0.002,0.444c-0.012,2.576-1.043,5.015-2.828,6.783
				c-1.963,1.944-4.631,2.999-7.563,2.986l-0.355-0.002c-3.773-0.149-7.051-2.297-8.59-5.635c-0.176-0.355-0.219-0.756-0.217-1.11
				c0.004-0.978,0.541-1.907,1.52-2.347c0.355-0.176,0.711-0.22,1.066-0.218c0.977,0.004,1.951,0.541,2.393,1.521
				c0.703,1.559,2.209,2.541,4.029,2.593l0.223,0.001c1.553,0.008,2.844-0.475,3.781-1.402c0.891-0.885,1.385-1.994,1.389-3.193
				l0.002-0.177c-0.123-2.044-3.98-3.882-5.666-4.376l-0.176-0.092c-4.568-1.663-6.863-4.559-6.846-8.557l0.002-0.355
				c0.098-2.264,1.129-4.301,3.045-5.715c1.604-1.236,3.783-1.982,6.092-1.972l0.4,0.002c1.865,0.053,3.771,0.815,5.32,1.979
				c0.664,0.534,1.016,1.291,1.012,2.046c-0.002,0.532-0.182,1.109-0.539,1.552c-0.535,0.664-1.293,1.016-2.092,1.013
				c-0.533-0.003-1.064-0.139-1.553-0.497c-0.664-0.534-1.551-0.85-2.35-0.898h-0.266c-2.176-0.01-3.869,1.093-3.92,2.691
				l-0.002,0.178c-0.01,2.176,1.676,2.982,3.404,3.701C777.617,414.859,785.334,417.38,785.572,423.509z"/>
			<path fill="#9AE700" d="M805.117,402.856c1.42,0.007,2.615,1.166,2.607,2.587c-0.006,1.467-1.211,2.615-2.631,2.609l-5.152-0.023
				l-0.104,23.315c-0.006,1.421-1.211,2.57-2.631,2.563c-1.422-0.006-2.572-1.166-2.564-2.587l0.104-23.315l-5.197-0.021
				c-1.42-0.008-2.57-1.168-2.563-2.633c0.006-1.421,1.166-2.57,2.586-2.564L805.117,402.856z"/>
			<path fill="#9AE700" d="M834.592,405.563c-0.002,0.533-0.182,1.065-0.494,1.508l-8.625,12.221l-0.055,12.168
				c-0.006,1.42-1.166,2.57-2.631,2.563c-1.422-0.007-2.572-1.167-2.564-2.588l0.055-12.168l-8.518-12.295
				c-0.309-0.4-0.484-0.845-0.482-1.378c0.006-1.333,0.988-2.705,2.588-2.698c0.844,0.004,1.641,0.407,2.127,1.119l6.883,9.935
				l7.018-9.873c0.49-0.707,1.293-1.104,2.135-1.1c0.49,0.002,1.021,0.182,1.465,0.494
				C834.199,403.962,834.596,404.764,834.592,405.563z"/>
			<path fill="#9AE700" d="M840.639,434.102c-1.465-0.006-2.615-1.168-2.607-2.588l0.113-25.936c0.008-1.42,1.168-2.57,2.633-2.563
				c1.42,0.007,2.57,1.166,2.564,2.587l-0.104,23.316l9.059,0.039c1.422,0.006,2.615,1.168,2.609,2.633
				c-0.006,1.42-1.211,2.57-2.633,2.563L840.639,434.102z"/>
			<path fill="#9AE700" d="M877.615,431.392c0,1.421-1.154,2.576-2.621,2.576h-14.211c-1.465,0-2.621-1.155-2.621-2.576v-25.936
				c0-1.421,1.156-2.575,2.621-2.575h14.211c1.467,0,2.621,1.154,2.621,2.575c0,1.466-1.154,2.62-2.621,2.62h-11.635v7.771h9.059
				c1.422,0,2.576,1.155,2.576,2.576c0,1.42-1.154,2.576-2.576,2.576h-9.059v7.771h11.635
				C876.461,428.771,877.615,429.926,877.615,431.392z"/>
		</g>
		<path fill="#9AE700" d="M1052.213,340.449c-15.061,0-27.271,2.464-27.271,5.503c0,0.17,0.041,0.339,0.115,0.504l10.303,45.134
			c0,1.877,7.545,3.4,16.854,3.4c9.307,0,16.854-1.523,16.854-3.4l10.301-45.134c0.074-0.165,0.115-0.334,0.115-0.504
			C1079.482,342.913,1067.273,340.449,1052.213,340.449z"/>
		<path fill="#9AE700" d="M1104.119,270.613c-0.256-1.207-0.863-2.57-1.457-3.686c-0.479-0.9-1.494-2.203-2.713-2.953
			c-1.26-0.729-2.586-0.822-3.607-0.816c-1.262,0.008-2.611,0.204-3.795,0.555c-2.422,0.717-4.688,2.395-6.799,4.055
			c-2.127,1.672-4.195,3.629-6.324,5.978c-2.389,2.639-4.244,5.114-5.838,7.785c-1.811,3.037-2.936,5.962-3.342,8.694
			c-0.334,2.264-0.252,4.803,0.258,7.754c0.113,0.652,0.258,1.305,0.396,1.934c0.418,1.904,0.813,3.701,0.457,5.618
			c-0.209,1.129-0.932,2.304-1.697,3.546c-0.17,0.277-0.344,0.557-0.512,0.84c-0.451,0.756-0.938,1.513-1.408,2.243
			c-0.457,0.712-0.932,1.45-1.361,2.168c-2.143,3.593-4.428,7.194-6.639,10.677c-0.99,1.559-2.002,3.153-3.004,4.75
			c-0.096-3.553-0.184-7.172-0.201-10.76c-0.004-0.547-0.012-1.096-0.02-1.643c-0.041-3.262-0.137-6.543-0.236-9.732
			c-0.021-0.68-0.041-1.367-0.063-2.055c-0.104-3.482-0.195-7.041-0.195-10.584c0-3.111-0.068-6.35-0.199-9.628
			c-0.063-1.609-0.09-3.242-0.117-4.825c-0.029-1.553-0.053-3.158-0.117-4.712c-0.129-3.231-0.199-6.558-0.199-9.62
			c0-0.6-0.17-3.904-0.039-4.799c0.203-1.379,1.09-2.224,1.906-2.906c0.633-0.531,1.326-1.014,1.996-1.48
			c2.195-1.525,4.463-3.104,4.775-6.58c0.09-1.033,0.047-2.16,0.002-3.354c-0.016-0.467-0.031-0.948-0.043-1.426
			c-0.02-0.986-0.033-1.98-0.051-2.978c-0.031-2.167-0.066-4.407-0.148-6.646c-0.047-1.45-0.064-2.938-0.08-4.377
			c-0.02-1.721-0.037-3.498-0.115-5.248c-0.066-1.521-0.08-3.098-0.092-4.622c-0.014-1.638-0.025-3.329-0.105-5
			c-0.064-1.411-0.086-2.873-0.104-4.286c-0.012-0.943-0.025-1.919-0.053-2.889c-0.008-0.233-0.008-0.469-0.012-0.703
			c-0.014-1.643-0.027-3.195-1.512-3.513h-0.332l-0.018,0.001c-1.635,0.35-1.568,2.519-1.506,4.615
			c0.012,0.381,0.025,0.775,0.025,1.143v28.076c0,0.438,0.018,0.904,0.031,1.354c0.045,1.155,0.092,2.349-0.148,3.196
			c-0.084,0.297-0.422,1.262-1.277,1.262c-0.113,0-0.234-0.019-0.359-0.055c-1.225-0.354-1.162-2.544-1.107-4.476
			c0.014-0.396,0.023-0.771,0.023-1.126v-28.233c0-0.372,0.012-0.755,0.023-1.163c0.066-2.135,0.133-4.34-1.521-4.596h-0.275
			l-0.016,0.001c-1.484,0.309-1.484,1.791-1.484,3.506v32.614c0,0.314,0.006,0.611,0.016,0.896c0.041,1.656,0.066,2.656-1.432,2.833
			c-0.744,0.087-1.271-0.475-1.369-0.999c-0.209-1.108-0.205-2.582-0.199-4.004c0-0.235,0.002-0.468,0.002-0.7
			c0-5.025,0.035-9.556,0.074-13.937c0.035-4.356,0.072-8.86,0.074-13.82c-0.002-0.418,0.014-0.858,0.029-1.325
			c0.078-2.214,0.166-4.727-1.533-5.064h-0.314l-0.018,0.001c-1.613,0.333-1.559,2.425-1.504,4.449
			c0.012,0.354,0.02,0.724,0.02,1.069v28.353c0,0.427,0.018,0.874,0.035,1.349c0.045,1.195,0.092,2.43-0.15,3.244
			c-0.195,0.658-0.77,1.152-1.336,1.152c-0.299,0-0.58-0.136-0.813-0.396c-0.699-0.775-0.646-2.503-0.596-4.173
			c0.012-0.425,0.025-0.827,0.025-1.214v-27.799c0-0.396,0.014-0.816,0.031-1.258c0.074-2.097,0.158-4.473-1.535-4.776h-0.283
			c-1.529,0.218-1.529,2.177-1.529,3.903c0,4.385-0.141,8.886-0.275,13.237c-0.137,4.34-0.277,8.827-0.277,13.185
			c0.002,1.65-0.049,3.279-0.096,4.857c-0.049,1.556-0.1,3.162-0.1,4.764c0,0.764-0.023,1.473-0.047,2.16
			c-0.033,0.924-0.064,1.798-0.029,2.694c0.129,3.577,2.506,5.214,4.803,6.796c0.625,0.432,1.268,0.874,1.848,1.345
			c0.803,0.651,1.754,1.565,2.023,2.833c0.092,0.452,0.074,0.98,0.057,1.54c-0.012,0.249-0.021,0.507-0.021,0.769
			c0,3.766-0.119,7.604-0.238,11.316c-0.105,3.375-0.215,6.871-0.234,10.293c-0.016,3.034-0.1,6.107-0.182,9.077
			c-0.012,0.45-0.025,0.903-0.037,1.358c-3.461-4.768-7.08-9.701-10.773-14.695c-0.123-0.162-0.592-0.83-1.303-1.839
			c-14.297-20.309-24.004-33.239-28.854-38.426l-0.184-0.198c-1.385-1.484-1.85-1.982-3.063-2.341
			c-0.822-0.24-1.656-0.079-2.416,0.472c-0.715,0.519-1.313,1.374-1.557,2.234c-0.736,2.6-0.496,4.517-0.061,7.997
			c0.297,2.387,1.979,7.837,3.063,10.319c2.436,5.576,8.627,16.271,13.176,21.016c0.6,0.627,1.18,1.241,1.738,1.838
			c4.791,5.092,8.574,9.115,17.672,11.569c0.307,0.083,0.594,0.161,0.869,0.231c2.969,0.786,3.971,1.051,5.666,3.537
			c1.932,2.832,3.553,5.166,5.787,8.33c0.01,0.013,0.018,0.025,0.027,0.039c-0.055,2.752-0.115,5.548-0.201,8.303
			c-0.1,3.143-0.146,6.373-0.197,9.495c-0.047,3.187-0.096,6.478-0.197,9.747c-0.045,1.428-0.09,2.891-0.125,4.348
			c1.469-0.049,2.967-0.074,4.484-0.074c2.973,0,5.875,0.096,8.627,0.278c0.316-0.563,0.635-1.126,0.955-1.681
			c1.395-2.421,2.787-4.912,4.133-7.323c2.014-3.6,4.094-7.323,6.236-10.917c0.43-0.719,0.852-1.486,1.262-2.228
			c0.42-0.761,0.852-1.548,1.303-2.304c0.17-0.284,0.334-0.569,0.496-0.852c0.73-1.262,1.42-2.456,2.314-3.178
			c1.516-1.225,3.285-1.73,5.158-2.269c0.621-0.177,1.26-0.36,1.887-0.571c2.84-0.956,5.107-2.092,6.939-3.463
			c2.211-1.656,4.242-4.041,6.053-7.078c1.596-2.668,2.873-5.488,4.059-8.845c1.057-2.989,1.76-5.759,2.219-8.427
			C1104.311,275.92,1104.641,273.086,1104.119,270.613z"/>
	</g>
	<g>
		<path fill="#C8C8C8" d="M915.135,402.932c2.318,0,4.271,1.883,4.271,4.199c0,2.389-1.953,4.271-4.271,4.271h-21.068v12.67h16.869
			c2.318,0,4.199,1.883,4.199,4.199s-1.881,4.199-4.199,4.199h-16.869v16.941c0,2.317-1.955,4.199-4.271,4.199
			s-4.199-1.882-4.199-4.199v-42.281c0-2.316,1.883-4.199,4.199-4.199H915.135z"/>
		<path fill="#C8C8C8" d="M921.58,428.271c0-13.973,10.859-25.34,24.254-25.34s24.326,11.367,24.326,25.34
			c0,13.974-10.932,25.34-24.326,25.34S921.58,442.245,921.58,428.271z M930.051,428.271c0,9.34,7.096,16.87,15.783,16.87
			c8.76,0,15.855-7.53,15.855-16.87c0-9.339-7.096-16.869-15.855-16.869C937.146,411.402,930.051,418.933,930.051,428.271z"/>
		<path fill="#C8C8C8" d="M975.951,428.271c0-13.973,10.861-25.34,24.254-25.34c13.395,0,24.328,11.367,24.328,25.34
			c0,13.974-10.934,25.34-24.328,25.34C986.813,453.611,975.951,442.245,975.951,428.271z M984.422,428.271
			c0,9.34,7.096,16.87,15.783,16.87c8.762,0,15.857-7.53,15.857-16.87c0-9.339-7.096-16.869-15.857-16.869
			C991.518,411.402,984.422,418.933,984.422,428.271z"/>
		<path fill="#C8C8C8" d="M1034.523,453.611c-2.316,0-4.199-1.882-4.199-4.199v-42.281c0-2.316,1.883-4.199,4.199-4.199h12.307
			c0.291,0,21.504-0.072,21.504,25.34c0,25.413-21.213,25.34-21.504,25.34H1034.523z M1038.795,445.142h8.035
			c0.219,0,3.477-0.073,6.734-2.173c4.199-2.678,6.299-7.674,6.299-14.697c0-7.167-2.172-12.163-6.588-14.842
			c-3.186-1.955-6.371-2.027-6.445-2.027h-8.035V445.142z"/>
		<g>
			<path fill="#C8C8C8" d="M759.242,378.018v0.724c0,4.199-1.666,8.182-4.563,11.077c-3.186,3.186-7.529,4.924-12.309,4.924h-0.578
				c-6.154-0.218-11.512-3.693-14.045-9.123c-0.291-0.578-0.363-1.23-0.363-1.81c0-1.593,0.869-3.113,2.463-3.837
				c0.578-0.29,1.158-0.362,1.736-0.362c1.594,0,3.186,0.868,3.91,2.461c1.158,2.534,3.621,4.128,6.588,4.2h0.363
				c2.533,0,4.633-0.797,6.152-2.316c1.449-1.449,2.246-3.259,2.246-5.214v-0.29c-0.219-3.33-6.518-6.298-9.268-7.094l-0.289-0.146
				c-7.459-2.679-11.223-7.385-11.223-13.9v-0.579c0.145-3.693,1.811-7.023,4.922-9.34c2.607-2.028,6.154-3.258,9.92-3.258h0.652
				c3.039,0.071,6.154,1.303,8.688,3.185c1.086,0.869,1.664,2.1,1.664,3.331c0,0.868-0.289,1.811-0.867,2.533
				c-0.869,1.086-2.1,1.666-3.404,1.666c-0.867,0-1.736-0.218-2.533-0.797c-1.086-0.869-2.535-1.375-3.838-1.448h-0.434
				c-3.547,0-6.299,1.811-6.371,4.417v0.29c0,3.547,2.752,4.851,5.574,6.009C746.209,363.973,758.807,368.026,759.242,378.018z"/>
			<path fill="#C8C8C8" d="M769.305,394.887c-2.391,0-4.271-1.883-4.271-4.199v-42.281c0-2.317,1.881-4.2,4.271-4.2
				c2.316,0,4.199,1.883,4.199,4.2v38.01h14.77c2.316,0,4.271,1.883,4.271,4.271c0,2.316-1.955,4.199-4.271,4.199H769.305z"/>
			<path fill="#C8C8C8" d="M840.256,389.095c0.217,0.507,0.289,1.086,0.289,1.593c0,2.172-1.664,4.199-4.199,4.199
				c-1.664,0-3.258-1.014-3.91-2.68l-3.184-7.891h-19.621l-3.186,7.891c-0.652,1.666-2.244,2.68-3.91,2.68
				c-2.461,0-4.199-2.1-4.199-4.199c0-0.579,0.072-1.086,0.289-1.593l16.869-42.21c0.652-1.592,2.246-2.679,3.982-2.679
				c1.666,0,3.258,1.087,3.91,2.679L840.256,389.095z M825.848,375.918l-6.371-16.146l-6.443,16.146H825.848z"/>
			<path fill="#C8C8C8" d="M884.348,390.688v-29.611l-11.367,15.203c-0.797,1.086-2.1,1.738-3.402,1.738
				c-1.305,0-2.607-0.652-3.404-1.738l-11.365-15.203v29.611c0,2.316-1.883,4.199-4.273,4.199c-2.316,0-4.199-1.883-4.199-4.199
				v-42.281c0-2.245,1.811-4.2,4.273-4.2c1.303,0,2.533,0.579,3.33,1.665l15.639,20.852l15.637-20.852
				c0.797-1.086,2.027-1.665,3.332-1.665c2.461,0,4.271,1.955,4.271,4.2v42.281c0,2.316-1.883,4.199-4.271,4.199
				C886.23,394.887,884.348,393.004,884.348,390.688z"/>
			<path fill="#C8C8C8" d="M936.619,390.688v-29.611l-11.367,15.203c-0.797,1.086-2.1,1.738-3.402,1.738s-2.607-0.652-3.404-1.738
				l-11.365-15.203v29.611c0,2.316-1.883,4.199-4.271,4.199c-2.318,0-4.199-1.883-4.199-4.199v-42.281c0-2.245,1.809-4.2,4.271-4.2
				c1.303,0,2.533,0.579,3.33,1.665l15.639,20.852l15.639-20.852c0.795-1.086,2.025-1.665,3.33-1.665c2.461,0,4.271,1.955,4.271,4.2
				v42.281c0,2.316-1.883,4.199-4.271,4.199C938.502,394.887,936.619,393.004,936.619,390.688z"/>
			<path fill="#C8C8C8" d="M982.592,390.688c0,2.316-1.883,4.199-4.271,4.199h-23.168c-2.389,0-4.271-1.883-4.271-4.199v-42.281
				c0-2.317,1.883-4.2,4.271-4.2h23.168c2.389,0,4.271,1.883,4.271,4.2c0,2.389-1.883,4.271-4.271,4.271h-18.969v12.67h14.77
				c2.316,0,4.199,1.882,4.199,4.199c0,2.316-1.883,4.199-4.199,4.199h-14.77v12.67h18.969
				C980.709,386.416,982.592,388.299,982.592,390.688z"/>
			<path fill="#C8C8C8" d="M1020.457,388.443c0.434,0.725,0.65,1.447,0.65,2.244c0,1.375-0.725,2.751-2.027,3.547
				c-0.65,0.436-1.447,0.652-2.172,0.652c-1.447,0-2.822-0.725-3.619-1.954l-9.34-14.915h-7.096v12.67
				c0,2.316-1.955,4.199-4.271,4.199s-4.199-1.883-4.199-4.199v-42.281c0-2.317,1.883-4.2,4.199-4.2h11.512
				c0.434,0,4.271,0.073,8.254,2.027c5.646,2.823,8.76,8.036,8.76,14.843c0,0.434-0.072,4.344-2.027,8.253
				c-1.52,2.969-3.691,5.214-6.371,6.661L1020.457,388.443z M996.854,369.547h7.24c3.621,0,5.938-1.231,7.313-3.838
				c1.158-2.172,1.23-4.488,1.23-4.633c0-3.621-1.303-5.938-4.055-7.313c-2.172-1.086-4.488-1.086-4.488-1.086h-7.24V369.547z"/>
		</g>
	</g>
</g>
</svg>
