<?xml version="1.0" encoding="utf-8"?>
<!-- Generator: Adobe Illustrator 16.0.2, SVG Export Plug-In . SVG Version: 6.00 Build 0)  -->
<!DOCTYPE svg PUBLIC "-//W3C//DTD SVG 1.1//EN" "http://www.w3.org/Graphics/SVG/1.1/DTD/svg11.dtd">
<svg version="1.1" id="Layer_1" xmlns="http://www.w3.org/2000/svg" xmlns:xlink="http://www.w3.org/1999/xlink" x="0px" y="0px"
	 width="1830.001px" height="800px" viewBox="0 0 1830.001 800" enable-background="new 0 0 1830.001 800" xml:space="preserve">
<rect fill="#FF8B84" width="1830.001" height="800"/>
<g>
	<g>
		<path fill="#FFFFFF" d="M784.688,430.01l-0.002,0.443c-0.012,2.576-1.045,5.016-2.828,6.783c-1.963,1.945-4.633,3-7.563,2.986
			l-0.355-0.002c-3.775-0.148-7.051-2.297-8.592-5.635c-0.176-0.355-0.219-0.756-0.217-1.109c0.004-0.979,0.541-1.908,1.521-2.348
			c0.355-0.176,0.711-0.219,1.066-0.217c0.977,0.004,1.951,0.541,2.391,1.52c0.703,1.559,2.209,2.541,4.029,2.594h0.223
			c1.555,0.009,2.845-0.475,3.781-1.402c0.893-0.885,1.386-1.994,1.391-3.193l0.002-0.176c-0.125-2.045-3.98-3.883-5.666-4.377
			l-0.178-0.092c-4.566-1.662-6.863-4.559-6.846-8.557l0.002-0.355c0.1-2.264,1.129-4.301,3.045-5.714
			c1.604-1.237,3.785-1.983,6.094-1.972l0.4,0.002c1.863,0.053,3.771,0.814,5.32,1.979c0.663,0.535,1.016,1.291,1.012,2.047
			c-0.002,0.531-0.183,1.11-0.539,1.551c-0.537,0.664-1.293,1.016-2.092,1.014c-0.533-0.004-1.066-0.139-1.553-0.498
			c-0.664-0.533-1.551-0.85-2.35-0.898h-0.268c-2.176-0.01-3.867,1.094-3.92,2.692v0.177c-0.01,2.176,1.674,2.982,3.402,3.701
			C776.733,421.359,784.448,423.881,784.688,430.01z"/>
		<path fill="#FFFFFF" d="M804.231,409.357c1.422,0.006,2.615,1.166,2.609,2.586c-0.006,1.467-1.211,2.615-2.633,2.609l-5.15-0.023
			l-0.104,23.316c-0.006,1.42-1.211,2.57-2.633,2.563c-1.42-0.007-2.57-1.167-2.563-2.587l0.102-23.316l-5.195-0.021
			c-1.422-0.008-2.57-1.168-2.564-2.633c0.006-1.42,1.166-2.57,2.588-2.564L804.231,409.357z"/>
		<path fill="#FFFFFF" d="M833.708,412.063c-0.003,0.533-0.183,1.066-0.495,1.508l-8.625,12.221l-0.055,12.168
			c-0.006,1.42-1.166,2.57-2.631,2.564c-1.421-0.008-2.571-1.168-2.563-2.588l0.053-12.168l-8.518-12.295
			c-0.309-0.4-0.484-0.846-0.482-1.379c0.006-1.332,0.99-2.705,2.588-2.697c0.844,0.004,1.643,0.406,2.127,1.119l6.885,9.935
			l7.017-9.874c0.491-0.707,1.293-1.104,2.136-1.1c0.489,0.002,1.021,0.183,1.464,0.494
			C833.315,410.463,833.711,411.264,833.708,412.063z"/>
		<path fill="#FFFFFF" d="M839.754,440.602c-1.465-0.006-2.615-1.168-2.607-2.588l0.114-25.936c0.007-1.419,1.167-2.57,2.632-2.563
			c1.421,0.006,2.57,1.166,2.564,2.586l-0.104,23.316l9.059,0.039c1.422,0.006,2.615,1.168,2.609,2.633
			c-0.006,1.42-1.211,2.57-2.632,2.564L839.754,440.602z"/>
		<path fill="#FFFFFF" d="M876.73,437.893c0,1.42-1.154,2.576-2.621,2.576h-14.211c-1.465,0-2.62-1.156-2.62-2.576v-25.936
			c0-1.422,1.155-2.576,2.62-2.576h14.211c1.467,0,2.621,1.154,2.621,2.576c0,1.465-1.154,2.619-2.621,2.619h-11.635v7.771h9.059
			c1.422,0,2.576,1.156,2.576,2.576s-1.154,2.576-2.576,2.576h-9.059v7.771h11.635C875.576,435.271,876.73,436.426,876.73,437.893z"
			/>
	</g>
	<path fill="#FFFFFF" d="M1051.328,346.95c-15.061,0-27.271,2.464-27.271,5.503c0,0.17,0.04,0.338,0.114,0.504l10.303,45.133
		c0,1.877,7.545,3.4,16.854,3.4c9.307,0,16.854-1.523,16.854-3.4l10.301-45.133c0.074-0.166,0.115-0.334,0.115-0.504
		C1078.598,349.414,1066.389,346.95,1051.328,346.95z"/>
	<path fill="#FFFFFF" d="M1103.234,277.113c-0.255-1.207-0.863-2.57-1.457-3.686c-0.479-0.9-1.494-2.203-2.712-2.953
		c-1.261-0.729-2.587-0.822-3.608-0.815c-1.262,0.007-2.611,0.204-3.794,0.554c-2.423,0.717-4.688,2.395-6.8,4.055
		c-2.127,1.672-4.195,3.629-6.324,5.979c-2.389,2.639-4.244,5.113-5.838,7.785c-1.811,3.037-2.935,5.961-3.342,8.693
		c-0.334,2.264-0.252,4.803,0.258,7.754c0.113,0.652,0.258,1.306,0.396,1.934c0.418,1.904,0.813,3.701,0.457,5.619
		c-0.209,1.129-0.932,2.303-1.697,3.545c-0.17,0.277-0.344,0.557-0.512,0.84c-0.451,0.756-0.937,1.514-1.407,2.244
		c-0.458,0.711-0.933,1.449-1.361,2.168c-2.144,3.592-4.428,7.193-6.64,10.676c-0.99,1.559-2.002,3.155-3.003,4.75
		c-0.097-3.553-0.184-7.172-0.202-10.76c-0.004-0.547-0.012-1.096-0.02-1.643c-0.041-3.262-0.137-6.543-0.236-9.732
		c-0.021-0.68-0.041-1.367-0.063-2.055c-0.104-3.482-0.195-7.041-0.195-10.584c0-3.111-0.068-6.35-0.199-9.627
		c-0.062-1.609-0.09-3.242-0.117-4.826c-0.028-1.553-0.053-3.158-0.117-4.711c-0.129-3.232-0.199-6.559-0.199-9.621
		c0-0.6-0.17-3.904-0.039-4.799c0.203-1.379,1.09-2.223,1.906-2.906c0.633-0.531,1.326-1.014,1.996-1.48
		c2.195-1.525,4.463-3.104,4.775-6.58c0.09-1.033,0.048-2.16,0.003-3.354c-0.017-0.467-0.032-0.947-0.044-1.426
		c-0.019-0.986-0.033-1.98-0.051-2.977c-0.031-2.168-0.066-4.408-0.148-6.646c-0.047-1.449-0.064-2.938-0.08-4.377
		c-0.02-1.721-0.037-3.498-0.115-5.248c-0.066-1.52-0.08-3.098-0.092-4.621c-0.013-1.639-0.025-3.33-0.105-5
		c-0.064-1.412-0.086-2.872-0.104-4.287c-0.012-0.943-0.025-1.918-0.053-2.889c-0.008-0.232-0.008-0.469-0.012-0.703
		c-0.014-1.643-0.027-3.195-1.512-3.512h-0.332h-0.018c-1.634,0.35-1.568,2.52-1.506,4.615c0.012,0.381,0.025,0.775,0.025,1.143
		v28.076c0,0.438,0.018,0.904,0.031,1.355c0.045,1.154,0.092,2.348-0.148,3.195c-0.084,0.297-0.422,1.262-1.277,1.262
		c-0.113,0-0.234-0.018-0.359-0.055c-1.225-0.354-1.162-2.543-1.107-4.475c0.014-0.396,0.023-0.771,0.023-1.127v-28.232
		c0-0.373,0.012-0.756,0.024-1.164c0.066-2.135,0.132-4.34-1.522-4.596h-0.274l-0.017,0.002c-1.484,0.31-1.484,1.791-1.484,3.506
		v32.613c0,0.315,0.006,0.611,0.016,0.896c0.041,1.656,0.066,2.656-1.432,2.832c-0.744,0.088-1.271-0.475-1.369-0.998
		c-0.209-1.109-0.205-2.581-0.198-4.004c0-0.236,0.001-0.469,0.001-0.701c0-5.025,0.035-9.555,0.074-13.936
		c0.035-4.357,0.072-8.861,0.074-13.82c-0.002-0.418,0.014-0.859,0.029-1.326c0.078-2.213,0.166-4.727-1.533-5.064h-0.314
		l-0.018,0.002c-1.613,0.332-1.558,2.424-1.503,4.449c0.011,0.354,0.02,0.723,0.02,1.069v28.353c0,0.426,0.017,0.873,0.034,1.348
		c0.046,1.195,0.092,2.43-0.15,3.244c-0.195,0.658-0.77,1.152-1.336,1.152c-0.299,0-0.58-0.135-0.813-0.396
		c-0.699-0.775-0.646-2.502-0.596-4.172c0.012-0.426,0.025-0.828,0.025-1.215v-27.799c0-0.396,0.014-0.816,0.031-1.258
		c0.074-2.096,0.159-4.473-1.534-4.775h-0.284c-1.529,0.217-1.529,2.176-1.529,3.902c0,4.385-0.141,8.887-0.275,13.238
		c-0.137,4.34-0.276,8.826-0.276,13.184c0.001,1.65-0.05,3.279-0.097,4.857c-0.049,1.557-0.1,3.162-0.1,4.764
		c0,0.764-0.023,1.473-0.047,2.16c-0.033,0.924-0.064,1.799-0.029,2.695c0.129,3.576,2.506,5.213,4.803,6.795
		c0.625,0.432,1.269,0.875,1.848,1.346c0.803,0.65,1.755,1.564,2.023,2.832c0.093,0.454,0.074,0.98,0.057,1.541
		c-0.012,0.248-0.021,0.506-0.021,0.768c0,3.766-0.119,7.604-0.238,11.316c-0.105,3.375-0.215,6.871-0.234,10.293
		c-0.016,3.036-0.1,6.107-0.182,9.078c-0.012,0.449-0.024,0.902-0.037,1.357c-3.461-4.768-7.08-9.701-10.773-14.695
		c-0.123-0.162-0.591-0.83-1.303-1.838c-14.296-20.309-24.004-33.24-28.854-38.426l-0.184-0.199c-1.385-1.484-1.85-1.982-3.063-2.34
		c-0.822-0.24-1.656-0.08-2.416,0.471c-0.715,0.52-1.313,1.375-1.557,2.234c-0.736,2.601-0.496,4.518-0.061,7.998
		c0.297,2.387,1.979,7.836,3.063,10.318c2.436,5.577,8.627,16.271,13.176,21.016c0.6,0.627,1.18,1.242,1.738,1.838
		c4.791,5.092,8.574,9.115,17.672,11.57c0.307,0.082,0.595,0.16,0.869,0.23c2.97,0.787,3.971,1.051,5.667,3.537
		c1.931,2.832,3.552,5.166,5.786,8.33c0.01,0.014,0.018,0.025,0.027,0.039c-0.055,2.752-0.115,5.549-0.201,8.303
		c-0.099,3.143-0.146,6.373-0.197,9.496c-0.046,3.186-0.096,6.477-0.197,9.746c-0.045,1.429-0.09,2.891-0.125,4.348
		c1.47-0.049,2.967-0.074,4.484-0.074c2.974,0,5.875,0.096,8.627,0.28c0.316-0.563,0.635-1.128,0.955-1.683
		c1.395-2.42,2.787-4.912,4.133-7.322c2.014-3.6,4.094-7.324,6.236-10.918c0.43-0.719,0.852-1.486,1.262-2.227
		c0.42-0.762,0.852-1.549,1.303-2.305c0.17-0.283,0.334-0.568,0.496-0.852c0.731-1.262,1.42-2.455,2.314-3.178
		c1.516-1.225,3.285-1.73,5.158-2.267c0.621-0.179,1.26-0.362,1.887-0.573c2.84-0.955,5.107-2.092,6.939-3.463
		c2.211-1.656,4.242-4.041,6.053-7.078c1.596-2.668,2.874-5.488,4.059-8.844c1.057-2.99,1.76-5.76,2.219-8.428
		C1103.426,282.42,1103.756,279.586,1103.234,277.113z"/>
	<g>
		<path fill="#FFFFFF" d="M914.25,409.432c2.318,0,4.272,1.883,4.272,4.199c0,2.389-1.954,4.271-4.272,4.271h-21.068v12.67h16.869
			c2.318,0,4.199,1.883,4.199,4.199s-1.881,4.199-4.199,4.199h-16.869v16.941c0,2.318-1.955,4.199-4.271,4.199
			s-4.199-1.881-4.199-4.199v-42.281c0-2.316,1.883-4.199,4.199-4.199H914.25z"/>
		<path fill="#FFFFFF" d="M920.695,434.771c0-13.973,10.859-25.34,24.254-25.34s24.326,11.367,24.326,25.34
			c0,13.975-10.932,25.34-24.326,25.34S920.695,448.746,920.695,434.771z M929.166,434.771c0,9.34,7.096,16.871,15.783,16.871
			c8.76,0,15.855-7.531,15.855-16.871c0-9.338-7.096-16.869-15.855-16.869C936.262,417.902,929.166,425.434,929.166,434.771z"/>
		<path fill="#FFFFFF" d="M975.066,434.771c0-13.973,10.861-25.34,24.255-25.34s24.327,11.367,24.327,25.34
			c0,13.975-10.934,25.34-24.327,25.34S975.066,448.746,975.066,434.771z M983.538,434.771c0,9.34,7.095,16.871,15.783,16.871
			c8.761,0,15.856-7.531,15.856-16.871c0-9.338-7.096-16.869-15.856-16.869C990.633,417.902,983.538,425.434,983.538,434.771z"/>
		<path fill="#FFFFFF" d="M1033.639,460.111c-2.316,0-4.199-1.881-4.199-4.199v-42.281c0-2.316,1.883-4.199,4.199-4.199h12.308
			c0.29,0,21.503-0.072,21.503,25.34c0,25.414-21.213,25.34-21.503,25.34H1033.639z M1037.91,451.643h8.036
			c0.218,0,3.476-0.074,6.733-2.174c4.199-2.678,6.299-7.674,6.299-14.697c0-7.166-2.172-12.162-6.588-14.842
			c-3.186-1.955-6.371-2.027-6.444-2.027h-8.036V451.643z"/>
		<g>
			<path fill="#FFFFFF" d="M758.356,384.518v0.725c0,4.199-1.664,8.182-4.561,11.076c-3.186,3.186-7.53,4.924-12.309,4.924h-0.579
				c-6.153-0.217-11.511-3.693-14.046-9.123c-0.289-0.578-0.361-1.23-0.361-1.809c0-1.594,0.869-3.113,2.461-3.838
				c0.58-0.289,1.158-0.361,1.738-0.361c1.592,0,3.186,0.867,3.908,2.461c1.16,2.533,3.621,4.128,6.59,4.199h0.361
				c2.535,0,4.634-0.797,6.154-2.316c1.448-1.449,2.244-3.258,2.244-5.213v-0.291c-0.217-3.33-6.516-6.297-9.268-7.094l-0.289-0.145
				c-7.457-2.679-11.223-7.385-11.223-13.9v-0.58c0.146-3.693,1.811-7.023,4.924-9.34c2.607-2.027,6.154-3.258,9.918-3.258h0.652
				c3.041,0.072,6.154,1.303,8.688,3.186c1.086,0.869,1.665,2.1,1.665,3.33c0,0.869-0.289,1.811-0.869,2.533
				c-0.869,1.086-2.1,1.666-3.402,1.666c-0.869,0-1.738-0.217-2.534-0.797c-1.087-0.869-2.534-1.375-3.837-1.447h-0.436
				c-3.547,0-6.298,1.811-6.371,4.416v0.291c0,3.547,2.752,4.85,5.576,6.008C745.325,370.473,757.923,374.527,758.356,384.518z"/>
			<path fill="#FFFFFF" d="M768.419,401.387c-2.389,0-4.271-1.883-4.271-4.199v-42.281c0-2.316,1.883-4.199,4.271-4.199
				c2.317,0,4.199,1.883,4.199,4.199v38.01h14.77c2.318,0,4.271,1.883,4.271,4.271c0,2.316-1.953,4.199-4.271,4.199H768.419z"/>
			<path fill="#FFFFFF" d="M839.371,395.596c0.217,0.506,0.289,1.086,0.289,1.592c0,2.172-1.664,4.199-4.199,4.199
				c-1.664,0-3.258-1.014-3.909-2.68l-3.185-7.891h-19.622l-3.186,7.891c-0.65,1.666-2.244,2.68-3.909,2.68
				c-2.462,0-4.198-2.1-4.198-4.199c0-0.578,0.072-1.086,0.289-1.592l16.869-42.211c0.651-1.592,2.244-2.678,3.982-2.678
				c1.664,0,3.258,1.086,3.909,2.678L839.371,395.596z M824.963,382.418l-6.37-16.145l-6.444,16.145H824.963z"/>
			<path fill="#FFFFFF" d="M883.463,397.188v-29.611l-11.367,15.203c-0.797,1.086-2.1,1.738-3.402,1.738
				c-1.304,0-2.607-0.652-3.403-1.738l-11.366-15.203v29.611c0,2.316-1.883,4.199-4.272,4.199c-2.317,0-4.199-1.883-4.199-4.199
				v-42.281c0-2.244,1.81-4.199,4.272-4.199c1.303,0,2.533,0.578,3.33,1.664l15.639,20.852l15.638-20.852
				c0.796-1.086,2.027-1.664,3.331-1.664c2.461,0,4.271,1.955,4.271,4.199v42.281c0,2.316-1.883,4.199-4.271,4.199
				C885.346,401.387,883.463,399.504,883.463,397.188z"/>
			<path fill="#FFFFFF" d="M935.734,397.188v-29.611l-11.367,15.203c-0.797,1.086-2.1,1.738-3.402,1.738s-2.607-0.652-3.403-1.738
				l-11.366-15.203v29.611c0,2.316-1.883,4.199-4.271,4.199c-2.317,0-4.199-1.883-4.199-4.199v-42.281
				c0-2.244,1.809-4.199,4.271-4.199c1.303,0,2.533,0.578,3.33,1.664l15.639,20.852l15.639-20.852
				c0.796-1.086,2.026-1.664,3.33-1.664c2.461,0,4.271,1.955,4.271,4.199v42.281c0,2.316-1.883,4.199-4.271,4.199
				C937.617,401.387,935.734,399.504,935.734,397.188z"/>
			<path fill="#FFFFFF" d="M981.707,397.188c0,2.316-1.883,4.199-4.271,4.199h-23.168c-2.389,0-4.271-1.883-4.271-4.199v-42.281
				c0-2.316,1.883-4.199,4.271-4.199h23.168c2.389,0,4.271,1.883,4.271,4.199c0,2.389-1.883,4.271-4.271,4.271h-18.969v12.67h14.77
				c2.316,0,4.199,1.883,4.199,4.199s-1.883,4.199-4.199,4.199h-14.77v12.67h18.969
				C979.824,392.916,981.707,394.799,981.707,397.188z"/>
			<path fill="#FFFFFF" d="M1019.572,394.943c0.434,0.725,0.65,1.447,0.65,2.244c0,1.375-0.724,2.752-2.027,3.547
				c-0.65,0.436-1.447,0.652-2.172,0.652c-1.447,0-2.822-0.725-3.619-1.953l-9.34-14.916h-7.096v12.67
				c0,2.316-1.955,4.199-4.271,4.199s-4.199-1.883-4.199-4.199v-42.281c0-2.316,1.883-4.199,4.199-4.199h11.512
				c0.435,0,4.271,0.072,8.254,2.027c5.646,2.822,8.76,8.035,8.76,14.842c0,0.434-0.072,4.344-2.027,8.254
				c-1.52,2.969-3.691,5.213-6.371,6.66L1019.572,394.943z M995.969,376.047h7.24c3.621,0,5.938-1.23,7.313-3.838
				c1.158-2.172,1.23-4.488,1.23-4.633c0-3.621-1.303-5.938-4.055-7.313c-2.172-1.086-4.488-1.086-4.488-1.086h-7.24V376.047z"/>
		</g>
	</g>
</g>
</svg>
