<?xml version="1.0" encoding="utf-8"?>
<!-- Generator: Adobe Illustrator 16.0.2, SVG Export Plug-In . SVG Version: 6.00 Build 0)  -->
<!DOCTYPE svg PUBLIC "-//W3C//DTD SVG 1.1//EN" "http://www.w3.org/Graphics/SVG/1.1/DTD/svg11.dtd">
<svg version="1.1" id="Layer_1" xmlns="http://www.w3.org/2000/svg" xmlns:xlink="http://www.w3.org/1999/xlink" x="0px" y="0px"
	 width="1830.001px" height="800px" viewBox="0 0 1830.001 800" enable-background="new 0 0 1830.001 800" xml:space="preserve">
<rect fill="#00A7FF" width="1830.001" height="800"/>
<g>
	<g>
		<path fill="#FFFFFF" d="M750.38,410.319c0,2.346,1.904,4.102,4.104,4.102h6.74c2.197,0,4.103-1.756,4.103-4.102v-17.438
			c0-3.662-0.731-7.033-3.077-9.816l-16.705-20.367c-3.516-4.396-4.835-9.818-4.835-15.533v-11.867
			c0-7.475,6.302-13.775,13.774-13.775h6.74c7.472,0,13.773,6.156,13.773,13.775v11.428h-9.671v-11.428
			c0-2.197-1.905-4.104-4.103-4.104h-6.74c-2.199,0-4.104,1.906-4.104,4.104v11.867c0,3.664,0.732,6.889,3.078,9.818l16.556,20.367
			c3.665,4.395,4.983,9.818,4.983,15.531v17.438c0,7.621-6.302,13.773-13.773,13.773h-6.74c-7.62,0-13.774-6.152-13.774-13.773
			v-15.678h9.671V410.319z"/>
		<path fill="#FFFFFF" d="M796.389,414.421h18.17v9.672h-27.841v-102.57h9.671V414.421z"/>
		<path fill="#FFFFFF" d="M821.884,424.093l13.921-102.57h17.436l13.921,102.57h-9.672l-4.395-30.186H835.95l-4.249,30.186H821.884z
			 M844.156,331.048l-7.181,53.922h15.092l-7.179-53.922H844.156z"/>
		<path fill="#FFFFFF" d="M924.307,380.427l3.077-40l-1.025-0.148l-16.118,83.814h-10.257l-15.973-83.814l-1.024,0.148l2.637,40
			v43.666h-9.671v-102.57h13.774l15.385,81.91l14.945-81.91h13.921v102.57h-9.671V380.427z"/>
		<path fill="#FFFFFF" d="M994.054,380.427l3.076-40l-1.025-0.148l-16.117,83.814h-10.26l-15.971-83.814l-1.023,0.148l2.637,40
			v43.666h-9.672v-102.57h13.775l15.385,81.91l14.945-81.91h13.92v102.57h-9.67V380.427z"/>
		<path fill="#FFFFFF" d="M1025.116,331.194v33.115h15.971v8.939h-15.971v41.172h18.17v9.672h-27.842v-102.57h27.986v9.672H1025.116
			z"/>
		<path fill="#FFFFFF" d="M1075.519,321.522c7.473,0,13.773,6.301,13.773,13.775v20.219c0,6.156-2.488,10.404-8.645,13.336
			c5.863,1.318,8.645,5.715,8.645,10.988v44.252h-9.67v-43.518c0-4.982-2.492-7.326-7.326-7.326h-8.938v50.844h-9.672v-102.57
			H1075.519z M1070.829,364.31c6.01,0,8.793-3.223,8.793-9.377v-19.635c0-2.197-1.904-4.104-4.104-4.104h-12.16v33.115H1070.829z"/>
	</g>
	<g>
		<path fill="#FFFFFF" d="M747.889,526.337c0,2.031,1.651,3.555,3.557,3.555h5.841c1.904,0,3.557-1.523,3.557-3.555v-15.111
			c0-3.176-0.636-6.096-2.668-8.51l-14.477-17.652c-3.047-3.809-4.191-8.506-4.191-13.461v-10.285
			c0-6.477,5.461-11.936,11.938-11.936h5.841c6.476,0,11.938,5.332,11.938,11.936v9.904h-8.381v-9.904
			c0-1.904-1.652-3.557-3.557-3.557h-5.841c-1.905,0-3.557,1.652-3.557,3.557v10.285c0,3.178,0.636,5.971,2.666,8.51l14.351,17.65
			c3.177,3.811,4.318,8.508,4.318,13.463v15.111c0,6.604-5.462,11.936-11.938,11.936h-5.841c-6.604,0-11.938-5.332-11.938-11.936
			v-13.59h8.382V526.337z"/>
		<path fill="#FFFFFF" d="M796.143,457.761v80.512h-8.381v-80.512h-10.286v-8.379h28.955v8.379H796.143z"/>
		<path fill="#FFFFFF" d="M825.096,529.892v-32.129l-14.224-48.381h8.637l9.779,35.428l10.157-35.428h8.636l-14.604,48.254v32.256
			h7.238v8.381h-22.857v-8.381H825.096z"/>
		<path fill="#FFFFFF" d="M862.81,529.892h15.746v8.381h-24.128v-88.891h8.382V529.892z"/>
		<path fill="#FFFFFF" d="M895.825,457.761v28.699h13.843v7.748h-13.843v35.684h15.748v8.381h-24.129v-88.891h24.255v8.379H895.825z
			"/>
		<path fill="#FFFFFF" d="M951.823,457.761v28.699h13.969v7.748h-13.969v44.064h-8.381v-88.891h24.256v8.379H951.823z"/>
		<path fill="#FFFFFF" d="M1006.302,526.337c0,6.604-5.334,11.936-11.938,11.936h-8.381c-6.479,0-11.938-5.332-11.938-11.936v-65.02
			c0-6.604,5.459-11.936,11.938-11.936h8.381c6.604,0,11.938,5.332,11.938,11.936V526.337z M994.364,457.761h-8.381
			c-1.904,0-3.555,1.652-3.555,3.557v65.02c0,2.031,1.65,3.555,3.555,3.555h8.381c1.906,0,3.555-1.523,3.555-3.555v-65.02
			C997.919,459.413,996.271,457.761,994.364,457.761z"/>
		<path fill="#FFFFFF" d="M1048.716,526.337c0,6.604-5.334,11.936-11.939,11.936h-8.379c-6.479,0-11.938-5.332-11.938-11.936v-65.02
			c0-6.604,5.459-11.936,11.938-11.936h8.379c6.605,0,11.939,5.332,11.939,11.936V526.337z M1036.776,457.761h-8.379
			c-1.904,0-3.557,1.652-3.557,3.557v65.02c0,2.031,1.652,3.555,3.557,3.555h8.379c1.906,0,3.557-1.523,3.557-3.555v-65.02
			C1040.333,459.413,1038.683,457.761,1036.776,457.761z"/>
		<path fill="#FFFFFF" d="M1078.683,449.382c6.479,0,11.813,5.332,11.813,11.936v65.02c0,6.604-5.334,11.936-11.813,11.936h-19.809
			v-88.891H1078.683z M1067.255,529.892h11.428c1.904,0,3.432-1.523,3.432-3.555v-65.02c0-1.904-1.527-3.557-3.432-3.557h-11.428
			V529.892z"/>
	</g>
	<path fill="#FFFFFF" d="M966.897,105.78c-12.52-7.152-26.115-10.781-40.408-10.781c-14.065,0-25.013,3.621-29.066,5.178
		c-8.021,3.091-14.939,9.531-17.97,12.641c-1.084-0.531-2.282-1.033-3.641-1.525c-2.415-0.863-5.1-1.301-7.98-1.301
		c-7.286,0-15.087,2.779-21.403,7.623c-6.414,4.922-16.913,16.396-15.151,37.953c1.702,20.893,13.451,31.479,23.356,36.734
		c-0.118,0.35-0.181,0.721-0.181,1.096v28.025h-3.635c-1.925,0-3.489,1.563-3.489,3.49l-0.008,28.795
		c0,1.92,1.566,3.484,3.493,3.484l124.644,0.01c1.922,0,3.484-1.566,3.484-3.49c0-0.127-0.014-0.25-0.035-0.275
		c0.018-0.139,0.035-0.283,0.035-0.424v-27.248c0-0.146-0.014-0.285-0.031-0.422c0.02-0.139,0.031-0.281,0.031-0.43
		c0-1.92-1.563-3.482-3.484-3.482h-3.326v-28.41c4.123-0.5,7.834-1.729,11.047-3.664c12.975-7.816,14.836-24.699,15.535-31.053
		l0.047-0.413C999.126,154.629,1001.312,125.452,966.897,105.78z M971.972,228.405v21.82l-69.664-0.002v-21.82L971.972,228.405z
		 M895.33,228.403l-0.002,21.82h-6.649v-21.82H895.33z M881.702,228.403v21.82h-6.649v-21.82H881.702z M868.079,228.403v21.816
		h-13.78l0.002-21.816H868.079z M861.425,195.274c3.005,1.047,5.063,1.42,5.332,1.467c1.633,0.254,3.238-0.891,3.497-2.541
		c0.132-0.807-0.062-1.617-0.542-2.279c-0.478-0.66-1.188-1.096-1.998-1.227c-0.279-0.047-27.826-4.854-30.34-35.629
		c-1.521-18.663,7.354-28.432,12.777-32.596c5.18-3.971,11.802-6.344,17.721-6.344c2.162,0,4.14,0.316,5.879,0.939
		c4.844,1.731,6.141,3.277,6.374,3.613c0.488,1.406,2.047,2.291,3.489,1.986c0.802-0.158,1.492-0.623,1.945-1.304
		c0.455-0.683,0.615-1.499,0.451-2.304c-0.105-0.514-0.437-1.479-1.479-2.654c2.769-2.74,8.662-8.037,15.094-10.51
		c3.732-1.436,13.819-4.779,26.838-4.779c13.221,0,25.803,3.359,37.391,9.984c31.023,17.73,29.137,43.262,28.82,46.113l-0.047,0.414
		c-0.609,5.535-2.23,20.236-12.607,26.484c-6.898,4.152-16.854,4.057-29.361-0.271c0.938-0.895,1.775-1.746,2.572-2.621
		c0.553-0.6,0.838-1.381,0.801-2.197c-0.031-0.82-0.385-1.576-0.988-2.125c-1.193-1.104-3.236-1.01-4.328,0.189
		c-6.152,6.715-11.889,10.133-17.082,10.15c-6.07,0-10.568-4.861-13.26-7.768l-0.153-0.166c-0.44-0.473-0.838-0.898-1.194-1.256
		c-1.162-1.15-3.175-1.145-4.329,0.016c-0.577,0.582-0.891,1.35-0.891,2.166c0.003,0.82,0.324,1.588,0.903,2.16
		c0.344,0.344,0.735,0.766,1.176,1.238c3.144,3.402,9.001,9.729,17.799,9.729c4.381-0.014,8.943-1.688,13.574-4.971
		c7.266,2.826,13.953,4.441,19.898,4.811v28.236l-103.732-0.008V195.274z"/>
	<g>
		<path fill="#FFFFFF" d="M899.897,647.763c0.701-0.127,1.422-0.262,2.12-0.33c0.967-0.102,2.205-0.129,3.226,0.535
			c0.36,0.238,0.701,0.602,1.06,0.986c0.158,0.172,0.322,0.35,0.497,0.523c2.499,2.5,4.969,5.127,7.354,7.672
			c2.173,2.313,4.421,4.707,6.681,6.99c2.003,2.025,3.988,4.123,5.907,6.148c1.135,1.197,2.301,2.434,3.465,3.646
			c0.734,0.762,1.471,1.525,2.205,2.287c2.352,2.441,4.787,4.967,7.143,7.477c2.021,2.154,4.133,4.33,6.174,6.436
			c2.086,2.146,4.238,4.365,6.342,6.604c2.051,2.184,4.221,4.484,6.26,6.525c2.082,2.082,4.734,2.316,6.598,0.574
			c0.043-0.039,0.084-0.08,0.123-0.117c1.742-1.742,1.617-4.418-0.301-6.508c-0.732-0.797-1.553-1.559-2.344-2.297
			c-0.313-0.293-0.625-0.584-0.934-0.875c-1.303-1.244-2.645-2.512-3.943-3.738c-2.998-2.832-6.098-5.762-9.094-8.727
			c-2.537-2.506-5.172-4.984-7.723-7.383c-2.826-2.656-5.746-5.404-8.564-8.221c-2.064-2.064-4.262-4.172-6.523-6.262
			c-1.109-1.027-2.213-2.092-3.284-3.125c-1.049-1.012-2.132-2.061-3.207-3.053c-2.229-2.057-4.485-4.221-6.52-6.256
			c-0.397-0.396-2.704-2.479-3.211-3.158c-0.781-1.051-0.754-2.201-0.665-3.195c0.066-0.773,0.208-1.555,0.343-2.309
			c0.444-2.473,0.903-5.025-1.2-7.541c-0.625-0.746-1.4-1.467-2.222-2.229c-0.322-0.299-0.652-0.607-0.979-0.918
			c-0.666-0.641-1.337-1.293-2.011-1.943c-1.46-1.418-2.97-2.883-4.509-4.314c-0.996-0.932-1.994-1.908-2.961-2.852
			c-1.157-1.129-2.348-2.299-3.561-3.41c-1.055-0.965-2.11-2.002-3.131-3.008c-1.097-1.078-2.228-2.193-3.392-3.248
			c-0.979-0.895-1.963-1.854-2.915-2.777c-0.632-0.619-1.29-1.26-1.95-1.887c-0.16-0.148-0.317-0.305-0.478-0.459
			c-1.101-1.078-2.14-2.102-3.335-1.326l-0.22,0.221l-0.011,0.012c-0.854,1.316,0.63,2.711,2.063,4.063
			c0.263,0.246,0.532,0.5,0.776,0.744l18.644,18.643c0.291,0.291,0.611,0.588,0.92,0.877c0.797,0.738,1.622,1.5,2.025,2.223
			c0.14,0.254,0.557,1.117-0.012,1.686c-0.076,0.076-0.167,0.145-0.275,0.201c-1.047,0.58-2.462-0.916-3.707-2.234
			c-0.254-0.271-0.496-0.527-0.73-0.764l-18.748-18.748c-0.247-0.248-0.495-0.508-0.757-0.787c-1.373-1.463-2.796-2.971-4.062-2.041
			l-0.184,0.182l-0.01,0.012c-0.781,1.191,0.203,2.176,1.343,3.314l21.655,21.656c0.21,0.209,0.41,0.4,0.605,0.584
			c1.127,1.072,1.808,1.721,0.93,2.832c-0.435,0.551-1.158,0.527-1.571,0.244c-0.876-0.596-1.851-1.578-2.79-2.527
			c-0.156-0.156-0.31-0.311-0.465-0.465c-3.336-3.336-6.32-6.367-9.204-9.303c-2.87-2.916-5.837-5.932-9.13-9.225
			c-0.278-0.279-0.559-0.582-0.859-0.902c-1.418-1.521-3.026-3.248-4.382-2.344l-0.207,0.209l-0.011,0.012
			c-0.851,1.291,0.575,2.645,1.953,3.953c0.244,0.229,0.496,0.467,0.726,0.697l18.827,18.824c0.282,0.285,0.59,0.57,0.918,0.875
			c0.823,0.764,1.674,1.551,2.055,2.252c0.306,0.568,0.253,1.279-0.122,1.654c-0.198,0.199-0.476,0.295-0.804,0.277
			c-0.978-0.051-2.09-1.234-3.167-2.375c-0.272-0.291-0.531-0.568-0.788-0.826l-18.46-18.457c-0.263-0.264-0.532-0.551-0.813-0.855
			c-1.343-1.443-2.865-3.076-4.191-2.154l-0.188,0.191c-0.872,1.158,0.428,2.457,1.576,3.605c2.912,2.91,5.807,5.994,8.606,8.973
			c2.792,2.973,5.679,6.045,8.57,8.938c1.097,1.096,2.146,2.213,3.162,3.291c1.001,1.064,2.034,2.164,3.098,3.229
			c0.506,0.506,0.962,0.994,1.402,1.465c0.592,0.637,1.152,1.238,1.771,1.809C894.658,648.729,897.322,648.239,899.897,647.763z"/>
		<path fill="#FFFFFF" d="M867.003,700.356c0.064,0.076,0.131,0.15,0.206,0.225l0,0c0.88,0.881,2.289,1.322,3.51,1.107
			c1.152-0.205,2.28-0.939,3.544-2.316c1.244-1.359,2.998-3.139,4.689-4.863c1.295-1.316,2.517-2.563,3.42-3.52
			c1.853-1.967,3.826-4.146,5.735-6.26c2.91-3.211,5.919-6.533,8.598-9.215c2.535-2.535,5.032-5.184,7.446-7.748
			c1.854-1.967,3.769-3.998,5.676-5.951c2.54-2.6,4.391-4.523,6.602-6.863c1.943-2.055,2.91-2.152,5.778-2.441
			c0.267-0.023,0.545-0.053,0.842-0.084c8.8-0.924,12.905-4.096,18.103-8.105c0.609-0.471,1.236-0.953,1.885-1.445
			c4.924-3.725,12.252-12.723,15.338-17.531c1.373-2.143,3.74-6.947,4.371-9.115c0.92-3.164,1.426-4.904,1.129-7.426
			c-0.098-0.832-0.523-1.715-1.111-2.301c-0.621-0.623-1.373-0.898-2.17-0.797c-1.178,0.152-1.684,0.545-3.188,1.717l-0.199,0.158
			c-5.268,4.088-16.188,14.637-32.458,31.346c-0.809,0.83-1.343,1.383-1.479,1.514c-4.677,4.58-9.251,9.105-13.599,13.453
			c-2.243,2.242-4.565,4.418-6.813,6.529c-2.247,2.104-4.566,4.277-6.811,6.521c-2.152,2.154-4.473,4.328-6.715,6.428
			c-2.313,2.176-4.708,4.42-7.004,6.717c-0.92,0.92-1.9,1.84-2.853,2.729l-0.571,0.537c-2.421,2.273-6.03,5.77-8.22,7.959
			c-0.43,0.428-0.889,0.846-1.331,1.248c-0.721,0.654-1.466,1.33-2.091,2.068C865.737,696.423,865.634,698.728,867.003,700.356z"/>
	</g>
	<path fill="#FFFFFF" d="M757.318,288.997c0,2.574-2.087,4.662-4.662,4.662l0,0c-2.575,0-4.662-2.088-4.662-4.662l0,0
		c0-2.576,2.087-4.662,4.662-4.662l0,0C755.231,284.335,757.318,286.421,757.318,288.997L757.318,288.997z"/>
	<path fill="#FFFFFF" d="M776.434,288.997c0,2.574-2.087,4.662-4.662,4.662l0,0c-2.575,0-4.662-2.088-4.662-4.662l0,0
		c0-2.576,2.087-4.662,4.662-4.662l0,0C774.347,284.335,776.434,286.421,776.434,288.997L776.434,288.997z"/>
	<path fill="#FFFFFF" d="M795.549,288.997c0,2.574-2.087,4.662-4.662,4.662l0,0c-2.575,0-4.662-2.088-4.662-4.662l0,0
		c0-2.576,2.087-4.662,4.662-4.662l0,0C793.462,284.335,795.549,286.421,795.549,288.997L795.549,288.997z"/>
	<path fill="#FFFFFF" d="M814.664,288.997c0,2.574-2.087,4.662-4.662,4.662l0,0c-2.575,0-4.662-2.088-4.662-4.662l0,0
		c0-2.576,2.087-4.662,4.662-4.662l0,0C812.577,284.335,814.664,286.421,814.664,288.997L814.664,288.997z"/>
	<path fill="#FFFFFF" d="M833.779,288.997c0,2.574-2.087,4.662-4.662,4.662l0,0c-2.575,0-4.662-2.088-4.662-4.662l0,0
		c0-2.576,2.087-4.662,4.662-4.662l0,0C831.692,284.335,833.779,286.421,833.779,288.997L833.779,288.997z"/>
	<path fill="#FFFFFF" d="M852.895,288.997c0,2.574-2.087,4.662-4.662,4.662l0,0c-2.575,0-4.662-2.088-4.662-4.662l0,0
		c0-2.576,2.087-4.662,4.662-4.662l0,0C850.808,284.335,852.895,286.421,852.895,288.997L852.895,288.997z"/>
	<path fill="#FFFFFF" d="M872.01,288.997c0,2.574-2.087,4.662-4.662,4.662l0,0c-2.575,0-4.662-2.088-4.662-4.662l0,0
		c0-2.576,2.087-4.662,4.662-4.662l0,0C869.923,284.335,872.01,286.421,872.01,288.997L872.01,288.997z"/>
	<path fill="#FFFFFF" d="M891.125,288.997c0,2.574-2.087,4.662-4.662,4.662l0,0c-2.575,0-4.662-2.088-4.662-4.662l0,0
		c0-2.576,2.087-4.662,4.662-4.662l0,0C889.038,284.335,891.125,286.421,891.125,288.997L891.125,288.997z"/>
	<path fill="#FFFFFF" d="M910.24,288.997c0,2.574-2.087,4.662-4.662,4.662l0,0c-2.575,0-4.663-2.088-4.663-4.662l0,0
		c0-2.576,2.088-4.662,4.663-4.662l0,0C908.153,284.335,910.24,286.421,910.24,288.997L910.24,288.997z"/>
	<path fill="#FFFFFF" d="M929.356,288.997c0,2.574-2.088,4.662-4.663,4.662l0,0c-2.575,0-4.663-2.088-4.663-4.662l0,0
		c0-2.576,2.088-4.662,4.663-4.662l0,0C927.269,284.335,929.356,286.421,929.356,288.997L929.356,288.997z"/>
	<path fill="#FFFFFF" d="M948.472,288.997c0,2.574-2.088,4.662-4.662,4.662l0,0c-2.576,0-4.664-2.088-4.664-4.662l0,0
		c0-2.576,2.088-4.662,4.664-4.662l0,0C946.384,284.335,948.472,286.421,948.472,288.997L948.472,288.997z"/>
	<path fill="#FFFFFF" d="M967.587,288.997c0,2.574-2.088,4.662-4.662,4.662l0,0c-2.576,0-4.664-2.088-4.664-4.662l0,0
		c0-2.576,2.088-4.662,4.664-4.662l0,0C965.499,284.335,967.587,286.421,967.587,288.997L967.587,288.997z"/>
	<path fill="#FFFFFF" d="M986.702,288.997c0,2.574-2.088,4.662-4.664,4.662l0,0c-2.574,0-4.662-2.088-4.662-4.662l0,0
		c0-2.576,2.088-4.662,4.662-4.662l0,0C984.614,284.335,986.702,286.421,986.702,288.997L986.702,288.997z"/>
	<path fill="#FFFFFF" d="M1005.817,288.997c0,2.574-2.088,4.662-4.664,4.662l0,0c-2.574,0-4.662-2.088-4.662-4.662l0,0
		c0-2.576,2.088-4.662,4.662-4.662l0,0C1003.729,284.335,1005.817,286.421,1005.817,288.997L1005.817,288.997z"/>
	<path fill="#FFFFFF" d="M1024.933,288.997c0,2.574-2.088,4.662-4.664,4.662l0,0c-2.574,0-4.662-2.088-4.662-4.662l0,0
		c0-2.576,2.088-4.662,4.662-4.662l0,0C1022.845,284.335,1024.933,286.421,1024.933,288.997L1024.933,288.997z"/>
	<path fill="#FFFFFF" d="M1044.048,288.997c0,2.574-2.088,4.662-4.664,4.662l0,0c-2.574,0-4.662-2.088-4.662-4.662l0,0
		c0-2.576,2.088-4.662,4.662-4.662l0,0C1041.96,284.335,1044.048,286.421,1044.048,288.997L1044.048,288.997z"/>
	<path fill="#FFFFFF" d="M1063.163,288.997c0,2.574-2.088,4.662-4.664,4.662l0,0c-2.574,0-4.662-2.088-4.662-4.662l0,0
		c0-2.576,2.088-4.662,4.662-4.662l0,0C1061.075,284.335,1063.163,286.421,1063.163,288.997L1063.163,288.997z"/>
	<path fill="#FFFFFF" d="M1082.276,288.997c0,2.574-2.086,4.662-4.662,4.662l0,0c-2.574,0-4.662-2.088-4.662-4.662l0,0
		c0-2.576,2.088-4.662,4.662-4.662l0,0C1080.19,284.335,1082.276,286.421,1082.276,288.997L1082.276,288.997z"/>
	<path fill="#FFFFFF" d="M757.784,569.409c0,2.574-2.087,4.662-4.662,4.662l0,0c-2.574,0-4.662-2.088-4.662-4.662l0,0
		c0-2.576,2.088-4.662,4.662-4.662l0,0C755.697,564.747,757.784,566.833,757.784,569.409L757.784,569.409z"/>
	<path fill="#FFFFFF" d="M776.899,569.409c0,2.574-2.087,4.662-4.662,4.662l0,0c-2.574,0-4.662-2.088-4.662-4.662l0,0
		c0-2.576,2.088-4.662,4.662-4.662l0,0C774.813,564.747,776.899,566.833,776.899,569.409L776.899,569.409z"/>
	<path fill="#FFFFFF" d="M796.015,569.409c0,2.574-2.087,4.662-4.662,4.662l0,0c-2.574,0-4.662-2.088-4.662-4.662l0,0
		c0-2.576,2.088-4.662,4.662-4.662l0,0C793.928,564.747,796.015,566.833,796.015,569.409L796.015,569.409z"/>
	<path fill="#FFFFFF" d="M815.13,569.409c0,2.574-2.087,4.662-4.662,4.662l0,0c-2.575,0-4.662-2.088-4.662-4.662l0,0
		c0-2.576,2.087-4.662,4.662-4.662l0,0C813.043,564.747,815.13,566.833,815.13,569.409L815.13,569.409z"/>
	<path fill="#FFFFFF" d="M834.245,569.409c0,2.574-2.087,4.662-4.662,4.662l0,0c-2.575,0-4.662-2.088-4.662-4.662l0,0
		c0-2.576,2.087-4.662,4.662-4.662l0,0C832.158,564.747,834.245,566.833,834.245,569.409L834.245,569.409z"/>
	<path fill="#FFFFFF" d="M853.36,569.409c0,2.574-2.087,4.662-4.662,4.662l0,0c-2.575,0-4.662-2.088-4.662-4.662l0,0
		c0-2.576,2.087-4.662,4.662-4.662l0,0C851.273,564.747,853.36,566.833,853.36,569.409L853.36,569.409z"/>
	<path fill="#FFFFFF" d="M872.476,569.409c0,2.574-2.087,4.662-4.662,4.662l0,0c-2.575,0-4.662-2.088-4.662-4.662l0,0
		c0-2.576,2.087-4.662,4.662-4.662l0,0C870.389,564.747,872.476,566.833,872.476,569.409L872.476,569.409z"/>
	<path fill="#FFFFFF" d="M891.591,569.409c0,2.574-2.087,4.662-4.662,4.662l0,0c-2.575,0-4.662-2.088-4.662-4.662l0,0
		c0-2.576,2.087-4.662,4.662-4.662l0,0C889.504,564.747,891.591,566.833,891.591,569.409L891.591,569.409z"/>
	<path fill="#FFFFFF" d="M910.706,569.409c0,2.574-2.087,4.662-4.662,4.662l0,0c-2.575,0-4.662-2.088-4.662-4.662l0,0
		c0-2.576,2.087-4.662,4.662-4.662l0,0C908.619,564.747,910.706,566.833,910.706,569.409L910.706,569.409z"/>
	<path fill="#FFFFFF" d="M929.821,569.409c0,2.574-2.086,4.662-4.662,4.662l0,0c-2.575,0-4.662-2.088-4.662-4.662l0,0
		c0-2.576,2.087-4.662,4.662-4.662l0,0C927.735,564.747,929.821,566.833,929.821,569.409L929.821,569.409z"/>
	<path fill="#FFFFFF" d="M948.937,569.409c0,2.574-2.086,4.662-4.662,4.662l0,0c-2.574,0-4.662-2.088-4.662-4.662l0,0
		c0-2.576,2.088-4.662,4.662-4.662l0,0C946.851,564.747,948.937,566.833,948.937,569.409L948.937,569.409z"/>
	<path fill="#FFFFFF" d="M968.052,569.409c0,2.574-2.086,4.662-4.662,4.662l0,0c-2.574,0-4.662-2.088-4.662-4.662l0,0
		c0-2.576,2.088-4.662,4.662-4.662l0,0C965.966,564.747,968.052,566.833,968.052,569.409L968.052,569.409z"/>
	<path fill="#FFFFFF" d="M987.167,569.409c0,2.574-2.086,4.662-4.662,4.662l0,0c-2.574,0-4.662-2.088-4.662-4.662l0,0
		c0-2.576,2.088-4.662,4.662-4.662l0,0C985.081,564.747,987.167,566.833,987.167,569.409L987.167,569.409z"/>
	<path fill="#FFFFFF" d="M1006.282,569.409c0,2.574-2.086,4.662-4.662,4.662l0,0c-2.574,0-4.662-2.088-4.662-4.662l0,0
		c0-2.576,2.088-4.662,4.662-4.662l0,0C1004.196,564.747,1006.282,566.833,1006.282,569.409L1006.282,569.409z"/>
	<path fill="#FFFFFF" d="M1025.397,569.409c0,2.574-2.086,4.662-4.662,4.662l0,0c-2.574,0-4.662-2.088-4.662-4.662l0,0
		c0-2.576,2.088-4.662,4.662-4.662l0,0C1023.312,564.747,1025.397,566.833,1025.397,569.409L1025.397,569.409z"/>
	<path fill="#FFFFFF" d="M1044.513,569.409c0,2.574-2.086,4.662-4.662,4.662l0,0c-2.574,0-4.662-2.088-4.662-4.662l0,0
		c0-2.576,2.088-4.662,4.662-4.662l0,0C1042.427,564.747,1044.513,566.833,1044.513,569.409L1044.513,569.409z"/>
	<path fill="#FFFFFF" d="M1063.628,569.409c0,2.574-2.086,4.662-4.662,4.662l0,0c-2.574,0-4.662-2.088-4.662-4.662l0,0
		c0-2.576,2.088-4.662,4.662-4.662l0,0C1061.542,564.747,1063.628,566.833,1063.628,569.409L1063.628,569.409z"/>
	<path fill="#FFFFFF" d="M1082.743,569.409c0,2.574-2.086,4.662-4.662,4.662l0,0c-2.574,0-4.662-2.088-4.662-4.662l0,0
		c0-2.576,2.088-4.662,4.662-4.662l0,0C1080.657,564.747,1082.743,566.833,1082.743,569.409L1082.743,569.409z"/>
</g>
</svg>
