<?xml version="1.0" encoding="utf-8"?>
<!-- Generator: Adobe Illustrator 17.0.0, SVG Export Plug-In . SVG Version: 6.00 Build 0)  -->
<!DOCTYPE svg PUBLIC "-//W3C//DTD SVG 1.1//EN" "http://www.w3.org/Graphics/SVG/1.1/DTD/svg11.dtd">
<svg version="1.1" id="Layer_1" xmlns="http://www.w3.org/2000/svg" xmlns:xlink="http://www.w3.org/1999/xlink" x="0px" y="0px"
	 width="1920px" height="1503.439px" viewBox="0 0 1920 1503.439" enable-background="new 0 0 1920 1503.439" xml:space="preserve">
<g>
	<path fill="#404040" d="M1593.368,1160.663c-2.459,0-7.186,0.084-7.186-0.207c0-13.402-10.861-24.266-24.264-24.266
		c-6.451,0-12.316,2.521-16.662,6.63c-8.294-25.431-32.199-43.805-60.394-43.805c-34.666,0-62.84,27.768-63.505,62.275
		c-1.342-0.137-2.703-0.212-4.079-0.212c-21.68,0-39.258,17.577-39.258,39.261c0,19.388,14.059,36.069,32.539,39.256l0,0h184.932
		l0,0c20.691-1.099,37.132-18.704,37.132-39.673C1632.624,1178.24,1615.051,1160.663,1593.368,1160.663z"/>
	<path fill="#FF2151" d="M1443.504,1170.968c-7.016-6.295-16.28-10.135-26.449-10.135c-11.045,0-21.031,4.522-28.218,11.811
		l10.71,10.706c4.443-4.553,10.643-7.382,17.508-7.382c6.23,0,11.914,2.334,16.234,6.161c5.063,4.488,8.255,11.037,8.255,18.331
		h15.14c0-2.33-0.211-4.609-0.598-6.828C1449.578,1187.85,1445.019,1179.929,1443.504,1170.968z"/>
	<path fill="#343844" d="M1048.292,1160.569c-2.459,0-7.186,0.084-7.186-0.207c0-13.402-10.861-24.266-24.264-24.266
		c-6.451,0-12.316,2.521-16.663,6.63c-8.294-25.431-32.199-43.804-60.394-43.804c-34.666,0-62.84,27.767-63.505,62.274
		c-1.342-0.137-2.703-0.212-4.079-0.212c-21.68,0-39.258,17.577-39.258,39.261c0,19.388,14.059,36.069,32.539,39.256l0,0h184.933
		l0,0c20.691-1.1,37.132-18.704,37.132-39.673C1087.548,1178.147,1069.974,1160.569,1048.292,1160.569z"/>
	<path fill="#FDC536" d="M901.56,1174.014c-0.836-0.938-1.712-1.84-2.632-2.695c-7.073-6.562-16.54-10.58-26.95-10.58
		c-11.045,0-21.031,4.522-28.218,11.811l10.71,10.706c4.443-4.553,10.643-7.382,17.508-7.382c6.23,0,11.914,2.334,16.234,6.161
		c5.063,4.488,8.255,11.037,8.255,18.331h15.14c0-4.245-0.672-8.331-1.91-12.165C906.059,1184.147,903.257,1179.328,901.56,1174.014
		z"/>
	<path fill="#372560" d="M503.662,1160.646c-2.459,0-7.186,0.084-7.186-0.207c0-13.402-10.861-24.266-24.264-24.266
		c-6.451,0-12.316,2.521-16.663,6.63c-8.293-25.431-32.198-43.804-60.393-43.804c-34.666,0-62.841,27.767-63.505,62.274
		c-1.343-0.137-2.704-0.212-4.08-0.212c-21.679,0-39.258,17.577-39.258,39.261c0,19.388,14.059,36.069,32.54,39.256l0,0h184.932l0,0
		c20.691-1.099,37.132-18.704,37.132-39.673C542.917,1178.223,525.344,1160.646,503.662,1160.646z"/>
	<path fill="#F5E5C0" d="M354.117,1171.235c-7.053-6.465-16.446-10.42-26.769-10.42c-11.046,0-21.031,4.522-28.219,11.811
		l10.711,10.706c4.442-4.554,10.642-7.382,17.508-7.382c6.229,0,11.913,2.334,16.234,6.161c5.062,4.488,8.254,11.037,8.254,18.331
		h15.14c0-3.708-0.517-7.293-1.471-10.696C360.116,1184.848,356.111,1178.459,354.117,1171.235z"/>
	<path fill="#2D243B" d="M1592.508,784.359c-2.459,0-7.186,0.084-7.186-0.207c0-13.402-10.861-24.266-24.264-24.266
		c-6.452,0-12.316,2.521-16.662,6.63c-8.294-25.431-32.199-43.804-60.394-43.804c-34.666,0-62.84,27.767-63.505,62.274
		c-1.342-0.137-2.703-0.212-4.079-0.212c-21.68,0-39.258,17.577-39.258,39.261c0,19.388,14.059,36.069,32.539,39.256l0,0h184.932
		l0,0c20.691-1.099,37.132-18.704,37.132-39.673C1631.764,801.937,1614.191,784.359,1592.508,784.359z"/>
	<path fill="#004EAB" d="M1445.941,797.984c-0.884-1.004-1.817-1.964-2.797-2.875c-7.073-6.562-16.54-10.58-26.95-10.58
		c-11.045,0-21.031,4.522-28.218,11.811l10.71,10.706c4.443-4.553,10.643-7.382,17.508-7.382c6.23,0,11.914,2.334,16.234,6.161
		c5.063,4.488,8.255,11.037,8.255,18.331h15.14c0-4.217-0.665-8.278-1.887-12.089
		C1450.362,808.029,1447.608,803.25,1445.941,797.984z"/>
	<path fill="#011C26" d="M1049.215,784.188c-2.459,0-7.186,0.084-7.186-0.207c0-13.402-10.861-24.266-24.264-24.266
		c-6.452,0-12.316,2.521-16.663,6.63c-8.294-25.431-32.199-43.804-60.394-43.804c-34.666,0-62.84,27.767-63.505,62.274
		c-1.342-0.137-2.703-0.212-4.079-0.212c-21.68,0-39.258,17.577-39.258,39.261c0,19.388,14.059,36.069,32.539,39.256l0,0h184.933
		l0,0c20.691-1.099,37.132-18.704,37.132-39.673C1088.471,801.765,1070.897,784.188,1049.215,784.188z"/>
	<path fill="#A8C545" d="M903.997,799.433c-1.267-1.603-2.652-3.107-4.146-4.496c-7.073-6.562-16.54-10.58-26.95-10.58
		c-11.045,0-21.031,4.522-28.218,11.811l10.71,10.706c4.443-4.554,10.643-7.382,17.508-7.382c6.23,0,11.914,2.334,16.234,6.161
		c5.063,4.488,8.255,11.037,8.255,18.331h15.14c0-4.925-0.906-9.636-2.549-13.985C907.472,806.837,905.439,803.281,903.997,799.433z
		"/>
	<path fill="#2D3E50" d="M504.612,784.204c-2.459,0-7.186,0.084-7.186-0.207c0-13.402-10.861-24.266-24.264-24.266
		c-6.451,0-12.316,2.521-16.662,6.63c-8.294-25.431-32.199-43.804-60.394-43.804c-34.666,0-62.84,27.767-63.505,62.274
		c-1.342-0.137-2.703-0.212-4.079-0.212c-21.68,0-39.258,17.577-39.258,39.261c0,19.388,14.059,36.069,32.539,39.256l0,0h184.933
		l0,0c20.691-1.1,37.132-18.704,37.132-39.673C543.868,801.781,526.295,784.204,504.612,784.204z"/>
	<path fill="#3E879E" d="M360.111,800.396c-1.456-1.958-3.078-3.785-4.862-5.443c-7.073-6.562-16.54-10.58-26.95-10.58
		c-11.045,0-21.031,4.522-28.218,11.811l10.71,10.706c4.443-4.553,10.643-7.382,17.508-7.382c6.23,0,11.914,2.334,16.234,6.161
		c5.063,4.488,8.255,11.037,8.255,18.331h15.14c0-5.583-1.165-10.89-3.25-15.707C362.863,805.866,361.328,803.216,360.111,800.396z"
		/>
	<path fill="#330066" d="M1593.415,406.668c-2.46,0-7.187,0.084-7.187-0.207c0-13.402-10.86-24.266-24.263-24.266
		c-6.452,0-12.316,2.521-16.662,6.63c-8.294-25.431-32.199-43.804-60.394-43.804c-34.666,0-62.84,27.767-63.505,62.274
		c-1.342-0.137-2.703-0.212-4.079-0.212c-21.68,0-39.258,17.577-39.258,39.261c0,19.388,14.059,36.069,32.539,39.256l0,0h184.932
		l0,0c20.692-1.099,37.133-18.704,37.133-39.673C1632.671,424.245,1615.097,406.668,1593.415,406.668z"/>
	<path fill="#00AEE6" d="M1448.913,422.86c-1.456-1.958-3.078-3.785-4.862-5.442c-7.073-6.562-16.54-10.58-26.95-10.58
		c-11.045,0-21.031,4.522-28.218,11.811l10.71,10.706c4.443-4.554,10.643-7.382,17.508-7.382c6.23,0,11.914,2.334,16.234,6.161
		c5.063,4.488,8.255,11.037,8.255,18.331h15.14c0-5.583-1.165-10.89-3.249-15.707C1451.666,428.33,1450.131,425.68,1448.913,422.86z
		"/>
	<path fill="#242233" d="M1047.205,406.763c-2.459,0-7.186,0.084-7.186-0.207c0-13.402-10.861-24.265-24.264-24.265
		c-6.451,0-12.316,2.521-16.662,6.63c-8.294-25.431-32.199-43.805-60.394-43.805c-34.666,0-62.84,27.768-63.505,62.275
		c-1.342-0.137-2.703-0.212-4.079-0.212c-21.68,0-39.258,17.577-39.258,39.261c0,19.388,14.059,36.069,32.539,39.256l0,0h184.932
		l0,0c20.691-1.1,37.132-18.704,37.132-39.673C1086.461,424.34,1068.887,406.763,1047.205,406.763z"/>
	<path fill="#5E7C88" d="M902.703,422.954c-1.456-1.958-3.078-3.784-4.862-5.442c-7.073-6.562-16.54-10.58-26.95-10.58
		c-11.045,0-21.031,4.522-28.218,11.811l10.71,10.706c4.443-4.553,10.643-7.382,17.508-7.382c6.23,0,11.914,2.334,16.234,6.161
		c5.063,4.488,8.255,11.037,8.255,18.331h15.14c0-5.582-1.165-10.89-3.249-15.706C905.456,428.424,903.921,425.774,902.703,422.954z
		"/>
	<path fill="#00515E" d="M504.522,406.779c-2.46,0-7.187,0.084-7.187-0.207c0-13.402-10.861-24.266-24.263-24.266
		c-6.452,0-12.316,2.521-16.662,6.63c-8.294-25.431-32.199-43.804-60.394-43.804c-34.666,0-62.84,27.767-63.505,62.274
		c-1.342-0.137-2.703-0.212-4.079-0.212c-21.68,0-39.258,17.577-39.258,39.261c0,19.388,14.059,36.069,32.539,39.256l0,0h184.932
		l0,0c20.692-1.099,37.133-18.704,37.133-39.673C543.779,424.356,526.204,406.779,504.522,406.779z"/>
	<path fill="#72D100" d="M360.021,422.971c-1.456-1.958-3.078-3.785-4.862-5.443c-7.073-6.562-16.54-10.58-26.95-10.58
		c-11.045,0-21.031,4.522-28.218,11.811l10.71,10.706c4.443-4.554,10.643-7.382,17.508-7.382c6.23,0,11.914,2.334,16.234,6.161
		c5.063,4.488,8.255,11.037,8.255,18.331h15.14c0-5.583-1.165-10.89-3.25-15.707C362.773,428.44,361.238,425.79,360.021,422.971z"/>
	<path fill="#242233" d="M872.681,556.234c0,5.785-2.047,10.724-6.14,14.816c-4.094,4.094-9.033,6.141-14.817,6.141
		c-5.785,0-10.723-2.047-14.816-6.141c-4.094-4.092-6.141-9.032-6.141-14.816s2.047-10.722,6.141-14.817
		c4.093-4.092,9.032-6.14,14.816-6.14c4.779,0,8.97,1.383,12.574,4.149v-20.914h8.382v37.722H872.681z M851.725,543.66
		c-3.466,0-6.428,1.229-8.886,3.688c-2.46,2.459-3.688,5.422-3.688,8.886c0,3.465,1.229,6.429,3.688,8.885
		c2.459,2.461,5.421,3.688,8.886,3.688c3.463,0,6.427-1.228,8.886-3.688c2.459-2.457,3.688-5.421,3.688-8.885
		c0-3.463-1.229-6.427-3.688-8.886S855.188,543.66,851.725,543.66z"/>
	<path fill="#242233" d="M910.403,573.043c-3.604,2.764-7.795,4.149-12.574,4.149c-5.785,0-10.723-2.047-14.817-6.141
		c-4.093-4.092-6.141-9.032-6.141-14.816s2.048-10.722,6.141-14.817c4.093-4.092,9.032-6.14,14.817-6.14
		c5.784,0,10.722,2.047,14.817,6.14c4.092,4.094,6.139,9.032,6.139,14.817v20.958h-8.382V573.043z M897.83,543.66
		c-3.466,0-6.428,1.229-8.885,3.688c-2.46,2.459-3.689,5.422-3.689,8.886c0,3.465,1.229,6.429,3.689,8.885
		c2.458,2.461,5.42,3.688,8.885,3.688c3.463,0,6.427-1.228,8.885-3.688c2.459-2.457,3.688-5.421,3.688-8.885
		c0-3.463-1.229-6.427-3.688-8.886S901.293,543.66,897.83,543.66z"/>
	<path fill="#242233" d="M933.234,543.66v33.532h-8.382v-37.723c0-5.785,2.046-10.724,6.141-14.818
		c4.092-4.092,9.032-6.138,14.817-6.138v8.382c-3.466,0-6.428,1.229-8.886,3.686c-1.397,1.399-2.403,2.964-3.018,4.696h11.904v8.382
		h-12.576V543.66z"/>
	<path fill="#242233" d="M981.657,573.043c-3.605,2.764-7.796,4.149-12.574,4.149c-5.784,0-10.723-2.047-14.818-6.141
		c-4.092-4.092-6.139-9.032-6.139-14.816s2.047-10.722,6.139-14.817c4.094-4.092,9.034-6.14,14.818-6.14s10.723,2.047,14.817,6.14
		c4.092,4.094,6.139,9.032,6.139,14.817v20.958h-8.382V573.043z M969.083,543.66c-3.465,0-6.428,1.229-8.886,3.688
		s-3.687,5.422-3.687,8.886c0,3.465,1.228,6.429,3.687,8.885c2.459,2.461,5.422,3.688,8.886,3.688s6.426-1.228,8.886-3.688
		c2.457-2.457,3.687-5.421,3.687-8.885c0-3.463-1.23-6.427-3.687-8.886C975.509,544.89,972.547,543.66,969.083,543.66z"/>
	<path fill="#242233" d="M995.167,518.513h8.383v16.765h12.575v8.382h-12.575v12.574c0,3.465,1.229,6.429,3.689,8.885
		c2.458,2.461,5.42,3.688,8.886,3.688v8.384c-5.785,0-10.724-2.047-14.817-6.141c-4.093-4.092-6.141-9.032-6.141-14.816V518.513z"/>
	<path fill="#242233" d="M1050.62,564.616h9.934c-1.034,2.347-2.515,4.486-4.444,6.414c-4.107,4.107-9.054,6.162-14.837,6.162
		c-5.785,0-10.725-2.047-14.817-6.141c-4.094-4.092-6.14-9.032-6.14-14.816s2.045-10.722,6.14-14.817
		c4.092-4.092,9.033-6.14,14.817-6.14c5.783,0,10.722,2.047,14.817,6.14c4.092,4.094,6.14,9.032,6.14,14.817
		c0,1.454-0.126,2.85-0.377,4.191h-32.484c0.615,1.732,1.621,3.298,3.018,4.694c2.459,2.461,5.422,3.688,8.887,3.688
		s6.425-1.228,8.885-3.688C1050.328,564.953,1050.48,564.785,1050.62,564.616z M1053.176,552.043
		c-0.615-1.732-1.621-3.297-3.017-4.694c-2.461-2.459-5.421-3.688-8.885-3.688s-6.429,1.229-8.887,3.688
		c-1.397,1.398-2.403,2.962-3.018,4.694H1053.176z"/>
	<path fill="#242233" d="M1074.805,556.234v20.958h-8.382v-20.958c0-5.785,2.045-10.722,6.139-14.817
		c4.093-4.092,9.034-6.14,14.817-6.14v8.382c-3.465,0-6.427,1.229-8.885,3.688S1074.805,552.771,1074.805,556.234z"/>
	<path fill="#5E7C88" d="M910.521,446.56h-15.14c0,6.904-2.859,13.143-7.459,17.592l10.7,10.706
		C905.964,467.664,910.521,457.648,910.521,446.56z"/>
	<path fill="#41F0F2" d="M898.622,474.857l-10.7-10.706c-4.407,4.266-10.409,6.897-17.03,6.897c-7.293,0-13.84-3.196-18.326-8.254
		l-10.717,10.715c7.238,7.79,17.57,12.678,29.043,12.678C881.69,486.187,891.476,481.862,898.622,474.857z"/>
	<path fill="#FE8F61" d="M846.404,446.56c0-6.659,2.663-12.694,6.98-17.111l-10.71-10.706c-7.053,7.157-11.406,16.975-11.406,27.816
		c0,10.408,4.019,19.875,10.581,26.949l10.717-10.715C848.738,458.469,846.404,452.787,846.404,446.56z"/>
	<path fill="#41F0F2" d="M1004.628,425.373l4.675-7.795c-3.556-2.131-5.884-5.527-6.757-9.273l-8.815,2.204
		C995.166,416.515,998.92,421.952,1004.628,425.373z"/>
	<path fill="#41F0F2" d="M993.731,410.509l8.815-2.204c-0.834-3.582-0.333-7.486,1.709-10.896c2.253-3.754,5.922-6.14,9.912-6.886
		l-2.211-8.827c-6.244,1.321-11.952,5.132-15.496,11.041C993.126,398.292,992.333,404.668,993.731,410.509z"/>
	<path fill="#5E7C88" d="M1029.476,412.536c-1.923,3.205-4.881,5.411-8.186,6.454c-3.876,1.224-8.231,0.843-11.987-1.412
		l-4.675,7.795c5.907,3.545,12.738,4.222,18.873,2.446c5.56-1.617,10.553-5.254,13.766-10.612
		c3.412-5.688,4.167-12.224,2.634-18.173l-8.82,2.206C1032.054,404.931,1031.595,409.004,1029.476,412.536z"/>
	<path fill="#FE8F61" d="M1024.425,392.363c3.429,2.058,5.716,5.291,6.657,8.876l8.82-2.206
		c-1.506-5.845-5.219-11.117-10.801-14.463c-5.359-3.216-11.473-4.067-17.145-2.874l2.211,8.827
		C1017.572,389.886,1021.221,390.441,1024.425,392.363z"/>
	<path fill="#41F0F2" d="M1007.063,445.894h15.257c0-6.959,2.883-13.247,7.52-17.731l-10.785-10.792
		C1011.656,424.621,1007.063,434.72,1007.063,445.894z"/>
	<path fill="#41F0F2" d="M1019.055,417.371l10.785,10.792c4.442-4.299,10.492-6.952,17.166-6.952c7.349,0,13.949,3.222,18.47,8.32
		l10.801-10.799c-7.294-7.852-17.707-12.778-29.271-12.778C1036.121,405.954,1026.257,410.314,1019.055,417.371z"/>
	<path fill="#5E7C88" d="M1047.005,470.578c-6.28,0-12.008-2.353-16.363-6.211c-5.103-4.52-8.322-11.123-8.322-18.473h-15.257
		c0,11.566,4.926,21.979,12.779,29.276c7.128,6.613,16.669,10.664,27.163,10.664c11.132,0,21.196-4.559,28.438-11.906l-10.794-10.79
		C1060.174,467.728,1053.924,470.578,1047.005,470.578z"/>
	<path fill="#FE8F61" d="M1071.686,445.894c0,6.71-2.684,12.795-7.036,17.244l10.794,10.79c7.111-7.213,11.498-17.107,11.498-28.034
		c0-10.49-4.052-20.032-10.665-27.161l-10.801,10.799C1069.334,433.891,1071.686,439.617,1071.686,445.894z"/>
	<path fill="#41F0F2" d="M938.597,344.192v24.199c11.041,0,21.005,4.574,28.122,11.926l17.11-17.107
		C972.332,351.478,956.317,344.192,938.597,344.192z"/>
	<path fill="#5E7C88" d="M983.828,363.21l-17.11,17.107c6.817,7.047,11.022,16.639,11.022,27.216
		c0,11.663-5.106,22.127-13.194,29.298l17.124,17.125c12.46-11.566,20.267-28.08,20.267-46.423
		C1001.939,390.272,995.025,374.632,983.828,363.21z"/>
	<path fill="#FE8F61" d="M899.451,407.533c0-9.957,3.727-19.039,9.848-25.947c7.17-8.091,17.636-13.196,29.297-13.196v-24.199
		c-18.344,0-34.857,7.808-46.425,20.267c-10.49,11.302-16.916,26.435-16.916,43.074c0,17.658,7.231,33.617,18.882,45.106
		l17.111-17.111C903.972,428.421,899.451,418.509,899.451,407.533z"/>
	<path fill="#FE8F61" d="M938.597,446.677c-10.644,0-20.292-4.255-27.348-11.148l-17.111,17.111
		c11.437,11.273,27.132,18.236,44.459,18.236c16.639,0,31.771-6.425,43.075-16.919l-17.124-17.125
		C957.636,442.952,948.555,446.677,938.597,446.677z"/>
	<g>
		<g>
			<g>
				<g>
					<path fill="#330066" d="M1418.89,556.14c0,5.785-2.047,10.724-6.14,14.817c-4.094,4.094-9.033,6.141-14.817,6.141
						c-5.785,0-10.723-2.047-14.817-6.141c-4.094-4.092-6.141-9.032-6.141-14.817s2.047-10.722,6.141-14.817
						c4.093-4.092,9.032-6.14,14.817-6.14c4.778,0,8.97,1.383,12.574,4.149v-20.914h8.382v37.722H1418.89z M1397.934,543.566
						c-3.466,0-6.428,1.229-8.887,3.688c-2.46,2.459-3.688,5.422-3.688,8.885c0,3.465,1.229,6.429,3.688,8.885
						c2.459,2.461,5.421,3.688,8.887,3.688c3.463,0,6.427-1.228,8.885-3.688c2.459-2.457,3.688-5.421,3.688-8.885
						c0-3.463-1.229-6.427-3.688-8.885C1404.361,544.796,1401.397,543.566,1397.934,543.566z"/>
				</g>
			</g>
			<g>
				<g>
					<path fill="#330066" d="M1456.613,572.949c-3.604,2.764-7.795,4.149-12.574,4.149c-5.785,0-10.723-2.047-14.817-6.141
						c-4.093-4.092-6.141-9.032-6.141-14.817s2.048-10.722,6.141-14.817c4.093-4.092,9.032-6.14,14.817-6.14
						c5.784,0,10.722,2.047,14.817,6.14c4.092,4.094,6.14,9.032,6.14,14.817v20.958h-8.383V572.949z M1444.039,543.566
						c-3.466,0-6.428,1.229-8.885,3.688c-2.46,2.459-3.689,5.422-3.689,8.885c0,3.465,1.229,6.429,3.689,8.885
						c2.458,2.461,5.42,3.688,8.885,3.688c3.463,0,6.427-1.228,8.886-3.688c2.459-2.457,3.688-5.421,3.688-8.885
						c0-3.463-1.229-6.427-3.688-8.885C1450.466,544.796,1447.503,543.566,1444.039,543.566z"/>
				</g>
			</g>
			<g>
				<g>
					<path fill="#330066" d="M1479.443,543.566v33.532h-8.383v-37.723c0-5.785,2.046-10.724,6.141-14.818
						c4.092-4.092,9.032-6.138,14.817-6.138v8.382c-3.466,0-6.428,1.229-8.886,3.686c-1.397,1.399-2.403,2.964-3.018,4.696h11.904
						v8.383L1479.443,543.566L1479.443,543.566z"/>
				</g>
			</g>
			<g>
				<g>
					<path fill="#330066" d="M1527.867,572.949c-3.605,2.764-7.796,4.149-12.574,4.149c-5.784,0-10.723-2.047-14.817-6.141
						c-4.093-4.092-6.14-9.032-6.14-14.817s2.047-10.722,6.14-14.817c4.094-4.092,9.034-6.14,14.817-6.14s10.723,2.047,14.818,6.14
						c4.092,4.094,6.139,9.032,6.139,14.817v20.958h-8.382v-4.149H1527.867z M1515.293,543.566c-3.465,0-6.428,1.229-8.886,3.688
						c-2.459,2.459-3.687,5.422-3.687,8.885c0,3.465,1.228,6.429,3.687,8.885c2.459,2.461,5.422,3.688,8.886,3.688
						s6.426-1.228,8.886-3.688c2.457-2.457,3.687-5.421,3.687-8.885c0-3.463-1.23-6.427-3.687-8.885
						C1521.719,544.796,1518.757,543.566,1515.293,543.566z"/>
				</g>
			</g>
			<g>
				<g>
					<path fill="#330066" d="M1541.377,518.419h8.383v16.765h12.575v8.383h-12.575v12.574c0,3.465,1.229,6.429,3.689,8.885
						c2.458,2.461,5.42,3.688,8.886,3.688v8.384c-5.786,0-10.724-2.047-14.817-6.141c-4.093-4.092-6.141-9.032-6.141-14.817V518.419
						z"/>
				</g>
			</g>
			<g>
				<g>
					<path fill="#330066" d="M1596.83,564.523h9.934c-1.034,2.347-2.515,4.486-4.443,6.414c-4.108,4.107-9.054,6.161-14.838,6.161
						s-10.724-2.047-14.817-6.141c-4.094-4.092-6.14-9.032-6.14-14.817s2.045-10.722,6.14-14.817
						c4.093-4.092,9.033-6.14,14.817-6.14s10.723,2.047,14.817,6.14c4.093,4.094,6.141,9.032,6.141,14.817
						c0,1.454-0.126,2.85-0.378,4.191h-32.483c0.615,1.732,1.621,3.298,3.018,4.694c2.459,2.461,5.422,3.688,8.886,3.688
						c3.465,0,6.426-1.228,8.885-3.688C1596.537,564.859,1596.69,564.691,1596.83,564.523z M1599.386,551.949
						c-0.615-1.732-1.621-3.297-3.018-4.694c-2.46-2.459-5.421-3.688-8.885-3.688c-3.465,0-6.428,1.229-8.886,3.688
						c-1.397,1.398-2.403,2.962-3.018,4.694H1599.386z"/>
				</g>
			</g>
			<g>
				<g>
					<path fill="#330066" d="M1621.015,556.14v20.958h-8.382V556.14c0-5.785,2.045-10.722,6.14-14.817
						c4.093-4.092,9.034-6.14,14.817-6.14v8.383c-3.465,0-6.427,1.229-8.885,3.688
						C1622.244,549.713,1621.015,552.677,1621.015,556.14z"/>
				</g>
			</g>
		</g>
	</g>
	<path fill="#FFE200" d="M1456.731,446.466h-15.141c0,6.904-2.859,13.143-7.459,17.592l10.7,10.706
		C1452.174,467.57,1456.731,457.554,1456.731,446.466z"/>
	<path fill="#FE544D" d="M1444.832,474.763l-10.7-10.706c-4.407,4.266-10.409,6.897-17.03,6.897c-7.293,0-13.84-3.196-18.326-8.254
		l-10.717,10.715c7.238,7.79,17.57,12.678,29.043,12.678C1427.899,486.093,1437.686,481.768,1444.832,474.763z"/>
	<path fill="#FE544D" d="M1392.613,446.466c0-6.659,2.663-12.694,6.98-17.111l-10.71-10.706
		c-7.053,7.157-11.406,16.975-11.406,27.817c0,10.408,4.019,19.875,10.581,26.949l10.717-10.715
		C1394.948,458.375,1392.613,452.693,1392.613,446.466z"/>
	<path fill="#FE544D" d="M1550.838,425.279l4.675-7.795c-3.555-2.131-5.884-5.527-6.757-9.273l-8.815,2.204
		C1541.376,416.421,1545.13,421.858,1550.838,425.279z"/>
	<path fill="#FE544D" d="M1539.941,410.415l8.815-2.204c-0.834-3.582-0.333-7.486,1.709-10.896c2.253-3.754,5.922-6.139,9.912-6.886
		l-2.211-8.827c-6.244,1.321-11.952,5.132-15.496,11.041C1539.336,398.198,1538.543,404.573,1539.941,410.415z"/>
	<path fill="#FFE200" d="M1575.686,412.442c-1.923,3.205-4.881,5.411-8.186,6.454c-3.876,1.224-8.231,0.843-11.987-1.412
		l-4.675,7.795c5.907,3.545,12.738,4.222,18.873,2.446c5.56-1.617,10.553-5.254,13.766-10.612
		c3.412-5.688,4.167-12.224,2.633-18.174l-8.819,2.206C1578.264,404.837,1577.806,408.909,1575.686,412.442z"/>
	<path fill="#00AEE6" d="M1570.635,392.269c3.429,2.058,5.716,5.291,6.657,8.876l8.819-2.206c-1.506-5.845-5.218-11.117-10.8-14.463
		c-5.359-3.216-11.473-4.067-17.146-2.874l2.211,8.827C1563.782,389.792,1567.431,390.346,1570.635,392.269z"/>
	<path fill="#00B3FF" d="M1553.273,445.8h15.257c0-6.959,2.883-13.247,7.52-17.731l-10.785-10.792
		C1557.866,424.527,1553.273,434.626,1553.273,445.8z"/>
	<path fill="#00AEE6" d="M1565.265,417.277l10.785,10.792c4.442-4.299,10.491-6.952,17.165-6.952c7.35,0,13.949,3.222,18.47,8.32
		l10.802-10.799c-7.295-7.852-17.708-12.779-29.272-12.779C1582.332,405.86,1572.467,410.219,1565.265,417.277z"/>
	<path fill="#FE544D" d="M1593.215,470.484c-6.28,0-12.007-2.353-16.362-6.211c-5.103-4.521-8.322-11.123-8.322-18.474h-15.257
		c0,11.566,4.926,21.979,12.78,29.276c7.127,6.613,16.669,10.664,27.162,10.664c11.132,0,21.197-4.559,28.439-11.906l-10.794-10.79
		C1606.383,467.634,1600.134,470.484,1593.215,470.484z"/>
	<path fill="#FFE200" d="M1617.896,445.8c0,6.71-2.684,12.795-7.036,17.244l10.794,10.79c7.11-7.213,11.498-17.107,11.498-28.034
		c0-10.49-4.052-20.032-10.666-27.161l-10.802,10.799C1615.543,433.797,1617.896,439.523,1617.896,445.8z"/>
	<path fill="#00AEE6" d="M1484.806,344.098v24.198c11.041,0,21.005,4.574,28.122,11.926l17.11-17.107
		C1518.542,351.383,1502.527,344.098,1484.806,344.098z"/>
	<path fill="#FFE200" d="M1530.038,363.115l-17.11,17.107c6.817,7.047,11.022,16.639,11.022,27.216
		c0,11.663-5.106,22.127-13.194,29.298l17.124,17.125c12.46-11.566,20.267-28.08,20.267-46.424
		C1548.149,390.178,1541.235,374.538,1530.038,363.115z"/>
	<path fill="#FE544D" d="M1445.661,407.438c0-9.958,3.726-19.039,9.848-25.947c7.17-8.092,17.636-13.196,29.297-13.196v-24.198
		c-18.345,0-34.857,7.806-46.425,20.266c-10.49,11.302-16.916,26.435-16.916,43.074c0,17.658,7.231,33.618,18.882,45.107
		l17.111-17.111C1450.182,428.327,1445.661,418.415,1445.661,407.438z"/>
	<path fill="#FE544D" d="M1484.806,446.583c-10.645,0-20.292-4.255-27.348-11.149l-17.111,17.111
		c11.437,11.273,27.132,18.236,44.459,18.236c16.639,0,31.771-6.425,43.075-16.919l-17.124-17.125
		C1503.846,442.858,1494.765,446.583,1484.806,446.583z"/>
	<g>
		<g>
			<g>
				<g>
					<path fill="#00515E" d="M329.997,556.251c0,5.785-2.047,10.724-6.14,14.817c-4.094,4.094-9.033,6.141-14.817,6.141
						c-5.785,0-10.723-2.047-14.817-6.141c-4.094-4.092-6.141-9.032-6.141-14.817s2.047-10.722,6.141-14.817
						c4.093-4.092,9.032-6.14,14.817-6.14c4.778,0,8.97,1.383,12.574,4.149V518.53h8.382v37.721H329.997z M309.041,543.677
						c-3.466,0-6.428,1.229-8.886,3.688c-2.46,2.459-3.688,5.422-3.688,8.885c0,3.465,1.228,6.429,3.688,8.885
						c2.459,2.461,5.421,3.688,8.886,3.688c3.463,0,6.427-1.228,8.886-3.688c2.459-2.457,3.688-5.421,3.688-8.885
						c0-3.463-1.229-6.427-3.688-8.885C315.468,544.906,312.504,543.677,309.041,543.677z"/>
				</g>
			</g>
			<g>
				<g>
					<path fill="#00515E" d="M367.72,573.059c-3.604,2.764-7.795,4.149-12.574,4.149c-5.785,0-10.723-2.047-14.816-6.141
						c-4.093-4.092-6.141-9.032-6.141-14.817s2.048-10.722,6.141-14.817c4.093-4.092,9.032-6.14,14.816-6.14
						s10.722,2.047,14.817,6.14c4.092,4.094,6.14,9.032,6.14,14.817v20.958h-8.382v-4.149H367.72z M355.147,543.677
						c-3.466,0-6.428,1.229-8.886,3.688c-2.46,2.459-3.689,5.422-3.689,8.885c0,3.465,1.229,6.429,3.689,8.885
						c2.458,2.461,5.42,3.688,8.886,3.688c3.463,0,6.427-1.228,8.886-3.688c2.459-2.457,3.688-5.421,3.688-8.885
						c0-3.463-1.229-6.427-3.688-8.885C361.574,544.906,358.61,543.677,355.147,543.677z"/>
				</g>
			</g>
			<g>
				<g>
					<path fill="#00515E" d="M390.551,543.677v33.532h-8.382v-37.723c0-5.785,2.046-10.724,6.14-14.818
						c4.092-4.092,9.032-6.138,14.817-6.138v8.382c-3.466,0-6.428,1.229-8.886,3.686c-1.397,1.399-2.403,2.964-3.018,4.696h11.904
						v8.383L390.551,543.677L390.551,543.677z"/>
				</g>
			</g>
			<g>
				<g>
					<path fill="#00515E" d="M438.974,573.059c-3.605,2.764-7.796,4.149-12.574,4.149c-5.784,0-10.723-2.047-14.817-6.141
						c-4.092-4.092-6.14-9.032-6.14-14.817s2.047-10.722,6.14-14.817c4.094-4.092,9.034-6.14,14.817-6.14s10.723,2.047,14.818,6.14
						c4.092,4.094,6.139,9.032,6.139,14.817v20.958h-8.383V573.059z M426.4,543.677c-3.465,0-6.428,1.229-8.886,3.688
						c-2.459,2.459-3.687,5.422-3.687,8.885c0,3.465,1.228,6.429,3.687,8.885c2.459,2.461,5.422,3.688,8.886,3.688
						s6.426-1.228,8.886-3.688c2.457-2.457,3.687-5.421,3.687-8.885c0-3.463-1.23-6.427-3.687-8.885
						C432.826,544.906,429.864,543.677,426.4,543.677z"/>
				</g>
			</g>
			<g>
				<g>
					<path fill="#00515E" d="M452.484,518.53h8.383v16.765h12.575v8.383h-12.575v12.574c0,3.465,1.229,6.429,3.689,8.885
						c2.458,2.461,5.42,3.688,8.886,3.688v8.384c-5.786,0-10.724-2.047-14.817-6.141c-4.093-4.092-6.141-9.032-6.141-14.817V518.53z
						"/>
				</g>
			</g>
			<g>
				<g>
					<path fill="#00515E" d="M507.937,564.633h9.934c-1.034,2.347-2.515,4.486-4.443,6.414c-4.108,4.107-9.054,6.161-14.838,6.161
						s-10.724-2.047-14.817-6.141c-4.094-4.092-6.139-9.032-6.139-14.817s2.045-10.722,6.139-14.817
						c4.092-4.092,9.033-6.14,14.817-6.14s10.723,2.047,14.817,6.14c4.093,4.094,6.14,9.032,6.14,14.817
						c0,1.454-0.126,2.85-0.378,4.191h-32.483c0.615,1.732,1.621,3.298,3.018,4.694c2.459,2.461,5.422,3.688,8.886,3.688
						s6.426-1.228,8.886-3.688C507.644,564.97,507.797,564.801,507.937,564.633z M510.494,552.059
						c-0.615-1.732-1.621-3.297-3.018-4.694c-2.46-2.459-5.421-3.688-8.886-3.688s-6.428,1.229-8.886,3.688
						c-1.397,1.398-2.403,2.962-3.018,4.694H510.494z"/>
				</g>
			</g>
			<g>
				<g>
					<path fill="#00515E" d="M532.122,556.251v20.958h-8.382v-20.958c0-5.785,2.045-10.722,6.14-14.817
						c4.093-4.092,9.034-6.14,14.817-6.14v8.383c-3.465,0-6.427,1.229-8.886,3.688C533.352,549.824,532.122,552.788,532.122,556.251
						z"/>
				</g>
			</g>
		</g>
	</g>
	<path fill="#FFE200" d="M367.838,446.576h-15.14c0,6.904-2.859,13.143-7.46,17.592l10.7,10.706
		C363.281,467.681,367.838,457.664,367.838,446.576z"/>
	<path fill="#FEBF00" d="M355.939,474.874l-10.7-10.706c-4.407,4.266-10.409,6.897-17.03,6.897c-7.293,0-13.841-3.196-18.326-8.254
		l-10.717,10.715c7.238,7.79,17.57,12.678,29.043,12.678C339.007,486.204,348.793,481.879,355.939,474.874z"/>
	<path fill="#00B3FF" d="M303.72,446.576c0-6.659,2.663-12.694,6.98-17.111l-10.71-10.706c-7.053,7.157-11.406,16.975-11.406,27.817
		c0,10.408,4.019,19.875,10.581,26.949l10.717-10.715C306.055,458.486,303.72,452.804,303.72,446.576z"/>
	<path fill="#00B3FF" d="M461.945,425.39l4.675-7.795c-3.556-2.131-5.884-5.527-6.757-9.273l-8.815,2.204
		C452.483,416.532,456.237,421.969,461.945,425.39z"/>
	<path fill="#00B3FF" d="M451.048,410.526l8.815-2.204c-0.834-3.582-0.333-7.486,1.709-10.896c2.253-3.754,5.922-6.139,9.912-6.886
		l-2.211-8.827c-6.244,1.321-11.952,5.132-15.496,11.041C450.444,398.309,449.651,404.684,451.048,410.526z"/>
	<path fill="#FFE200" d="M486.794,412.552c-1.923,3.205-4.881,5.411-8.186,6.454c-3.876,1.224-8.231,0.843-11.987-1.412
		l-4.675,7.795c5.907,3.545,12.738,4.222,18.873,2.446c5.56-1.617,10.553-5.254,13.766-10.612
		c3.412-5.688,4.168-12.224,2.634-18.174l-8.819,2.206C489.371,404.948,488.913,409.02,486.794,412.552z"/>
	<path fill="#72D100" d="M481.742,392.379c3.429,2.058,5.716,5.291,6.657,8.876l8.819-2.206c-1.506-5.845-5.218-11.117-10.8-14.463
		c-5.359-3.216-11.473-4.067-17.145-2.874l2.211,8.827C474.889,389.902,478.538,390.457,481.742,392.379z"/>
	<path fill="#00B3FF" d="M464.38,445.91h15.257c0-6.959,2.883-13.247,7.52-17.731l-10.785-10.792
		C468.973,424.638,464.38,434.736,464.38,445.91z"/>
	<path fill="#72D100" d="M476.372,417.388l10.785,10.792c4.442-4.299,10.491-6.952,17.165-6.952c7.35,0,13.949,3.222,18.47,8.32
		l10.802-10.799c-7.295-7.852-17.708-12.779-29.272-12.779C493.439,405.97,483.575,410.33,476.372,417.388z"/>
	<path fill="#FEBF00" d="M504.322,470.595c-6.28,0-12.007-2.353-16.362-6.211c-5.103-4.521-8.322-11.123-8.322-18.474H464.38
		c0,11.566,4.926,21.979,12.779,29.276c7.127,6.613,16.669,10.664,27.162,10.664c11.132,0,21.197-4.559,28.44-11.906l-10.795-10.79
		C517.49,467.745,511.241,470.595,504.322,470.595z"/>
	<path fill="#FFE200" d="M529.003,445.91c0,6.71-2.684,12.795-7.036,17.244l10.795,10.79c7.11-7.213,11.498-17.107,11.498-28.034
		c0-10.49-4.052-20.032-10.666-27.162l-10.802,10.799C526.65,433.908,529.003,439.634,529.003,445.91z"/>
	<path fill="#72D100" d="M395.914,344.209v24.198c11.041,0,21.005,4.574,28.122,11.926l17.11-17.107
		C429.649,351.493,413.635,344.209,395.914,344.209z"/>
	<path fill="#FFE200" d="M441.146,363.226l-17.11,17.107c6.817,7.047,11.022,16.639,11.022,27.216
		c0,11.663-5.106,22.127-13.194,29.298l17.124,17.125c12.46-11.566,20.267-28.08,20.267-46.424
		C459.256,390.288,452.343,374.648,441.146,363.226z"/>
	<path fill="#00B3FF" d="M356.769,407.549c0-9.958,3.727-19.039,9.848-25.947c7.17-8.092,17.636-13.196,29.297-13.196v-24.198
		c-18.345,0-34.857,7.806-46.426,20.266c-10.49,11.302-16.916,26.435-16.916,43.074c0,17.658,7.231,33.618,18.882,45.107
		l17.111-17.111C361.289,428.437,356.769,418.526,356.769,407.549z"/>
	<path fill="#FEBF00" d="M395.914,446.693c-10.645,0-20.292-4.255-27.348-11.149l-17.111,17.111
		c11.437,11.273,27.132,18.236,44.459,18.236c16.639,0,31.771-6.425,43.075-16.919l-17.124-17.125
		C414.954,442.969,405.872,446.693,395.914,446.693z"/>
	<path fill="#404040" d="M1418.844,1310.134c0,5.785-2.047,10.724-6.14,14.817c-4.094,4.094-9.033,6.141-14.816,6.141
		c-5.785,0-10.723-2.047-14.817-6.141c-4.094-4.092-6.141-9.032-6.141-14.817s2.047-10.722,6.141-14.817
		c4.093-4.092,9.032-6.14,14.817-6.14c4.778,0,8.97,1.383,12.573,4.149v-20.914h8.382v37.722H1418.844z M1397.888,1297.56
		c-3.466,0-6.428,1.229-8.886,3.688c-2.46,2.459-3.688,5.422-3.688,8.885c0,3.465,1.228,6.429,3.688,8.885
		c2.459,2.461,5.421,3.688,8.886,3.688c3.463,0,6.427-1.227,8.885-3.688c2.459-2.457,3.688-5.421,3.688-8.885
		c0-3.463-1.229-6.427-3.688-8.885S1401.351,1297.56,1397.888,1297.56z"/>
	<path fill="#404040" d="M1456.567,1326.943c-3.604,2.764-7.795,4.149-12.574,4.149c-5.785,0-10.723-2.047-14.816-6.141
		c-4.093-4.092-6.141-9.032-6.141-14.817s2.048-10.722,6.141-14.817c4.093-4.092,9.032-6.14,14.816-6.14s10.722,2.047,14.817,6.14
		c4.092,4.094,6.14,9.032,6.14,14.817v20.958h-8.382v-4.149H1456.567z M1443.993,1297.56c-3.466,0-6.428,1.229-8.885,3.688
		c-2.46,2.459-3.689,5.422-3.689,8.885c0,3.465,1.229,6.429,3.689,8.885c2.458,2.461,5.42,3.688,8.885,3.688
		c3.463,0,6.427-1.227,8.886-3.688c2.459-2.457,3.688-5.421,3.688-8.885c0-3.463-1.229-6.427-3.688-8.885
		S1447.456,1297.56,1443.993,1297.56z"/>
	<path fill="#404040" d="M1479.397,1297.56v33.531h-8.382v-37.723c0-5.785,2.046-10.724,6.14-14.818
		c4.093-4.092,9.032-6.138,14.817-6.138v8.382c-3.466,0-6.428,1.229-8.886,3.686c-1.397,1.399-2.403,2.964-3.018,4.696h11.904v8.382
		h-12.575V1297.56z"/>
	<path fill="#404040" d="M1527.82,1326.943c-3.605,2.764-7.796,4.149-12.574,4.149c-5.784,0-10.723-2.047-14.817-6.141
		c-4.092-4.092-6.14-9.032-6.14-14.817s2.047-10.722,6.14-14.817c4.094-4.092,9.034-6.14,14.817-6.14
		c5.784,0,10.723,2.047,14.817,6.14c4.092,4.094,6.139,9.032,6.139,14.817v20.958h-8.382L1527.82,1326.943L1527.82,1326.943z
		 M1515.246,1297.56c-3.465,0-6.428,1.229-8.886,3.688s-3.687,5.422-3.687,8.885c0,3.465,1.228,6.429,3.687,8.885
		c2.459,2.461,5.422,3.688,8.886,3.688s6.426-1.227,8.886-3.688c2.457-2.457,3.687-5.421,3.687-8.885
		c0-3.463-1.23-6.427-3.687-8.885C1521.672,1298.79,1518.71,1297.56,1515.246,1297.56z"/>
	<path fill="#404040" d="M1541.33,1272.413h8.383v16.765h12.575v8.382h-12.575v12.574c0,3.465,1.229,6.429,3.689,8.885
		c2.458,2.461,5.42,3.688,8.886,3.688v8.384c-5.786,0-10.724-2.047-14.818-6.141c-4.093-4.092-6.141-9.032-6.141-14.817
		L1541.33,1272.413L1541.33,1272.413z"/>
	<path fill="#404040" d="M1596.784,1318.516h9.934c-1.034,2.347-2.516,4.486-4.444,6.414c-4.107,4.107-9.054,6.161-14.837,6.161
		c-5.785,0-10.725-2.047-14.817-6.141c-4.094-4.092-6.14-9.032-6.14-14.817s2.045-10.722,6.14-14.817
		c4.092-4.092,9.033-6.14,14.817-6.14c5.783,0,10.722,2.047,14.817,6.14c4.092,4.094,6.139,9.032,6.139,14.817
		c0,1.454-0.126,2.85-0.377,4.191h-32.484c0.615,1.732,1.621,3.298,3.018,4.694c2.459,2.461,5.422,3.688,8.887,3.688
		s6.425-1.227,8.885-3.688C1596.491,1318.853,1596.643,1318.685,1596.784,1318.516z M1599.34,1305.943
		c-0.615-1.732-1.621-3.297-3.017-4.694c-2.461-2.459-5.421-3.688-8.885-3.688c-3.465,0-6.429,1.229-8.887,3.688
		c-1.397,1.398-2.403,2.962-3.018,4.694H1599.34z"/>
	<path fill="#404040" d="M1620.969,1310.134v20.958h-8.382v-20.958c0-5.785,2.045-10.722,6.14-14.817
		c4.092-4.092,9.034-6.14,14.817-6.14v8.382c-3.465,0-6.427,1.229-8.885,3.688S1620.969,1306.671,1620.969,1310.134z"/>
	<path fill="#FF2151" d="M1456.685,1200.46h-15.14c0,6.904-2.859,13.143-7.459,17.592l10.7,10.706
		C1452.128,1221.564,1456.685,1211.548,1456.685,1200.46z"/>
	<path fill="#FF2151" d="M1575.639,1166.436c-1.923,3.205-4.881,5.411-8.186,6.454c-3.876,1.224-8.231,0.843-11.987-1.412
		l-4.675,7.795c5.907,3.545,12.738,4.222,18.873,2.446c5.56-1.617,10.553-5.254,13.766-10.613
		c3.412-5.688,4.167-12.224,2.634-18.173l-8.82,2.206C1578.217,1158.831,1577.759,1162.904,1575.639,1166.436z"/>
	<path fill="#FF2151" d="M1593.169,1224.479c-6.28,0-12.008-2.353-16.363-6.211c-5.103-4.521-8.322-11.123-8.322-18.474h-15.257
		c0,11.566,4.926,21.979,12.779,29.276c7.127,6.613,16.669,10.664,27.163,10.664c11.132,0,21.196-4.559,28.438-11.906l-10.794-10.79
		C1606.337,1221.628,1600.088,1224.479,1593.169,1224.479z"/>
	<path fill="#FF2151" d="M1529.992,1117.11l-17.11,17.107c6.817,7.047,11.022,16.639,11.022,27.216
		c0,11.663-5.106,22.127-13.194,29.298l17.124,17.125c12.46-11.566,20.267-28.08,20.267-46.423
		C1548.102,1144.172,1541.189,1128.532,1529.992,1117.11z"/>
	<g>
		<g>
			<g>
				<path fill="#FFAD29" d="M1392.567,1200.46c0-6.659,2.663-12.694,6.98-17.111l-10.71-10.706
					c-7.053,7.157-11.406,16.975-11.406,27.816c0,10.408,4.019,19.875,10.581,26.949l10.717-10.715
					C1394.901,1212.37,1392.567,1206.687,1392.567,1200.46z"/>
			</g>
			<g>
				<path fill="#FFAD29" d="M1570.588,1146.263c3.429,2.058,5.716,5.291,6.657,8.876l8.82-2.206
					c-1.506-5.845-5.219-11.117-10.801-14.463c-5.359-3.216-11.473-4.067-17.145-2.874l2.211,8.827
					C1563.735,1143.786,1567.384,1144.341,1570.588,1146.263z"/>
			</g>
			<g>
				<path fill="#FFAD29" d="M1617.85,1199.794c0,6.71-2.684,12.795-7.036,17.244l10.794,10.79
					c7.111-7.213,11.498-17.107,11.498-28.034c0-10.49-4.052-20.032-10.666-27.161l-10.801,10.799
					C1615.497,1187.791,1617.85,1193.517,1617.85,1199.794z"/>
			</g>
			<g>
				<path fill="#FFAD29" d="M1445.615,1161.433c0-9.958,3.727-19.039,9.848-25.947c7.169-8.091,17.636-13.196,29.297-13.196v-24.199
					c-18.345,0-34.857,7.808-46.425,20.267c-10.49,11.302-16.916,26.435-16.916,43.074c0,17.658,7.231,33.617,18.882,45.106
					l17.111-17.111C1450.135,1182.321,1445.615,1172.409,1445.615,1161.433z"/>
			</g>
			<g>
				<path fill="#FFAD29" d="M1484.76,1200.577c-10.645,0-20.292-4.255-27.348-11.148l-17.111,17.111
					c11.437,11.273,27.132,18.236,44.459,18.236c16.639,0,31.771-6.425,43.075-16.918l-17.124-17.125
					C1503.8,1196.852,1494.719,1200.577,1484.76,1200.577z"/>
			</g>
		</g>
	</g>
	<g>
		<g>
			<g>
				<path fill="#FF7729" d="M1444.785,1228.758l-10.7-10.706c-4.407,4.266-10.409,6.897-17.03,6.897
					c-7.293,0-13.841-3.196-18.326-8.254l-10.717,10.715c7.238,7.79,17.57,12.678,29.043,12.678
					C1427.853,1240.087,1437.64,1235.762,1444.785,1228.758z"/>
			</g>
			<g>
				<path fill="#FF7729" d="M1550.791,1179.273l4.675-7.795c-3.555-2.131-5.884-5.527-6.757-9.273l-8.815,2.204
					C1541.329,1170.415,1545.083,1175.852,1550.791,1179.273z"/>
			</g>
			<g>
				<path fill="#FF7729" d="M1539.894,1164.409l8.815-2.204c-0.834-3.582-0.333-7.486,1.709-10.896
					c2.253-3.754,5.922-6.14,9.912-6.886l-2.211-8.827c-6.244,1.321-11.952,5.131-15.496,11.041
					C1539.29,1152.193,1538.497,1158.568,1539.894,1164.409z"/>
			</g>
			<g>
				<path fill="#FF7729" d="M1553.226,1199.794h15.257c0-6.959,2.883-13.247,7.52-17.731l-10.785-10.792
					C1557.819,1178.522,1553.226,1188.62,1553.226,1199.794z"/>
			</g>
			<g>
				<path fill="#FF7729" d="M1565.218,1171.271l10.785,10.792c4.442-4.299,10.492-6.952,17.166-6.952
					c7.349,0,13.949,3.222,18.47,8.32l10.801-10.799c-7.294-7.852-17.707-12.778-29.271-12.778
					C1582.285,1159.854,1572.421,1164.214,1565.218,1171.271z"/>
			</g>
			<g>
				<path fill="#FF7729" d="M1484.76,1098.092v24.199c11.041,0,21.005,4.574,28.122,11.926l17.11-17.107
					C1518.495,1105.378,1502.481,1098.092,1484.76,1098.092z"/>
			</g>
		</g>
	</g>
	<path fill="#2D3E50" d="M330.087,933.676c0,5.785-2.047,10.724-6.139,14.816c-4.094,4.094-9.033,6.141-14.817,6.141
		c-5.785,0-10.723-2.047-14.817-6.141c-4.094-4.092-6.141-9.032-6.141-14.816s2.047-10.722,6.141-14.817
		c4.093-4.092,9.032-6.14,14.817-6.14c4.779,0,8.97,1.383,12.574,4.149v-20.914h8.382V933.676z M309.131,921.102
		c-3.466,0-6.428,1.229-8.886,3.688c-2.46,2.459-3.688,5.422-3.688,8.886c0,3.465,1.228,6.429,3.688,8.885
		c2.459,2.461,5.421,3.688,8.886,3.688c3.463,0,6.427-1.228,8.885-3.688c2.459-2.457,3.688-5.421,3.688-8.885
		c0-3.463-1.229-6.427-3.688-8.886C315.558,922.332,312.594,921.102,309.131,921.102z"/>
	<path fill="#2D3E50" d="M367.81,950.485c-3.604,2.764-7.795,4.149-12.574,4.149c-5.785,0-10.723-2.047-14.817-6.141
		c-4.093-4.092-6.141-9.032-6.141-14.816s2.048-10.722,6.141-14.817c4.093-4.092,9.032-6.14,14.817-6.14
		c5.784,0,10.722,2.047,14.816,6.14c4.092,4.094,6.14,9.032,6.14,14.817v20.958h-8.382L367.81,950.485L367.81,950.485z
		 M355.236,921.102c-3.466,0-6.428,1.229-8.886,3.688c-2.46,2.459-3.689,5.422-3.689,8.886c0,3.465,1.229,6.429,3.689,8.885
		c2.458,2.461,5.42,3.688,8.886,3.688c3.463,0,6.427-1.228,8.886-3.688c2.459-2.457,3.688-5.421,3.688-8.885
		c0-3.463-1.229-6.427-3.688-8.886C361.663,922.332,358.7,921.102,355.236,921.102z"/>
	<path fill="#2D3E50" d="M390.641,921.102v33.532h-8.382v-37.723c0-5.785,2.046-10.724,6.14-14.818
		c4.092-4.092,9.032-6.138,14.817-6.138v8.382c-3.466,0-6.428,1.229-8.886,3.686c-1.397,1.399-2.403,2.964-3.018,4.696h11.904v8.382
		h-12.575V921.102z"/>
	<path fill="#2D3E50" d="M439.064,950.485c-3.605,2.764-7.796,4.149-12.574,4.149c-5.784,0-10.723-2.047-14.817-6.141
		c-4.092-4.092-6.14-9.032-6.14-14.816s2.047-10.722,6.14-14.817c4.094-4.092,9.034-6.14,14.817-6.14
		c5.784,0,10.723,2.047,14.818,6.14c4.092,4.094,6.139,9.032,6.139,14.817v20.958h-8.382v-4.15H439.064z M426.49,921.102
		c-3.465,0-6.428,1.229-8.886,3.688c-2.459,2.459-3.687,5.422-3.687,8.886c0,3.465,1.228,6.429,3.687,8.885
		c2.459,2.461,5.422,3.688,8.886,3.688s6.426-1.228,8.886-3.688c2.457-2.457,3.687-5.421,3.687-8.885
		c0-3.463-1.23-6.427-3.687-8.886C432.916,922.332,429.954,921.102,426.49,921.102z"/>
	<path fill="#2D3E50" d="M452.574,895.955h8.383v16.765h12.576v8.382h-12.576v12.574c0,3.465,1.229,6.429,3.689,8.885
		c2.458,2.461,5.42,3.688,8.886,3.688v8.384c-5.786,0-10.724-2.047-14.818-6.141c-4.093-4.092-6.141-9.032-6.141-14.816v-37.721
		H452.574z"/>
	<path fill="#2D3E50" d="M508.028,942.058h9.934c-1.034,2.347-2.516,4.486-4.444,6.414c-4.107,4.107-9.054,6.162-14.837,6.162
		c-5.785,0-10.725-2.047-14.817-6.141c-4.094-4.092-6.14-9.032-6.14-14.816s2.045-10.722,6.14-14.817
		c4.092-4.092,9.033-6.14,14.817-6.14c5.783,0,10.722,2.047,14.817,6.14c4.092,4.094,6.14,9.032,6.14,14.817
		c0,1.454-0.126,2.85-0.377,4.191h-32.484c0.615,1.732,1.621,3.298,3.018,4.694c2.459,2.461,5.422,3.688,8.887,3.688
		s6.425-1.228,8.886-3.688C507.735,942.395,507.887,942.227,508.028,942.058z M510.583,929.485
		c-0.615-1.732-1.621-3.297-3.017-4.694c-2.461-2.459-5.421-3.688-8.886-3.688s-6.429,1.229-8.887,3.688
		c-1.397,1.398-2.403,2.962-3.018,4.694H510.583z"/>
	<path fill="#2D3E50" d="M532.213,933.676v20.958h-8.382v-20.958c0-5.785,2.045-10.722,6.14-14.817
		c4.092-4.092,9.034-6.14,14.817-6.14v8.382c-3.465,0-6.427,1.229-8.886,3.688C533.442,927.249,532.213,930.213,532.213,933.676z"/>
	<path fill="#3E879E" d="M367.928,824.002h-15.14c0,6.904-2.859,13.143-7.46,17.592l10.7,10.706
		C363.371,845.106,367.928,835.09,367.928,824.002z"/>
	<path fill="#3E879E" d="M486.883,789.978c-1.923,3.205-4.881,5.411-8.186,6.454c-3.876,1.224-8.231,0.843-11.987-1.412
		l-4.675,7.795c5.907,3.545,12.738,4.222,18.873,2.446c5.56-1.617,10.553-5.254,13.766-10.613
		c3.412-5.688,4.167-12.224,2.634-18.174l-8.82,2.206C489.461,782.373,489.003,786.445,486.883,789.978z"/>
	<path fill="#3E879E" d="M504.413,848.02c-6.28,0-12.008-2.353-16.363-6.211c-5.103-4.52-8.322-11.123-8.322-18.474H464.47
		c0,11.566,4.926,21.979,12.779,29.276c7.127,6.613,16.669,10.664,27.163,10.664c11.132,0,21.196-4.559,28.439-11.906l-10.794-10.79
		C517.581,845.17,511.332,848.02,504.413,848.02z"/>
	<path fill="#3E879E" d="M441.235,740.651l-17.11,17.107c6.817,7.047,11.022,16.639,11.022,27.216
		c0,11.663-5.106,22.127-13.194,29.298l17.124,17.125c12.46-11.566,20.267-28.08,20.267-46.424
		C459.346,767.714,452.432,752.074,441.235,740.651z"/>
	<g>
		<g>
			<g>
				<path fill="#64C733" d="M303.81,824.002c0-6.659,2.663-12.694,6.98-17.111l-10.71-10.706
					c-7.053,7.157-11.406,16.975-11.406,27.816c0,10.408,4.019,19.875,10.581,26.949l10.717-10.715
					C306.145,835.911,303.81,830.229,303.81,824.002z"/>
			</g>
			<g>
				<path fill="#64C733" d="M481.832,769.805c3.429,2.058,5.716,5.291,6.657,8.876l8.82-2.206
					c-1.506-5.845-5.219-11.117-10.801-14.463c-5.359-3.216-11.473-4.067-17.145-2.874l2.211,8.827
					C474.979,767.328,478.628,767.882,481.832,769.805z"/>
			</g>
			<g>
				<path fill="#64C733" d="M529.094,823.336c0,6.71-2.684,12.795-7.036,17.244l10.794,10.79
					c7.111-7.213,11.498-17.107,11.498-28.034c0-10.49-4.052-20.032-10.666-27.162l-10.801,10.799
					C526.741,811.333,529.094,817.059,529.094,823.336z"/>
			</g>
			<g>
				<path fill="#64C733" d="M356.858,784.974c0-9.958,3.727-19.039,9.848-25.947c7.17-8.091,17.636-13.196,29.297-13.196v-24.198
					c-18.345,0-34.857,7.807-46.426,20.266c-10.49,11.302-16.916,26.435-16.916,43.074c0,17.658,7.231,33.618,18.882,45.107
					l17.111-17.111C361.379,805.863,356.858,795.951,356.858,784.974z"/>
			</g>
			<g>
				<path fill="#64C733" d="M396.003,824.119c-10.645,0-20.292-4.255-27.348-11.148l-17.111,17.111
					c11.437,11.273,27.132,18.236,44.459,18.236c16.639,0,31.771-6.425,43.075-16.919l-17.124-17.125
					C415.043,820.394,405.962,824.119,396.003,824.119z"/>
			</g>
		</g>
	</g>
	<g>
		<g>
			<g>
				<path fill="#F0F0F0" d="M356.029,852.299l-10.7-10.706c-4.407,4.266-10.409,6.897-17.03,6.897
					c-7.293,0-13.841-3.196-18.326-8.254l-10.717,10.715c7.238,7.79,17.57,12.678,29.043,12.678
					C339.096,863.629,348.883,859.304,356.029,852.299z"/>
			</g>
			<g>
				<path fill="#F0F0F0" d="M462.035,802.815l4.675-7.795c-3.556-2.131-5.884-5.527-6.757-9.273l-8.815,2.204
					C452.573,793.957,456.327,799.394,462.035,802.815z"/>
			</g>
			<g>
				<path fill="#F0F0F0" d="M451.138,787.951l8.815-2.204c-0.834-3.582-0.333-7.486,1.709-10.896
					c2.253-3.754,5.922-6.14,9.912-6.886l-2.211-8.827c-6.244,1.321-11.952,5.132-15.496,11.041
					C450.533,775.734,449.74,782.109,451.138,787.951z"/>
			</g>
			<g>
				<path fill="#F0F0F0" d="M464.47,823.336h15.257c0-6.959,2.883-13.247,7.52-17.731l-10.785-10.792
					C469.063,802.063,464.47,812.161,464.47,823.336z"/>
			</g>
			<g>
				<path fill="#F0F0F0" d="M476.462,794.813l10.785,10.792c4.442-4.299,10.492-6.952,17.165-6.952c7.349,0,13.949,3.222,18.47,8.32
					l10.801-10.799c-7.294-7.852-17.707-12.779-29.271-12.779C493.529,783.396,483.664,787.755,476.462,794.813z"/>
			</g>
			<g>
				<path fill="#F0F0F0" d="M396.003,721.634v24.198c11.041,0,21.006,4.574,28.122,11.926l17.11-17.107
					C429.739,728.92,413.724,721.634,396.003,721.634z"/>
			</g>
		</g>
	</g>
	<path fill="#2D243B" d="M1417.983,933.831c0,5.785-2.047,10.724-6.14,14.817c-4.094,4.094-9.033,6.141-14.817,6.141
		c-5.785,0-10.723-2.047-14.817-6.141c-4.094-4.092-6.141-9.032-6.141-14.817s2.047-10.722,6.141-14.817
		c4.093-4.092,9.032-6.14,14.817-6.14c4.778,0,8.97,1.383,12.574,4.149V896.11h8.383V933.831z M1397.027,921.258
		c-3.466,0-6.428,1.229-8.886,3.688c-2.46,2.459-3.688,5.422-3.688,8.885c0,3.465,1.228,6.429,3.688,8.885
		c2.459,2.461,5.421,3.688,8.886,3.688c3.463,0,6.427-1.228,8.885-3.688c2.459-2.457,3.688-5.421,3.688-8.885
		c0-3.463-1.229-6.427-3.688-8.885C1403.454,922.487,1400.49,921.258,1397.027,921.258z"/>
	<path fill="#2D243B" d="M1455.706,950.64c-3.604,2.764-7.795,4.149-12.574,4.149c-5.785,0-10.723-2.047-14.817-6.141
		c-4.093-4.092-6.141-9.032-6.141-14.817s2.048-10.722,6.141-14.817c4.093-4.092,9.032-6.14,14.817-6.14
		c5.784,0,10.722,2.047,14.817,6.14c4.092,4.094,6.14,9.032,6.14,14.817v20.958h-8.382v-4.149H1455.706z M1443.132,921.258
		c-3.466,0-6.428,1.229-8.886,3.688c-2.46,2.459-3.689,5.422-3.689,8.885c0,3.465,1.229,6.429,3.689,8.885
		c2.458,2.461,5.42,3.688,8.886,3.688c3.463,0,6.427-1.228,8.885-3.688c2.459-2.457,3.688-5.421,3.688-8.885
		c0-3.463-1.229-6.427-3.688-8.885C1449.559,922.487,1446.595,921.258,1443.132,921.258z"/>
	<path fill="#2D243B" d="M1478.536,921.258v33.532h-8.382v-37.723c0-5.785,2.046-10.724,6.141-14.818
		c4.092-4.092,9.032-6.138,14.817-6.138v8.382c-3.466,0-6.428,1.229-8.886,3.686c-1.397,1.399-2.403,2.964-3.018,4.696h11.904v8.383
		L1478.536,921.258L1478.536,921.258z"/>
	<path fill="#2D243B" d="M1526.96,950.64c-3.605,2.764-7.796,4.149-12.574,4.149c-5.784,0-10.723-2.047-14.818-6.141
		c-4.092-4.092-6.14-9.032-6.14-14.817s2.047-10.722,6.14-14.817c4.094-4.092,9.034-6.14,14.818-6.14
		c5.784,0,10.723,2.047,14.818,6.14c4.092,4.094,6.139,9.032,6.139,14.817v20.958h-8.382v-4.149H1526.96z M1514.386,921.258
		c-3.465,0-6.428,1.229-8.886,3.688c-2.459,2.459-3.687,5.422-3.687,8.885c0,3.465,1.229,6.429,3.687,8.885
		c2.459,2.461,5.421,3.688,8.886,3.688c3.464,0,6.426-1.228,8.886-3.688c2.457-2.457,3.687-5.421,3.687-8.885
		c0-3.463-1.23-6.427-3.687-8.885C1520.812,922.487,1517.85,921.258,1514.386,921.258z"/>
	<path fill="#2D243B" d="M1540.47,896.11h8.383v16.765h12.576v8.383h-12.576v12.574c0,3.465,1.229,6.429,3.689,8.885
		c2.458,2.461,5.42,3.688,8.886,3.688v8.384c-5.786,0-10.724-2.047-14.818-6.141c-4.093-4.092-6.141-9.032-6.141-14.817
		L1540.47,896.11L1540.47,896.11z"/>
	<path fill="#2D243B" d="M1595.924,942.214h9.934c-1.034,2.347-2.515,4.486-4.444,6.414c-4.107,4.107-9.054,6.161-14.837,6.161
		c-5.785,0-10.725-2.047-14.817-6.141c-4.094-4.092-6.14-9.032-6.14-14.817s2.045-10.722,6.14-14.817
		c4.092-4.092,9.033-6.14,14.817-6.14c5.783,0,10.722,2.047,14.817,6.14c4.092,4.094,6.14,9.032,6.14,14.817
		c0,1.454-0.126,2.85-0.377,4.191h-32.484c0.615,1.732,1.621,3.298,3.018,4.694c2.459,2.461,5.422,3.688,8.887,3.688
		s6.425-1.228,8.886-3.688C1595.631,942.55,1595.783,942.382,1595.924,942.214z M1598.479,929.64
		c-0.615-1.732-1.621-3.297-3.017-4.694c-2.461-2.459-5.421-3.688-8.886-3.688s-6.429,1.229-8.887,3.688
		c-1.397,1.398-2.403,2.962-3.018,4.694H1598.479z"/>
	<path fill="#2D243B" d="M1620.109,933.831v20.958h-8.383v-20.958c0-5.785,2.045-10.722,6.14-14.817
		c4.092-4.092,9.034-6.14,14.817-6.14v8.383c-3.465,0-6.427,1.229-8.885,3.688C1621.338,927.404,1620.109,930.368,1620.109,933.831z
		"/>
	<path fill="#004EAB" d="M1455.824,824.157h-15.14c0,6.904-2.859,13.143-7.46,17.592l10.7,10.706
		C1451.267,845.261,1455.824,835.245,1455.824,824.157z"/>
	<path fill="#004EAB" d="M1574.779,790.133c-1.923,3.205-4.881,5.411-8.186,6.454c-3.876,1.224-8.231,0.843-11.987-1.412
		l-4.675,7.795c5.907,3.546,12.738,4.222,18.873,2.446c5.56-1.617,10.553-5.254,13.767-10.612
		c3.412-5.688,4.167-12.224,2.634-18.174l-8.82,2.206C1577.357,782.528,1576.899,786.6,1574.779,790.133z"/>
	<path fill="#004EAB" d="M1592.309,848.175c-6.281,0-12.008-2.353-16.363-6.211c-5.103-4.521-8.322-11.123-8.322-18.474h-15.258
		c0,11.566,4.926,21.979,12.78,29.276c7.127,6.613,16.669,10.664,27.163,10.664c11.132,0,21.196-4.559,28.438-11.906l-10.794-10.79
		C1605.477,845.325,1599.228,848.175,1592.309,848.175z"/>
	<path fill="#004EAB" d="M1529.131,740.806l-17.11,17.107c6.818,7.047,11.022,16.639,11.022,27.216
		c0,11.663-5.106,22.127-13.194,29.298l17.124,17.125c12.46-11.566,20.267-28.08,20.267-46.424
		C1547.242,767.869,1540.328,752.229,1529.131,740.806z"/>
	<g>
		<g>
			<g>
				<path fill="#30BBDB" d="M1391.706,824.157c0-6.659,2.663-12.694,6.98-17.111l-10.71-10.706
					c-7.053,7.157-11.406,16.975-11.406,27.817c0,10.408,4.019,19.875,10.581,26.949l10.717-10.715
					C1394.041,836.066,1391.706,830.384,1391.706,824.157z"/>
			</g>
			<g>
				<path fill="#30BBDB" d="M1569.728,769.96c3.429,2.058,5.716,5.291,6.657,8.876l8.82-2.206
					c-1.506-5.845-5.219-11.117-10.801-14.463c-5.359-3.216-11.473-4.067-17.145-2.874l2.211,8.827
					C1562.875,767.483,1566.524,768.037,1569.728,769.96z"/>
			</g>
			<g>
				<path fill="#30BBDB" d="M1616.99,823.491c0,6.71-2.684,12.795-7.036,17.244l10.794,10.79
					c7.111-7.214,11.498-17.107,11.498-28.034c0-10.49-4.052-20.032-10.666-27.161l-10.801,10.799
					C1614.637,811.488,1616.99,817.214,1616.99,823.491z"/>
			</g>
			<g>
				<path fill="#30BBDB" d="M1444.754,785.13c0-9.958,3.727-19.039,9.848-25.947c7.17-8.092,17.636-13.196,29.297-13.196v-24.198
					c-18.345,0-34.857,7.806-46.425,20.266c-10.49,11.302-16.916,26.435-16.916,43.074c0,17.658,7.231,33.618,18.883,45.107
					l17.111-17.111C1449.275,806.018,1444.754,796.106,1444.754,785.13z"/>
			</g>
			<g>
				<path fill="#30BBDB" d="M1483.899,824.274c-10.645,0-20.292-4.255-27.348-11.149l-17.111,17.111
					c11.437,11.273,27.132,18.236,44.459,18.236c16.639,0,31.771-6.425,43.075-16.919l-17.124-17.125
					C1502.939,820.549,1493.858,824.274,1483.899,824.274z"/>
			</g>
		</g>
	</g>
	<g>
		<g>
			<g>
				<path fill="#C4E3E0" d="M1443.925,852.454l-10.7-10.706c-4.407,4.266-10.409,6.897-17.03,6.897
					c-7.293,0-13.841-3.196-18.326-8.254l-10.717,10.715c7.238,7.79,17.57,12.678,29.043,12.678
					C1426.992,863.784,1436.779,859.459,1443.925,852.454z"/>
			</g>
			<g>
				<path fill="#C4E3E0" d="M1549.931,802.97l4.675-7.795c-3.556-2.131-5.884-5.527-6.757-9.273l-8.815,2.204
					C1540.469,794.112,1544.223,799.549,1549.931,802.97z"/>
			</g>
			<g>
				<path fill="#C4E3E0" d="M1539.034,788.106l8.815-2.204c-0.834-3.582-0.333-7.486,1.709-10.896
					c2.253-3.754,5.922-6.14,9.912-6.886l-2.211-8.827c-6.244,1.321-11.952,5.132-15.496,11.041
					C1538.429,775.889,1537.636,782.265,1539.034,788.106z"/>
			</g>
			<g>
				<path fill="#C4E3E0" d="M1552.366,823.491h15.258c0-6.959,2.883-13.247,7.52-17.731l-10.785-10.792
					C1556.959,802.218,1552.366,812.317,1552.366,823.491z"/>
			</g>
			<g>
				<path fill="#C4E3E0" d="M1564.358,794.968l10.785,10.792c4.442-4.299,10.492-6.952,17.166-6.952
					c7.349,0,13.949,3.222,18.47,8.32l10.801-10.799c-7.294-7.852-17.707-12.779-29.271-12.779
					C1581.425,783.551,1571.56,787.91,1564.358,794.968z"/>
			</g>
			<g>
				<path fill="#C4E3E0" d="M1483.899,721.789v24.198c11.041,0,21.006,4.574,28.122,11.926l17.11-17.107
					C1517.635,729.074,1501.62,721.789,1483.899,721.789z"/>
			</g>
		</g>
	</g>
	<path fill="#343844" d="M873.767,1310.041c0,5.785-2.047,10.724-6.14,14.817c-4.094,4.094-9.033,6.141-14.817,6.141
		c-5.785,0-10.723-2.047-14.817-6.141c-4.094-4.092-6.141-9.032-6.141-14.817s2.047-10.722,6.141-14.817
		c4.093-4.092,9.032-6.14,14.817-6.14c4.779,0,8.97,1.383,12.574,4.149v-20.914h8.382v37.722H873.767z M852.811,1297.468
		c-3.466,0-6.428,1.229-8.886,3.688c-2.46,2.459-3.688,5.422-3.688,8.886c0,3.465,1.228,6.429,3.688,8.885
		c2.459,2.461,5.421,3.688,8.886,3.688c3.463,0,6.427-1.228,8.886-3.688c2.459-2.457,3.688-5.421,3.688-8.885
		c0-3.463-1.229-6.427-3.688-8.886C859.237,1298.697,856.274,1297.468,852.811,1297.468z"/>
	<path fill="#343844" d="M911.49,1326.85c-3.604,2.764-7.795,4.149-12.574,4.149c-5.785,0-10.723-2.047-14.817-6.141
		c-4.093-4.092-6.141-9.032-6.141-14.817s2.048-10.722,6.141-14.817c4.093-4.092,9.032-6.14,14.817-6.14
		c5.784,0,10.722,2.047,14.816,6.14c4.093,4.094,6.14,9.032,6.14,14.817v20.958h-8.382V1326.85z M898.916,1297.468
		c-3.466,0-6.428,1.229-8.886,3.688c-2.46,2.459-3.689,5.422-3.689,8.886c0,3.465,1.229,6.429,3.689,8.885
		c2.458,2.461,5.42,3.688,8.886,3.688c3.463,0,6.427-1.228,8.885-3.688c2.459-2.457,3.688-5.421,3.688-8.885
		c0-3.463-1.229-6.427-3.688-8.886S902.379,1297.468,898.916,1297.468z"/>
	<path fill="#343844" d="M934.32,1297.468V1331h-8.382v-37.723c0-5.785,2.046-10.724,6.14-14.818
		c4.092-4.092,9.032-6.138,14.817-6.138v8.382c-3.466,0-6.428,1.229-8.886,3.686c-1.397,1.4-2.403,2.964-3.018,4.696h11.904v8.382
		L934.32,1297.468L934.32,1297.468z"/>
	<path fill="#343844" d="M982.743,1326.85c-3.605,2.764-7.796,4.149-12.574,4.149c-5.784,0-10.723-2.047-14.817-6.141
		c-4.092-4.092-6.14-9.032-6.14-14.817s2.047-10.722,6.14-14.817c4.094-4.092,9.034-6.14,14.817-6.14s10.723,2.047,14.818,6.14
		c4.092,4.094,6.139,9.032,6.139,14.817v20.958h-8.382L982.743,1326.85L982.743,1326.85z M970.169,1297.468
		c-3.465,0-6.428,1.229-8.886,3.688c-2.459,2.459-3.687,5.422-3.687,8.886c0,3.465,1.228,6.429,3.687,8.885
		c2.459,2.461,5.422,3.688,8.886,3.688s6.426-1.228,8.886-3.688c2.457-2.457,3.687-5.421,3.687-8.885
		c0-3.463-1.23-6.427-3.687-8.886C976.595,1298.697,973.634,1297.468,970.169,1297.468z"/>
	<path fill="#343844" d="M996.254,1272.32h8.383v16.765h12.576v8.382h-12.576v12.574c0,3.465,1.229,6.429,3.689,8.885
		c2.458,2.461,5.42,3.688,8.886,3.688v8.384c-5.786,0-10.724-2.047-14.818-6.141c-4.093-4.092-6.141-9.032-6.141-14.817
		L996.254,1272.32L996.254,1272.32z"/>
	<path fill="#343844" d="M1051.707,1318.424h9.934c-1.034,2.347-2.516,4.486-4.444,6.414c-4.107,4.107-9.054,6.162-14.837,6.162
		c-5.785,0-10.725-2.047-14.818-6.141c-4.094-4.092-6.14-9.032-6.14-14.817s2.045-10.722,6.14-14.817
		c4.092-4.092,9.033-6.14,14.818-6.14c5.783,0,10.722,2.047,14.817,6.14c4.092,4.094,6.14,9.032,6.14,14.817
		c0,1.454-0.126,2.85-0.377,4.191h-32.484c0.615,1.732,1.621,3.298,3.018,4.694c2.459,2.461,5.422,3.688,8.887,3.688
		s6.425-1.228,8.885-3.688C1051.415,1318.76,1051.566,1318.592,1051.707,1318.424z M1054.263,1305.85
		c-0.615-1.733-1.621-3.297-3.017-4.694c-2.461-2.459-5.421-3.688-8.885-3.688c-3.465,0-6.429,1.229-8.887,3.688
		c-1.397,1.398-2.403,2.962-3.018,4.694H1054.263z"/>
	<path fill="#343844" d="M1075.892,1310.041v20.958h-8.382v-20.958c0-5.785,2.045-10.722,6.14-14.817
		c4.092-4.092,9.034-6.14,14.817-6.14v8.382c-3.465,0-6.427,1.229-8.886,3.688S1075.892,1306.578,1075.892,1310.041z"/>
	<path fill="#FDC536" d="M911.608,1200.367h-15.14c0,6.904-2.859,13.143-7.46,17.592l10.7,10.706
		C907.05,1221.471,911.608,1211.455,911.608,1200.367z"/>
	<path fill="#FDC536" d="M1030.563,1166.343c-1.923,3.205-4.881,5.411-8.186,6.454c-3.876,1.224-8.231,0.843-11.987-1.412
		l-4.675,7.795c5.907,3.545,12.738,4.222,18.873,2.446c5.56-1.617,10.553-5.254,13.766-10.613
		c3.412-5.688,4.167-12.224,2.634-18.173l-8.82,2.206C1033.14,1158.738,1032.682,1162.81,1030.563,1166.343z"/>
	<path fill="#FDC536" d="M1048.092,1224.385c-6.28,0-12.008-2.353-16.363-6.211c-5.103-4.52-8.322-11.123-8.322-18.474h-15.257
		c0,11.566,4.926,21.979,12.779,29.276c7.128,6.613,16.669,10.664,27.163,10.664c11.132,0,21.196-4.559,28.438-11.906l-10.794-10.79
		C1061.26,1221.535,1055.011,1224.385,1048.092,1224.385z"/>
	<path fill="#FDC536" d="M984.915,1117.016l-17.11,17.107c6.817,7.047,11.022,16.639,11.022,27.216
		c0,11.663-5.106,22.127-13.194,29.298l17.124,17.125c12.46-11.566,20.267-28.08,20.267-46.424
		C1003.025,1144.079,996.112,1128.439,984.915,1117.016z"/>
	<g>
		<g>
			<g>
				<path fill="#E65848" d="M847.49,1200.367c0-6.659,2.663-12.694,6.98-17.111l-10.71-10.706
					c-7.053,7.157-11.406,16.975-11.406,27.816c0,10.408,4.019,19.875,10.581,26.949l10.717-10.715
					C849.824,1212.276,847.49,1206.594,847.49,1200.367z"/>
			</g>
			<g>
				<path fill="#E65848" d="M1025.512,1146.17c3.429,2.058,5.716,5.291,6.657,8.876l8.82-2.206
					c-1.506-5.845-5.219-11.118-10.801-14.464c-5.359-3.216-11.473-4.067-17.145-2.874l2.211,8.827
					C1018.659,1143.693,1022.307,1144.247,1025.512,1146.17z"/>
			</g>
			<g>
				<path fill="#E65848" d="M1072.773,1199.701c0,6.71-2.684,12.795-7.036,17.244l10.794,10.79
					c7.111-7.214,11.498-17.107,11.498-28.034c0-10.49-4.052-20.032-10.666-27.162l-10.801,10.799
					C1070.42,1187.698,1072.773,1193.424,1072.773,1199.701z"/>
			</g>
			<g>
				<path fill="#E65848" d="M900.538,1161.34c0-9.958,3.727-19.039,9.848-25.947c7.169-8.091,17.636-13.196,29.297-13.196v-24.198
					c-18.345,0-34.857,7.807-46.425,20.266c-10.49,11.302-16.916,26.435-16.916,43.074c0,17.658,7.231,33.618,18.882,45.106
					l17.111-17.111C905.058,1182.228,900.538,1172.316,900.538,1161.34z"/>
			</g>
			<g>
				<path fill="#E65848" d="M939.683,1200.484c-10.645,0-20.292-4.255-27.348-11.148l-17.111,17.111
					c11.437,11.273,27.132,18.236,44.459,18.236c16.639,0,31.771-6.425,43.075-16.919l-17.124-17.125
					C958.723,1196.759,949.641,1200.484,939.683,1200.484z"/>
			</g>
		</g>
	</g>
	<g>
		<g>
			<g>
				<path fill="#2AB69D" d="M899.708,1228.665l-10.7-10.706c-4.407,4.266-10.409,6.897-17.03,6.897
					c-7.293,0-13.841-3.196-18.326-8.254l-10.717,10.715c7.238,7.79,17.57,12.678,29.043,12.678
					C882.776,1239.994,892.562,1235.669,899.708,1228.665z"/>
			</g>
			<g>
				<path fill="#2AB69D" d="M1005.714,1179.18l4.675-7.795c-3.555-2.131-5.884-5.527-6.757-9.273l-8.815,2.204
					C996.253,1170.322,1000.007,1175.759,1005.714,1179.18z"/>
			</g>
			<g>
				<path fill="#2AB69D" d="M994.817,1164.316l8.815-2.204c-0.834-3.582-0.333-7.486,1.709-10.896
					c2.253-3.754,5.922-6.14,9.912-6.886l-2.211-8.827c-6.244,1.321-11.952,5.131-15.496,11.041
					C994.213,1152.099,993.42,1158.475,994.817,1164.316z"/>
			</g>
			<g>
				<path fill="#2AB69D" d="M1008.149,1199.701h15.257c0-6.959,2.883-13.247,7.52-17.731l-10.785-10.792
					C1012.742,1178.428,1008.149,1188.527,1008.149,1199.701z"/>
			</g>
			<g>
				<path fill="#2AB69D" d="M1020.141,1171.178l10.785,10.792c4.442-4.299,10.492-6.952,17.166-6.952
					c7.349,0,13.949,3.222,18.47,8.32l10.801-10.799c-7.294-7.852-17.707-12.778-29.271-12.778
					C1037.208,1159.761,1027.344,1164.12,1020.141,1171.178z"/>
			</g>
			<g>
				<path fill="#2AB69D" d="M939.683,1097.999v24.198c11.041,0,21.006,4.574,28.122,11.926l17.11-17.107
					C973.419,1105.285,957.404,1097.999,939.683,1097.999z"/>
			</g>
		</g>
	</g>
	<path fill="#372560" d="M329.137,1310.117c0,5.785-2.047,10.724-6.14,14.817c-4.094,4.094-9.034,6.141-14.817,6.141
		c-5.785,0-10.724-2.047-14.817-6.141c-4.094-4.092-6.141-9.032-6.141-14.817s2.047-10.722,6.141-14.817
		c4.092-4.092,9.032-6.14,14.817-6.14c4.778,0,8.97,1.383,12.574,4.149v-20.914h8.382v37.722H329.137z M308.181,1297.544
		c-3.467,0-6.429,1.229-8.887,3.688c-2.459,2.459-3.688,5.422-3.688,8.885c0,3.465,1.229,6.429,3.688,8.885
		c2.459,2.461,5.421,3.688,8.887,3.688c3.463,0,6.427-1.227,8.886-3.688c2.459-2.457,3.688-5.421,3.688-8.885
		c0-3.463-1.229-6.427-3.688-8.885C314.608,1298.773,311.644,1297.544,308.181,1297.544z"/>
	<path fill="#372560" d="M366.86,1326.926c-3.604,2.764-7.795,4.149-12.574,4.149c-5.785,0-10.724-2.047-14.817-6.141
		c-4.094-4.092-6.141-9.032-6.141-14.817s2.047-10.722,6.141-14.817c4.092-4.092,9.032-6.14,14.817-6.14
		c5.783,0,10.722,2.047,14.817,6.14c4.092,4.094,6.14,9.032,6.14,14.817v20.958h-8.383V1326.926z M354.287,1297.544
		c-3.467,0-6.429,1.229-8.886,3.688c-2.461,2.459-3.69,5.422-3.69,8.885c0,3.465,1.229,6.429,3.69,8.885
		c2.457,2.461,5.419,3.688,8.886,3.688c3.463,0,6.427-1.227,8.886-3.688c2.459-2.457,3.688-5.421,3.688-8.885
		c0-3.463-1.229-6.427-3.688-8.885C360.713,1298.773,357.75,1297.544,354.287,1297.544z"/>
	<path fill="#372560" d="M389.69,1297.544v33.532h-8.382v-37.723c0-5.785,2.047-10.724,6.141-14.818
		c4.092-4.092,9.032-6.138,14.817-6.138v8.382c-3.467,0-6.429,1.229-8.887,3.686c-1.396,1.399-2.402,2.964-3.017,4.696h11.904v8.383
		L389.69,1297.544L389.69,1297.544z"/>
	<path fill="#372560" d="M438.113,1326.926c-3.604,2.764-7.795,4.149-12.574,4.149c-5.783,0-10.722-2.047-14.816-6.141
		c-4.092-4.092-6.14-9.032-6.14-14.817s2.047-10.722,6.14-14.817c4.094-4.092,9.034-6.14,14.816-6.14
		c5.785,0,10.724,2.047,14.818,6.14c4.092,4.094,6.138,9.032,6.138,14.817v20.958h-8.382V1326.926z M425.539,1297.544
		c-3.465,0-6.427,1.229-8.885,3.688c-2.459,2.459-3.688,5.422-3.688,8.885c0,3.465,1.229,6.429,3.688,8.885
		c2.459,2.461,5.421,3.688,8.885,3.688c3.465,0,6.427-1.227,8.887-3.688c2.457-2.457,3.686-5.421,3.686-8.885
		c0-3.463-1.229-6.427-3.686-8.885C431.966,1298.773,429.004,1297.544,425.539,1297.544z"/>
	<path fill="#372560" d="M451.623,1272.396h8.384v16.765h12.575v8.383h-12.575v12.574c0,3.465,1.229,6.429,3.688,8.885
		c2.459,2.461,5.421,3.688,8.887,3.688v8.384c-5.786,0-10.724-2.047-14.818-6.141c-4.092-4.092-6.141-9.032-6.141-14.817V1272.396z"
		/>
	<path fill="#372560" d="M507.077,1318.5h9.934c-1.034,2.347-2.516,4.486-4.444,6.414c-4.107,4.107-9.054,6.161-14.837,6.161
		c-5.785,0-10.724-2.047-14.817-6.141c-4.094-4.092-6.14-9.032-6.14-14.817s2.045-10.722,6.14-14.817
		c4.092-4.092,9.032-6.14,14.817-6.14c5.783,0,10.722,2.047,14.817,6.14c4.092,4.094,6.14,9.032,6.14,14.817
		c0,1.454-0.126,2.85-0.377,4.191h-32.483c0.615,1.732,1.621,3.298,3.017,4.694c2.459,2.461,5.422,3.688,8.887,3.688
		s6.425-1.227,8.886-3.688C506.784,1318.837,506.936,1318.668,507.077,1318.5z M509.633,1305.926
		c-0.615-1.733-1.621-3.297-3.017-4.694c-2.461-2.459-5.421-3.688-8.886-3.688s-6.429,1.229-8.887,3.688
		c-1.396,1.398-2.402,2.962-3.017,4.694H509.633z"/>
	<path fill="#372560" d="M531.262,1310.117v20.958h-8.382v-20.958c0-5.785,2.045-10.722,6.14-14.817
		c4.092-4.092,9.034-6.14,14.817-6.14v8.383c-3.465,0-6.427,1.229-8.886,3.688C532.492,1303.691,531.262,1306.654,531.262,1310.117z
		"/>
	<path fill="#F5E5C0" d="M366.977,1200.443h-15.14c0,6.904-2.859,13.143-7.459,17.592l10.7,10.706
		C362.42,1221.547,366.977,1211.531,366.977,1200.443z"/>
	<path fill="#F5E5C0" d="M485.933,1166.419c-1.923,3.205-4.881,5.412-8.185,6.454c-3.877,1.224-8.231,0.843-11.988-1.412
		l-4.674,7.795c5.907,3.546,12.738,4.222,18.872,2.446c5.56-1.617,10.554-5.254,13.767-10.613
		c3.412-5.688,4.167-12.224,2.634-18.173l-8.82,2.206C488.51,1158.814,488.053,1162.887,485.933,1166.419z"/>
	<path fill="#F5E5C0" d="M503.462,1224.462c-6.28,0-12.008-2.353-16.362-6.211c-5.104-4.521-8.322-11.123-8.322-18.474H463.52
		c0,11.566,4.925,21.979,12.779,29.276c7.128,6.613,16.67,10.664,27.163,10.664c11.132,0,21.196-4.559,28.439-11.906l-10.794-10.79
		C516.63,1221.611,510.381,1224.462,503.462,1224.462z"/>
	<path fill="#F5E5C0" d="M440.285,1117.092l-17.109,17.107c6.816,7.047,11.022,16.639,11.022,27.216
		c0,11.663-5.106,22.127-13.194,29.298l17.124,17.125c12.46-11.566,20.268-28.08,20.268-46.424
		C458.396,1144.155,451.483,1128.515,440.285,1117.092z"/>
	<g>
		<g>
			<g>
				<path fill="#EA5930" d="M302.859,1200.443c0-6.659,2.664-12.694,6.981-17.111l-10.711-10.706
					c-7.052,7.157-11.406,16.975-11.406,27.816c0,10.408,4.019,19.875,10.581,26.949l10.717-10.715
					C305.194,1212.353,302.859,1206.67,302.859,1200.443z"/>
			</g>
			<g>
				<path fill="#EA5930" d="M480.881,1146.246c3.43,2.058,5.717,5.291,6.657,8.876l8.82-2.206
					c-1.506-5.845-5.219-11.117-10.801-14.464c-5.358-3.216-11.472-4.067-17.145-2.874l2.212,8.827
					C474.028,1143.769,477.678,1144.323,480.881,1146.246z"/>
			</g>
			<g>
				<path fill="#EA5930" d="M528.143,1199.777c0,6.71-2.684,12.795-7.036,17.244l10.794,10.79
					c7.111-7.213,11.498-17.107,11.498-28.034c0-10.49-4.052-20.032-10.666-27.161l-10.801,10.799
					C525.79,1187.774,528.143,1193.5,528.143,1199.777z"/>
			</g>
			<g>
				<path fill="#EA5930" d="M355.908,1161.416c0-9.958,3.727-19.039,9.848-25.947c7.17-8.092,17.636-13.196,29.298-13.196v-24.198
					c-18.346,0-34.858,7.808-46.426,20.266c-10.49,11.302-16.917,26.435-16.917,43.074c0,17.658,7.232,33.618,18.883,45.106
					l17.111-17.111C360.428,1182.304,355.908,1172.392,355.908,1161.416z"/>
			</g>
			<g>
				<path fill="#EA5930" d="M395.054,1200.56c-10.646,0-20.292-4.255-27.348-11.148l-17.111,17.111
					c11.436,11.273,27.132,18.236,44.459,18.236c16.639,0,31.77-6.425,43.074-16.919l-17.124-17.125
					C414.093,1196.835,405.011,1200.56,395.054,1200.56z"/>
			</g>
		</g>
	</g>
	<g>
		<g>
			<g>
				<path fill="#F8AF1E" d="M355.079,1228.741l-10.7-10.706c-4.407,4.266-10.409,6.897-17.03,6.897
					c-7.294,0-13.842-3.196-18.327-8.254l-10.717,10.715c7.239,7.79,17.57,12.678,29.044,12.678
					C338.146,1240.07,347.933,1235.746,355.079,1228.741z"/>
			</g>
			<g>
				<path fill="#F8AF1E" d="M461.085,1179.256l4.674-7.795c-3.555-2.131-5.883-5.527-6.756-9.273l-8.816,2.205
					C451.623,1170.398,455.377,1175.835,461.085,1179.256z"/>
			</g>
			<g>
				<path fill="#F8AF1E" d="M450.187,1164.392l8.816-2.205c-0.834-3.582-0.333-7.486,1.709-10.896
					c2.252-3.754,5.922-6.14,9.912-6.886l-2.212-8.827c-6.244,1.321-11.952,5.132-15.495,11.041
					C449.584,1152.175,448.79,1158.551,450.187,1164.392z"/>
			</g>
			<g>
				<path fill="#F8AF1E" d="M463.52,1199.777h15.257c0-6.959,2.883-13.247,7.519-17.731l-10.785-10.792
					C468.112,1178.505,463.52,1188.603,463.52,1199.777z"/>
			</g>
			<g>
				<path fill="#F8AF1E" d="M475.512,1171.254l10.785,10.792c4.442-4.299,10.492-6.952,17.165-6.952
					c7.349,0,13.949,3.222,18.47,8.32l10.801-10.799c-7.294-7.852-17.707-12.779-29.271-12.779
					C492.579,1159.837,482.715,1164.197,475.512,1171.254z"/>
			</g>
			<g>
				<path fill="#F8AF1E" d="M395.054,1098.075v24.198c11.041,0,21.005,4.574,28.122,11.926l17.109-17.107
					C428.788,1105.362,412.774,1098.075,395.054,1098.075z"/>
			</g>
		</g>
	</g>
	<path fill="#011C26" d="M874.69,933.659c0,5.785-2.047,10.724-6.14,14.817c-4.094,4.094-9.033,6.141-14.817,6.141
		c-5.785,0-10.723-2.047-14.817-6.141c-4.094-4.092-6.141-9.032-6.141-14.817s2.047-10.722,6.141-14.817
		c4.093-4.092,9.032-6.14,14.817-6.14c4.779,0,8.97,1.383,12.574,4.149v-20.914h8.382v37.722H874.69z M853.734,921.086
		c-3.466,0-6.428,1.229-8.886,3.688c-2.46,2.459-3.688,5.422-3.688,8.885c0,3.465,1.228,6.429,3.688,8.885
		c2.459,2.461,5.421,3.688,8.886,3.688c3.463,0,6.427-1.228,8.885-3.688c2.459-2.457,3.688-5.421,3.688-8.885
		c0-3.463-1.229-6.427-3.688-8.885C860.161,922.315,857.197,921.086,853.734,921.086z"/>
	<path fill="#011C26" d="M912.413,950.468c-3.604,2.764-7.795,4.149-12.574,4.149c-5.785,0-10.723-2.047-14.817-6.141
		c-4.093-4.092-6.141-9.032-6.141-14.817s2.048-10.722,6.141-14.817c4.093-4.092,9.032-6.14,14.817-6.14
		c5.784,0,10.722,2.047,14.817,6.14c4.092,4.094,6.14,9.032,6.14,14.817v20.958h-8.382v-4.149H912.413z M899.839,921.086
		c-3.466,0-6.428,1.229-8.886,3.688c-2.46,2.459-3.689,5.422-3.689,8.885c0,3.465,1.229,6.429,3.689,8.885
		c2.458,2.461,5.42,3.688,8.886,3.688c3.463,0,6.427-1.228,8.886-3.688c2.459-2.457,3.688-5.421,3.688-8.885
		c0-3.463-1.229-6.427-3.688-8.885C906.266,922.315,903.302,921.086,899.839,921.086z"/>
	<path fill="#011C26" d="M935.243,921.086v33.532h-8.382v-37.723c0-5.785,2.046-10.724,6.14-14.818
		c4.092-4.092,9.032-6.138,14.817-6.138v8.382c-3.466,0-6.428,1.229-8.886,3.686c-1.397,1.399-2.403,2.964-3.018,4.696h11.904v8.383
		L935.243,921.086L935.243,921.086z"/>
	<path fill="#011C26" d="M983.666,950.468c-3.605,2.764-7.796,4.149-12.574,4.149c-5.784,0-10.723-2.047-14.817-6.141
		c-4.092-4.092-6.14-9.032-6.14-14.817s2.047-10.722,6.14-14.817c4.094-4.092,9.034-6.14,14.817-6.14s10.723,2.047,14.818,6.14
		c4.092,4.094,6.139,9.032,6.139,14.817v20.958h-8.382L983.666,950.468L983.666,950.468z M971.093,921.086
		c-3.465,0-6.428,1.229-8.886,3.688c-2.459,2.459-3.687,5.422-3.687,8.885c0,3.465,1.228,6.429,3.687,8.885
		c2.459,2.461,5.422,3.688,8.886,3.688s6.426-1.228,8.886-3.688c2.457-2.457,3.687-5.421,3.687-8.885
		c0-3.463-1.23-6.427-3.687-8.885C977.519,922.315,974.557,921.086,971.093,921.086z"/>
	<path fill="#011C26" d="M997.177,895.938h8.383v16.765h12.576v8.383h-12.576v12.574c0,3.465,1.229,6.429,3.689,8.885
		c2.458,2.461,5.42,3.688,8.886,3.688v8.384c-5.786,0-10.724-2.047-14.818-6.141c-4.093-4.092-6.141-9.032-6.141-14.817
		L997.177,895.938L997.177,895.938z"/>
	<path fill="#011C26" d="M1052.63,942.042h9.934c-1.034,2.347-2.516,4.486-4.444,6.414c-4.107,4.107-9.054,6.161-14.837,6.161
		c-5.785,0-10.725-2.047-14.818-6.141c-4.094-4.092-6.14-9.032-6.14-14.817s2.045-10.722,6.14-14.817
		c4.092-4.092,9.033-6.14,14.818-6.14c5.783,0,10.722,2.047,14.817,6.14c4.092,4.094,6.14,9.032,6.14,14.817
		c0,1.454-0.126,2.85-0.377,4.191h-32.484c0.615,1.732,1.621,3.298,3.018,4.694c2.459,2.461,5.422,3.688,8.887,3.688
		s6.425-1.228,8.885-3.688C1052.338,942.379,1052.49,942.21,1052.63,942.042z M1055.186,929.468
		c-0.615-1.732-1.621-3.297-3.017-4.694c-2.461-2.459-5.421-3.688-8.885-3.688s-6.429,1.229-8.887,3.688
		c-1.397,1.398-2.403,2.962-3.018,4.694H1055.186z"/>
	<path fill="#011C26" d="M1076.816,933.659v20.958h-8.382v-20.958c0-5.785,2.045-10.722,6.14-14.817
		c4.092-4.092,9.034-6.14,14.817-6.14v8.383c-3.465,0-6.427,1.229-8.886,3.688C1078.045,927.233,1076.816,930.196,1076.816,933.659z
		"/>
	<path fill="#A8C545" d="M912.531,823.985h-15.14c0,6.904-2.859,13.143-7.46,17.592l10.7,10.706
		C907.974,845.089,912.531,835.073,912.531,823.985z"/>
	<path fill="#A8C545" d="M1031.486,789.961c-1.923,3.205-4.881,5.411-8.186,6.454c-3.876,1.224-8.231,0.843-11.987-1.412
		l-4.675,7.795c5.907,3.545,12.738,4.222,18.873,2.446c5.56-1.617,10.553-5.254,13.766-10.612
		c3.412-5.688,4.167-12.224,2.634-18.174l-8.82,2.206C1034.064,782.356,1033.605,786.429,1031.486,789.961z"/>
	<path fill="#A8C545" d="M1049.016,848.004c-6.28,0-12.008-2.353-16.363-6.211c-5.103-4.521-8.322-11.123-8.322-18.474h-15.257
		c0,11.566,4.926,21.979,12.78,29.276c7.127,6.613,16.669,10.664,27.163,10.664c11.132,0,21.196-4.559,28.439-11.906l-10.794-10.79
		C1062.184,845.153,1055.934,848.004,1049.016,848.004z"/>
	<path fill="#A8C545" d="M985.838,740.634l-17.11,17.107c6.817,7.047,11.022,16.639,11.022,27.216
		c0,11.663-5.106,22.127-13.194,29.298l17.124,17.125c12.46-11.566,20.267-28.08,20.267-46.424
		C1003.948,767.697,997.035,752.057,985.838,740.634z"/>
	<g>
		<g>
			<g>
				<path fill="#DFD3B6" d="M848.413,823.985c0-6.659,2.663-12.694,6.98-17.111l-10.71-10.706
					c-7.053,7.157-11.406,16.975-11.406,27.817c0,10.408,4.019,19.875,10.581,26.949l10.717-10.715
					C850.747,835.895,848.413,830.212,848.413,823.985z"/>
			</g>
			<g>
				<path fill="#DFD3B6" d="M1026.435,769.788c3.429,2.058,5.716,5.291,6.657,8.876l8.82-2.206
					c-1.506-5.845-5.219-11.117-10.801-14.463c-5.359-3.216-11.473-4.067-17.145-2.874l2.211,8.827
					C1019.582,767.311,1023.231,767.865,1026.435,769.788z"/>
			</g>
			<g>
				<path fill="#DFD3B6" d="M1073.696,823.319c0,6.71-2.684,12.795-7.036,17.244l10.794,10.79
					c7.111-7.214,11.498-17.107,11.498-28.034c0-10.49-4.052-20.032-10.666-27.161l-10.801,10.799
					C1071.344,811.316,1073.696,817.042,1073.696,823.319z"/>
			</g>
			<g>
				<path fill="#DFD3B6" d="M901.461,784.958c0-9.958,3.727-19.039,9.848-25.947c7.17-8.092,17.636-13.196,29.297-13.196v-24.198
					c-18.345,0-34.857,7.808-46.426,20.266c-10.49,11.302-16.916,26.435-16.916,43.074c0,17.658,7.231,33.618,18.882,45.107
					l17.111-17.111C905.982,805.846,901.461,795.934,901.461,784.958z"/>
			</g>
			<g>
				<path fill="#DFD3B6" d="M940.606,824.102c-10.645,0-20.292-4.255-27.348-11.149l-17.111,17.111
					c11.437,11.273,27.132,18.236,44.459,18.236c16.639,0,31.771-6.425,43.075-16.919l-17.124-17.125
					C959.646,820.377,950.565,824.102,940.606,824.102z"/>
			</g>
		</g>
	</g>
	<g>
		<g>
			<g>
				<path fill="#0092B2" d="M900.631,852.283l-10.7-10.706c-4.407,4.266-10.409,6.897-17.03,6.897
					c-7.293,0-13.841-3.196-18.326-8.254l-10.717,10.715c7.238,7.79,17.57,12.678,29.043,12.678
					C883.699,863.612,893.485,859.288,900.631,852.283z"/>
			</g>
			<g>
				<path fill="#0092B2" d="M1006.638,802.798l4.675-7.795c-3.555-2.131-5.884-5.527-6.757-9.273l-8.815,2.204
					C997.176,793.94,1000.93,799.377,1006.638,802.798z"/>
			</g>
			<g>
				<path fill="#0092B2" d="M995.741,787.934l8.815-2.204c-0.834-3.582-0.333-7.486,1.709-10.896
					c2.253-3.754,5.922-6.139,9.912-6.886l-2.211-8.827c-6.244,1.321-11.952,5.132-15.496,11.041
					C995.136,775.717,994.343,782.093,995.741,787.934z"/>
			</g>
			<g>
				<path fill="#0092B2" d="M1009.073,823.319h15.257c0-6.959,2.883-13.247,7.52-17.731l-10.785-10.792
					C1013.665,802.047,1009.073,812.145,1009.073,823.319z"/>
			</g>
			<g>
				<path fill="#0092B2" d="M1021.065,794.796l10.785,10.792c4.442-4.299,10.492-6.952,17.166-6.952
					c7.349,0,13.949,3.222,18.47,8.32l10.801-10.799c-7.294-7.852-17.707-12.779-29.271-12.779
					C1038.131,783.379,1028.267,787.739,1021.065,794.796z"/>
			</g>
			<g>
				<path fill="#0092B2" d="M940.606,721.617v24.198c11.041,0,21.006,4.574,28.122,11.926l17.11-17.107
					C974.342,728.904,958.327,721.617,940.606,721.617z"/>
			</g>
		</g>
	</g>
</g>
</svg>
